<?xml version="1.0" encoding="utf-8"?>
<!-- Generator: Adobe Illustrator 28.0.0, SVG Export Plug-In . SVG Version: 6.00 Build 0)  -->
<svg version="1.1" id="Layer_1" xmlns="http://www.w3.org/2000/svg" xmlns:xlink="http://www.w3.org/1999/xlink" x="0px" y="0px"
	 viewBox="0 0 325 138" style="enable-background:new 0 0 325 138;" xml:space="preserve">
<style type="text/css">
	.st0{fill:#FFFFFF;}
	.st1{fill:#BBE9F6;}
	.st2{fill:#E4F7FD;}
</style>
<g>
	<rect x="15.5" y="57" class="st0" width="293" height="81"/>
	<g>
		<path class="st1" d="M325,83.9c0,3.7-0.8,7.5-2.2,10.9c0,0,0,0,0,0c-0.3,0.8-0.7,1.5-1.1,2.3c-1.9,4-5.4,12.7-5.7,19.4
			c-0.4,9.1-7.3,13.3-13,10.7c-0.2-0.1-0.4-0.2-0.6-0.4c-4.4-3.8-0.1-25.5-2.2-33.8c-0.3-1.4-1.2-6.7-2.9-8.4c0,0-3.5-4-9.1,2.1
			c-3.3,3.5-4,7.5-10.2,5.8c-8.3-2.2-1.8-16-8.9-19.5c-6.8-2.8-14.6,0.6-19,2.8c-11.8,6-24.4,7.1-36.4,1.9s-18.6-9.6-31-5.6
			c-23.6,8.3-47.8,13.6-72,9.5c-2.2-0.4-4-0.5-6.6-0.2c-2,0.3-11.3,2.7-13.7,10.4C79.3,127.3,67.4,117.3,64,86
			c-0.2-1.5-0.9-2.5-1.9-3.2c-4.6-3-15.5,9.1-19.6,15.7c-4.1,6.7-15,5-19.1,9.7c-5.3,6-2.9,15.9-3.3,22.6c-0.2,3.3-3.3,5.8-6.2,5.6
			c-3-0.2-5.9-3.1-5.7-10.7c0.2-8-2-17.6-4.1-25.8c5.4,16.6,8.3,20.4,9.8,20.3c1.4-0.1,1.6-3.7,1.6-3.7s0.7-16.8,6.4-17.4
			c5.7-0.6,21.4-12.6,23.8-19.5c2.4-6.9,15.7-17.2,20.2-13c0.1,0.1,0.1,0.1,0.2,0.2c0.1,0.1,0.1,0.2,0.2,0.2c1,1.3,1.8,3.4,2.4,5.9
			c0,0,0,0.1,0,0.1c0.8,3.3,1.5,7.3,2.5,10.6c0,0,0,0,0,0.1c1.6,6.7,3.7,12.7,7.3,12.8c10.5,0.3,7.4-20.2,36.2-19.8
			c15.5,0.2,36.3-1.3,50.1-8.4c13.5-6.9,39.5-8.8,48.4-5.2c0.4,0.2,0.8,0.4,1.2,0.6c7.6,4.4,24,8.2,36.4,3.1
			c12.4-5,18.6-7.1,21.9-4.8c3.3,2.3,1.7,12.3,7.8,14.2c6,1.9,12.1-2.8,17.3-3.9c2.2-0.5,3.7,0.4,4.8,2.2c0.1,0.2,0.2,0.4,0.3,0.6
			c0,0,0,0.1,0,0.1c0.1,0.2,0.2,0.4,0.3,0.6c3.4,9.1-1.4,32,5,35.2c0.4,0.2,0.8,0.4,1.3,0.4h0c6.6,0.5,8.1-10.9,9.9-14.7
			c2.8-6,4.4-13.7,3-20.5c-0.9-4.3-1.3-7.5-0.3-10.9c-0.2,1.2-0.3,2.3-0.3,3.2c0,2.4,1.1,4.5,1.9,6.6C324.5,78.1,325,81,325,83.9z"
			/>
	</g>
	<path class="st0" d="M303.2,69.5c-0.1-0.6-0.3-1-0.7-1.3c-3.1-2.5-14.6,1.6-18.7-1.5c-4.6-3.5-2.2-6.9-6.3-9.9
		c-0.1-0.1-0.1-0.1-0.2-0.2c-2.8-1.9-8.1-1.3-14.4,0.2c-10.1,2.3-22.6,6.9-31,7c-7,0.1-14-3.8-21.4-7c-5.3-2.3-10.8-4.2-16.5-4
		c-28,0.8-40.4-3.3-50.4-6.1c-9.1-2.6-30.4,1.8-42.8,10.2c-1.3,0.9-2.6,1.8-3.7,2.8c-2.5,2.3-14.2,7.8-18.4,1.3
		c-1-1.6-2.7-3-4.7-4.1c-4.8-2.6-11.6-3.4-17.2,0c-1.7,1-3.3,2.5-4.6,4.3c-7.4,10.3-23,15.9-38.4,15.3c-0.7,0-1.5-0.1-2.2-0.1
		c-15.8-1.2-5.1-37-4.7-38.5c0,0,0,0,0,0c3.2-6.1,8.3-10.3,14.5-12.3C38.8,14.6,35.1,20,54.1,13.9C64.1,10.7,72.4,0.7,82.7,0
		c9.5-0.6,24.6,10.4,33.8,13.4c18.6,6.1,26.5-0.5,45.5,3.1c20.4,3.8,10.2,11,33.5,6.9c4.6-0.8,14,1.4,17.9,4.5
		c6.7,5.2,7.1,11.2,36.1,13.9c21.5,2,26.6,1.7,40.6-3.6c8.5-3.2,14.1-1.6,22.1,4.9c0.4,0.3,0.9,0.7,1.3,1c2.7,2,5.7,3.9,7.6,7.5
		C326.4,72.7,303.8,74.5,303.2,69.5z"/>
	<path class="st2" d="M322.3,76.5c1.4,6.7-0.2,14.5-3,20.5c-1.8,3.8-3.3,15.3-9.9,14.7h0c-0.5,0-0.9-0.2-1.3-0.4
		c-6.4-3.2-1.6-26.1-5-35.2c-0.1-0.2-0.2-0.4-0.3-0.6c0,0,0-0.1,0-0.1c-0.1-0.2-0.2-0.4-0.3-0.6c-1-1.8-2.5-2.7-4.8-2.2
		c-5.1,1.2-11.2,5.9-17.3,3.9c-6-1.9-4.5-11.9-7.8-14.2c-3.3-2.3-9.5-0.2-21.9,4.8c-12.4,5-28.8,1.3-36.4-3.1
		c-0.3-0.2-0.7-0.4-1.2-0.6c-8.9-3.7-34.9-1.7-48.4,5.2c-13.8,7-34.5,8.6-50.1,8.4c-28.8-0.4-25.6,20-36.2,19.8
		c-3.7-0.1-5.7-6.1-7.3-12.8c0,0,0,0,0-0.1c-0.9-3.6-1.7-7.5-2.5-10.6c0,0,0-0.1,0-0.1c-0.6-2.5-1.4-4.7-2.4-5.9
		c-0.1-0.1-0.1-0.2-0.2-0.2c-0.1-0.1-0.1-0.1-0.2-0.2c-4.5-4.2-17.8,6.1-20.2,13c-2.4,6.9-18.1,18.9-23.8,19.5
		c-5.7,0.6-6.4,17.4-6.4,17.4s-0.2,3.5-1.6,3.7c-1.5,0.1-4.4-3.7-9.8-20.3c0,0,0-0.1,0-0.1C2.8,96.5,2,93.1,1.4,89.7c0,0,0,0,0,0
		c-4.9-26.8,4.7-50.1,5.5-51.8c0,0,0,0,0-0.1h0c-0.4,1.4-11.1,37.3,4.7,38.5c0.7,0.1,1.5,0.1,2.2,0.1c15.4,0.6,30.9-5,38.4-15.3
		c1.4-1.9,2.9-3.3,4.6-4.3c5.6-3.4,12.4-2.6,17.2,0c2,1.1,3.7,2.5,4.7,4.1c4.1,6.4,15.8,1,18.4-1.3c1.1-1,2.3-1.9,3.7-2.8
		c12.4-8.4,33.8-12.8,42.8-10.2c10,2.9,22.4,6.9,50.4,6.1c5.8-0.2,11.3,1.8,16.5,4c7.4,3.2,14.5,7.1,21.4,7c8.4-0.1,20.9-4.7,31-7
		c6.3-1.5,11.7-2,14.4-0.2c0.1,0.1,0.2,0.1,0.2,0.2c4,2.9,1.7,6.3,6.3,9.9c4.2,3.2,15.7-0.9,18.7,1.5c0.4,0.3,0.7,0.8,0.7,1.3
		c0.6,5,23.2,3.1,18-17.9c0.9,1.8,1.5,3.9,1.7,6.7c0.1,2-0.4,4.8-0.8,7.3C321,69,321.4,72.2,322.3,76.5z"/>
</g>
</svg>
