<svg width="475" height="486" viewBox="0 0 475 486" fill="none" xmlns="http://www.w3.org/2000/svg">
<path d="M444.145 352.831C446.806 353.48 448.349 353.862 449.971 354.257C449.829 354.57 449.813 354.825 449.608 355.022C445.531 358.721 445.657 358.605 452.568 361.016C460.299 363.718 465.211 367.405 465.384 372.414C465.432 373.666 465.258 374.907 465.101 376.159C464.471 380.762 465.573 385.145 471.225 388.948C474.61 391.221 475.02 393.632 472.39 396.195C470.958 397.586 469.068 398.966 468.47 400.462C467.636 402.584 467.588 404.81 467.636 406.99C467.683 409.436 468.376 411.871 468.439 414.306C468.486 416.289 467.998 418.283 467.762 420.277C467.746 420.439 467.872 420.625 467.762 420.776C464.219 425.669 466.392 430.654 467.258 435.571C467.966 439.606 469.557 443.594 470.659 447.606C471.052 449.055 472.044 450.632 471.32 451.942C469.179 455.873 470.186 459.653 471.651 463.537C472.516 465.856 472.406 468.303 472.249 470.68C472.202 471.433 470.533 472.152 469.62 472.883C468.108 472.349 466.171 471.99 465.164 471.271C460.362 467.85 459.323 463.804 460.267 459.815C461.102 456.232 463.511 452.731 465.258 449.206C465.557 448.592 466.077 448 467.1 446.528C462.204 447.154 457.984 447.2 454.883 448.186C449.734 449.821 444.822 451.838 440.666 454.099C432.479 458.575 423.567 462.401 412.515 464.871C406.17 466.285 401.163 468.569 397.574 471.735C396.676 472.523 393.952 473.288 392.205 473.219C370.604 472.303 349.805 473.996 330.928 479.434C311.263 485.092 290.434 486.054 268.706 485.706C242.256 485.277 217.6 481.66 193.937 475.712C164.81 468.395 135.494 461.276 106.241 454.087C84.8759 448.835 65.2271 442.458 51.7027 431.768C41.5949 436.498 34.3525 442.156 27.8816 448.105C23.2842 452.325 23.4259 452.325 30.2905 455.34C33.1087 456.58 35.7852 457.914 38.3358 459.305C40.4455 460.441 40.0519 461.566 36.6984 462.702C33.3448 463.839 30.2747 465.334 27.5667 466.911C20.9698 470.749 16.0576 470.842 11.413 466.83C7.0676 463.085 6.83144 458.911 7.14633 454.714C7.57142 449.067 8.54757 443.409 8.46885 437.762C8.40587 433.449 7.82333 433.437 15.9946 432.173C23.1583 431.06 30.3534 429.982 38.509 428.741C30.133 427.733 22.6072 426.677 14.9555 425.959C10.736 425.564 9.13011 424.498 10.248 422.561C11.5705 420.242 13.5228 418.016 15.2074 415.744C11.0824 415.778 8.29566 413.97 7.53993 411.743C6.50081 408.694 5.11531 405.343 6.5323 402.479C10.6731 394.108 11.2241 386.003 6.50081 377.608C4.61149 374.258 4.2966 370.107 6.34336 366.837C12.1058 357.608 11.5862 348.529 8.1697 339.218C7.2093 336.586 8.09099 333.769 8.27992 331.032C8.32715 330.395 8.65778 329.49 9.49222 329.189C14.8925 327.218 12.9402 324.354 13.6802 321.71C14.3257 319.368 17.1125 317.177 18.9545 314.927C20.8439 312.597 22.6387 310.255 24.6697 307.959C25.2995 307.24 26.4174 306.301 27.6454 306.127C32.1483 305.512 36.8086 305.234 41.3587 304.701C42.8544 304.527 44.1769 303.947 45.5782 303.553C44.4761 303.031 43.4527 302.451 42.2404 302.022C41.217 301.663 39.9575 301.489 38.5247 301.176C52.0963 299.46 22.8802 297.802 36.0425 296.144H31.7862C14.1525 294.358 43.1063 291.575 25.457 289.836C20.5605 289.349 15.5223 289.21 10.6258 288.7C9.14585 288.538 7.14633 287.772 6.75272 287.077C4.97361 283.981 3.96598 280.769 2.17113 277.673C0.439254 274.67 0.171602 271.783 2.62771 268.896C5.13106 265.939 4.87915 263.006 3.77705 259.864C1.21073 252.536 3.22599 245.544 12.4522 239.55C16.9235 236.64 16.1678 233.764 14.0108 230.622C12.8143 228.883 12.2002 227.051 11.6492 225.926C10.2637 224.129 8.94118 222.969 8.50034 221.717C7.42972 218.702 6.62676 215.665 5.98125 212.615C5.74508 211.491 5.71359 210.215 6.48506 209.183C11.9483 201.913 10.6888 194.597 7.14633 187.315C5.66636 184.266 6.94165 182.191 11.6177 180.104C20.1039 176.312 28.0075 172.161 35.9899 168.242C31.7704 168.242 27.3935 168.346 23.0323 168.207C18.2933 168.057 13.4598 167.628 11.1769 165.077C8.7365 162.364 9.22457 159.546 12.9875 157.32C22.1506 151.905 20.6234 145.992 16.7661 139.916C15.5065 137.945 13.019 136.078 12.6253 134.084C12.1688 131.753 12.8143 129.261 13.9794 126.976C15.8057 123.405 16.1206 119.927 14.2313 116.379C8.24842 105.097 9.445 93.9546 16.8606 82.9628C19.726 78.7191 19.663 74.6377 14.8768 70.7419C10.9564 67.5417 9.08287 64.1793 10.0905 60.295C10.4999 58.695 8.42162 56.9673 8.07524 55.2745C7.76035 53.7324 7.93354 52.1091 8.50034 50.5786C9.46074 48.0162 11.2084 45.5349 12.0428 42.9725C12.6568 41.1057 11.9168 39.123 12.4994 37.2447C13.8377 32.9082 21.4422 31.5285 27.8658 34.3692C29.33 35.0069 30.6211 35.7721 31.7862 36.5606C35.2184 38.9027 34.8406 39.668 29.8496 41.2101C27.7714 41.8478 25.7561 42.5435 23.7723 43.2508C13.3338 46.9959 12.6883 55.5528 22.497 59.7849C26.6535 61.5705 31.1406 61.8139 35.9269 60.3994C37.8792 59.8196 39.7056 59.124 41.4374 58.3819C45.1846 56.805 48.9474 55.2165 52.5214 53.5353C74.4375 43.1812 100.227 36.6417 127.984 31.3314C195.338 18.4612 265.148 11.0637 335.635 4.98809C345.46 4.14167 355.521 3.96775 365.502 3.60832C373.438 3.31845 375.264 4.06051 377.751 8.00272C378.35 8.9419 378.964 9.88107 379.609 10.8782C382.018 9.37091 384.285 7.95635 386.553 6.53019L388.048 6.77368C388.458 9.28974 392.677 6.47222 393.291 8.97668C401.21 8.73319 395.259 11.5043 403.163 11.2608C403.903 10.6347 403.997 12.745 402.187 11.713C400.329 9.24336 402.281 7.70126 402.722 5.73015C403.053 4.15327 404.989 3.02858 408.012 4.01413C415.884 6.57657 422.843 5.03447 429.849 3.09815C430.416 2.93582 430.951 2.7619 431.518 2.59957C437.69 0.837171 438.792 0.976308 442.398 4.17646C447.94 3.33004 453.623 2.49522 459.228 1.57923C462.849 0.987903 464.251 1.55605 464.298 3.52715C464.329 5.42869 465.369 7.34182 465.195 9.23177C465.022 11.342 464.266 13.4639 463.243 15.5161C462.22 17.5452 459.669 19.4004 463.999 21.3715C465.306 21.9628 465.18 23.5745 465.195 24.7108C465.353 32.1198 465.18 39.5288 465.526 46.9379C465.699 50.4511 464.692 53.6396 460.614 56.5267C459.181 57.5355 458.063 58.6486 457.339 59.8544C456.331 61.5473 454.473 63.2865 459.748 64.3764C463.18 65.0953 464.676 69.5245 462.991 71.3448C459.685 74.8928 458.205 78.3596 463.369 81.9076C464.487 82.6845 464.471 84.1918 463.983 85.2469C462.062 89.4094 462.377 93.5024 464.188 97.6185C465.274 100.088 464.03 102.268 462.503 104.749C460.189 108.494 460.157 112.738 460.488 116.738C460.834 120.878 462.881 124.959 463.889 129.087C464.093 129.956 463.07 130.895 462.598 131.811C461.732 133.527 459.858 135.278 460.157 136.936C461.007 141.4 462.487 145.853 464.361 150.235C464.975 151.673 467.053 153.25 469.383 154.12C474.138 155.905 474.091 158.294 473.996 160.81C473.918 163.164 471.131 164.219 467.148 165.054C450.364 168.613 473.949 164.469 457.339 168.562C461.716 168.457 450.411 171.308 454.773 171.123C462.975 170.763 446.617 175.35 454.773 174.828C458.835 174.573 460.598 175.338 461.637 177.356C462.676 179.373 464.125 181.333 466.109 183.153C467.809 184.718 467.73 185.797 465.573 187.095C455.827 192.927 455.717 195.374 462.645 202.087C465.211 204.568 466.974 207.525 467.305 210.331C468.171 217.473 467.982 224.651 468.297 231.816C468.391 233.996 467.447 235.619 462.456 235.758C458.551 235.863 456.835 237.324 455.953 238.982C453.072 244.42 453.608 249.695 459.575 254.611C461.716 256.374 463.826 258.148 465.998 259.899C468.738 262.09 468.911 264.386 465.998 266.461C457.544 272.49 457.528 279.169 458.142 286.265C459.024 296.492 458.047 306.753 457.906 317.014C457.796 325.444 457.67 333.873 457.748 342.302C457.764 343.937 456.473 345.503 454.237 346.662C450.695 348.506 447.688 350.616 444.129 352.807L444.145 352.831Z" fill="#D7C6A6"/>
<g clip-path="url(#clip0_697_3497)">
<path d="M250.564 0.439862C268.097 0.69862 285.63 0.924755 303.164 1.27486C305.193 1.31774 307.181 2.03287 309.178 2.44129C307.221 2.83525 305.301 3.49655 303.297 3.58406C227.768 6.91939 155.705 17.488 87.9512 37.0868C74.9779 40.8394 63.5695 45.7855 52.6602 51.1795C51.2477 51.8776 48.3605 52.6608 47.3205 52.3067C45.7374 51.7659 44.5278 50.3164 44.2887 49.1822C42.9845 42.8134 38.4605 37.4381 30.0717 33.1245C26.288 31.1779 26.7217 29.0749 31.4263 27.794C47.2309 23.4867 64.0396 20.8909 81.048 18.7835C100.141 16.4186 119.515 14.7441 138.49 12.1253C152.308 10.2218 165.749 7.38696 179.226 4.74772C196.018 1.46035 213.398 1.24349 230.824 1.05252C237.393 0.976675 243.963 0.985646 250.522 0.955522C250.52 0.785881 250.542 0.616134 250.541 0.439968L250.564 0.439862Z" fill="#D7C6A6"/>
</g>
<path d="M190.616 257.843C192.109 257.629 193.485 257.523 194.744 257.523L194.424 250.067C193.912 250.984 193.187 252.456 192.248 254.483C191.437 256.211 190.893 257.331 190.616 257.843ZM200.184 269.299C200.269 269.619 200.184 269.928 199.928 270.227C199.672 270.504 199.32 270.728 198.872 270.899C198.445 271.091 198.04 271.187 197.656 271.187C197.037 271.187 196.685 270.995 196.6 270.611C195.832 267.56 195.267 263.933 194.904 259.731C192.984 259.709 191.075 259.891 189.176 260.275C187.171 263.624 185.304 266.707 183.576 269.523C183.405 269.821 183.053 270.077 182.52 270.291C181.965 270.483 181.453 270.579 180.984 270.579C180.387 270.579 180.088 270.419 180.088 270.099C180.088 269.971 180.131 269.832 180.216 269.683C181.923 266.696 183.501 263.965 184.952 261.491L184.408 261.683C184.067 261.811 183.757 261.875 183.48 261.875C183.203 261.875 182.989 261.811 182.84 261.683C182.669 261.555 182.584 261.395 182.584 261.203C182.584 260.989 182.691 260.776 182.904 260.563C183.096 260.328 183.384 260.125 183.768 259.955C184.771 259.507 185.667 259.155 186.456 258.899C187.608 256.915 188.835 254.664 190.136 252.147C191.629 249.267 192.888 247.016 193.912 245.395C193.976 245.309 194.061 245.224 194.168 245.139L194.136 244.979C194.136 244.595 194.403 244.253 194.936 243.955C195.491 243.635 196.045 243.475 196.6 243.475C197.283 243.475 197.635 243.731 197.656 244.243L197.752 246.387C197.944 251.528 198.189 255.859 198.488 259.379C198.808 262.877 199.373 266.184 200.184 269.299ZM210.822 250.131C210.971 249.917 211.27 249.736 211.718 249.587C212.187 249.416 212.624 249.331 213.03 249.331C213.328 249.331 213.563 249.373 213.734 249.459C213.926 249.544 214.022 249.683 214.022 249.875C214.022 250.024 213.968 250.184 213.862 250.355C212.112 253.277 210.64 256.179 209.446 259.059C208.272 261.917 207.366 264.883 206.726 267.955C206.64 268.36 206.331 268.733 205.798 269.075C205.286 269.395 204.774 269.555 204.262 269.555C203.686 269.555 203.323 269.331 203.174 268.883C202.363 266.493 201.787 264.061 201.446 261.587C201.126 259.091 200.827 255.869 200.549 251.923L200.518 251.251C200.496 250.781 200.774 250.365 201.35 250.003C201.947 249.64 202.534 249.459 203.11 249.459C203.664 249.459 203.952 249.651 203.974 250.035C204.016 250.547 204.038 250.952 204.038 251.251V251.347C204.272 255.421 204.614 258.728 205.062 261.267C206.534 257.043 208.454 253.331 210.822 250.131ZM218.433 244.691C218.198 244.627 217.963 244.595 217.729 244.595C217.259 244.595 216.843 244.712 216.481 244.947C216.011 245.203 215.745 245.459 215.681 245.715C215.403 246.717 215.222 247.379 215.137 247.699V247.795C215.137 247.901 215.179 248.008 215.265 248.115C215.35 248.2 215.446 248.264 215.553 248.307C215.723 248.392 215.915 248.435 216.129 248.435C216.47 248.435 216.875 248.339 217.345 248.147C217.835 247.933 218.155 247.645 218.305 247.283C218.433 246.92 218.614 246.28 218.849 245.363V245.299C218.849 245.192 218.806 245.085 218.721 244.979C218.635 244.851 218.539 244.755 218.433 244.691ZM217.185 257.523C217.057 258.376 216.811 259.923 216.449 262.163C216.107 264.381 215.819 266.397 215.585 268.211C215.521 268.616 215.233 268.968 214.721 269.267C214.23 269.544 213.729 269.683 213.217 269.683C212.875 269.683 212.609 269.619 212.417 269.491C212.246 269.341 212.182 269.128 212.225 268.851C212.587 266.717 212.971 264.285 213.377 261.555C213.803 258.803 214.102 256.84 214.273 255.667L214.945 251.283C215.009 250.899 215.297 250.568 215.809 250.291C216.342 250.013 216.854 249.875 217.345 249.875C217.643 249.875 217.878 249.939 218.049 250.067C218.219 250.195 218.283 250.376 218.241 250.611L217.185 257.523ZM223.602 254.451C223.602 255.261 223.804 255.976 224.21 256.595C224.636 257.213 225.148 257.736 225.746 258.163C226.343 258.589 227.154 259.091 228.178 259.667C229.564 260.456 230.62 261.171 231.346 261.811C232.092 262.451 232.583 263.251 232.818 264.211C232.903 264.637 232.946 264.947 232.946 265.139C232.946 266.632 232.156 267.709 230.578 268.371C228.999 269.011 227.207 269.331 225.202 269.331C224.412 269.331 223.719 269.277 223.122 269.171C222.418 269.043 221.682 268.797 220.914 268.435C220.167 268.051 219.538 267.592 219.026 267.059C218.535 266.504 218.29 265.939 218.29 265.363C218.29 264.467 218.983 263.645 220.37 262.899C220.754 262.707 221.127 262.611 221.49 262.611C221.831 262.611 222.108 262.685 222.322 262.835C222.556 262.984 222.674 263.165 222.674 263.379C222.674 263.763 222.364 264.136 221.746 264.499C221.618 264.563 221.554 264.659 221.554 264.787C221.554 265.043 221.756 265.352 222.161 265.715C222.567 266.077 222.887 266.323 223.122 266.451C223.762 266.813 224.786 267.037 226.194 267.123C226.364 267.144 226.663 267.155 227.09 267.155C227.858 267.155 228.476 267.027 228.946 266.771C229.415 266.515 229.618 266.045 229.554 265.363C229.468 264.445 228.54 263.411 226.77 262.259L225.554 261.491C224.444 260.808 223.527 260.211 222.802 259.699C222.098 259.165 221.49 258.536 220.978 257.811C220.466 257.064 220.21 256.232 220.21 255.315C220.21 254.739 220.316 254.163 220.53 253.587C220.999 252.2 221.874 251.133 223.154 250.387C224.434 249.619 225.81 249.235 227.282 249.235C228.796 249.235 230.066 249.619 231.09 250.387C232.135 251.155 232.658 252.243 232.658 253.651C232.658 254.099 232.594 254.579 232.466 255.091C232.38 255.475 232.06 255.805 231.506 256.083C230.951 256.36 230.428 256.499 229.938 256.499C229.639 256.499 229.404 256.435 229.234 256.307C229.084 256.179 229.052 255.997 229.138 255.763C229.266 255.315 229.33 254.867 229.33 254.419C229.33 253.715 229.148 253.117 228.786 252.627C228.423 252.136 227.89 251.795 227.186 251.603C226.802 251.517 226.514 251.475 226.322 251.475C225.554 251.475 224.903 251.752 224.37 252.307C223.858 252.84 223.602 253.555 223.602 254.451ZM244.03 261.427C244.116 261.064 244.158 260.637 244.158 260.147C244.158 258.44 243.518 256.776 242.238 255.155C241.513 254.216 240.745 253.459 239.934 252.883C239.294 256.872 238.793 260.093 238.43 262.547C238.26 263.549 238.025 265.053 237.726 267.059C238.366 267.357 238.953 267.507 239.486 267.507C240.382 267.507 241.193 267.069 241.918 266.195C242.452 265.555 242.9 264.819 243.262 263.987C243.625 263.155 243.881 262.301 244.03 261.427ZM240.286 249.779C241.609 250.227 242.804 250.984 243.87 252.051C244.937 253.096 245.769 254.323 246.366 255.731C246.985 257.117 247.294 258.504 247.294 259.891C247.294 260.637 247.198 261.363 247.006 262.067C246.601 263.539 245.982 264.861 245.15 266.035C244.34 267.187 243.358 268.104 242.206 268.787C241.076 269.448 239.86 269.779 238.558 269.779C238.153 269.779 237.737 269.747 237.31 269.683C236.457 275.144 235.689 279.603 235.006 283.059C234.921 283.464 234.622 283.805 234.11 284.083C233.598 284.36 233.076 284.499 232.542 284.499C232.18 284.499 231.902 284.424 231.71 284.275C231.497 284.125 231.422 283.901 231.486 283.603C232.532 278.312 233.449 273.267 234.238 268.467L234.174 268.435C233.897 268.243 233.758 268.029 233.758 267.795C233.758 267.432 234.014 267.091 234.526 266.771C235.209 262.824 235.977 257.757 236.83 251.571L236.414 251.603L236.062 251.635C235.7 251.635 235.433 251.571 235.262 251.443C235.092 251.315 235.006 251.155 235.006 250.963C235.006 250.643 235.166 250.333 235.486 250.035C235.806 249.736 236.201 249.544 236.67 249.459C237.054 249.395 237.438 249.363 237.822 249.363C238.1 249.363 238.473 249.384 238.942 249.427C239.625 249.341 240.073 249.459 240.286 249.779ZM250.616 264.819C250.573 265.075 250.552 265.256 250.552 265.363C250.552 266.216 250.968 266.643 251.8 266.643C252.291 266.643 252.888 266.504 253.592 266.227C254.232 265.971 255.416 265.427 257.144 264.595C257.187 264.061 257.229 263.549 257.272 263.059C257.336 262.547 257.389 262.088 257.432 261.683L257.656 259.475C256.184 260.179 255.085 260.733 254.36 261.139C253.293 261.757 252.44 262.344 251.8 262.899C251.16 263.432 250.765 264.072 250.616 264.819ZM258.936 249.747C259.896 249.747 260.536 249.992 260.856 250.483C261.197 250.952 261.368 251.645 261.368 252.563L261.336 253.459C261.251 255.016 261.059 257.299 260.76 260.307C260.696 260.733 260.621 261.448 260.536 262.451C260.451 263.069 260.376 263.571 260.312 263.955C260.547 264.083 260.664 264.253 260.664 264.467C260.664 264.616 260.589 264.84 260.44 265.139L260.312 265.299L260.12 265.491C259.971 266.579 259.896 267.507 259.896 268.275C260.195 268.445 260.344 268.648 260.344 268.883C260.344 269.245 260.077 269.629 259.544 270.035C259.395 270.141 259.224 270.248 259.032 270.355C258.883 270.44 258.669 270.515 258.392 270.579C258.136 270.643 257.88 270.675 257.624 270.675C256.835 270.675 256.472 270.387 256.536 269.811L256.792 267.123C253.933 268.488 251.736 269.171 250.2 269.171C248.259 269.171 247.288 268.125 247.288 266.035C247.288 264.029 248.323 262.323 250.392 260.915C252.483 259.507 254.979 258.237 257.88 257.107C257.965 256.275 258.029 255.432 258.072 254.579C258.072 254.408 258.083 254.195 258.104 253.939C258.125 253.683 258.136 253.395 258.136 253.075C258.136 252.669 258.104 252.403 258.04 252.275L257.944 252.147H257.912C257.592 252.147 256.995 252.584 256.12 253.459C255.331 254.227 254.349 255.379 253.176 256.915C253.005 257.149 252.717 257.341 252.312 257.491C251.928 257.64 251.533 257.715 251.128 257.715C250.829 257.715 250.573 257.661 250.36 257.555C250.168 257.448 250.072 257.288 250.072 257.075C250.072 256.904 250.157 256.68 250.328 256.403C253.272 251.965 256.141 249.747 258.936 249.747ZM272.687 261.427C272.772 261.064 272.815 260.637 272.815 260.147C272.815 258.44 272.175 256.776 270.895 255.155C270.169 254.216 269.401 253.459 268.591 252.883C267.951 256.872 267.449 260.093 267.087 262.547C266.916 263.549 266.681 265.053 266.383 267.059C267.023 267.357 267.609 267.507 268.143 267.507C269.039 267.507 269.849 267.069 270.575 266.195C271.108 265.555 271.556 264.819 271.919 263.987C272.281 263.155 272.537 262.301 272.687 261.427ZM268.943 249.779C270.265 250.227 271.46 250.984 272.527 252.051C273.593 253.096 274.425 254.323 275.023 255.731C275.641 257.117 275.951 258.504 275.951 259.891C275.951 260.637 275.855 261.363 275.663 262.067C275.257 263.539 274.639 264.861 273.807 266.035C272.996 267.187 272.015 268.104 270.863 268.787C269.732 269.448 268.516 269.779 267.215 269.779C266.809 269.779 266.393 269.747 265.967 269.683C265.113 275.144 264.345 279.603 263.663 283.059C263.577 283.464 263.279 283.805 262.767 284.083C262.255 284.36 261.732 284.499 261.198 284.499C260.836 284.499 260.558 284.424 260.366 284.275C260.153 284.125 260.078 283.901 260.142 283.603C261.188 278.312 262.105 273.267 262.895 268.467L262.831 268.435C262.553 268.243 262.415 268.029 262.415 267.795C262.415 267.432 262.671 267.091 263.183 266.771C263.865 262.824 264.633 257.757 265.487 251.571L265.071 251.603L264.719 251.635C264.356 251.635 264.089 251.571 263.919 251.443C263.748 251.315 263.663 251.155 263.663 250.963C263.663 250.643 263.823 250.333 264.143 250.035C264.463 249.736 264.857 249.544 265.327 249.459C265.711 249.395 266.095 249.363 266.479 249.363C266.756 249.363 267.129 249.384 267.599 249.427C268.281 249.341 268.729 249.459 268.943 249.779ZM282.12 244.691C281.886 244.627 281.651 244.595 281.416 244.595C280.947 244.595 280.531 244.712 280.168 244.947C279.699 245.203 279.432 245.459 279.368 245.715C279.091 246.717 278.91 247.379 278.824 247.699V247.795C278.824 247.901 278.867 248.008 278.952 248.115C279.038 248.2 279.134 248.264 279.24 248.307C279.411 248.392 279.603 248.435 279.816 248.435C280.158 248.435 280.563 248.339 281.032 248.147C281.523 247.933 281.843 247.645 281.992 247.283C282.12 246.92 282.302 246.28 282.536 245.363V245.299C282.536 245.192 282.494 245.085 282.408 244.979C282.323 244.851 282.227 244.755 282.12 244.691ZM280.872 257.523C280.744 258.376 280.499 259.923 280.136 262.163C279.795 264.381 279.507 266.397 279.272 268.211C279.208 268.616 278.92 268.968 278.408 269.267C277.918 269.544 277.416 269.683 276.904 269.683C276.563 269.683 276.296 269.619 276.104 269.491C275.934 269.341 275.87 269.128 275.912 268.851C276.275 266.717 276.659 264.285 277.064 261.555C277.491 258.803 277.79 256.84 277.96 255.667L278.632 251.283C278.696 250.899 278.984 250.568 279.496 250.291C280.03 250.013 280.542 249.875 281.032 249.875C281.331 249.875 281.566 249.939 281.736 250.067C281.907 250.195 281.971 250.376 281.928 250.611L280.872 257.523ZM291.289 249.651C291.908 249.395 292.473 249.267 292.985 249.267C293.54 249.267 293.988 249.416 294.329 249.715C294.67 249.992 294.841 250.451 294.841 251.091C294.841 251.709 294.745 252.381 294.553 253.107C294.361 253.832 294.094 254.685 293.753 255.667L293.305 257.011C293.177 257.416 292.846 257.757 292.313 258.035C291.78 258.312 291.268 258.451 290.777 258.451C290.457 258.451 290.212 258.387 290.041 258.259C289.892 258.109 289.86 257.896 289.945 257.619C290.329 256.424 290.713 255.101 291.097 253.651C291.182 252.989 291.246 252.552 291.289 252.339L291.161 252.467C289.518 253.875 288.014 255.645 286.649 257.779C286.03 261.171 285.646 264.573 285.497 267.987C285.476 268.392 285.198 268.755 284.665 269.075C284.153 269.373 283.62 269.523 283.065 269.523C282.745 269.523 282.478 269.448 282.265 269.299C282.052 269.149 281.956 268.925 281.977 268.627C282.148 265.555 282.478 262.568 282.969 259.667C282.756 259.517 282.649 259.347 282.649 259.155C282.649 259.027 282.692 258.888 282.777 258.739L283.257 257.939C283.726 255.485 284.302 253.021 284.985 250.547C285.092 250.163 285.422 249.832 285.977 249.555C286.553 249.256 287.097 249.107 287.609 249.107C287.929 249.107 288.174 249.171 288.345 249.299C288.516 249.427 288.558 249.619 288.473 249.875C288.132 251.069 287.918 251.859 287.833 252.243C289.113 250.963 290.265 250.099 291.289 249.651Z" fill="#1C1E22"/>
<path d="M190.304 380.091C190.389 380.07 190.539 380.059 190.752 380.059C191.072 380.059 191.339 380.123 191.552 380.251C191.765 380.358 191.861 380.55 191.84 380.827C191.648 382.385 191.488 383.75 191.36 384.923C191.253 386.097 191.157 387.067 191.072 387.835L190.688 391.515C190.645 391.899 190.357 392.241 189.824 392.539C189.312 392.817 188.8 392.955 188.288 392.955C187.989 392.955 187.755 392.891 187.584 392.763C187.413 392.635 187.339 392.443 187.36 392.187C187.467 391.163 187.669 389.286 187.968 386.555C188.288 383.803 188.437 382.438 188.416 382.459C187.925 384.166 187.275 385.67 186.464 386.971C185.653 388.273 184.597 389.297 183.296 390.043C182.72 390.385 182.08 390.651 181.376 390.843C180.672 391.014 179.957 391.099 179.232 391.099C177.696 391.099 176.416 390.683 175.392 389.851C174.005 388.699 173.312 387.174 173.312 385.275C173.312 383.121 174.059 380.774 175.552 378.235C177.067 375.697 178.688 373.467 180.416 371.547C181.739 370.054 182.997 368.817 184.192 367.835C185.387 366.833 186.667 366.139 188.032 365.755C188.523 365.627 188.949 365.563 189.312 365.563C190.123 365.563 190.731 365.809 191.136 366.299C191.563 366.79 191.776 367.473 191.776 368.347C191.776 368.774 191.755 369.094 191.712 369.307C191.648 369.691 191.339 370.022 190.784 370.299C190.251 370.577 189.728 370.715 189.216 370.715C188.917 370.715 188.683 370.662 188.512 370.555C188.363 370.427 188.309 370.246 188.352 370.011C188.416 369.627 188.448 369.318 188.448 369.083C188.448 368.55 188.299 368.134 188 367.835C187.232 368.326 186.795 368.614 186.688 368.699C184.341 370.427 182.101 372.966 179.968 376.315C179.029 377.787 178.272 379.185 177.696 380.507C177.12 381.83 176.832 383.131 176.832 384.411C176.832 385.222 177.003 386.011 177.344 386.779C177.707 387.547 178.229 388.091 178.912 388.411C179.445 388.667 179.936 388.795 180.384 388.795C181.515 388.795 182.464 388.209 183.232 387.035C184 385.841 184.608 384.475 185.056 382.939C184.117 383.067 183.413 383.153 182.944 383.195L182.624 383.227C182.155 383.227 181.92 383.078 181.92 382.779C181.92 382.502 182.112 382.182 182.496 381.819C182.88 381.457 183.253 381.243 183.616 381.179C185.685 380.795 187.915 380.433 190.304 380.091ZM196.21 386.715C196.167 386.971 196.146 387.153 196.146 387.259C196.146 388.113 196.562 388.539 197.394 388.539C197.884 388.539 198.482 388.401 199.186 388.123C199.826 387.867 201.01 387.323 202.738 386.491C202.78 385.958 202.823 385.446 202.866 384.955C202.93 384.443 202.983 383.985 203.026 383.579L203.25 381.371C201.778 382.075 200.679 382.63 199.954 383.035C198.887 383.654 198.034 384.241 197.394 384.795C196.754 385.329 196.359 385.969 196.21 386.715ZM204.53 371.643C205.49 371.643 206.13 371.889 206.45 372.379C206.791 372.849 206.962 373.542 206.962 374.459L206.93 375.355C206.844 376.913 206.652 379.195 206.354 382.203C206.29 382.63 206.215 383.345 206.13 384.347C206.044 384.966 205.97 385.467 205.906 385.851C206.14 385.979 206.258 386.15 206.258 386.363C206.258 386.513 206.183 386.737 206.034 387.035L205.906 387.195L205.714 387.387C205.564 388.475 205.49 389.403 205.49 390.171C205.788 390.342 205.938 390.545 205.938 390.779C205.938 391.142 205.671 391.526 205.138 391.931C204.988 392.038 204.818 392.145 204.626 392.251C204.476 392.337 204.263 392.411 203.986 392.475C203.73 392.539 203.474 392.571 203.218 392.571C202.428 392.571 202.066 392.283 202.13 391.707L202.386 389.019C199.527 390.385 197.33 391.067 195.794 391.067C193.852 391.067 192.882 390.022 192.882 387.931C192.882 385.926 193.916 384.219 195.986 382.811C198.076 381.403 200.572 380.134 203.474 379.003C203.559 378.171 203.623 377.329 203.666 376.475C203.666 376.305 203.676 376.091 203.698 375.835C203.719 375.579 203.73 375.291 203.73 374.971C203.73 374.566 203.698 374.299 203.634 374.171L203.538 374.043H203.506C203.186 374.043 202.588 374.481 201.714 375.355C200.924 376.123 199.943 377.275 198.77 378.811C198.599 379.046 198.311 379.238 197.906 379.387C197.522 379.537 197.127 379.611 196.722 379.611C196.423 379.611 196.167 379.558 195.954 379.451C195.762 379.345 195.666 379.185 195.666 378.971C195.666 378.801 195.751 378.577 195.922 378.299C198.866 373.862 201.735 371.643 204.53 371.643ZM227.031 371.803C226.925 374.043 226.871 376.049 226.871 377.819C226.871 382.214 227.17 386.129 227.767 389.563C227.853 390.054 227.661 390.481 227.191 390.843C226.722 391.185 226.21 391.355 225.655 391.355C225.335 391.355 225.069 391.281 224.855 391.131C224.642 390.982 224.514 390.758 224.471 390.459C223.917 386.321 223.597 382.459 223.511 378.875C222.487 381.307 221.261 384.721 219.831 389.115C219.81 389.201 219.746 389.318 219.639 389.467C219.447 389.723 219.159 389.926 218.775 390.075C218.391 390.225 218.007 390.299 217.623 390.299C217.325 390.299 217.09 390.257 216.919 390.171C216.642 390.022 216.503 389.819 216.503 389.563C216.503 389.499 216.525 389.382 216.567 389.211C216.589 388.977 216.599 388.635 216.599 388.187C216.599 387.441 216.535 386.363 216.407 384.955L216.279 383.227C216.194 381.137 216.119 379.569 216.055 378.523C215.031 380.401 214.221 381.787 213.623 382.683C213.111 385.393 212.258 388.017 211.063 390.555C210.914 390.854 210.594 391.11 210.103 391.323C209.613 391.537 209.133 391.643 208.663 391.643C208.365 391.643 208.119 391.59 207.927 391.483C207.757 391.377 207.671 391.227 207.671 391.035C207.671 390.907 207.703 390.769 207.767 390.619C208.749 388.486 209.495 386.299 210.007 384.059C209.922 383.974 209.879 383.857 209.879 383.707C209.879 383.494 209.965 383.27 210.135 383.035L210.263 382.811C210.605 381.105 210.775 379.291 210.775 377.371C210.775 376.561 210.743 375.761 210.679 374.971C210.658 374.609 210.903 374.278 211.415 373.979C211.927 373.681 212.45 373.531 212.983 373.531C213.282 373.531 213.527 373.595 213.719 373.723C213.911 373.851 214.018 374.033 214.039 374.267C214.082 374.651 214.125 375.27 214.167 376.123C214.658 375.227 215.181 374.385 215.735 373.595C215.778 373.233 216.034 372.923 216.503 372.667C216.973 372.39 217.463 372.251 217.975 372.251C218.295 372.251 218.562 372.326 218.775 372.475C219.01 372.603 219.138 372.817 219.159 373.115C219.373 375.867 219.522 378.321 219.607 380.475C221.037 376.977 222.455 374.086 223.863 371.803C224.013 371.569 224.301 371.355 224.727 371.163C225.154 370.971 225.57 370.875 225.975 370.875C226.295 370.875 226.551 370.95 226.743 371.099C226.957 371.249 227.053 371.483 227.031 371.803ZM231.551 365.851C231.593 365.446 231.871 365.105 232.383 364.827C232.916 364.529 233.439 364.379 233.951 364.379C234.271 364.379 234.516 364.443 234.687 364.571C234.857 364.699 234.932 364.902 234.911 365.179C234.292 370.747 233.652 376.315 232.991 381.883L232.031 390.235C231.988 390.641 231.7 390.993 231.167 391.291C230.633 391.59 230.1 391.739 229.567 391.739C228.841 391.739 228.511 391.462 228.575 390.907L230.079 378.363C230.761 372.475 231.252 368.305 231.551 365.851ZM243.779 374.267C242.691 375.099 241.806 376.443 241.123 378.299C243.214 377.51 245.102 376.849 246.787 376.315C246.083 375.334 245.369 374.673 244.643 374.331C244.494 374.267 244.345 374.225 244.195 374.203C244.067 374.182 243.993 374.171 243.971 374.171C243.993 374.193 243.971 374.214 243.907 374.235C243.865 374.257 243.822 374.267 243.779 374.267ZM243.907 371.995C244.249 371.91 244.611 371.867 244.995 371.867C247.043 371.867 248.899 373.243 250.563 375.995C250.627 376.081 250.659 376.187 250.659 376.315C250.659 376.55 250.51 376.795 250.211 377.051C249.977 377.307 249.678 377.51 249.315 377.659C247.182 378.598 244.217 379.718 240.419 381.019C240.206 382.107 240.099 383.227 240.099 384.379C240.099 384.913 240.11 385.297 240.131 385.531C240.174 386.491 240.366 387.323 240.707 388.027C240.814 388.262 240.963 388.486 241.155 388.699C241.369 388.913 241.529 389.051 241.635 389.115C241.699 389.158 241.806 389.179 241.955 389.179C242.105 389.179 242.275 389.137 242.467 389.051C242.681 388.966 242.915 388.849 243.171 388.699C243.79 388.337 244.366 387.921 244.899 387.451C245.433 386.982 246.073 386.374 246.819 385.627C247.118 385.329 247.619 385.179 248.323 385.179C248.707 385.179 249.027 385.243 249.283 385.371C249.561 385.478 249.699 385.638 249.699 385.851C249.699 386.043 249.593 386.257 249.379 386.491C248.057 387.921 246.702 389.137 245.315 390.139C243.929 391.142 242.542 391.643 241.155 391.643C240.494 391.643 239.875 391.505 239.299 391.227C238.339 390.779 237.646 390.065 237.219 389.083C236.793 388.102 236.579 386.95 236.579 385.627C236.579 384.646 236.707 383.494 236.963 382.171L236.707 382.235L236.451 382.331C236.131 382.438 235.875 382.491 235.683 382.491C235.385 382.491 235.15 382.417 234.979 382.267C234.809 382.118 234.723 381.926 234.723 381.691C234.723 381.414 234.83 381.147 235.043 380.891C235.278 380.614 235.619 380.39 236.067 380.219L237.635 379.611C237.827 379.014 238.115 378.235 238.499 377.275C239.097 375.953 239.843 374.811 240.739 373.851C241.635 372.891 242.691 372.273 243.907 371.995ZM270.775 382.651C271.009 382.054 271.127 381.467 271.127 380.891C271.127 379.697 270.636 378.747 269.655 378.043C268.695 377.318 267.543 376.955 266.199 376.955C265.665 376.955 265.143 377.019 264.631 377.147C264.545 377.723 264.471 378.193 264.407 378.555C263.831 382.395 263.287 385.873 262.775 388.987C263.564 388.603 264.471 388.102 265.495 387.483C266.817 386.673 267.937 385.905 268.855 385.179C269.772 384.433 270.412 383.59 270.775 382.651ZM264.983 374.875C265.879 374.705 266.721 374.619 267.51 374.619C269.559 374.619 271.244 375.121 272.567 376.123C273.911 377.105 274.519 378.587 274.391 380.571C274.241 382.918 273.015 384.987 270.711 386.779C268.428 388.571 265.644 390.193 262.359 391.643L262.103 393.083C262.017 393.531 261.708 393.905 261.174 394.203C260.641 394.502 260.097 394.651 259.543 394.651C259.18 394.651 258.902 394.566 258.71 394.395C258.497 394.246 258.422 394.011 258.486 393.691C258.572 393.137 258.646 392.721 258.71 392.443C258.454 392.251 258.326 392.049 258.326 391.835C258.326 391.622 258.422 391.387 258.614 391.131L258.902 390.747L259.03 390.651C260.012 384.934 260.737 380.646 261.207 377.787C260.929 377.638 260.791 377.435 260.791 377.179C260.791 376.859 261.004 376.55 261.431 376.251C261.985 372.795 262.455 369.585 262.839 366.619C262.903 366.214 263.201 365.873 263.735 365.595C264.268 365.297 264.801 365.147 265.335 365.147C265.676 365.147 265.932 365.222 266.103 365.371C266.295 365.499 266.369 365.702 266.327 365.979L264.983 374.875ZM287.112 380.315C287.112 378.054 285.789 376.273 283.144 374.971C282.482 375.526 281.821 376.262 281.16 377.179C280.349 378.353 279.677 379.665 279.144 381.115C278.93 381.691 278.728 382.481 278.536 383.483C278.344 384.465 278.248 385.382 278.248 386.235C278.248 387.11 278.365 387.814 278.6 388.347C278.856 388.859 279.261 389.115 279.816 389.115C280.264 389.115 280.786 388.934 281.384 388.571C283.026 387.611 284.392 386.417 285.48 384.987C286.568 383.558 287.112 382.001 287.112 380.315ZM288.008 374.523C288.776 375.249 289.362 376.07 289.768 376.987C290.194 377.905 290.408 378.875 290.408 379.899C290.408 381.371 289.981 382.865 289.128 384.379C288.552 385.403 287.709 386.481 286.6 387.611C285.49 388.742 284.253 389.702 282.888 390.491C281.544 391.259 280.253 391.643 279.016 391.643C278.248 391.643 277.522 391.473 276.84 391.131C275.389 390.342 274.664 388.923 274.664 386.875C274.664 385.403 274.994 383.793 275.656 382.043C276.317 380.273 277.021 378.779 277.768 377.563C279.581 374.683 281.49 372.87 283.496 372.123C284.05 371.91 284.648 371.803 285.288 371.803C286.034 371.803 286.664 371.995 287.176 372.379C287.688 372.742 287.986 373.318 288.072 374.107V374.235C288.072 374.299 288.05 374.395 288.008 374.523ZM288.296 373.051C288.445 372.902 288.722 372.774 289.128 372.667C289.533 372.561 289.896 372.507 290.216 372.507C290.706 372.507 290.952 372.625 290.952 372.859C290.952 372.987 290.856 373.169 290.664 373.403C287.613 376.966 285.096 379.985 283.112 382.459C281.149 384.934 279.304 387.515 277.576 390.203C277.405 390.459 277.117 390.673 276.712 390.843C276.328 391.014 275.944 391.099 275.56 391.099C274.962 391.099 274.664 390.918 274.664 390.555C274.664 390.385 274.738 390.193 274.888 389.979C277.064 386.545 279.24 383.419 281.416 380.603C283.592 377.766 285.885 375.249 288.296 373.051ZM297.866 388.123C298.74 386.95 299.498 385.713 300.138 384.411C300.692 383.345 301.279 382.022 301.898 380.443C302.516 378.865 302.826 377.563 302.826 376.539C302.826 376.198 302.783 375.931 302.698 375.739C302.058 375.782 301.674 375.59 301.546 375.163C301.396 374.63 301.236 374.363 301.066 374.363C300.938 374.363 300.81 374.449 300.682 374.619C300.554 374.769 300.372 375.046 300.138 375.451C299.839 375.899 299.519 376.518 299.178 377.307C298.474 378.801 297.898 380.262 297.45 381.691C296.938 383.163 296.532 384.497 296.234 385.691C295.935 386.886 295.786 388.027 295.786 389.115C295.786 389.585 295.818 390.043 295.882 390.491L296.554 389.787C296.959 389.318 297.396 388.763 297.866 388.123ZM304.618 373.019C305.258 373.275 305.716 373.638 305.994 374.107C306.271 374.577 306.41 375.174 306.41 375.899C306.41 376.582 306.239 377.755 305.898 379.419C304.959 383.814 304.191 387.825 303.594 391.451C303.018 395.078 302.602 398.662 302.346 402.203C302.324 402.502 302.282 402.758 302.218 402.971C302.175 403.206 302.079 403.483 301.93 403.803C301.695 404.273 301.322 404.689 300.81 405.051C300.319 405.435 299.85 405.627 299.402 405.627C298.996 405.627 298.687 405.446 298.474 405.083L297.546 403.483C296.202 401.137 295.06 399.217 294.122 397.723C294.058 397.638 294.026 397.531 294.026 397.403C294.026 397.041 294.292 396.699 294.826 396.379C295.359 396.059 295.903 395.899 296.458 395.899C297.012 395.899 297.396 396.081 297.61 396.443C297.908 396.998 298.25 397.595 298.634 398.235L299.274 399.355C299.743 395.579 300.266 392.017 300.842 388.667C299.86 390.033 298.826 391.206 297.738 392.187C296.671 393.169 295.679 393.659 294.762 393.659C294.058 393.659 293.45 393.339 292.938 392.699C292.511 392.166 292.298 391.398 292.298 390.395C292.298 389.841 292.34 389.297 292.426 388.763C292.532 388.23 292.692 387.505 292.906 386.587L293.098 385.819C293.738 382.918 294.687 380.091 295.946 377.339C296.543 376.081 297.14 375.035 297.738 374.203C298.356 373.371 299.135 372.742 300.074 372.315C300.65 372.038 301.29 371.899 301.994 371.899C303.039 371.899 303.839 372.251 304.394 372.955L304.618 373.019ZM315.248 374.267C314.16 375.099 313.275 376.443 312.592 378.299C314.683 377.51 316.571 376.849 318.256 376.315C317.552 375.334 316.837 374.673 316.112 374.331C315.963 374.267 315.813 374.225 315.664 374.203C315.536 374.182 315.461 374.171 315.44 374.171C315.461 374.193 315.44 374.214 315.376 374.235C315.333 374.257 315.291 374.267 315.248 374.267ZM315.376 371.995C315.717 371.91 316.08 371.867 316.464 371.867C318.512 371.867 320.368 373.243 322.032 375.995C322.096 376.081 322.128 376.187 322.128 376.315C322.128 376.55 321.979 376.795 321.68 377.051C321.445 377.307 321.147 377.51 320.784 377.659C318.651 378.598 315.685 379.718 311.888 381.019C311.675 382.107 311.568 383.227 311.568 384.379C311.568 384.913 311.579 385.297 311.6 385.531C311.643 386.491 311.835 387.323 312.176 388.027C312.283 388.262 312.432 388.486 312.624 388.699C312.837 388.913 312.997 389.051 313.104 389.115C313.168 389.158 313.275 389.179 313.424 389.179C313.573 389.179 313.744 389.137 313.936 389.051C314.149 388.966 314.384 388.849 314.64 388.699C315.259 388.337 315.835 387.921 316.368 387.451C316.901 386.982 317.541 386.374 318.288 385.627C318.587 385.329 319.088 385.179 319.792 385.179C320.176 385.179 320.496 385.243 320.752 385.371C321.029 385.478 321.168 385.638 321.168 385.851C321.168 386.043 321.061 386.257 320.848 386.491C319.525 387.921 318.171 389.137 316.784 390.139C315.397 391.142 314.011 391.643 312.624 391.643C311.963 391.643 311.344 391.505 310.768 391.227C309.808 390.779 309.115 390.065 308.688 389.083C308.261 388.102 308.048 386.95 308.048 385.627C308.048 384.646 308.176 383.494 308.432 382.171L308.176 382.235L307.92 382.331C307.6 382.438 307.344 382.491 307.152 382.491C306.853 382.491 306.619 382.417 306.448 382.267C306.277 382.118 306.192 381.926 306.192 381.691C306.192 381.414 306.299 381.147 306.512 380.891C306.747 380.614 307.088 380.39 307.536 380.219L309.104 379.611C309.296 379.014 309.584 378.235 309.968 377.275C310.565 375.953 311.312 374.811 312.208 373.851C313.104 372.891 314.16 372.273 315.376 371.995ZM331.352 371.547C331.97 371.291 332.536 371.163 333.048 371.163C333.602 371.163 334.05 371.313 334.392 371.611C334.733 371.889 334.904 372.347 334.904 372.987C334.904 373.606 334.808 374.278 334.616 375.003C334.424 375.729 334.157 376.582 333.816 377.563L333.368 378.907C333.24 379.313 332.909 379.654 332.376 379.931C331.842 380.209 331.33 380.347 330.84 380.347C330.52 380.347 330.274 380.283 330.104 380.155C329.954 380.006 329.922 379.793 330.008 379.515C330.392 378.321 330.776 376.998 331.16 375.547C331.245 374.886 331.309 374.449 331.352 374.235L331.224 374.363C329.581 375.771 328.077 377.542 326.712 379.675C326.093 383.067 325.709 386.47 325.56 389.883C325.538 390.289 325.261 390.651 324.728 390.971C324.216 391.27 323.682 391.419 323.128 391.419C322.808 391.419 322.541 391.345 322.328 391.195C322.114 391.046 322.018 390.822 322.04 390.523C322.21 387.451 322.541 384.465 323.032 381.563C322.818 381.414 322.712 381.243 322.712 381.051C322.712 380.923 322.754 380.785 322.84 380.635L323.32 379.835C323.789 377.382 324.365 374.918 325.048 372.443C325.154 372.059 325.485 371.729 326.04 371.451C326.616 371.153 327.16 371.003 327.672 371.003C327.992 371.003 328.237 371.067 328.408 371.195C328.578 371.323 328.621 371.515 328.536 371.771C328.194 372.966 327.981 373.755 327.896 374.139C329.176 372.859 330.328 371.995 331.352 371.547Z" fill="#1C1E22"/>
<path d="M201.304 319.655C201.389 319.634 201.539 319.623 201.752 319.623C202.072 319.623 202.339 319.687 202.552 319.815C202.765 319.922 202.861 320.114 202.84 320.391C202.648 321.949 202.488 323.314 202.36 324.487C202.253 325.661 202.157 326.631 202.072 327.399L201.688 331.079C201.645 331.463 201.357 331.805 200.824 332.103C200.312 332.381 199.8 332.519 199.288 332.519C198.989 332.519 198.755 332.455 198.584 332.327C198.413 332.199 198.339 332.007 198.36 331.751C198.467 330.727 198.669 328.85 198.968 326.119C199.288 323.367 199.437 322.002 199.416 322.023C198.925 323.73 198.275 325.234 197.464 326.535C196.653 327.837 195.597 328.861 194.296 329.607C193.72 329.949 193.08 330.215 192.376 330.407C191.672 330.578 190.957 330.663 190.232 330.663C188.696 330.663 187.416 330.247 186.392 329.415C185.005 328.263 184.312 326.738 184.312 324.839C184.312 322.685 185.059 320.338 186.552 317.799C188.067 315.261 189.688 313.031 191.416 311.111C192.739 309.618 193.997 308.381 195.192 307.399C196.387 306.397 197.667 305.703 199.032 305.319C199.523 305.191 199.949 305.127 200.312 305.127C201.123 305.127 201.731 305.373 202.136 305.863C202.563 306.354 202.776 307.037 202.776 307.911C202.776 308.338 202.755 308.658 202.712 308.871C202.648 309.255 202.339 309.586 201.784 309.863C201.251 310.141 200.728 310.279 200.216 310.279C199.917 310.279 199.683 310.226 199.512 310.119C199.363 309.991 199.309 309.81 199.352 309.575C199.416 309.191 199.448 308.882 199.448 308.647C199.448 308.114 199.299 307.698 199 307.399C198.232 307.89 197.795 308.178 197.688 308.263C195.341 309.991 193.101 312.53 190.968 315.879C190.029 317.351 189.272 318.749 188.696 320.071C188.12 321.394 187.832 322.695 187.832 323.975C187.832 324.786 188.003 325.575 188.344 326.343C188.707 327.111 189.229 327.655 189.912 327.975C190.445 328.231 190.936 328.359 191.384 328.359C192.515 328.359 193.464 327.773 194.232 326.599C195 325.405 195.608 324.039 196.056 322.503C195.117 322.631 194.413 322.717 193.944 322.759L193.624 322.791C193.155 322.791 192.92 322.642 192.92 322.343C192.92 322.066 193.112 321.746 193.496 321.383C193.88 321.021 194.253 320.807 194.616 320.743C196.685 320.359 198.915 319.997 201.304 319.655ZM207.21 326.279C207.167 326.535 207.146 326.717 207.146 326.823C207.146 327.677 207.562 328.103 208.394 328.103C208.884 328.103 209.482 327.965 210.186 327.687C210.826 327.431 212.01 326.887 213.738 326.055C213.78 325.522 213.823 325.01 213.866 324.519C213.93 324.007 213.983 323.549 214.026 323.143L214.25 320.935C212.778 321.639 211.679 322.194 210.954 322.599C209.887 323.218 209.034 323.805 208.394 324.359C207.754 324.893 207.359 325.533 207.21 326.279ZM215.53 311.207C216.49 311.207 217.13 311.453 217.45 311.943C217.791 312.413 217.962 313.106 217.962 314.023L217.93 314.919C217.844 316.477 217.652 318.759 217.354 321.767C217.29 322.194 217.215 322.909 217.13 323.911C217.044 324.53 216.97 325.031 216.906 325.415C217.14 325.543 217.258 325.714 217.258 325.927C217.258 326.077 217.183 326.301 217.034 326.599L216.906 326.759L216.714 326.951C216.564 328.039 216.49 328.967 216.49 329.735C216.788 329.906 216.938 330.109 216.938 330.343C216.938 330.706 216.671 331.09 216.138 331.495C215.988 331.602 215.818 331.709 215.626 331.815C215.476 331.901 215.263 331.975 214.986 332.039C214.73 332.103 214.474 332.135 214.218 332.135C213.428 332.135 213.066 331.847 213.13 331.271L213.386 328.583C210.527 329.949 208.33 330.631 206.794 330.631C204.852 330.631 203.882 329.586 203.882 327.495C203.882 325.49 204.916 323.783 206.986 322.375C209.076 320.967 211.572 319.698 214.474 318.567C214.559 317.735 214.623 316.893 214.666 316.039C214.666 315.869 214.676 315.655 214.698 315.399C214.719 315.143 214.73 314.855 214.73 314.535C214.73 314.13 214.698 313.863 214.634 313.735L214.538 313.607H214.506C214.186 313.607 213.588 314.045 212.714 314.919C211.924 315.687 210.943 316.839 209.77 318.375C209.599 318.61 209.311 318.802 208.906 318.951C208.522 319.101 208.127 319.175 207.722 319.175C207.423 319.175 207.167 319.122 206.954 319.015C206.762 318.909 206.666 318.749 206.666 318.535C206.666 318.365 206.751 318.141 206.922 317.863C209.866 313.426 212.735 311.207 215.53 311.207ZM230.072 311.591C230.221 311.378 230.52 311.197 230.968 311.047C231.437 310.877 231.874 310.791 232.28 310.791C232.578 310.791 232.813 310.834 232.984 310.919C233.176 311.005 233.272 311.143 233.272 311.335C233.272 311.485 233.218 311.645 233.112 311.815C231.362 314.738 229.89 317.639 228.696 320.519C227.522 323.378 226.616 326.343 225.976 329.415C225.89 329.821 225.581 330.194 225.048 330.535C224.536 330.855 224.024 331.015 223.512 331.015C222.936 331.015 222.573 330.791 222.424 330.343C221.613 327.954 221.037 325.522 220.696 323.047C220.376 320.551 220.077 317.33 219.799 313.383L219.768 312.711C219.746 312.242 220.024 311.826 220.6 311.463C221.197 311.101 221.784 310.919 222.36 310.919C222.914 310.919 223.202 311.111 223.224 311.495C223.266 312.007 223.288 312.413 223.288 312.711V312.807C223.522 316.882 223.864 320.189 224.312 322.727C225.784 318.503 227.704 314.791 230.072 311.591ZM239.186 313.831C238.098 314.663 237.212 316.007 236.53 317.863C238.62 317.074 240.508 316.413 242.194 315.879C241.49 314.898 240.775 314.237 240.05 313.895C239.9 313.831 239.751 313.789 239.602 313.767C239.474 313.746 239.399 313.735 239.378 313.735C239.399 313.757 239.378 313.778 239.314 313.799C239.271 313.821 239.228 313.831 239.186 313.831ZM239.314 311.559C239.655 311.474 240.018 311.431 240.402 311.431C242.45 311.431 244.306 312.807 245.97 315.559C246.034 315.645 246.066 315.751 246.066 315.879C246.066 316.114 245.916 316.359 245.618 316.615C245.383 316.871 245.084 317.074 244.722 317.223C242.588 318.162 239.623 319.282 235.826 320.583C235.612 321.671 235.506 322.791 235.506 323.943C235.506 324.477 235.516 324.861 235.538 325.095C235.58 326.055 235.772 326.887 236.114 327.591C236.22 327.826 236.37 328.05 236.562 328.263C236.775 328.477 236.935 328.615 237.042 328.679C237.106 328.722 237.212 328.743 237.362 328.743C237.511 328.743 237.682 328.701 237.874 328.615C238.087 328.53 238.322 328.413 238.578 328.263C239.196 327.901 239.772 327.485 240.306 327.015C240.839 326.546 241.479 325.938 242.226 325.191C242.524 324.893 243.026 324.743 243.73 324.743C244.114 324.743 244.434 324.807 244.69 324.935C244.967 325.042 245.106 325.202 245.106 325.415C245.106 325.607 244.999 325.821 244.786 326.055C243.463 327.485 242.108 328.701 240.722 329.703C239.335 330.706 237.948 331.207 236.562 331.207C235.9 331.207 235.282 331.069 234.706 330.791C233.746 330.343 233.052 329.629 232.626 328.647C232.199 327.666 231.986 326.514 231.986 325.191C231.986 324.21 232.114 323.058 232.37 321.735L232.114 321.799L231.858 321.895C231.538 322.002 231.282 322.055 231.09 322.055C230.791 322.055 230.556 321.981 230.386 321.831C230.215 321.682 230.13 321.49 230.13 321.255C230.13 320.978 230.236 320.711 230.45 320.455C230.684 320.178 231.026 319.954 231.474 319.783L233.042 319.175C233.234 318.578 233.522 317.799 233.906 316.839C234.503 315.517 235.25 314.375 236.146 313.415C237.042 312.455 238.098 311.837 239.314 311.559ZM256.249 322.887C256.334 322.525 256.377 322.098 256.377 321.607C256.377 319.901 255.737 318.237 254.457 316.615C253.732 315.677 252.964 314.919 252.153 314.343C251.513 318.333 251.012 321.554 250.649 324.007C250.478 325.01 250.244 326.514 249.945 328.519C250.585 328.818 251.172 328.967 251.705 328.967C252.601 328.967 253.412 328.53 254.137 327.655C254.67 327.015 255.118 326.279 255.481 325.447C255.844 324.615 256.1 323.762 256.249 322.887ZM252.505 311.239C253.828 311.687 255.022 312.445 256.089 313.511C257.156 314.557 257.988 315.783 258.585 317.191C259.204 318.578 259.513 319.965 259.513 321.351C259.513 322.098 259.417 322.823 259.225 323.527C258.82 324.999 258.201 326.322 257.369 327.495C256.558 328.647 255.577 329.565 254.425 330.247C253.294 330.909 252.078 331.239 250.777 331.239C250.372 331.239 249.956 331.207 249.529 331.143C248.676 336.605 247.908 341.063 247.225 344.519C247.14 344.925 246.841 345.266 246.329 345.543C245.817 345.821 245.294 345.959 244.761 345.959C244.398 345.959 244.121 345.885 243.929 345.735C243.716 345.586 243.641 345.362 243.705 345.063C244.75 339.773 245.668 334.727 246.457 329.927L246.393 329.895C246.116 329.703 245.977 329.49 245.977 329.255C245.977 328.893 246.233 328.551 246.745 328.231C247.428 324.285 248.196 319.218 249.049 313.031L248.633 313.063L248.281 313.095C247.918 313.095 247.652 313.031 247.481 312.903C247.31 312.775 247.225 312.615 247.225 312.423C247.225 312.103 247.385 311.794 247.705 311.495C248.025 311.197 248.42 311.005 248.889 310.919C249.273 310.855 249.657 310.823 250.041 310.823C250.318 310.823 250.692 310.845 251.161 310.887C251.844 310.802 252.292 310.919 252.505 311.239ZM262.835 326.279C262.792 326.535 262.771 326.717 262.771 326.823C262.771 327.677 263.187 328.103 264.019 328.103C264.509 328.103 265.107 327.965 265.811 327.687C266.451 327.431 267.635 326.887 269.363 326.055C269.405 325.522 269.448 325.01 269.491 324.519C269.555 324.007 269.608 323.549 269.651 323.143L269.875 320.935C268.403 321.639 267.304 322.194 266.579 322.599C265.512 323.218 264.659 323.805 264.019 324.359C263.379 324.893 262.984 325.533 262.835 326.279ZM271.155 311.207C272.115 311.207 272.755 311.453 273.075 311.943C273.416 312.413 273.587 313.106 273.587 314.023L273.555 314.919C273.469 316.477 273.277 318.759 272.979 321.767C272.915 322.194 272.84 322.909 272.755 323.911C272.669 324.53 272.595 325.031 272.531 325.415C272.765 325.543 272.883 325.714 272.883 325.927C272.883 326.077 272.808 326.301 272.659 326.599L272.531 326.759L272.339 326.951C272.189 328.039 272.115 328.967 272.115 329.735C272.413 329.906 272.563 330.109 272.563 330.343C272.563 330.706 272.296 331.09 271.763 331.495C271.613 331.602 271.443 331.709 271.251 331.815C271.101 331.901 270.888 331.975 270.611 332.039C270.355 332.103 270.099 332.135 269.843 332.135C269.053 332.135 268.691 331.847 268.755 331.271L269.011 328.583C266.152 329.949 263.955 330.631 262.419 330.631C260.477 330.631 259.507 329.586 259.507 327.495C259.507 325.49 260.541 323.783 262.611 322.375C264.701 320.967 267.197 319.698 270.099 318.567C270.184 317.735 270.248 316.893 270.291 316.039C270.291 315.869 270.301 315.655 270.323 315.399C270.344 315.143 270.355 314.855 270.355 314.535C270.355 314.13 270.323 313.863 270.259 313.735L270.163 313.607H270.131C269.811 313.607 269.213 314.045 268.339 314.919C267.549 315.687 266.568 316.839 265.395 318.375C265.224 318.61 264.936 318.802 264.531 318.951C264.147 319.101 263.752 319.175 263.347 319.175C263.048 319.175 262.792 319.122 262.579 319.015C262.387 318.909 262.291 318.749 262.291 318.535C262.291 318.365 262.376 318.141 262.547 317.863C265.491 313.426 268.36 311.207 271.155 311.207ZM284.905 322.887C284.991 322.525 285.033 322.098 285.033 321.607C285.033 319.901 284.393 318.237 283.113 316.615C282.388 315.677 281.62 314.919 280.809 314.343C280.169 318.333 279.668 321.554 279.305 324.007C279.135 325.01 278.9 326.514 278.601 328.519C279.241 328.818 279.828 328.967 280.361 328.967C281.257 328.967 282.068 328.53 282.793 327.655C283.327 327.015 283.775 326.279 284.137 325.447C284.5 324.615 284.756 323.762 284.905 322.887ZM281.161 311.239C282.484 311.687 283.679 312.445 284.745 313.511C285.812 314.557 286.644 315.783 287.241 317.191C287.86 318.578 288.169 319.965 288.169 321.351C288.169 322.098 288.073 322.823 287.881 323.527C287.476 324.999 286.857 326.322 286.025 327.495C285.215 328.647 284.233 329.565 283.081 330.247C281.951 330.909 280.735 331.239 279.433 331.239C279.028 331.239 278.612 331.207 278.185 331.143C277.332 336.605 276.564 341.063 275.881 344.519C275.796 344.925 275.497 345.266 274.985 345.543C274.473 345.821 273.951 345.959 273.417 345.959C273.055 345.959 272.777 345.885 272.585 345.735C272.372 345.586 272.297 345.362 272.361 345.063C273.407 339.773 274.324 334.727 275.113 329.927L275.049 329.895C274.772 329.703 274.633 329.49 274.633 329.255C274.633 328.893 274.889 328.551 275.401 328.231C276.084 324.285 276.852 319.218 277.705 313.031L277.289 313.063L276.937 313.095C276.575 313.095 276.308 313.031 276.137 312.903C275.967 312.775 275.881 312.615 275.881 312.423C275.881 312.103 276.041 311.794 276.361 311.495C276.681 311.197 277.076 311.005 277.545 310.919C277.929 310.855 278.313 310.823 278.697 310.823C278.975 310.823 279.348 310.845 279.817 310.887C280.5 310.802 280.948 310.919 281.161 311.239ZM294.339 306.151C294.104 306.087 293.87 306.055 293.635 306.055C293.166 306.055 292.75 306.173 292.387 306.407C291.918 306.663 291.651 306.919 291.587 307.175C291.31 308.178 291.128 308.839 291.043 309.159V309.255C291.043 309.362 291.086 309.469 291.171 309.575C291.256 309.661 291.352 309.725 291.459 309.767C291.63 309.853 291.822 309.895 292.035 309.895C292.376 309.895 292.782 309.799 293.251 309.607C293.742 309.394 294.062 309.106 294.211 308.743C294.339 308.381 294.52 307.741 294.755 306.823V306.759C294.755 306.653 294.712 306.546 294.627 306.439C294.542 306.311 294.446 306.215 294.339 306.151ZM293.091 318.983C292.963 319.837 292.718 321.383 292.355 323.623C292.014 325.842 291.726 327.858 291.491 329.671C291.427 330.077 291.139 330.429 290.627 330.727C290.136 331.005 289.635 331.143 289.123 331.143C288.782 331.143 288.515 331.079 288.323 330.951C288.152 330.802 288.088 330.589 288.131 330.311C288.494 328.178 288.878 325.746 289.283 323.015C289.71 320.263 290.008 318.301 290.179 317.127L290.851 312.743C290.915 312.359 291.203 312.029 291.715 311.751C292.248 311.474 292.76 311.335 293.251 311.335C293.55 311.335 293.784 311.399 293.955 311.527C294.126 311.655 294.19 311.837 294.147 312.071L293.091 318.983ZM303.508 311.111C304.126 310.855 304.692 310.727 305.204 310.727C305.758 310.727 306.206 310.877 306.548 311.175C306.889 311.453 307.06 311.911 307.06 312.551C307.06 313.17 306.964 313.842 306.772 314.567C306.58 315.293 306.313 316.146 305.972 317.127L305.524 318.471C305.396 318.877 305.065 319.218 304.532 319.495C303.998 319.773 303.486 319.911 302.996 319.911C302.676 319.911 302.43 319.847 302.26 319.719C302.11 319.57 302.078 319.357 302.164 319.079C302.548 317.885 302.932 316.562 303.316 315.111C303.401 314.45 303.465 314.013 303.508 313.799L303.38 313.927C301.737 315.335 300.233 317.106 298.868 319.239C298.249 322.631 297.865 326.034 297.716 329.447C297.694 329.853 297.417 330.215 296.884 330.535C296.372 330.834 295.838 330.983 295.284 330.983C294.964 330.983 294.697 330.909 294.484 330.759C294.27 330.61 294.174 330.386 294.196 330.087C294.366 327.015 294.697 324.029 295.188 321.127C294.974 320.978 294.868 320.807 294.868 320.615C294.868 320.487 294.91 320.349 294.996 320.199L295.476 319.399C295.945 316.946 296.521 314.482 297.204 312.007C297.31 311.623 297.641 311.293 298.196 311.015C298.772 310.717 299.316 310.567 299.828 310.567C300.148 310.567 300.393 310.631 300.564 310.759C300.734 310.887 300.777 311.079 300.692 311.335C300.35 312.53 300.137 313.319 300.052 313.703C301.332 312.423 302.484 311.559 303.508 311.111Z" fill="#1C1E22"/>
<path d="M183 319.559H305.684V321.159H183V319.559Z" fill="#1C1E22"/>
<path d="M224.736 198.206C226.08 199.379 226.752 200.585 226.752 201.822C226.752 202.633 226.475 203.443 225.92 204.254C223.957 207.07 221.653 208.809 219.008 209.47C218.325 209.641 217.557 209.726 216.704 209.726C214.699 209.726 212.779 209.225 210.944 208.222C210.069 207.753 209.461 207.145 209.12 206.398C208.779 205.651 208.608 204.766 208.608 203.742C208.608 203.017 208.693 201.971 208.864 200.606C208.928 200.243 209.227 200.062 209.76 200.062C210.357 200.062 210.965 200.254 211.584 200.638C212.203 201.022 212.48 201.449 212.416 201.918C212.395 202.089 212.341 202.473 212.256 203.07C212.171 203.646 212.128 204.179 212.128 204.67C212.128 205.779 212.395 206.526 212.928 206.91C213.461 207.294 214.155 207.486 215.008 207.486C215.861 207.486 216.747 207.305 217.664 206.942C218.368 206.665 219.147 206.206 220 205.566C220.875 204.926 221.611 204.201 222.208 203.39C222.827 202.579 223.136 201.79 223.136 201.022C223.136 200.403 222.923 199.838 222.496 199.326C222.069 198.835 221.461 198.366 220.672 197.918C219.904 197.47 218.88 196.947 217.6 196.35C216.021 195.603 214.752 194.953 213.792 194.398C212.853 193.822 212.043 193.15 211.36 192.382C210.677 191.593 210.336 190.707 210.336 189.726C210.336 189.278 210.389 188.883 210.496 188.542C211.008 186.622 212.267 185.246 214.272 184.414C216.299 183.561 218.485 183.134 220.832 183.134C221.856 183.134 222.752 183.198 223.52 183.326C224.288 183.454 224.928 183.731 225.44 184.158C226.016 184.627 226.304 185.289 226.304 186.142C226.304 186.654 226.219 187.166 226.048 187.678C225.899 188.169 225.664 188.841 225.344 189.694C225.109 190.27 224.971 190.622 224.928 190.75C224.8 191.113 224.448 191.294 223.872 191.294C223.296 191.294 222.731 191.134 222.176 190.814C221.621 190.494 221.344 190.131 221.344 189.726C221.344 189.619 221.355 189.534 221.376 189.47L221.856 188.094C222.069 187.497 222.219 187.049 222.304 186.75L222.528 185.406C219.84 185.363 217.696 185.907 216.096 187.038C215.456 187.465 214.955 187.966 214.592 188.542C214.251 189.097 214.08 189.662 214.08 190.238C214.08 191.241 214.581 192.105 215.584 192.83C216.309 193.342 217.109 193.822 217.984 194.27C218.88 194.718 219.424 194.995 219.616 195.102C220.853 195.721 221.845 196.243 222.592 196.67C223.36 197.097 224.075 197.609 224.736 198.206ZM240.084 202.046C240.234 201.897 240.468 201.779 240.788 201.694C241.108 201.609 241.428 201.566 241.748 201.566C242.538 201.566 242.932 201.769 242.932 202.174C242.932 202.366 242.826 202.579 242.612 202.814C242.356 203.113 242.122 203.401 241.908 203.678C241.695 203.934 241.503 204.169 241.332 204.382C240.394 205.598 239.551 206.569 238.804 207.294C238.058 207.998 237.183 208.51 236.18 208.83C235.711 208.979 235.21 209.054 234.676 209.054C233.78 209.054 233.012 208.798 232.372 208.286C231.754 207.774 231.391 207.027 231.284 206.046C231.242 205.769 231.22 205.342 231.22 204.766C231.22 203.657 231.348 202.526 231.604 201.374C231.86 200.222 232.234 198.782 232.724 197.054L233.108 195.678L231.892 195.806C231.295 195.849 230.484 195.934 229.46 196.062C228.97 196.126 228.596 196.073 228.34 195.902C228.084 195.731 227.956 195.507 227.956 195.23C227.956 194.91 228.106 194.601 228.404 194.302C228.724 193.982 229.13 193.801 229.62 193.758L233.748 193.278C234.687 189.822 235.743 186.43 236.916 183.102C237.023 182.803 237.311 182.547 237.78 182.334C238.271 182.099 238.74 181.982 239.188 181.982C239.466 181.982 239.69 182.035 239.86 182.142C240.052 182.249 240.148 182.409 240.148 182.622C240.148 182.686 240.127 182.803 240.084 182.974C238.847 186.451 237.812 189.769 236.98 192.926C238.474 192.777 239.466 192.702 239.956 192.702C240.575 192.702 240.884 192.883 240.884 193.246C240.884 193.545 240.703 193.875 240.34 194.238C239.978 194.579 239.604 194.793 239.22 194.878C237.94 195.091 236.98 195.241 236.34 195.326C235.978 196.777 235.658 198.195 235.38 199.582C235.338 199.753 235.188 200.382 234.932 201.47C234.676 202.537 234.548 203.539 234.548 204.478C234.548 205.694 234.868 206.355 235.508 206.462C235.914 206.526 236.372 206.302 236.884 205.79C237.418 205.257 238.1 204.467 238.932 203.422C239.444 202.761 239.828 202.302 240.084 202.046ZM255.737 197.982C255.737 195.721 254.414 193.939 251.769 192.638C251.107 193.193 250.446 193.929 249.785 194.846C248.974 196.019 248.302 197.331 247.769 198.782C247.555 199.358 247.353 200.147 247.161 201.15C246.969 202.131 246.873 203.049 246.873 203.902C246.873 204.777 246.99 205.481 247.225 206.014C247.481 206.526 247.886 206.782 248.441 206.782C248.889 206.782 249.411 206.601 250.009 206.238C251.651 205.278 253.017 204.083 254.105 202.654C255.193 201.225 255.737 199.667 255.737 197.982ZM256.633 192.19C257.401 192.915 257.987 193.737 258.393 194.654C258.819 195.571 259.033 196.542 259.033 197.566C259.033 199.038 258.606 200.531 257.753 202.046C257.177 203.07 256.334 204.147 255.225 205.278C254.115 206.409 252.878 207.369 251.513 208.158C250.169 208.926 248.878 209.31 247.641 209.31C246.873 209.31 246.147 209.139 245.465 208.798C244.014 208.009 243.289 206.59 243.289 204.542C243.289 203.07 243.619 201.459 244.281 199.71C244.942 197.939 245.646 196.446 246.393 195.23C248.206 192.35 250.115 190.537 252.121 189.79C252.675 189.577 253.273 189.47 253.913 189.47C254.659 189.47 255.289 189.662 255.801 190.046C256.313 190.409 256.611 190.985 256.697 191.774V191.902C256.697 191.966 256.675 192.062 256.633 192.19ZM267.716 180.83C268.889 180.83 269.689 181.331 270.116 182.334C270.564 183.337 270.788 184.649 270.788 186.27C270.788 186.462 270.756 187.39 270.692 189.054C270.649 189.609 270.628 189.982 270.628 190.174C270.607 190.601 270.34 190.963 269.828 191.262C269.337 191.561 268.825 191.71 268.292 191.71C267.545 191.71 267.172 191.411 267.172 190.814C267.172 190.473 267.193 189.918 267.236 189.15C267.3 188.403 267.332 187.667 267.332 186.942C267.332 186.174 267.289 185.491 267.204 184.894C267.161 184.723 267.108 184.531 267.044 184.318C266.98 184.105 266.937 183.945 266.916 183.838L266.884 183.71L266.628 184.574C266.159 186.195 265.796 187.507 265.54 188.51C265.284 189.513 265.081 190.579 264.932 191.71C264.804 192.542 264.708 193.257 264.644 193.854C264.601 194.43 264.559 195.134 264.516 195.966C266.073 195.795 267.481 195.678 268.74 195.614C269.423 195.593 269.764 195.774 269.764 196.158C269.764 196.457 269.583 196.787 269.22 197.15C268.879 197.491 268.516 197.694 268.132 197.758C266.852 197.993 265.593 198.185 264.356 198.334L264.196 201.982C264.025 205.545 263.94 207.539 263.94 207.966C263.919 208.393 263.631 208.766 263.076 209.086C262.543 209.406 261.999 209.566 261.444 209.566C261.124 209.566 260.857 209.502 260.644 209.374C260.431 209.225 260.324 209.011 260.324 208.734C260.324 206.921 260.431 204.265 260.644 200.766L260.74 198.718L257.092 199.07C256.729 199.113 256.463 199.081 256.292 198.974C256.1 198.867 256.004 198.707 256.004 198.494C256.004 198.174 256.185 197.833 256.548 197.47C256.889 197.107 257.263 196.905 257.668 196.862L260.868 196.446C260.996 194.59 261.145 193.086 261.316 191.934C261.508 190.761 261.817 189.267 262.244 187.454C262.564 186.217 262.916 185.139 263.3 184.222C263.684 183.283 264.239 182.483 264.964 181.822C265.689 181.161 266.607 180.83 267.716 180.83Z" fill="#1C1E22"/>
<path d="M55.1844 84.659C55.4631 84.6032 55.6721 84.5754 55.8114 84.5754C56.1458 84.5754 56.4245 84.645 56.6474 84.7844C56.8982 84.9237 57.0236 85.1466 57.0236 85.4532C57.0236 86.2334 56.1458 86.8883 54.3902 87.4178C52.3281 87.9194 50.6003 88.3095 49.207 88.5882C49.4857 90.929 49.6947 92.8936 49.834 94.482C49.9733 96.0425 50.043 97.6309 50.043 99.2472C50.043 100.278 50.0012 101.337 49.9176 102.424C49.6947 105.016 49.2767 107.37 48.6636 109.488C48.0505 111.578 47.0055 113.39 45.5286 114.922C44.2746 116.232 42.9231 117.207 41.474 117.848C40.0249 118.461 38.548 118.768 37.0432 118.768C34.7303 118.768 32.5845 118.099 30.606 116.761C28.6275 115.424 27.2202 113.724 26.3842 111.662C26.2449 111.355 26.3563 111.035 26.7186 110.7C27.0809 110.338 27.5546 110.046 28.1398 109.823C28.725 109.6 29.2684 109.488 29.77 109.488C30.4388 109.488 30.8568 109.683 31.024 110.073C31.6371 111.55 32.5288 112.832 33.6992 113.919C34.8975 114.978 36.2629 115.591 37.7956 115.758C37.9349 115.786 38.1439 115.8 38.4226 115.8C41.3486 115.8 43.3829 113.362 44.5254 108.485C45.0827 106.116 45.3614 103.441 45.3614 100.459C45.3614 97.4219 45.027 93.6878 44.3582 89.257C43.3271 89.3406 42.2821 89.3824 41.2232 89.3824C39.9413 89.3824 38.6734 89.2988 37.4194 89.1316C36.8899 89.048 36.6252 88.8808 36.6252 88.63C36.6252 88.2956 37.0571 87.8915 37.921 87.4178C38.8127 86.9162 39.4815 86.6375 39.9274 86.5818L42.6862 86.331C45.5565 86.108 47.8833 85.899 49.6668 85.704C51.4503 85.481 53.2895 85.1327 55.1844 84.659ZM71.8005 95.0672C71.9956 94.7328 72.4693 94.3844 73.2217 94.0222C74.002 93.632 74.6847 93.437 75.2699 93.437C76.1059 93.437 76.4682 93.8271 76.3567 94.6074C76.3567 94.691 76.3428 94.8164 76.3149 94.9836C76.2871 95.1508 76.2592 95.2762 76.2313 95.3598V95.4434C75.9527 97.3104 75.6322 99.5537 75.2699 102.173C74.9355 104.765 74.6708 106.799 74.4757 108.276L73.3889 116.302C73.3053 116.859 72.9013 117.333 72.1767 117.723C71.4801 118.113 70.7695 118.308 70.0449 118.308C69.5991 118.308 69.2368 118.21 68.9581 118.015C68.7073 117.82 68.6098 117.542 68.6655 117.179C68.9721 114.783 69.4597 111.188 70.1285 106.395L69.7105 107.106C68.986 108.332 68.4426 109.223 68.0803 109.781C66.8263 111.731 65.4887 113.376 64.0675 114.713C62.6742 116.051 61.0719 116.943 59.2605 117.388C58.5639 117.556 57.9369 117.639 57.3795 117.639C54.7601 117.639 53.4503 115.856 53.4503 112.289C53.4503 110.617 53.7151 108.722 54.2445 106.604C54.774 104.458 55.3731 102.452 56.0419 100.585C56.7386 98.7177 57.3377 97.2965 57.8393 96.3212C58.0344 95.931 58.4663 95.5966 59.1351 95.318C59.8318 95.0114 60.5006 94.8582 61.1415 94.8582C61.5317 94.8582 61.8382 94.9278 62.0611 95.0672C62.3119 95.2065 62.4373 95.4016 62.4373 95.6524C62.4373 95.7638 62.3955 95.931 62.3119 96.154C60.4449 100.25 59.2327 103.971 58.6753 107.315L58.4663 108.443C58.2434 109.614 58.1319 110.505 58.1319 111.118C58.1319 111.425 58.1459 111.648 58.1737 111.787C58.5081 113.208 59.0515 113.877 59.8039 113.794C60.1105 113.766 60.4727 113.501 60.8907 112.999C61.3366 112.498 61.6153 112.191 61.7267 112.08C63.0922 110.491 64.3323 108.764 65.4469 106.897C66.5616 105.002 67.8574 102.633 69.3343 99.7906C70.0867 98.2579 70.9088 96.6834 71.8005 95.0672ZM79.8278 84.9516C79.8835 84.4221 80.2458 83.9762 80.9146 83.614C81.6112 83.2238 82.294 83.0288 82.9628 83.0288C83.3808 83.0288 83.7012 83.1124 83.9242 83.2796C84.1471 83.4468 84.2446 83.7115 84.2168 84.0738C83.4086 91.347 82.5726 98.6202 81.7088 105.893L80.4548 116.803C80.399 117.333 80.0228 117.792 79.3262 118.183C78.6295 118.573 77.9328 118.768 77.2362 118.768C76.2887 118.768 75.8568 118.406 75.9404 117.681L77.905 101.295C78.7967 93.6042 79.4376 88.1562 79.8278 84.9516ZM95.8016 95.945C94.3804 97.0318 93.2239 98.7874 92.3322 101.212C95.0631 100.181 97.5293 99.3168 99.7308 98.6202C98.8112 97.3383 97.8776 96.4744 96.9302 96.0286C96.7351 95.945 96.54 95.8892 96.345 95.8614C96.1778 95.8335 96.0802 95.8196 96.0524 95.8196C96.0802 95.8474 96.0524 95.8753 95.9688 95.9032C95.913 95.931 95.8573 95.945 95.8016 95.945ZM95.9688 92.9772C96.4146 92.8657 96.8884 92.81 97.39 92.81C100.065 92.81 102.49 94.6074 104.663 98.2022C104.747 98.3136 104.789 98.453 104.789 98.6202C104.789 98.9267 104.594 99.2472 104.203 99.5816C103.897 99.916 103.507 100.181 103.033 100.376C100.246 101.602 96.3728 103.065 91.4126 104.765C91.1339 106.186 90.9946 107.649 90.9946 109.154C90.9946 109.85 91.0085 110.352 91.0364 110.659C91.0921 111.913 91.3429 112.999 91.7888 113.919C91.9281 114.226 92.1232 114.518 92.374 114.797C92.6526 115.075 92.8616 115.257 93.001 115.34C93.0846 115.396 93.2239 115.424 93.419 115.424C93.614 115.424 93.837 115.368 94.0878 115.257C94.3664 115.145 94.673 114.992 95.0074 114.797C95.8155 114.323 96.5679 113.78 97.2646 113.167C97.9612 112.554 98.7972 111.759 99.7726 110.784C100.163 110.394 100.818 110.199 101.737 110.199C102.239 110.199 102.657 110.282 102.991 110.45C103.353 110.589 103.535 110.798 103.535 111.077C103.535 111.327 103.395 111.606 103.117 111.913C101.389 113.78 99.6193 115.368 97.808 116.678C95.9966 117.988 94.1853 118.642 92.374 118.642C91.5101 118.642 90.702 118.461 89.9496 118.099C88.6956 117.514 87.7899 116.58 87.2326 115.298C86.6752 114.017 86.3966 112.512 86.3966 110.784C86.3966 109.502 86.5638 107.997 86.8982 106.27L86.5638 106.353L86.2294 106.479C85.8114 106.618 85.477 106.688 85.2262 106.688C84.836 106.688 84.5295 106.59 84.3066 106.395C84.0836 106.2 83.9722 105.949 83.9722 105.643C83.9722 105.28 84.1115 104.932 84.3902 104.598C84.6967 104.235 85.1426 103.943 85.7278 103.72L87.776 102.926C88.0268 102.145 88.403 101.128 88.9046 99.8742C89.6848 98.1464 90.6602 96.6556 91.8306 95.4016C93.001 94.1476 94.3804 93.3394 95.9688 92.9772ZM130.338 92.7264C130.199 95.6524 130.129 98.2718 130.129 100.585C130.129 106.325 130.519 111.439 131.3 115.925C131.411 116.566 131.16 117.124 130.547 117.597C129.934 118.043 129.265 118.266 128.541 118.266C128.123 118.266 127.774 118.169 127.496 117.974C127.217 117.779 127.05 117.486 126.994 117.096C126.27 111.69 125.852 106.646 125.74 101.964C124.403 105.141 122.8 109.6 120.933 115.34C120.905 115.452 120.822 115.605 120.682 115.8C120.432 116.134 120.055 116.399 119.554 116.594C119.052 116.789 118.551 116.887 118.049 116.887C117.659 116.887 117.352 116.831 117.129 116.72C116.767 116.525 116.586 116.26 116.586 115.925C116.586 115.842 116.614 115.689 116.67 115.466C116.697 115.159 116.711 114.713 116.711 114.128C116.711 113.153 116.628 111.745 116.461 109.906L116.293 107.649C116.182 104.918 116.084 102.87 116.001 101.504C114.663 103.957 113.604 105.768 112.824 106.938C112.155 110.477 111.041 113.905 109.48 117.221C109.285 117.611 108.867 117.946 108.226 118.224C107.585 118.503 106.958 118.642 106.345 118.642C105.955 118.642 105.634 118.573 105.384 118.433C105.161 118.294 105.049 118.099 105.049 117.848C105.049 117.681 105.091 117.5 105.175 117.305C106.456 114.518 107.432 111.662 108.101 108.736C107.989 108.624 107.933 108.471 107.933 108.276C107.933 107.997 108.045 107.705 108.268 107.398L108.435 107.106C108.881 104.876 109.104 102.508 109.104 99.9996C109.104 98.9406 109.062 97.8956 108.978 96.8646C108.951 96.3908 109.271 95.9589 109.94 95.5688C110.609 95.1786 111.291 94.9836 111.988 94.9836C112.378 94.9836 112.699 95.0672 112.949 95.2344C113.2 95.4016 113.34 95.6384 113.367 95.945C113.423 96.4466 113.479 97.2547 113.535 98.3694C114.176 97.199 114.858 96.0982 115.583 95.0672C115.639 94.5934 115.973 94.1894 116.586 93.855C117.199 93.4927 117.84 93.3116 118.509 93.3116C118.927 93.3116 119.275 93.4091 119.554 93.6042C119.86 93.7714 120.028 94.05 120.055 94.4402C120.334 98.035 120.529 101.24 120.641 104.054C122.508 99.484 124.361 95.7081 126.2 92.7264C126.395 92.4198 126.771 92.1412 127.329 91.8904C127.886 91.6396 128.429 91.5142 128.959 91.5142C129.377 91.5142 129.711 91.6117 129.962 91.8068C130.241 92.0018 130.366 92.3084 130.338 92.7264ZM136.409 112.205C136.353 112.54 136.325 112.776 136.325 112.916C136.325 114.03 136.868 114.588 137.955 114.588C138.596 114.588 139.376 114.407 140.296 114.044C141.132 113.71 142.679 112.999 144.936 111.913C144.992 111.216 145.047 110.547 145.103 109.906C145.187 109.237 145.256 108.638 145.312 108.109L145.605 105.225C143.682 106.144 142.247 106.869 141.299 107.398C139.906 108.206 138.791 108.973 137.955 109.697C137.119 110.394 136.604 111.23 136.409 112.205ZM147.277 92.5174C148.531 92.5174 149.367 92.8378 149.785 93.4788C150.231 94.0918 150.453 94.9975 150.453 96.1958L150.412 97.3662C150.3 99.4004 150.049 102.382 149.659 106.311C149.576 106.869 149.478 107.802 149.367 109.112C149.255 109.92 149.158 110.575 149.074 111.077C149.381 111.244 149.534 111.467 149.534 111.745C149.534 111.94 149.436 112.233 149.241 112.623L149.074 112.832L148.823 113.083C148.628 114.504 148.531 115.716 148.531 116.72C148.921 116.943 149.116 117.207 149.116 117.514C149.116 117.988 148.768 118.489 148.071 119.019C147.876 119.158 147.653 119.297 147.402 119.437C147.207 119.548 146.928 119.646 146.566 119.729C146.232 119.813 145.897 119.855 145.563 119.855C144.532 119.855 144.058 119.478 144.142 118.726L144.476 115.215C140.742 116.998 137.872 117.89 135.865 117.89C133.329 117.89 132.061 116.525 132.061 113.794C132.061 111.174 133.413 108.945 136.116 107.106C138.847 105.266 142.107 103.608 145.897 102.131C146.009 101.045 146.092 99.9438 146.148 98.8292C146.148 98.6062 146.162 98.3276 146.19 97.9932C146.218 97.6588 146.232 97.2826 146.232 96.8646C146.232 96.3351 146.19 95.9868 146.106 95.8196L145.981 95.6524H145.939C145.521 95.6524 144.741 96.2236 143.598 97.3662C142.567 98.3694 141.285 99.8742 139.753 101.881C139.53 102.187 139.154 102.438 138.624 102.633C138.122 102.828 137.607 102.926 137.077 102.926C136.687 102.926 136.353 102.856 136.074 102.717C135.823 102.577 135.698 102.368 135.698 102.09C135.698 101.867 135.81 101.574 136.032 101.212C139.878 95.4155 143.626 92.5174 147.277 92.5174ZM169.293 92.9354C170.408 93.5484 170.965 94.8442 170.965 96.8228C170.965 97.5473 170.895 98.3554 170.756 99.2472C170.617 100.111 170.463 100.933 170.296 101.713L170.003 103.385L168.248 116.385C168.805 116.525 169.042 116.873 168.958 117.43C168.652 118.963 167.565 119.938 165.698 120.356L165.28 120.398C164.806 120.398 164.388 120.3 164.026 120.105C163.664 119.91 163.511 119.604 163.566 119.186C164.737 110.714 165.601 104.361 166.158 100.125C166.186 100.014 166.241 99.693 166.325 99.1636C166.437 98.6341 166.492 98.1325 166.492 97.6588C166.492 96.767 166.255 96.3072 165.782 96.2794C165.419 96.2236 164.82 96.7252 163.984 97.7842C163.176 98.8152 162.73 99.3865 162.647 99.498C160.975 101.393 159.414 103.511 157.965 105.852C157.296 109.92 156.767 113.208 156.377 115.716L156.168 117.054C156.084 117.583 155.694 118.043 154.997 118.433C154.301 118.824 153.618 119.019 152.949 119.019C152.531 119.019 152.197 118.935 151.946 118.768C151.723 118.573 151.639 118.294 151.695 117.932C152.42 113.668 152.991 110.185 153.409 107.482C153.242 107.315 153.158 107.12 153.158 106.897C153.158 106.757 153.2 106.604 153.283 106.437C153.367 106.297 153.437 106.172 153.492 106.061C153.576 105.949 153.646 105.852 153.701 105.768L155.373 95.6524C155.457 95.1508 155.833 94.7188 156.502 94.3566C157.171 93.9943 157.84 93.8132 158.508 93.8132C158.926 93.8132 159.247 93.8968 159.47 94.064C159.693 94.2312 159.776 94.482 159.721 94.8164C159.581 95.736 159.386 96.9203 159.135 98.3694L160.891 96.4884C162.061 95.318 163.176 94.3566 164.235 93.6042C165.294 92.8518 166.367 92.4756 167.454 92.4756C168.15 92.4756 168.763 92.6288 169.293 92.9354ZM177.095 114.839C177.625 115.257 178.307 115.466 179.143 115.466C180.119 115.466 181.359 115.145 182.863 114.504C183.755 109.349 184.452 104.277 184.953 99.289H184.87C183.365 99.289 181.986 99.8045 180.732 100.836C179.478 101.867 178.433 103.149 177.597 104.681C176.789 106.214 176.231 107.733 175.925 109.237C175.785 109.934 175.716 110.617 175.716 111.286C175.716 112.93 176.175 114.114 177.095 114.839ZM185.957 86.0384C185.985 85.5368 186.333 85.1048 187.002 84.7426C187.67 84.3524 188.353 84.1574 189.05 84.1574C189.914 84.1574 190.332 84.4778 190.304 85.1188C189.83 94.3148 188.827 103.803 187.294 113.585C187.74 113.808 187.963 114.1 187.963 114.462C187.963 114.88 187.629 115.284 186.96 115.675L186.709 117.221C186.598 117.751 186.194 118.21 185.497 118.601C184.828 118.963 184.159 119.144 183.49 119.144C183.072 119.144 182.738 119.06 182.487 118.893C182.236 118.698 182.153 118.419 182.236 118.057C182.236 117.918 182.25 117.82 182.278 117.765C180.495 118.322 179.018 118.601 177.847 118.601C176.566 118.601 175.409 118.322 174.378 117.765C173.347 117.235 172.595 116.469 172.121 115.466C171.647 114.462 171.41 113.334 171.41 112.08C171.41 111.634 171.466 111.021 171.577 110.241C171.968 107.983 172.804 105.81 174.085 103.72C175.367 101.63 176.984 99.916 178.934 98.5784C180.885 97.2408 182.989 96.5302 185.246 96.4466C185.58 92.6288 185.817 89.1594 185.957 86.0384ZM201.159 95.945C199.738 97.0318 198.581 98.7874 197.689 101.212C200.42 100.181 202.887 99.3168 205.088 98.6202C204.168 97.3383 203.235 96.4744 202.287 96.0286C202.092 95.945 201.897 95.8892 201.702 95.8614C201.535 95.8335 201.437 95.8196 201.41 95.8196C201.437 95.8474 201.41 95.8753 201.326 95.9032C201.27 95.931 201.215 95.945 201.159 95.945ZM201.326 92.9772C201.772 92.8657 202.246 92.81 202.747 92.81C205.422 92.81 207.847 94.6074 210.02 98.2022C210.104 98.3136 210.146 98.453 210.146 98.6202C210.146 98.9267 209.951 99.2472 209.561 99.5816C209.254 99.916 208.864 100.181 208.39 100.376C205.604 101.602 201.73 103.065 196.77 104.765C196.491 106.186 196.352 107.649 196.352 109.154C196.352 109.85 196.366 110.352 196.394 110.659C196.449 111.913 196.7 112.999 197.146 113.919C197.285 114.226 197.48 114.518 197.731 114.797C198.01 115.075 198.219 115.257 198.358 115.34C198.442 115.396 198.581 115.424 198.776 115.424C198.971 115.424 199.194 115.368 199.445 115.257C199.724 115.145 200.03 114.992 200.365 114.797C201.173 114.323 201.925 113.78 202.622 113.167C203.318 112.554 204.154 111.759 205.13 110.784C205.52 110.394 206.175 110.199 207.094 110.199C207.596 110.199 208.014 110.282 208.348 110.45C208.711 110.589 208.892 110.798 208.892 111.077C208.892 111.327 208.752 111.606 208.474 111.913C206.746 113.78 204.977 115.368 203.165 116.678C201.354 117.988 199.543 118.642 197.731 118.642C196.867 118.642 196.059 118.461 195.307 118.099C194.053 117.514 193.147 116.58 192.59 115.298C192.032 114.017 191.754 112.512 191.754 110.784C191.754 109.502 191.921 107.997 192.255 106.27L191.921 106.353L191.587 106.479C191.169 106.618 190.834 106.688 190.583 106.688C190.193 106.688 189.887 106.59 189.664 106.395C189.441 106.2 189.329 105.949 189.329 105.643C189.329 105.28 189.469 104.932 189.747 104.598C190.054 104.235 190.5 103.943 191.085 103.72L193.133 102.926C193.384 102.145 193.76 101.128 194.262 99.8742C195.042 98.1464 196.017 96.6556 197.188 95.4016C198.358 94.1476 199.738 93.3394 201.326 92.9772ZM227.503 92.9354C228.617 93.5484 229.175 94.8442 229.175 96.8228C229.175 97.5473 229.105 98.3554 228.966 99.2472C228.826 100.111 228.673 100.933 228.506 101.713L228.213 103.385L226.458 116.385C227.015 116.525 227.252 116.873 227.168 117.43C226.862 118.963 225.775 119.938 223.908 120.356L223.49 120.398C223.016 120.398 222.598 120.3 222.236 120.105C221.874 119.91 221.72 119.604 221.776 119.186C222.946 110.714 223.81 104.361 224.368 100.125C224.395 100.014 224.451 99.693 224.535 99.1636C224.646 98.6341 224.702 98.1325 224.702 97.6588C224.702 96.767 224.465 96.3072 223.991 96.2794C223.629 96.2236 223.03 96.7252 222.194 97.7842C221.386 98.8152 220.94 99.3865 220.856 99.498C219.184 101.393 217.624 103.511 216.175 105.852C215.506 109.92 214.977 113.208 214.586 115.716L214.377 117.054C214.294 117.583 213.904 118.043 213.207 118.433C212.51 118.824 211.828 119.019 211.159 119.019C210.741 119.019 210.406 118.935 210.156 118.768C209.933 118.573 209.849 118.294 209.905 117.932C210.629 113.668 211.201 110.185 211.619 107.482C211.451 107.315 211.368 107.12 211.368 106.897C211.368 106.757 211.41 106.604 211.493 106.437C211.577 106.297 211.646 106.172 211.702 106.061C211.786 105.949 211.855 105.852 211.911 105.768L213.583 95.6524C213.667 95.1508 214.043 94.7188 214.712 94.3566C215.381 93.9943 216.049 93.8132 216.718 93.8132C217.136 93.8132 217.457 93.8968 217.68 94.064C217.903 94.2312 217.986 94.482 217.93 94.8164C217.791 95.736 217.596 96.9203 217.345 98.3694L219.101 96.4884C220.271 95.318 221.386 94.3566 222.445 93.6042C223.504 92.8518 224.577 92.4756 225.663 92.4756C226.36 92.4756 226.973 92.6288 227.503 92.9354ZM236.726 98.662C236.726 99.7209 236.991 100.654 237.52 101.463C238.078 102.271 238.746 102.953 239.527 103.511C240.307 104.068 241.366 104.723 242.703 105.475C244.515 106.506 245.894 107.44 246.842 108.276C247.817 109.112 248.458 110.157 248.764 111.411C248.876 111.968 248.932 112.372 248.932 112.623C248.932 114.574 247.901 115.981 245.838 116.845C243.776 117.681 241.436 118.099 238.816 118.099C237.785 118.099 236.879 118.029 236.099 117.89C235.179 117.723 234.218 117.402 233.215 116.929C232.24 116.427 231.417 115.828 230.749 115.131C230.108 114.407 229.787 113.668 229.787 112.916C229.787 111.745 230.693 110.673 232.504 109.697C233.006 109.446 233.494 109.321 233.967 109.321C234.413 109.321 234.775 109.419 235.054 109.614C235.361 109.809 235.514 110.046 235.514 110.324C235.514 110.826 235.11 111.313 234.302 111.787C234.134 111.871 234.051 111.996 234.051 112.163C234.051 112.498 234.316 112.902 234.845 113.376C235.375 113.849 235.793 114.17 236.099 114.337C236.935 114.811 238.273 115.103 240.112 115.215C240.335 115.243 240.725 115.257 241.282 115.257C242.285 115.257 243.094 115.089 243.707 114.755C244.32 114.421 244.584 113.808 244.501 112.916C244.389 111.718 243.177 110.366 240.864 108.861L239.276 107.858C237.827 106.966 236.629 106.186 235.681 105.517C234.761 104.821 233.967 103.998 233.298 103.051C232.63 102.076 232.295 100.989 232.295 99.7906C232.295 99.0382 232.435 98.2858 232.713 97.5334C233.326 95.722 234.469 94.3287 236.141 93.3534C237.813 92.3502 239.61 91.8486 241.533 91.8486C243.512 91.8486 245.17 92.3502 246.507 93.3534C247.873 94.3566 248.555 95.7778 248.555 97.617C248.555 98.2022 248.472 98.8292 248.305 99.498C248.193 99.9996 247.775 100.432 247.051 100.794C246.326 101.156 245.643 101.337 245.002 101.337C244.612 101.337 244.306 101.254 244.083 101.086C243.888 100.919 243.846 100.682 243.957 100.376C244.125 99.7906 244.208 99.2054 244.208 98.6202C244.208 97.7006 243.971 96.9203 243.498 96.2794C243.024 95.6384 242.327 95.1926 241.408 94.9418C240.906 94.8303 240.53 94.7746 240.279 94.7746C239.276 94.7746 238.426 95.1368 237.729 95.8614C237.06 96.558 236.726 97.4916 236.726 98.662ZM265.809 112.205C265.753 112.54 265.725 112.776 265.725 112.916C265.725 114.03 266.269 114.588 267.356 114.588C267.997 114.588 268.777 114.407 269.696 114.044C270.532 113.71 272.079 112.999 274.336 111.913C274.392 111.216 274.448 110.547 274.503 109.906C274.587 109.237 274.657 108.638 274.712 108.109L275.005 105.225C273.082 106.144 271.647 106.869 270.7 107.398C269.306 108.206 268.192 108.973 267.356 109.697C266.52 110.394 266.004 111.23 265.809 112.205ZM276.677 92.5174C277.931 92.5174 278.767 92.8378 279.185 93.4788C279.631 94.0918 279.854 94.9975 279.854 96.1958L279.812 97.3662C279.701 99.4004 279.45 102.382 279.06 106.311C278.976 106.869 278.878 107.802 278.767 109.112C278.656 109.92 278.558 110.575 278.474 111.077C278.781 111.244 278.934 111.467 278.934 111.745C278.934 111.94 278.837 112.233 278.642 112.623L278.474 112.832L278.224 113.083C278.029 114.504 277.931 115.716 277.931 116.72C278.321 116.943 278.516 117.207 278.516 117.514C278.516 117.988 278.168 118.489 277.471 119.019C277.276 119.158 277.053 119.297 276.802 119.437C276.607 119.548 276.329 119.646 275.966 119.729C275.632 119.813 275.298 119.855 274.963 119.855C273.932 119.855 273.458 119.478 273.542 118.726L273.876 115.215C270.142 116.998 267.272 117.89 265.266 117.89C262.73 117.89 261.462 116.525 261.462 113.794C261.462 111.174 262.813 108.945 265.516 107.106C268.247 105.266 271.508 103.608 275.298 102.131C275.409 101.045 275.493 99.9438 275.548 98.8292C275.548 98.6062 275.562 98.3276 275.59 97.9932C275.618 97.6588 275.632 97.2826 275.632 96.8646C275.632 96.3351 275.59 95.9868 275.507 95.8196L275.381 95.6524H275.339C274.921 95.6524 274.141 96.2236 272.999 97.3662C271.968 98.3694 270.686 99.8742 269.153 101.881C268.93 102.187 268.554 102.438 268.024 102.633C267.523 102.828 267.007 102.926 266.478 102.926C266.088 102.926 265.753 102.856 265.475 102.717C265.224 102.577 265.098 102.368 265.098 102.09C265.098 101.867 265.21 101.574 265.433 101.212C269.278 95.4155 273.026 92.5174 276.677 92.5174ZM293.385 92.392C294.193 92.0576 294.931 91.8904 295.6 91.8904C296.325 91.8904 296.91 92.0854 297.356 92.4756C297.802 92.8378 298.024 93.437 298.024 94.273C298.024 95.0811 297.899 95.9589 297.648 96.9064C297.397 97.8538 297.049 98.9685 296.603 100.25L296.018 102.006C295.851 102.535 295.419 102.981 294.722 103.344C294.026 103.706 293.357 103.887 292.716 103.887C292.298 103.887 291.977 103.803 291.754 103.636C291.559 103.441 291.518 103.162 291.629 102.8C292.131 101.24 292.632 99.5119 293.134 97.617C293.245 96.7531 293.329 96.1818 293.385 95.9032L293.217 96.0704C291.072 97.9096 289.107 100.223 287.324 103.009C286.516 107.44 286.014 111.885 285.819 116.343C285.791 116.873 285.429 117.347 284.732 117.765C284.063 118.155 283.367 118.35 282.642 118.35C282.224 118.35 281.876 118.252 281.597 118.057C281.318 117.862 281.193 117.57 281.221 117.179C281.444 113.167 281.876 109.265 282.517 105.475C282.238 105.28 282.099 105.057 282.099 104.807C282.099 104.639 282.154 104.458 282.266 104.263L282.893 103.218C283.506 100.014 284.258 96.7949 285.15 93.5624C285.289 93.0608 285.721 92.6288 286.446 92.2666C287.198 91.8764 287.909 91.6814 288.578 91.6814C288.996 91.6814 289.316 91.765 289.539 91.9322C289.762 92.0994 289.818 92.3502 289.706 92.6846C289.26 94.2451 288.982 95.2762 288.87 95.7778C290.542 94.1058 292.047 92.9772 293.385 92.392ZM314.793 109.154C314.988 108.959 315.294 108.805 315.712 108.694C316.13 108.583 316.548 108.527 316.966 108.527C317.997 108.527 318.513 108.792 318.513 109.321C318.513 109.572 318.374 109.85 318.095 110.157C317.761 110.547 317.454 110.923 317.175 111.286C316.897 111.62 316.646 111.927 316.423 112.205C315.197 113.794 314.096 115.062 313.121 116.009C312.145 116.929 311.003 117.597 309.693 118.015C309.08 118.21 308.425 118.308 307.729 118.308C306.558 118.308 305.555 117.974 304.719 117.305C303.911 116.636 303.437 115.661 303.298 114.379C303.242 114.017 303.214 113.459 303.214 112.707C303.214 111.258 303.381 109.781 303.716 108.276C304.05 106.771 304.538 104.89 305.179 102.633L305.68 100.836L304.092 101.003C303.312 101.059 302.253 101.17 300.915 101.337C300.274 101.421 299.787 101.351 299.452 101.128C299.118 100.905 298.951 100.613 298.951 100.25C298.951 99.8324 299.146 99.4283 299.536 99.0382C299.954 98.6202 300.483 98.3833 301.124 98.3276L306.516 97.7006C307.743 93.1862 309.122 88.7554 310.655 84.4082C310.794 84.018 311.17 83.6836 311.783 83.405C312.424 83.0984 313.037 82.9452 313.622 82.9452C313.985 82.9452 314.277 83.0148 314.5 83.1542C314.751 83.2935 314.876 83.5025 314.876 83.7812C314.876 83.8648 314.849 84.018 314.793 84.241C313.177 88.7832 311.825 93.1165 310.738 97.2408C312.689 97.0457 313.985 96.9482 314.626 96.9482C315.434 96.9482 315.838 97.185 315.838 97.6588C315.838 98.0489 315.601 98.4808 315.127 98.9546C314.653 99.4004 314.166 99.6791 313.664 99.7906C311.992 100.069 310.738 100.264 309.902 100.376C309.428 102.271 309.01 104.124 308.648 105.935C308.592 106.158 308.397 106.98 308.063 108.401C307.729 109.795 307.561 111.104 307.561 112.331C307.561 113.919 307.979 114.783 308.815 114.922C309.345 115.006 309.944 114.713 310.613 114.044C311.309 113.348 312.201 112.317 313.288 110.951C313.957 110.087 314.458 109.488 314.793 109.154ZM327.004 85.913C326.698 85.8294 326.391 85.7876 326.085 85.7876C325.472 85.7876 324.928 85.9408 324.454 86.2474C323.841 86.5818 323.493 86.9162 323.409 87.2506C323.047 88.5603 322.81 89.4242 322.699 89.8422V89.9676C322.699 90.1069 322.755 90.2462 322.866 90.3856C322.977 90.497 323.103 90.5806 323.242 90.6364C323.465 90.7478 323.716 90.8036 323.995 90.8036C324.44 90.8036 324.97 90.6782 325.583 90.4274C326.224 90.1487 326.642 89.7725 326.837 89.2988C327.004 88.825 327.241 87.989 327.548 86.7908V86.7072C327.548 86.5678 327.492 86.4285 327.38 86.2892C327.269 86.122 327.144 85.9966 327.004 85.913ZM325.374 102.675C325.207 103.789 324.886 105.81 324.413 108.736C323.967 111.634 323.591 114.267 323.284 116.636C323.2 117.165 322.824 117.625 322.155 118.015C321.514 118.378 320.86 118.559 320.191 118.559C319.745 118.559 319.397 118.475 319.146 118.308C318.923 118.113 318.839 117.834 318.895 117.472C319.369 114.685 319.87 111.509 320.4 107.942C320.957 104.347 321.347 101.783 321.57 100.25L322.448 94.5238C322.532 94.0222 322.908 93.5902 323.577 93.228C324.273 92.8657 324.942 92.6846 325.583 92.6846C325.973 92.6846 326.28 92.7682 326.503 92.9354C326.726 93.1026 326.809 93.3394 326.753 93.646L325.374 102.675ZM333.734 114.044C334.876 112.512 335.865 110.895 336.701 109.196C337.426 107.802 338.192 106.075 339 104.012C339.809 101.95 340.213 100.25 340.213 98.9128C340.213 98.4669 340.157 98.1186 340.045 97.8678C339.209 97.9235 338.708 97.6727 338.541 97.1154C338.346 96.4187 338.137 96.0704 337.914 96.0704C337.746 96.0704 337.579 96.1818 337.412 96.4048C337.245 96.5998 337.008 96.9621 336.701 97.4916C336.311 98.0768 335.893 98.8849 335.447 99.916C334.528 101.867 333.775 103.776 333.19 105.643C332.521 107.565 331.992 109.307 331.602 110.868C331.212 112.428 331.017 113.919 331.017 115.34C331.017 115.953 331.058 116.552 331.142 117.138L332.02 116.218C332.549 115.605 333.121 114.88 333.734 114.044ZM342.553 94.3148C343.389 94.6492 343.989 95.1229 344.351 95.736C344.713 96.349 344.894 97.1293 344.894 98.0768C344.894 98.9685 344.671 100.501 344.225 102.675C342.999 108.415 341.996 113.654 341.216 118.392C340.463 123.129 339.92 127.811 339.586 132.436C339.558 132.827 339.502 133.161 339.418 133.44C339.363 133.746 339.237 134.108 339.042 134.526C338.736 135.139 338.248 135.683 337.579 136.157C336.938 136.658 336.325 136.909 335.74 136.909C335.211 136.909 334.807 136.672 334.528 136.198L333.316 134.108C331.56 131.043 330.069 128.535 328.843 126.584C328.759 126.473 328.718 126.334 328.718 126.166C328.718 125.693 329.066 125.247 329.763 124.829C330.459 124.411 331.17 124.202 331.894 124.202C332.619 124.202 333.121 124.439 333.399 124.912C333.789 125.637 334.235 126.417 334.737 127.253L335.573 128.716C336.186 123.784 336.869 119.13 337.621 114.755C336.339 116.538 334.988 118.071 333.566 119.353C332.173 120.635 330.877 121.276 329.679 121.276C328.759 121.276 327.965 120.858 327.296 120.022C326.739 119.325 326.46 118.322 326.46 117.012C326.46 116.288 326.516 115.577 326.628 114.88C326.767 114.184 326.976 113.236 327.255 112.038L327.505 111.035C328.341 107.245 329.582 103.553 331.226 99.9578C332.006 98.3136 332.786 96.9482 333.566 95.8614C334.375 94.7746 335.392 93.9525 336.618 93.3952C337.37 93.0329 338.206 92.8518 339.126 92.8518C340.491 92.8518 341.536 93.3116 342.261 94.2312L342.553 94.3148ZM362.793 102.591C363.072 102.619 363.281 102.703 363.42 102.842C363.587 102.981 363.671 103.162 363.671 103.385C363.671 103.58 363.615 103.776 363.503 103.971C363.308 104.361 362.96 104.681 362.458 104.932C361.957 105.155 361.483 105.252 361.037 105.225C359.337 105.169 356.676 105.057 353.053 104.89L350.462 104.765C350.183 104.737 349.96 104.653 349.793 104.514C349.654 104.375 349.584 104.207 349.584 104.012C349.584 103.817 349.654 103.608 349.793 103.385C349.988 103.023 350.336 102.731 350.838 102.508C351.34 102.257 351.813 102.131 352.259 102.131C356.941 102.299 360.452 102.452 362.793 102.591ZM373.979 84.9516C374.035 84.4221 374.397 83.9762 375.066 83.614C375.762 83.2238 376.445 83.0288 377.114 83.0288C377.532 83.0288 377.852 83.1124 378.075 83.2796C378.298 83.4468 378.396 83.7115 378.368 84.0738C377.56 91.347 376.724 98.6202 375.86 105.893L374.606 116.803C374.55 117.333 374.174 117.792 373.477 118.183C372.781 118.573 372.084 118.768 371.387 118.768C370.44 118.768 370.008 118.406 370.092 117.681L372.056 101.295C372.948 93.6042 373.589 88.1562 373.979 84.9516ZM386.316 85.913C386.01 85.8294 385.703 85.7876 385.397 85.7876C384.783 85.7876 384.24 85.9408 383.766 86.2474C383.153 86.5818 382.805 86.9162 382.721 87.2506C382.359 88.5603 382.122 89.4242 382.011 89.8422V89.9676C382.011 90.1069 382.066 90.2462 382.178 90.3856C382.289 90.497 382.415 90.5806 382.554 90.6364C382.777 90.7478 383.028 90.8036 383.307 90.8036C383.752 90.8036 384.282 90.6782 384.895 90.4274C385.536 90.1487 385.954 89.7725 386.149 89.2988C386.316 88.825 386.553 87.989 386.86 86.7908V86.7072C386.86 86.5678 386.804 86.4285 386.692 86.2892C386.581 86.122 386.455 85.9966 386.316 85.913ZM384.686 102.675C384.519 103.789 384.198 105.81 383.725 108.736C383.279 111.634 382.902 114.267 382.596 116.636C382.512 117.165 382.136 117.625 381.467 118.015C380.826 118.378 380.172 118.559 379.503 118.559C379.057 118.559 378.709 118.475 378.458 118.308C378.235 118.113 378.151 117.834 378.207 117.472C378.681 114.685 379.182 111.509 379.712 107.942C380.269 104.347 380.659 101.783 380.882 100.25L381.76 94.5238C381.844 94.0222 382.22 93.5902 382.889 93.228C383.585 92.8657 384.254 92.6846 384.895 92.6846C385.285 92.6846 385.592 92.7682 385.815 92.9354C386.037 93.1026 386.121 93.3394 386.065 93.646L384.686 102.675ZM393.068 98.662C393.068 99.7209 393.333 100.654 393.862 101.463C394.419 102.271 395.088 102.953 395.868 103.511C396.649 104.068 397.708 104.723 399.045 105.475C400.857 106.506 402.236 107.44 403.183 108.276C404.159 109.112 404.8 110.157 405.106 111.411C405.218 111.968 405.273 112.372 405.273 112.623C405.273 114.574 404.242 115.981 402.18 116.845C400.118 117.681 397.777 118.099 395.158 118.099C394.127 118.099 393.221 118.029 392.441 117.89C391.521 117.723 390.56 117.402 389.557 116.929C388.581 116.427 387.759 115.828 387.09 115.131C386.45 114.407 386.129 113.668 386.129 112.916C386.129 111.745 387.035 110.673 388.846 109.697C389.348 109.446 389.835 109.321 390.309 109.321C390.755 109.321 391.117 109.419 391.396 109.614C391.702 109.809 391.856 110.046 391.856 110.324C391.856 110.826 391.452 111.313 390.643 111.787C390.476 111.871 390.393 111.996 390.393 112.163C390.393 112.498 390.657 112.902 391.187 113.376C391.716 113.849 392.134 114.17 392.441 114.337C393.277 114.811 394.614 115.103 396.454 115.215C396.677 115.243 397.067 115.257 397.624 115.257C398.627 115.257 399.435 115.089 400.048 114.755C400.662 114.421 400.926 113.808 400.843 112.916C400.731 111.718 399.519 110.366 397.206 108.861L395.618 107.858C394.169 106.966 392.97 106.186 392.023 105.517C391.103 104.821 390.309 103.998 389.64 103.051C388.971 102.076 388.637 100.989 388.637 99.7906C388.637 99.0382 388.776 98.2858 389.055 97.5334C389.668 95.722 390.811 94.3287 392.483 93.3534C394.155 92.3502 395.952 91.8486 397.875 91.8486C399.853 91.8486 401.511 92.3502 402.849 93.3534C404.215 94.3566 404.897 95.7778 404.897 97.617C404.897 98.2022 404.814 98.8292 404.646 99.498C404.535 99.9996 404.117 100.432 403.392 100.794C402.668 101.156 401.985 101.337 401.344 101.337C400.954 101.337 400.648 101.254 400.425 101.086C400.23 100.919 400.188 100.682 400.299 100.376C400.466 99.7906 400.55 99.2054 400.55 98.6202C400.55 97.7006 400.313 96.9203 399.839 96.2794C399.366 95.6384 398.669 95.1926 397.749 94.9418C397.248 94.8303 396.872 94.7746 396.621 94.7746C395.618 94.7746 394.768 95.1368 394.071 95.8614C393.402 96.558 393.068 97.4916 393.068 98.662ZM422.354 109.154C422.549 108.959 422.856 108.805 423.274 108.694C423.692 108.583 424.11 108.527 424.528 108.527C425.559 108.527 426.075 108.792 426.075 109.321C426.075 109.572 425.935 109.85 425.657 110.157C425.322 110.547 425.016 110.923 424.737 111.286C424.458 111.62 424.207 111.927 423.985 112.205C422.758 113.794 421.658 115.062 420.682 116.009C419.707 116.929 418.564 117.597 417.255 118.015C416.642 118.21 415.987 118.308 415.29 118.308C414.12 118.308 413.117 117.974 412.281 117.305C411.472 116.636 410.999 115.661 410.859 114.379C410.804 114.017 410.776 113.459 410.776 112.707C410.776 111.258 410.943 109.781 411.277 108.276C411.612 106.771 412.099 104.89 412.74 102.633L413.242 100.836L411.654 101.003C410.873 101.059 409.814 101.17 408.477 101.337C407.836 101.421 407.348 101.351 407.014 101.128C406.679 100.905 406.512 100.613 406.512 100.25C406.512 99.8324 406.707 99.4283 407.097 99.0382C407.515 98.6202 408.045 98.3833 408.686 98.3276L414.078 97.7006C415.304 93.1862 416.683 88.7554 418.216 84.4082C418.355 84.018 418.732 83.6836 419.345 83.405C419.986 83.0984 420.599 82.9452 421.184 82.9452C421.546 82.9452 421.839 83.0148 422.062 83.1542C422.313 83.2935 422.438 83.5025 422.438 83.7812C422.438 83.8648 422.41 84.018 422.354 84.241C420.738 88.7832 419.387 93.1165 418.3 97.2408C420.25 97.0457 421.546 96.9482 422.187 96.9482C422.995 96.9482 423.399 97.185 423.399 97.6588C423.399 98.0489 423.162 98.4808 422.689 98.9546C422.215 99.4004 421.727 99.6791 421.226 99.7906C419.554 100.069 418.3 100.264 417.464 100.376C416.99 102.271 416.572 104.124 416.21 105.935C416.154 106.158 415.959 106.98 415.625 108.401C415.29 109.795 415.123 111.104 415.123 112.331C415.123 113.919 415.541 114.783 416.377 114.922C416.906 115.006 417.506 114.713 418.174 114.044C418.871 113.348 419.763 112.317 420.85 110.951C421.518 110.087 422.02 109.488 422.354 109.154ZM438.202 95.945C436.781 97.0318 435.625 98.7874 434.733 101.212C437.464 100.181 439.93 99.3168 442.132 98.6202C441.212 97.3383 440.278 96.4744 439.331 96.0286C439.136 95.945 438.941 95.8892 438.746 95.8614C438.579 95.8335 438.481 95.8196 438.453 95.8196C438.481 95.8474 438.453 95.8753 438.37 95.9032C438.314 95.931 438.258 95.945 438.202 95.945ZM438.37 92.9772C438.815 92.8657 439.289 92.81 439.791 92.81C442.466 92.81 444.89 94.6074 447.064 98.2022C447.148 98.3136 447.189 98.453 447.189 98.6202C447.189 98.9267 446.994 99.2472 446.604 99.5816C446.298 99.916 445.907 100.181 445.434 100.376C442.647 101.602 438.774 103.065 433.813 104.765C433.535 106.186 433.395 107.649 433.395 109.154C433.395 109.85 433.409 110.352 433.437 110.659C433.493 111.913 433.744 112.999 434.19 113.919C434.329 114.226 434.524 114.518 434.775 114.797C435.053 115.075 435.262 115.257 435.402 115.34C435.485 115.396 435.625 115.424 435.82 115.424C436.015 115.424 436.238 115.368 436.489 115.257C436.767 115.145 437.074 114.992 437.408 114.797C438.216 114.323 438.969 113.78 439.665 113.167C440.362 112.554 441.198 111.759 442.173 110.784C442.563 110.394 443.218 110.199 444.138 110.199C444.64 110.199 445.058 110.282 445.392 110.45C445.754 110.589 445.935 110.798 445.935 111.077C445.935 111.327 445.796 111.606 445.517 111.913C443.79 113.78 442.02 115.368 440.209 116.678C438.397 117.988 436.586 118.642 434.775 118.642C433.911 118.642 433.103 118.461 432.35 118.099C431.096 117.514 430.191 116.58 429.633 115.298C429.076 114.017 428.797 112.512 428.797 110.784C428.797 109.502 428.965 107.997 429.299 106.27L428.965 106.353L428.63 106.479C428.212 106.618 427.878 106.688 427.627 106.688C427.237 106.688 426.93 106.59 426.707 106.395C426.484 106.2 426.373 105.949 426.373 105.643C426.373 105.28 426.512 104.932 426.791 104.598C427.097 104.235 427.543 103.943 428.129 103.72L430.177 102.926C430.428 102.145 430.804 101.128 431.305 99.8742C432.086 98.1464 433.061 96.6556 434.231 95.4016C435.402 94.1476 436.781 93.3394 438.37 92.9772Z" fill="#1C1E22"/>
<defs>
<clipPath id="clip0_697_3497">
<rect width="281.831" height="51.0243" fill="white" transform="matrix(0.999989 -0.0045933 0.00750731 0.999972 27.333 1.46533)"/>
</clipPath>
</defs>
</svg>
