<svg width="434" height="445" viewBox="0 0 434 445" fill="none" xmlns="http://www.w3.org/2000/svg">
<path d="M406.254 323.175C408.692 323.77 410.106 324.12 411.592 324.482C411.462 324.768 411.448 325.002 411.26 325.183C407.523 328.572 407.639 328.466 413.973 330.676C421.057 333.152 425.558 336.531 425.717 341.121C425.76 342.268 425.602 343.405 425.457 344.553C424.88 348.771 425.89 352.788 431.07 356.273C434.172 358.355 434.547 360.565 432.137 362.913C430.825 364.189 429.093 365.453 428.545 366.824C427.78 368.768 427.737 370.808 427.78 372.806C427.824 375.048 428.458 377.279 428.516 379.51C428.559 381.327 428.112 383.155 427.896 384.982C427.881 385.131 427.997 385.301 427.896 385.439C424.649 389.923 426.64 394.492 427.434 398.997C428.083 402.695 429.541 406.35 430.55 410.026C430.911 411.355 431.82 412.8 431.156 414C429.194 417.602 430.118 421.066 431.459 424.626C432.253 426.751 432.152 428.993 432.008 431.171C431.964 431.862 430.435 432.52 429.598 433.19C428.213 432.701 426.438 432.372 425.515 431.713C421.115 428.578 420.162 424.87 421.028 421.215C421.793 417.932 424 414.723 425.602 411.493C425.876 410.93 426.352 410.388 427.29 409.038C422.803 409.612 418.936 409.654 416.094 410.558C411.376 412.056 406.874 413.905 403.065 415.977C395.563 420.078 387.396 423.584 377.268 425.848C371.453 427.144 366.865 429.237 363.576 432.138C362.753 432.86 360.257 433.562 358.656 433.498C338.86 432.658 319.801 434.21 302.502 439.193C284.481 444.378 265.393 445.26 245.482 444.941C221.243 444.548 198.649 441.233 176.964 435.782C150.272 429.078 123.407 422.554 96.5998 415.966C77.021 411.153 59.0149 405.309 46.6212 395.512C37.3584 399.847 30.7216 405.032 24.7917 410.483C20.5787 414.351 20.7085 414.351 26.9991 417.113C29.5818 418.25 32.0345 419.472 34.3718 420.747C36.3052 421.789 35.9445 422.819 32.8713 423.861C29.7982 424.902 26.9847 426.273 24.5031 427.718C18.4578 431.235 13.9562 431.32 9.69996 427.643C5.71783 424.211 5.50141 420.386 5.78997 416.54C6.17953 411.365 7.07406 406.18 7.00192 401.005C6.94421 397.053 6.41037 397.042 13.8985 395.884C20.4632 394.864 27.0569 393.876 34.5306 392.739C26.8549 391.814 19.9583 390.848 12.9463 390.189C9.07956 389.828 7.6079 388.85 8.63229 387.076C9.84424 384.951 11.6333 382.91 13.1771 380.828C9.39697 380.86 6.84321 379.202 6.15067 377.162C5.19842 374.368 3.92876 371.297 5.22728 368.672C9.02184 361.001 9.52682 353.574 5.19842 345.881C3.46706 342.81 3.1785 339.006 5.05414 336.01C10.3348 327.552 9.85866 319.233 6.72779 310.7C5.84768 308.288 6.65565 305.707 6.82879 303.199C6.87207 302.615 7.17506 301.786 7.93974 301.509C12.8885 299.703 11.0995 297.079 11.7776 294.656C12.3691 292.51 14.9229 290.502 16.611 288.44C18.3423 286.305 19.9871 284.158 21.8483 282.054C22.4255 281.396 23.4498 280.535 24.5752 280.376C28.7016 279.812 32.9723 279.557 37.142 279.069C38.5127 278.909 39.7246 278.378 41.0087 278.017C39.9988 277.539 39.0609 277.007 37.95 276.614C37.0122 276.285 35.8579 276.125 34.545 275.839C46.9819 274.266 20.2085 272.747 32.2703 271.227H28.3698C12.2104 269.591 38.7435 267.041 22.5697 265.447C18.0826 265.001 13.4657 264.873 8.97856 264.406C7.62233 264.257 5.78997 263.556 5.42927 262.918C3.79891 260.081 2.87551 257.138 1.23072 254.301C-0.35636 251.549 -0.601634 248.903 1.64913 246.258C3.94319 243.548 3.71234 240.86 2.70238 237.98C0.350613 231.265 2.19739 224.858 10.6522 219.365C14.7498 216.698 14.0572 214.063 12.0806 211.183C10.984 209.589 10.4214 207.911 9.91638 206.88C8.64672 205.233 7.43476 204.17 7.03078 203.023C6.04967 200.26 5.31384 197.476 4.7223 194.682C4.50588 193.651 4.47702 192.483 5.18399 191.537C10.1905 184.875 9.03627 178.17 5.78997 171.497C4.43374 168.703 5.60241 166.801 9.88752 164.888C17.6642 161.414 24.9071 157.61 32.2221 154.019C28.3554 154.019 24.3444 154.114 20.3478 153.987C16.005 153.849 11.5756 153.456 9.48354 151.118C7.2472 148.632 7.69447 146.05 11.1428 144.01C19.5399 139.048 18.1403 133.629 14.6055 128.061C13.4512 126.255 11.1716 124.544 10.8109 122.716C10.3925 120.581 10.9841 118.296 12.0517 116.203C13.7254 112.93 14.0139 109.743 12.2826 106.491C6.79993 96.1529 7.89646 85.942 14.6921 75.8691C17.3179 71.9802 17.2602 68.2401 12.8741 64.67C9.28155 61.7374 7.56461 58.656 8.48801 55.0965C8.86313 53.6302 6.95864 52.047 6.64122 50.4957C6.35266 49.0826 6.51137 47.595 7.03078 46.1925C7.91089 43.8443 9.5124 41.5704 10.2771 39.2222C10.8398 37.5115 10.1617 35.6946 10.6955 33.9733C11.9219 29.9994 18.8906 28.735 24.7772 31.3382C26.119 31.9226 27.3021 32.6239 28.3698 33.3464C31.5151 35.4927 31.1688 36.194 26.5952 37.6072C24.6907 38.1916 22.8439 38.8291 21.0259 39.4772C11.4602 42.9092 10.8686 50.7507 19.8573 54.629C23.6663 56.2653 27.7783 56.4885 32.1644 55.1922C33.9534 54.6609 35.6271 54.0234 37.2142 53.3433C40.648 51.8983 44.0963 50.4426 47.3715 48.9019C67.4553 39.4135 91.0883 33.4208 116.525 28.5544C178.248 16.7602 242.222 9.98121 306.816 4.41351C315.819 3.63786 325.038 3.47848 334.186 3.14909C341.458 2.88346 343.131 3.56348 345.411 7.17611C345.959 8.03676 346.522 8.89742 347.113 9.8112C349.321 8.4299 351.398 7.13361 353.476 5.82669L354.847 6.04982C355.222 8.35552 359.089 5.77356 359.651 8.06864C366.908 7.84551 361.455 10.385 368.698 10.1618C369.376 9.58807 369.462 11.5219 367.803 10.5762C366.101 8.31302 367.89 6.89985 368.294 5.09354C368.597 3.64849 370.371 2.61782 373.141 3.52098C380.355 5.86919 386.733 4.45601 393.153 2.68158C393.672 2.53282 394.163 2.37344 394.682 2.22469C400.338 0.60963 401.348 0.737134 404.652 3.66974C409.731 2.89408 414.939 2.12906 420.076 1.28965C423.394 0.747759 424.678 1.2684 424.722 3.07472C424.75 4.81728 425.703 6.57046 425.544 8.3024C425.385 10.2362 424.693 12.1807 423.755 14.0613C422.817 15.9208 420.48 17.6208 424.447 19.4272C425.645 19.9691 425.53 21.446 425.544 22.4873C425.688 29.2769 425.53 36.0665 425.847 42.8561C426.006 46.0756 425.082 48.9976 421.345 51.6433C420.032 52.5677 419.008 53.5877 418.344 54.6928C417.421 56.2441 415.718 57.8379 420.552 58.8367C423.697 59.4954 425.068 63.5543 423.524 65.2225C420.494 68.4739 419.138 71.6508 423.87 74.9022C424.895 75.6141 424.88 76.9954 424.433 77.9623C422.673 81.7768 422.961 85.5276 424.621 89.2996C425.616 91.5628 424.476 93.5604 423.077 95.8342C420.956 99.2662 420.927 103.155 421.23 106.821C421.547 110.614 423.423 114.354 424.346 118.137C424.534 118.934 423.596 119.794 423.163 120.634C422.37 122.206 420.653 123.811 420.927 125.33C421.706 129.421 423.062 133.501 424.779 137.518C425.342 138.835 427.246 140.28 429.382 141.077C433.739 142.713 433.696 144.902 433.609 147.208C433.537 149.365 430.983 150.332 427.333 151.097C411.953 154.359 433.566 150.561 418.344 154.312C422.355 154.216 411.996 156.828 415.993 156.658C423.51 156.329 408.519 160.532 415.993 160.054C419.715 159.82 421.331 160.521 422.283 162.37C423.235 164.219 424.563 166.015 426.381 167.683C427.939 169.117 427.867 170.106 425.89 171.296C416.959 176.64 416.858 178.882 423.207 185.034C425.558 187.308 427.174 190.017 427.477 192.589C428.271 199.134 428.098 205.711 428.386 212.278C428.473 214.275 427.607 215.763 423.033 215.89C419.455 215.986 417.883 217.325 417.075 218.844C414.434 223.827 414.925 228.662 420.393 233.167C422.355 234.782 424.289 236.408 426.28 238.012C428.79 240.02 428.949 242.124 426.28 244.026C418.532 249.551 418.517 255.672 419.08 262.174C419.888 271.546 418.994 280.949 418.864 290.353C418.763 298.077 418.647 305.802 418.719 313.527C418.734 315.025 417.551 316.459 415.502 317.522C412.256 319.211 409.5 321.145 406.239 323.153L406.254 323.175Z" fill="#D7C6A6"/>
<g clip-path="url(#clip0_877_4796)">
<path d="M228.856 0.245811C244.924 0.482936 260.991 0.690164 277.059 1.011C278.918 1.05029 280.74 1.70564 282.57 2.07991C280.777 2.44093 279.018 3.04695 277.18 3.12714C207.966 6.18362 141.928 15.8686 79.8391 33.8288C67.9503 37.2678 57.4958 41.8003 47.4985 46.7434C46.2041 47.3831 43.5583 48.1009 42.6053 47.7764C41.1545 47.2808 40.046 45.9525 39.8269 44.913C38.6318 39.0767 34.486 34.1508 26.7985 30.1978C23.3312 28.414 23.7286 26.4868 28.0399 25.313C42.5232 21.3658 57.9266 18.987 73.5129 17.0558C91.0093 14.8887 108.764 13.3541 126.153 10.9543C138.815 9.20992 151.132 6.6121 163.483 4.19352C178.871 1.18098 194.798 0.982254 210.767 0.807252C216.787 0.737744 222.808 0.745965 228.818 0.71836C228.817 0.562901 228.837 0.407346 228.835 0.245908L228.856 0.245811Z" fill="#D7C6A6"/>
</g>
<path d="M54.3377 99.0905C54.3377 97.8372 53.8843 96.6905 52.9777 95.6505C52.071 94.6105 50.9243 93.5839 49.5377 92.5705C46.9777 90.7572 44.0577 89.1305 40.7777 87.6905C40.4043 89.9572 39.871 93.3572 39.1777 97.8905C38.991 99.0905 38.671 101.091 38.2177 103.891C37.791 106.691 37.3777 109.184 36.9777 111.371C39.3777 110.411 41.4577 109.531 43.2177 108.731C44.9777 107.904 46.6577 107.011 48.2577 106.051C50.0177 105.037 51.471 103.984 52.6177 102.891C53.7643 101.797 54.3377 100.531 54.3377 99.0905ZM54.3377 91.3705C57.111 93.5572 58.4977 95.8372 58.4977 98.2105C58.4977 98.5572 58.4577 98.9305 58.3777 99.3305C58.0577 100.957 57.2443 102.411 55.9377 103.691C54.631 104.971 52.991 106.237 51.0177 107.491C45.8177 110.771 39.431 113.611 31.8577 116.011C31.511 116.117 31.1643 116.171 30.8177 116.171C30.4177 116.171 30.111 116.091 29.8977 115.931C29.6577 115.744 29.5377 115.517 29.5377 115.251C29.5377 114.984 29.671 114.717 29.9377 114.451C30.1777 114.157 30.5377 113.917 31.0177 113.731L32.7377 113.051C32.551 112.864 32.4977 112.651 32.5777 112.411L34.4977 100.771C35.2443 95.9172 36.0443 91.0772 36.8977 86.2505L36.9377 86.0505C36.351 85.7839 35.4443 85.4105 34.2177 84.9305C33.8443 84.7705 33.6577 84.5572 33.6577 84.2905C33.6577 83.8905 34.0177 83.4772 34.7377 83.0505C35.4843 82.5972 36.1777 82.3705 36.8177 82.3705C37.0843 82.3705 37.271 82.3972 37.3777 82.4505C41.2977 84.0505 44.551 85.4905 47.1377 86.7705C49.751 88.0505 52.151 89.5839 54.3377 91.3705ZM68.7067 93.8105C67.3467 94.8505 66.2401 96.5305 65.3867 98.8505C68.0001 97.8639 70.3601 97.0372 72.4667 96.3705C71.5867 95.1439 70.6934 94.3172 69.7867 93.8905C69.6001 93.8105 69.4134 93.7572 69.2267 93.7305C69.0667 93.7039 68.9734 93.6905 68.9467 93.6905C68.9734 93.7172 68.9467 93.7439 68.8667 93.7705C68.8134 93.7972 68.7601 93.8105 68.7067 93.8105ZM68.8667 90.9705C69.2934 90.8639 69.7467 90.8105 70.2267 90.8105C72.7867 90.8105 75.1067 92.5305 77.1867 95.9705C77.2667 96.0772 77.3067 96.2105 77.3067 96.3705C77.3067 96.6639 77.1201 96.9705 76.7467 97.2905C76.4534 97.6105 76.0801 97.8639 75.6267 98.0505C72.9601 99.2239 69.2534 100.624 64.5067 102.251C64.2401 103.611 64.1067 105.011 64.1067 106.451C64.1067 107.117 64.1201 107.597 64.1467 107.891C64.2001 109.091 64.4401 110.131 64.8667 111.011C65.0001 111.304 65.1867 111.584 65.4267 111.851C65.6934 112.117 65.8934 112.291 66.0267 112.371C66.1067 112.424 66.2401 112.451 66.4267 112.451C66.6134 112.451 66.8267 112.397 67.0667 112.291C67.3334 112.184 67.6267 112.037 67.9467 111.851C68.7201 111.397 69.4401 110.877 70.1067 110.291C70.7734 109.704 71.5734 108.944 72.5067 108.011C72.8801 107.637 73.5067 107.451 74.3867 107.451C74.8667 107.451 75.2667 107.531 75.5867 107.691C75.9334 107.824 76.1067 108.024 76.1067 108.291C76.1067 108.531 75.9734 108.797 75.7067 109.091C74.0534 110.877 72.3601 112.397 70.6267 113.651C68.8934 114.904 67.1601 115.531 65.4267 115.531C64.6001 115.531 63.8267 115.357 63.1067 115.011C61.9067 114.451 61.0401 113.557 60.5067 112.331C59.9734 111.104 59.7067 109.664 59.7067 108.011C59.7067 106.784 59.8667 105.344 60.1867 103.691L59.8667 103.771L59.5467 103.891C59.1467 104.024 58.8267 104.091 58.5867 104.091C58.2134 104.091 57.9201 103.997 57.7067 103.811C57.4934 103.624 57.3867 103.384 57.3867 103.091C57.3867 102.744 57.5201 102.411 57.7867 102.091C58.0801 101.744 58.5067 101.464 59.0667 101.251L61.0267 100.491C61.2667 99.7439 61.6267 98.7705 62.1067 97.5705C62.8534 95.9172 63.7867 94.4905 64.9067 93.2905C66.0267 92.0905 67.3467 91.3172 68.8667 90.9705ZM91.7052 106.451C91.8918 106.264 92.1852 106.117 92.5852 106.011C92.9852 105.904 93.3852 105.851 93.7852 105.851C94.7718 105.851 95.2652 106.104 95.2652 106.611C95.2652 106.851 95.1318 107.117 94.8652 107.411C94.5452 107.784 94.2518 108.144 93.9852 108.491C93.7185 108.811 93.4785 109.104 93.2652 109.371C92.0918 110.891 91.0385 112.104 90.1052 113.011C89.1718 113.891 88.0785 114.531 86.8252 114.931C86.2385 115.117 85.6118 115.211 84.9452 115.211C83.8252 115.211 82.8652 114.891 82.0652 114.251C81.2918 113.611 80.8385 112.677 80.7052 111.451C80.6518 111.104 80.6252 110.571 80.6252 109.851C80.6252 108.464 80.7852 107.051 81.1052 105.611C81.4252 104.171 81.8918 102.371 82.5052 100.211L82.9852 98.4905L81.4652 98.6505C80.7185 98.7039 79.7052 98.8105 78.4252 98.9705C77.8118 99.0505 77.3452 98.9839 77.0252 98.7705C76.7052 98.5572 76.5452 98.2772 76.5452 97.9305C76.5452 97.5305 76.7318 97.1439 77.1052 96.7705C77.5052 96.3705 78.0118 96.1439 78.6252 96.0905L83.7852 95.4905C84.9585 91.1705 86.2785 86.9305 87.7452 82.7705C87.8785 82.3972 88.2385 82.0772 88.8252 81.8105C89.4385 81.5172 90.0252 81.3705 90.5852 81.3705C90.9318 81.3705 91.2118 81.4372 91.4252 81.5705C91.6652 81.7039 91.7852 81.9039 91.7852 82.1705C91.7852 82.2505 91.7585 82.3972 91.7052 82.6105C90.1585 86.9572 88.8652 91.1039 87.8252 95.0505C89.6918 94.8639 90.9318 94.7705 91.5452 94.7705C92.3185 94.7705 92.7052 94.9972 92.7052 95.4505C92.7052 95.8239 92.4785 96.2372 92.0252 96.6905C91.5718 97.1172 91.1052 97.3839 90.6252 97.4905C89.0252 97.7572 87.8252 97.9439 87.0252 98.0505C86.5718 99.8639 86.1718 101.637 85.8252 103.371C85.7718 103.584 85.5852 104.371 85.2652 105.731C84.9452 107.064 84.7852 108.317 84.7852 109.491C84.7852 111.011 85.1852 111.837 85.9852 111.971C86.4918 112.051 87.0652 111.771 87.7052 111.131C88.3718 110.464 89.2252 109.477 90.2652 108.171C90.9052 107.344 91.3852 106.771 91.7052 106.451ZM119.645 105.131C119.752 104.677 119.805 104.144 119.805 103.531C119.805 101.397 119.005 99.3172 117.405 97.2905C116.499 96.1172 115.539 95.1705 114.525 94.4505C113.725 99.4372 113.099 103.464 112.645 106.531C112.432 107.784 112.139 109.664 111.765 112.171C112.565 112.544 113.299 112.731 113.965 112.731C115.085 112.731 116.099 112.184 117.005 111.091C117.672 110.291 118.232 109.371 118.685 108.331C119.139 107.291 119.459 106.224 119.645 105.131ZM114.965 90.5705C116.619 91.1305 118.112 92.0772 119.445 93.4105C120.779 94.7172 121.819 96.2505 122.565 98.0105C123.339 99.7439 123.725 101.477 123.725 103.211C123.725 104.144 123.605 105.051 123.365 105.931C122.859 107.771 122.085 109.424 121.045 110.891C120.032 112.331 118.805 113.477 117.365 114.331C115.952 115.157 114.432 115.571 112.805 115.571C112.299 115.571 111.779 115.531 111.245 115.451C110.179 122.277 109.219 127.851 108.365 132.171C108.259 132.677 107.885 133.104 107.245 133.451C106.605 133.797 105.952 133.971 105.285 133.971C104.832 133.971 104.485 133.877 104.245 133.691C103.979 133.504 103.885 133.224 103.965 132.851C105.272 126.237 106.419 119.931 107.405 113.931L107.325 113.891C106.979 113.651 106.805 113.384 106.805 113.091C106.805 112.637 107.125 112.211 107.765 111.811C108.619 106.877 109.579 100.544 110.645 92.8105L110.125 92.8505L109.685 92.8905C109.232 92.8905 108.899 92.8105 108.685 92.6505C108.472 92.4905 108.365 92.2905 108.365 92.0505C108.365 91.6505 108.565 91.2639 108.965 90.8905C109.365 90.5172 109.859 90.2772 110.445 90.1705C110.925 90.0905 111.405 90.0505 111.885 90.0505C112.232 90.0505 112.699 90.0772 113.285 90.1305C114.139 90.0239 114.699 90.1705 114.965 90.5705ZM127.718 83.2905C127.771 82.7839 128.118 82.3572 128.758 82.0105C129.424 81.6372 130.078 81.4505 130.718 81.4505C131.118 81.4505 131.424 81.5305 131.638 81.6905C131.851 81.8505 131.944 82.1039 131.918 82.4505C131.144 89.4105 130.344 96.3705 129.518 103.331L128.318 113.771C128.264 114.277 127.904 114.717 127.238 115.091C126.571 115.464 125.904 115.651 125.238 115.651C124.331 115.651 123.918 115.304 123.998 114.611L125.878 98.9305C126.731 91.5705 127.344 86.3572 127.718 83.2905ZM135.964 109.371C135.91 109.691 135.884 109.917 135.884 110.051C135.884 111.117 136.404 111.651 137.444 111.651C138.057 111.651 138.804 111.477 139.684 111.131C140.484 110.811 141.964 110.131 144.124 109.091C144.177 108.424 144.23 107.784 144.284 107.171C144.364 106.531 144.43 105.957 144.484 105.451L144.764 102.691C142.924 103.571 141.55 104.264 140.644 104.771C139.31 105.544 138.244 106.277 137.444 106.971C136.644 107.637 136.15 108.437 135.964 109.371ZM146.364 90.5305C147.564 90.5305 148.364 90.8372 148.764 91.4505C149.19 92.0372 149.404 92.9039 149.404 94.0505L149.364 95.1705C149.257 97.1172 149.017 99.9705 148.644 103.731C148.564 104.264 148.47 105.157 148.364 106.411C148.257 107.184 148.164 107.811 148.084 108.291C148.377 108.451 148.524 108.664 148.524 108.931C148.524 109.117 148.43 109.397 148.244 109.771L148.084 109.971L147.844 110.211C147.657 111.571 147.564 112.731 147.564 113.691C147.937 113.904 148.124 114.157 148.124 114.451C148.124 114.904 147.79 115.384 147.124 115.891C146.937 116.024 146.724 116.157 146.484 116.291C146.297 116.397 146.03 116.491 145.684 116.571C145.364 116.651 145.044 116.691 144.724 116.691C143.737 116.691 143.284 116.331 143.364 115.611L143.684 112.251C140.11 113.957 137.364 114.811 135.444 114.811C133.017 114.811 131.804 113.504 131.804 110.891C131.804 108.384 133.097 106.251 135.684 104.491C138.297 102.731 141.417 101.144 145.044 99.7305C145.15 98.6905 145.23 97.6372 145.284 96.5705C145.284 96.3572 145.297 96.0905 145.324 95.7705C145.35 95.4505 145.364 95.0905 145.364 94.6905C145.364 94.1839 145.324 93.8505 145.244 93.6905L145.124 93.5305H145.084C144.684 93.5305 143.937 94.0772 142.844 95.1705C141.857 96.1305 140.63 97.5705 139.164 99.4905C138.95 99.7839 138.59 100.024 138.084 100.211C137.604 100.397 137.11 100.491 136.604 100.491C136.23 100.491 135.91 100.424 135.644 100.291C135.404 100.157 135.284 99.9572 135.284 99.6905C135.284 99.4772 135.39 99.1972 135.604 98.8505C139.284 93.3039 142.87 90.5305 146.364 90.5305ZM157.352 96.4105C157.352 97.4239 157.605 98.3172 158.112 99.0905C158.645 99.8639 159.285 100.517 160.032 101.051C160.778 101.584 161.792 102.211 163.072 102.931C164.805 103.917 166.125 104.811 167.032 105.611C167.965 106.411 168.578 107.411 168.872 108.611C168.978 109.144 169.032 109.531 169.032 109.771C169.032 111.637 168.045 112.984 166.072 113.811C164.098 114.611 161.858 115.011 159.352 115.011C158.365 115.011 157.498 114.944 156.752 114.811C155.872 114.651 154.952 114.344 153.992 113.891C153.058 113.411 152.272 112.837 151.632 112.171C151.018 111.477 150.712 110.771 150.712 110.051C150.712 108.931 151.578 107.904 153.312 106.971C153.792 106.731 154.258 106.611 154.712 106.611C155.138 106.611 155.485 106.704 155.752 106.891C156.045 107.077 156.192 107.304 156.192 107.571C156.192 108.051 155.805 108.517 155.032 108.971C154.872 109.051 154.792 109.171 154.792 109.331C154.792 109.651 155.045 110.037 155.552 110.491C156.058 110.944 156.458 111.251 156.752 111.411C157.552 111.864 158.832 112.144 160.592 112.251C160.805 112.277 161.178 112.291 161.712 112.291C162.672 112.291 163.445 112.131 164.032 111.811C164.618 111.491 164.872 110.904 164.792 110.051C164.685 108.904 163.525 107.611 161.312 106.171L159.792 105.211C158.405 104.357 157.258 103.611 156.352 102.971C155.472 102.304 154.712 101.517 154.072 100.611C153.432 99.6772 153.112 98.6372 153.112 97.4905C153.112 96.7705 153.245 96.0505 153.512 95.3305C154.098 93.5972 155.192 92.2639 156.792 91.3305C158.392 90.3705 160.112 89.8905 161.952 89.8905C163.845 89.8905 165.432 90.3705 166.712 91.3305C168.018 92.2905 168.672 93.6505 168.672 95.4105C168.672 95.9705 168.592 96.5705 168.432 97.2105C168.325 97.6905 167.925 98.1039 167.232 98.4505C166.538 98.7972 165.885 98.9705 165.272 98.9705C164.898 98.9705 164.605 98.8905 164.392 98.7305C164.205 98.5705 164.165 98.3439 164.272 98.0505C164.432 97.4905 164.512 96.9305 164.512 96.3705C164.512 95.4905 164.285 94.7439 163.832 94.1305C163.378 93.5172 162.712 93.0905 161.832 92.8505C161.352 92.7439 160.992 92.6905 160.752 92.6905C159.792 92.6905 158.978 93.0372 158.312 93.7305C157.672 94.3972 157.352 95.2905 157.352 96.4105ZM185.377 106.451C185.564 106.264 185.857 106.117 186.257 106.011C186.657 105.904 187.057 105.851 187.457 105.851C188.444 105.851 188.937 106.104 188.937 106.611C188.937 106.851 188.804 107.117 188.537 107.411C188.217 107.784 187.924 108.144 187.657 108.491C187.39 108.811 187.15 109.104 186.937 109.371C185.764 110.891 184.71 112.104 183.777 113.011C182.844 113.891 181.75 114.531 180.497 114.931C179.91 115.117 179.284 115.211 178.617 115.211C177.497 115.211 176.537 114.891 175.737 114.251C174.964 113.611 174.51 112.677 174.377 111.451C174.324 111.104 174.297 110.571 174.297 109.851C174.297 108.464 174.457 107.051 174.777 105.611C175.097 104.171 175.564 102.371 176.177 100.211L176.657 98.4905L175.137 98.6505C174.39 98.7039 173.377 98.8105 172.097 98.9705C171.484 99.0505 171.017 98.9839 170.697 98.7705C170.377 98.5572 170.217 98.2772 170.217 97.9305C170.217 97.5305 170.404 97.1439 170.777 96.7705C171.177 96.3705 171.684 96.1439 172.297 96.0905L177.457 95.4905C178.63 91.1705 179.95 86.9305 181.417 82.7705C181.55 82.3972 181.91 82.0772 182.497 81.8105C183.11 81.5172 183.697 81.3705 184.257 81.3705C184.604 81.3705 184.884 81.4372 185.097 81.5705C185.337 81.7039 185.457 81.9039 185.457 82.1705C185.457 82.2505 185.43 82.3972 185.377 82.6105C183.83 86.9572 182.537 91.1039 181.497 95.0505C183.364 94.8639 184.604 94.7705 185.217 94.7705C185.99 94.7705 186.377 94.9972 186.377 95.4505C186.377 95.8239 186.15 96.2372 185.697 96.6905C185.244 97.1172 184.777 97.3839 184.297 97.4905C182.697 97.7572 181.497 97.9439 180.697 98.0505C180.244 99.8639 179.844 101.637 179.497 103.371C179.444 103.584 179.257 104.371 178.937 105.731C178.617 107.064 178.457 108.317 178.457 109.491C178.457 111.011 178.857 111.837 179.657 111.971C180.164 112.051 180.737 111.771 181.377 111.131C182.044 110.464 182.897 109.477 183.937 108.171C184.577 107.344 185.057 106.771 185.377 106.451ZM200.503 79.9305C201.969 79.9305 202.969 80.5572 203.503 81.8105C204.063 83.0639 204.343 84.7039 204.343 86.7305C204.343 86.9705 204.303 88.1305 204.223 90.2105C204.169 90.9039 204.143 91.3705 204.143 91.6105C204.116 92.1439 203.783 92.5972 203.143 92.9705C202.529 93.3439 201.889 93.5305 201.223 93.5305C200.289 93.5305 199.823 93.1572 199.823 92.4105C199.823 91.9839 199.849 91.2905 199.903 90.3305C199.983 89.3972 200.023 88.4772 200.023 87.5705C200.023 86.6105 199.969 85.7572 199.863 85.0105C199.809 84.7972 199.743 84.5572 199.663 84.2905C199.583 84.0239 199.529 83.8239 199.503 83.6905L199.463 83.5305L199.143 84.6105C198.556 86.6372 198.103 88.2772 197.783 89.5305C197.463 90.7839 197.209 92.1172 197.023 93.5305C196.863 94.5705 196.743 95.4639 196.663 96.2105C196.609 96.9305 196.556 97.8105 196.503 98.8505C198.449 98.6372 200.209 98.4905 201.783 98.4105C202.636 98.3839 203.063 98.6105 203.063 99.0905C203.063 99.4639 202.836 99.8772 202.383 100.331C201.956 100.757 201.503 101.011 201.023 101.091C199.423 101.384 197.849 101.624 196.303 101.811L196.103 106.371C195.889 110.824 195.783 113.317 195.783 113.851C195.756 114.384 195.396 114.851 194.703 115.251C194.036 115.651 193.356 115.851 192.663 115.851C192.263 115.851 191.929 115.771 191.663 115.611C191.396 115.424 191.263 115.157 191.263 114.811C191.263 112.544 191.396 109.224 191.663 104.851L191.783 102.291L187.223 102.731C186.769 102.784 186.436 102.744 186.223 102.611C185.983 102.477 185.863 102.277 185.863 102.011C185.863 101.611 186.089 101.184 186.543 100.731C186.969 100.277 187.436 100.024 187.943 99.9705L191.943 99.4505C192.103 97.1305 192.289 95.2505 192.503 93.8105C192.743 92.3439 193.129 90.4772 193.663 88.2105C194.063 86.6639 194.503 85.3172 194.983 84.1705C195.463 82.9972 196.156 81.9972 197.063 81.1705C197.969 80.3439 199.116 79.9305 200.503 79.9305ZM214.617 90.4105C215.391 90.0905 216.097 89.9305 216.737 89.9305C217.431 89.9305 217.991 90.1172 218.417 90.4905C218.844 90.8372 219.057 91.4105 219.057 92.2105C219.057 92.9839 218.937 93.8239 218.697 94.7305C218.457 95.6372 218.124 96.7039 217.697 97.9305L217.137 99.6105C216.977 100.117 216.564 100.544 215.897 100.891C215.231 101.237 214.591 101.411 213.977 101.411C213.577 101.411 213.271 101.331 213.057 101.171C212.871 100.984 212.831 100.717 212.937 100.371C213.417 98.8772 213.897 97.2239 214.377 95.4105C214.484 94.5839 214.564 94.0372 214.617 93.7705L214.457 93.9305C212.404 95.6905 210.524 97.9039 208.817 100.571C208.044 104.811 207.564 109.064 207.377 113.331C207.351 113.837 207.004 114.291 206.337 114.691C205.697 115.064 205.031 115.251 204.337 115.251C203.937 115.251 203.604 115.157 203.337 114.971C203.071 114.784 202.951 114.504 202.977 114.131C203.191 110.291 203.604 106.557 204.217 102.931C203.951 102.744 203.817 102.531 203.817 102.291C203.817 102.131 203.871 101.957 203.977 101.771L204.577 100.771C205.164 97.7039 205.884 94.6239 206.737 91.5305C206.871 91.0505 207.284 90.6372 207.977 90.2905C208.697 89.9172 209.377 89.7305 210.017 89.7305C210.417 89.7305 210.724 89.8105 210.937 89.9705C211.151 90.1305 211.204 90.3705 211.097 90.6905C210.671 92.1839 210.404 93.1705 210.297 93.6505C211.897 92.0505 213.337 90.9705 214.617 90.4105ZM226.633 84.2105C226.34 84.1305 226.046 84.0905 225.753 84.0905C225.166 84.0905 224.646 84.2372 224.193 84.5305C223.606 84.8505 223.273 85.1705 223.193 85.4905C222.846 86.7439 222.62 87.5705 222.513 87.9705V88.0905C222.513 88.2239 222.566 88.3572 222.673 88.4905C222.78 88.5972 222.9 88.6772 223.033 88.7305C223.246 88.8372 223.486 88.8905 223.753 88.8905C224.18 88.8905 224.686 88.7705 225.273 88.5305C225.886 88.2639 226.286 87.9039 226.473 87.4505C226.633 86.9972 226.86 86.1972 227.153 85.0505V84.9705C227.153 84.8372 227.1 84.7039 226.993 84.5705C226.886 84.4105 226.766 84.2905 226.633 84.2105ZM225.073 100.251C224.913 101.317 224.606 103.251 224.153 106.051C223.726 108.824 223.366 111.344 223.073 113.611C222.993 114.117 222.633 114.557 221.993 114.931C221.38 115.277 220.753 115.451 220.113 115.451C219.686 115.451 219.353 115.371 219.113 115.211C218.9 115.024 218.82 114.757 218.873 114.411C219.326 111.744 219.806 108.704 220.313 105.291C220.846 101.851 221.22 99.3972 221.433 97.9305L222.273 92.4505C222.353 91.9705 222.713 91.5572 223.353 91.2105C224.02 90.8639 224.66 90.6905 225.273 90.6905C225.646 90.6905 225.94 90.7705 226.153 90.9305C226.366 91.0905 226.446 91.3172 226.393 91.6105L225.073 100.251ZM238.785 93.8105C237.425 94.8505 236.318 96.5305 235.465 98.8505C238.078 97.8639 240.438 97.0372 242.545 96.3705C241.665 95.1439 240.772 94.3172 239.865 93.8905C239.678 93.8105 239.492 93.7572 239.305 93.7305C239.145 93.7039 239.052 93.6905 239.025 93.6905C239.052 93.7172 239.025 93.7439 238.945 93.7705C238.892 93.7972 238.838 93.8105 238.785 93.8105ZM238.945 90.9705C239.372 90.8639 239.825 90.8105 240.305 90.8105C242.865 90.8105 245.185 92.5305 247.265 95.9705C247.345 96.0772 247.385 96.2105 247.385 96.3705C247.385 96.6639 247.198 96.9705 246.825 97.2905C246.532 97.6105 246.158 97.8639 245.705 98.0505C243.038 99.2239 239.332 100.624 234.585 102.251C234.318 103.611 234.185 105.011 234.185 106.451C234.185 107.117 234.198 107.597 234.225 107.891C234.278 109.091 234.518 110.131 234.945 111.011C235.078 111.304 235.265 111.584 235.505 111.851C235.772 112.117 235.972 112.291 236.105 112.371C236.185 112.424 236.318 112.451 236.505 112.451C236.692 112.451 236.905 112.397 237.145 112.291C237.412 112.184 237.705 112.037 238.025 111.851C238.798 111.397 239.518 110.877 240.185 110.291C240.852 109.704 241.652 108.944 242.585 108.011C242.958 107.637 243.585 107.451 244.465 107.451C244.945 107.451 245.345 107.531 245.665 107.691C246.012 107.824 246.185 108.024 246.185 108.291C246.185 108.531 246.052 108.797 245.785 109.091C244.132 110.877 242.438 112.397 240.705 113.651C238.972 114.904 237.238 115.531 235.505 115.531C234.678 115.531 233.905 115.357 233.185 115.011C231.985 114.451 231.118 113.557 230.585 112.331C230.052 111.104 229.785 109.664 229.785 108.011C229.785 106.784 229.945 105.344 230.265 103.691L229.945 103.771L229.625 103.891C229.225 104.024 228.905 104.091 228.665 104.091C228.292 104.091 227.998 103.997 227.785 103.811C227.572 103.624 227.465 103.384 227.465 103.091C227.465 102.744 227.598 102.411 227.865 102.091C228.158 101.744 228.585 101.464 229.145 101.251L231.105 100.491C231.345 99.7439 231.705 98.7705 232.185 97.5705C232.932 95.9172 233.865 94.4905 234.985 93.2905C236.105 92.0905 237.425 91.3172 238.945 90.9705ZM265.729 111.131C266.822 109.664 267.769 108.117 268.569 106.491C269.262 105.157 269.996 103.504 270.769 101.531C271.542 99.5572 271.929 97.9305 271.929 96.6505C271.929 96.2239 271.876 95.8905 271.769 95.6505C270.969 95.7039 270.489 95.4639 270.329 94.9305C270.142 94.2639 269.942 93.9305 269.729 93.9305C269.569 93.9305 269.409 94.0372 269.249 94.2505C269.089 94.4372 268.862 94.7839 268.569 95.2905C268.196 95.8505 267.796 96.6239 267.369 97.6105C266.489 99.4772 265.769 101.304 265.209 103.091C264.569 104.931 264.062 106.597 263.689 108.091C263.316 109.584 263.129 111.011 263.129 112.371C263.129 112.957 263.169 113.531 263.249 114.091L264.089 113.211C264.596 112.624 265.142 111.931 265.729 111.131ZM274.169 92.2505C274.969 92.5705 275.542 93.0239 275.889 93.6105C276.236 94.1972 276.409 94.9439 276.409 95.8505C276.409 96.7039 276.196 98.1705 275.769 100.251C274.596 105.744 273.636 110.757 272.889 115.291C272.169 119.824 271.649 124.304 271.329 128.731C271.302 129.104 271.249 129.424 271.169 129.691C271.116 129.984 270.996 130.331 270.809 130.731C270.516 131.317 270.049 131.837 269.409 132.291C268.796 132.771 268.209 133.011 267.649 133.011C267.142 133.011 266.756 132.784 266.489 132.331L265.329 130.331C263.649 127.397 262.222 124.997 261.049 123.131C260.969 123.024 260.929 122.891 260.929 122.731C260.929 122.277 261.262 121.851 261.929 121.451C262.596 121.051 263.276 120.851 263.969 120.851C264.662 120.851 265.142 121.077 265.409 121.531C265.782 122.224 266.209 122.971 266.689 123.771L267.489 125.171C268.076 120.451 268.729 115.997 269.449 111.811C268.222 113.517 266.929 114.984 265.569 116.211C264.236 117.437 262.996 118.051 261.849 118.051C260.969 118.051 260.209 117.651 259.569 116.851C259.036 116.184 258.769 115.224 258.769 113.971C258.769 113.277 258.822 112.597 258.929 111.931C259.062 111.264 259.262 110.357 259.529 109.211L259.769 108.251C260.569 104.624 261.756 101.091 263.329 97.6505C264.076 96.0772 264.822 94.7705 265.569 93.7305C266.342 92.6905 267.316 91.9039 268.489 91.3705C269.209 91.0239 270.009 90.8505 270.889 90.8505C272.196 90.8505 273.196 91.2905 273.889 92.1705L274.169 92.2505ZM280.417 109.371C280.363 109.691 280.337 109.917 280.337 110.051C280.337 111.117 280.857 111.651 281.897 111.651C282.51 111.651 283.257 111.477 284.137 111.131C284.937 110.811 286.417 110.131 288.577 109.091C288.63 108.424 288.683 107.784 288.737 107.171C288.817 106.531 288.883 105.957 288.937 105.451L289.217 102.691C287.377 103.571 286.003 104.264 285.097 104.771C283.763 105.544 282.697 106.277 281.897 106.971C281.097 107.637 280.603 108.437 280.417 109.371ZM290.817 90.5305C292.017 90.5305 292.817 90.8372 293.217 91.4505C293.643 92.0372 293.857 92.9039 293.857 94.0505L293.817 95.1705C293.71 97.1172 293.47 99.9705 293.097 103.731C293.017 104.264 292.923 105.157 292.817 106.411C292.71 107.184 292.617 107.811 292.537 108.291C292.83 108.451 292.977 108.664 292.977 108.931C292.977 109.117 292.883 109.397 292.697 109.771L292.537 109.971L292.297 110.211C292.11 111.571 292.017 112.731 292.017 113.691C292.39 113.904 292.577 114.157 292.577 114.451C292.577 114.904 292.243 115.384 291.577 115.891C291.39 116.024 291.177 116.157 290.937 116.291C290.75 116.397 290.483 116.491 290.137 116.571C289.817 116.651 289.497 116.691 289.177 116.691C288.19 116.691 287.737 116.331 287.817 115.611L288.137 112.251C284.563 113.957 281.817 114.811 279.897 114.811C277.47 114.811 276.257 113.504 276.257 110.891C276.257 108.384 277.55 106.251 280.137 104.491C282.75 102.731 285.87 101.144 289.497 99.7305C289.603 98.6905 289.683 97.6372 289.737 96.5705C289.737 96.3572 289.75 96.0905 289.777 95.7705C289.803 95.4505 289.817 95.0905 289.817 94.6905C289.817 94.1839 289.777 93.8505 289.697 93.6905L289.577 93.5305H289.537C289.137 93.5305 288.39 94.0772 287.297 95.1705C286.31 96.1305 285.083 97.5705 283.617 99.4905C283.403 99.7839 283.043 100.024 282.537 100.211C282.057 100.397 281.563 100.491 281.057 100.491C280.683 100.491 280.363 100.424 280.097 100.291C279.857 100.157 279.737 99.9572 279.737 99.6905C279.737 99.4772 279.843 99.1972 280.057 98.8505C283.737 93.3039 287.323 90.5305 290.817 90.5305ZM308.994 91.0105C309.181 90.7439 309.554 90.5172 310.114 90.3305C310.701 90.1172 311.247 90.0105 311.754 90.0105C312.127 90.0105 312.421 90.0639 312.634 90.1705C312.874 90.2772 312.994 90.4505 312.994 90.6905C312.994 90.8772 312.927 91.0772 312.794 91.2905C310.607 94.9439 308.767 98.5705 307.274 102.171C305.807 105.744 304.674 109.451 303.874 113.291C303.767 113.797 303.381 114.264 302.714 114.691C302.074 115.091 301.434 115.291 300.794 115.291C300.074 115.291 299.621 115.011 299.434 114.451C298.421 111.464 297.701 108.424 297.274 105.331C296.874 102.211 296.501 98.1839 296.154 93.2505L296.114 92.4105C296.087 91.8239 296.434 91.3039 297.154 90.8505C297.901 90.3972 298.634 90.1705 299.354 90.1705C300.047 90.1705 300.407 90.4105 300.434 90.8905C300.487 91.5305 300.514 92.0372 300.514 92.4105V92.5305C300.807 97.6239 301.234 101.757 301.794 104.931C303.634 99.6505 306.034 95.0105 308.994 91.0105ZM320.386 93.8105C319.026 94.8505 317.92 96.5305 317.066 98.8505C319.68 97.8639 322.04 97.0372 324.146 96.3705C323.266 95.1439 322.373 94.3172 321.466 93.8905C321.28 93.8105 321.093 93.7572 320.906 93.7305C320.746 93.7039 320.653 93.6905 320.626 93.6905C320.653 93.7172 320.626 93.7439 320.546 93.7705C320.493 93.7972 320.44 93.8105 320.386 93.8105ZM320.546 90.9705C320.973 90.8639 321.426 90.8105 321.906 90.8105C324.466 90.8105 326.786 92.5305 328.866 95.9705C328.946 96.0772 328.986 96.2105 328.986 96.3705C328.986 96.6639 328.8 96.9705 328.426 97.2905C328.133 97.6105 327.76 97.8639 327.306 98.0505C324.64 99.2239 320.933 100.624 316.186 102.251C315.92 103.611 315.786 105.011 315.786 106.451C315.786 107.117 315.8 107.597 315.826 107.891C315.88 109.091 316.12 110.131 316.546 111.011C316.68 111.304 316.866 111.584 317.106 111.851C317.373 112.117 317.573 112.291 317.706 112.371C317.786 112.424 317.92 112.451 318.106 112.451C318.293 112.451 318.506 112.397 318.746 112.291C319.013 112.184 319.306 112.037 319.626 111.851C320.4 111.397 321.12 110.877 321.786 110.291C322.453 109.704 323.253 108.944 324.186 108.011C324.56 107.637 325.186 107.451 326.066 107.451C326.546 107.451 326.946 107.531 327.266 107.691C327.613 107.824 327.786 108.024 327.786 108.291C327.786 108.531 327.653 108.797 327.386 109.091C325.733 110.877 324.04 112.397 322.306 113.651C320.573 114.904 318.84 115.531 317.106 115.531C316.28 115.531 315.506 115.357 314.786 115.011C313.586 114.451 312.72 113.557 312.186 112.331C311.653 111.104 311.386 109.664 311.386 108.011C311.386 106.784 311.546 105.344 311.866 103.691L311.546 103.771L311.226 103.891C310.826 104.024 310.506 104.091 310.266 104.091C309.893 104.091 309.6 103.997 309.386 103.811C309.173 103.624 309.066 103.384 309.066 103.091C309.066 102.744 309.2 102.411 309.466 102.091C309.76 101.744 310.186 101.464 310.746 101.251L312.706 100.491C312.946 99.7439 313.306 98.7705 313.786 97.5705C314.533 95.9172 315.466 94.4905 316.586 93.2905C317.706 92.0905 319.026 91.3172 320.546 90.9705ZM341.716 105.131C341.822 104.677 341.876 104.144 341.876 103.531C341.876 101.397 341.076 99.3172 339.476 97.2905C338.569 96.1172 337.609 95.1705 336.596 94.4505C335.796 99.4372 335.169 103.464 334.716 106.531C334.502 107.784 334.209 109.664 333.836 112.171C334.636 112.544 335.369 112.731 336.036 112.731C337.156 112.731 338.169 112.184 339.076 111.091C339.742 110.291 340.302 109.371 340.756 108.331C341.209 107.291 341.529 106.224 341.716 105.131ZM337.036 90.5705C338.689 91.1305 340.182 92.0772 341.516 93.4105C342.849 94.7172 343.889 96.2505 344.636 98.0105C345.409 99.7439 345.796 101.477 345.796 103.211C345.796 104.144 345.676 105.051 345.436 105.931C344.929 107.771 344.156 109.424 343.116 110.891C342.102 112.331 340.876 113.477 339.436 114.331C338.022 115.157 336.502 115.571 334.876 115.571C334.369 115.571 333.849 115.531 333.316 115.451C332.249 122.277 331.289 127.851 330.436 132.171C330.329 132.677 329.956 133.104 329.316 133.451C328.676 133.797 328.022 133.971 327.356 133.971C326.902 133.971 326.556 133.877 326.316 133.691C326.049 133.504 325.956 133.224 326.036 132.851C327.342 126.237 328.489 119.931 329.476 113.931L329.396 113.891C329.049 113.651 328.876 113.384 328.876 113.091C328.876 112.637 329.196 112.211 329.836 111.811C330.689 106.877 331.649 100.544 332.716 92.8105L332.196 92.8505L331.756 92.8905C331.302 92.8905 330.969 92.8105 330.756 92.6505C330.542 92.4905 330.436 92.2905 330.436 92.0505C330.436 91.6505 330.636 91.2639 331.036 90.8905C331.436 90.5172 331.929 90.2772 332.516 90.1705C332.996 90.0905 333.476 90.0505 333.956 90.0505C334.302 90.0505 334.769 90.0772 335.356 90.1305C336.209 90.0239 336.769 90.1705 337.036 90.5705ZM349.948 109.371C349.895 109.691 349.868 109.917 349.868 110.051C349.868 111.117 350.388 111.651 351.428 111.651C352.041 111.651 352.788 111.477 353.668 111.131C354.468 110.811 355.948 110.131 358.108 109.091C358.161 108.424 358.215 107.784 358.268 107.171C358.348 106.531 358.415 105.957 358.468 105.451L358.748 102.691C356.908 103.571 355.535 104.264 354.628 104.771C353.295 105.544 352.228 106.277 351.428 106.971C350.628 107.637 350.135 108.437 349.948 109.371ZM360.348 90.5305C361.548 90.5305 362.348 90.8372 362.748 91.4505C363.175 92.0372 363.388 92.9039 363.388 94.0505L363.348 95.1705C363.241 97.1172 363.001 99.9705 362.628 103.731C362.548 104.264 362.455 105.157 362.348 106.411C362.241 107.184 362.148 107.811 362.068 108.291C362.361 108.451 362.508 108.664 362.508 108.931C362.508 109.117 362.415 109.397 362.228 109.771L362.068 109.971L361.828 110.211C361.641 111.571 361.548 112.731 361.548 113.691C361.921 113.904 362.108 114.157 362.108 114.451C362.108 114.904 361.775 115.384 361.108 115.891C360.921 116.024 360.708 116.157 360.468 116.291C360.281 116.397 360.015 116.491 359.668 116.571C359.348 116.651 359.028 116.691 358.708 116.691C357.721 116.691 357.268 116.331 357.348 115.611L357.668 112.251C354.095 113.957 351.348 114.811 349.428 114.811C347.001 114.811 345.788 113.504 345.788 110.891C345.788 108.384 347.081 106.251 349.668 104.491C352.281 102.731 355.401 101.144 359.028 99.7305C359.135 98.6905 359.215 97.6372 359.268 96.5705C359.268 96.3572 359.281 96.0905 359.308 95.7705C359.335 95.4505 359.348 95.0905 359.348 94.6905C359.348 94.1839 359.308 93.8505 359.228 93.6905L359.108 93.5305H359.068C358.668 93.5305 357.921 94.0772 356.828 95.1705C355.841 96.1305 354.615 97.5705 353.148 99.4905C352.935 99.7839 352.575 100.024 352.068 100.211C351.588 100.397 351.095 100.491 350.588 100.491C350.215 100.491 349.895 100.424 349.628 100.291C349.388 100.157 349.268 99.9572 349.268 99.6905C349.268 99.4772 349.375 99.1972 349.588 98.8505C353.268 93.3039 356.855 90.5305 360.348 90.5305ZM377.536 105.131C377.643 104.677 377.696 104.144 377.696 103.531C377.696 101.397 376.896 99.3172 375.296 97.2905C374.389 96.1172 373.429 95.1705 372.416 94.4505C371.616 99.4372 370.989 103.464 370.536 106.531C370.323 107.784 370.029 109.664 369.656 112.171C370.456 112.544 371.189 112.731 371.856 112.731C372.976 112.731 373.989 112.184 374.896 111.091C375.563 110.291 376.123 109.371 376.576 108.331C377.029 107.291 377.349 106.224 377.536 105.131ZM372.856 90.5705C374.509 91.1305 376.003 92.0772 377.336 93.4105C378.669 94.7172 379.709 96.2505 380.456 98.0105C381.229 99.7439 381.616 101.477 381.616 103.211C381.616 104.144 381.496 105.051 381.256 105.931C380.749 107.771 379.976 109.424 378.936 110.891C377.923 112.331 376.696 113.477 375.256 114.331C373.843 115.157 372.323 115.571 370.696 115.571C370.189 115.571 369.669 115.531 369.136 115.451C368.069 122.277 367.109 127.851 366.256 132.171C366.149 132.677 365.776 133.104 365.136 133.451C364.496 133.797 363.843 133.971 363.176 133.971C362.723 133.971 362.376 133.877 362.136 133.691C361.869 133.504 361.776 133.224 361.856 132.851C363.163 126.237 364.309 119.931 365.296 113.931L365.216 113.891C364.869 113.651 364.696 113.384 364.696 113.091C364.696 112.637 365.016 112.211 365.656 111.811C366.509 106.877 367.469 100.544 368.536 92.8105L368.016 92.8505L367.576 92.8905C367.123 92.8905 366.789 92.8105 366.576 92.6505C366.363 92.4905 366.256 92.2905 366.256 92.0505C366.256 91.6505 366.456 91.2639 366.856 90.8905C367.256 90.5172 367.749 90.2772 368.336 90.1705C368.816 90.0905 369.296 90.0505 369.776 90.0505C370.123 90.0505 370.589 90.0772 371.176 90.1305C372.029 90.0239 372.589 90.1705 372.856 90.5705ZM389.328 84.2105C389.035 84.1305 388.742 84.0905 388.448 84.0905C387.862 84.0905 387.342 84.2372 386.888 84.5305C386.302 84.8505 385.968 85.1705 385.888 85.4905C385.542 86.7439 385.315 87.5705 385.208 87.9705V88.0905C385.208 88.2239 385.262 88.3572 385.368 88.4905C385.475 88.5972 385.595 88.6772 385.728 88.7305C385.942 88.8372 386.182 88.8905 386.448 88.8905C386.875 88.8905 387.382 88.7705 387.968 88.5305C388.582 88.2639 388.982 87.9039 389.168 87.4505C389.328 86.9972 389.555 86.1972 389.848 85.0505V84.9705C389.848 84.8372 389.795 84.7039 389.688 84.5705C389.582 84.4105 389.462 84.2905 389.328 84.2105ZM387.768 100.251C387.608 101.317 387.302 103.251 386.848 106.051C386.422 108.824 386.062 111.344 385.768 113.611C385.688 114.117 385.328 114.557 384.688 114.931C384.075 115.277 383.448 115.451 382.808 115.451C382.382 115.451 382.048 115.371 381.808 115.211C381.595 115.024 381.515 114.757 381.568 114.411C382.022 111.744 382.502 108.704 383.008 105.291C383.542 101.851 383.915 99.3972 384.128 97.9305L384.968 92.4505C385.048 91.9705 385.408 91.5572 386.048 91.2105C386.715 90.8639 387.355 90.6905 387.968 90.6905C388.342 90.6905 388.635 90.7705 388.848 90.9305C389.062 91.0905 389.142 91.3172 389.088 91.6105L387.768 100.251ZM400.789 90.4105C401.563 90.0905 402.269 89.9305 402.909 89.9305C403.603 89.9305 404.163 90.1172 404.589 90.4905C405.016 90.8372 405.229 91.4105 405.229 92.2105C405.229 92.9839 405.109 93.8239 404.869 94.7305C404.629 95.6372 404.296 96.7039 403.869 97.9305L403.309 99.6105C403.149 100.117 402.736 100.544 402.069 100.891C401.403 101.237 400.763 101.411 400.149 101.411C399.749 101.411 399.443 101.331 399.229 101.171C399.043 100.984 399.003 100.717 399.109 100.371C399.589 98.8772 400.069 97.2239 400.549 95.4105C400.656 94.5839 400.736 94.0372 400.789 93.7705L400.629 93.9305C398.576 95.6905 396.696 97.9039 394.989 100.571C394.216 104.811 393.736 109.064 393.549 113.331C393.523 113.837 393.176 114.291 392.509 114.691C391.869 115.064 391.203 115.251 390.509 115.251C390.109 115.251 389.776 115.157 389.509 114.971C389.243 114.784 389.123 114.504 389.149 114.131C389.363 110.291 389.776 106.557 390.389 102.931C390.123 102.744 389.989 102.531 389.989 102.291C389.989 102.131 390.043 101.957 390.149 101.771L390.749 100.771C391.336 97.7039 392.056 94.6239 392.909 91.5305C393.043 91.0505 393.456 90.6372 394.149 90.2905C394.869 89.9172 395.549 89.7305 396.189 89.7305C396.589 89.7305 396.896 89.8105 397.109 89.9705C397.323 90.1305 397.376 90.3705 397.269 90.6905C396.843 92.1839 396.576 93.1705 396.469 93.6505C398.069 92.0505 399.509 90.9705 400.789 90.4105Z" fill="#1C1E22"/>
<path d="M154.52 312.424C154.605 312.403 154.754 312.392 154.968 312.392C155.288 312.392 155.554 312.456 155.768 312.584C155.981 312.691 156.077 312.883 156.056 313.16C155.864 314.717 155.704 316.083 155.576 317.256C155.469 318.429 155.373 319.4 155.288 320.168L154.904 323.848C154.861 324.232 154.573 324.573 154.04 324.872C153.528 325.149 153.016 325.288 152.504 325.288C152.205 325.288 151.97 325.224 151.8 325.096C151.629 324.968 151.554 324.776 151.576 324.52C151.682 323.496 151.885 321.619 152.184 318.888C152.504 316.136 152.653 314.771 152.632 314.792C152.141 316.499 151.49 318.003 150.68 319.304C149.869 320.605 148.813 321.629 147.512 322.376C146.936 322.717 146.296 322.984 145.592 323.176C144.888 323.347 144.173 323.432 143.448 323.432C141.912 323.432 140.632 323.016 139.608 322.184C138.221 321.032 137.528 319.507 137.528 317.608C137.528 315.453 138.274 313.107 139.768 310.568C141.282 308.029 142.904 305.8 144.632 303.88C145.954 302.387 147.213 301.149 148.408 300.168C149.602 299.165 150.882 298.472 152.248 298.088C152.738 297.96 153.165 297.896 153.528 297.896C154.338 297.896 154.946 298.141 155.352 298.632C155.778 299.123 155.992 299.805 155.992 300.68C155.992 301.107 155.97 301.427 155.928 301.64C155.864 302.024 155.554 302.355 155 302.632C154.466 302.909 153.944 303.048 153.432 303.048C153.133 303.048 152.898 302.995 152.728 302.888C152.578 302.76 152.525 302.579 152.568 302.344C152.632 301.96 152.664 301.651 152.664 301.416C152.664 300.883 152.514 300.467 152.216 300.168C151.448 300.659 151.01 300.947 150.904 301.032C148.557 302.76 146.317 305.299 144.184 308.648C143.245 310.12 142.488 311.517 141.912 312.84C141.336 314.163 141.048 315.464 141.048 316.744C141.048 317.555 141.218 318.344 141.56 319.112C141.922 319.88 142.445 320.424 143.128 320.744C143.661 321 144.152 321.128 144.6 321.128C145.73 321.128 146.68 320.541 147.448 319.368C148.216 318.173 148.824 316.808 149.272 315.272C148.333 315.4 147.629 315.485 147.16 315.528L146.84 315.56C146.37 315.56 146.136 315.411 146.136 315.112C146.136 314.835 146.328 314.515 146.712 314.152C147.096 313.789 147.469 313.576 147.832 313.512C149.901 313.128 152.13 312.765 154.52 312.424ZM160.426 319.048C160.383 319.304 160.362 319.485 160.362 319.592C160.362 320.445 160.778 320.872 161.61 320.872C162.1 320.872 162.698 320.733 163.402 320.456C164.042 320.2 165.226 319.656 166.954 318.824C166.996 318.291 167.039 317.779 167.082 317.288C167.146 316.776 167.199 316.317 167.242 315.912L167.466 313.704C165.994 314.408 164.895 314.963 164.17 315.368C163.103 315.987 162.25 316.573 161.61 317.128C160.97 317.661 160.575 318.301 160.426 319.048ZM168.746 303.976C169.706 303.976 170.346 304.221 170.666 304.712C171.007 305.181 171.178 305.875 171.178 306.792L171.146 307.688C171.06 309.245 170.868 311.528 170.57 314.536C170.506 314.963 170.431 315.677 170.346 316.68C170.26 317.299 170.186 317.8 170.122 318.184C170.356 318.312 170.474 318.483 170.474 318.696C170.474 318.845 170.399 319.069 170.25 319.368L170.122 319.528L169.93 319.72C169.78 320.808 169.706 321.736 169.706 322.504C170.004 322.675 170.154 322.877 170.154 323.112C170.154 323.475 169.887 323.859 169.354 324.264C169.204 324.371 169.034 324.477 168.842 324.584C168.692 324.669 168.479 324.744 168.202 324.808C167.946 324.872 167.69 324.904 167.434 324.904C166.644 324.904 166.282 324.616 166.346 324.04L166.602 321.352C163.743 322.717 161.546 323.4 160.01 323.4C158.068 323.4 157.098 322.355 157.098 320.264C157.098 318.259 158.132 316.552 160.202 315.144C162.292 313.736 164.788 312.467 167.69 311.336C167.775 310.504 167.839 309.661 167.882 308.808C167.882 308.637 167.892 308.424 167.914 308.168C167.935 307.912 167.946 307.624 167.946 307.304C167.946 306.899 167.914 306.632 167.85 306.504L167.754 306.376H167.722C167.402 306.376 166.804 306.813 165.93 307.688C165.14 308.456 164.159 309.608 162.986 311.144C162.815 311.379 162.527 311.571 162.122 311.72C161.738 311.869 161.343 311.944 160.938 311.944C160.639 311.944 160.383 311.891 160.17 311.784C159.978 311.677 159.882 311.517 159.882 311.304C159.882 311.133 159.967 310.909 160.138 310.632C163.082 306.195 165.951 303.976 168.746 303.976ZM191.247 304.136C191.14 306.376 191.087 308.381 191.087 310.152C191.087 314.547 191.386 318.461 191.983 321.896C192.068 322.387 191.876 322.813 191.407 323.176C190.938 323.517 190.426 323.688 189.871 323.688C189.551 323.688 189.284 323.613 189.071 323.464C188.858 323.315 188.73 323.091 188.687 322.792C188.132 318.653 187.812 314.792 187.727 311.208C186.703 313.64 185.476 317.053 184.047 321.448C184.026 321.533 183.962 321.651 183.855 321.8C183.663 322.056 183.375 322.259 182.991 322.408C182.607 322.557 182.223 322.632 181.839 322.632C181.54 322.632 181.306 322.589 181.135 322.504C180.858 322.355 180.719 322.152 180.719 321.896C180.719 321.832 180.74 321.715 180.783 321.544C180.804 321.309 180.815 320.968 180.815 320.52C180.815 319.773 180.751 318.696 180.623 317.288L180.495 315.56C180.41 313.469 180.335 311.901 180.271 310.856C179.247 312.733 178.436 314.12 177.839 315.016C177.327 317.725 176.474 320.349 175.279 322.888C175.13 323.187 174.81 323.443 174.319 323.656C173.828 323.869 173.348 323.976 172.879 323.976C172.58 323.976 172.335 323.923 172.143 323.816C171.972 323.709 171.887 323.56 171.887 323.368C171.887 323.24 171.919 323.101 171.983 322.952C172.964 320.819 173.711 318.632 174.223 316.392C174.138 316.307 174.095 316.189 174.095 316.04C174.095 315.827 174.18 315.603 174.351 315.368L174.479 315.144C174.82 313.437 174.991 311.624 174.991 309.704C174.991 308.893 174.959 308.093 174.895 307.304C174.874 306.941 175.119 306.611 175.631 306.312C176.143 306.013 176.666 305.864 177.199 305.864C177.498 305.864 177.743 305.928 177.935 306.056C178.127 306.184 178.234 306.365 178.255 306.6C178.298 306.984 178.34 307.603 178.383 308.456C178.874 307.56 179.396 306.717 179.951 305.928C179.994 305.565 180.25 305.256 180.719 305C181.188 304.723 181.679 304.584 182.191 304.584C182.511 304.584 182.778 304.659 182.991 304.808C183.226 304.936 183.354 305.149 183.375 305.448C183.588 308.2 183.738 310.653 183.823 312.808C185.252 309.309 186.671 306.419 188.079 304.136C188.228 303.901 188.516 303.688 188.943 303.496C189.37 303.304 189.786 303.208 190.191 303.208C190.511 303.208 190.767 303.283 190.959 303.432C191.172 303.581 191.268 303.816 191.247 304.136ZM195.766 298.184C195.809 297.779 196.086 297.437 196.598 297.16C197.132 296.861 197.654 296.712 198.166 296.712C198.486 296.712 198.732 296.776 198.902 296.904C199.073 297.032 199.148 297.235 199.126 297.512C198.508 303.08 197.868 308.648 197.206 314.216L196.246 322.568C196.204 322.973 195.916 323.325 195.382 323.624C194.849 323.923 194.316 324.072 193.782 324.072C193.057 324.072 192.726 323.795 192.79 323.24L194.294 310.696C194.977 304.808 195.468 300.637 195.766 298.184ZM207.995 306.6C206.907 307.432 206.022 308.776 205.339 310.632C207.43 309.843 209.318 309.181 211.003 308.648C210.299 307.667 209.584 307.005 208.859 306.664C208.71 306.6 208.56 306.557 208.411 306.536C208.283 306.515 208.208 306.504 208.187 306.504C208.208 306.525 208.187 306.547 208.123 306.568C208.08 306.589 208.038 306.6 207.995 306.6ZM208.123 304.328C208.464 304.243 208.827 304.2 209.211 304.2C211.259 304.2 213.115 305.576 214.779 308.328C214.843 308.413 214.875 308.52 214.875 308.648C214.875 308.883 214.726 309.128 214.427 309.384C214.192 309.64 213.894 309.843 213.531 309.992C211.398 310.931 208.432 312.051 204.635 313.352C204.422 314.44 204.315 315.56 204.315 316.712C204.315 317.245 204.326 317.629 204.347 317.864C204.39 318.824 204.582 319.656 204.923 320.36C205.03 320.595 205.179 320.819 205.371 321.032C205.584 321.245 205.744 321.384 205.851 321.448C205.915 321.491 206.022 321.512 206.171 321.512C206.32 321.512 206.491 321.469 206.683 321.384C206.896 321.299 207.131 321.181 207.387 321.032C208.006 320.669 208.582 320.253 209.115 319.784C209.648 319.315 210.288 318.707 211.035 317.96C211.334 317.661 211.835 317.512 212.539 317.512C212.923 317.512 213.243 317.576 213.499 317.704C213.776 317.811 213.915 317.971 213.915 318.184C213.915 318.376 213.808 318.589 213.595 318.824C212.272 320.253 210.918 321.469 209.531 322.472C208.144 323.475 206.758 323.976 205.371 323.976C204.71 323.976 204.091 323.837 203.515 323.56C202.555 323.112 201.862 322.397 201.435 321.416C201.008 320.435 200.795 319.283 200.795 317.96C200.795 316.979 200.923 315.827 201.179 314.504L200.923 314.568L200.667 314.664C200.347 314.771 200.091 314.824 199.899 314.824C199.6 314.824 199.366 314.749 199.195 314.6C199.024 314.451 198.939 314.259 198.939 314.024C198.939 313.747 199.046 313.48 199.259 313.224C199.494 312.947 199.835 312.723 200.283 312.552L201.851 311.944C202.043 311.347 202.331 310.568 202.715 309.608C203.312 308.285 204.059 307.144 204.955 306.184C205.851 305.224 206.907 304.605 208.123 304.328ZM234.99 314.984C235.225 314.387 235.342 313.8 235.342 313.224C235.342 312.029 234.852 311.08 233.87 310.376C232.91 309.651 231.758 309.288 230.414 309.288C229.881 309.288 229.358 309.352 228.846 309.48C228.761 310.056 228.686 310.525 228.622 310.888C228.046 314.728 227.502 318.205 226.99 321.32C227.78 320.936 228.686 320.435 229.71 319.816C231.033 319.005 232.153 318.237 233.07 317.512C233.988 316.765 234.628 315.923 234.99 314.984ZM229.198 307.208C230.094 307.037 230.937 306.952 231.726 306.952C233.774 306.952 235.46 307.453 236.782 308.456C238.126 309.437 238.734 310.92 238.606 312.904C238.457 315.251 237.23 317.32 234.926 319.112C232.644 320.904 229.86 322.525 226.574 323.976L226.318 325.416C226.233 325.864 225.924 326.237 225.39 326.536C224.857 326.835 224.313 326.984 223.758 326.984C223.396 326.984 223.118 326.899 222.926 326.728C222.713 326.579 222.638 326.344 222.702 326.024C222.788 325.469 222.862 325.053 222.926 324.776C222.67 324.584 222.542 324.381 222.542 324.168C222.542 323.955 222.638 323.72 222.83 323.464L223.118 323.08L223.246 322.984C224.228 317.267 224.953 312.979 225.422 310.12C225.145 309.971 225.006 309.768 225.006 309.512C225.006 309.192 225.22 308.883 225.646 308.584C226.201 305.128 226.67 301.917 227.054 298.952C227.118 298.547 227.417 298.205 227.95 297.928C228.484 297.629 229.017 297.48 229.55 297.48C229.892 297.48 230.148 297.555 230.318 297.704C230.51 297.832 230.585 298.035 230.542 298.312L229.198 307.208ZM251.328 312.648C251.328 310.387 250.005 308.605 247.36 307.304C246.698 307.859 246.037 308.595 245.376 309.512C244.565 310.685 243.893 311.997 243.36 313.448C243.146 314.024 242.944 314.813 242.752 315.816C242.56 316.797 242.464 317.715 242.464 318.568C242.464 319.443 242.581 320.147 242.816 320.68C243.072 321.192 243.477 321.448 244.032 321.448C244.48 321.448 245.002 321.267 245.6 320.904C247.242 319.944 248.608 318.749 249.696 317.32C250.784 315.891 251.328 314.333 251.328 312.648ZM252.224 306.856C252.992 307.581 253.578 308.403 253.984 309.32C254.41 310.237 254.624 311.208 254.624 312.232C254.624 313.704 254.197 315.197 253.344 316.712C252.768 317.736 251.925 318.813 250.816 319.944C249.706 321.075 248.469 322.035 247.104 322.824C245.76 323.592 244.469 323.976 243.232 323.976C242.464 323.976 241.738 323.805 241.056 323.464C239.605 322.675 238.88 321.256 238.88 319.208C238.88 317.736 239.21 316.125 239.872 314.376C240.533 312.605 241.237 311.112 241.984 309.896C243.797 307.016 245.706 305.203 247.712 304.456C248.266 304.243 248.864 304.136 249.504 304.136C250.25 304.136 250.88 304.328 251.392 304.712C251.904 305.075 252.202 305.651 252.288 306.44V306.568C252.288 306.632 252.266 306.728 252.224 306.856ZM252.512 305.384C252.661 305.235 252.938 305.107 253.344 305C253.749 304.893 254.112 304.84 254.432 304.84C254.922 304.84 255.168 304.957 255.168 305.192C255.168 305.32 255.072 305.501 254.88 305.736C251.829 309.299 249.312 312.317 247.328 314.792C245.365 317.267 243.52 319.848 241.792 322.536C241.621 322.792 241.333 323.005 240.928 323.176C240.544 323.347 240.16 323.432 239.776 323.432C239.178 323.432 238.88 323.251 238.88 322.888C238.88 322.717 238.954 322.525 239.104 322.312C241.28 318.877 243.456 315.752 245.632 312.936C247.808 310.099 250.101 307.581 252.512 305.384ZM262.082 320.456C262.956 319.283 263.714 318.045 264.354 316.744C264.908 315.677 265.495 314.355 266.114 312.776C266.732 311.197 267.042 309.896 267.042 308.872C267.042 308.531 266.999 308.264 266.914 308.072C266.274 308.115 265.89 307.923 265.762 307.496C265.612 306.963 265.452 306.696 265.282 306.696C265.154 306.696 265.026 306.781 264.898 306.952C264.77 307.101 264.588 307.379 264.354 307.784C264.055 308.232 263.735 308.851 263.394 309.64C262.69 311.133 262.114 312.595 261.666 314.024C261.154 315.496 260.748 316.829 260.45 318.024C260.151 319.219 260.002 320.36 260.002 321.448C260.002 321.917 260.034 322.376 260.098 322.824L260.77 322.12C261.175 321.651 261.612 321.096 262.082 320.456ZM268.834 305.352C269.474 305.608 269.932 305.971 270.21 306.44C270.487 306.909 270.626 307.507 270.626 308.232C270.626 308.915 270.455 310.088 270.114 311.752C269.175 316.147 268.407 320.157 267.81 323.784C267.234 327.411 266.818 330.995 266.562 334.536C266.54 334.835 266.498 335.091 266.434 335.304C266.391 335.539 266.295 335.816 266.146 336.136C265.911 336.605 265.538 337.021 265.026 337.384C264.535 337.768 264.066 337.96 263.618 337.96C263.212 337.96 262.903 337.779 262.69 337.416L261.762 335.816C260.418 333.469 259.276 331.549 258.338 330.056C258.274 329.971 258.242 329.864 258.242 329.736C258.242 329.373 258.508 329.032 259.042 328.712C259.575 328.392 260.119 328.232 260.674 328.232C261.228 328.232 261.612 328.413 261.826 328.776C262.124 329.331 262.466 329.928 262.85 330.568L263.49 331.688C263.959 327.912 264.482 324.349 265.058 321C264.076 322.365 263.042 323.539 261.954 324.52C260.887 325.501 259.895 325.992 258.978 325.992C258.274 325.992 257.666 325.672 257.154 325.032C256.727 324.499 256.514 323.731 256.514 322.728C256.514 322.173 256.556 321.629 256.642 321.096C256.748 320.563 256.908 319.837 257.122 318.92L257.314 318.152C257.954 315.251 258.903 312.424 260.162 309.672C260.759 308.413 261.356 307.368 261.954 306.536C262.572 305.704 263.351 305.075 264.29 304.648C264.866 304.371 265.506 304.232 266.21 304.232C267.255 304.232 268.055 304.584 268.61 305.288L268.834 305.352ZM279.464 306.6C278.376 307.432 277.49 308.776 276.808 310.632C278.898 309.843 280.786 309.181 282.472 308.648C281.768 307.667 281.053 307.005 280.328 306.664C280.178 306.6 280.029 306.557 279.88 306.536C279.752 306.515 279.677 306.504 279.656 306.504C279.677 306.525 279.656 306.547 279.592 306.568C279.549 306.589 279.506 306.6 279.464 306.6ZM279.592 304.328C279.933 304.243 280.296 304.2 280.68 304.2C282.728 304.2 284.584 305.576 286.248 308.328C286.312 308.413 286.344 308.52 286.344 308.648C286.344 308.883 286.194 309.128 285.896 309.384C285.661 309.64 285.362 309.843 285 309.992C282.866 310.931 279.901 312.051 276.104 313.352C275.89 314.44 275.784 315.56 275.784 316.712C275.784 317.245 275.794 317.629 275.816 317.864C275.858 318.824 276.05 319.656 276.392 320.36C276.498 320.595 276.648 320.819 276.84 321.032C277.053 321.245 277.213 321.384 277.32 321.448C277.384 321.491 277.49 321.512 277.64 321.512C277.789 321.512 277.96 321.469 278.152 321.384C278.365 321.299 278.6 321.181 278.856 321.032C279.474 320.669 280.05 320.253 280.584 319.784C281.117 319.315 281.757 318.707 282.504 317.96C282.802 317.661 283.304 317.512 284.008 317.512C284.392 317.512 284.712 317.576 284.968 317.704C285.245 317.811 285.384 317.971 285.384 318.184C285.384 318.376 285.277 318.589 285.064 318.824C283.741 320.253 282.386 321.469 281 322.472C279.613 323.475 278.226 323.976 276.84 323.976C276.178 323.976 275.56 323.837 274.984 323.56C274.024 323.112 273.33 322.397 272.904 321.416C272.477 320.435 272.264 319.283 272.264 317.96C272.264 316.979 272.392 315.827 272.648 314.504L272.392 314.568L272.136 314.664C271.816 314.771 271.56 314.824 271.368 314.824C271.069 314.824 270.834 314.749 270.664 314.6C270.493 314.451 270.408 314.259 270.408 314.024C270.408 313.747 270.514 313.48 270.728 313.224C270.962 312.947 271.304 312.723 271.752 312.552L273.32 311.944C273.512 311.347 273.8 310.568 274.184 309.608C274.781 308.285 275.528 307.144 276.424 306.184C277.32 305.224 278.376 304.605 279.592 304.328ZM295.567 303.88C296.186 303.624 296.751 303.496 297.263 303.496C297.818 303.496 298.266 303.645 298.607 303.944C298.949 304.221 299.119 304.68 299.119 305.32C299.119 305.939 299.023 306.611 298.831 307.336C298.639 308.061 298.373 308.915 298.031 309.896L297.583 311.24C297.455 311.645 297.125 311.987 296.591 312.264C296.058 312.541 295.546 312.68 295.055 312.68C294.735 312.68 294.49 312.616 294.319 312.488C294.17 312.339 294.138 312.125 294.223 311.848C294.607 310.653 294.991 309.331 295.375 307.88C295.461 307.219 295.525 306.781 295.567 306.568L295.439 306.696C293.797 308.104 292.293 309.875 290.927 312.008C290.309 315.4 289.925 318.803 289.775 322.216C289.754 322.621 289.477 322.984 288.943 323.304C288.431 323.603 287.898 323.752 287.343 323.752C287.023 323.752 286.757 323.677 286.543 323.528C286.33 323.379 286.234 323.155 286.255 322.856C286.426 319.784 286.757 316.797 287.247 313.896C287.034 313.747 286.927 313.576 286.927 313.384C286.927 313.256 286.97 313.117 287.055 312.968L287.535 312.168C288.005 309.715 288.581 307.251 289.263 304.776C289.37 304.392 289.701 304.061 290.255 303.784C290.831 303.485 291.375 303.336 291.887 303.336C292.207 303.336 292.453 303.4 292.623 303.528C292.794 303.656 292.837 303.848 292.751 304.104C292.41 305.299 292.197 306.088 292.111 306.472C293.391 305.192 294.543 304.328 295.567 303.88Z" fill="#1C1E22"/>
<path d="M159.832 255.072C161.325 254.859 162.701 254.752 163.96 254.752L163.64 247.296C163.128 248.213 162.402 249.685 161.464 251.712C160.653 253.44 160.109 254.56 159.832 255.072ZM169.4 266.528C169.485 266.848 169.4 267.157 169.144 267.456C168.888 267.733 168.536 267.957 168.088 268.128C167.661 268.32 167.256 268.416 166.872 268.416C166.253 268.416 165.901 268.224 165.816 267.84C165.048 264.789 164.482 261.163 164.12 256.96C162.2 256.939 160.29 257.12 158.392 257.504C156.386 260.853 154.52 263.936 152.792 266.752C152.621 267.051 152.269 267.307 151.736 267.52C151.181 267.712 150.669 267.808 150.2 267.808C149.602 267.808 149.304 267.648 149.304 267.328C149.304 267.2 149.346 267.061 149.432 266.912C151.138 263.925 152.717 261.195 154.168 258.72L153.624 258.912C153.282 259.04 152.973 259.104 152.696 259.104C152.418 259.104 152.205 259.04 152.056 258.912C151.885 258.784 151.8 258.624 151.8 258.432C151.8 258.219 151.906 258.005 152.12 257.792C152.312 257.557 152.6 257.355 152.984 257.184C153.986 256.736 154.882 256.384 155.672 256.128C156.824 254.144 158.05 251.893 159.352 249.376C160.845 246.496 162.104 244.245 163.128 242.624C163.192 242.539 163.277 242.453 163.384 242.368L163.352 242.208C163.352 241.824 163.618 241.483 164.152 241.184C164.706 240.864 165.261 240.704 165.816 240.704C166.498 240.704 166.85 240.96 166.872 241.472L166.968 243.616C167.16 248.757 167.405 253.088 167.704 256.608C168.024 260.107 168.589 263.413 169.4 266.528ZM180.037 247.36C180.187 247.147 180.485 246.965 180.933 246.816C181.403 246.645 181.84 246.56 182.245 246.56C182.544 246.56 182.779 246.603 182.949 246.688C183.141 246.773 183.237 246.912 183.237 247.104C183.237 247.253 183.184 247.413 183.077 247.584C181.328 250.507 179.856 253.408 178.661 256.288C177.488 259.147 176.581 262.112 175.941 265.184C175.856 265.589 175.547 265.963 175.013 266.304C174.501 266.624 173.989 266.784 173.477 266.784C172.901 266.784 172.539 266.56 172.389 266.112C171.579 263.723 171.003 261.291 170.661 258.816C170.341 256.32 170.043 253.099 169.765 249.152L169.733 248.48C169.712 248.011 169.989 247.595 170.565 247.232C171.163 246.869 171.749 246.688 172.325 246.688C172.88 246.688 173.168 246.88 173.189 247.264C173.232 247.776 173.253 248.181 173.253 248.48V248.576C173.488 252.651 173.829 255.957 174.277 258.496C175.749 254.272 177.669 250.56 180.037 247.36ZM187.649 241.92C187.414 241.856 187.179 241.824 186.945 241.824C186.475 241.824 186.059 241.941 185.697 242.176C185.227 242.432 184.961 242.688 184.897 242.944C184.619 243.947 184.438 244.608 184.353 244.928V245.024C184.353 245.131 184.395 245.237 184.481 245.344C184.566 245.429 184.662 245.493 184.769 245.536C184.939 245.621 185.131 245.664 185.345 245.664C185.686 245.664 186.091 245.568 186.561 245.376C187.051 245.163 187.371 244.875 187.521 244.512C187.649 244.149 187.83 243.509 188.065 242.592V242.528C188.065 242.421 188.022 242.315 187.937 242.208C187.851 242.08 187.755 241.984 187.649 241.92ZM186.401 254.752C186.273 255.605 186.027 257.152 185.665 259.392C185.323 261.611 185.035 263.627 184.801 265.44C184.737 265.845 184.449 266.197 183.937 266.496C183.446 266.773 182.945 266.912 182.433 266.912C182.091 266.912 181.825 266.848 181.633 266.72C181.462 266.571 181.398 266.357 181.441 266.08C181.803 263.947 182.187 261.515 182.593 258.784C183.019 256.032 183.318 254.069 183.489 252.896L184.161 248.512C184.225 248.128 184.513 247.797 185.025 247.52C185.558 247.243 186.07 247.104 186.561 247.104C186.859 247.104 187.094 247.168 187.265 247.296C187.435 247.424 187.499 247.605 187.457 247.84L186.401 254.752ZM192.817 251.68C192.817 252.491 193.02 253.205 193.425 253.824C193.852 254.443 194.364 254.965 194.961 255.392C195.559 255.819 196.369 256.32 197.393 256.896C198.78 257.685 199.836 258.4 200.561 259.04C201.308 259.68 201.799 260.48 202.033 261.44C202.119 261.867 202.161 262.176 202.161 262.368C202.161 263.861 201.372 264.939 199.793 265.6C198.215 266.24 196.423 266.56 194.417 266.56C193.628 266.56 192.935 266.507 192.337 266.4C191.633 266.272 190.897 266.027 190.129 265.664C189.383 265.28 188.753 264.821 188.241 264.288C187.751 263.733 187.505 263.168 187.505 262.592C187.505 261.696 188.199 260.875 189.585 260.128C189.969 259.936 190.343 259.84 190.705 259.84C191.047 259.84 191.324 259.915 191.537 260.064C191.772 260.213 191.889 260.395 191.889 260.608C191.889 260.992 191.58 261.365 190.961 261.728C190.833 261.792 190.769 261.888 190.769 262.016C190.769 262.272 190.972 262.581 191.377 262.944C191.783 263.307 192.103 263.552 192.337 263.68C192.977 264.043 194.001 264.267 195.409 264.352C195.58 264.373 195.879 264.384 196.305 264.384C197.073 264.384 197.692 264.256 198.161 264C198.631 263.744 198.833 263.275 198.769 262.592C198.684 261.675 197.756 260.64 195.985 259.488L194.769 258.72C193.66 258.037 192.743 257.44 192.017 256.928C191.313 256.395 190.705 255.765 190.193 255.04C189.681 254.293 189.425 253.461 189.425 252.544C189.425 251.968 189.532 251.392 189.745 250.816C190.215 249.429 191.089 248.363 192.369 247.616C193.649 246.848 195.025 246.464 196.497 246.464C198.012 246.464 199.281 246.848 200.305 247.616C201.351 248.384 201.873 249.472 201.873 250.88C201.873 251.328 201.809 251.808 201.681 252.32C201.596 252.704 201.276 253.035 200.721 253.312C200.167 253.589 199.644 253.728 199.153 253.728C198.855 253.728 198.62 253.664 198.449 253.536C198.3 253.408 198.268 253.227 198.353 252.992C198.481 252.544 198.545 252.096 198.545 251.648C198.545 250.944 198.364 250.347 198.001 249.856C197.639 249.365 197.105 249.024 196.401 248.832C196.017 248.747 195.729 248.704 195.537 248.704C194.769 248.704 194.119 248.981 193.585 249.536C193.073 250.069 192.817 250.784 192.817 251.68ZM213.246 258.656C213.331 258.293 213.374 257.867 213.374 257.376C213.374 255.669 212.734 254.005 211.454 252.384C210.729 251.445 209.961 250.688 209.15 250.112C208.51 254.101 208.009 257.323 207.646 259.776C207.475 260.779 207.241 262.283 206.942 264.288C207.582 264.587 208.169 264.736 208.702 264.736C209.598 264.736 210.409 264.299 211.134 263.424C211.667 262.784 212.115 262.048 212.478 261.216C212.841 260.384 213.097 259.531 213.246 258.656ZM209.502 247.008C210.825 247.456 212.019 248.213 213.086 249.28C214.153 250.325 214.985 251.552 215.582 252.96C216.201 254.347 216.51 255.733 216.51 257.12C216.51 257.867 216.414 258.592 216.222 259.296C215.817 260.768 215.198 262.091 214.366 263.264C213.555 264.416 212.574 265.333 211.422 266.016C210.291 266.677 209.075 267.008 207.774 267.008C207.369 267.008 206.953 266.976 206.526 266.912C205.673 272.373 204.905 276.832 204.222 280.288C204.137 280.693 203.838 281.035 203.326 281.312C202.814 281.589 202.291 281.728 201.758 281.728C201.395 281.728 201.118 281.653 200.926 281.504C200.713 281.355 200.638 281.131 200.702 280.832C201.747 275.541 202.665 270.496 203.454 265.696L203.39 265.664C203.113 265.472 202.974 265.259 202.974 265.024C202.974 264.661 203.23 264.32 203.742 264C204.425 260.053 205.193 254.987 206.046 248.8L205.63 248.832L205.278 248.864C204.915 248.864 204.649 248.8 204.478 248.672C204.307 248.544 204.222 248.384 204.222 248.192C204.222 247.872 204.382 247.563 204.702 247.264C205.022 246.965 205.417 246.773 205.886 246.688C206.27 246.624 206.654 246.592 207.038 246.592C207.315 246.592 207.689 246.613 208.158 246.656C208.841 246.571 209.289 246.688 209.502 247.008ZM219.832 262.048C219.789 262.304 219.768 262.485 219.768 262.592C219.768 263.445 220.184 263.872 221.016 263.872C221.506 263.872 222.104 263.733 222.808 263.456C223.448 263.2 224.632 262.656 226.36 261.824C226.402 261.291 226.445 260.779 226.488 260.288C226.552 259.776 226.605 259.317 226.648 258.912L226.872 256.704C225.4 257.408 224.301 257.963 223.576 258.368C222.509 258.987 221.656 259.573 221.016 260.128C220.376 260.661 219.981 261.301 219.832 262.048ZM228.152 246.976C229.112 246.976 229.752 247.221 230.072 247.712C230.413 248.181 230.584 248.875 230.584 249.792L230.552 250.688C230.466 252.245 230.274 254.528 229.976 257.536C229.912 257.963 229.837 258.677 229.752 259.68C229.666 260.299 229.592 260.8 229.528 261.184C229.762 261.312 229.88 261.483 229.88 261.696C229.88 261.845 229.805 262.069 229.656 262.368L229.528 262.528L229.336 262.72C229.186 263.808 229.112 264.736 229.112 265.504C229.41 265.675 229.56 265.877 229.56 266.112C229.56 266.475 229.293 266.859 228.76 267.264C228.61 267.371 228.44 267.477 228.248 267.584C228.098 267.669 227.885 267.744 227.608 267.808C227.352 267.872 227.096 267.904 226.84 267.904C226.05 267.904 225.688 267.616 225.752 267.04L226.008 264.352C223.149 265.717 220.952 266.4 219.416 266.4C217.474 266.4 216.504 265.355 216.504 263.264C216.504 261.259 217.538 259.552 219.608 258.144C221.698 256.736 224.194 255.467 227.096 254.336C227.181 253.504 227.245 252.661 227.288 251.808C227.288 251.637 227.298 251.424 227.32 251.168C227.341 250.912 227.352 250.624 227.352 250.304C227.352 249.899 227.32 249.632 227.256 249.504L227.16 249.376H227.128C226.808 249.376 226.21 249.813 225.336 250.688C224.546 251.456 223.565 252.608 222.392 254.144C222.221 254.379 221.933 254.571 221.528 254.72C221.144 254.869 220.749 254.944 220.344 254.944C220.045 254.944 219.789 254.891 219.576 254.784C219.384 254.677 219.288 254.517 219.288 254.304C219.288 254.133 219.373 253.909 219.544 253.632C222.488 249.195 225.357 246.976 228.152 246.976ZM241.902 258.656C241.988 258.293 242.03 257.867 242.03 257.376C242.03 255.669 241.39 254.005 240.11 252.384C239.385 251.445 238.617 250.688 237.806 250.112C237.166 254.101 236.665 257.323 236.302 259.776C236.132 260.779 235.897 262.283 235.598 264.288C236.238 264.587 236.825 264.736 237.358 264.736C238.254 264.736 239.065 264.299 239.79 263.424C240.324 262.784 240.772 262.048 241.134 261.216C241.497 260.384 241.753 259.531 241.902 258.656ZM238.158 247.008C239.481 247.456 240.676 248.213 241.742 249.28C242.809 250.325 243.641 251.552 244.238 252.96C244.857 254.347 245.166 255.733 245.166 257.12C245.166 257.867 245.07 258.592 244.878 259.296C244.473 260.768 243.854 262.091 243.022 263.264C242.212 264.416 241.23 265.333 240.078 266.016C238.948 266.677 237.732 267.008 236.43 267.008C236.025 267.008 235.609 266.976 235.182 266.912C234.329 272.373 233.561 276.832 232.878 280.288C232.793 280.693 232.494 281.035 231.982 281.312C231.47 281.589 230.948 281.728 230.414 281.728C230.052 281.728 229.774 281.653 229.582 281.504C229.369 281.355 229.294 281.131 229.358 280.832C230.404 275.541 231.321 270.496 232.11 265.696L232.046 265.664C231.769 265.472 231.63 265.259 231.63 265.024C231.63 264.661 231.886 264.32 232.398 264C233.081 260.053 233.849 254.987 234.702 248.8L234.286 248.832L233.934 248.864C233.572 248.864 233.305 248.8 233.134 248.672C232.964 248.544 232.878 248.384 232.878 248.192C232.878 247.872 233.038 247.563 233.358 247.264C233.678 246.965 234.073 246.773 234.542 246.688C234.926 246.624 235.31 246.592 235.694 246.592C235.972 246.592 236.345 246.613 236.814 246.656C237.497 246.571 237.945 246.688 238.158 247.008ZM251.336 241.92C251.101 241.856 250.867 241.824 250.632 241.824C250.163 241.824 249.747 241.941 249.384 242.176C248.915 242.432 248.648 242.688 248.584 242.944C248.307 243.947 248.125 244.608 248.04 244.928V245.024C248.04 245.131 248.083 245.237 248.168 245.344C248.253 245.429 248.349 245.493 248.456 245.536C248.627 245.621 248.819 245.664 249.032 245.664C249.373 245.664 249.779 245.568 250.248 245.376C250.739 245.163 251.059 244.875 251.208 244.512C251.336 244.149 251.517 243.509 251.752 242.592V242.528C251.752 242.421 251.709 242.315 251.624 242.208C251.539 242.08 251.443 241.984 251.336 241.92ZM250.088 254.752C249.96 255.605 249.715 257.152 249.352 259.392C249.011 261.611 248.723 263.627 248.488 265.44C248.424 265.845 248.136 266.197 247.624 266.496C247.133 266.773 246.632 266.912 246.12 266.912C245.779 266.912 245.512 266.848 245.32 266.72C245.149 266.571 245.085 266.357 245.128 266.08C245.491 263.947 245.875 261.515 246.28 258.784C246.707 256.032 247.005 254.069 247.176 252.896L247.848 248.512C247.912 248.128 248.2 247.797 248.712 247.52C249.245 247.243 249.757 247.104 250.248 247.104C250.547 247.104 250.781 247.168 250.952 247.296C251.123 247.424 251.187 247.605 251.144 247.84L250.088 254.752ZM260.505 246.88C261.123 246.624 261.689 246.496 262.201 246.496C262.755 246.496 263.203 246.645 263.545 246.944C263.886 247.221 264.057 247.68 264.057 248.32C264.057 248.939 263.961 249.611 263.769 250.336C263.577 251.061 263.31 251.915 262.969 252.896L262.521 254.24C262.393 254.645 262.062 254.987 261.529 255.264C260.995 255.541 260.483 255.68 259.993 255.68C259.673 255.68 259.427 255.616 259.257 255.488C259.107 255.339 259.075 255.125 259.161 254.848C259.545 253.653 259.929 252.331 260.313 250.88C260.398 250.219 260.462 249.781 260.505 249.568L260.377 249.696C258.734 251.104 257.23 252.875 255.865 255.008C255.246 258.4 254.862 261.803 254.713 265.216C254.691 265.621 254.414 265.984 253.881 266.304C253.369 266.603 252.835 266.752 252.281 266.752C251.961 266.752 251.694 266.677 251.481 266.528C251.267 266.379 251.171 266.155 251.193 265.856C251.363 262.784 251.694 259.797 252.185 256.896C251.971 256.747 251.865 256.576 251.865 256.384C251.865 256.256 251.907 256.117 251.993 255.968L252.473 255.168C252.942 252.715 253.518 250.251 254.201 247.776C254.307 247.392 254.638 247.061 255.193 246.784C255.769 246.485 256.313 246.336 256.825 246.336C257.145 246.336 257.39 246.4 257.561 246.528C257.731 246.656 257.774 246.848 257.689 247.104C257.347 248.299 257.134 249.088 257.049 249.472C258.329 248.192 259.481 247.328 260.505 246.88Z" fill="#1C1E22"/>
<path d="M187.952 199.872C189.296 201.045 189.968 202.251 189.968 203.488C189.968 204.299 189.69 205.109 189.136 205.92C187.173 208.736 184.869 210.475 182.224 211.136C181.541 211.307 180.773 211.392 179.92 211.392C177.914 211.392 175.994 210.891 174.16 209.888C173.285 209.419 172.677 208.811 172.336 208.064C171.994 207.317 171.824 206.432 171.824 205.408C171.824 204.683 171.909 203.637 172.08 202.272C172.144 201.909 172.442 201.728 172.976 201.728C173.573 201.728 174.181 201.92 174.8 202.304C175.418 202.688 175.696 203.115 175.632 203.584C175.61 203.755 175.557 204.139 175.472 204.736C175.386 205.312 175.344 205.845 175.344 206.336C175.344 207.445 175.61 208.192 176.144 208.576C176.677 208.96 177.37 209.152 178.224 209.152C179.077 209.152 179.962 208.971 180.88 208.608C181.584 208.331 182.362 207.872 183.216 207.232C184.09 206.592 184.826 205.867 185.424 205.056C186.042 204.245 186.352 203.456 186.352 202.688C186.352 202.069 186.138 201.504 185.712 200.992C185.285 200.501 184.677 200.032 183.888 199.584C183.12 199.136 182.096 198.613 180.816 198.016C179.237 197.269 177.968 196.619 177.008 196.064C176.069 195.488 175.258 194.816 174.576 194.048C173.893 193.259 173.552 192.373 173.552 191.392C173.552 190.944 173.605 190.549 173.712 190.208C174.224 188.288 175.482 186.912 177.488 186.08C179.514 185.227 181.701 184.8 184.048 184.8C185.072 184.8 185.968 184.864 186.736 184.992C187.504 185.12 188.144 185.397 188.656 185.824C189.232 186.293 189.52 186.955 189.52 187.808C189.52 188.32 189.434 188.832 189.264 189.344C189.114 189.835 188.88 190.507 188.56 191.36C188.325 191.936 188.186 192.288 188.144 192.416C188.016 192.779 187.664 192.96 187.088 192.96C186.512 192.96 185.946 192.8 185.392 192.48C184.837 192.16 184.56 191.797 184.56 191.392C184.56 191.285 184.57 191.2 184.592 191.136L185.072 189.76C185.285 189.163 185.434 188.715 185.52 188.416L185.744 187.072C183.056 187.029 180.912 187.573 179.312 188.704C178.672 189.131 178.17 189.632 177.808 190.208C177.466 190.763 177.296 191.328 177.296 191.904C177.296 192.907 177.797 193.771 178.8 194.496C179.525 195.008 180.325 195.488 181.2 195.936C182.096 196.384 182.64 196.661 182.832 196.768C184.069 197.387 185.061 197.909 185.808 198.336C186.576 198.763 187.29 199.275 187.952 199.872ZM203.3 203.712C203.449 203.563 203.684 203.445 204.004 203.36C204.324 203.275 204.644 203.232 204.964 203.232C205.753 203.232 206.148 203.435 206.148 203.84C206.148 204.032 206.041 204.245 205.828 204.48C205.572 204.779 205.337 205.067 205.124 205.344C204.911 205.6 204.719 205.835 204.548 206.048C203.609 207.264 202.767 208.235 202.02 208.96C201.273 209.664 200.399 210.176 199.396 210.496C198.927 210.645 198.425 210.72 197.892 210.72C196.996 210.72 196.228 210.464 195.588 209.952C194.969 209.44 194.607 208.693 194.5 207.712C194.457 207.435 194.436 207.008 194.436 206.432C194.436 205.323 194.564 204.192 194.82 203.04C195.076 201.888 195.449 200.448 195.94 198.72L196.324 197.344L195.108 197.472C194.511 197.515 193.7 197.6 192.676 197.728C192.185 197.792 191.812 197.739 191.556 197.568C191.3 197.397 191.172 197.173 191.172 196.896C191.172 196.576 191.321 196.267 191.62 195.968C191.94 195.648 192.345 195.467 192.836 195.424L196.964 194.944C197.903 191.488 198.959 188.096 200.132 184.768C200.239 184.469 200.527 184.213 200.996 184C201.487 183.765 201.956 183.648 202.404 183.648C202.681 183.648 202.905 183.701 203.076 183.808C203.268 183.915 203.364 184.075 203.364 184.288C203.364 184.352 203.343 184.469 203.3 184.64C202.063 188.117 201.028 191.435 200.196 194.592C201.689 194.443 202.681 194.368 203.172 194.368C203.791 194.368 204.1 194.549 204.1 194.912C204.1 195.211 203.919 195.541 203.556 195.904C203.193 196.245 202.82 196.459 202.436 196.544C201.156 196.757 200.196 196.907 199.556 196.992C199.193 198.443 198.873 199.861 198.596 201.248C198.553 201.419 198.404 202.048 198.148 203.136C197.892 204.203 197.764 205.205 197.764 206.144C197.764 207.36 198.084 208.021 198.724 208.128C199.129 208.192 199.588 207.968 200.1 207.456C200.633 206.923 201.316 206.133 202.148 205.088C202.66 204.427 203.044 203.968 203.3 203.712ZM218.953 199.648C218.953 197.387 217.63 195.605 214.985 194.304C214.323 194.859 213.662 195.595 213.001 196.512C212.19 197.685 211.518 198.997 210.985 200.448C210.771 201.024 210.569 201.813 210.377 202.816C210.185 203.797 210.089 204.715 210.089 205.568C210.089 206.443 210.206 207.147 210.441 207.68C210.697 208.192 211.102 208.448 211.657 208.448C212.105 208.448 212.627 208.267 213.225 207.904C214.867 206.944 216.233 205.749 217.321 204.32C218.409 202.891 218.953 201.333 218.953 199.648ZM219.849 193.856C220.617 194.581 221.203 195.403 221.609 196.32C222.035 197.237 222.249 198.208 222.249 199.232C222.249 200.704 221.822 202.197 220.969 203.712C220.393 204.736 219.55 205.813 218.441 206.944C217.331 208.075 216.094 209.035 214.729 209.824C213.385 210.592 212.094 210.976 210.857 210.976C210.089 210.976 209.363 210.805 208.681 210.464C207.23 209.675 206.505 208.256 206.505 206.208C206.505 204.736 206.835 203.125 207.497 201.376C208.158 199.605 208.862 198.112 209.609 196.896C211.422 194.016 213.331 192.203 215.337 191.456C215.891 191.243 216.489 191.136 217.129 191.136C217.875 191.136 218.505 191.328 219.017 191.712C219.529 192.075 219.827 192.651 219.913 193.44V193.568C219.913 193.632 219.891 193.728 219.849 193.856ZM230.932 182.496C232.105 182.496 232.905 182.997 233.332 184C233.78 185.003 234.004 186.315 234.004 187.936C234.004 188.128 233.972 189.056 233.908 190.72C233.865 191.275 233.844 191.648 233.844 191.84C233.822 192.267 233.556 192.629 233.044 192.928C232.553 193.227 232.041 193.376 231.508 193.376C230.761 193.376 230.388 193.077 230.388 192.48C230.388 192.139 230.409 191.584 230.452 190.816C230.516 190.069 230.548 189.333 230.548 188.608C230.548 187.84 230.505 187.157 230.42 186.56C230.377 186.389 230.324 186.197 230.26 185.984C230.196 185.771 230.153 185.611 230.132 185.504L230.1 185.376L229.844 186.24C229.374 187.861 229.012 189.173 228.756 190.176C228.5 191.179 228.297 192.245 228.148 193.376C228.02 194.208 227.924 194.923 227.86 195.52C227.817 196.096 227.774 196.8 227.732 197.632C229.289 197.461 230.697 197.344 231.956 197.28C232.638 197.259 232.98 197.44 232.98 197.824C232.98 198.123 232.798 198.453 232.436 198.816C232.094 199.157 231.732 199.36 231.348 199.424C230.068 199.659 228.809 199.851 227.572 200L227.412 203.648C227.241 207.211 227.156 209.205 227.156 209.632C227.134 210.059 226.846 210.432 226.292 210.752C225.758 211.072 225.214 211.232 224.66 211.232C224.34 211.232 224.073 211.168 223.86 211.04C223.646 210.891 223.54 210.677 223.54 210.4C223.54 208.587 223.646 205.931 223.86 202.432L223.956 200.384L220.308 200.736C219.945 200.779 219.678 200.747 219.508 200.64C219.316 200.533 219.22 200.373 219.22 200.16C219.22 199.84 219.401 199.499 219.764 199.136C220.105 198.773 220.478 198.571 220.884 198.528L224.084 198.112C224.212 196.256 224.361 194.752 224.532 193.6C224.724 192.427 225.033 190.933 225.46 189.12C225.78 187.883 226.132 186.805 226.516 185.888C226.9 184.949 227.454 184.149 228.18 183.488C228.905 182.827 229.822 182.496 230.932 182.496Z" fill="#1C1E22"/>
<defs>
<clipPath id="clip0_877_4796">
<rect width="258.269" height="46.7585" fill="white" transform="matrix(0.999989 -0.0045933 0.00750731 0.999972 24.2891 1.18555)"/>
</clipPath>
</defs>
</svg>
