<svg width="183" height="216" viewBox="0 0 183 216" fill="none" xmlns="http://www.w3.org/2000/svg">
<path d="M179 216L179 0L-1.52588e-05 0L-1.52588e-05 216L179 216Z" fill="#004E4D"/>
<rect x="179" width="216" height="10" transform="rotate(90 179 0)" fill="#007B79"/>
<rect x="153" width="216" height="10" transform="rotate(90 153 0)" fill="#007B79"/>
<rect x="127" width="216" height="10" transform="rotate(90 127 0)" fill="#007B79"/>
<rect x="101" width="216" height="10" transform="rotate(90 101 0)" fill="#007B79"/>
<rect x="75" width="216" height="10" transform="rotate(90 75 0)" fill="#007B79"/>
<rect x="49" width="216" height="10" transform="rotate(90 49 0)" fill="#007B79"/>
<rect x="23" width="216" height="10" transform="rotate(90 23 0)" fill="#007B79"/>
<path d="M21.0001 69.5C20.5001 77.5 21.0001 107 21.0001 107V116L121.5 115C121.5 106.833 121.4 87.2 121 74C120.5 57.5 112.5 44.5 102.5 36C92.5001 27.5 74.5001 22.5 58.0001 27C41.5001 31.5 34 40.5 29.0001 47.5C24.0001 54.5 21.5001 61.5 21.0001 69.5Z" fill="#A20E38"/>
<circle cx="72" cy="19" r="16" fill="white"/>
<circle cx="21" cy="118" r="13" fill="white"/>
<circle cx="40" cy="118" r="13" fill="white"/>
<circle cx="59" cy="118" r="13" fill="white"/>
<circle cx="80" cy="118" r="13" fill="white"/>
<circle cx="97" cy="118" r="13" fill="white"/>
<circle cx="118" cy="118" r="13" fill="white"/>
<path d="M105.328 187.848H120.496V201H73.36V187.848H89.68V153.096L74.32 157.8V143.112L95.632 135.72H105.328V187.848ZM148.648 187.848H171.976V201H125.416V193.224L147.4 167.88C152.296 162.12 155.464 158.568 155.464 154.632C155.464 151.368 153.256 148.2 147.88 148.2C142.888 148.2 140.008 151.272 139.528 156.456H124.072C124.456 143.016 133.672 134.472 148.552 134.472C163.432 134.472 171.496 143.304 171.496 154.728C171.496 160.968 167.944 166.248 160.168 174.984L148.648 187.848Z" fill="white"/>
</svg>
