<svg width="180" height="329" viewBox="0 0 180 329" fill="none" xmlns="http://www.w3.org/2000/svg">
<path d="M180 329L180 0L0 0L0 329L180 329Z" fill="#FF7591"/>
<path d="M-7.62939e-05 154.391L-7.62939e-05 118.55L115.932 329H94.5762L-7.62939e-05 154.391Z" fill="#007B79"/>
<path d="M6.10352e-05 88.2236V45.9498L156.102 329H135.254L6.10352e-05 88.2236Z" fill="#007B79"/>
<path d="M35.0847 0L54.4068 0L180 226.992V264.67L35.0847 0Z" fill="#007B79"/>
<path d="M75.2542 0L95.0847 0L180 153.472L180 192.989L75.2542 0Z" fill="#007B79"/>
<path d="M114.915 0L135.763 0L180 80.8715V119.469L114.915 0Z" fill="#007B79"/>
<path d="M154.576 0L180 0V45.9497L154.576 0Z" fill="#007B79"/>
<path d="M7.62939e-05 231.587L7.62939e-05 191.151L74.7458 329H55.4238L7.62939e-05 231.587Z" fill="#007B79"/>
<path d="M3.8147e-06 297.754L3.8147e-06 262.832L35.0847 329H14.7458L3.8147e-06 297.754Z" fill="#007B79"/>
<path d="M0 0L15.2542 0L180 295.916L180 329H176.949H174.407L0 11.0279V0Z" fill="#007B79"/>
<path d="M74.328 188.337H89.496V201.489H42.36V188.337H58.68L58.68 153.585L43.32 158.289V143.601L64.632 136.209H74.328V188.337ZM132.823 168.753C138.391 171.249 142.135 175.665 142.135 182.673C142.135 194.385 132.151 202.737 118.231 202.737C103.927 202.737 94.4228 194.961 92.8867 182.385H108.055C108.823 186.801 112.663 189.681 118.231 189.681C123.415 189.681 127.255 186.705 127.255 182.385C127.255 177.873 123.319 175.089 117.079 175.089H111.703V163.185H117.079C122.455 163.185 125.815 160.113 125.815 155.697C125.815 151.185 122.455 148.305 117.655 148.305C112.471 148.305 109.111 151.281 108.727 155.889H93.6548C94.4228 143.697 103.351 134.961 117.751 134.961C131.383 134.961 140.311 143.313 140.311 155.313C140.311 161.745 137.335 166.065 132.823 168.753Z" fill="white"/>
</svg>
