<svg width="180" height="333" viewBox="0 0 180 333" fill="none" xmlns="http://www.w3.org/2000/svg">
<path d="M180 333L180 0L0 0L0 333L180 333Z" fill="#FF7591"/>
<path d="M-7.62939e-05 156.268L-7.62939e-05 119.992L115.932 333H94.5762L-7.62939e-05 156.268Z" fill="#007B79"/>
<path d="M6.10352e-05 89.2962V46.5085L156.102 333H135.254L6.10352e-05 89.2962Z" fill="#007B79"/>
<path d="M35.0847 0L54.4068 0L180 229.751V267.888L35.0847 0Z" fill="#007B79"/>
<path d="M75.2542 0L95.0847 0L180 155.338L180 195.335L75.2542 0Z" fill="#007B79"/>
<path d="M114.915 0L135.763 0L180 81.8547V120.922L114.915 0Z" fill="#007B79"/>
<path d="M154.576 0L180 0V46.5084L154.576 0Z" fill="#007B79"/>
<path d="M7.62939e-05 234.402L7.62939e-05 193.475L74.7458 333H55.4238L7.62939e-05 234.402Z" fill="#007B79"/>
<path d="M3.8147e-06 301.374L3.8147e-06 266.028L35.0847 333H14.7458L3.8147e-06 301.374Z" fill="#007B79"/>
<path d="M0 0L15.2542 0L180 299.514L180 333H176.949H174.407L0 11.162V0Z" fill="#007B79"/>
<path d="M74.328 189.827H89.496V202.979H42.36V189.827H58.68L58.68 155.075L43.32 159.779V145.091L64.632 137.699H74.328V189.827ZM132.823 170.243C138.391 172.739 142.135 177.155 142.135 184.163C142.135 195.875 132.151 204.227 118.231 204.227C103.927 204.227 94.4228 196.451 92.8867 183.875H108.055C108.823 188.291 112.663 191.171 118.231 191.171C123.415 191.171 127.255 188.195 127.255 183.875C127.255 179.363 123.319 176.579 117.079 176.579H111.703V164.675H117.079C122.455 164.675 125.815 161.603 125.815 157.187C125.815 152.675 122.455 149.795 117.655 149.795C112.471 149.795 109.111 152.771 108.727 157.379H93.6548C94.4228 145.187 103.351 136.451 117.751 136.451C131.383 136.451 140.311 144.803 140.311 156.803C140.311 163.235 137.335 167.555 132.823 170.243Z" fill="white"/>
</svg>
