<svg width="180" height="325" viewBox="0 0 180 325" fill="none" xmlns="http://www.w3.org/2000/svg">
<path d="M180 325L180 0L0 0L0 325L180 325Z" fill="#FF7591"/>
<path d="M-7.62939e-05 152.514L-7.62939e-05 117.109L115.932 325H94.5762L-7.62939e-05 152.514Z" fill="#007B79"/>
<path d="M6.10352e-05 87.1509V45.3912L156.102 325H135.254L6.10352e-05 87.1509Z" fill="#007B79"/>
<path d="M35.0847 0L54.4068 0L180 224.232V261.452L35.0847 0Z" fill="#007B79"/>
<path d="M75.2542 0L95.0847 0L180 151.606L180 190.642L75.2542 0Z" fill="#007B79"/>
<path d="M114.915 0L135.763 0L180 79.8883V118.017L114.915 0Z" fill="#007B79"/>
<path d="M154.576 0L180 0V45.3911L154.576 0Z" fill="#007B79"/>
<path d="M7.62939e-05 228.771L7.62939e-05 188.827L74.7458 325H55.4238L7.62939e-05 228.771Z" fill="#007B79"/>
<path d="M3.8147e-06 294.134L3.8147e-06 259.636L35.0847 325H14.7458L3.8147e-06 294.134Z" fill="#007B79"/>
<path d="M0 0L15.2542 0L180 292.318L180 325H176.949H174.407L0 10.8939V0Z" fill="#007B79"/>
<path d="M74.328 186.848H89.496V200H42.36V186.848H58.68L58.68 152.096L43.32 156.8V142.112L64.632 134.72H74.328V186.848ZM132.823 167.264C138.391 169.76 142.135 174.176 142.135 181.184C142.135 192.896 132.151 201.248 118.231 201.248C103.927 201.248 94.4228 193.472 92.8867 180.896H108.055C108.823 185.312 112.663 188.192 118.231 188.192C123.415 188.192 127.255 185.216 127.255 180.896C127.255 176.384 123.319 173.6 117.079 173.6H111.703V161.696H117.079C122.455 161.696 125.815 158.624 125.815 154.208C125.815 149.696 122.455 146.816 117.655 146.816C112.471 146.816 109.111 149.792 108.727 154.4H93.6548C94.4228 142.208 103.351 133.472 117.751 133.472C131.383 133.472 140.311 141.824 140.311 153.824C140.311 160.256 137.335 164.576 132.823 167.264Z" fill="white"/>
</svg>
