<svg width="180" height="331" viewBox="0 0 180 331" fill="none" xmlns="http://www.w3.org/2000/svg">
<path d="M180 331L180 0L0 0L0 331L180 331Z" fill="#FF7591"/>
<path d="M-7.62939e-05 155.33L-7.62939e-05 119.271L115.932 331H94.5762L-7.62939e-05 155.33Z" fill="#007B79"/>
<path d="M6.10352e-05 88.7599V46.2292L156.102 331H135.254L6.10352e-05 88.7599Z" fill="#007B79"/>
<path d="M35.0847 0L54.4068 0L180 228.371V266.279L35.0847 0Z" fill="#007B79"/>
<path d="M75.2542 0L95.0847 0L180 154.405L180 194.162L75.2542 0Z" fill="#007B79"/>
<path d="M114.915 0L135.763 0L180 81.3631V120.196L114.915 0Z" fill="#007B79"/>
<path d="M154.576 0L180 0V46.229L154.576 0Z" fill="#007B79"/>
<path d="M7.62939e-05 232.994L7.62939e-05 192.313L74.7458 331H55.4238L7.62939e-05 232.994Z" fill="#007B79"/>
<path d="M3.8147e-06 299.564L3.8147e-06 264.43L35.0847 331H14.7458L3.8147e-06 299.564Z" fill="#007B79"/>
<path d="M0 0L15.2542 0L180 297.715L180 331H176.949H174.407L0 11.095V0Z" fill="#007B79"/>
<path d="M74.328 189.082H89.496V202.234H42.36V189.082H58.68L58.68 154.33L43.32 159.034V144.346L64.632 136.954H74.328V189.082ZM132.823 169.498C138.391 171.994 142.135 176.41 142.135 183.418C142.135 195.13 132.151 203.482 118.231 203.482C103.927 203.482 94.4228 195.706 92.8867 183.13H108.055C108.823 187.546 112.663 190.426 118.231 190.426C123.415 190.426 127.255 187.45 127.255 183.13C127.255 178.618 123.319 175.834 117.079 175.834H111.703V163.93H117.079C122.455 163.93 125.815 160.858 125.815 156.442C125.815 151.93 122.455 149.05 117.655 149.05C112.471 149.05 109.111 152.026 108.727 156.634H93.6548C94.4228 144.442 103.351 135.706 117.751 135.706C131.383 135.706 140.311 144.058 140.311 156.058C140.311 162.49 137.335 166.81 132.823 169.498Z" fill="white"/>
</svg>
