<svg width="180" height="325" viewBox="0 0 180 325" fill="none" xmlns="http://www.w3.org/2000/svg">
<path d="M179.234 325L179.234 0L3.05176e-05 0L3.05176e-05 325L179.234 325Z" fill="#FF7591"/>
<path d="M-7.62939e-06 152.514L-7.62939e-06 117.109L115.439 325H94.174L-7.62939e-06 152.514Z" fill="#007B79"/>
<path d="M7.62939e-05 87.1509V45.3912L155.438 325H134.679L7.62939e-05 87.1509Z" fill="#007B79"/>
<path d="M34.9355 0L54.1754 0L179.234 224.232V261.452L34.9355 0Z" fill="#007B79"/>
<path d="M74.9342 0L94.6804 0L179.234 151.606L179.234 190.642L74.9342 0Z" fill="#007B79"/>
<path d="M114.427 0L135.185 0L179.234 79.8883V118.017L114.427 0Z" fill="#007B79"/>
<path d="M153.919 0L179.234 0V45.3911L153.919 0Z" fill="#007B79"/>
<path d="M9.15527e-05 228.771L9.15527e-05 188.827L74.428 325H55.1881L9.15527e-05 228.771Z" fill="#007B79"/>
<path d="M1.52588e-05 294.134L1.52588e-05 259.636L34.9355 325H14.6831L1.52588e-05 294.134Z" fill="#007B79"/>
<path d="M3.05176e-05 0L15.1894 0L179.234 292.318L179.234 325H176.197H173.665L3.05176e-05 10.8939V0Z" fill="#007B79"/>
<path d="M69.328 158.705H84.496V171.857H37.36V158.705H53.68L53.68 123.953L38.32 128.657V113.969L59.632 106.577H69.328V158.705ZM127.823 139.121C133.391 141.617 137.135 146.033 137.135 153.041C137.135 164.753 127.151 173.105 113.231 173.105C98.9268 173.105 89.4228 165.329 87.8867 152.753H103.055C103.823 157.169 107.663 160.049 113.231 160.049C118.415 160.049 122.255 157.073 122.255 152.753C122.255 148.241 118.319 145.457 112.079 145.457H106.703V133.553H112.079C117.455 133.553 120.815 130.481 120.815 126.065C120.815 121.553 117.455 118.673 112.655 118.673C107.471 118.673 104.111 121.649 103.727 126.257H88.6548C89.4228 114.065 98.3508 105.329 112.751 105.329C126.383 105.329 135.311 113.681 135.311 125.681C135.311 132.113 132.335 136.433 127.823 139.121Z" fill="white"/>
</svg>
