<svg width="180" height="216" viewBox="0 0 180 216" fill="none" xmlns="http://www.w3.org/2000/svg">
<path d="M-9.15527e-05 4.57764e-05V216H180V4.57764e-05H-9.15527e-05Z" fill="#004E4D"/>
<rect x="68.9999" y="132" width="99" height="75" fill="#A20E38"/>
<path d="M59 124.5C59 120.358 62.3579 117 66.5 117H172.5C176.642 117 180 120.358 180 124.5C180 128.642 176.642 132 172.5 132H66.5C62.3579 132 59 128.642 59 124.5Z" fill="white"/>
<rect x="117" y="132" width="6" height="75" fill="white"/>
<rect x="68.9999" y="169" width="6" height="99.0925" transform="rotate(-89.5485 68.9999 169)" fill="white"/>
<path fill-rule="evenodd" clip-rule="evenodd" d="M91.3917 119.538C100.748 129.312 113.075 132.697 118.924 127.098C124.773 121.499 121.93 109.036 112.573 99.2615C103.216 89.4871 90.8895 86.1024 85.0405 91.7015C79.1915 97.3007 82.035 109.763 91.3917 119.538ZM98.0188 115.675C105.513 123.503 113.911 127.625 116.778 124.881C119.644 122.137 115.893 113.567 108.399 105.738C100.905 97.9097 92.5062 93.7878 89.6398 96.5317C86.7735 99.2756 90.5249 107.846 98.0188 115.675Z" fill="white"/>
<path fill-rule="evenodd" clip-rule="evenodd" d="M122.909 98.2169C115.167 109.314 114.274 122.066 120.914 126.699C127.555 131.332 139.214 126.092 146.956 114.994C154.699 103.897 155.592 91.1456 148.951 86.5126C142.311 81.8796 130.651 87.1198 122.909 98.2169ZM128.001 103.954C121.8 112.842 119.411 121.888 122.665 124.158C125.919 126.428 133.584 121.064 139.785 112.176C145.986 103.288 148.375 94.2429 145.12 91.9724C141.866 89.702 134.201 95.0665 128.001 103.954Z" fill="white"/>
<path d="M45.328 65.848H60.496V79H13.36V65.848H29.68V31.096L14.32 35.8V21.112L35.632 13.72H45.328V65.848ZM120.712 53.944V67.48H112.552V79H97.288V67.48H64.072V57.4L81.832 13.72H97.384L82.024 53.944H97.288V35.992H112.552V53.944H120.712Z" fill="white"/>
</svg>
