<svg width="179" height="192" viewBox="0 0 179 192" fill="none" xmlns="http://www.w3.org/2000/svg">
<path d="M179 0H0V192H179V0Z" fill="#004E4D"/>
<path d="M84 192H64.5L179 68.339V91.1187L84 192Z" fill="#007B79"/>
<path d="M48 192H25L179 25.4915V47.7288L48 192Z" fill="#007B79"/>
<path d="M0 154.576V133.966L123.5 0H144L0 154.576Z" fill="#007B79"/>
<path d="M0 111.729V90.5763L83.5 0H105L0 111.729Z" fill="#007B79"/>
<path d="M0 69.4237V47.1864L44 0H65L0 69.4237Z" fill="#007B79"/>
<path d="M0 27.1186V0H25L0 27.1186Z" fill="#007B79"/>
<path d="M126 192H104L179 112.271V132.881L126 192Z" fill="#007B79"/>
<path d="M162 192H143L179 154.576V176.271L162 192Z" fill="#007B79"/>
<path d="M0 192V175.729L161 0H179V3.25424V5.9661L6 192H0Z" fill="#007B79"/>
<path d="M20.9999 41V151.5C21.5 151.5 28.4998 151 33.9998 157.5C36.3252 160.248 39.1665 165.833 39.4998 170C71.8331 170.333 139 172 139 170C139 167.5 141 162 145 157.5C148.545 153.511 153.166 152 157.5 152L156.5 40C153 40 149.8 40.4 145 38C140.2 35.6 138.5 27.3333 138.5 24H39.4998C38.8331 27 37.4999 34 33.4999 37C30.0982 39.5512 24.4999 41 20.9999 41Z" stroke="white" stroke-width="7"/>
<path d="M68.328 117.848H83.496V131H36.36V117.848H52.68V83.096L37.32 87.8V73.112L58.632 65.72H68.328V117.848ZM115.008 88.568C129.696 88.568 138.336 97.784 138.336 109.784C138.336 123.224 128.256 132.248 113.568 132.248C99.168 132.248 89.568 123.992 88.128 111.608H103.392C104.64 116.12 108.096 118.904 113.856 118.904C119.52 118.904 123.552 115.352 123.552 109.88C123.552 104.6 119.328 101.144 112.704 101.144H91.488V65.72H135.264V79.544H106.08L105.984 88.568H115.008Z" fill="white"/>
</svg>
