<svg width="199" height="218" viewBox="0 0 199 218" fill="none" xmlns="http://www.w3.org/2000/svg">
<path d="M184 0H5L5.5 218H184V0Z" fill="#A20E38"/>
<path d="M58.6336 144.304V147.562H61.4838V144.304L63.1125 139.825L61.4838 136.975V135.346L70.0345 130.053L71.6632 125.981H66.7771L61.4838 132.903V127.203L73.292 120.688L74.5135 115.395H68.813L61.4838 124.353V118.245L76.5494 109.694L77.3637 103.587L70.8489 104.808L61.4838 114.988L63.1125 100.329L59.4479 93L55.3761 100.329L58.6336 114.988L48.4541 103.587H41.9393L43.568 109.694L58.6336 118.245V124.353L49.6757 114.988H44.7895L46.8254 120.688L59.0407 127.203V132.903L52.9331 125.981H48.0469L49.2685 130.053L59.0407 135.346V136.975L57.0049 139.825L58.6336 144.304Z" fill="white"/>
<path d="M61.0766 160.999L61.0766 157.741L58.2264 157.741L58.2264 160.999L56.5977 165.478L58.2264 168.328L58.2264 169.957L49.6757 175.25L48.0469 179.322L52.9331 179.322L58.2264 172.4L58.2264 178.1L46.4182 184.615L45.1967 189.908L50.8972 189.908L58.2264 180.95L58.2264 187.058L43.1608 195.609L42.3465 201.716L48.8613 200.495L58.2264 190.315L56.5977 204.974L60.2623 212.303L64.334 204.974L61.0766 190.315L71.2561 201.716L77.7709 201.716L76.1422 195.609L61.0766 187.058L61.0766 180.95L70.0345 190.315L74.9207 190.315L72.8848 184.615L60.6695 178.1L60.6695 172.4L66.7771 179.322L71.6632 179.322L70.4417 175.25L60.6695 169.957L60.6695 168.328L62.7053 165.478L61.0766 160.999Z" fill="white"/>
<path d="M65.339 147.733L62.5741 149.455L64.0811 151.874L66.846 150.152L71.5089 149.166L73.067 146.277L74.4494 145.416L83.4633 149.875L87.7806 149.104L85.1971 144.957L76.5231 144.124L81.3616 141.11L93.1346 147.688L98.2734 145.926L95.2594 141.088L83.7809 139.603L88.965 136.374L104.188 144.64L109.803 142.102L105.322 137.218L91.7299 134.652L105.033 128.284L109.316 121.298L100.943 121.717L90.2229 132.232L94.5178 117.564L91.0732 112.034L86.7502 116.646L87.458 133.955L82.2739 137.184L85.4866 124.629L82.9032 120.482L79.1411 125.224L80.0699 139.036L75.2314 142.05L77.8774 133.206L75.294 129.059L72.4838 132.249L73.1577 143.342L71.7753 144.203L68.2796 143.982L65.339 147.733Z" fill="white"/>
<path d="M53.796 157.675L56.617 156.046L55.1919 153.578L52.3709 155.207L47.6776 156.036L46.0236 158.871L44.6131 159.686L35.7536 154.927L31.413 155.552L33.856 159.784L42.4973 160.907L37.5606 163.757L26.0145 156.789L20.8196 158.377L23.6698 163.314L35.0922 165.182L29.8028 168.236L14.8648 159.464L9.16828 161.813L13.4836 166.844L26.9818 169.865L13.4729 175.784L8.9579 182.622L17.3411 182.484L28.4069 172.333L23.6231 186.849L26.8805 192.491L31.3555 188.027L31.2279 170.705L36.5173 167.651L32.8858 180.091L35.3289 184.323L39.2477 179.709L38.7821 165.873L43.7189 163.023L40.778 171.773L43.2211 176.005L46.1366 172.911L45.8346 161.801L47.2451 160.987L50.7314 161.325L53.796 157.675Z" fill="white"/>
<path d="M68.0135 155.229L65.1533 153.67L63.7894 156.173L66.6496 157.731L69.8031 161.305L73.0852 161.239L74.5154 162.018L75.0716 172.059L77.8675 175.438L80.2057 171.147L76.6606 163.187L81.666 165.915L81.7361 179.401L85.7995 183.006L88.5273 178.001L84.1687 167.279L89.5317 170.201L89.8307 187.522L94.8041 191.159L96.8489 184.854L92.392 171.76L104.484 180.205L112.673 180.494L108.186 173.411L93.7559 169.257L108.638 165.775L111.755 160.054L105.613 158.562L90.8956 167.699L85.5326 164.776L98.0424 161.392L100.381 157.101L94.4009 156.161L82.8351 163.77L77.8296 161.042L86.8303 158.991L89.1684 154.701L85.0086 153.825L75.6844 159.873L74.2543 159.093L72.7258 155.942L68.0135 155.229Z" fill="white"/>
<path d="M52.6639 149.881L55.3621 151.706L56.9589 149.345L54.2607 147.52L51.4632 143.661L48.1898 143.413L46.8407 142.501L47.2467 132.453L44.7865 128.822L42.049 132.87L44.8171 141.132L40.0952 137.938L41.3144 124.508L37.6142 120.53L34.4205 125.252L37.7343 136.342L32.6752 132.92L34.033 115.65L29.4301 111.554L26.792 117.634L29.977 131.095L18.7476 121.533L10.6236 120.463L14.4133 127.941L28.3802 133.456L13.2334 135.5L9.58347 140.897L15.5551 142.969L31.0784 135.281L36.1375 138.703L23.3615 140.876L20.624 144.923L26.4864 146.43L38.7265 139.962L43.4483 143.156L34.2928 144.337L31.5554 148.384L35.6125 149.654L45.472 144.525L46.8211 145.437L48.0414 148.72L52.6639 149.881Z" fill="white"/>
<circle cx="60.2623" cy="152.855" r="5.70049" fill="white"/>
<path d="M142.488 122.802V124.44H143.921V122.802L144.741 120.549L143.921 119.116V118.297L148.222 115.635L149.041 113.587H146.584L143.921 117.068V114.201L149.86 110.925L150.474 108.263H147.608L143.921 112.768V109.696L151.498 105.396L151.908 102.324L148.631 102.939L143.921 108.058L144.741 100.686L142.898 97L140.85 100.686L142.488 108.058L137.369 102.324H134.092L134.911 105.396L142.488 109.696V112.768L137.983 108.058H135.526L136.549 110.925L142.693 114.201V117.068L139.621 113.587H137.164L137.778 115.635L142.693 118.297V119.116L141.669 120.549L142.488 122.802Z" fill="white"/>
<path d="M143.717 131.198L143.717 129.56L142.283 129.56L142.283 131.198L141.464 133.451L142.283 134.884L142.283 135.703L137.983 138.365L137.164 140.413L139.621 140.413L142.283 136.932L142.283 139.799L136.345 143.075L135.73 145.737L138.597 145.737L142.283 141.232L142.283 144.304L134.706 148.604L134.297 151.676L137.573 151.061L142.283 145.942L141.464 153.314L143.307 157L145.355 153.314L143.717 145.942L148.836 151.676L152.113 151.676L151.294 148.604L143.717 144.304L143.717 141.232L148.222 145.942L150.679 145.942L149.655 143.075L143.512 139.799L143.512 136.932L146.584 140.413L149.041 140.413L148.427 138.365L143.512 135.703L143.512 134.884L144.536 133.451L143.717 131.198Z" fill="white"/>
<path d="M145.86 124.526L144.47 125.392L145.228 126.609L146.618 125.743L148.963 125.247L149.747 123.794L150.442 123.361L154.975 125.604L157.147 125.216L155.847 123.13L151.485 122.711L153.918 121.196L159.839 124.504L162.424 123.618L160.908 121.184L155.135 120.438L157.742 118.814L165.399 122.971L168.222 121.695L165.968 119.238L159.133 117.947L165.823 114.745L167.977 111.232L163.766 111.442L158.375 116.731L160.535 109.354L158.803 106.573L156.629 108.892L156.984 117.597L154.377 119.221L155.993 112.907L154.694 110.821L152.802 113.206L153.269 120.153L150.835 121.668L152.166 117.221L150.867 115.135L149.454 116.739L149.793 122.318L149.097 122.751L147.339 122.64L145.86 124.526Z" fill="white"/>
<path d="M140.055 129.526L141.474 128.707L140.757 127.466L139.338 128.285L136.978 128.702L136.146 130.128L135.437 130.538L130.981 128.144L128.798 128.459L130.027 130.587L134.373 131.152L131.89 132.585L126.083 129.081L123.471 129.88L124.904 132.362L130.649 133.302L127.988 134.838L120.476 130.426L117.611 131.608L119.781 134.138L126.57 135.657L119.776 138.634L117.505 142.073L121.721 142.003L127.286 136.898L124.881 144.199L126.519 147.036L128.769 144.791L128.705 136.079L131.365 134.543L129.539 140.8L130.768 142.928L132.739 140.608L132.504 133.649L134.987 132.216L133.508 136.617L134.737 138.745L136.203 137.189L136.051 131.602L136.761 131.192L138.514 131.362L140.055 129.526Z" fill="white"/>
<path d="M147.205 128.296L145.767 127.512L145.081 128.771L146.519 129.555L148.105 131.352L149.756 131.319L150.475 131.711L150.755 136.761L152.161 138.46L153.337 136.302L151.554 132.299L154.072 133.67L154.107 140.453L156.15 142.266L157.522 139.749L155.33 134.356L158.027 135.826L158.178 144.537L160.679 146.366L161.707 143.196L159.466 136.61L165.547 140.857L169.666 141.003L167.409 137.441L160.152 135.351L167.636 133.6L169.204 130.723L166.115 129.972L158.713 134.568L156.016 133.098L162.308 131.396L163.483 129.238L160.476 128.765L154.659 132.592L152.142 131.22L156.669 130.188L157.845 128.031L155.753 127.59L151.063 130.632L150.344 130.24L149.575 128.655L147.205 128.296Z" fill="white"/>
<path d="M139.486 125.606L140.843 126.524L141.646 125.337L140.289 124.419L138.882 122.479L137.236 122.354L136.557 121.895L136.761 116.842L135.524 115.016L134.147 117.051L135.539 121.207L133.165 119.601L133.778 112.846L131.917 110.846L130.311 113.22L131.977 118.797L129.433 117.077L130.116 108.391L127.801 106.331L126.474 109.389L128.076 116.159L122.429 111.35L118.343 110.812L120.249 114.573L127.273 117.346L119.655 118.374L117.82 121.088L120.823 122.131L128.63 118.264L131.174 119.985L124.749 121.078L123.372 123.113L126.321 123.871L132.476 120.618L134.851 122.224L130.247 122.818L128.87 124.854L130.91 125.492L135.869 122.913L136.547 123.372L137.161 125.023L139.486 125.606Z" fill="white"/>
<circle cx="143.307" cy="127.102" r="2.86689" fill="white"/>
<path d="M137.89 184.529V185.579H138.809V184.529L139.333 183.086L138.809 182.168V181.643L141.564 179.938L142.088 178.626H140.514L138.809 180.856V179.019L142.613 176.92L143.007 175.215H141.17L138.809 178.101V176.133L143.662 173.379L143.925 171.411L141.826 171.804L138.809 175.084L139.333 170.361L138.153 168L136.841 170.361L137.89 175.084L134.611 171.411H132.512L133.037 173.379L137.89 176.133V178.101L135.004 175.084H133.43L134.086 176.92L138.022 179.019V180.856L136.054 178.626H134.48L134.873 179.938L138.022 181.643V182.168L137.366 183.086L137.89 184.529Z" fill="white"/>
<path d="M138.678 189.908L138.678 188.858L137.759 188.858L137.759 189.908L137.235 191.351L137.759 192.269L137.759 192.794L135.004 194.499L134.48 195.811L136.054 195.811L137.759 193.581L137.759 195.417L133.955 197.516L133.561 199.222L135.398 199.222L137.759 196.336L137.759 198.303L132.905 201.058L132.643 203.026L134.742 202.632L137.759 199.353L137.235 204.075L138.415 206.437L139.727 204.075L138.678 199.353L141.957 203.026L144.056 203.026L143.531 201.058L138.678 198.303L138.678 196.336L141.564 199.353L143.138 199.353L142.482 197.516L138.546 195.417L138.546 193.581L140.514 195.811L142.088 195.811L141.695 194.499L138.546 192.794L138.546 192.269L139.202 191.351L138.678 189.908Z" fill="white"/>
<path d="M140.051 185.634L139.16 186.189L139.646 186.968L140.536 186.413L142.039 186.096L142.541 185.165L142.986 184.887L145.89 186.324L147.281 186.076L146.449 184.739L143.654 184.471L145.213 183.5L149.006 185.619L150.661 185.052L149.69 183.493L145.992 183.014L147.663 181.974L152.567 184.637L154.376 183.82L152.932 182.246L148.553 181.419L152.839 179.368L154.219 177.117L151.521 177.252L148.068 180.64L149.452 175.914L148.342 174.132L146.949 175.618L147.177 181.195L145.507 182.235L146.542 178.19L145.71 176.854L144.497 178.382L144.797 182.832L143.238 183.803L144.09 180.954L143.258 179.617L142.353 180.645L142.57 184.219L142.124 184.497L140.998 184.425L140.051 185.634Z" fill="white"/>
<path d="M136.332 188.837L137.241 188.312L136.782 187.517L135.873 188.042L134.361 188.309L133.828 189.222L133.373 189.485L130.519 187.951L129.121 188.153L129.908 189.516L132.692 189.878L131.101 190.796L127.381 188.551L125.708 189.063L126.626 190.654L130.306 191.256L128.602 192.239L123.789 189.413L121.954 190.17L123.344 191.791L127.693 192.764L123.341 194.671L121.886 196.874L124.587 196.83L128.152 193.559L126.611 198.236L127.66 200.054L129.102 198.616L129.061 193.035L130.765 192.051L129.595 196.059L130.382 197.422L131.645 195.936L131.495 191.478L133.085 190.56L132.138 193.379L132.925 194.742L133.864 193.746L133.767 190.166L134.221 189.904L135.345 190.013L136.332 188.837Z" fill="white"/>
<path d="M140.912 188.049L139.991 187.547L139.552 188.353L140.473 188.855L141.489 190.006L142.546 189.985L143.007 190.236L143.186 193.471L144.087 194.56L144.84 193.177L143.698 190.613L145.311 191.492L145.334 195.836L146.643 196.998L147.522 195.385L146.117 191.931L147.845 192.873L147.941 198.453L149.544 199.625L150.203 197.593L148.767 193.375L152.662 196.095L155.301 196.189L153.855 193.907L149.206 192.568L154.001 191.446L155.005 189.603L153.026 189.122L148.285 192.066L146.557 191.125L150.587 190.034L151.34 188.652L149.414 188.349L145.688 190.8L144.075 189.922L146.975 189.261L147.728 187.879L146.388 187.596L143.384 189.545L142.923 189.294L142.431 188.278L140.912 188.049Z" fill="white"/>
<path d="M135.967 186.326L136.836 186.914L137.351 186.153L136.482 185.565L135.58 184.322L134.526 184.242L134.091 183.948L134.222 180.711L133.429 179.541L132.547 180.845L133.439 183.507L131.918 182.478L132.311 178.151L131.118 176.87L130.09 178.391L131.157 181.964L129.527 180.861L129.965 175.297L128.482 173.978L127.632 175.937L128.658 180.273L125.04 177.193L122.423 176.848L123.644 179.257L128.143 181.034L123.264 181.693L122.088 183.431L124.011 184.099L129.013 181.622L130.643 182.724L126.527 183.424L125.645 184.728L127.533 185.214L131.477 183.13L132.998 184.159L130.048 184.54L129.166 185.844L130.474 186.253L133.65 184.6L134.085 184.894L134.478 185.952L135.967 186.326Z" fill="white"/>
<circle cx="138.415" cy="187.284" r="1.83657" fill="white"/>
<path d="M100.328 70.848H115.496V84H68.36V70.848H84.68V36.096L69.32 40.8V26.112L90.632 18.72H100.328V70.848ZM147.584 38.208C162.08 38.976 171.872 48.768 171.872 61.248C171.872 74.88 161.12 85.248 145.472 85.248C129.728 85.248 119.168 74.688 119.168 61.536C119.168 56.16 121.376 51.168 124.736 45.696L141.728 18.72H160.064L147.584 38.208ZM145.472 72.288C152.096 72.288 156.608 67.296 156.608 61.824C156.608 56.352 152.192 51.264 145.472 51.264C142.592 51.264 139.808 52.032 137.792 53.472L137.408 54.144C135.104 57.408 134.24 59.52 134.24 61.92C134.24 67.296 138.848 72.288 145.472 72.288Z" fill="white"/>
</svg>
