<svg width="179" height="179" viewBox="0 0 179 179" fill="none" xmlns="http://www.w3.org/2000/svg">
<path d="M179 0H0V179H179V0Z" fill="#A20E38"/>
<rect y="5.0565" width="179" height="10" fill="#F5B335"/>
<rect y="31.0565" width="179" height="10" fill="#F5B335"/>
<rect y="57.0565" width="179" height="10" fill="#F5B335"/>
<rect y="83.0565" width="179" height="10" fill="#F5B335"/>
<rect y="109.057" width="179" height="10" fill="#F5B335"/>
<rect y="135.057" width="179" height="10" fill="#F5B335"/>
<rect y="161.057" width="179" height="10" fill="#F5B335"/>
<path d="M31.1608 138.141V139.039H31.9464V138.141L32.3953 136.906L31.9464 136.121V135.672L34.3032 134.213L34.7521 133.09H33.4053L31.9464 134.998V133.427L35.201 131.631L35.5377 130.173H33.9665L31.9464 132.642V130.958L36.0988 128.601L36.3233 126.918L34.5276 127.255L31.9464 130.06L32.3953 126.02L31.3852 124L30.263 126.02L31.1608 130.06L28.3551 126.918H26.5594L27.0084 128.601L31.1608 130.958V132.642L28.6918 130.06H27.345L27.9062 131.631L31.273 133.427V134.998L29.5896 133.09H28.2429L28.5795 134.213L31.273 135.672V136.121L30.7119 136.906L31.1608 138.141Z" fill="white"/>
<path d="M31.8341 142.742L31.8341 141.844L31.0486 141.844L31.0486 142.742L30.5996 143.977L31.0486 144.762L31.0486 145.211L28.6918 146.67L28.2429 147.792L29.5896 147.792L31.0486 145.884L31.0486 147.456L27.7939 149.251L27.4573 150.71L29.0285 150.71L31.0486 148.241L31.0486 149.925L26.8961 152.281L26.6717 153.965L28.4673 153.628L31.0486 150.822L30.5996 154.863L31.6097 156.883L32.732 154.863L31.8341 150.822L34.6398 153.965L36.4355 153.965L35.9866 152.281L31.8341 149.925L31.8341 148.241L34.3032 150.822L35.6499 150.822L35.0888 149.251L31.7219 147.456L31.7219 145.884L33.4053 147.792L34.7521 147.792L34.4154 146.67L31.7219 145.211L31.7219 144.762L32.2831 143.977L31.8341 142.742Z" fill="white"/>
<path d="M33.009 139.086L32.2469 139.56L32.6623 140.227L33.4244 139.752L34.7096 139.481L35.139 138.684L35.52 138.447L38.0045 139.676L39.1944 139.464L38.4824 138.321L36.0916 138.091L37.4252 137.26L40.6701 139.073L42.0865 138.588L41.2558 137.254L38.092 136.845L39.5209 135.955L43.7168 138.233L45.2643 137.534L44.0292 136.188L40.2829 135.48L43.9496 133.725L45.1302 131.8L42.8222 131.915L39.8676 134.813L41.0514 130.77L40.102 129.246L38.9104 130.517L39.1055 135.288L37.6766 136.178L38.5622 132.718L37.8501 131.575L36.8132 132.882L37.0692 136.689L35.7356 137.519L36.4649 135.082L35.7528 133.939L34.9783 134.818L35.164 137.875L34.783 138.113L33.8195 138.052L33.009 139.086Z" fill="white"/>
<path d="M29.8274 141.826L30.605 141.377L30.2122 140.697L29.4346 141.146L28.1411 141.374L27.6852 142.156L27.2964 142.38L24.8545 141.069L23.6581 141.241L24.3315 142.407L26.7133 142.717L25.3526 143.502L22.1702 141.582L20.7384 142.02L21.5239 143.38L24.6722 143.895L23.2143 144.737L19.0971 142.319L17.527 142.966L18.7164 144.353L22.4368 145.186L18.7134 146.817L17.469 148.702L19.7796 148.664L22.8296 145.866L21.5111 149.867L22.4089 151.422L23.6423 150.192L23.6071 145.417L25.065 144.576L24.0641 148.004L24.7375 149.171L25.8176 147.899L25.6893 144.086L27.0499 143.3L26.2394 145.712L26.9128 146.878L27.7163 146.025L27.6331 142.963L28.0219 142.739L28.9828 142.832L29.8274 141.826Z" fill="white"/>
<path d="M33.7461 141.152L32.9578 140.722L32.5818 141.412L33.3702 141.842L34.2394 142.826L35.144 142.808L35.5382 143.023L35.6915 145.791L36.4621 146.722L37.1066 145.539L36.1294 143.345L37.5091 144.097L37.5284 147.814L38.6483 148.808L39.4002 147.428L38.1989 144.473L39.677 145.279L39.7595 150.052L41.1302 151.055L41.6938 149.317L40.4654 145.708L43.7982 148.036L46.0553 148.115L44.8186 146.163L40.8413 145.018L44.9432 144.058L45.8024 142.482L44.1094 142.07L40.053 144.589L38.5748 143.783L42.0228 142.85L42.6672 141.668L41.0191 141.409L37.8313 143.506L36.4517 142.754L38.9325 142.189L39.5769 141.006L38.4303 140.765L35.8604 142.432L35.4662 142.217L35.0449 141.348L33.7461 141.152Z" fill="white"/>
<path d="M29.5154 139.678L30.2591 140.181L30.6992 139.53L29.9555 139.027L29.1845 137.963L28.2822 137.895L27.9104 137.644L28.0223 134.874L27.3442 133.873L26.5897 134.989L27.3526 137.266L26.0512 136.386L26.3872 132.684L25.3673 131.588L24.4871 132.889L25.4004 135.946L24.006 135.003L24.3803 130.243L23.1116 129.114L22.3845 130.79L23.2624 134.5L20.1673 131.864L17.9281 131.569L18.9726 133.631L22.8222 135.151L18.6474 135.714L17.6414 137.201L19.2873 137.773L23.5659 135.654L24.9603 136.597L21.4389 137.196L20.6844 138.311L22.3003 138.727L25.6739 136.944L26.9754 137.824L24.4519 138.15L23.6974 139.265L24.8156 139.615L27.5331 138.201L27.905 138.453L28.2413 139.358L29.5154 139.678Z" fill="white"/>
<circle cx="31.6097" cy="140.497" r="1.57119" fill="white"/>
<path d="M52.1608 27.1407V28.0385H52.9464V27.1407L53.3953 25.9062L52.9464 25.1206V24.6717L55.3032 23.2127L55.7521 22.0905H54.4053L52.9464 23.9983V22.4271L56.201 20.6315L56.5377 19.1725H54.9665L52.9464 21.6415V19.9581L57.0988 17.6013L57.3233 15.9179L55.5276 16.2546L52.9464 19.0603L53.3953 15.0201L52.3852 13L51.263 15.0201L52.1608 19.0603L49.3551 15.9179H47.5594L48.0084 17.6013L52.1608 19.9581V21.6415L49.6918 19.0603H48.345L48.9062 20.6315L52.273 22.4271V23.9983L50.5896 22.0905H49.2429L49.5795 23.2127L52.273 24.6717V25.1206L51.7119 25.9062L52.1608 27.1407Z" fill="white"/>
<path d="M52.8341 31.742L52.8341 30.8442L52.0486 30.8442L52.0486 31.742L51.5996 32.9766L52.0486 33.7621L52.0486 34.2111L49.6918 35.67L49.2429 36.7923L50.5896 36.7923L52.0486 34.8844L52.0486 36.4556L48.7939 38.2513L48.4573 39.7102L50.0285 39.7102L52.0486 37.2412L52.0486 38.9246L47.8961 41.2814L47.6717 42.9648L49.4673 42.6281L52.0486 39.8225L51.5996 43.8627L52.6097 45.8828L53.732 43.8627L52.8341 39.8225L55.6398 42.9648L57.4355 42.9648L56.9866 41.2814L52.8341 38.9246L52.8341 37.2412L55.3032 39.8225L56.6499 39.8225L56.0888 38.2513L52.7219 36.4556L52.7219 34.8844L54.4053 36.7923L55.7521 36.7923L55.4154 35.67L52.7219 34.2111L52.7219 33.7621L53.2831 32.9766L52.8341 31.742Z" fill="white"/>
<path d="M54.009 28.0857L53.2469 28.5604L53.6623 29.2272L54.4244 28.7525L55.7096 28.4808L56.139 27.6844L56.52 27.447L59.0045 28.6761L60.1944 28.4637L59.4824 27.3206L57.0916 27.091L58.4252 26.2603L61.6701 28.0734L63.0865 27.5877L62.2558 26.2541L59.092 25.8449L60.5209 24.9549L64.7168 27.2333L66.2643 26.5338L65.0292 25.1876L61.2829 24.4801L64.9496 22.725L66.1302 20.7996L63.8222 20.9151L60.8676 23.8133L62.0514 19.7704L61.102 18.2463L59.9104 19.5174L60.1055 24.288L58.6766 25.1781L59.5622 21.7177L58.8501 20.5746L57.8132 21.8816L58.0692 25.6887L56.7356 26.5195L57.4649 24.0818L56.7528 22.9388L55.9783 23.8179L56.164 26.8755L55.783 27.1128L54.8195 27.0519L54.009 28.0857Z" fill="white"/>
<path d="M50.8274 30.8259L51.605 30.377L51.2122 29.6967L50.4346 30.1456L49.1411 30.3741L48.6852 31.1556L48.2964 31.3801L45.8545 30.0685L44.6581 30.2409L45.3315 31.4072L47.7133 31.7168L46.3526 32.5024L43.1702 30.5816L41.7384 31.0195L42.5239 32.3802L45.6722 32.8952L44.2143 33.7369L40.0971 31.3192L38.527 31.9665L39.7164 33.3532L43.4368 34.1858L39.7134 35.8171L38.469 37.7019L40.7796 37.6638L43.8296 34.8661L42.5111 38.8671L43.4089 40.4222L44.6423 39.1917L44.6071 34.4172L46.065 33.5755L45.0641 37.0044L45.7375 38.1707L46.8176 36.8991L46.6893 33.0855L48.0499 32.2999L47.2394 34.7118L47.9128 35.8781L48.7163 35.0253L48.6331 31.9633L49.0219 31.7388L49.9828 31.832L50.8274 30.8259Z" fill="white"/>
<path d="M54.7461 30.1517L53.9578 29.7221L53.5818 30.4119L54.3702 30.8415L55.2394 31.8264L56.144 31.8082L56.5382 32.023L56.6915 34.7906L57.4621 35.7218L58.1066 34.5392L57.1294 32.3452L58.5091 33.0971L58.5284 36.8141L59.6483 37.8079L60.4002 36.4283L59.1989 33.473L60.677 34.2785L60.7595 39.0524L62.1302 40.0551L62.6938 38.3173L61.4654 34.7082L64.7982 37.0356L67.0553 37.1154L65.8186 35.1633L61.8413 34.0183L65.9432 33.0584L66.8024 31.4817L65.1094 31.0703L61.053 33.5887L59.5748 32.7832L63.0228 31.8504L63.6672 30.6678L62.0191 30.4087L58.8313 32.5058L57.4517 31.7539L59.9325 31.1887L60.5769 30.0062L59.4303 29.7648L56.8604 31.4317L56.4662 31.2169L56.0449 30.3483L54.7461 30.1517Z" fill="white"/>
<path d="M50.5154 28.6776L51.2591 29.1806L51.6992 28.5299L50.9555 28.0269L50.1845 26.9634L49.2822 26.8951L48.9104 26.6436L49.0223 23.8741L48.3442 22.8735L47.5897 23.989L48.3526 26.2664L47.0512 25.3861L47.3872 21.6842L46.3673 20.588L45.4871 21.8894L46.4004 24.946L45.006 24.0028L45.3803 19.2429L44.1116 18.1138L43.3845 19.7898L44.2624 23.4998L41.1673 20.8644L38.9281 20.5693L39.9726 22.6307L43.8222 24.1505L39.6474 24.714L38.6414 26.2014L40.2873 26.7727L44.5659 24.6536L45.9603 25.5967L42.4389 26.1957L41.6844 27.3112L43.3003 27.7267L46.6739 25.9439L47.9754 26.8241L45.4519 27.1497L44.6974 28.2652L45.8156 28.6151L48.5331 27.2014L48.905 27.4529L49.2413 28.3578L50.5154 28.6776Z" fill="white"/>
<circle cx="52.6097" cy="29.4975" r="1.57119" fill="white"/>
<path d="M153.161 29.1407V30.0385H153.946V29.1407L154.395 27.9062L153.946 27.1206V26.6717L156.303 25.2127L156.752 24.0905H155.405L153.946 25.9983V24.4271L157.201 22.6315L157.538 21.1725H155.966L153.946 23.6415V21.9581L158.099 19.6013L158.323 17.9179L156.528 18.2546L153.946 21.0603L154.395 17.0201L153.385 15L152.263 17.0201L153.161 21.0603L150.355 17.9179H148.559L149.008 19.6013L153.161 21.9581V23.6415L150.692 21.0603H149.345L149.906 22.6315L153.273 24.4271V25.9983L151.59 24.0905H150.243L150.58 25.2127L153.273 26.6717V27.1206L152.712 27.9062L153.161 29.1407Z" fill="white"/>
<path d="M153.834 33.742L153.834 32.8442L153.049 32.8442L153.049 33.742L152.6 34.9766L153.049 35.7621L153.049 36.2111L150.692 37.67L150.243 38.7923L151.59 38.7923L153.049 36.8844L153.049 38.4556L149.794 40.2513L149.457 41.7102L151.028 41.7102L153.049 39.2412L153.049 40.9246L148.896 43.2814L148.672 44.9648L150.467 44.6281L153.049 41.8225L152.6 45.8627L153.61 47.8828L154.732 45.8627L153.834 41.8225L156.64 44.9648L158.435 44.9648L157.987 43.2814L153.834 40.9246L153.834 39.2412L156.303 41.8225L157.65 41.8225L157.089 40.2513L153.722 38.4556L153.722 36.8844L155.405 38.7923L156.752 38.7923L156.415 37.67L153.722 36.2111L153.722 35.7621L154.283 34.9766L153.834 33.742Z" fill="white"/>
<path d="M155.009 30.0857L154.247 30.5604L154.662 31.2272L155.424 30.7525L156.71 30.4808L157.139 29.6844L157.52 29.447L160.004 30.6761L161.194 30.4637L160.482 29.3206L158.092 29.091L159.425 28.2603L162.67 30.0734L164.086 29.5877L163.256 28.2541L160.092 27.8449L161.521 26.9549L165.717 29.2333L167.264 28.5338L166.029 27.1876L162.283 26.4801L165.95 24.725L167.13 22.7996L164.822 22.9151L161.868 25.8133L163.051 21.7704L162.102 20.2463L160.91 21.5174L161.106 26.288L159.677 27.1781L160.562 23.7177L159.85 22.5746L158.813 23.8816L159.069 27.6887L157.736 28.5195L158.465 26.0818L157.753 24.9388L156.978 25.8179L157.164 28.8755L156.783 29.1128L155.819 29.0519L155.009 30.0857Z" fill="white"/>
<path d="M151.827 32.8259L152.605 32.377L152.212 31.6967L151.435 32.1456L150.141 32.3741L149.685 33.1556L149.296 33.3801L146.855 32.0685L145.658 32.2409L146.332 33.4072L148.713 33.7168L147.353 34.5024L144.17 32.5816L142.738 33.0195L143.524 34.3802L146.672 34.8952L145.214 35.7369L141.097 33.3192L139.527 33.9665L140.716 35.3532L144.437 36.1858L140.713 37.8171L139.469 39.7019L141.78 39.6638L144.83 36.8661L143.511 40.8671L144.409 42.4222L145.642 41.1917L145.607 36.4172L147.065 35.5755L146.064 39.0044L146.737 40.1707L147.818 38.8991L147.689 35.0855L149.05 34.2999L148.239 36.7118L148.913 37.8781L149.716 37.0253L149.633 33.9633L150.022 33.7388L150.983 33.832L151.827 32.8259Z" fill="white"/>
<path d="M155.746 32.1517L154.958 31.7221L154.582 32.4119L155.37 32.8415L156.239 33.8264L157.144 33.8082L157.538 34.023L157.691 36.7906L158.462 37.7218L159.107 36.5392L158.129 34.3452L159.509 35.0971L159.528 38.8141L160.648 39.8079L161.4 38.4283L160.199 35.473L161.677 36.2785L161.759 41.0524L163.13 42.0551L163.694 40.3173L162.465 36.7082L165.798 39.0356L168.055 39.1154L166.819 37.1633L162.841 36.0183L166.943 35.0584L167.802 33.4817L166.109 33.0703L162.053 35.5887L160.575 34.7832L164.023 33.8504L164.667 32.6678L163.019 32.4087L159.831 34.5058L158.452 33.7539L160.932 33.1887L161.577 32.0062L160.43 31.7648L157.86 33.4317L157.466 33.2169L157.045 32.3483L155.746 32.1517Z" fill="white"/>
<path d="M151.515 30.6776L152.259 31.1806L152.699 30.5299L151.956 30.0269L151.184 28.9634L150.282 28.8951L149.91 28.6436L150.022 25.8741L149.344 24.8735L148.59 25.989L149.353 28.2664L148.051 27.3861L148.387 23.6842L147.367 22.588L146.487 23.8894L147.4 26.946L146.006 26.0028L146.38 21.2429L145.112 20.1138L144.384 21.7898L145.262 25.4998L142.167 22.8644L139.928 22.5693L140.973 24.6307L144.822 26.1505L140.647 26.714L139.641 28.2014L141.287 28.7727L145.566 26.6536L146.96 27.5967L143.439 28.1957L142.684 29.3112L144.3 29.7267L147.674 27.9439L148.975 28.8241L146.452 29.1497L145.697 30.2652L146.816 30.6151L149.533 29.2014L149.905 29.4529L150.241 30.3578L151.515 30.6776Z" fill="white"/>
<circle cx="153.61" cy="31.4975" r="1.57119" fill="white"/>
<circle cx="14.5" cy="70.5" r="3.5" fill="white"/>
<circle cx="92.5" cy="35.5" r="3.5" fill="white"/>
<circle cx="95.5" cy="156.5" r="3.5" fill="white"/>
<circle cx="151.5" cy="132.5" r="3.5" fill="white"/>
<path d="M79.328 109.848H94.496V123H47.36V109.848H63.68V75.096L48.32 79.8V65.112L69.632 57.72H79.328V109.848ZM95.3038 57.72H142.92V66.84L117.864 123H100.2L123.24 72.216H95.3038V57.72Z" fill="white"/>
</svg>
