<svg width="180" height="179" viewBox="0 0 180 179" fill="none" xmlns="http://www.w3.org/2000/svg">
<path d="M180 0H0V179H180V0Z" fill="#FF1053"/>
<rect y="5" width="180" height="10" fill="#004E4D"/>
<rect y="31" width="180" height="10" fill="#004E4D"/>
<rect y="57" width="180" height="10" fill="#004E4D"/>
<rect y="83" width="180" height="10" fill="#004E4D"/>
<rect y="109" width="180" height="10" fill="#004E4D"/>
<rect y="135" width="180" height="10" fill="#004E4D"/>
<rect y="161" width="180" height="10" fill="#004E4D"/>
<path d="M71.5291 104.848H86.6971V118H39.5611V104.848H55.8811V70.096L40.5211 74.8V60.112L61.8331 52.72H71.5291V104.848ZM132.705 83.344C139.329 86.608 143.169 92.176 143.169 99.088C143.169 111.376 133.377 119.248 116.769 119.248C100.257 119.248 90.3691 111.376 90.3691 99.088C90.3691 92.176 94.2091 86.608 100.833 83.344C95.9371 80.464 93.0571 75.856 93.0571 70.096C93.0571 58.96 102.945 51.472 116.769 51.472C130.593 51.472 140.385 58.96 140.385 70.096C140.385 75.856 137.505 80.368 132.705 83.344ZM116.769 63.184C111.489 63.184 107.841 66.448 107.841 71.056C107.841 75.568 111.489 79.12 116.769 79.12C122.049 79.12 125.793 75.472 125.793 71.056C125.793 66.544 122.049 63.184 116.769 63.184ZM116.769 106.576C122.433 106.576 126.657 102.832 126.657 98.032C126.657 93.232 122.433 89.584 116.769 89.584C111.105 89.584 106.977 93.136 106.977 98.032C106.977 102.928 111.105 106.576 116.769 106.576Z" fill="white"/>
</svg>
