<svg width="179" height="179" viewBox="0 0 179 179" fill="none" xmlns="http://www.w3.org/2000/svg">
<path d="M179 0H0V179H179V0Z" fill="#FF1053"/>
<rect y="5.05652" width="179" height="10" fill="#004E4D"/>
<rect y="31.0565" width="179" height="10" fill="#004E4D"/>
<rect y="57.0565" width="179" height="10" fill="#004E4D"/>
<rect y="83.0565" width="179" height="10" fill="#004E4D"/>
<rect y="109.057" width="179" height="10" fill="#004E4D"/>
<rect y="135.057" width="179" height="10" fill="#004E4D"/>
<rect y="161.057" width="179" height="10" fill="#004E4D"/>
<path d="M71.328 104.848H86.496V118H39.36V104.848H55.68V70.096L40.32 74.8V60.112L61.632 52.72H71.328V104.848ZM132.504 83.344C139.128 86.608 142.968 92.176 142.968 99.088C142.968 111.376 133.176 119.248 116.568 119.248C100.056 119.248 90.168 111.376 90.168 99.088C90.168 92.176 94.008 86.608 100.632 83.344C95.736 80.464 92.856 75.856 92.856 70.096C92.856 58.96 102.744 51.472 116.568 51.472C130.392 51.472 140.184 58.96 140.184 70.096C140.184 75.856 137.304 80.368 132.504 83.344ZM116.568 63.184C111.288 63.184 107.64 66.448 107.64 71.056C107.64 75.568 111.288 79.12 116.568 79.12C121.848 79.12 125.592 75.472 125.592 71.056C125.592 66.544 121.848 63.184 116.568 63.184ZM116.568 106.576C122.232 106.576 126.456 102.832 126.456 98.032C126.456 93.232 122.232 89.584 116.568 89.584C110.904 89.584 106.776 93.136 106.776 98.032C106.776 102.928 110.904 106.576 116.568 106.576Z" fill="white"/>
</svg>
