<svg width="179" height="151" viewBox="0 0 179 151" fill="none" xmlns="http://www.w3.org/2000/svg">
<path d="M179 0H0V151H179V0Z" fill="#F5B335"/>
<path d="M84 151H64.5L179 53.7458V71.661L84 151Z" fill="#FF7591"/>
<path d="M48 151H25L179 20.048V37.5367L48 151Z" fill="#FF7591"/>
<path d="M0 121.568V105.359L123.5 0H144L0 121.568Z" fill="#FF7591"/>
<path d="M0 87.8701V71.2345L83.5 0H105L0 87.8701Z" fill="#FF7591"/>
<path d="M0 54.5989V37.1102L44 0H65L0 54.5989Z" fill="#FF7591"/>
<path d="M0 21.3277V0H25L0 21.3277Z" fill="#FF7591"/>
<path d="M126 151H104L179 88.2966V104.506L126 151Z" fill="#FF7591"/>
<path d="M162 151H143L179 121.568V138.63L162 151Z" fill="#FF7591"/>
<path d="M0 151V138.203L161 0H179V2.55932V4.69209L6 151H0Z" fill="#FF7591"/>
<path d="M72.328 92.848H87.496V106H40.36V92.848H56.68V58.096L41.32 62.8V48.112L62.632 40.72H72.328V92.848ZM113.164 39.472C128.908 39.472 139.468 50.032 139.468 63.184C139.468 68.56 137.26 73.552 133.9 79.024L116.908 106H98.572L111.052 86.512C96.556 85.744 86.764 75.952 86.764 63.472C86.764 49.84 97.516 39.472 113.164 39.472ZM120.844 71.248L121.228 70.576C123.532 67.312 124.396 65.2 124.396 62.8C124.396 57.424 119.788 52.432 113.164 52.432C106.54 52.432 102.028 57.424 102.028 62.896C102.028 68.368 106.444 73.456 113.164 73.456C116.044 73.456 118.828 72.688 120.844 71.248Z" fill="white"/>
</svg>
