<svg width="180" height="153" viewBox="0 0 180 153" fill="none" xmlns="http://www.w3.org/2000/svg">
<path d="M0 0V152V153H180V0H0Z" fill="#007B79"/>
<rect x="15.0782" y="14" width="149.844" height="126" fill="#007B79"/>
<rect x="15.0782" y="14" width="149.844" height="126" stroke="white" stroke-width="2" stroke-dasharray="4 4"/>
<path d="M92.0055 95.848H115.334V109H68.7735V101.224L90.7575 75.88C95.6535 70.12 98.8215 66.568 98.8215 62.632C98.8215 59.368 96.6135 56.2 91.2375 56.2C86.2455 56.2 83.3655 59.272 82.8855 64.456H67.4295C67.8135 51.016 77.0295 42.472 91.9095 42.472C106.79 42.472 114.854 51.304 114.854 62.728C114.854 68.968 111.302 74.248 103.526 82.984L92.0055 95.848Z" fill="white"/>
</svg>
