<svg width="179" height="153" viewBox="0 0 179 153" fill="none" xmlns="http://www.w3.org/2000/svg">
<path d="M0 0V152V153H179V0H0Z" fill="#007B79"/>
<rect x="15" y="14" width="149" height="126" fill="#007B79"/>
<rect x="15" y="14" width="149" height="126" stroke="white" stroke-width="2" stroke-dasharray="4 4"/>
<path d="M91.648 95.848H114.976V109H68.416V101.224L90.4 75.88C95.296 70.12 98.464 66.568 98.464 62.632C98.464 59.368 96.256 56.2 90.88 56.2C85.888 56.2 83.008 59.272 82.528 64.456H67.072C67.456 51.016 76.672 42.472 91.552 42.472C106.432 42.472 114.496 51.304 114.496 62.728C114.496 68.968 110.944 74.248 103.168 82.984L91.648 95.848Z" fill="white"/>
</svg>
