<svg width="179" height="164" viewBox="0 0 179 164" fill="none" xmlns="http://www.w3.org/2000/svg">
<path d="M179 0H0V164H179V0Z" fill="#F5B335"/>
<rect x="18.5" y="21.3503" width="142" height="121.299" fill="#F5B335"/>
<rect x="18.5" y="21.3503" width="142" height="121.299" stroke="white" stroke-width="7"/>
<rect x="27" y="30.0068" width="126" height="102.871" fill="#F5B335"/>
<rect x="27" y="30.0068" width="126" height="102.871" stroke="white" stroke-width="2" stroke-dasharray="4 4"/>
<path d="M58.648 104.848H81.976V118H35.416V110.224L57.4 84.88C62.296 79.12 65.464 75.568 65.464 71.632C65.464 68.368 63.256 65.2 57.88 65.2C52.888 65.2 50.008 68.272 49.528 73.456H34.072C34.456 60.016 43.672 51.472 58.552 51.472C73.432 51.472 81.496 60.304 81.496 71.728C81.496 77.968 77.944 83.248 70.168 91.984L58.648 104.848ZM119.745 51.472C138.561 51.472 149.985 65.584 149.985 85.36C149.985 105.136 138.561 119.248 119.745 119.248C100.929 119.248 89.5053 105.136 89.5053 85.36C89.5053 65.584 100.929 51.472 119.745 51.472ZM119.745 105.136C129.441 105.136 134.625 96.688 134.625 85.36C134.625 74.032 129.441 65.584 119.745 65.584C110.049 65.584 104.865 74.032 104.865 85.36C104.865 96.688 110.049 105.136 119.745 105.136Z" fill="white"/>
</svg>
