<svg width="225" height="206" viewBox="0 0 225 206" fill="none" xmlns="http://www.w3.org/2000/svg">
<path d="M18 200V8.99482V8H198V200H18Z" fill="#004E4D"/>
<path d="M109.531 113.481V167.058H109.524C109.417 176.487 101.749 184.094 92.2942 184.094C87.868 184.094 83.8301 182.427 80.7765 179.681C77.3145 176.567 75.1248 172.067 75.0646 167.058H75.0579V112.845C75.0177 112.537 74.944 112.236 74.8302 111.961C74.3615 110.823 73.2633 110.019 71.9575 110.019C71.4285 110.019 70.9396 110.146 70.5044 110.374C70.1562 110.555 69.8481 110.803 69.587 111.091C69.1718 111.559 68.9575 112.175 68.8839 112.798C68.8638 112.999 68.837 113.213 68.8102 113.361C68.5357 115.195 67.9799 116.93 67.1763 118.523C66.8683 119.14 66.5268 119.722 66.1518 120.285C63.0714 124.952 57.7746 128.032 51.768 128.032C42.5405 128.032 35.0138 120.787 34.5518 111.68C34.5384 111.385 34.5317 111.091 34.5317 110.796C34.5317 110.079 34.5719 109.376 34.6589 108.687C34.746 107.97 34.8799 107.26 35.054 106.57C35.8642 101.763 37.5852 97.2626 40.0428 93.2582C43.6521 87.3587 48.8618 82.5307 55.0626 79.3834C59.8974 76.9258 65.3415 75.4861 71.107 75.3455C76.6047 75.2116 81.8413 76.2897 86.5756 78.3321C94.3031 81.6668 100.705 87.5663 104.77 94.9457C107.803 100.45 109.531 106.778 109.531 113.481Z" fill="#E6243C"/>
<path d="M104.77 94.9457C99.2517 102.62 88.33 115.463 75.0579 118.765V112.845C75.0177 112.537 74.944 112.236 74.8302 111.961C78.473 106.671 87.3858 92.2203 86.5756 78.3321C94.3031 81.6668 100.705 87.5663 104.77 94.9457Z" fill="white"/>
<path d="M70.5044 110.374C70.1562 110.555 69.8482 110.803 69.587 111.09C69.1718 111.559 68.9576 112.175 68.8839 112.798C68.8638 112.999 68.837 113.213 68.8102 113.361C68.5357 115.195 67.9799 116.93 67.1763 118.523C67.0022 118.202 56.8305 99.0639 40.0428 93.2582C43.6521 87.3587 48.8619 82.5306 55.0627 79.3834C60.0648 84.2047 70.9932 96.392 70.5044 110.374Z" fill="white"/>
<path d="M109.531 114.439V133.041C102.573 138.077 88.3501 147.137 75.0579 148.027V131.722C81.339 129.867 100.243 123.713 109.531 114.439Z" fill="white"/>
<path d="M109.531 148.175V166.402C102.928 171.003 91.8121 177.699 80.7765 179.681C77.3145 176.567 75.1248 172.067 75.0646 167.058H75.0579V164.353C78.0779 163.529 98.5218 157.664 109.531 148.175Z" fill="white"/>
<path d="M66.1518 120.285C63.0714 124.952 57.7746 128.032 51.768 128.032C42.5405 128.032 35.0138 120.787 34.5518 111.68C34.5384 111.385 34.5317 111.091 34.5317 110.796C34.5317 110.079 34.5719 109.376 34.6589 108.687C41.5427 109.919 55.7791 113.166 66.1518 120.285Z" fill="white"/>
<path d="M92.3436 184C87.9782 184 83.7945 182.406 80.5524 179.518C76.9741 176.329 74.862 171.794 74.7141 167.031H74.7073V166.698L74.6939 112.697C74.667 112.45 74.5997 112.183 74.4988 111.943C74.0616 110.896 73.0527 110.215 71.9227 110.215C71.4585 110.215 71.0213 110.322 70.6178 110.529C70.3151 110.682 70.0393 110.902 69.7904 111.169C69.3734 111.636 69.2187 112.256 69.1716 112.683C69.1514 112.883 69.1245 113.11 69.0976 113.264C68.8286 115.071 68.277 116.805 67.4631 118.426L67.4295 118.506C67.1201 119.113 66.7636 119.714 66.3802 120.287C63.1045 125.21 57.5957 128.151 51.6497 128.151C42.2397 128.151 34.4977 120.854 34.0202 111.549C34.0067 111.249 34 110.949 34 110.649C34 109.909 34.0471 109.188 34.1278 108.508C34.2152 107.794 34.3498 107.074 34.5314 106.36C35.3385 101.624 37.0335 97.122 39.5828 93.0065C43.2621 87.0435 48.522 82.221 54.8043 79.066C59.8692 76.5114 65.3444 75.144 71.0617 75.0106C76.51 74.8839 81.7766 75.8911 86.7406 78.0122C94.496 81.3272 101.041 87.2569 105.177 94.7074C108.332 100.384 110 106.827 110 113.33L109.987 167.031C109.704 176.416 101.861 184 92.3503 184H92.3436ZM75.3665 166.484V166.691C75.427 171.387 77.4785 175.882 80.9964 179.017C84.1174 181.799 88.1397 183.326 92.3436 183.326C101.599 183.326 109.206 175.862 109.314 166.684V166.037V113.324C109.314 106.934 107.673 100.604 104.572 95.0209C100.509 87.7038 94.0722 81.8742 86.4581 78.6191C81.5816 76.5314 76.4023 75.5442 71.0617 75.671C65.4385 75.8044 60.0643 77.1451 55.0868 79.6597C48.9188 82.7613 43.7463 87.5037 40.1343 93.3534C37.6322 97.3955 35.9641 101.811 35.1704 106.493C34.9888 107.201 34.861 107.901 34.7735 108.588C34.6928 109.242 34.6457 109.935 34.6457 110.649C34.6457 110.936 34.6457 111.223 34.6659 111.509C35.1233 120.474 42.5693 127.484 51.6228 127.484C57.3401 127.484 62.6337 124.656 65.7883 119.914C66.1448 119.38 66.4744 118.826 66.7636 118.266L66.7972 118.193C67.5977 116.619 68.1358 114.924 68.4048 113.15C68.4317 112.997 68.4586 112.797 68.4788 112.603C68.573 111.843 68.842 111.189 69.2658 110.716C69.5685 110.382 69.9115 110.122 70.2814 109.929C70.7792 109.668 71.324 109.535 71.8957 109.535C73.2948 109.535 74.5526 110.375 75.0907 111.676C75.2185 111.976 75.2992 112.303 75.3329 112.65V113.564L75.3396 166.478L75.3665 166.484Z" fill="#E6243C"/>
<circle cx="101.5" cy="48.5" r="3.5" fill="white"/>
<path d="M48.1608 33.1407V34.0385H48.9464V33.1407L49.3953 31.9062L48.9464 31.1206V30.6717L51.3032 29.2127L51.7521 28.0905H50.4053L48.9464 29.9983V28.4271L52.201 26.6315L52.5377 25.1725H50.9665L48.9464 27.6415V25.9581L53.0988 23.6013L53.3233 21.9179L51.5276 22.2546L48.9464 25.0603L49.3953 21.0201L48.3852 19L47.263 21.0201L48.1608 25.0603L45.3551 21.9179H43.5594L44.0084 23.6013L48.1608 25.9581V27.6415L45.6918 25.0603H44.345L44.9062 26.6315L48.273 28.4271V29.9983L46.5896 28.0905H45.2429L45.5795 29.2127L48.273 30.6717V31.1206L47.7119 31.9062L48.1608 33.1407Z" fill="white"/>
<path d="M48.8342 37.742L48.8342 36.8442L48.0486 36.8442L48.0486 37.742L47.5997 38.9766L48.0486 39.7621L48.0486 40.2111L45.6918 41.67L45.2429 42.7923L46.5896 42.7923L48.0486 40.8844L48.0486 42.4556L44.794 44.2513L44.4573 45.7102L46.0285 45.7102L48.0486 43.2412L48.0486 44.9246L43.8962 47.2814L43.6717 48.9648L45.4673 48.6281L48.0486 45.8225L47.5997 49.8627L48.6097 51.8828L49.732 49.8627L48.8342 45.8225L51.6399 48.9648L53.4355 48.9648L52.9866 47.2814L48.8342 44.9246L48.8342 43.2412L51.3032 45.8225L52.6499 45.8225L52.0888 44.2513L48.7219 42.4556L48.722 40.8844L50.4054 42.7923L51.7521 42.7923L51.4154 41.67L48.722 40.2111L48.722 39.7621L49.2831 38.9766L48.8342 37.742Z" fill="white"/>
<path d="M50.009 34.0857L49.2469 34.5604L49.6623 35.2272L50.4243 34.7525L51.7095 34.4808L52.139 33.6844L52.52 33.447L55.0045 34.6761L56.1944 34.4637L55.4823 33.3206L53.0916 33.091L54.4252 32.2603L57.6701 34.0734L59.0865 33.5877L58.2557 32.2541L55.092 31.8449L56.5209 30.9549L60.7168 33.2333L62.2643 32.5338L61.0291 31.1876L57.2829 30.4801L60.9496 28.725L62.1302 26.7996L59.8221 26.9151L56.8676 29.8133L58.0513 25.7704L57.1019 24.2463L55.9104 25.5174L56.1055 30.288L54.6766 31.1781L55.5621 27.7177L54.8501 26.5746L53.8131 27.8816L54.0691 31.6887L52.7355 32.5195L53.4649 30.0818L52.7528 28.9388L51.9782 29.8179L52.164 32.8755L51.783 33.1128L50.8195 33.0519L50.009 34.0857Z" fill="white"/>
<path d="M46.8274 36.8259L47.605 36.377L47.2122 35.6967L46.4346 36.1456L45.1411 36.3741L44.6852 37.1556L44.2964 37.3801L41.8545 36.0685L40.6581 36.2409L41.3315 37.4072L43.7133 37.7168L42.3526 38.5024L39.1702 36.5816L37.7384 37.0195L38.5239 38.3802L41.6722 38.8952L40.2143 39.7369L36.0971 37.3192L34.527 37.9665L35.7164 39.3532L39.4368 40.1858L35.7134 41.8171L34.469 43.7019L36.7796 43.6638L39.8296 40.8661L38.5111 44.8671L39.4089 46.4222L40.6423 45.1917L40.6071 40.4172L42.065 39.5755L41.0641 43.0044L41.7375 44.1707L42.8176 42.8991L42.6893 39.0855L44.0499 38.2999L43.2394 40.7118L43.9128 41.8781L44.7163 41.0253L44.6331 37.9633L45.0219 37.7388L45.9828 37.832L46.8274 36.8259Z" fill="white"/>
<path d="M50.7461 36.1517L49.9578 35.7221L49.5819 36.4119L50.3702 36.8415L51.2394 37.8264L52.144 37.8082L52.5382 38.023L52.6915 40.7906L53.4621 41.7218L54.1066 40.5392L53.1295 38.3452L54.5091 39.0971L54.5284 42.8141L55.6484 43.8079L56.4002 42.4283L55.1989 39.473L56.6771 40.2785L56.7595 45.0524L58.1302 46.0551L58.6939 44.3173L57.4654 40.7082L60.7982 43.0356L63.0554 43.1154L61.8186 41.1633L57.8414 40.0183L61.9432 39.0584L62.8024 37.4817L61.1095 37.0703L57.053 39.5887L55.5748 38.7832L59.0228 37.8504L59.6673 36.6678L58.0191 36.4087L54.8313 38.5058L53.4517 37.7539L55.9325 37.1887L56.5769 36.0062L55.4304 35.7648L52.8604 37.4317L52.4662 37.2169L52.0449 36.3483L50.7461 36.1517Z" fill="white"/>
<path d="M46.5154 34.6776L47.2591 35.1806L47.6992 34.5299L46.9555 34.0269L46.1845 32.9634L45.2823 32.8951L44.9104 32.6436L45.0223 29.8741L44.3442 28.8735L43.5897 29.989L44.3527 32.2664L43.0512 31.3861L43.3872 27.6842L42.3674 26.588L41.4871 27.8894L42.4005 30.946L41.0061 30.0028L41.3803 25.2429L40.1116 24.1138L39.3845 25.7898L40.2624 29.4998L37.1673 26.8645L34.9281 26.5693L35.9727 28.6307L39.8222 30.1506L35.6475 30.7141L34.6414 32.2014L36.2873 32.7727L40.5659 30.6536L41.9603 31.5967L38.439 32.1957L37.6845 33.3112L39.3003 33.7267L42.6739 31.9439L43.9754 32.8241L41.4519 33.1497L40.6974 34.2652L41.8156 34.6151L44.5332 33.2014L44.905 33.4529L45.2413 34.3578L46.5154 34.6776Z" fill="white"/>
<circle cx="48.6097" cy="35.4975" r="1.57119" fill="white"/>
<path d="M133.406 165.105V166.128H134.301V165.105L134.812 163.699L134.301 162.805V162.293L136.985 160.632L137.496 159.353H135.962L134.301 161.526V159.737L138.008 157.692L138.391 156.03H136.602L134.301 158.842V156.925L139.03 154.241L139.286 152.323L137.241 152.707L134.301 155.902L134.812 151.301L133.662 149L132.384 151.301L133.406 155.902L130.211 152.323H128.165L128.677 154.241L133.406 156.925V158.842L130.594 155.902H129.06L129.699 157.692L133.534 159.737V161.526L131.617 159.353H130.083L130.466 160.632L133.534 162.293V162.805L132.895 163.699L133.406 165.105Z" fill="white"/>
<path d="M134.173 170.346L134.173 169.323L133.278 169.323L133.278 170.346L132.767 171.752L133.278 172.647L133.278 173.158L130.594 174.82L130.083 176.098L131.617 176.098L133.278 173.925L133.278 175.714L129.571 177.759L129.188 179.421L130.977 179.421L133.278 176.609L133.278 178.526L128.549 181.211L128.293 183.128L130.338 182.744L133.278 179.549L132.767 184.15L133.917 186.451L135.196 184.15L134.173 179.549L137.368 183.128L139.414 183.128L138.902 181.211L134.173 178.526L134.173 176.609L136.985 179.549L138.519 179.549L137.88 177.759L134.045 175.714L134.045 173.925L135.962 176.098L137.496 176.098L137.113 174.82L134.045 173.158L134.045 172.647L134.684 171.752L134.173 170.346Z" fill="white"/>
<path d="M135.511 166.182L134.643 166.722L135.116 167.482L135.984 166.941L137.448 166.632L137.937 165.725L138.371 165.454L141.201 166.854L142.556 166.612L141.745 165.31L139.022 165.049L140.541 164.103L144.237 166.168L145.85 165.614L144.904 164.096L141.3 163.63L142.928 162.616L147.706 165.211L149.469 164.414L148.062 162.881L143.796 162.075L147.972 160.076L149.316 157.883L146.688 158.015L143.322 161.316L144.671 156.711L143.589 154.975L142.232 156.423L142.455 161.856L140.827 162.87L141.836 158.929L141.025 157.627L139.844 159.116L140.135 163.452L138.616 164.398L139.447 161.621L138.636 160.32L137.754 161.321L137.965 164.803L137.531 165.074L136.434 165.004L135.511 166.182Z" fill="white"/>
<path d="M131.887 169.303L132.773 168.791L132.326 168.016L131.44 168.528L129.967 168.788L129.448 169.678L129.005 169.934L126.224 168.44L124.861 168.636L125.628 169.965L128.341 170.317L126.791 171.212L123.166 169.024L121.536 169.523L122.43 171.073L126.016 171.659L124.356 172.618L119.666 169.864L117.878 170.602L119.233 172.181L123.47 173.129L119.229 174.987L117.812 177.134L120.444 177.09L123.917 173.904L122.416 178.461L123.438 180.232L124.843 178.831L124.803 173.393L126.463 172.434L125.323 176.339L126.09 177.668L127.321 176.219L127.174 171.876L128.724 170.981L127.801 173.728L128.568 175.057L129.483 174.085L129.388 170.598L129.831 170.342L130.925 170.448L131.887 169.303Z" fill="white"/>
<path d="M136.351 168.535L135.453 168.045L135.025 168.831L135.922 169.32L136.912 170.442L137.943 170.421L138.392 170.666L138.566 173.818L139.444 174.879L140.178 173.532L139.065 171.033L140.636 171.889L140.658 176.123L141.934 177.254L142.79 175.683L141.422 172.317L143.105 173.235L143.199 178.672L144.761 179.814L145.402 177.835L144.003 173.724L147.799 176.375L150.37 176.466L148.961 174.242L144.432 172.938L149.103 171.845L150.082 170.049L148.154 169.581L143.534 172.449L141.85 171.532L145.777 170.469L146.511 169.122L144.634 168.827L141.003 171.216L139.432 170.359L142.257 169.716L142.991 168.369L141.686 168.094L138.759 169.992L138.31 169.748L137.83 168.758L136.351 168.535Z" fill="white"/>
<path d="M131.532 166.856L132.379 167.429L132.88 166.688L132.033 166.115L131.155 164.903L130.128 164.826L129.704 164.539L129.832 161.385L129.059 160.245L128.2 161.516L129.069 164.11L127.587 163.107L127.969 158.891L126.808 157.642L125.805 159.124L126.845 162.606L125.257 161.532L125.684 156.11L124.239 154.824L123.41 156.733L124.41 160.959L120.885 157.957L118.335 157.621L119.525 159.969L123.909 161.7L119.154 162.342L118.008 164.036L119.883 164.686L124.756 162.273L126.344 163.347L122.334 164.029L121.474 165.3L123.315 165.773L127.157 163.742L128.639 164.745L125.765 165.116L124.906 166.386L126.179 166.785L129.274 165.174L129.698 165.461L130.081 166.492L131.532 166.856Z" fill="white"/>
<circle cx="133.917" cy="167.79" r="1.78948" fill="white"/>
<path d="M44.3435 147.801V148.931H45.3324V147.801L45.8975 146.247L45.3324 145.258V144.693L48.2992 142.856L48.8643 141.443H47.169L45.3324 143.845V141.867L49.4294 139.607L49.8532 137.77H47.8754L45.3324 140.878V138.759L50.5596 135.792L50.8422 133.673L48.5818 134.097L45.3324 137.629L45.8975 132.543L44.6261 130L43.2133 132.543L44.3435 137.629L40.8117 133.673H38.5513L39.1164 135.792L44.3435 138.759V140.878L41.2355 137.629H39.5402L40.2466 139.607L44.4848 141.867V143.845L42.3657 141.443H40.6704L41.0942 142.856L44.4848 144.693V145.258L43.7784 146.247L44.3435 147.801Z" fill="white"/>
<path d="M45.1911 153.593L45.1911 152.463L44.2022 152.463L44.2022 153.593L43.6371 155.147L44.2022 156.136L44.2022 156.701L41.2355 158.537L40.6704 159.95L42.3657 159.95L44.2022 157.549L44.2022 159.526L40.1053 161.787L39.6814 163.623L41.6593 163.623L44.2022 160.515L44.2022 162.634L38.9751 165.601L38.6925 167.72L40.9529 167.297L44.2022 163.765L43.6371 168.851L44.9086 171.393L46.3213 168.851L45.1911 163.765L48.723 167.72L50.9834 167.72L50.4183 165.601L45.1911 162.634L45.1911 160.515L48.2992 163.765L49.9945 163.765L49.2881 161.787L45.0499 159.526L45.0499 157.549L47.169 159.95L48.8643 159.95L48.4405 158.537L45.0499 156.701L45.0499 156.136L45.7562 155.147L45.1911 153.593Z" fill="white"/>
<path d="M46.6701 148.99L45.7108 149.588L46.2337 150.427L47.193 149.83L48.8108 149.488L49.3514 148.485L49.831 148.186L52.9585 149.733L54.4564 149.466L53.5601 148.027L50.5505 147.738L52.2293 146.692L56.3141 148.975L58.097 148.363L57.0513 146.685L53.0687 146.169L54.8674 145.049L60.1493 147.917L62.0974 147.037L60.5425 145.342L55.8267 144.451L60.4423 142.242L61.9285 139.818L59.0231 139.964L55.3038 143.612L56.794 138.523L55.5989 136.604L54.0989 138.204L54.3445 144.21L52.5458 145.33L53.6605 140.974L52.7642 139.535L51.4589 141.18L51.7811 145.973L50.1023 147.019L51.0204 143.95L50.1241 142.511L49.149 143.618L49.3829 147.467L48.9032 147.766L47.6903 147.689L46.6701 148.99Z" fill="white"/>
<path d="M42.6651 152.44L43.6438 151.875L43.1494 151.018L42.1706 151.583L40.5422 151.871L39.9683 152.855L39.479 153.137L36.4051 151.486L34.899 151.703L35.7467 153.171L38.7449 153.561L37.032 154.55L33.026 152.132L31.2235 152.683L32.2125 154.396L36.1756 155.044L34.3404 156.104L29.1575 153.061L27.181 153.875L28.6782 155.621L33.3616 156.669L28.6745 158.723L27.108 161.095L30.0166 161.047L33.856 157.526L32.1963 162.562L33.3264 164.52L34.8791 162.971L34.8348 156.96L36.67 155.901L35.4101 160.217L36.2577 161.685L37.6174 160.085L37.4558 155.284L39.1687 154.295L38.1483 157.331L38.996 158.799L40.0076 157.726L39.9028 153.871L40.3922 153.589L41.6018 153.706L42.6651 152.44Z" fill="white"/>
<path d="M47.598 151.591L46.6056 151.05L46.1324 151.918L47.1248 152.459L48.2189 153.699L49.3577 153.676L49.8539 153.947L50.0468 157.43L51.0169 158.603L51.8282 157.114L50.5982 154.352L52.3348 155.299L52.3592 159.978L53.769 161.229L54.7154 159.492L53.2032 155.772L55.0639 156.786L55.1677 162.795L56.8932 164.057L57.6027 161.87L56.0563 157.327L60.2517 160.257L63.0931 160.357L61.5362 157.9L56.5296 156.458L61.693 155.25L62.7747 153.265L60.6435 152.747L55.5372 155.917L53.6764 154.903L58.0168 153.729L58.8281 152.241L56.7533 151.914L52.7405 154.554L51.0038 153.608L54.1267 152.896L54.9379 151.408L53.4946 151.104L50.2595 153.202L49.7633 152.932L49.2329 151.838L47.598 151.591Z" fill="white"/>
<path d="M42.2722 149.735L43.2084 150.369L43.7625 149.549L42.8263 148.916L41.8557 147.577L40.7199 147.491L40.2518 147.175L40.3927 143.689L39.5391 142.429L38.5893 143.833L39.5497 146.7L37.9114 145.592L38.3344 140.932L37.0506 139.552L35.9425 141.19L37.0923 145.038L35.337 143.851L35.8081 137.859L34.211 136.437L33.2957 138.547L34.4008 143.217L30.5046 139.9L27.6859 139.528L29.0008 142.123L33.8468 144.037L28.5914 144.746L27.325 146.618L29.3969 147.337L34.7829 144.67L36.5382 145.857L32.1055 146.611L31.1557 148.015L33.1897 148.538L37.4365 146.294L39.0748 147.402L35.8982 147.812L34.9484 149.216L36.3561 149.657L39.7769 147.877L40.245 148.194L40.6684 149.333L42.2722 149.735Z" fill="white"/>
<circle cx="44.9086" cy="150.767" r="1.97784" fill="white"/>
<circle cx="73.5" cy="20.5" r="3.5" fill="white"/>
<circle cx="30.5" cy="66.5" r="3.5" fill="white"/>
<circle cx="61.5" cy="184.5" r="3.5" fill="white"/>
<circle cx="175.5" cy="182.5" r="3.5" fill="white"/>
<circle cx="149.5" cy="120.5" r="3.5" fill="white"/>
<path d="M118.648 65.848H141.976V79H95.416V71.224L117.4 45.88C122.296 40.12 125.464 36.568 125.464 32.632C125.464 29.368 123.256 26.2 117.88 26.2C112.888 26.2 110.008 29.272 109.528 34.456H94.072C94.456 21.016 103.672 12.472 118.552 12.472C133.432 12.472 141.496 21.304 141.496 32.728C141.496 38.968 137.944 44.248 130.168 52.984L118.648 65.848ZM180.328 65.848H195.496V79H148.36V65.848H164.68V31.096L149.32 35.8V21.112L170.632 13.72H180.328V65.848Z" fill="white"/>
<path d="M181.161 101.141V102.039H181.946V101.141L182.395 99.9062L181.946 99.1206V98.6717L184.303 97.2127L184.752 96.0905H183.405L181.946 97.9983V96.4271L185.201 94.6315L185.538 93.1725H183.966L181.946 95.6415V93.9581L186.099 91.6013L186.323 89.9179L184.528 90.2546L181.946 93.0603L182.395 89.0201L181.385 87L180.263 89.0201L181.161 93.0603L178.355 89.9179H176.559L177.008 91.6013L181.161 93.9581V95.6415L178.692 93.0603H177.345L177.906 94.6315L181.273 96.4271V97.9983L179.59 96.0905H178.243L178.58 97.2127L181.273 98.6717V99.1206L180.712 99.9062L181.161 101.141Z" fill="white"/>
<path d="M181.834 105.742L181.834 104.844L181.049 104.844L181.049 105.742L180.6 106.977L181.049 107.762L181.049 108.211L178.692 109.67L178.243 110.792L179.59 110.792L181.049 108.884L181.049 110.456L177.794 112.251L177.457 113.71L179.028 113.71L181.049 111.241L181.049 112.925L176.896 115.281L176.672 116.965L178.467 116.628L181.049 113.822L180.6 117.863L181.61 119.883L182.732 117.863L181.834 113.822L184.64 116.965L186.435 116.965L185.987 115.281L181.834 112.925L181.834 111.241L184.303 113.822L185.65 113.822L185.089 112.251L181.722 110.456L181.722 108.884L183.405 110.792L184.752 110.792L184.415 109.67L181.722 108.211L181.722 107.762L182.283 106.977L181.834 105.742Z" fill="white"/>
<path d="M183.009 102.086L182.247 102.56L182.662 103.227L183.424 102.752L184.71 102.481L185.139 101.684L185.52 101.447L188.004 102.676L189.194 102.464L188.482 101.321L186.092 101.091L187.425 100.26L190.67 102.073L192.086 101.588L191.256 100.254L188.092 99.8449L189.521 98.9549L193.717 101.233L195.264 100.534L194.029 99.1876L190.283 98.4801L193.95 96.725L195.13 94.7996L192.822 94.9151L189.868 97.8133L191.051 93.7704L190.102 92.2463L188.91 93.5174L189.106 98.288L187.677 99.1781L188.562 95.7177L187.85 94.5746L186.813 95.8816L187.069 99.6887L185.736 100.519L186.465 98.0818L185.753 96.9388L184.978 97.8179L185.164 100.875L184.783 101.113L183.819 101.052L183.009 102.086Z" fill="white"/>
<path d="M179.827 104.826L180.605 104.377L180.212 103.697L179.435 104.146L178.141 104.374L177.685 105.156L177.296 105.38L174.855 104.069L173.658 104.241L174.332 105.407L176.713 105.717L175.353 106.502L172.17 104.582L170.738 105.02L171.524 106.38L174.672 106.895L173.214 107.737L169.097 105.319L167.527 105.966L168.716 107.353L172.437 108.186L168.713 109.817L167.469 111.702L169.78 111.664L172.83 108.866L171.511 112.867L172.409 114.422L173.642 113.192L173.607 108.417L175.065 107.576L174.064 111.004L174.737 112.171L175.818 110.899L175.689 107.086L177.05 106.3L176.239 108.712L176.913 109.878L177.716 109.025L177.633 105.963L178.022 105.739L178.983 105.832L179.827 104.826Z" fill="white"/>
<path d="M183.746 104.152L182.958 103.722L182.582 104.412L183.37 104.842L184.239 105.826L185.144 105.808L185.538 106.023L185.691 108.791L186.462 109.722L187.107 108.539L186.129 106.345L187.509 107.097L187.528 110.814L188.648 111.808L189.4 110.428L188.199 107.473L189.677 108.279L189.759 113.052L191.13 114.055L191.694 112.317L190.465 108.708L193.798 111.036L196.055 111.115L194.819 109.163L190.841 108.018L194.943 107.058L195.802 105.482L194.109 105.07L190.053 107.589L188.575 106.783L192.023 105.85L192.667 104.668L191.019 104.409L187.831 106.506L186.452 105.754L188.932 105.189L189.577 104.006L188.43 103.765L185.86 105.432L185.466 105.217L185.045 104.348L183.746 104.152Z" fill="white"/>
<path d="M179.515 102.678L180.259 103.181L180.699 102.53L179.956 102.027L179.184 100.963L178.282 100.895L177.91 100.644L178.022 97.8741L177.344 96.8735L176.59 97.989L177.353 100.266L176.051 99.3861L176.387 95.6842L175.367 94.588L174.487 95.8894L175.4 98.946L174.006 98.0028L174.38 93.2429L173.112 92.1138L172.384 93.7898L173.262 97.4998L170.167 94.8645L167.928 94.5693L168.973 96.6307L172.822 98.1506L168.647 98.7141L167.641 100.201L169.287 100.773L173.566 98.6536L174.96 99.5967L171.439 100.196L170.684 101.311L172.3 101.727L175.674 99.9439L176.975 100.824L174.452 101.15L173.697 102.265L174.816 102.615L177.533 101.201L177.905 101.453L178.241 102.358L179.515 102.678Z" fill="white"/>
<circle cx="181.61" cy="103.497" r="1.57119" fill="white"/>
</svg>
