<svg width="180" height="192" viewBox="0 0 180 192" fill="none" xmlns="http://www.w3.org/2000/svg">
<path d="M0 192V0.994819V0H180V192H0Z" fill="#004E4D"/>
<path d="M91.5306 105.481V159.058H91.5239C91.4168 168.487 83.7495 176.094 74.2942 176.094C69.868 176.094 65.8301 174.427 62.7765 171.681C59.3145 168.567 57.1248 164.067 57.0646 159.058H57.0579V104.845C57.0177 104.537 56.944 104.236 56.8302 103.961C56.3615 102.823 55.2633 102.019 53.9575 102.019C53.4285 102.019 52.9396 102.146 52.5044 102.374C52.1562 102.555 51.8481 102.803 51.587 103.091C51.1718 103.559 50.9575 104.175 50.8839 104.798C50.8638 104.999 50.837 105.213 50.8102 105.361C50.5357 107.195 49.9799 108.93 49.1763 110.523C48.8683 111.14 48.5268 111.722 48.1518 112.285C45.0714 116.952 39.7746 120.032 33.768 120.032C24.5405 120.032 17.0138 112.787 16.5518 103.68C16.5384 103.385 16.5317 103.091 16.5317 102.796C16.5317 102.079 16.5719 101.376 16.6589 100.687C16.746 99.97 16.8799 99.2602 17.054 98.5705C17.8642 93.7625 19.5852 89.2626 22.0428 85.2582C25.6521 79.3587 30.8618 74.5307 37.0626 71.3834C41.8974 68.9258 47.3415 67.4861 53.107 67.3455C58.6047 67.2116 63.8413 68.2897 68.5756 70.3321C76.3031 73.6668 82.7048 79.5663 86.7695 86.9457C89.8029 92.45 91.5306 98.7781 91.5306 105.481Z" fill="#E6243C"/>
<path d="M86.7695 86.9457C81.2517 94.6197 70.33 107.463 57.0579 110.765V104.845C57.0177 104.537 56.944 104.236 56.8302 103.961C60.473 98.6709 69.3858 84.2203 68.5756 70.3321C76.3031 73.6668 82.7048 79.5663 86.7695 86.9457Z" fill="white"/>
<path d="M52.5044 102.374C52.1562 102.555 51.8482 102.803 51.587 103.09C51.1718 103.559 50.9576 104.175 50.8839 104.798C50.8638 104.999 50.837 105.213 50.8102 105.361C50.5357 107.195 49.9799 108.93 49.1763 110.523C49.0022 110.202 38.8305 91.0639 22.0428 85.2582C25.6521 79.3587 30.8619 74.5306 37.0627 71.3834C42.0648 76.2047 52.9932 88.392 52.5044 102.374Z" fill="white"/>
<path d="M91.5306 106.439V125.041C84.5731 130.077 70.3501 139.137 57.0579 140.027V123.722C63.339 121.867 82.2428 115.713 91.5306 106.439Z" fill="white"/>
<path d="M91.5306 140.175V158.402C84.928 163.003 73.8121 169.699 62.7765 171.681C59.3145 168.567 57.1248 164.067 57.0646 159.058H57.0579V156.353C60.0779 155.529 80.5218 149.664 91.5306 140.175Z" fill="white"/>
<path d="M48.1518 112.285C45.0714 116.952 39.7746 120.032 33.768 120.032C24.5405 120.032 17.0138 112.787 16.5518 103.68C16.5384 103.385 16.5317 103.091 16.5317 102.796C16.5317 102.079 16.5719 101.376 16.6589 100.687C23.5427 101.919 37.7791 105.166 48.1518 112.285Z" fill="white"/>
<path d="M74.3436 176C69.9782 176 65.7945 174.406 62.5524 171.518C58.9741 168.329 56.862 163.794 56.7141 159.031H56.7073V158.698L56.6939 104.697C56.667 104.45 56.5997 104.183 56.4988 103.943C56.0616 102.896 55.0527 102.215 53.9227 102.215C53.4585 102.215 53.0213 102.322 52.6178 102.529C52.3151 102.682 52.0393 102.902 51.7904 103.169C51.3734 103.636 51.2187 104.256 51.1716 104.683C51.1514 104.883 51.1245 105.11 51.0976 105.264C50.8286 107.071 50.277 108.805 49.4631 110.426L49.4295 110.506C49.1201 111.113 48.7636 111.714 48.3802 112.287C45.1045 117.21 39.5957 120.151 33.6497 120.151C24.2397 120.151 16.4977 112.854 16.0202 103.549C16.0067 103.249 16 102.949 16 102.649C16 101.909 16.0471 101.188 16.1278 100.508C16.2152 99.7942 16.3498 99.0738 16.5314 98.3601C17.3385 93.6243 19.0335 89.122 21.5828 85.0065C25.2621 79.0435 30.522 74.221 36.8043 71.066C41.8692 68.5114 47.3444 67.144 53.0617 67.0106C58.51 66.8839 63.7766 67.8911 68.7406 70.0122C76.496 73.3272 83.0406 79.2569 87.1773 86.7074C90.3319 92.3837 92 98.827 92 105.33L91.9866 159.031C91.7041 168.416 83.8612 176 74.3503 176H74.3436ZM57.3665 158.484V158.691C57.427 163.387 59.4785 167.882 62.9964 171.017C66.1174 173.799 70.1397 175.326 74.3436 175.326C83.5989 175.326 91.2063 167.862 91.3139 158.684V158.037V105.324C91.3139 98.9337 89.6727 92.6038 86.5719 87.0209C82.5093 79.7038 76.0722 73.8742 68.4581 70.6191C63.5816 68.5314 58.4023 67.5442 53.0617 67.671C47.4385 67.8044 42.0643 69.1451 37.0868 71.6597C30.9188 74.7613 25.7463 79.5037 22.1343 85.3534C19.6322 89.3955 17.9641 93.8111 17.1704 98.4935C16.9888 99.2005 16.861 99.9009 16.7735 100.588C16.6928 101.242 16.6457 101.935 16.6457 102.649C16.6457 102.936 16.6457 103.223 16.6659 103.509C17.1233 112.474 24.5693 119.484 33.6228 119.484C39.3401 119.484 44.6337 116.656 47.7883 111.914C48.1448 111.38 48.4744 110.826 48.7636 110.266L48.7972 110.193C49.5977 108.619 50.1358 106.924 50.4048 105.15C50.4317 104.997 50.4586 104.797 50.4788 104.603C50.573 103.843 50.842 103.189 51.2658 102.716C51.5685 102.382 51.9115 102.122 52.2814 101.929C52.7792 101.668 53.324 101.535 53.8957 101.535C55.2948 101.535 56.5526 102.375 57.0907 103.676C57.2185 103.976 57.2992 104.303 57.3329 104.65V105.564L57.3396 158.478L57.3665 158.484Z" fill="#E6243C"/>
<circle cx="83.5" cy="40.5" r="3.5" fill="white"/>
<path d="M30.1608 25.1407V26.0385H30.9464V25.1407L31.3953 23.9062L30.9464 23.1206V22.6717L33.3032 21.2127L33.7521 20.0905H32.4053L30.9464 21.9983V20.4271L34.201 18.6315L34.5377 17.1725H32.9665L30.9464 19.6415V17.9581L35.0988 15.6013L35.3233 13.9179L33.5276 14.2546L30.9464 17.0603L31.3953 13.0201L30.3852 11L29.263 13.0201L30.1608 17.0603L27.3551 13.9179H25.5594L26.0084 15.6013L30.1608 17.9581V19.6415L27.6918 17.0603H26.345L26.9062 18.6315L30.273 20.4271V21.9983L28.5896 20.0905H27.2429L27.5795 21.2127L30.273 22.6717V23.1206L29.7119 23.9062L30.1608 25.1407Z" fill="white"/>
<path d="M30.8342 29.742L30.8342 28.8442L30.0486 28.8442L30.0486 29.742L29.5997 30.9766L30.0486 31.7621L30.0486 32.2111L27.6918 33.67L27.2429 34.7923L28.5896 34.7923L30.0486 32.8844L30.0486 34.4556L26.794 36.2513L26.4573 37.7102L28.0285 37.7102L30.0486 35.2412L30.0486 36.9246L25.8962 39.2814L25.6717 40.9648L27.4673 40.6281L30.0486 37.8225L29.5997 41.8627L30.6097 43.8828L31.732 41.8627L30.8342 37.8225L33.6399 40.9648L35.4355 40.9648L34.9866 39.2814L30.8342 36.9246L30.8342 35.2412L33.3032 37.8225L34.6499 37.8225L34.0888 36.2513L30.7219 34.4556L30.722 32.8844L32.4054 34.7923L33.7521 34.7923L33.4154 33.67L30.722 32.2111L30.722 31.7621L31.2831 30.9766L30.8342 29.742Z" fill="white"/>
<path d="M32.009 26.0857L31.2469 26.5604L31.6623 27.2272L32.4243 26.7525L33.7095 26.4808L34.139 25.6844L34.52 25.447L37.0045 26.6761L38.1944 26.4637L37.4823 25.3206L35.0916 25.091L36.4252 24.2603L39.6701 26.0734L41.0865 25.5877L40.2557 24.2541L37.092 23.8449L38.5209 22.9549L42.7168 25.2333L44.2643 24.5338L43.0291 23.1876L39.2829 22.4801L42.9496 20.725L44.1302 18.7996L41.8221 18.9151L38.8676 21.8133L40.0513 17.7704L39.1019 16.2463L37.9104 17.5174L38.1055 22.288L36.6766 23.1781L37.5621 19.7177L36.8501 18.5746L35.8131 19.8816L36.0691 23.6887L34.7355 24.5195L35.4649 22.0818L34.7528 20.9388L33.9782 21.8179L34.164 24.8755L33.783 25.1128L32.8195 25.0519L32.009 26.0857Z" fill="white"/>
<path d="M28.8274 28.8259L29.605 28.377L29.2122 27.6967L28.4346 28.1456L27.1411 28.3741L26.6852 29.1556L26.2964 29.3801L23.8545 28.0685L22.6581 28.2409L23.3315 29.4072L25.7133 29.7168L24.3526 30.5024L21.1702 28.5816L19.7384 29.0195L20.5239 30.3802L23.6722 30.8952L22.2143 31.7369L18.0971 29.3192L16.527 29.9665L17.7164 31.3532L21.4368 32.1858L17.7134 33.8171L16.469 35.7019L18.7796 35.6638L21.8296 32.8661L20.5111 36.8671L21.4089 38.4222L22.6423 37.1917L22.6071 32.4172L24.065 31.5755L23.0641 35.0044L23.7375 36.1707L24.8176 34.8991L24.6893 31.0855L26.0499 30.2999L25.2394 32.7118L25.9128 33.8781L26.7163 33.0253L26.6331 29.9633L27.0219 29.7388L27.9828 29.832L28.8274 28.8259Z" fill="white"/>
<path d="M32.7461 28.1517L31.9578 27.7221L31.5819 28.4119L32.3702 28.8415L33.2394 29.8264L34.144 29.8082L34.5382 30.023L34.6915 32.7906L35.4621 33.7218L36.1066 32.5392L35.1295 30.3452L36.5091 31.0971L36.5284 34.8141L37.6484 35.8079L38.4002 34.4283L37.1989 31.473L38.6771 32.2785L38.7595 37.0524L40.1302 38.0551L40.6939 36.3173L39.4654 32.7082L42.7982 35.0356L45.0554 35.1154L43.8186 33.1633L39.8414 32.0183L43.9432 31.0584L44.8024 29.4817L43.1095 29.0703L39.053 31.5887L37.5748 30.7832L41.0228 29.8504L41.6673 28.6678L40.0191 28.4087L36.8313 30.5058L35.4517 29.7539L37.9325 29.1887L38.5769 28.0062L37.4304 27.7648L34.8604 29.4317L34.4662 29.2169L34.0449 28.3483L32.7461 28.1517Z" fill="white"/>
<path d="M28.5154 26.6776L29.2591 27.1806L29.6992 26.5299L28.9555 26.0269L28.1845 24.9634L27.2823 24.8951L26.9104 24.6436L27.0223 21.8741L26.3442 20.8735L25.5897 21.989L26.3527 24.2664L25.0512 23.3861L25.3872 19.6842L24.3674 18.588L23.4871 19.8894L24.4005 22.946L23.0061 22.0028L23.3803 17.2429L22.1116 16.1138L21.3845 17.7898L22.2624 21.4998L19.1673 18.8645L16.9281 18.5693L17.9727 20.6307L21.8222 22.1506L17.6475 22.7141L16.6414 24.2014L18.2873 24.7727L22.5659 22.6536L23.9603 23.5967L20.439 24.1957L19.6845 25.3112L21.3003 25.7267L24.6739 23.9439L25.9754 24.8241L23.4519 25.1497L22.6974 26.2652L23.8156 26.6151L26.5332 25.2014L26.905 25.4529L27.2413 26.3578L28.5154 26.6776Z" fill="white"/>
<circle cx="30.6097" cy="27.4975" r="1.57119" fill="white"/>
<path d="M115.406 157.105V158.128H116.301V157.105L116.812 155.699L116.301 154.805V154.293L118.985 152.632L119.496 151.353H117.962L116.301 153.526V151.737L120.008 149.692L120.391 148.03H118.602L116.301 150.842V148.925L121.03 146.241L121.286 144.323L119.241 144.707L116.301 147.902L116.812 143.301L115.662 141L114.384 143.301L115.406 147.902L112.211 144.323H110.165L110.677 146.241L115.406 148.925V150.842L112.594 147.902H111.06L111.699 149.692L115.534 151.737V153.526L113.617 151.353H112.083L112.466 152.632L115.534 154.293V154.805L114.895 155.699L115.406 157.105Z" fill="white"/>
<path d="M116.173 162.346L116.173 161.323L115.278 161.323L115.278 162.346L114.767 163.752L115.278 164.647L115.278 165.158L112.594 166.82L112.083 168.098L113.617 168.098L115.278 165.925L115.278 167.714L111.571 169.759L111.188 171.421L112.977 171.421L115.278 168.609L115.278 170.526L110.549 173.211L110.293 175.128L112.338 174.744L115.278 171.549L114.767 176.15L115.917 178.451L117.196 176.15L116.173 171.549L119.368 175.128L121.414 175.128L120.902 173.211L116.173 170.526L116.173 168.609L118.985 171.549L120.519 171.549L119.88 169.759L116.045 167.714L116.045 165.925L117.962 168.098L119.496 168.098L119.113 166.82L116.045 165.158L116.045 164.647L116.684 163.752L116.173 162.346Z" fill="white"/>
<path d="M117.511 158.182L116.643 158.722L117.116 159.482L117.984 158.941L119.448 158.632L119.937 157.725L120.371 157.454L123.201 158.854L124.556 158.612L123.745 157.31L121.022 157.049L122.541 156.103L126.237 158.168L127.85 157.614L126.904 156.096L123.3 155.63L124.928 154.616L129.706 157.211L131.469 156.414L130.062 154.881L125.796 154.075L129.972 152.076L131.316 149.883L128.688 150.015L125.322 153.316L126.671 148.711L125.589 146.975L124.232 148.423L124.455 153.856L122.827 154.87L123.836 150.929L123.025 149.627L121.844 151.116L122.135 155.452L120.616 156.398L121.447 153.621L120.636 152.32L119.754 153.321L119.965 156.803L119.531 157.074L118.434 157.004L117.511 158.182Z" fill="white"/>
<path d="M113.887 161.303L114.773 160.791L114.326 160.016L113.44 160.528L111.967 160.788L111.448 161.678L111.005 161.934L108.224 160.44L106.861 160.636L107.628 161.965L110.341 162.317L108.791 163.212L105.166 161.024L103.536 161.523L104.43 163.073L108.016 163.659L106.356 164.618L101.666 161.864L99.8781 162.602L101.233 164.181L105.47 165.129L101.229 166.987L99.8121 169.134L102.444 169.09L105.917 165.904L104.416 170.461L105.438 172.232L106.843 170.831L106.803 165.393L108.463 164.434L107.323 168.339L108.09 169.668L109.321 168.219L109.174 163.876L110.724 162.981L109.801 165.728L110.568 167.057L111.483 166.085L111.388 162.598L111.831 162.342L112.925 162.448L113.887 161.303Z" fill="white"/>
<path d="M118.351 160.535L117.453 160.045L117.025 160.831L117.922 161.32L118.912 162.442L119.943 162.421L120.392 162.666L120.566 165.818L121.444 166.879L122.178 165.532L121.065 163.033L122.636 163.889L122.658 168.123L123.934 169.254L124.79 167.683L123.422 164.317L125.105 165.235L125.199 170.672L126.761 171.814L127.402 169.835L126.003 165.724L129.799 168.375L132.37 168.466L130.961 166.242L126.432 164.938L131.103 163.845L132.082 162.049L130.154 161.581L125.534 164.449L123.85 163.532L127.777 162.469L128.511 161.122L126.634 160.827L123.003 163.216L121.432 162.359L124.257 161.716L124.991 160.369L123.686 160.094L120.759 161.992L120.31 161.748L119.83 160.758L118.351 160.535Z" fill="white"/>
<path d="M113.532 158.856L114.379 159.429L114.88 158.688L114.033 158.115L113.155 156.903L112.128 156.826L111.704 156.539L111.832 153.385L111.059 152.245L110.2 153.516L111.069 156.11L109.587 155.107L109.969 150.891L108.808 149.642L107.805 151.124L108.845 154.606L107.257 153.532L107.684 148.11L106.239 146.824L105.41 148.733L106.41 152.959L102.885 149.957L100.335 149.621L101.525 151.969L105.909 153.7L101.154 154.342L100.008 156.036L101.883 156.686L106.756 154.273L108.344 155.347L104.334 156.029L103.474 157.3L105.315 157.773L109.157 155.742L110.639 156.745L107.765 157.116L106.906 158.386L108.179 158.785L111.274 157.174L111.698 157.461L112.081 158.492L113.532 158.856Z" fill="white"/>
<circle cx="115.917" cy="159.79" r="1.78948" fill="white"/>
<path d="M26.3435 139.801V140.931H27.3324V139.801L27.8975 138.247L27.3324 137.258V136.693L30.2992 134.856L30.8643 133.443H29.169L27.3324 135.845V133.867L31.4294 131.607L31.8532 129.77H29.8754L27.3324 132.878V130.759L32.5596 127.792L32.8422 125.673L30.5818 126.097L27.3324 129.629L27.8975 124.543L26.6261 122L25.2133 124.543L26.3435 129.629L22.8117 125.673H20.5513L21.1164 127.792L26.3435 130.759V132.878L23.2355 129.629H21.5402L22.2466 131.607L26.4848 133.867V135.845L24.3657 133.443H22.6704L23.0942 134.856L26.4848 136.693V137.258L25.7784 138.247L26.3435 139.801Z" fill="white"/>
<path d="M27.1911 145.593L27.1911 144.463L26.2022 144.463L26.2022 145.593L25.6371 147.147L26.2022 148.136L26.2022 148.701L23.2355 150.537L22.6704 151.95L24.3657 151.95L26.2022 149.549L26.2022 151.526L22.1053 153.787L21.6814 155.623L23.6593 155.623L26.2022 152.515L26.2022 154.634L20.9751 157.601L20.6925 159.72L22.9529 159.297L26.2022 155.765L25.6371 160.851L26.9086 163.393L28.3213 160.851L27.1911 155.765L30.723 159.72L32.9834 159.72L32.4183 157.601L27.1911 154.634L27.1911 152.515L30.2992 155.765L31.9945 155.765L31.2881 153.787L27.0499 151.526L27.0499 149.549L29.169 151.95L30.8643 151.95L30.4405 150.537L27.0499 148.701L27.0499 148.136L27.7562 147.147L27.1911 145.593Z" fill="white"/>
<path d="M28.6701 140.99L27.7108 141.588L28.2337 142.427L29.193 141.83L30.8108 141.488L31.3514 140.485L31.831 140.186L34.9585 141.733L36.4564 141.466L35.5601 140.027L32.5505 139.738L34.2293 138.692L38.3141 140.975L40.097 140.363L39.0513 138.685L35.0687 138.169L36.8674 137.049L42.1493 139.917L44.0974 139.037L42.5425 137.342L37.8267 136.451L42.4423 134.242L43.9285 131.818L41.0231 131.964L37.3038 135.612L38.794 130.523L37.5989 128.604L36.0989 130.204L36.3445 136.21L34.5458 137.33L35.6605 132.974L34.7642 131.535L33.4589 133.18L33.7811 137.973L32.1023 139.019L33.0204 135.95L32.1241 134.511L31.149 135.618L31.3829 139.467L30.9032 139.766L29.6903 139.689L28.6701 140.99Z" fill="white"/>
<path d="M24.6651 144.44L25.6438 143.875L25.1494 143.018L24.1706 143.583L22.5422 143.871L21.9683 144.855L21.479 145.137L18.4051 143.486L16.899 143.703L17.7467 145.171L20.7449 145.561L19.032 146.55L15.026 144.132L13.2235 144.683L14.2125 146.396L18.1756 147.044L16.3404 148.104L11.1575 145.061L9.18101 145.875L10.6782 147.621L15.3616 148.669L10.6745 150.723L9.10801 153.095L12.0166 153.047L15.856 149.526L14.1963 154.562L15.3264 156.52L16.8791 154.971L16.8348 148.96L18.67 147.901L17.4101 152.217L18.2577 153.685L19.6174 152.085L19.4558 147.284L21.1687 146.295L20.1483 149.331L20.996 150.799L22.0076 149.726L21.9028 145.871L22.3922 145.589L23.6018 145.706L24.6651 144.44Z" fill="white"/>
<path d="M29.598 143.591L28.6056 143.05L28.1324 143.918L29.1248 144.459L30.2189 145.699L31.3577 145.676L31.8539 145.947L32.0468 149.43L33.0169 150.603L33.8282 149.114L32.5982 146.352L34.3348 147.299L34.3592 151.978L35.769 153.229L36.7154 151.492L35.2032 147.772L37.0639 148.786L37.1677 154.795L38.8932 156.057L39.6027 153.87L38.0563 149.327L42.2517 152.257L45.0931 152.357L43.5362 149.9L38.5296 148.458L43.693 147.25L44.7747 145.265L42.6435 144.747L37.5372 147.917L35.6764 146.903L40.0168 145.729L40.8281 144.241L38.7533 143.914L34.7405 146.554L33.0038 145.608L36.1267 144.896L36.9379 143.408L35.4946 143.104L32.2595 145.202L31.7633 144.932L31.2329 143.838L29.598 143.591Z" fill="white"/>
<path d="M24.2722 141.735L25.2084 142.369L25.7625 141.549L24.8263 140.916L23.8557 139.577L22.7199 139.491L22.2518 139.175L22.3927 135.689L21.5391 134.429L20.5893 135.833L21.5497 138.7L19.9114 137.592L20.3344 132.932L19.0506 131.552L17.9425 133.19L19.0923 137.038L17.337 135.851L17.8081 129.859L16.211 128.437L15.2957 130.547L16.4008 135.217L12.5046 131.9L9.68593 131.528L11.0008 134.123L15.8468 136.037L10.5914 136.746L9.32504 138.618L11.3969 139.337L16.7829 136.67L18.5382 137.857L14.1055 138.611L13.1557 140.015L15.1897 140.538L19.4365 138.294L21.0748 139.402L17.8982 139.812L16.9484 141.216L18.3561 141.657L21.7769 139.877L22.245 140.194L22.6684 141.333L24.2722 141.735Z" fill="white"/>
<circle cx="26.9086" cy="142.767" r="1.97784" fill="white"/>
<circle cx="55.5" cy="12.5" r="3.5" fill="white"/>
<circle cx="12.5" cy="58.5" r="3.5" fill="white"/>
<circle cx="43.5" cy="176.5" r="3.5" fill="white"/>
<circle cx="157.5" cy="174.5" r="3.5" fill="white"/>
<circle cx="131.5" cy="112.5" r="3.5" fill="white"/>
<path d="M98.648 57.848H121.976V71H75.416V63.224L97.4 37.88C102.296 32.12 105.464 28.568 105.464 24.632C105.464 21.368 103.256 18.2 97.88 18.2C92.888 18.2 90.008 21.272 89.528 26.456H74.072C74.456 13.016 83.672 4.472 98.552 4.472C113.432 4.472 121.496 13.304 121.496 24.728C121.496 30.968 117.944 36.248 110.168 44.984L98.648 57.848ZM160.328 57.848H175.496V71H128.36V57.848H144.68V23.096L129.32 27.8V13.112L150.632 5.72H160.328V57.848Z" fill="white"/>
<path d="M159.161 93.1407V94.0385H159.946V93.1407L160.395 91.9062L159.946 91.1206V90.6717L162.303 89.2127L162.752 88.0905H161.405L159.946 89.9983V88.4271L163.201 86.6315L163.538 85.1725H161.966L159.946 87.6415V85.9581L164.099 83.6013L164.323 81.9179L162.528 82.2546L159.946 85.0603L160.395 81.0201L159.385 79L158.263 81.0201L159.161 85.0603L156.355 81.9179H154.559L155.008 83.6013L159.161 85.9581V87.6415L156.692 85.0603H155.345L155.906 86.6315L159.273 88.4271V89.9983L157.59 88.0905H156.243L156.58 89.2127L159.273 90.6717V91.1206L158.712 91.9062L159.161 93.1407Z" fill="white"/>
<path d="M159.834 97.742L159.834 96.8442L159.049 96.8442L159.049 97.742L158.6 98.9766L159.049 99.7621L159.049 100.211L156.692 101.67L156.243 102.792L157.59 102.792L159.049 100.884L159.049 102.456L155.794 104.251L155.457 105.71L157.028 105.71L159.049 103.241L159.049 104.925L154.896 107.281L154.672 108.965L156.467 108.628L159.049 105.822L158.6 109.863L159.61 111.883L160.732 109.863L159.834 105.822L162.64 108.965L164.435 108.965L163.987 107.281L159.834 104.925L159.834 103.241L162.303 105.822L163.65 105.822L163.089 104.251L159.722 102.456L159.722 100.884L161.405 102.792L162.752 102.792L162.415 101.67L159.722 100.211L159.722 99.7621L160.283 98.9766L159.834 97.742Z" fill="white"/>
<path d="M161.009 94.0857L160.247 94.5604L160.662 95.2272L161.424 94.7525L162.71 94.4808L163.139 93.6844L163.52 93.447L166.004 94.6761L167.194 94.4637L166.482 93.3206L164.092 93.091L165.425 92.2603L168.67 94.0734L170.086 93.5877L169.256 92.2541L166.092 91.8449L167.521 90.9549L171.717 93.2333L173.264 92.5338L172.029 91.1876L168.283 90.4801L171.95 88.725L173.13 86.7996L170.822 86.9151L167.868 89.8133L169.051 85.7704L168.102 84.2463L166.91 85.5174L167.106 90.288L165.677 91.1781L166.562 87.7177L165.85 86.5746L164.813 87.8816L165.069 91.6887L163.736 92.5195L164.465 90.0818L163.753 88.9388L162.978 89.8179L163.164 92.8755L162.783 93.1128L161.819 93.0519L161.009 94.0857Z" fill="white"/>
<path d="M157.827 96.8259L158.605 96.377L158.212 95.6967L157.435 96.1456L156.141 96.3741L155.685 97.1556L155.296 97.3801L152.855 96.0685L151.658 96.2409L152.332 97.4072L154.713 97.7168L153.353 98.5024L150.17 96.5816L148.738 97.0195L149.524 98.3802L152.672 98.8952L151.214 99.7369L147.097 97.3192L145.527 97.9665L146.716 99.3532L150.437 100.186L146.713 101.817L145.469 103.702L147.78 103.664L150.83 100.866L149.511 104.867L150.409 106.422L151.642 105.192L151.607 100.417L153.065 99.5755L152.064 103.004L152.737 104.171L153.818 102.899L153.689 99.0855L155.05 98.2999L154.239 100.712L154.913 101.878L155.716 101.025L155.633 97.9633L156.022 97.7388L156.983 97.832L157.827 96.8259Z" fill="white"/>
<path d="M161.746 96.1517L160.958 95.7221L160.582 96.4119L161.37 96.8415L162.239 97.8264L163.144 97.8082L163.538 98.023L163.691 100.791L164.462 101.722L165.107 100.539L164.129 98.3452L165.509 99.0971L165.528 102.814L166.648 103.808L167.4 102.428L166.199 99.473L167.677 100.279L167.759 105.052L169.13 106.055L169.694 104.317L168.465 100.708L171.798 103.036L174.055 103.115L172.819 101.163L168.841 100.018L172.943 99.0584L173.802 97.4817L172.109 97.0703L168.053 99.5887L166.575 98.7832L170.023 97.8504L170.667 96.6678L169.019 96.4087L165.831 98.5058L164.452 97.7539L166.932 97.1887L167.577 96.0062L166.43 95.7648L163.86 97.4317L163.466 97.2169L163.045 96.3483L161.746 96.1517Z" fill="white"/>
<path d="M157.515 94.6776L158.259 95.1806L158.699 94.5299L157.956 94.0269L157.184 92.9634L156.282 92.8951L155.91 92.6436L156.022 89.8741L155.344 88.8735L154.59 89.989L155.353 92.2664L154.051 91.3861L154.387 87.6842L153.367 86.588L152.487 87.8894L153.4 90.946L152.006 90.0028L152.38 85.2429L151.112 84.1138L150.384 85.7898L151.262 89.4998L148.167 86.8645L145.928 86.5693L146.973 88.6307L150.822 90.1506L146.647 90.7141L145.641 92.2014L147.287 92.7727L151.566 90.6536L152.96 91.5967L149.439 92.1957L148.684 93.3112L150.3 93.7267L153.674 91.9439L154.975 92.8241L152.452 93.1497L151.697 94.2652L152.816 94.6151L155.533 93.2014L155.905 93.4529L156.241 94.3578L157.515 94.6776Z" fill="white"/>
<circle cx="159.61" cy="95.4975" r="1.57119" fill="white"/>
</svg>
