<svg width="180" height="179" viewBox="0 0 180 179" fill="none" xmlns="http://www.w3.org/2000/svg">
<path d="M0 179V1.06548V0H180V179H0Z" fill="#FF7591"/>
<rect opacity="0.59" width="20" height="179" fill="#A20E38"/>
<rect opacity="0.59" x="80" width="20" height="179" fill="#A20E38"/>
<rect opacity="0.59" x="160" width="20" height="179" fill="#A20E38"/>
<rect opacity="0.59" x="120" width="20" height="179" fill="#A20E38"/>
<rect opacity="0.59" x="40" width="20" height="179" fill="#A20E38"/>
<rect opacity="0.8" y="20.119" width="20.119" height="180" transform="rotate(-90 0 20.119)" fill="#A20E38"/>
<rect opacity="0.8" y="60.3571" width="20.119" height="180" transform="rotate(-90 0 60.3571)" fill="#A20E38"/>
<rect opacity="0.8" y="100.595" width="20.119" height="180" transform="rotate(-90 0 100.595)" fill="#A20E38"/>
<rect opacity="0.8" y="140.833" width="20.119" height="180" transform="rotate(-90 0 140.833)" fill="#A20E38"/>
<rect opacity="0.8" y="179" width="18" height="180" transform="rotate(-90 0 179)" fill="#A20E38"/>
<path d="M60.648 116.848H83.976V130H37.416V122.224L59.4 96.88C64.296 91.12 67.464 87.568 67.464 83.632C67.464 80.368 65.256 77.2 59.88 77.2C54.888 77.2 52.008 80.272 51.528 85.456H36.072C36.456 72.016 45.672 63.472 60.552 63.472C75.432 63.472 83.496 72.304 83.496 83.728C83.496 89.968 79.944 95.248 72.168 103.984L60.648 116.848ZM115.304 116.848H138.632V130H92.0723V122.224L114.056 96.88C118.952 91.12 122.12 87.568 122.12 83.632C122.12 80.368 119.912 77.2 114.536 77.2C109.544 77.2 106.664 80.272 106.184 85.456H90.7283C91.1123 72.016 100.328 63.472 115.208 63.472C130.088 63.472 138.152 72.304 138.152 83.728C138.152 89.968 134.6 95.248 126.824 103.984L115.304 116.848Z" fill="white"/>
</svg>
