<svg width="179" height="181" viewBox="0 0 179 181" fill="none" xmlns="http://www.w3.org/2000/svg">
<path d="M0 181V0H179V181H0Z" fill="#007B79"/>
<path d="M35.3028 149.203L70.6056 126.7L107.4 149.203L142.703 126.7L179 149.203V157.03L142.703 134.527L107.4 157.03L70.6056 134.527L35.3028 157.03L0 135.995V128.168L35.3028 149.203Z" fill="#004E4D"/>
<path d="M35.3028 123.276L70.6056 100.773L107.4 123.276L142.703 100.773L179 123.276V131.103L142.703 108.6L107.4 131.103L70.6056 108.6L35.3028 131.103L0 110.068V102.241L35.3028 123.276Z" fill="#004E4D"/>
<path d="M35.3028 97.8378L70.6056 75.3351L107.4 97.8378L142.703 75.3351L179 97.8378V105.665L142.703 83.1622L107.4 105.665L70.6056 83.1622L35.3028 105.665L0 84.6297V76.8027L35.3028 97.8378Z" fill="#004E4D"/>
<path d="M35.3028 73.3784L70.6056 50.8757L107.4 73.3784L142.703 50.8757L179 73.3784V81.2054L142.703 58.7027L107.4 81.2054L70.6056 58.7027L35.3028 81.2054L0 60.1703V52.3432L35.3028 73.3784Z" fill="#004E4D"/>
<path d="M35.3028 48.9189L70.6056 26.4162L107.4 48.9189L142.703 26.4162L179 48.9189V56.7459L142.703 34.2432L107.4 56.7459L70.6056 34.2432L35.3028 56.7459L0 35.7108V27.8838L35.3028 48.9189Z" fill="#004E4D"/>
<path d="M35.3028 22.5027L70.6056 0L107.4 22.5027L142.703 0L179 22.5027V30.3297L142.703 7.82703L107.4 30.3297L70.6056 7.82703L35.3028 30.3297L0 9.29459V1.46757L35.3028 22.5027Z" fill="#004E4D"/>
<path d="M35.3028 173.173L70.6056 150.67L107.4 173.173L142.703 150.67L179 173.173V181L142.703 158.497L107.4 181L70.6056 158.497L35.3028 181L0 159.965V152.138L35.3028 173.173Z" fill="#004E4D"/>
<rect x="22.3889" y="22.5" width="134.222" height="135" stroke="white" stroke-width="5"/>
<path d="M60.4647 114.848H83.7927V128H37.2327V120.224L59.2167 94.88C64.1127 89.12 67.2807 85.568 67.2807 81.632C67.2807 78.368 65.0727 75.2 59.6967 75.2C54.7047 75.2 51.8247 78.272 51.3447 83.456H35.8887C36.2727 70.016 45.4887 61.472 60.3687 61.472C75.2487 61.472 83.3127 70.304 83.3127 81.728C83.3127 87.968 79.7607 93.248 71.9847 101.984L60.4647 114.848ZM130.108 95.264C135.676 97.76 139.42 102.176 139.42 109.184C139.42 120.896 129.436 129.248 115.516 129.248C101.212 129.248 91.7082 121.472 90.1722 108.896H105.34C106.108 113.312 109.948 116.192 115.516 116.192C120.7 116.192 124.54 113.216 124.54 108.896C124.54 104.384 120.604 101.6 114.364 101.6H108.988V89.696H114.364C119.74 89.696 123.1 86.624 123.1 82.208C123.1 77.696 119.74 74.816 114.94 74.816C109.756 74.816 106.396 77.792 106.012 82.4H90.9402C91.7082 70.208 100.636 61.472 115.036 61.472C128.668 61.472 137.596 69.824 137.596 81.824C137.596 88.256 134.62 92.576 130.108 95.264Z" fill="white"/>
</svg>
