<svg width="180" height="181" viewBox="0 0 180 181" fill="none" xmlns="http://www.w3.org/2000/svg">
<path d="M0 181V0H180V181H0Z" fill="#007B79"/>
<path d="M35.5 149.203L71 126.7L108 149.203L143.5 126.7L180 149.203V157.03L143.5 134.527L108 157.03L71 134.527L35.5 157.03L0 135.995V128.168L35.5 149.203Z" fill="#004E4D"/>
<path d="M35.5 123.276L71 100.773L108 123.276L143.5 100.773L180 123.276V131.103L143.5 108.6L108 131.103L71 108.6L35.5 131.103L0 110.068V102.241L35.5 123.276Z" fill="#004E4D"/>
<path d="M35.5 97.8378L71 75.3351L108 97.8378L143.5 75.3351L180 97.8378V105.665L143.5 83.1622L108 105.665L71 83.1622L35.5 105.665L0 84.6297V76.8027L35.5 97.8378Z" fill="#004E4D"/>
<path d="M35.5 73.3784L71 50.8757L108 73.3784L143.5 50.8757L180 73.3784V81.2054L143.5 58.7027L108 81.2054L71 58.7027L35.5 81.2054L0 60.1703V52.3432L35.5 73.3784Z" fill="#004E4D"/>
<path d="M35.5 48.9189L71 26.4162L108 48.9189L143.5 26.4162L180 48.9189V56.7459L143.5 34.2432L108 56.7459L71 34.2432L35.5 56.7459L0 35.7108V27.8838L35.5 48.9189Z" fill="#004E4D"/>
<path d="M35.5 22.5027L71 0L108 22.5027L143.5 0L180 22.5027V30.3297L143.5 7.82703L108 30.3297L71 7.82703L35.5 30.3297L0 9.29459V1.46757L35.5 22.5027Z" fill="#004E4D"/>
<path d="M35.5 173.173L71 150.67L108 173.173L143.5 150.67L180 173.173V181L143.5 158.497L108 181L71 158.497L35.5 181L0 159.965V152.138L35.5 173.173Z" fill="#004E4D"/>
<rect x="22.5" y="22.5" width="135" height="135" stroke="white" stroke-width="5"/>
<path d="M60.648 114.848H83.976V128H37.416V120.224L59.4 94.88C64.296 89.12 67.464 85.568 67.464 81.632C67.464 78.368 65.256 75.2 59.88 75.2C54.888 75.2 52.008 78.272 51.528 83.456H36.072C36.456 70.016 45.672 61.472 60.552 61.472C75.432 61.472 83.496 70.304 83.496 81.728C83.496 87.968 79.944 93.248 72.168 101.984L60.648 114.848ZM130.292 95.264C135.86 97.76 139.604 102.176 139.604 109.184C139.604 120.896 129.62 129.248 115.7 129.248C101.396 129.248 91.8915 121.472 90.3555 108.896H105.524C106.292 113.312 110.132 116.192 115.7 116.192C120.884 116.192 124.724 113.216 124.724 108.896C124.724 104.384 120.788 101.6 114.548 101.6H109.172V89.696H114.548C119.924 89.696 123.284 86.624 123.284 82.208C123.284 77.696 119.924 74.816 115.124 74.816C109.94 74.816 106.58 77.792 106.196 82.4H91.1235C91.8915 70.208 100.82 61.472 115.22 61.472C128.852 61.472 137.78 69.824 137.78 81.824C137.78 88.256 134.804 92.576 130.292 95.264Z" fill="white"/>
</svg>
