<svg width="197" height="180" viewBox="0 0 197 180" fill="none" xmlns="http://www.w3.org/2000/svg">
<path d="M0 180V4.98324V4H180V180H0Z" fill="#004E4D"/>
<path d="M45.5 44.7654L74.5118 91.9609H16.4881L45.5 44.7654Z" fill="white"/>
<path d="M45.5 71.3129L78.842 125.145H12.158L45.5 71.3129Z" fill="white"/>
<path d="M45.5 89.0112L84.9042 154.642H6.09584L45.5 89.0112Z" fill="white"/>
<rect x="41" y="143.089" width="10" height="28.514" fill="white"/>
<path d="M45.5 31L48.5309 40.1719H58.3393L50.4042 45.8405L53.4351 55.0124L45.5 49.3439L37.5649 55.0124L40.5958 45.8405L32.6607 40.1719H42.4691L45.5 31Z" fill="#F5B335"/>
<path d="M90.648 65.848H113.976V79H67.416V71.224L89.4 45.88C94.296 40.12 97.464 36.568 97.464 32.632C97.464 29.368 95.256 26.2 89.88 26.2C84.888 26.2 82.008 29.272 81.528 34.456H66.072C66.456 21.016 75.672 12.472 90.552 12.472C105.432 12.472 113.496 21.304 113.496 32.728C113.496 38.968 109.944 44.248 102.168 52.984L90.648 65.848ZM175.025 53.944V67.48H166.865V79H151.601V67.48H118.385V57.4L136.145 13.72H151.697L136.337 53.944H151.601V35.992H166.865V53.944H175.025Z" fill="white"/>
</svg>
