<svg width="180" height="176" viewBox="0 0 180 176" fill="none" xmlns="http://www.w3.org/2000/svg">
<path d="M0 176V0.98324V0H180V176H0Z" fill="#004E4D"/>
<path d="M45.5 40.7654L74.5118 87.9609H16.4881L45.5 40.7654Z" fill="white"/>
<path d="M45.5 67.3129L78.842 121.145H12.158L45.5 67.3129Z" fill="white"/>
<path d="M45.5 85.0112L84.9042 150.642H6.09584L45.5 85.0112Z" fill="white"/>
<rect x="41" y="139.089" width="10" height="28.514" fill="white"/>
<path d="M45.5 27L48.5309 36.1719H58.3393L50.4042 41.8405L53.4351 51.0124L45.5 45.3439L37.5649 51.0124L40.5958 41.8405L32.6607 36.1719H42.4691L45.5 27Z" fill="#F5B335"/>
<path d="M90.648 60.848H113.976V74H67.416V66.224L89.4 40.88C94.296 35.12 97.464 31.568 97.464 27.632C97.464 24.368 95.256 21.2 89.88 21.2C84.888 21.2 82.008 24.272 81.528 29.456H66.072C66.456 16.016 75.672 7.472 90.552 7.472C105.432 7.472 113.496 16.304 113.496 27.728C113.496 33.968 109.944 39.248 102.168 47.984L90.648 60.848ZM175.025 48.944V62.48H166.865V74H151.601V62.48H118.385V52.4L136.145 8.72H151.697L136.337 48.944H151.601V30.992H166.865V48.944H175.025Z" fill="white"/>
</svg>
