<svg width="180" height="235" viewBox="0 0 180 235" fill="none" xmlns="http://www.w3.org/2000/svg">
<path d="M0 235V6H180V235H0Z" fill="#A20E38"/>
<path d="M75 64.5C75 81.897 68.5 89 61.5 96C53.5 88.5 48 81.897 48 64.5C48 47.103 56 40 61.5 33C67 40 75 47.103 75 64.5Z" fill="#F5B335"/>
<path d="M70 77.5C70 87.7173 65.9074 91.8889 61.5 96C56.463 91.5952 53 87.7173 53 77.5C53 67.2827 58.037 63.1111 61.5 59C64.963 63.1111 70 67.2827 70 77.5Z" fill="white"/>
<path d="M141 103.5C141 115.926 136.426 121 131.5 126C125.87 120.643 122 115.926 122 103.5C122 91.0736 127.63 86 131.5 81C135.37 86 141 91.0736 141 103.5Z" fill="#F5B335"/>
<path d="M137 114.5C137 120.851 134.352 123.444 131.5 126C128.241 123.262 126 120.851 126 114.5C126 108.149 129.259 105.556 131.5 103C133.741 105.556 137 108.149 137 114.5Z" fill="white"/>
<path d="M53.7715 100C49.6572 100 48.2857 103.015 48.1143 104.522L46 153L44 202H80C78.9714 170.345 75.3714 106.532 75.3714 104.522C75.3714 101.507 71.7714 100 69.7143 100H53.7715Z" fill="white"/>
<path d="M32 207.5C32 203.91 34.9101 201 38.5 201H82.5C86.0899 201 89 203.91 89 207.5C89 211.09 86.0899 214 82.5 214H38.5C34.9101 214 32 211.09 32 207.5Z" fill="#FF1053"/>
<path d="M121.156 133.411L118.053 206.947H145.211C144.435 183.067 141.719 134.928 141.719 133.411C141.719 131.137 139.003 130 137.451 130H125.424C122.32 130 121.286 132.274 121.156 133.411Z" fill="white"/>
<path d="M110 208.904C110 206.195 112.195 204 114.904 204H148.096C150.805 204 153 206.195 153 208.904C153 211.612 150.805 213.807 148.096 213.807H114.904C112.195 213.807 110 211.612 110 208.904Z" fill="#FF1053"/>
<path d="M161.104 46.264C166.672 48.76 170.416 53.176 170.416 60.184C170.416 71.896 160.432 80.248 146.512 80.248C132.208 80.248 122.704 72.472 121.168 59.896H136.336C137.104 64.312 140.944 67.192 146.512 67.192C151.696 67.192 155.536 64.216 155.536 59.896C155.536 55.384 151.6 52.6 145.36 52.6H139.984V40.696H145.36C150.736 40.696 154.096 37.624 154.096 33.208C154.096 28.696 150.736 25.816 145.936 25.816C140.752 25.816 137.392 28.792 137.008 33.4H121.936C122.704 21.208 131.632 12.472 146.032 12.472C159.664 12.472 168.592 20.824 168.592 32.824C168.592 39.256 165.616 43.576 161.104 46.264Z" fill="white"/>
</svg>
