<svg width="181" height="109" viewBox="0 0 181 109" fill="none" xmlns="http://www.w3.org/2000/svg">
<path d="M0 109V0H180.5V109H0Z" fill="#FF7591"/>
<path d="M26 55.973L30.9393 70.9007H46.9232L33.992 80.1265L38.9313 95.0542L26 85.8284L13.0687 95.0542L18.008 80.1265L5.07676 70.9007H21.0607L26 55.973Z" fill="#004E4D"/>
<path d="M67 23.5676L71.9393 38.4953H87.9232L74.992 47.7211L79.9313 62.6488L67 53.423L54.0687 62.6488L59.008 47.7211L46.0768 38.4953H62.0607L67 23.5676Z" fill="#004E4D"/>
<path d="M109 55.973L113.939 70.9007H129.923L116.992 80.1265L121.931 95.0542L109 85.8284L96.0687 95.0542L101.008 80.1265L88.0768 70.9007H104.061L109 55.973Z" fill="#004E4D"/>
<rect x="25" width="2" height="60.8829" fill="#004E4D"/>
<rect x="66" width="2" height="30.4414" fill="#004E4D"/>
<rect x="108" width="2" height="62.8468" fill="#004E4D"/>
<path d="M172.712 65.944V79.48H164.552V91H149.288V79.48H116.072V69.4L133.832 25.72H149.384L134.024 65.944H149.288V47.992H164.552V65.944H172.712Z" fill="white"/>
</svg>
