<svg width="180" height="164" viewBox="0 0 180 164" fill="none" xmlns="http://www.w3.org/2000/svg">
<path d="M1 0V163V164H180V0H1Z" fill="#FF7591"/>
<path d="M41 145.5L15 72L72.5 50C73.6667 52.6667 75.2353 58 82 80.9998L82 81C89.5 106.5 95.5 96.5 116 100.5C131.054 103.437 139.5 117.5 138 135.5C136.8 149.9 126.5 159.5 114.5 159.5C102.5 159.5 68.5 160 58.5 158.5C47.4169 156.838 42.3333 149.833 41 145.5Z" fill="#A20E38"/>
<rect y="57.7699" width="80.4002" height="29.2034" rx="14.6017" transform="rotate(-18.6944 0 57.7699)" fill="white"/>
<path d="M136.584 35.208C151.08 35.976 160.872 45.768 160.872 58.248C160.872 71.88 150.12 82.248 134.472 82.248C118.728 82.248 108.168 71.688 108.168 58.536C108.168 53.16 110.376 48.168 113.736 42.696L130.728 15.72H149.064L136.584 35.208ZM134.472 69.288C141.096 69.288 145.608 64.296 145.608 58.824C145.608 53.352 141.192 48.264 134.472 48.264C131.592 48.264 128.808 49.032 126.792 50.472L126.408 51.144C124.104 54.408 123.24 56.52 123.24 58.92C123.24 64.296 127.848 69.288 134.472 69.288Z" fill="white"/>
</svg>
