<svg width="180" height="214" viewBox="0 0 180 214" fill="none" xmlns="http://www.w3.org/2000/svg">
<path d="M0 214V1.43624V0H180V214H0Z" fill="#007B79"/>
<path d="M47.9762 57.6961L37.5 38.1044L48.5 2.09802L47.9762 57.6961Z" fill="#F5B335"/>
<path d="M58 38.2892L48 2.09802L47.5 56.1225L58 38.2892Z" fill="#CF8800"/>
<path d="M58 37.7647L47.5 56.1226L92 29.3726L58 37.7647Z" fill="#F5B335"/>
<path d="M91.5 29.3726L47.5 56.1226H68L91.5 29.3726Z" fill="#CF8800"/>
<path d="M68 56.1226H47.5L92.5 83.3971L68 56.1226Z" fill="#F5B335"/>
<path d="M92.5 83.3971L47.5 56.1226L58 74.4804L92.5 83.3971Z" fill="#CF8800"/>
<path d="M58 74.4804L47.5 56.1226V110.672L58 74.4804Z" fill="#F5B335"/>
<path d="M47.5 110.147V56.1226L37.5 73.9559L47.5 110.147Z" fill="#CF8800"/>
<path d="M37.5 74.4804L47.5 56.1226L3 82.8726L37.5 74.4804Z" fill="#F5B335"/>
<path d="M47.5 56.1225L3 82.8725L27 55.598L47.5 56.1225Z" fill="#CF8800"/>
<path d="M37.5 37.7647L47.5 56.1226L3.5 28.3235L37.5 37.7647Z" fill="#CF8800"/>
<path d="M47.5 56.1226L3.5 28.3235L26.5 55.5981L47.5 56.1226Z" fill="#F5B335"/>
<path d="M31.7695 130.276L26 119.486L32.058 99.6569L31.7695 130.276Z" fill="#F5B335"/>
<path d="M37.2899 119.588L31.7826 99.6569L31.5073 129.409L37.2899 119.588Z" fill="#CF8800"/>
<path d="M37.2899 119.299L31.5073 129.409L56.0145 114.678L37.2899 119.299Z" fill="#F5B335"/>
<path d="M55.7391 114.678L31.5073 129.409H42.7971L55.7391 114.678Z" fill="#CF8800"/>
<path d="M42.7971 129.409H31.5073L56.2899 144.43L42.7971 129.409Z" fill="#F5B335"/>
<path d="M56.2899 144.43L31.5073 129.409L37.2899 139.52L56.2899 144.43Z" fill="#CF8800"/>
<path d="M37.2899 139.52L31.5073 129.409V159.451L37.2899 139.52Z" fill="#F5B335"/>
<path d="M31.5072 159.162V129.409L26 139.231L31.5072 159.162Z" fill="#CF8800"/>
<path d="M26 139.52L31.5072 129.409L7 144.141L26 139.52Z" fill="#F5B335"/>
<path d="M31.5072 129.41L7 144.141L20.2174 129.121L31.5072 129.41Z" fill="#CF8800"/>
<path d="M26 119.299L31.5073 129.41L7.27539 114.1L26 119.299Z" fill="#CF8800"/>
<path d="M31.5073 129.41L7.27539 114.1L19.9421 129.121L31.5073 129.41Z" fill="#F5B335"/>
<path d="M118.769 72.58L113 61.7904L119.058 41.9608L118.769 72.58Z" fill="#F5B335"/>
<path d="M124.29 61.8922L118.783 41.9608L118.507 71.7134L124.29 61.8922Z" fill="#CF8800"/>
<path d="M124.29 61.6033L118.507 71.7134L143.015 56.9815L124.29 61.6033Z" fill="#F5B335"/>
<path d="M142.739 56.9815L118.507 71.7134H129.797L142.739 56.9815Z" fill="#CF8800"/>
<path d="M129.797 71.7134H118.507L143.29 86.7341L129.797 71.7134Z" fill="#F5B335"/>
<path d="M143.29 86.7341L118.507 71.7134L124.29 81.8235L143.29 86.7341Z" fill="#CF8800"/>
<path d="M124.29 81.8235L118.507 71.7134V101.755L124.29 81.8235Z" fill="#F5B335"/>
<path d="M118.507 101.466V71.7134L113 81.5346L118.507 101.466Z" fill="#CF8800"/>
<path d="M113 81.8235L118.507 71.7134L94 86.4453L113 81.8235Z" fill="#F5B335"/>
<path d="M118.507 71.7134L94 86.4453L107.217 71.4246L118.507 71.7134Z" fill="#CF8800"/>
<path d="M113 61.6033L118.507 71.7134L94.2754 56.4038L113 61.6033Z" fill="#CF8800"/>
<path d="M118.507 71.7134L94.2754 56.4038L106.942 71.4246L118.507 71.7134Z" fill="#F5B335"/>
<path d="M75.5 4.19611L77.4084 10.3574H83.584L78.5878 14.1652L80.4962 20.3265L75.5 16.5186L70.5038 20.3265L72.4122 14.1652L67.416 10.3574H73.5916L75.5 4.19611Z" fill="#004E4D"/>
<path d="M78.5 101.755L80.4084 107.916H86.584L81.5878 111.724L83.4962 117.885L78.5 114.077L73.5038 117.885L75.4122 111.724L70.416 107.916H76.5916L78.5 101.755Z" fill="#004E4D"/>
<path d="M116.5 20.9804L118.408 27.1417H124.584L119.588 30.9495L121.496 37.1108L116.5 33.3029L111.504 37.1108L113.412 30.9495L108.416 27.1417H114.592L116.5 20.9804Z" fill="#004E4D"/>
<path d="M20.5 83.9216L22.4084 90.0828H28.584L23.5878 93.8907L25.4962 100.052L20.5 96.2441L15.5038 100.052L17.4122 93.8907L12.416 90.0828H18.5916L20.5 83.9216Z" fill="#004E4D"/>
<path d="M24.5 11.5392L26.4084 17.7005H32.584L27.5878 21.5084L29.4962 27.6696L24.5 23.8618L19.5038 27.6696L21.4122 21.5084L16.416 17.7005H22.5916L24.5 11.5392Z" fill="#004E4D"/>
<path d="M142.5 4.19611L144.408 10.3574H150.584L145.588 14.1652L147.496 20.3265L142.5 16.5186L137.504 20.3265L139.412 14.1652L134.416 10.3574H140.592L142.5 4.19611Z" fill="#004E4D"/>
<path d="M153.5 38.8137L155.408 44.975H161.584L156.588 48.7829L158.496 54.9441L153.5 51.1363L148.504 54.9441L150.412 48.7829L145.416 44.975H151.592L153.5 38.8137Z" fill="#004E4D"/>
<path d="M117.96 129.112H165.576V138.232L140.52 194.392H122.856L145.896 143.608H117.96V129.112Z" fill="white"/>
</svg>
