<svg width="180" height="204" viewBox="0 0 180 204" fill="none" xmlns="http://www.w3.org/2000/svg">
<path d="M0 204V1.36913V0H180V204H0Z" fill="#007B79"/>
<path d="M47.9762 55L37.5 36.3238L48.5 2L47.9762 55Z" fill="#F5B335"/>
<path d="M58 36.5L48 2L47.5 53.5L58 36.5Z" fill="#CF8800"/>
<path d="M58 36L47.5 53.5L92 28L58 36Z" fill="#F5B335"/>
<path d="M91.5 28L47.5 53.5H68L91.5 28Z" fill="#CF8800"/>
<path d="M68 53.5H47.5L92.5 79.5L68 53.5Z" fill="#F5B335"/>
<path d="M92.5 79.5L47.5 53.5L58 71L92.5 79.5Z" fill="#CF8800"/>
<path d="M58 71L47.5 53.5V105.5L58 71Z" fill="#F5B335"/>
<path d="M47.5 105V53.5L37.5 70.5L47.5 105Z" fill="#CF8800"/>
<path d="M37.5 71L47.5 53.5L3 79L37.5 71Z" fill="#F5B335"/>
<path d="M47.5 53.5L3 79L27 53L47.5 53.5Z" fill="#CF8800"/>
<path d="M37.5 36L47.5 53.5L3.5 27L37.5 36Z" fill="#CF8800"/>
<path d="M47.5 53.5L3.5 27L26.5 53L47.5 53.5Z" fill="#F5B335"/>
<path d="M31.7695 124.188L26 113.903L32.058 95L31.7695 124.188Z" fill="#F5B335"/>
<path d="M37.2899 114L31.7826 95L31.5073 123.362L37.2899 114Z" fill="#CF8800"/>
<path d="M37.2899 113.725L31.5073 123.362L56.0145 109.319L37.2899 113.725Z" fill="#F5B335"/>
<path d="M55.7391 109.319L31.5073 123.362H42.7971L55.7391 109.319Z" fill="#CF8800"/>
<path d="M42.7971 123.362H31.5073L56.2899 137.681L42.7971 123.362Z" fill="#F5B335"/>
<path d="M56.2899 137.681L31.5073 123.362L37.2899 133L56.2899 137.681Z" fill="#CF8800"/>
<path d="M37.2899 133L31.5073 123.362V152L37.2899 133Z" fill="#F5B335"/>
<path d="M31.5072 151.725V123.362L26 132.725L31.5072 151.725Z" fill="#CF8800"/>
<path d="M26 133L31.5072 123.362L7 137.406L26 133Z" fill="#F5B335"/>
<path d="M31.5072 123.362L7 137.406L20.2174 123.087L31.5072 123.362Z" fill="#CF8800"/>
<path d="M26 113.725L31.5073 123.362L7.27539 108.768L26 113.725Z" fill="#CF8800"/>
<path d="M31.5073 123.362L7.27539 108.768L19.9421 123.087L31.5073 123.362Z" fill="#F5B335"/>
<path d="M118.769 69.1884L113 58.903L119.058 40L118.769 69.1884Z" fill="#F5B335"/>
<path d="M124.29 59L118.783 40L118.507 68.3623L124.29 59Z" fill="#CF8800"/>
<path d="M124.29 58.7246L118.507 68.3623L143.015 54.3188L124.29 58.7246Z" fill="#F5B335"/>
<path d="M142.739 54.3188L118.507 68.3623H129.797L142.739 54.3188Z" fill="#CF8800"/>
<path d="M129.797 68.3623H118.507L143.29 82.6811L129.797 68.3623Z" fill="#F5B335"/>
<path d="M143.29 82.6811L118.507 68.3623L124.29 78L143.29 82.6811Z" fill="#CF8800"/>
<path d="M124.29 78L118.507 68.3623V97L124.29 78Z" fill="#F5B335"/>
<path d="M118.507 96.7246V68.3623L113 77.7246L118.507 96.7246Z" fill="#CF8800"/>
<path d="M113 78L118.507 68.3623L94 82.4058L113 78Z" fill="#F5B335"/>
<path d="M118.507 68.3623L94 82.4058L107.217 68.087L118.507 68.3623Z" fill="#CF8800"/>
<path d="M113 58.7246L118.507 68.3623L94.2754 53.7681L113 58.7246Z" fill="#CF8800"/>
<path d="M118.507 68.3623L94.2754 53.7681L106.942 68.087L118.507 68.3623Z" fill="#F5B335"/>
<path d="M75.5 4L77.4084 9.87336L83.584 9.87336L78.5878 13.5033L80.4962 19.3766L75.5 15.7467L70.5038 19.3766L72.4122 13.5033L67.416 9.87336L73.5916 9.87336L75.5 4Z" fill="#004E4D"/>
<path d="M78.5 97L80.4084 102.873L86.584 102.873L81.5878 106.503L83.4962 112.377L78.5 108.747L73.5038 112.377L75.4122 106.503L70.416 102.873L76.5916 102.873L78.5 97Z" fill="#004E4D"/>
<path d="M116.5 20L118.408 25.8734L124.584 25.8734L119.588 29.5033L121.496 35.3766L116.5 31.7467L111.504 35.3766L113.412 29.5033L108.416 25.8734L114.592 25.8734L116.5 20Z" fill="#004E4D"/>
<path d="M20.5 80L22.4084 85.8734L28.584 85.8734L23.5878 89.5033L25.4962 95.3766L20.5 91.7467L15.5038 95.3766L17.4122 89.5033L12.416 85.8734L18.5916 85.8734L20.5 80Z" fill="#004E4D"/>
<path d="M24.5 11L26.4084 16.8734L32.584 16.8734L27.5878 20.5033L29.4962 26.3766L24.5 22.7467L19.5038 26.3766L21.4122 20.5033L16.416 16.8734L22.5916 16.8734L24.5 11Z" fill="#004E4D"/>
<path d="M142.5 4L144.408 9.87336L150.584 9.87336L145.588 13.5033L147.496 19.3766L142.5 15.7467L137.504 19.3766L139.412 13.5033L134.416 9.87336L140.592 9.87336L142.5 4Z" fill="#004E4D"/>
<path d="M153.5 37L155.408 42.8734L161.584 42.8734L156.588 46.5033L158.496 52.3766L153.5 48.7467L148.504 52.3766L150.412 46.5033L145.416 42.8734L151.592 42.8734L153.5 37Z" fill="#004E4D"/>
<path d="M117.96 123.72H165.576V132.84L140.52 189H122.856L145.896 138.216H117.96V123.72Z" fill="white"/>
</svg>
