<svg width="180" height="180" viewBox="0 0 180 180" fill="none" xmlns="http://www.w3.org/2000/svg">
<path d="M0 180V1.00559V0H180V180H0Z" fill="#007B79"/>
<path d="M46.5825 84.7043C38.2948 88.1574 25 101.107 25 106.287C25 111.467 31.9243 126.993 41.4027 136.502C61.1628 156.327 98.0928 151.178 112.193 147.725C121.69 145.999 138.61 136.33 130.323 111.467C119.963 80.3878 56.0788 80.7476 46.5825 84.7043Z" fill="#F5B335"/>
<path d="M158.182 103.697C153.002 103.697 131.261 110.346 128.83 111.467C126.399 112.588 121.917 130.599 128.83 134.776C136.599 139.956 146.096 143.409 153.865 142.546C160.772 141.778 163.362 103.697 158.182 103.697Z" fill="#F5B335"/>
<path d="M75.0715 50.1724C61.2587 58.8054 58.6688 66.5751 56.0789 70.8917C53.489 75.2082 113.057 80.388 115.647 77.7981C118.236 75.2081 105.287 54.4889 103.56 50.1724C101.834 45.856 107.014 41.5394 103.56 38.0862C100.107 34.633 88.8843 41.5395 75.0715 50.1724Z" fill="#A20E38"/>
<circle cx="103.56" cy="37.2229" r="11.2229" fill="white"/>
<rect x="47.5386" y="69.165" width="75.2225" height="15.5394" rx="4.5" transform="rotate(6.72338 47.5386 69.165)" fill="white"/>
<path d="M25 105.424L26.7266 107.15L33.633 112.33C37.9495 114.92 42.4041 114.995 45.7192 113.675" stroke="#CF8800"/>
<path d="M40.5394 100.466C41.4027 97.5879 43.9926 92.1779 47.4458 93.5591C50.899 94.9404 51.1868 101.041 50.899 103.919" stroke="#CF8800"/>
<path d="M62.1219 98.5172C64.424 101.395 67.3017 107.748 67.3017 111.467C67.3017 118.373 61.2586 125.28 59.532 123.553" stroke="#CF8800"/>
<path d="M78.5246 116.165C78.5246 117.891 79.5606 121.862 83.7044 123.934C88.8842 126.524 92.3374 126.524 94.9273 126.524C97.5172 126.524 100.107 124.798 100.107 120.481C100.107 116.165 100.107 111.848 94.9273 110.985C90.7835 110.294 85.1432 110.697 82.8411 110.985" stroke="#CF8800"/>
<path d="M145.519 115.353L157.578 116.157" stroke="#CF8800" stroke-width="0.5" stroke-linecap="round"/>
<path d="M145.531 130.551L157.59 131.355" stroke="#CF8800" stroke-width="0.5" stroke-linecap="round"/>
<path d="M139.3 120.185L148.775 120.817L158.251 121.449" stroke="#CF8800" stroke-width="0.5" stroke-linecap="round"/>
<path d="M138.956 125.353L148.431 125.985L157.906 126.618" stroke="#CF8800" stroke-width="0.5" stroke-linecap="round"/>
<path d="M161.504 44.344C168.128 47.608 171.968 53.176 171.968 60.088C171.968 72.376 162.176 80.248 145.568 80.248C129.056 80.248 119.168 72.376 119.168 60.088C119.168 53.176 123.008 47.608 129.632 44.344C124.736 41.464 121.856 36.856 121.856 31.096C121.856 19.96 131.744 12.472 145.568 12.472C159.392 12.472 169.184 19.96 169.184 31.096C169.184 36.856 166.304 41.368 161.504 44.344ZM145.568 24.184C140.288 24.184 136.64 27.448 136.64 32.056C136.64 36.568 140.288 40.12 145.568 40.12C150.848 40.12 154.592 36.472 154.592 32.056C154.592 27.544 150.848 24.184 145.568 24.184ZM145.568 67.576C151.232 67.576 155.456 63.832 155.456 59.032C155.456 54.232 151.232 50.584 145.568 50.584C139.904 50.584 135.776 54.136 135.776 59.032C135.776 63.928 139.904 67.576 145.568 67.576Z" fill="white"/>
</svg>
