<svg width="180" height="185" viewBox="0 0 180 185" fill="none" xmlns="http://www.w3.org/2000/svg">
<path d="M0 185V6.00559V5H180V185H0Z" fill="#007B79"/>
<path d="M46.5825 89.7043C38.2948 93.1574 25 106.107 25 111.287C25 116.467 31.9243 131.993 41.4027 141.502C61.1628 161.327 98.0928 156.178 112.193 152.725C121.69 150.999 138.61 141.33 130.323 116.467C119.963 85.3878 56.0788 85.7476 46.5825 89.7043Z" fill="#F5B335"/>
<path d="M158.182 108.697C153.002 108.697 131.261 115.346 128.83 116.467C126.399 117.588 121.917 135.599 128.83 139.776C136.599 144.956 146.096 148.409 153.865 147.546C160.772 146.778 163.362 108.697 158.182 108.697Z" fill="#F5B335"/>
<path d="M75.0715 55.1724C61.2587 63.8054 58.6688 71.5751 56.0789 75.8917C53.489 80.2082 113.057 85.388 115.647 82.7981C118.236 80.2081 105.287 59.4889 103.56 55.1724C101.834 50.856 107.014 46.5394 103.56 43.0862C100.107 39.633 88.8843 46.5395 75.0715 55.1724Z" fill="#A20E38"/>
<circle cx="103.56" cy="42.2229" r="11.2229" fill="white"/>
<rect x="47.5386" y="74.165" width="75.2225" height="15.5394" rx="4.5" transform="rotate(6.72338 47.5386 74.165)" fill="white"/>
<path d="M25 110.424L26.7266 112.15L33.633 117.33C37.9495 119.92 42.4041 119.995 45.7192 118.675" stroke="#CF8800"/>
<path d="M40.5394 105.466C41.4027 102.588 43.9926 97.1779 47.4458 98.5591C50.899 99.9404 51.1868 106.041 50.899 108.919" stroke="#CF8800"/>
<path d="M62.1219 103.517C64.424 106.395 67.3017 112.748 67.3017 116.467C67.3017 123.373 61.2586 130.28 59.532 128.553" stroke="#CF8800"/>
<path d="M78.5246 121.165C78.5246 122.891 79.5606 126.862 83.7044 128.934C88.8842 131.524 92.3374 131.524 94.9273 131.524C97.5172 131.524 100.107 129.798 100.107 125.481C100.107 121.165 100.107 116.848 94.9273 115.985C90.7835 115.294 85.1432 115.697 82.8411 115.985" stroke="#CF8800"/>
<path d="M145.519 120.353L157.578 121.157" stroke="#CF8800" stroke-width="0.5" stroke-linecap="round"/>
<path d="M145.531 135.551L157.59 136.355" stroke="#CF8800" stroke-width="0.5" stroke-linecap="round"/>
<path d="M139.3 125.185L148.775 125.817L158.251 126.449" stroke="#CF8800" stroke-width="0.5" stroke-linecap="round"/>
<path d="M138.956 130.353L148.431 130.985L157.906 131.618" stroke="#CF8800" stroke-width="0.5" stroke-linecap="round"/>
<path d="M161.504 44.344C168.128 47.608 171.968 53.176 171.968 60.088C171.968 72.376 162.176 80.248 145.568 80.248C129.056 80.248 119.168 72.376 119.168 60.088C119.168 53.176 123.008 47.608 129.632 44.344C124.736 41.464 121.856 36.856 121.856 31.096C121.856 19.96 131.744 12.472 145.568 12.472C159.392 12.472 169.184 19.96 169.184 31.096C169.184 36.856 166.304 41.368 161.504 44.344ZM145.568 24.184C140.288 24.184 136.64 27.448 136.64 32.056C136.64 36.568 140.288 40.12 145.568 40.12C150.848 40.12 154.592 36.472 154.592 32.056C154.592 27.544 150.848 24.184 145.568 24.184ZM145.568 67.576C151.232 67.576 155.456 63.832 155.456 59.032C155.456 54.232 151.232 50.584 145.568 50.584C139.904 50.584 135.776 54.136 135.776 59.032C135.776 63.928 139.904 67.576 145.568 67.576Z" fill="white"/>
</svg>
