<svg width="313" height="333" viewBox="0 0 313 333" fill="none" xmlns="http://www.w3.org/2000/svg">
<g clip-path="url(#clip0_77_151)">
<path d="M313 333L313 5.34058e-05L0 5.34058e-05L0 333L313 333Z" fill="#FF7591"/>
<path d="M-7.62939e-05 156.268V119.992L201.593 333H164.458L-7.62939e-05 156.268Z" fill="#007B79"/>
<path d="M0.00012207 89.2963V46.5085L271.444 333H235.192L0.00012207 89.2963Z" fill="#007B79"/>
<path d="M61 -0.00448608L94.6 -0.00448608L313 229.755V267.893L61 -0.00448608Z" fill="#007B79"/>
<path d="M130.859 5.34058e-05L165.342 5.34058e-05L313 155.338V195.335L130.859 5.34058e-05Z" fill="#007B79"/>
<path d="M199.825 5.34058e-05L236.076 5.34058e-05L313 81.8548V120.922L199.825 5.34058e-05Z" fill="#007B79"/>
<path d="M268.791 5.34058e-05L313 5.34058e-05V46.5084L268.791 5.34058e-05Z" fill="#007B79"/>
<path d="M1.52588e-05 234.402V193.475L129.975 333H96.3757L1.52588e-05 234.402Z" fill="#007B79"/>
<path d="M-4.95911e-05 301.374L-4.95911e-05 266.028L61.0084 333H25.6412L-4.95911e-05 301.374Z" fill="#007B79"/>
<path d="M0 5.34058e-05L26.5254 5.34058e-05L313 299.514V333H307.695H303.274L0 11.1621V5.34058e-05Z" fill="#007B79"/>
<path d="M138.078 149.848H153.246V163H106.11V149.848H122.43V115.096L107.07 119.8V105.112L128.382 97.72H138.078V149.848ZM196.573 130.264C202.141 132.76 205.885 137.176 205.885 144.184C205.885 155.896 195.901 164.248 181.981 164.248C167.677 164.248 158.173 156.472 156.637 143.896H171.805C172.573 148.312 176.413 151.192 181.981 151.192C187.165 151.192 191.005 148.216 191.005 143.896C191.005 139.384 187.069 136.6 180.829 136.6H175.453V124.696H180.829C186.205 124.696 189.565 121.624 189.565 117.208C189.565 112.696 186.205 109.816 181.405 109.816C176.221 109.816 172.861 112.792 172.477 117.4H157.405C158.173 105.208 167.101 96.472 181.501 96.472C195.133 96.472 204.061 104.824 204.061 116.824C204.061 123.256 201.085 127.576 196.573 130.264Z" fill="white"/>
<path d="M38.5342 190.02C36.5842 190.02 35.2642 188.76 35.2642 186.93C35.2642 185.1 36.5842 183.87 38.5342 183.87C40.4842 183.87 41.8042 185.1 41.8042 186.93C41.8042 188.76 40.4842 190.02 38.5342 190.02ZM38.5342 185.49C37.6642 185.49 37.0642 186.09 37.0642 186.93C37.0642 187.8 37.6642 188.4 38.5342 188.4C39.4042 188.4 40.0042 187.8 40.0042 186.93C40.0042 186.09 39.4042 185.49 38.5342 185.49ZM45.6142 213L43.5142 208.11H33.5542L31.4542 213H28.0042L37.0342 192.6H40.0642L49.0642 213H45.6142ZM34.7542 205.23H42.2842L38.5342 196.44L34.7542 205.23ZM59.5349 198.54C63.4949 198.54 66.7049 201.84 66.7049 205.92C66.7049 210.06 63.4949 213.36 59.5349 213.36C57.7349 213.36 56.2049 212.82 55.0349 211.89V213H51.9149V191.7H55.0349V199.98C56.2049 199.08 57.7349 198.54 59.5349 198.54ZM59.0849 210.54C61.6949 210.54 63.5849 208.44 63.5849 205.92C63.5849 203.43 61.6949 201.36 59.0849 201.36C57.5249 201.36 56.0849 201.87 55.0349 203.34V208.53C56.0849 210 57.5249 210.54 59.0849 210.54ZM76.8833 198.54C81.5633 198.54 84.4733 202.11 83.8733 206.88H72.8033C73.1033 209.01 74.4533 210.63 77.0933 210.63C78.4733 210.63 79.5233 210.21 80.0933 209.31H83.5133C82.6133 211.86 80.1233 213.36 77.0633 213.36C72.6233 213.36 69.6233 210.15 69.6233 205.95C69.6233 201.78 72.5933 198.54 76.8833 198.54ZM76.9133 201.18C74.5733 201.18 73.2233 202.74 72.8633 204.72H80.7833C80.6033 202.41 79.1033 201.18 76.9133 201.18ZM94.9562 198.54C98.6162 198.54 101.106 201.06 101.106 205.14V213H97.9862V205.32C97.9862 202.74 96.6062 201.36 94.3262 201.36C92.9762 201.36 91.5062 202.11 90.3962 203.49V213H87.2762V198.9H90.3962V200.16C91.6262 199.11 93.1562 198.54 94.9562 198.54ZM123.95 191.7H127.04V213H123.95V211.86C122.75 212.82 121.22 213.36 119.42 213.36C115.46 213.36 112.28 210.06 112.28 205.92C112.28 201.84 115.46 198.54 119.42 198.54C121.22 198.54 122.75 199.08 123.95 200.01V191.7ZM119.87 210.54C121.43 210.54 122.9 210 123.95 208.47V203.4C122.9 201.9 121.43 201.36 119.87 201.36C117.29 201.36 115.4 203.43 115.4 205.92C115.4 208.44 117.29 210.54 119.87 210.54ZM142.231 198.9H145.321V213H142.231V211.89C141.031 212.82 139.501 213.36 137.701 213.36C133.741 213.36 130.561 210.06 130.561 205.95C130.561 201.84 133.741 198.54 137.701 198.54C139.501 198.54 141.031 199.08 142.231 200.01V198.9ZM138.151 210.54C139.711 210.54 141.181 210 142.231 208.5V203.4C141.181 201.9 139.711 201.36 138.151 201.36C135.571 201.36 133.681 203.43 133.681 205.95C133.681 208.47 135.571 210.54 138.151 210.54ZM160.629 198.9H163.719V213.39C163.719 217.68 160.809 220.26 156.579 220.26C152.619 220.26 149.709 217.92 149.319 214.56H152.499C152.769 216.27 154.269 217.44 156.579 217.44C158.949 217.44 160.629 215.97 160.629 213.39V211.17C159.429 212.1 157.839 212.64 156.039 212.64C152.079 212.64 148.959 209.46 148.959 205.68C148.959 201.48 152.079 198.54 156.039 198.54C157.839 198.54 159.429 199.08 160.629 200.01V198.9ZM156.489 209.94C158.049 209.94 159.579 209.34 160.629 207.78V203.4C159.579 201.84 158.049 201.21 156.489 201.21C153.879 201.21 152.079 203.07 152.079 205.68C152.079 207.84 153.879 209.94 156.489 209.94ZM174.354 198.54C179.034 198.54 181.944 202.11 181.344 206.88H170.274C170.574 209.01 171.924 210.63 174.564 210.63C175.944 210.63 176.994 210.21 177.564 209.31H180.984C180.084 211.86 177.594 213.36 174.534 213.36C170.094 213.36 167.094 210.15 167.094 205.95C167.094 201.78 170.064 198.54 174.354 198.54ZM174.384 201.18C172.044 201.18 170.694 202.74 170.334 204.72H178.254C178.074 202.41 176.574 201.18 174.384 201.18ZM192.427 198.54C196.087 198.54 198.577 201.06 198.577 205.14V213H195.457V205.32C195.457 202.74 194.077 201.36 191.797 201.36C190.447 201.36 188.977 202.11 187.867 203.49V213H184.747V198.9H187.867V200.16C189.097 199.11 190.627 198.54 192.427 198.54ZM204.333 208.35C204.663 210.09 205.953 210.81 208.083 210.81C209.913 210.81 211.173 210.21 211.173 209.1C211.173 208.26 210.483 207.66 209.283 207.45L206.163 206.91C204.003 206.55 201.993 205.47 201.993 202.92C201.993 200.19 204.363 198.51 207.873 198.51C210.603 198.51 213.753 199.44 214.053 203.13H211.173C211.023 201.6 209.673 201 207.873 201C206.073 201 205.083 201.66 205.083 202.65C205.083 203.4 205.623 204.12 207.273 204.39L209.913 204.81C212.043 205.2 214.143 206.13 214.143 208.86C214.143 211.83 211.533 213.36 207.993 213.36C204.663 213.36 201.813 212.04 201.453 208.32L204.333 208.35ZM225.763 191.7H228.883V213H225.763V191.7ZM240.377 196.71C238.427 196.71 237.107 195.45 237.107 193.62C237.107 191.79 238.427 190.56 240.377 190.56C242.327 190.56 243.647 191.79 243.647 193.62C243.647 195.45 242.327 196.71 240.377 196.71ZM240.377 192.18C239.507 192.18 238.907 192.78 238.907 193.62C238.907 194.49 239.507 195.09 240.377 195.09C241.247 195.09 241.847 194.49 241.847 193.62C241.847 192.78 241.247 192.18 240.377 192.18ZM244.067 198.9H247.157V213H244.067V211.89C242.867 212.82 241.337 213.36 239.537 213.36C235.577 213.36 232.397 210.06 232.397 205.95C232.397 201.84 235.577 198.54 239.537 198.54C241.337 198.54 242.867 199.08 244.067 200.01V198.9ZM239.987 210.54C241.547 210.54 243.017 210 244.067 208.5V203.4C243.017 201.9 241.547 201.36 239.987 201.36C237.407 201.36 235.517 203.43 235.517 205.95C235.517 208.47 237.407 210.54 239.987 210.54ZM262.465 198.9H265.555V213.39C265.555 217.68 262.645 220.26 258.415 220.26C254.455 220.26 251.545 217.92 251.155 214.56H254.335C254.605 216.27 256.105 217.44 258.415 217.44C260.785 217.44 262.465 215.97 262.465 213.39V211.17C261.265 212.1 259.675 212.64 257.875 212.64C253.915 212.64 250.795 209.46 250.795 205.68C250.795 201.48 253.915 198.54 257.875 198.54C259.675 198.54 261.265 199.08 262.465 200.01V198.9ZM258.325 209.94C259.885 209.94 261.415 209.34 262.465 207.78V203.4C261.415 201.84 259.885 201.21 258.325 201.21C255.715 201.21 253.915 203.07 253.915 205.68C253.915 207.84 255.715 209.94 258.325 209.94ZM276.19 198.54C280.87 198.54 283.78 202.11 283.18 206.88H272.11C272.41 209.01 273.76 210.63 276.4 210.63C277.78 210.63 278.83 210.21 279.4 209.31H282.82C281.92 211.86 279.43 213.36 276.37 213.36C271.93 213.36 268.93 210.15 268.93 205.95C268.93 201.78 271.9 198.54 276.19 198.54ZM276.22 201.18C273.88 201.18 272.53 202.74 272.17 204.72H280.09C279.91 202.41 278.41 201.18 276.22 201.18Z" fill="white"/>
</g>
<defs>
<clipPath id="clip0_77_151">
<rect width="313" height="333" fill="white"/>
</clipPath>
</defs>
</svg>
