<svg width="180" height="229" viewBox="0 0 180 229" fill="none" xmlns="http://www.w3.org/2000/svg">
<path d="M180 229L180 0L0 0L0 229L180 229Z" fill="#FF7591"/>
<path d="M-7.62939e-05 107.464V82.5168L115.932 229H94.5762L-7.62939e-05 107.464Z" fill="#007B79"/>
<path d="M0.00012207 61.408V31.9834L156.102 229H135.254L0.00012207 61.408Z" fill="#007B79"/>
<path d="M35.0847 0L54.4068 0L180 157.997V184.223L35.0847 0Z" fill="#007B79"/>
<path d="M75.2542 0L95.0847 0L180 106.824V134.33L75.2542 0Z" fill="#007B79"/>
<path d="M114.915 0L135.763 0L180 56.2905L180 83.1564L114.915 0Z" fill="#007B79"/>
<path d="M154.576 0L180 0V31.9832L154.576 0Z" fill="#007B79"/>
<path d="M7.62939e-05 161.196V133.05L74.7458 229H55.4238L7.62939e-05 161.196Z" fill="#007B79"/>
<path d="M-2.67029e-05 207.251L-2.67029e-05 182.944L35.0847 229H14.7457L-2.67029e-05 207.251Z" fill="#007B79"/>
<path d="M0 0L15.2542 0L180 205.972V229H176.949H174.407L0 7.67598V0Z" fill="#007B79"/>
<path d="M72.328 133.848H87.496V147H40.36V133.848H56.68V99.096L41.32 103.8V89.112L62.632 81.72H72.328V133.848ZM130.823 114.264C136.391 116.76 140.135 121.176 140.135 128.184C140.135 139.896 130.151 148.248 116.231 148.248C101.927 148.248 92.4228 140.472 90.8867 127.896H106.055C106.823 132.312 110.663 135.192 116.231 135.192C121.415 135.192 125.255 132.216 125.255 127.896C125.255 123.384 121.319 120.6 115.079 120.6H109.703V108.696H115.079C120.455 108.696 123.815 105.624 123.815 101.208C123.815 96.696 120.455 93.816 115.655 93.816C110.471 93.816 107.111 96.792 106.727 101.4H91.6548C92.4228 89.208 101.351 80.472 115.751 80.472C129.383 80.472 138.311 88.824 138.311 100.824C138.311 107.256 135.335 111.576 130.823 114.264Z" fill="white"/>
</svg>
