<svg width="180" height="181" viewBox="0 0 180 181" fill="none" xmlns="http://www.w3.org/2000/svg">
<path d="M0 181V0H180V181H0Z" fill="#FF1053"/>
<path d="M35.5 149.203L71 126.7L108 149.203L143.5 126.7L180 149.203V157.03L143.5 134.527L108 157.03L71 134.527L35.5 157.03L0 135.995V128.168L35.5 149.203Z" fill="#CF1046"/>
<path d="M35.5 123.276L71 100.773L108 123.276L143.5 100.773L180 123.276V131.103L143.5 108.6L108 131.103L71 108.6L35.5 131.103L0 110.068V102.241L35.5 123.276Z" fill="#CF1046"/>
<path d="M35.5 97.8379L71 75.3352L108 97.8379L143.5 75.3352L180 97.8379V105.665L143.5 83.1622L108 105.665L71 83.1622L35.5 105.665L0 84.6298V76.8028L35.5 97.8379Z" fill="#CF1046"/>
<path d="M35.5 73.3784L71 50.8757L108 73.3784L143.5 50.8757L180 73.3784V81.2055L143.5 58.7028L108 81.2055L71 58.7028L35.5 81.2055L0 60.1703V52.3433L35.5 73.3784Z" fill="#CF1046"/>
<path d="M35.5 48.919L71 26.4163L108 48.919L143.5 26.4163L180 48.919V56.746L143.5 34.2433L108 56.746L71 34.2433L35.5 56.746L0 35.7109V27.8838L35.5 48.919Z" fill="#CF1046"/>
<path d="M35.5 22.5027L71 0L108 22.5027L143.5 0L180 22.5027V30.3297L143.5 7.82703L108 30.3297L71 7.82703L35.5 30.3297L0 9.29459V1.46757L35.5 22.5027Z" fill="#CF1046"/>
<path d="M35.5 173.173L71 150.67L108 173.173L143.5 150.67L180 173.173V181L143.5 158.497L108 181L71 158.497L35.5 181L0 159.965V152.138L35.5 173.173Z" fill="#CF1046"/>
<rect x="22.5" y="23.5" width="135" height="135" stroke="white" stroke-width="5"/>
<path d="M66.8124 109.848H81.9804V123H34.8444V109.848H51.1644V75.096L35.8044 79.8V65.112L57.1164 57.72H66.8124V109.848ZM115.073 56.472C133.889 56.472 145.313 70.584 145.313 90.36C145.313 110.136 133.889 124.248 115.073 124.248C96.2574 124.248 84.8334 110.136 84.8334 90.36C84.8334 70.584 96.2574 56.472 115.073 56.472ZM115.073 110.136C124.769 110.136 129.953 101.688 129.953 90.36C129.953 79.032 124.769 70.584 115.073 70.584C105.377 70.584 100.193 79.032 100.193 90.36C100.193 101.688 105.377 110.136 115.073 110.136Z" fill="white"/>
</svg>
