<svg width="180" height="179" viewBox="0 0 180 179" fill="none" xmlns="http://www.w3.org/2000/svg">
<path d="M0 179V1.06548V0H180V179H0Z" fill="#A20E38"/>
<rect opacity="0.59" width="20" height="179" fill="#CF1046"/>
<rect opacity="0.59" x="80" width="20" height="179" fill="#CF1046"/>
<rect opacity="0.59" x="160" width="20" height="179" fill="#CF1046"/>
<rect opacity="0.59" x="120" width="20" height="179" fill="#CF1046"/>
<rect opacity="0.59" x="40" width="20" height="179" fill="#CF1046"/>
<rect opacity="0.8" y="20.1191" width="20.119" height="180" transform="rotate(-90 0 20.1191)" fill="#CF1046"/>
<rect opacity="0.8" y="60.3572" width="20.119" height="180" transform="rotate(-90 0 60.3572)" fill="#CF1046"/>
<rect opacity="0.8" y="100.595" width="20.119" height="180" transform="rotate(-90 0 100.595)" fill="#CF1046"/>
<rect opacity="0.8" y="140.833" width="20.119" height="180" transform="rotate(-90 0 140.833)" fill="#CF1046"/>
<rect opacity="0.8" y="179" width="18" height="180" transform="rotate(-90 0 179)" fill="#CF1046"/>
<path d="M89.664 55.472C105.408 55.472 115.968 66.032 115.968 79.184C115.968 84.56 113.76 89.552 110.4 95.024L93.408 122H75.072L87.552 102.512C73.056 101.744 63.264 91.952 63.264 79.472C63.264 65.84 74.016 55.472 89.664 55.472ZM97.344 87.248L97.728 86.576C100.032 83.312 100.896 81.2 100.896 78.8C100.896 73.424 96.288 68.432 89.664 68.432C83.04 68.432 78.528 73.424 78.528 78.896C78.528 84.368 82.944 89.456 89.664 89.456C92.544 89.456 95.328 88.688 97.344 87.248Z" fill="white"/>
</svg>
