<svg width="180" height="181" viewBox="0 0 180 181" fill="none" xmlns="http://www.w3.org/2000/svg">
<path d="M0 181V0H180V181H0Z" fill="#FF1053"/>
<path d="M35.5 149.203L71 126.7L108 149.203L143.5 126.7L180 149.203V157.03L143.5 134.527L108 157.03L71 134.527L35.5 157.03L0 135.995V128.168L35.5 149.203Z" fill="#CF1046"/>
<path d="M35.5 123.276L71 100.773L108 123.276L143.5 100.773L180 123.276V131.103L143.5 108.6L108 131.103L71 108.6L35.5 131.103L0 110.068V102.241L35.5 123.276Z" fill="#CF1046"/>
<path d="M35.5 97.8378L71 75.3351L108 97.8378L143.5 75.3351L180 97.8378V105.665L143.5 83.1622L108 105.665L71 83.1622L35.5 105.665L0 84.6297V76.8027L35.5 97.8378Z" fill="#CF1046"/>
<path d="M35.5 73.3784L71 50.8757L108 73.3784L143.5 50.8757L180 73.3784V81.2054L143.5 58.7027L108 81.2054L71 58.7027L35.5 81.2054L0 60.1703V52.3432L35.5 73.3784Z" fill="#CF1046"/>
<path d="M35.5 48.9189L71 26.4162L108 48.9189L143.5 26.4162L180 48.9189V56.7459L143.5 34.2432L108 56.7459L71 34.2432L35.5 56.7459L0 35.7108V27.8838L35.5 48.9189Z" fill="#CF1046"/>
<path d="M35.5 22.5027L71 0L108 22.5027L143.5 0L180 22.5027V30.3297L143.5 7.82703L108 30.3297L71 7.82703L35.5 30.3297L0 9.29459V1.46757L35.5 22.5027Z" fill="#CF1046"/>
<path d="M35.5 173.173L71 150.67L108 173.173L143.5 150.67L180 173.173V181L143.5 158.497L108 181L71 158.497L35.5 181L0 159.965V152.138L35.5 173.173Z" fill="#CF1046"/>
<rect x="22.5" y="22.5" width="135" height="135" stroke="white" stroke-width="5"/>
<path d="M68.328 112.848H83.496V126H36.36V112.848H52.68V78.096L37.32 82.8V68.112L58.632 60.72H68.328V112.848ZM116.589 59.472C135.405 59.472 146.829 73.584 146.829 93.36C146.829 113.136 135.405 127.248 116.589 127.248C97.773 127.248 86.349 113.136 86.349 93.36C86.349 73.584 97.773 59.472 116.589 59.472ZM116.589 113.136C126.285 113.136 131.469 104.688 131.469 93.36C131.469 82.032 126.285 73.584 116.589 73.584C106.893 73.584 101.709 82.032 101.709 93.36C101.709 104.688 106.893 113.136 116.589 113.136Z" fill="white"/>
</svg>
