<svg width="180" height="164" viewBox="0 0 180 164" fill="none" xmlns="http://www.w3.org/2000/svg">
<path d="M0 0V163V164H180V0H0Z" fill="#FF7591"/>
<path d="M47.229 142.5L21.0837 69L78.905 47C80.0782 49.6667 81.6555 55 88.458 78C95.9999 103.5 102.033 93.5 122.648 97.5C137.786 100.437 146.279 114.5 144.771 132.5C143.564 146.9 133.207 156.5 121.14 156.5C109.073 156.5 74.8826 157 64.8268 155.5C53.6817 153.838 48.5698 146.833 47.229 142.5Z" fill="#A20E38"/>
<rect width="80.8033" height="29.2202" rx="14.6101" transform="matrix(0.947781 -0.318921 0.322126 0.946697 6 54.77)" fill="white"/>
<path d="M139.584 31.208C154.08 31.976 163.872 41.768 163.872 54.248C163.872 67.88 153.12 78.248 137.472 78.248C121.728 78.248 111.168 67.688 111.168 54.536C111.168 49.16 113.376 44.168 116.736 38.696L133.728 11.72H152.064L139.584 31.208ZM137.472 65.288C144.096 65.288 148.608 60.296 148.608 54.824C148.608 49.352 144.192 44.264 137.472 44.264C134.592 44.264 131.808 45.032 129.792 46.472L129.408 47.144C127.104 50.408 126.24 52.52 126.24 54.92C126.24 60.296 130.848 65.288 137.472 65.288Z" fill="white"/>
</svg>
