<svg width="180" height="233" viewBox="0 0 180 233" fill="none" xmlns="http://www.w3.org/2000/svg">
<path d="M0 233V0H180V233H0Z" fill="#A20E38"/>
<path d="M75 68.6791C75 86.38 68.5 93.6071 61.5 100.729C53.5 93.0983 48 86.38 48 68.6791C48 50.9783 56 43.7512 61.5 36.6289C67 43.7512 75 50.9783 75 68.6791Z" fill="#F5B335"/>
<path d="M70 81.9062C70 92.3019 65.9074 96.5464 61.5 100.729C56.463 96.2476 53 92.3019 53 81.9062C53 71.5104 58.037 67.2659 61.5 63.083C64.963 67.2659 70 71.5104 70 81.9062Z" fill="white"/>
<path d="M53.7715 104.799C49.6572 104.799 48.2857 107.867 48.1143 109.4L46 158.725L44 208.581H80C78.9714 176.373 75.3714 111.445 75.3714 109.4C75.3714 106.333 71.7714 104.799 69.7143 104.799H53.7715Z" fill="white"/>
<path d="M32 214.177C32 210.524 34.961 207.563 38.6135 207.563H82.3865C86.039 207.563 89 210.524 89 214.177V214.177C89 217.829 86.039 220.79 82.3865 220.79H38.6135C34.961 220.79 32 217.829 32 214.177V214.177Z" fill="#FF1053"/>
<path d="M136 108.36C136 121.004 131.426 126.166 126.5 131.253C120.87 125.803 117 121.004 117 108.36C117 95.7168 122.63 90.5546 126.5 85.4673C130.37 90.5546 136 95.7168 136 108.36Z" fill="#F5B335"/>
<path d="M132 119.552C132 126.015 129.352 128.653 126.5 131.253C123.241 128.467 121 126.015 121 119.552C121 113.09 124.259 110.452 126.5 107.852C128.741 110.452 132 113.09 132 119.552Z" fill="white"/>
<path d="M116.156 138.794L113.053 213.615H140.211C139.435 189.317 136.719 140.337 136.719 138.794C136.719 136.48 134.003 135.323 132.451 135.323H120.424C117.32 135.323 116.286 137.637 116.156 138.794Z" fill="white"/>
<path d="M105 215.605C105 212.849 107.234 210.616 109.989 210.616H143.011C145.766 210.616 148 212.849 148 215.605V215.605C148 218.36 145.766 220.594 143.011 220.594H109.989C107.234 220.594 105 218.36 105 215.605V215.605Z" fill="#FF1053"/>
<path d="M155.104 45.0413C160.672 47.5373 164.416 51.9533 164.416 58.9613C164.416 70.6733 154.432 79.0253 140.512 79.0253C126.208 79.0253 116.704 71.2493 115.168 58.6733H130.336C131.104 63.0893 134.944 65.9693 140.512 65.9693C145.696 65.9693 149.536 62.9933 149.536 58.6733C149.536 54.1613 145.6 51.3773 139.36 51.3773H133.984V39.4733H139.36C144.736 39.4733 148.096 36.4013 148.096 31.9853C148.096 27.4733 144.736 24.5933 139.936 24.5933C134.752 24.5933 131.392 27.5693 131.008 32.1773H115.936C116.704 19.9853 125.632 11.2493 140.032 11.2493C153.664 11.2493 162.592 19.6013 162.592 31.6013C162.592 38.0333 159.616 42.3533 155.104 45.0413Z" fill="white"/>
</svg>
