<svg width="180" height="218" viewBox="0 0 180 218" fill="none" xmlns="http://www.w3.org/2000/svg">
<path d="M180 0H0V218H180V0Z" fill="#A20E38"/>
<path d="M57.4411 145.482V148.433H60.0378V145.482L61.5217 141.424L60.0378 138.841V137.366L67.828 132.57L69.3119 128.881H64.8603L60.0378 135.152V129.988L70.7957 124.085L71.9086 119.29H66.7151L60.0378 127.405V121.872L73.7634 114.125L74.5054 108.591L68.57 109.698L60.0378 118.921L61.5217 105.64L58.183 99L54.4734 105.64L57.4411 118.921L48.167 108.591H42.2316L43.7154 114.125L57.4411 121.872V127.405L49.2799 118.921H44.8283L46.6831 124.085L57.812 129.988V135.152L52.2476 128.881H47.796L48.9089 132.57L57.812 137.366V138.841L55.9572 141.424L57.4411 145.482Z" fill="white"/>
<path d="M59.6669 160.607L59.6669 157.655L57.0701 157.655L57.0701 160.607L55.5863 164.665L57.0701 167.247L57.0701 168.723L49.2799 173.518L47.796 177.207L52.2476 177.207L57.0701 170.936L57.0701 176.101L46.3122 182.003L45.1993 186.799L50.3928 186.799L57.0701 178.683L57.0701 184.216L43.3445 191.963L42.6025 197.497L48.538 196.39L57.0701 187.168L55.5863 200.448L58.9249 207.088L62.6346 200.448L59.6669 187.168L68.9409 197.497L74.8763 197.497L73.3925 191.963L59.6669 184.216L59.6669 178.683L67.828 187.168L72.2796 187.168L70.4248 182.003L59.2959 176.101L59.2959 170.936L64.8603 177.207L69.3119 177.207L68.199 173.518L59.2959 168.723L59.2959 167.247L61.1507 164.665L59.6669 160.607Z" fill="white"/>
<path d="M63.5501 148.588L61.0311 150.148L62.4041 152.34L64.923 150.78L69.1712 149.887L70.5907 147.269L71.8502 146.489L80.0624 150.529L83.9957 149.831L81.642 146.073L73.7394 145.318L78.1476 142.588L88.8735 148.547L93.5553 146.951L90.8093 142.567L80.3517 141.222L85.0748 138.297L98.9441 145.786L104.059 143.487L99.9767 139.062L87.5937 136.736L99.7136 130.967L103.616 124.638L95.987 125.018L86.2208 134.544L90.1337 121.255L86.9955 116.245L83.057 120.423L83.7018 136.105L78.9787 139.031L81.9057 127.656L79.5521 123.898L76.1246 128.195L76.9708 140.709L72.5626 143.44L74.9733 135.427L72.6197 131.67L70.0594 134.559L70.6734 144.61L69.4139 145.39L66.2291 145.19L63.5501 148.588Z" fill="white"/>
<path d="M53.0336 157.595L55.6038 156.12L54.3054 153.883L51.7353 155.359L47.4594 156.11L45.9525 158.679L44.6675 159.417L36.5959 155.106L32.6414 155.672L34.8672 159.506L42.7399 160.524L38.2422 163.106L27.723 156.792L22.9902 158.232L25.5869 162.704L35.9934 164.397L31.1744 167.164L17.5651 159.217L12.3751 161.344L16.3066 165.903L28.6043 168.639L16.2969 174.002L12.1835 180.197L19.821 180.072L29.9027 170.876L25.5443 184.027L28.512 189.139L32.5891 185.094L32.4728 169.4L37.2917 166.633L33.9833 177.904L36.209 181.738L39.7793 177.558L39.3551 165.023L43.8528 162.441L41.1735 170.368L43.3993 174.202L46.0555 171.399L45.7804 161.334L47.0654 160.596L50.2417 160.902L53.0336 157.595Z" fill="white"/>
<path d="M65.9867 155.379L63.3808 153.967L62.1382 156.234L64.7441 157.647L67.6171 160.884L70.6073 160.824L71.9103 161.53L72.417 170.627L74.9643 173.688L77.0945 169.801L73.8647 162.589L78.4249 165.061L78.4888 177.279L82.1908 180.546L84.676 176.011L80.7051 166.296L85.5911 168.944L85.8635 184.637L90.3945 187.932L92.2575 182.22L88.197 170.356L99.2133 178.007L106.674 178.269L102.586 171.853L89.4396 168.089L102.998 164.934L105.838 159.751L100.242 158.399L86.8337 166.677L81.9477 164.029L93.3449 160.963L95.475 157.076L90.0272 156.224L79.49 163.117L74.9298 160.646L83.1299 158.788L85.2601 154.901L81.4702 154.107L72.9753 159.587L71.6724 158.88L70.2798 156.025L65.9867 155.379Z" fill="white"/>
<path d="M52.0023 150.534L54.4605 152.187L55.9154 150.048L53.4571 148.395L50.9084 144.899L47.9262 144.674L46.6971 143.848L47.067 134.744L44.8255 131.455L42.3315 135.122L44.8534 142.608L40.5515 139.714L41.6623 127.546L38.2912 123.942L35.3815 128.22L38.4006 138.267L33.7914 135.167L35.0285 119.521L30.835 115.81L28.4315 121.319L31.3332 133.514L21.1026 124.851L13.7011 123.881L17.1538 130.657L29.8784 135.653L16.0788 137.505L12.7535 142.394L18.194 144.272L32.3366 137.306L36.9458 140.406L25.3061 142.375L22.8121 146.042L28.1531 147.408L39.3045 141.548L43.6064 144.441L35.2652 145.511L32.7712 149.178L36.4675 150.328L45.4501 145.681L46.6792 146.508L47.7909 149.482L52.0023 150.534Z" fill="white"/>
<ellipse cx="58.9248" cy="153.229" rx="5.19348" ry="5.16463" fill="white"/>
<path d="M141.273 110.802V112.44H142.714V110.802L143.538 108.549L142.714 107.116V106.297L147.039 103.635L147.862 101.587H145.391L142.714 105.068V102.201L148.686 98.9249L149.304 96.2628H146.421L142.714 100.768V97.6962L150.333 93.3959L150.745 90.3242L147.451 90.9386L142.714 96.058L143.538 88.686L141.685 85L139.626 88.686L141.273 96.058L136.125 90.3242H132.83L133.654 93.3959L141.273 97.6962V100.768L136.743 96.058H134.272L135.301 98.9249L141.479 102.201V105.068L138.39 101.587H135.919L136.537 103.635L141.479 106.297V107.116L140.449 108.549L141.273 110.802Z" fill="white"/>
<path d="M142.508 119.198L142.508 117.56L141.067 117.56L141.067 119.198L140.243 121.451L141.067 122.884L141.067 123.703L136.743 126.365L135.919 128.413L138.39 128.413L141.067 124.932L141.067 127.799L135.095 131.075L134.478 133.737L137.36 133.737L141.067 129.232L141.067 132.304L133.448 136.604L133.036 139.676L136.331 139.061L141.067 133.942L140.243 141.314L142.097 145L144.156 141.314L142.508 133.942L147.657 139.676L150.951 139.676L150.128 136.604L142.508 132.304L142.508 129.232L147.039 133.942L149.51 133.942L148.48 131.075L142.303 127.799L142.303 124.932L145.391 128.413L147.862 128.413L147.245 126.365L142.303 123.703L142.303 122.884L143.332 121.451L142.508 119.198Z" fill="white"/>
<path d="M144.664 112.526L143.266 113.393L144.028 114.609L145.426 113.743L147.784 113.247L148.572 111.794L149.271 111.361L153.83 113.604L156.013 113.216L154.707 111.13L150.32 110.712L152.767 109.196L158.721 112.504L161.32 111.618L159.796 109.184L153.991 108.438L156.612 106.814L164.311 110.971L167.151 109.695L164.884 107.238L158.011 105.948L164.738 102.745L166.905 99.2318L162.67 99.4426L157.249 104.731L159.421 97.3539L157.679 94.5729L155.492 96.8922L155.85 105.597L153.228 107.221L154.853 100.907L153.547 98.8212L151.644 101.206L152.114 108.153L149.667 109.669L151.005 105.221L149.699 103.135L148.277 104.739L148.618 110.318L147.919 110.751L146.151 110.64L144.664 112.526Z" fill="white"/>
<path d="M138.826 117.526L140.253 116.707L139.532 115.466L138.106 116.285L135.732 116.702L134.896 118.128L134.182 118.538L129.702 116.144L127.507 116.459L128.742 118.587L133.112 119.152L130.616 120.585L124.776 117.081L122.149 117.88L123.591 120.362L129.367 121.302L126.692 122.838L119.138 118.426L116.257 119.608L118.439 122.138L125.266 123.657L118.434 126.634L116.15 130.073L120.39 130.003L125.986 124.898L123.567 132.199L125.214 135.036L127.478 132.791L127.413 124.079L130.088 122.543L128.252 128.8L129.487 130.928L131.469 128.608L131.233 121.649L133.73 120.216L132.243 124.617L133.478 126.745L134.953 125.189L134.8 119.602L135.513 119.192L137.277 119.362L138.826 117.526Z" fill="white"/>
<path d="M146.017 116.296L144.57 115.512L143.88 116.771L145.327 117.555L146.922 119.352L148.581 119.319L149.305 119.711L149.586 124.761L151 126.46L152.182 124.302L150.39 120.299L152.921 121.67L152.956 128.453L155.011 130.266L156.391 127.749L154.187 122.356L156.899 123.826L157.05 132.537L159.565 134.367L160.6 131.196L158.346 124.61L164.461 128.857L168.602 129.003L166.333 125.441L159.035 123.352L166.562 121.6L168.138 118.723L165.032 117.972L157.589 122.568L154.877 121.098L161.203 119.396L162.386 117.238L159.361 116.765L153.512 120.592L150.981 119.22L155.533 118.188L156.715 116.031L154.611 115.59L149.896 118.632L149.173 118.24L148.4 116.655L146.017 116.296Z" fill="white"/>
<path d="M138.254 113.606L139.618 114.524L140.426 113.337L139.061 112.419L137.647 110.479L135.991 110.354L135.309 109.895L135.514 104.842L134.27 103.016L132.886 105.051L134.286 109.207L131.898 107.6L132.514 100.846L130.643 98.8455L129.028 101.22L130.704 106.797L128.145 105.076L128.832 96.3912L126.504 94.331L125.17 97.3892L126.78 104.159L121.101 99.35L116.993 98.8115L118.909 102.573L125.973 105.346L118.313 106.374L116.467 109.088L119.487 110.131L127.337 106.264L129.896 107.985L123.435 109.078L122.05 111.113L125.015 111.871L131.205 108.618L133.593 110.224L128.963 110.818L127.579 112.854L129.63 113.492L134.617 110.913L135.299 111.372L135.916 113.023L138.254 113.606Z" fill="white"/>
<ellipse cx="142.097" cy="115.102" rx="2.88291" ry="2.86689" fill="white"/>
<path d="M143.689 185.529V186.579H144.612V185.529L145.14 184.086L144.612 183.168V182.643L147.382 180.938L147.91 179.626H146.327L144.612 181.856V180.019L148.438 177.92L148.833 176.215H146.987L144.612 179.101V177.133L149.493 174.379L149.757 172.411L147.646 172.804L144.612 176.084L145.14 171.361L143.953 169L142.633 171.361L143.689 176.084L140.391 172.411H138.28L138.808 174.379L143.689 177.133V179.101L140.787 176.084H139.204L139.863 177.92L143.821 180.019V181.856L141.842 179.626H140.259L140.655 180.938L143.821 182.643V183.168L143.161 184.086L143.689 185.529Z" fill="white"/>
<path d="M144.48 190.908L144.48 189.858L143.557 189.858L143.557 190.908L143.029 192.351L143.557 193.269L143.557 193.794L140.787 195.499L140.259 196.811L141.842 196.811L143.557 194.581L143.557 196.417L139.731 198.516L139.335 200.222L141.182 200.222L143.557 197.336L143.557 199.303L138.676 202.058L138.412 204.026L140.523 203.632L143.557 200.353L143.029 205.075L144.216 207.437L145.536 205.075L144.48 200.353L147.778 204.026L149.889 204.026L149.361 202.058L144.48 199.303L144.48 197.336L147.382 200.353L148.965 200.353L148.306 198.516L144.348 196.417L144.348 194.581L146.327 196.811L147.91 196.811L147.514 195.499L144.348 193.794L144.348 193.269L145.008 192.351L144.48 190.908Z" fill="white"/>
<path d="M145.861 186.634L144.965 187.189L145.454 187.968L146.349 187.413L147.86 187.096L148.365 186.165L148.813 185.887L151.733 187.324L153.132 187.076L152.295 185.739L149.484 185.471L151.052 184.5L154.866 186.619L156.531 186.052L155.555 184.493L151.836 184.015L153.515 182.974L158.447 185.637L160.266 184.82L158.815 183.246L154.411 182.419L158.721 180.368L160.109 178.117L157.396 178.252L153.923 181.64L155.314 176.914L154.198 175.132L152.798 176.618L153.027 182.195L151.348 183.235L152.388 179.19L151.551 177.854L150.333 179.382L150.634 183.832L149.066 184.803L149.923 181.954L149.086 180.617L148.176 181.645L148.394 185.219L147.946 185.497L146.814 185.425L145.861 186.634Z" fill="white"/>
<path d="M142.121 189.837L143.035 189.312L142.574 188.517L141.66 189.042L140.139 189.309L139.603 190.222L139.146 190.485L136.276 188.951L134.87 189.153L135.661 190.516L138.461 190.878L136.862 191.796L133.121 189.551L131.438 190.063L132.361 191.654L136.062 192.256L134.348 193.239L129.509 190.413L127.663 191.17L129.061 192.791L133.434 193.764L129.058 195.671L127.595 197.874L130.311 197.83L133.896 194.559L132.346 199.236L133.401 201.054L134.851 199.616L134.81 194.035L136.524 193.051L135.347 197.059L136.139 198.422L137.408 196.936L137.257 192.478L138.857 191.56L137.904 194.379L138.695 195.742L139.64 194.745L139.542 191.166L139.999 190.904L141.129 191.013L142.121 189.837Z" fill="white"/>
<path d="M146.728 189.049L145.801 188.546L145.359 189.353L146.286 189.855L147.307 191.006L148.371 190.985L148.834 191.236L149.014 194.471L149.92 195.559L150.678 194.177L149.529 191.613L151.151 192.491L151.173 196.836L152.49 197.998L153.374 196.385L151.962 192.931L153.699 193.872L153.796 199.453L155.407 200.625L156.07 198.593L154.626 194.375L158.543 197.095L161.196 197.188L159.743 194.907L155.068 193.568L159.889 192.446L160.899 190.603L158.909 190.122L154.141 193.066L152.403 192.125L156.456 191.034L157.214 189.652L155.277 189.349L151.529 191.8L149.908 190.921L152.824 190.261L153.581 188.878L152.234 188.596L149.213 190.545L148.749 190.294L148.254 189.278L146.728 189.049Z" fill="white"/>
<path d="M141.755 187.326L142.629 187.914L143.146 187.153L142.272 186.565L141.366 185.322L140.305 185.242L139.868 184.948L140 181.711L139.203 180.541L138.316 181.845L139.212 184.507L137.683 183.478L138.078 179.151L136.879 177.87L135.844 179.391L136.918 182.964L135.279 181.861L135.719 176.297L134.227 174.978L133.373 176.937L134.405 181.273L130.767 178.193L128.135 177.848L129.362 180.257L133.887 182.034L128.98 182.693L127.798 184.431L129.732 185.099L134.761 182.622L136.4 183.724L132.261 184.424L131.374 185.728L133.274 186.214L137.239 184.13L138.769 185.159L135.803 185.54L134.916 186.844L136.23 187.252L139.425 185.6L139.862 185.894L140.257 186.952L141.755 187.326Z" fill="white"/>
<ellipse cx="144.216" cy="188.284" rx="1.84683" ry="1.83657" fill="white"/>
<path d="M91.9509 63.848H107.119V77H59.9829V63.848H76.3029V29.096L60.9429 33.8V19.112L82.2549 11.72H91.9509V63.848ZM139.207 31.208C153.703 31.976 163.495 41.768 163.495 54.248C163.495 67.88 152.743 78.248 137.095 78.248C121.351 78.248 110.791 67.688 110.791 54.536C110.791 49.16 112.999 44.168 116.359 38.696L133.351 11.72H151.687L139.207 31.208ZM137.095 65.288C143.719 65.288 148.231 60.296 148.231 54.824C148.231 49.352 143.815 44.264 137.095 44.264C134.215 44.264 131.431 45.032 129.415 46.472L129.031 47.144C126.727 50.408 125.863 52.52 125.863 54.92C125.863 60.296 130.471 65.288 137.095 65.288Z" fill="white"/>
</svg>
