<svg width="180" height="138" viewBox="0 0 180 138" fill="none" xmlns="http://www.w3.org/2000/svg">
<path d="M0 138V0.000244141H180V138H0Z" fill="#FF7591"/>
<path d="M25.8562 55.9731L30.7683 70.9009H46.6639L33.804 80.1267L38.7161 95.0544L25.8562 85.8286L12.9964 95.0544L17.9084 80.1267L5.04859 70.9009H20.9442L25.8562 55.9731Z" fill="#004E4D"/>
<path d="M66.6299 23.5679L71.5419 38.4956H87.4376L74.5777 47.7214L79.4897 62.6492L66.6299 53.4233L53.7701 62.6492L58.6821 47.7214L45.8223 38.4956H61.7179L66.6299 23.5679Z" fill="#004E4D"/>
<path d="M108.398 55.9731L113.31 70.9009H129.205L116.346 80.1267L121.258 95.0544L108.398 85.8286L95.5379 95.0544L100.45 80.1267L87.5901 70.9009H103.486L108.398 55.9731Z" fill="#004E4D"/>
<rect x="24.8618" y="0.000244141" width="1.98895" height="60.8829" fill="#004E4D"/>
<rect x="65.6353" y="0.000244141" width="1.98895" height="30.4414" fill="#004E4D"/>
<rect x="107.403" y="0.000244141" width="1.98895" height="62.8468" fill="#004E4D"/>
<path d="M164.472 100.944V114.48H156.312V126H141.048V114.48H107.832V104.4L125.592 60.72H141.144L125.784 100.944H141.048V82.992H156.312V100.944H164.472Z" fill="white"/>
</svg>
