<svg width="180" height="151" viewBox="0 0 180 151" fill="none" xmlns="http://www.w3.org/2000/svg">
<path d="M180 0H0V151H180V0Z" fill="#F5B335"/>
<path d="M84.4693 151H64.8604L180 53.7458V71.661L84.4693 151Z" fill="#FF7591"/>
<path d="M48.2682 151H25.1397L180 20.048V37.5367L48.2682 151Z" fill="#FF7591"/>
<path d="M0 121.568V105.359L124.19 0H144.804L0 121.568Z" fill="#FF7591"/>
<path d="M0 87.8701V71.2345L83.9665 0H105.587L0 87.8701Z" fill="#FF7591"/>
<path d="M0 54.5989V37.1102L44.2458 0H65.3631L0 54.5989Z" fill="#FF7591"/>
<path d="M0 21.3277V0H25.1397L0 21.3277Z" fill="#FF7591"/>
<path d="M126.704 151H104.581L180 88.2966V104.506L126.704 151Z" fill="#FF7591"/>
<path d="M162.905 151H143.799L180 121.568V138.63L162.905 151Z" fill="#FF7591"/>
<path d="M0 151V138.203L161.899 0H180V2.55932V4.69209L6.03352 151H0Z" fill="#FF7591"/>
<path d="M72.5347 92.848H87.7027V106H40.5667V92.848H56.8867V58.096L41.5267 62.8V48.112L62.8387 40.72H72.5347V92.848ZM113.371 39.472C129.115 39.472 139.675 50.032 139.675 63.184C139.675 68.56 137.467 73.552 134.107 79.024L117.115 106H98.7787L111.259 86.512C96.7627 85.744 86.9707 75.952 86.9707 63.472C86.9707 49.84 97.7227 39.472 113.371 39.472ZM121.051 71.248L121.435 70.576C123.739 67.312 124.603 65.2 124.603 62.8C124.603 57.424 119.995 52.432 113.371 52.432C106.747 52.432 102.235 57.424 102.235 62.896C102.235 68.368 106.651 73.456 113.371 73.456C116.251 73.456 119.035 72.688 121.051 71.248Z" fill="white"/>
</svg>
