<svg width="180" height="159" viewBox="0 0 180 159" fill="none" xmlns="http://www.w3.org/2000/svg">
<path d="M180 0H0V159H180V0Z" fill="#F5B335"/>
<path d="M84.4693 159H64.8604L180 56.5933V75.4577L84.4693 159Z" fill="#FF7591"/>
<path d="M48.2681 159H25.1396L180 21.1104V39.5256L48.2681 159Z" fill="#FF7591"/>
<path d="M0 128.008V110.941L124.19 0H144.804L0 128.008Z" fill="#FF7591"/>
<path d="M0 92.5254V75.0085L83.9665 0H105.587L0 92.5254Z" fill="#FF7591"/>
<path d="M0 57.4915V39.0763L44.2458 0H65.3631L0 57.4915Z" fill="#FF7591"/>
<path d="M0 22.4576V0H25.1397L0 22.4576Z" fill="#FF7591"/>
<path d="M126.704 159H104.581L180 92.9746V110.042L126.704 159Z" fill="#FF7591"/>
<path d="M162.905 159H143.799L180 128.009V145.975L162.905 159Z" fill="#FF7591"/>
<path d="M0 159V145.525L161.899 0H180V2.69492V4.94068L6.03352 159H0Z" fill="#FF7591"/>
<path d="M72.328 98.848H87.496V112H40.36V98.848H56.68V64.096L41.32 68.8V54.112L62.632 46.72H72.328V98.848ZM113.164 45.472C128.908 45.472 139.468 56.032 139.468 69.184C139.468 74.56 137.26 79.552 133.9 85.024L116.908 112H98.572L111.052 92.512C96.556 91.744 86.764 81.952 86.764 69.472C86.764 55.84 97.516 45.472 113.164 45.472ZM120.844 77.248L121.228 76.576C123.532 73.312 124.396 71.2 124.396 68.8C124.396 63.424 119.788 58.432 113.164 58.432C106.54 58.432 102.028 63.424 102.028 68.896C102.028 74.368 106.444 79.456 113.164 79.456C116.044 79.456 118.828 78.688 120.844 77.248Z" fill="white"/>
</svg>
