<svg width="180" height="229" viewBox="0 0 180 229" fill="none" xmlns="http://www.w3.org/2000/svg">
<path d="M0 229V0H180V229H0Z" fill="#A20E38"/>
<path d="M75 58.5C75 75.897 68.5 83 61.5 90C53.5 82.5 48 75.897 48 58.5C48 41.103 56 34 61.5 27C67 34 75 41.103 75 58.5Z" fill="#F5B335"/>
<path d="M70 71.5C70 81.7173 65.9074 85.8889 61.5 90C56.463 85.5952 53 81.7173 53 71.5C53 61.2827 58.037 57.1111 61.5 53C64.963 57.1111 70 61.2827 70 71.5Z" fill="white"/>
<path d="M141 97.5C141 109.926 136.426 115 131.5 120C125.87 114.643 122 109.926 122 97.5C122 85.0736 127.63 80 131.5 75C135.37 80 141 85.0736 141 97.5Z" fill="#F5B335"/>
<path d="M137 108.5C137 114.851 134.352 117.444 131.5 120C128.241 117.262 126 114.851 126 108.5C126 102.149 129.259 99.5556 131.5 97C133.741 99.5556 137 102.149 137 108.5Z" fill="white"/>
<path d="M53.7715 94C49.6572 94 48.2857 97.0148 48.1143 98.5222L46 147L44 196H80C78.9714 164.345 75.3714 100.532 75.3714 98.5222C75.3714 95.5074 71.7714 94 69.7143 94H53.7715Z" fill="white"/>
<path d="M32 201.5C32 197.91 34.9101 195 38.5 195H82.5C86.0899 195 89 197.91 89 201.5C89 205.09 86.0899 208 82.5 208H38.5C34.9101 208 32 205.09 32 201.5Z" fill="#FF1053"/>
<path d="M121.156 127.411L118.053 200.947H145.211C144.435 177.067 141.719 128.928 141.719 127.411C141.719 125.137 139.003 124 137.451 124H125.424C122.32 124 121.286 126.274 121.156 127.411Z" fill="white"/>
<path d="M110 202.904C110 200.195 112.195 198 114.904 198H148.096C150.805 198 153 200.195 153 202.904C153 205.612 150.805 207.807 148.096 207.807H114.904C112.195 207.807 110 205.612 110 202.904Z" fill="#FF1053"/>
<path d="M161.104 37.264C166.672 39.76 170.416 44.176 170.416 51.184C170.416 62.896 160.432 71.248 146.512 71.248C132.208 71.248 122.704 63.472 121.168 50.896H136.336C137.104 55.312 140.944 58.192 146.512 58.192C151.696 58.192 155.536 55.216 155.536 50.896C155.536 46.384 151.6 43.6 145.36 43.6H139.984V31.696H145.36C150.736 31.696 154.096 28.624 154.096 24.208C154.096 19.696 150.736 16.816 145.936 16.816C140.752 16.816 137.392 19.792 137.008 24.4H121.936C122.704 12.208 131.632 3.472 146.032 3.472C159.664 3.472 168.592 11.824 168.592 23.824C168.592 30.256 165.616 34.576 161.104 37.264Z" fill="white"/>
</svg>
