<svg width="180" height="181" viewBox="0 0 180 181" fill="none" xmlns="http://www.w3.org/2000/svg">
<path d="M0 181V0H180V181H0Z" fill="#007B79"/>
<path d="M35.5 149.203L71 126.7L108 149.203L143.5 126.7L180 149.203V157.03L143.5 134.527L108 157.03L71 134.527L35.5 157.03L0 135.995V128.168L35.5 149.203Z" fill="#004E4D"/>
<path d="M35.5 123.276L71 100.773L108 123.276L143.5 100.773L180 123.276V131.103L143.5 108.6L108 131.103L71 108.6L35.5 131.103L0 110.068V102.241L35.5 123.276Z" fill="#004E4D"/>
<path d="M35.5 97.8379L71 75.3352L108 97.8379L143.5 75.3352L180 97.8379V105.665L143.5 83.1622L108 105.665L71 83.1622L35.5 105.665L0 84.6298V76.8028L35.5 97.8379Z" fill="#004E4D"/>
<path d="M35.5 73.3784L71 50.8757L108 73.3784L143.5 50.8757L180 73.3784V81.2055L143.5 58.7028L108 81.2055L71 58.7028L35.5 81.2055L0 60.1703V52.3433L35.5 73.3784Z" fill="#004E4D"/>
<path d="M35.5 48.919L71 26.4163L108 48.919L143.5 26.4163L180 48.919V56.746L143.5 34.2433L108 56.746L71 34.2433L35.5 56.746L0 35.7109V27.8838L35.5 48.919Z" fill="#004E4D"/>
<path d="M35.5 22.5027L71 0L108 22.5027L143.5 0L180 22.5027V30.3297L143.5 7.82703L108 30.3297L71 7.82703L35.5 30.3297L0 9.29459V1.46757L35.5 22.5027Z" fill="#004E4D"/>
<path d="M35.5 173.173L71 150.67L108 173.173L143.5 150.67L180 173.173V181L143.5 158.497L108 181L71 158.497L35.5 181L0 159.965V152.138L35.5 173.173Z" fill="#004E4D"/>
<rect x="22.6117" y="23.5" width="135" height="135" stroke="white" stroke-width="5"/>
<path d="M62.8436 109.848H86.1716V123H39.6116V115.224L61.5956 89.88C66.4916 84.12 69.6596 80.568 69.6596 76.632C69.6596 73.368 67.4516 70.2 62.0756 70.2C57.0836 70.2 54.2036 73.272 53.7236 78.456H38.2676C38.6516 65.016 47.8676 56.472 62.7476 56.472C77.6276 56.472 85.6916 65.304 85.6916 76.728C85.6916 82.968 82.1396 88.248 74.3636 96.984L62.8436 109.848ZM132.487 90.264C138.055 92.76 141.799 97.176 141.799 104.184C141.799 115.896 131.815 124.248 117.895 124.248C103.591 124.248 94.0871 116.472 92.5511 103.896H107.719C108.487 108.312 112.327 111.192 117.895 111.192C123.079 111.192 126.919 108.216 126.919 103.896C126.919 99.384 122.983 96.6 116.743 96.6H111.367V84.696H116.743C122.119 84.696 125.479 81.624 125.479 77.208C125.479 72.696 122.119 69.816 117.319 69.816C112.135 69.816 108.775 72.792 108.391 77.4H93.3191C94.0871 65.208 103.015 56.472 117.415 56.472C131.047 56.472 139.975 64.824 139.975 76.824C139.975 83.256 136.999 87.576 132.487 90.264Z" fill="white"/>
</svg>
