<svg width="180" height="183" viewBox="0 0 180 183" fill="none" xmlns="http://www.w3.org/2000/svg">
<path d="M180 0H0V183H180V0Z" fill="#FF1053"/>
<rect y="5.11182" width="180" height="10" fill="#004E4D"/>
<rect y="31.1118" width="180" height="10" fill="#004E4D"/>
<rect y="57.1118" width="180" height="10" fill="#004E4D"/>
<rect y="83.1118" width="180" height="10" fill="#004E4D"/>
<rect y="109.112" width="180" height="10" fill="#004E4D"/>
<rect y="135.112" width="180" height="10" fill="#004E4D"/>
<rect y="161.112" width="180" height="10" fill="#004E4D"/>
<path d="M70.703 110.848H85.871V124H38.735V110.848H55.055V76.096L39.695 80.8V66.112L61.007 58.72H70.703V110.848ZM131.879 89.344C138.503 92.608 142.343 98.176 142.343 105.088C142.343 117.376 132.551 125.248 115.943 125.248C99.431 125.248 89.543 117.376 89.543 105.088C89.543 98.176 93.383 92.608 100.007 89.344C95.111 86.464 92.231 81.856 92.231 76.096C92.231 64.96 102.119 57.472 115.943 57.472C129.767 57.472 139.559 64.96 139.559 76.096C139.559 81.856 136.679 86.368 131.879 89.344ZM115.943 69.184C110.663 69.184 107.015 72.448 107.015 77.056C107.015 81.568 110.663 85.12 115.943 85.12C121.223 85.12 124.967 81.472 124.967 77.056C124.967 72.544 121.223 69.184 115.943 69.184ZM115.943 112.576C121.607 112.576 125.831 108.832 125.831 104.032C125.831 99.232 121.607 95.584 115.943 95.584C110.279 95.584 106.151 99.136 106.151 104.032C106.151 108.928 110.279 112.576 115.943 112.576Z" fill="white"/>
</svg>
