<svg width="179" height="166" viewBox="0 0 179 166" fill="none" xmlns="http://www.w3.org/2000/svg">
<path d="M179 0H0V166H179V0Z" fill="#007B79"/>
<path d="M68 26L117.363 131H18.6366L68 26Z" fill="#A20E38"/>
<circle cx="68" cy="26" r="16" fill="white"/>
<circle cx="20" cy="137" r="16" fill="white"/>
<circle cx="41" cy="137" r="16" fill="white"/>
<circle cx="68" cy="137" r="16" fill="white"/>
<circle cx="90" cy="137" r="16" fill="white"/>
<circle cx="112" cy="137" r="16" fill="white"/>
<path d="M137.008 47.568C151.696 47.568 160.336 56.784 160.336 68.784C160.336 82.224 150.256 91.248 135.568 91.248C121.168 91.248 111.568 82.992 110.128 70.608H125.392C126.64 75.12 130.096 77.904 135.856 77.904C141.52 77.904 145.552 74.352 145.552 68.88C145.552 63.6 141.328 60.144 134.704 60.144H113.488V24.72H157.264V38.544H128.08L127.984 47.568H137.008Z" fill="white"/>
</svg>
