<svg width="180" height="162" viewBox="0 0 180 162" fill="none" xmlns="http://www.w3.org/2000/svg">
<path d="M0 0V160.941V162H180V0H0Z" fill="#007B79"/>
<rect x="15" y="14" width="149.844" height="133.529" fill="#007B79"/>
<rect x="15" y="14" width="149.844" height="133.529" stroke="white" stroke-width="2" stroke-dasharray="4 4"/>
<path d="M90.648 100.436H113.976V113.588H67.416V105.812L89.4 80.4684C94.296 74.7084 97.464 71.1564 97.464 67.2204C97.464 63.9564 95.256 60.7884 89.88 60.7884C84.888 60.7884 82.008 63.8604 81.528 69.0444H66.072C66.456 55.6044 75.672 47.0604 90.552 47.0604C105.432 47.0604 113.496 55.8924 113.496 67.3164C113.496 73.5564 109.944 78.8364 102.168 87.5724L90.648 100.436Z" fill="white"/>
</svg>
