<svg width="180" height="179" viewBox="0 0 180 179" fill="none" xmlns="http://www.w3.org/2000/svg">
<path d="M180 0H0V179H180V0Z" fill="#A20E38"/>
<rect y="5" width="180" height="10" fill="#F5B335"/>
<rect y="31" width="180" height="10" fill="#F5B335"/>
<rect y="57" width="180" height="10" fill="#F5B335"/>
<rect y="83" width="180" height="10" fill="#F5B335"/>
<rect y="109" width="180" height="10" fill="#F5B335"/>
<rect y="135" width="180" height="10" fill="#F5B335"/>
<rect y="161" width="180" height="10" fill="#F5B335"/>
<path d="M31.3348 138.141V139.039H32.1248V138.141L32.5762 136.906L32.1248 136.121V135.672L34.4947 134.213L34.9462 133.09H33.5919L32.1248 134.998V133.427L35.3976 131.631L35.7361 130.173H34.1562L32.1248 132.642V130.958L36.3004 128.601L36.5261 126.918L34.7205 127.255L32.1248 130.06L32.5762 126.02L31.5605 124L30.432 126.02L31.3348 130.06L28.5134 126.918H26.7078L27.1592 128.601L31.3348 130.958V132.642L28.852 130.06H27.4977L28.062 131.631L31.4477 133.427V134.998L29.7548 133.09H28.4006L28.7391 134.213L31.4477 135.672V136.121L30.8834 136.906L31.3348 138.141Z" fill="white"/>
<path d="M32.0119 142.742L32.0119 141.844L31.2219 141.844L31.2219 142.742L30.7705 143.977L31.2219 144.762L31.2219 145.211L28.8519 146.67L28.4005 147.792L29.7548 147.792L31.2219 145.884L31.2219 147.456L27.9491 149.251L27.6105 150.71L29.1905 150.71L31.2219 148.241L31.2219 149.925L27.0463 152.281L26.8206 153.965L28.6262 153.628L31.2219 150.823L30.7705 154.863L31.7862 156.883L32.9147 154.863L32.0119 150.823L34.8332 153.965L36.6389 153.965L36.1875 152.281L32.0119 149.925L32.0119 148.241L34.4947 150.823L35.8489 150.823L35.2847 149.251L31.899 147.456L31.899 145.884L33.5918 147.792L34.9461 147.792L34.6075 146.67L31.899 145.211L31.899 144.762L32.4633 143.977L32.0119 142.742Z" fill="white"/>
<path d="M33.1934 139.086L32.4271 139.56L32.8448 140.227L33.6111 139.753L34.9034 139.481L35.3353 138.684L35.7185 138.447L38.2168 139.676L39.4134 139.464L38.6973 138.321L36.2932 138.091L37.6343 137.26L40.8973 139.073L42.3216 138.588L41.4862 137.254L38.3048 136.845L39.7417 135.955L43.961 138.233L45.5172 137.534L44.2751 136.188L40.508 135.48L44.1951 133.725L45.3823 131.8L43.0614 131.915L40.0903 134.813L41.2807 130.771L40.326 129.246L39.1278 130.517L39.324 135.288L37.8871 136.178L38.7776 132.718L38.0615 131.575L37.0188 132.882L37.2763 136.689L35.9352 137.52L36.6686 135.082L35.9526 133.939L35.1737 134.818L35.3604 137.876L34.9773 138.113L34.0084 138.052L33.1934 139.086Z" fill="white"/>
<path d="M29.994 141.826L30.7759 141.377L30.3809 140.697L29.599 141.146L28.2982 141.374L27.8398 142.156L27.4489 142.38L24.9933 141.068L23.7903 141.241L24.4674 142.407L26.8624 142.717L25.4942 143.502L22.294 141.582L20.8542 142.019L21.6441 143.38L24.81 143.895L23.344 144.737L19.2037 142.319L17.6249 142.966L18.8209 144.353L22.5621 145.186L18.8179 146.817L17.5665 148.702L19.89 148.664L22.9571 145.866L21.6312 149.867L22.534 151.422L23.7743 150.192L23.739 145.417L25.205 144.575L24.1985 148.004L24.8756 149.171L25.9618 147.899L25.8327 144.085L27.201 143.3L26.3859 145.712L27.0631 146.878L27.8711 146.025L27.7874 142.963L28.1784 142.739L29.1446 142.832L29.994 141.826Z" fill="white"/>
<path d="M33.9345 141.152L33.1418 140.722L32.7637 141.412L33.5565 141.841L34.4305 142.826L35.3402 142.808L35.7366 143.023L35.8908 145.791L36.6657 146.722L37.3137 145.539L36.3312 143.345L37.7185 144.097L37.7379 147.814L38.8641 148.808L39.6202 147.428L38.4122 144.473L39.8986 145.278L39.9815 150.052L41.3599 151.055L41.9267 149.317L40.6913 145.708L44.0428 148.036L46.3125 148.115L45.0688 146.163L41.0694 145.018L45.1941 144.058L46.0582 142.482L44.3557 142.07L40.2766 144.589L38.7902 143.783L42.2574 142.85L42.9055 141.668L41.2481 141.409L38.0425 143.506L36.6552 142.754L39.1499 142.189L39.7979 141.006L38.6449 140.765L36.0606 142.432L35.6642 142.217L35.2406 141.348L33.9345 141.152Z" fill="white"/>
<path d="M29.6802 139.678L30.4281 140.181L30.8707 139.53L30.1228 139.027L29.3475 137.963L28.4402 137.895L28.0663 137.644L28.1788 134.874L27.4969 133.873L26.7382 134.989L27.5054 137.266L26.1967 136.386L26.5346 132.684L25.509 131.588L24.6238 132.889L25.5423 135.946L24.1401 135.003L24.5164 130.243L23.2407 129.114L22.5095 130.79L23.3923 134.5L20.2799 131.864L18.0282 131.569L19.0786 133.631L22.9497 135.151L18.7516 135.714L17.7399 137.201L19.395 137.773L23.6975 135.654L25.0997 136.597L21.5587 137.196L20.8 138.311L22.4248 138.727L25.8173 136.944L27.126 137.824L24.5885 138.15L23.8297 139.265L24.9542 139.615L27.6869 138.201L28.0608 138.453L28.3991 139.358L29.6802 139.678Z" fill="white"/>
<ellipse cx="31.7863" cy="140.497" rx="1.57997" ry="1.57119" fill="white"/>
<path d="M52.4522 27.1407V28.0385H53.2422V27.1407L53.6936 25.9062L53.2422 25.1206V24.6717L55.6122 23.2127L56.0636 22.0905H54.7093L53.2422 23.9983V22.4271L56.515 20.6315L56.8536 19.1725H55.2736L53.2422 21.6415V19.9581L57.4179 17.6013L57.6436 15.9179L55.8379 16.2546L53.2422 19.0603L53.6936 15.0201L52.678 13L51.5494 15.0201L52.4522 19.0603L49.6309 15.9179H47.8252L48.2766 17.6013L52.4522 19.9581V21.6415L49.9694 19.0603H48.6152L49.1795 20.6315L52.5651 22.4271V23.9983L50.8723 22.0905H49.518L49.8566 23.2127L52.5651 24.6717V25.1206L52.0008 25.9062L52.4522 27.1407Z" fill="white"/>
<path d="M53.1294 31.7421L53.1294 30.8443L52.3394 30.8443L52.3394 31.7421L51.888 32.9766L52.3394 33.7622L52.3394 34.2111L49.9695 35.6701L49.5181 36.7924L50.8723 36.7924L52.3394 34.8845L52.3394 36.4557L49.0667 38.2513L48.7281 39.7103L50.3081 39.7103L52.3394 37.2413L52.3394 38.9247L48.1638 41.2815L47.9381 42.9649L49.7438 42.6282L52.3394 39.8225L51.888 43.8627L52.9037 45.8828L54.0323 43.8627L53.1294 39.8225L55.9508 42.9649L57.7565 42.9649L57.3051 41.2815L53.1294 38.9247L53.1294 37.2413L55.6122 39.8225L56.9665 39.8225L56.4022 38.2513L53.0166 36.4557L53.0166 34.8845L54.7094 36.7924L56.0636 36.7924L55.7251 35.6701L53.0166 34.2111L53.0166 33.7622L53.5808 32.9766L53.1294 31.7421Z" fill="white"/>
<path d="M54.3108 28.0858L53.5445 28.5605L53.9622 29.2273L54.7285 28.7526L56.0209 28.4809L56.4527 27.6845L56.8359 27.4471L59.3342 28.6762L60.5308 28.4638L59.8148 27.3207L57.4106 27.0911L58.7517 26.2604L62.0148 28.0735L63.439 27.5878L62.6037 26.2542L59.4222 25.845L60.8591 24.9549L65.0784 27.2334L66.6346 26.5339L65.3926 25.1877L61.6254 24.4802L65.3125 22.7251L66.4997 20.7997L64.1788 20.9152L61.2077 23.8134L62.3981 19.7705L61.4434 18.2464L60.2452 19.5175L60.4414 24.2881L59.0045 25.1782L59.895 21.7178L59.179 20.5747L58.1363 21.8817L58.3937 25.6888L57.0526 26.5196L57.786 24.0819L57.07 22.9388L56.2911 23.818L56.4779 26.8756L56.0947 27.1129L55.1258 27.052L54.3108 28.0858Z" fill="white"/>
<path d="M51.1115 30.8259L51.8933 30.377L51.4983 29.6966L50.7165 30.1455L49.4157 30.374L48.9572 31.1556L48.5663 31.38L46.1108 30.0685L44.9077 30.2409L45.5848 31.4072L47.9799 31.7167L46.6116 32.5023L43.4114 30.5816L41.9716 31.0195L42.7616 32.3802L45.9274 32.8951L44.4614 33.7368L40.3212 31.3191L38.7423 31.9664L39.9383 33.3532L43.6795 34.1857L39.9354 35.8171L38.684 37.7018L41.0075 37.6637L44.0745 34.8661L42.7486 38.8671L43.6515 40.4221L44.8918 39.1917L44.8564 34.4172L46.3224 33.5755L45.3159 37.0043L45.9931 38.1706L47.0792 36.8991L46.9502 33.0855L48.3184 32.2999L47.5034 34.7117L48.1805 35.878L48.9886 35.0253L48.9049 31.9632L49.2958 31.7387L50.2621 31.8319L51.1115 30.8259Z" fill="white"/>
<path d="M55.0521 30.1516L54.2593 29.722L53.8813 30.4118L54.6741 30.8415L55.5481 31.8264L56.4578 31.8081L56.8541 32.0229L57.0083 34.7905L57.7833 35.7217L58.4313 34.5392L57.4487 32.3451L58.836 33.097L58.8555 36.814L59.9817 37.8078L60.7377 36.4282L59.5297 33.4729L61.0161 34.2785L61.099 39.0524L62.4774 40.055L63.0442 38.3172L61.8089 34.7081L65.1603 37.0356L67.4301 37.1153L66.1864 35.1632L62.1869 34.0183L66.3117 33.0584L67.1757 31.4816L65.4733 31.0703L61.3942 33.5887L59.9077 32.7831L63.375 31.8503L64.023 30.6678L62.3657 30.4086L59.1601 32.5057L57.7727 31.7539L60.2674 31.1887L60.9154 30.0061L59.7625 29.7647L57.1782 31.4317L56.7818 31.2168L56.3581 30.3482L55.0521 30.1516Z" fill="white"/>
<path d="M50.7977 28.6776L51.5455 29.1806L51.9881 28.5299L51.2403 28.0269L50.4649 26.9634L49.5576 26.8951L49.1837 26.6436L49.2962 23.8741L48.6143 22.8735L47.8556 23.989L48.6228 26.2664L47.3141 25.3861L47.652 21.6842L46.6265 20.588L45.7413 21.8894L46.6597 24.946L45.2575 24.0028L45.6339 19.2429L44.3581 18.1138L43.6269 19.7898L44.5097 23.4998L41.3973 20.8645L39.1457 20.5693L40.196 22.6307L44.0671 24.1506L39.869 24.7141L38.8574 26.2014L40.5125 26.7727L44.815 24.6536L46.2172 25.5967L42.6761 26.1957L41.9174 27.3112L43.5422 27.7267L46.9347 25.9439L48.2435 26.8241L45.7059 27.1497L44.9472 28.2652L46.0717 28.6151L48.8043 27.2014L49.1783 27.4529L49.5165 28.3578L50.7977 28.6776Z" fill="white"/>
<ellipse cx="52.9037" cy="29.4975" rx="1.57997" ry="1.57119" fill="white"/>
<path d="M154.016 29.1407V30.0385H154.806V29.1407L155.258 27.9062L154.806 27.1206V26.6717L157.176 25.2127L157.628 24.0905H156.274L154.806 25.9983V24.4271L158.079 22.6315L158.418 21.1725H156.838L154.806 23.6415V21.9581L158.982 19.6013L159.208 17.9179L157.402 18.2546L154.806 21.0603L155.258 17.0201L154.242 15L153.114 17.0201L154.016 21.0603L151.195 17.9179H149.389L149.841 19.6013L154.016 21.9581V23.6415L151.534 21.0603H150.179L150.744 22.6315L154.129 24.4271V25.9983L152.436 24.0905H151.082L151.421 25.2127L154.129 26.6717V27.1206L153.565 27.9062L154.016 29.1407Z" fill="white"/>
<path d="M154.694 33.7421L154.694 32.8443L153.904 32.8443L153.904 33.7421L153.452 34.9766L153.904 35.7622L153.904 36.2111L151.534 37.6701L151.082 38.7924L152.436 38.7924L153.904 36.8845L153.904 38.4557L150.631 40.2513L150.292 41.7103L151.872 41.7103L153.904 39.2413L153.904 40.9247L149.728 43.2815L149.502 44.9649L151.308 44.6282L153.904 41.8225L153.452 45.8627L154.468 47.8828L155.596 45.8627L154.694 41.8225L157.515 44.9649L159.321 44.9649L158.869 43.2815L154.694 40.9247L154.694 39.2413L157.176 41.8225L158.531 41.8225L157.966 40.2513L154.581 38.4557L154.581 36.8845L156.273 38.7924L157.628 38.7924L157.289 37.6701L154.581 36.2111L154.581 35.7622L155.145 34.9766L154.694 33.7421Z" fill="white"/>
<path d="M155.875 30.0858L155.109 30.5605L155.526 31.2273L156.293 30.7526L157.585 30.4809L158.017 29.6845L158.4 29.4471L160.898 30.6762L162.095 30.4638L161.379 29.3207L158.975 29.0911L160.316 28.2604L163.579 30.0735L165.003 29.5878L164.168 28.2542L160.986 27.845L162.423 26.9549L166.643 29.2334L168.199 28.5339L166.957 27.1877L163.189 26.4802L166.877 24.7251L168.064 22.7997L165.743 22.9152L162.772 25.8134L163.962 21.7705L163.007 20.2464L161.809 21.5175L162.005 26.2881L160.569 27.1782L161.459 23.7178L160.743 22.5747L159.7 23.8817L159.958 27.6888L158.617 28.5196L159.35 26.0819L158.634 24.9388L157.855 25.818L158.042 28.8756L157.659 29.1129L156.69 29.052L155.875 30.0858Z" fill="white"/>
<path d="M152.676 32.8259L153.458 32.377L153.063 31.6966L152.281 32.1455L150.98 32.374L150.521 33.1556L150.13 33.38L147.675 32.0685L146.472 32.2409L147.149 33.4072L149.544 33.7167L148.176 34.5023L144.976 32.5816L143.536 33.0195L144.326 34.3802L147.492 34.8951L146.026 35.7368L141.885 33.3191L140.306 33.9664L141.503 35.3532L145.244 36.1857L141.5 37.8171L140.248 39.7018L142.572 39.6637L145.639 36.8661L144.313 40.8671L145.216 42.4221L146.456 41.1917L146.421 36.4172L147.887 35.5755L146.88 39.0043L147.557 40.1706L148.643 38.8991L148.514 35.0855L149.883 34.2999L149.068 36.7117L149.745 37.878L150.553 37.0253L150.469 33.9632L150.86 33.7387L151.826 33.8319L152.676 32.8259Z" fill="white"/>
<path d="M156.616 32.1516L155.824 31.722L155.446 32.4118L156.238 32.8415L157.112 33.8264L158.022 33.8081L158.418 34.0229L158.573 36.7905L159.347 37.7217L159.996 36.5392L159.013 34.3451L160.4 35.097L160.42 38.814L161.546 39.8078L162.302 38.4282L161.094 35.4729L162.58 36.2785L162.663 41.0524L164.042 42.055L164.608 40.3172L163.373 36.7081L166.725 39.0356L168.994 39.1153L167.751 37.1632L163.751 36.0183L167.876 35.0584L168.74 33.4816L167.037 33.0703L162.958 35.5887L161.472 34.7831L164.939 33.8503L165.587 32.6678L163.93 32.4086L160.724 34.5057L159.337 33.7539L161.832 33.1887L162.48 32.0061L161.327 31.7647L158.742 33.4317L158.346 33.2168L157.922 32.3482L156.616 32.1516Z" fill="white"/>
<path d="M152.362 30.6776L153.11 31.1806L153.552 30.5299L152.804 30.0269L152.029 28.9634L151.122 28.8951L150.748 28.6436L150.86 25.8741L150.179 24.8735L149.42 25.989L150.187 28.2664L148.878 27.3861L149.216 23.6842L148.191 22.588L147.305 23.8894L148.224 26.946L146.822 26.0028L147.198 21.2429L145.922 20.1138L145.191 21.7898L146.074 25.4998L142.962 22.8645L140.71 22.5693L141.76 24.6307L145.631 26.1506L141.433 26.7141L140.422 28.2014L142.077 28.7727L146.379 26.6536L147.781 27.5967L144.24 28.1957L143.482 29.3112L145.106 29.7267L148.499 27.9439L149.808 28.8241L147.27 29.1497L146.511 30.2652L147.636 30.6151L150.369 29.2014L150.742 29.4529L151.081 30.3578L152.362 30.6776Z" fill="white"/>
<ellipse cx="154.468" cy="31.4975" rx="1.57997" ry="1.57119" fill="white"/>
<circle cx="14.5614" cy="70.5" r="3.5" fill="white"/>
<circle cx="92.9972" cy="35.5" r="3.5" fill="white"/>
<circle cx="96.0139" cy="156.5" r="3.5" fill="white"/>
<circle cx="152.327" cy="132.5" r="3.5" fill="white"/>
<path d="M75.328 108.848H90.496V122H43.36V108.848H59.68V74.096L44.32 78.8V64.112L65.632 56.72H75.328V108.848ZM91.3038 56.72H138.92V65.84L113.864 122H96.1998L119.24 71.216H91.3038V56.72Z" fill="white"/>
</svg>
