<svg width="180" height="192" viewBox="0 0 180 192" fill="none" xmlns="http://www.w3.org/2000/svg">
<path d="M0 192V0.994819V0H180V192H0Z" fill="#004E4D"/>
<path d="M95.1475 121.333L90.5599 166.178L90.5543 166.178C89.6573 174.06 82.5884 179.771 74.6742 178.961C70.9694 178.582 67.7324 176.841 65.4117 174.282C62.7805 171.379 61.333 167.425 61.7115 163.227L61.7059 163.227L66.3479 117.849C66.3407 117.588 66.3048 117.329 66.2331 117.09C65.9382 116.097 65.0878 115.33 63.9948 115.219C63.552 115.173 63.132 115.238 62.7482 115.391C62.4412 115.513 62.1622 115.694 61.9189 115.912C61.5313 116.269 61.2992 116.766 61.1842 117.281C61.1502 117.448 61.1094 117.625 61.0744 117.746C60.6875 119.258 60.0738 120.662 59.2647 121.927C58.9542 122.417 58.6184 122.875 58.2564 123.314C55.2785 126.957 50.5813 129.081 45.5537 128.567C37.8301 127.777 32.1506 121.068 32.5436 113.406C32.5577 113.158 32.5773 112.911 32.6025 112.664C32.6639 112.064 32.7577 111.479 32.8896 110.909C33.0238 110.317 33.1967 109.735 33.4015 109.172C34.4914 105.217 36.3171 101.598 38.717 98.4568C42.2432 93.8279 47.0172 90.2328 52.4768 88.1295C56.734 86.4865 61.4141 85.7476 66.2519 86.1235C70.865 86.4822 75.1558 87.8329 78.9435 89.9478C85.1261 93.4007 89.9792 98.8868 92.7495 105.411C94.8172 110.278 95.7215 115.723 95.1475 121.333Z" fill="#E6243C"/>
<path d="M92.7495 105.411C87.474 111.362 77.2327 121.177 65.8411 122.804L66.3479 117.849C66.3407 117.588 66.3048 117.33 66.2331 117.09C69.7351 112.974 78.4326 101.642 78.9436 89.9478C85.1261 93.4008 89.9792 98.8868 92.7495 105.411Z" fill="white"/>
<path d="M62.7482 115.391C62.4412 115.513 62.1622 115.694 61.9189 115.912C61.5313 116.269 61.2992 116.767 61.1842 117.282C61.1502 117.448 61.1094 117.625 61.0744 117.746C60.6875 119.258 60.0738 120.662 59.2647 121.927C59.1465 121.644 52.2714 104.754 38.717 98.4569C42.2432 93.828 47.0172 90.2329 52.4768 88.1296C56.2509 92.5934 64.3545 103.73 62.7482 115.391Z" fill="white"/>
<path d="M95.0655 122.135L93.4726 137.706C87.218 141.325 74.5374 147.69 63.3354 147.298L64.7315 133.65C70.1478 132.635 86.4973 129.103 95.0655 122.135Z" fill="white"/>
<path d="M92.1768 150.372L90.6161 165.629C84.6957 168.914 74.8182 173.567 65.4116 174.281C62.7805 171.379 61.333 167.425 61.7114 163.227L61.7058 163.226L61.9375 160.962C64.5358 160.531 82.1499 157.372 92.1768 150.372Z" fill="white"/>
<path d="M58.2564 123.314C55.2785 126.957 50.5812 129.081 45.5536 128.567C37.8301 127.777 32.1505 121.068 32.5436 113.406C32.5576 113.158 32.5772 112.911 32.6025 112.664C32.6638 112.064 32.7577 111.479 32.8896 110.91C38.5459 112.53 50.1839 116.468 58.2564 123.314Z" fill="white"/>
<path d="M74.7236 178.887C71.0697 178.513 67.7044 176.821 65.2381 174.126C62.5159 171.151 61.1365 167.173 61.4204 163.175L61.4148 163.174L61.4434 162.895L66.056 117.694C66.0546 117.485 66.0211 117.256 65.9572 117.047C65.681 116.133 64.8947 115.477 63.9489 115.38C63.5604 115.34 63.1853 115.392 62.8298 115.531C62.5633 115.633 62.3137 115.794 62.0825 115.996C61.6935 116.351 61.5109 116.857 61.4349 117.21C61.4009 117.376 61.3589 117.563 61.3233 117.69C60.9433 119.179 60.3332 120.584 59.5132 121.871L59.4782 121.935C59.1672 122.416 58.8174 122.888 58.4474 123.336C55.2841 127.175 50.4213 129.166 45.4444 128.657C37.5681 127.851 31.7129 121.08 32.1099 113.251C32.1243 112.999 32.1444 112.747 32.1701 112.496C32.2335 111.876 32.3346 111.277 32.4604 110.715C32.5947 110.125 32.769 109.533 32.9821 108.951C34.0632 105.057 35.8674 101.433 38.3536 98.2069C41.9438 93.5308 46.7593 89.9447 52.2878 87.8419C56.7459 86.1373 61.4458 85.4617 66.2427 85.8395C70.8138 86.2 75.1358 87.494 79.1091 89.6944C85.3166 93.1332 90.2868 98.6568 93.1112 105.247C95.2657 110.268 96.1102 115.804 95.5533 121.248L90.9439 166.195C89.9039 174.026 82.69 179.702 74.7292 178.888L74.7236 178.887ZM62.0134 162.773L61.9957 162.946C61.6443 166.881 62.9764 170.82 65.6525 173.745C68.0266 176.34 71.2626 177.963 74.7813 178.323C82.5281 179.116 89.5347 173.52 90.4106 165.847L90.466 165.305L94.9796 121.183C95.5268 115.835 94.6951 110.396 92.5777 105.458C89.8037 98.9853 84.915 93.5547 78.8207 90.1782C74.9177 88.0132 70.6672 86.7435 66.1861 86.3923C61.4681 86.0224 56.8549 86.6844 52.4734 88.363C47.0452 90.4309 42.3097 93.9575 38.7855 98.5445C36.3451 101.713 34.5708 105.267 33.5055 109.118C33.293 109.694 33.126 110.269 32.994 110.837C32.8705 111.377 32.7717 111.954 32.7106 112.551C32.686 112.791 32.6614 113.031 32.6538 113.273C32.269 120.816 37.9011 127.321 45.479 128.096C50.2645 128.586 54.9374 126.672 57.9839 122.972C58.328 122.556 58.6513 122.121 58.9414 121.677L58.9758 121.618C59.7805 120.369 60.376 118.997 60.7531 117.535C60.7888 117.409 60.8284 117.244 60.8619 117.084C61.0058 116.455 61.287 115.931 61.6822 115.571C61.9641 115.318 62.2735 115.13 62.5997 114.999C63.0386 114.824 63.5061 114.759 63.9846 114.808C65.1556 114.928 66.1365 115.739 66.4755 116.874C66.5568 117.136 66.5964 117.417 66.5948 117.71L66.5166 118.475L61.9914 162.765L62.0134 162.773Z" fill="#E6243C"/>
<circle cx="45.2103" cy="70.2103" r="3.21034" fill="white"/>
<path d="M30.1608 25.1407V26.0385H30.9464V25.1407L31.3953 23.9062L30.9464 23.1206V22.6717L33.3032 21.2127L33.7521 20.0905H32.4053L30.9464 21.9983V20.4271L34.201 18.6315L34.5377 17.1725H32.9665L30.9464 19.6415V17.9581L35.0988 15.6013L35.3233 13.9179L33.5276 14.2546L30.9464 17.0603L31.3953 13.0201L30.3852 11L29.263 13.0201L30.1608 17.0603L27.3551 13.9179H25.5594L26.0084 15.6013L30.1608 17.9581V19.6415L27.6918 17.0603H26.345L26.9062 18.6315L30.273 20.4271V21.9983L28.5896 20.0905H27.2429L27.5795 21.2127L30.273 22.6717V23.1206L29.7119 23.9062L30.1608 25.1407Z" fill="white"/>
<path d="M30.8342 29.7421L30.8342 28.8443L30.0486 28.8443L30.0486 29.7421L29.5997 30.9766L30.0486 31.7622L30.0486 32.2111L27.6918 33.6701L27.2429 34.7924L28.5897 34.7924L30.0486 32.8845L30.0486 34.4557L26.794 36.2513L26.4573 37.7103L28.0285 37.7103L30.0486 35.2413L30.0486 36.9247L25.8962 39.2815L25.6717 40.9649L27.4674 40.6282L30.0486 37.8225L29.5997 41.8627L30.6098 43.8828L31.732 41.8627L30.8342 37.8225L33.6399 40.9649L35.4355 40.9649L34.9866 39.2815L30.8342 36.9247L30.8342 35.2413L33.3032 37.8225L34.65 37.8225L34.0888 36.2513L30.722 34.4557L30.722 32.8845L32.4054 34.7924L33.7521 34.7924L33.4154 33.6701L30.722 32.2111L30.722 31.7622L31.2831 30.9766L30.8342 29.7421Z" fill="white"/>
<path d="M32.0089 26.0858L31.2469 26.5605L31.6622 27.2273L32.4243 26.7526L33.7095 26.4809L34.1389 25.6845L34.52 25.4471L37.0044 26.6762L38.1944 26.4638L37.4823 25.3207L35.0915 25.0911L36.4251 24.2604L39.6701 26.0735L41.0864 25.5878L40.2557 24.2542L37.092 23.845L38.5208 22.9549L42.7167 25.2334L44.2643 24.5339L43.0291 23.1877L39.2829 22.4802L42.9495 20.7251L44.1301 18.7997L41.8221 18.9152L38.8675 21.8134L40.0513 17.7705L39.1019 16.2464L37.9104 17.5175L38.1055 22.2881L36.6766 23.1782L37.5621 19.7178L36.85 18.5747L35.8131 19.8817L36.0691 23.6888L34.7355 24.5196L35.4648 22.0819L34.7528 20.9388L33.9782 21.818L34.164 24.8756L33.7829 25.1129L32.8194 25.052L32.0089 26.0858Z" fill="white"/>
<path d="M28.8275 28.8259L29.605 28.377L29.2122 27.6966L28.4347 28.1455L27.1411 28.374L26.6852 29.1556L26.2965 29.38L23.8546 28.0685L22.6582 28.2409L23.3316 29.4072L25.7133 29.7167L24.3526 30.5023L21.1703 28.5816L19.7384 29.0195L20.524 30.3802L23.6723 30.8951L22.2144 31.7368L18.0972 29.3191L16.527 29.9664L17.7164 31.3532L21.4369 32.1857L17.7135 33.8171L16.4691 35.7018L18.7797 35.6637L21.8297 32.8661L20.5111 36.8671L21.409 38.4221L22.6424 37.1917L22.6072 32.4172L24.0651 31.5755L23.0642 35.0043L23.7375 36.1706L24.8177 34.8991L24.6893 31.0855L26.05 30.2999L25.2394 32.7117L25.9128 33.878L26.7164 33.0253L26.6332 29.9632L27.0219 29.7387L27.9828 29.8319L28.8275 28.8259Z" fill="white"/>
<path d="M32.7462 28.1516L31.9578 27.722L31.5819 28.4118L32.3702 28.8415L33.2394 29.8264L34.1441 29.8081L34.5382 30.0229L34.6915 32.7905L35.4622 33.7217L36.1066 32.5392L35.1295 30.3451L36.5091 31.097L36.5284 34.814L37.6484 35.8078L38.4003 34.4282L37.1989 31.4729L38.6771 32.2785L38.7595 37.0524L40.1303 38.055L40.6939 36.3172L39.4655 32.7081L42.7983 35.0356L45.0554 35.1153L43.8186 33.1632L39.8414 32.0183L43.9432 31.0584L44.8025 29.4816L43.1095 29.0703L39.053 31.5887L37.5749 30.7831L41.0229 29.8503L41.6673 28.6678L40.0192 28.4086L36.8313 30.5057L35.4517 29.7539L37.9325 29.1887L38.577 28.0061L37.4304 27.7647L34.8604 29.4317L34.4663 29.2168L34.045 28.3482L32.7462 28.1516Z" fill="white"/>
<path d="M28.5154 26.6776L29.2591 27.1806L29.6993 26.5299L28.9556 26.0269L28.1845 24.9634L27.2823 24.8951L26.9104 24.6436L27.0224 21.8741L26.3442 20.8735L25.5897 21.989L26.3527 24.2664L25.0512 23.3861L25.3873 19.6842L24.3674 18.588L23.4871 19.8894L24.4005 22.946L23.0061 22.0028L23.3803 17.2429L22.1117 16.1138L21.3845 17.7898L22.2624 21.4998L19.1673 18.8645L16.9282 18.5693L17.9727 20.6307L21.8223 22.1506L17.6475 22.7141L16.6415 24.2014L18.2874 24.7727L22.566 22.6536L23.9604 23.5967L20.439 24.1957L19.6845 25.3112L21.3003 25.7267L24.674 23.9439L25.9754 24.8241L23.452 25.1497L22.6974 26.2652L23.8157 26.6151L26.5332 25.2014L26.905 25.4529L27.2414 26.3578L28.5154 26.6776Z" fill="white"/>
<circle cx="30.6098" cy="27.4975" r="1.57119" fill="white"/>
<path d="M126.406 153.105V154.128H127.301V153.105L127.812 151.699L127.301 150.805V150.293L129.985 148.632L130.496 147.353H128.962L127.301 149.526V147.737L131.008 145.692L131.391 144.03H129.602L127.301 146.842V144.925L132.03 142.241L132.286 140.323L130.241 140.707L127.301 143.902L127.812 139.301L126.662 137L125.383 139.301L126.406 143.902L123.211 140.323H121.165L121.677 142.241L126.406 144.925V146.842L123.594 143.902H122.06L122.699 145.692L126.534 147.737V149.526L124.617 147.353H123.083L123.466 148.632L126.534 150.293V150.805L125.895 151.699L126.406 153.105Z" fill="white"/>
<path d="M127.173 158.346L127.173 157.323L126.278 157.323L126.278 158.346L125.767 159.752L126.278 160.647L126.278 161.158L123.594 162.82L123.083 164.098L124.617 164.098L126.278 161.925L126.278 163.714L122.571 165.759L122.188 167.421L123.977 167.421L126.278 164.609L126.278 166.526L121.549 169.211L121.293 171.128L123.338 170.744L126.278 167.549L125.767 172.15L126.917 174.451L128.196 172.15L127.173 167.549L130.368 171.128L132.414 171.128L131.902 169.211L127.173 166.526L127.173 164.609L129.985 167.549L131.519 167.549L130.88 165.759L127.045 163.714L127.045 161.925L128.962 164.098L130.496 164.098L130.113 162.82L127.045 161.158L127.045 160.647L127.684 159.752L127.173 158.346Z" fill="white"/>
<path d="M128.511 154.182L127.643 154.722L128.116 155.482L128.984 154.941L130.448 154.632L130.937 153.724L131.371 153.454L134.201 154.854L135.556 154.612L134.745 153.31L132.022 153.049L133.541 152.103L137.237 154.167L138.85 153.614L137.904 152.096L134.3 151.629L135.928 150.616L140.707 153.211L142.469 152.414L141.062 150.881L136.796 150.075L140.972 148.076L142.316 145.883L139.688 146.015L136.323 149.316L137.671 144.711L136.589 142.975L135.232 144.423L135.455 149.856L133.827 150.87L134.836 146.929L134.025 145.627L132.844 147.115L133.135 151.452L131.616 152.398L132.447 149.621L131.636 148.32L130.754 149.321L130.965 152.803L130.532 153.074L129.434 153.004L128.511 154.182Z" fill="white"/>
<path d="M124.887 157.303L125.773 156.791L125.326 156.016L124.44 156.528L122.967 156.788L122.448 157.678L122.005 157.934L119.224 156.44L117.861 156.636L118.628 157.965L121.341 158.317L119.791 159.212L116.166 157.024L114.536 157.523L115.43 159.073L119.016 159.659L117.356 160.618L112.666 157.864L110.878 158.602L112.233 160.181L116.47 161.129L112.229 162.987L110.812 165.134L113.444 165.09L116.917 161.904L115.416 166.461L116.438 168.232L117.843 166.831L117.803 161.393L119.463 160.434L118.323 164.339L119.09 165.668L120.321 164.22L120.174 159.876L121.724 158.981L120.801 161.728L121.568 163.057L122.483 162.085L122.388 158.598L122.831 158.342L123.925 158.448L124.887 157.303Z" fill="white"/>
<path d="M129.351 156.535L128.453 156.045L128.025 156.831L128.922 157.32L129.912 158.442L130.943 158.421L131.392 158.666L131.566 161.818L132.444 162.879L133.178 161.532L132.065 159.033L133.636 159.889L133.658 164.123L134.934 165.254L135.79 163.683L134.422 160.317L136.105 161.235L136.199 166.672L137.761 167.814L138.402 165.835L137.003 161.724L140.799 164.375L143.37 164.466L141.961 162.242L137.432 160.938L142.103 159.845L143.082 158.049L141.154 157.581L136.534 160.449L134.85 159.532L138.777 158.469L139.511 157.122L137.634 156.827L134.003 159.216L132.432 158.359L135.257 157.716L135.991 156.369L134.686 156.094L131.759 157.992L131.31 157.748L130.83 156.758L129.351 156.535Z" fill="white"/>
<path d="M124.532 154.856L125.379 155.429L125.88 154.687L125.033 154.115L124.155 152.903L123.128 152.826L122.704 152.539L122.832 149.385L122.059 148.245L121.2 149.516L122.069 152.109L120.587 151.107L120.969 146.891L119.808 145.642L118.805 147.124L119.845 150.606L118.257 149.531L118.684 144.11L117.239 142.824L116.41 144.733L117.41 148.959L113.885 145.957L111.335 145.621L112.525 147.969L116.909 149.7L112.154 150.341L111.008 152.035L112.883 152.686L117.756 150.273L119.344 151.347L115.334 152.029L114.474 153.299L116.315 153.773L120.157 151.742L121.639 152.745L118.765 153.115L117.906 154.386L119.179 154.784L122.274 153.174L122.698 153.461L123.081 154.491L124.532 154.856Z" fill="white"/>
<circle cx="126.917" cy="155.789" r="1.78948" fill="white"/>
<path d="M24.6928 143.481V144.464H25.5529V143.481L26.0444 142.13L25.5529 141.27V140.778L28.1331 139.181L28.6246 137.952H27.1502L25.5529 140.041V138.321L29.116 136.355L29.4846 134.758H27.7645L25.5529 137.461V135.618L30.099 133.038L30.3447 131.195L28.3788 131.563L25.5529 134.635L26.0444 130.212L24.9385 128L23.7099 130.212L24.6928 134.635L21.6211 131.195H19.6553L20.1467 133.038L24.6928 135.618V137.461L21.9897 134.635H20.5153L21.1297 136.355L24.8157 138.321V140.041L22.9727 137.952H21.4983L21.8669 139.181L24.8157 140.778V141.27L24.2013 142.13L24.6928 143.481Z" fill="white"/>
<path d="M25.43 148.519L25.43 147.536L24.5699 147.536L24.5699 148.519L24.0785 149.87L24.5699 150.73L24.5699 151.222L21.9897 152.819L21.4982 154.048L22.9727 154.048L24.5699 151.959L24.5699 153.679L21.0068 155.645L20.6382 157.242L22.3583 157.242L24.5699 154.539L24.5699 156.382L20.0238 158.962L19.7781 160.805L21.744 160.437L24.5699 157.365L24.0785 161.788L25.1843 164L26.4129 161.788L25.43 157.365L28.5017 160.805L30.4675 160.805L29.9761 158.962L25.43 156.382L25.43 154.539L28.1331 157.365L29.6075 157.365L28.9931 155.645L25.3071 153.679L25.3071 151.959L27.1501 154.048L28.6245 154.048L28.2559 152.819L25.3071 151.222L25.3071 150.73L25.9215 149.87L25.43 148.519Z" fill="white"/>
<path d="M26.7162 144.516L25.8819 145.036L26.3367 145.766L27.171 145.246L28.578 144.948L29.0482 144.077L29.4653 143.817L32.1853 145.162L33.488 144.93L32.7085 143.678L30.0911 143.427L31.5511 142.517L35.1036 144.502L36.6543 143.971L35.7448 142.511L32.2811 142.063L33.8454 141.088L38.4391 143.583L40.1334 142.817L38.7811 141.343L34.6798 140.569L38.694 138.647L39.9865 136.539L37.4597 136.666L34.225 139.839L35.521 135.412L34.4816 133.744L33.1771 135.135L33.3907 140.358L31.8264 141.333L32.7958 137.544L32.0163 136.293L30.8811 137.724L31.1613 141.892L29.7013 142.801L30.4997 140.132L29.7202 138.881L28.8722 139.844L29.0756 143.191L28.6584 143.451L27.6036 143.384L26.7162 144.516Z" fill="white"/>
<path d="M23.2331 147.516L24.0843 147.024L23.6543 146.28L22.8031 146.771L21.3869 147.021L20.8878 147.877L20.4621 148.123L17.7888 146.687L16.479 146.875L17.2162 148.152L19.8237 148.491L18.334 149.351L14.8499 147.248L13.2824 147.728L14.1424 149.218L17.5892 149.781L15.9931 150.703L11.4855 148.056L9.76657 148.765L11.0687 150.283L15.1418 151.194L11.0655 152.98L9.70309 155.044L12.2327 155.002L15.5719 151.939L14.1283 156.319L15.1113 158.022L16.4616 156.675L16.4231 151.448L18.0192 150.526L16.9234 154.28L17.6606 155.557L18.8431 154.165L18.7026 149.99L20.1923 149.13L19.3049 151.77L20.0421 153.047L20.9219 152.113L20.8307 148.761L21.2564 148.515L22.3084 148.617L23.2331 147.516Z" fill="white"/>
<path d="M27.5232 146.778L26.6601 146.307L26.2485 147.063L27.1116 147.533L28.0632 148.611L29.0536 148.591L29.4851 148.826L29.653 151.856L30.4967 152.876L31.2022 151.581L30.1325 149.179L31.6429 150.002L31.664 154.072L32.8902 155.16L33.7133 153.649L32.3981 150.414L34.0164 151.296L34.1066 156.522L35.6073 157.62L36.2244 155.717L34.8795 151.766L38.5282 154.314L40.9993 154.402L39.6453 152.264L35.291 151.011L39.7817 149.96L40.7224 148.234L38.8689 147.783L34.4279 150.541L32.8096 149.659L36.5845 148.637L37.29 147.343L35.4857 147.059L31.9956 149.355L30.4852 148.532L33.2012 147.913L33.9067 146.618L32.6515 146.354L29.8379 148.179L29.4064 147.944L28.9451 146.993L27.5232 146.778Z" fill="white"/>
<path d="M22.8915 145.164L23.7056 145.714L24.1875 145.002L23.3733 144.451L22.5292 143.287L21.5414 143.212L21.1343 142.937L21.2568 139.905L20.5144 138.809L19.6884 140.031L20.5237 142.524L19.0988 141.56L19.4667 137.507L18.3502 136.307L17.3865 137.732L18.3864 141.078L16.8598 140.046L17.2695 134.835L15.8806 133.599L15.0845 135.433L16.0456 139.495L12.6571 136.61L10.2057 136.287L11.3493 138.544L15.5638 140.208L10.9932 140.824L9.89183 142.453L11.6938 143.078L16.378 140.758L17.9046 141.791L14.0494 142.447L13.2233 143.668L14.9923 144.123L18.6858 142.171L20.1106 143.135L17.3479 143.491L16.5219 144.712L17.7462 145.095L20.7213 143.548L21.1284 143.823L21.4966 144.814L22.8915 145.164Z" fill="white"/>
<circle cx="25.1842" cy="146.061" r="1.72014" fill="white"/>
<circle cx="55.5" cy="12.5" r="3.5" fill="white"/>
<circle cx="12.5" cy="58.5" r="3.5" fill="white"/>
<circle cx="43.5" cy="176.5" r="3.5" fill="white"/>
<circle cx="163.5" cy="172.5" r="3.5" fill="white"/>
<circle cx="124.5" cy="118.5" r="3.5" fill="white"/>
<path d="M90.648 63.848H113.976V77H67.416V69.224L89.4 43.88C94.296 38.12 97.464 34.568 97.464 30.632C97.464 27.368 95.256 24.2 89.88 24.2C84.888 24.2 82.008 27.272 81.528 32.456H66.072C66.456 19.016 75.672 10.472 90.552 10.472C105.432 10.472 113.496 19.304 113.496 30.728C113.496 36.968 109.944 42.248 102.168 50.984L90.648 63.848ZM152.328 63.848H167.496V77H120.36V63.848H136.68V29.096L121.32 33.8V19.112L142.632 11.72H152.328V63.848Z" fill="white"/>
<path d="M156.161 104.141V105.039H156.946V104.141L157.395 102.906L156.946 102.121V101.672L159.303 100.213L159.752 99.0905H158.405L156.946 100.998V99.4271L160.201 97.6315L160.538 96.1725H158.966L156.946 98.6415V96.9581L161.099 94.6013L161.323 92.9179L159.528 93.2546L156.946 96.0603L157.395 92.0201L156.385 90L155.263 92.0201L156.161 96.0603L153.355 92.9179H151.559L152.008 94.6013L156.161 96.9581V98.6415L153.692 96.0603H152.345L152.906 97.6315L156.273 99.4271V100.998L154.59 99.0905H153.243L153.58 100.213L156.273 101.672V102.121L155.712 102.906L156.161 104.141Z" fill="white"/>
<path d="M156.834 108.742L156.834 107.844L156.049 107.844L156.049 108.742L155.6 109.977L156.049 110.762L156.049 111.211L153.692 112.67L153.243 113.792L154.59 113.792L156.049 111.884L156.049 113.456L152.794 115.251L152.457 116.71L154.029 116.71L156.049 114.241L156.049 115.925L151.896 118.281L151.672 119.965L153.467 119.628L156.049 116.823L155.6 120.863L156.61 122.883L157.732 120.863L156.834 116.823L159.64 119.965L161.436 119.965L160.987 118.281L156.834 115.925L156.834 114.241L159.303 116.823L160.65 116.823L160.089 115.251L156.722 113.456L156.722 111.884L158.405 113.792L159.752 113.792L159.415 112.67L156.722 111.211L156.722 110.762L157.283 109.977L156.834 108.742Z" fill="white"/>
<path d="M158.009 105.086L157.247 105.56L157.662 106.227L158.424 105.753L159.709 105.481L160.139 104.684L160.52 104.447L163.004 105.676L164.194 105.464L163.482 104.321L161.092 104.091L162.425 103.26L165.67 105.073L167.086 104.588L166.256 103.254L163.092 102.845L164.521 101.955L168.717 104.233L170.264 103.534L169.029 102.188L165.283 101.48L168.95 99.7251L170.13 97.7997L167.822 97.9152L164.868 100.813L166.051 96.7705L165.102 95.2464L163.91 96.5175L164.105 101.288L162.677 102.178L163.562 98.7178L162.85 97.5747L161.813 98.8817L162.069 102.689L160.736 103.52L161.465 101.082L160.753 99.9388L159.978 100.818L160.164 103.876L159.783 104.113L158.819 104.052L158.009 105.086Z" fill="white"/>
<path d="M154.827 107.826L155.605 107.377L155.212 106.697L154.435 107.146L153.141 107.374L152.685 108.156L152.296 108.38L149.855 107.068L148.658 107.241L149.332 108.407L151.713 108.717L150.353 109.502L147.17 107.582L145.738 108.019L146.524 109.38L149.672 109.895L148.214 110.737L144.097 108.319L142.527 108.966L143.716 110.353L147.437 111.186L143.713 112.817L142.469 114.702L144.78 114.664L147.83 111.866L146.511 115.867L147.409 117.422L148.642 116.192L148.607 111.417L150.065 110.575L149.064 114.004L149.738 115.171L150.818 113.899L150.689 110.085L152.05 109.3L151.239 111.712L151.913 112.878L152.716 112.025L152.633 108.963L153.022 108.739L153.983 108.832L154.827 107.826Z" fill="white"/>
<path d="M158.746 107.152L157.958 106.722L157.582 107.412L158.37 107.841L159.239 108.826L160.144 108.808L160.538 109.023L160.692 111.791L161.462 112.722L162.107 111.539L161.129 109.345L162.509 110.097L162.528 113.814L163.648 114.808L164.4 113.428L163.199 110.473L164.677 111.278L164.76 116.052L166.13 117.055L166.694 115.317L165.465 111.708L168.798 114.036L171.055 114.115L169.819 112.163L165.841 111.018L169.943 110.058L170.802 108.482L169.109 108.07L165.053 110.589L163.575 109.783L167.023 108.85L167.667 107.668L166.019 107.409L162.831 109.506L161.452 108.754L163.933 108.189L164.577 107.006L163.43 106.765L160.86 108.432L160.466 108.217L160.045 107.348L158.746 107.152Z" fill="white"/>
<path d="M154.515 105.678L155.259 106.181L155.699 105.53L154.956 105.027L154.185 103.963L153.282 103.895L152.91 103.644L153.022 100.874L152.344 99.8735L151.59 100.989L152.353 103.266L151.051 102.386L151.387 98.6842L150.367 97.588L149.487 98.8894L150.401 101.946L149.006 101.003L149.38 96.2429L148.112 95.1138L147.385 96.7898L148.262 100.5L145.167 97.8645L142.928 97.5693L143.973 99.6307L147.822 101.151L143.647 101.714L142.641 103.201L144.287 103.773L148.566 101.654L149.96 102.597L146.439 103.196L145.684 104.311L147.3 104.727L150.674 102.944L151.975 103.824L149.452 104.15L148.697 105.265L149.816 105.615L152.533 104.201L152.905 104.453L153.241 105.358L154.515 105.678Z" fill="white"/>
<circle cx="156.61" cy="106.497" r="1.57119" fill="white"/>
</svg>
