<svg width="180" height="179" viewBox="0 0 180 179" fill="none" xmlns="http://www.w3.org/2000/svg">
<path d="M180 0H0V179H180V0Z" fill="#A20E38"/>
<rect y="5" width="180" height="10" fill="#F5B335"/>
<rect y="31" width="180" height="10" fill="#F5B335"/>
<rect y="57" width="180" height="10" fill="#F5B335"/>
<rect y="83" width="180" height="10" fill="#F5B335"/>
<rect y="109" width="180" height="10" fill="#F5B335"/>
<rect y="135" width="180" height="10" fill="#F5B335"/>
<rect y="161" width="180" height="10" fill="#F5B335"/>
<path d="M31.3349 138.141V139.039H32.1249V138.141L32.5763 136.906L32.1249 136.121V135.672L34.4948 134.213L34.9462 133.09H33.592L32.1249 134.998V133.427L35.3976 131.631L35.7362 130.173H34.1562L32.1249 132.642V130.958L36.3005 128.601L36.5262 126.918L34.7205 127.255L32.1249 130.06L32.5763 126.02L31.5606 124L30.432 126.02L31.3349 130.06L28.5135 126.918H26.7078L27.1592 128.601L31.3349 130.958V132.642L28.8521 130.06H27.4978L28.0621 131.631L31.4477 133.427V134.998L29.7549 133.09H28.4006L28.7392 134.213L31.4477 135.672V136.121L30.8835 136.906L31.3349 138.141Z" fill="white"/>
<path d="M32.012 142.742L32.012 141.844L31.222 141.844L31.222 142.742L30.7706 143.977L31.222 144.762L31.222 145.211L28.8521 146.67L28.4006 147.792L29.7549 147.792L31.222 145.884L31.222 147.456L27.9492 149.251L27.6107 150.71L29.1906 150.71L31.222 148.241L31.222 149.925L27.0464 152.281L26.8207 153.965L28.6263 153.628L31.222 150.822L30.7706 154.863L31.7863 156.883L32.9148 154.863L32.012 150.822L34.8334 153.965L36.639 153.965L36.1876 152.281L32.012 149.925L32.012 148.241L34.4948 150.822L35.8491 150.822L35.2848 149.251L31.8991 147.456L31.8991 145.884L33.592 147.792L34.9462 147.792L34.6077 146.67L31.8991 145.211L31.8991 144.762L32.4634 143.977L32.012 142.742Z" fill="white"/>
<path d="M33.1934 139.086L32.4271 139.56L32.8448 140.227L33.6111 139.752L34.9034 139.481L35.3353 138.684L35.7185 138.447L38.2168 139.676L39.4134 139.464L38.6973 138.321L36.2932 138.091L37.6343 137.26L40.8973 139.073L42.3216 138.588L41.4862 137.254L38.3048 136.845L39.7417 135.955L43.961 138.233L45.5172 137.534L44.2751 136.188L40.508 135.48L44.1951 133.725L45.3823 131.8L43.0614 131.915L40.0903 134.813L41.2807 130.77L40.326 129.246L39.1278 130.517L39.324 135.288L37.8871 136.178L38.7776 132.718L38.0615 131.575L37.0188 132.882L37.2763 136.689L35.9352 137.519L36.6686 135.082L35.9526 133.939L35.1737 134.818L35.3604 137.875L34.9773 138.113L34.0084 138.052L33.1934 139.086Z" fill="white"/>
<path d="M29.9941 141.826L30.776 141.377L30.381 140.697L29.5991 141.146L28.2983 141.374L27.8399 142.156L27.4489 142.38L24.9934 141.069L23.7903 141.241L24.4675 142.407L26.8625 142.717L25.4942 143.502L22.2941 141.582L20.8542 142.02L21.6442 143.38L24.8101 143.895L23.344 144.737L19.2038 142.319L17.6249 142.966L18.821 144.353L22.5622 145.186L18.818 146.817L17.5666 148.702L19.8901 148.664L22.9572 145.866L21.6313 149.867L22.5341 151.422L23.7744 150.192L23.739 145.417L25.2051 144.576L24.1986 148.004L24.8757 149.171L25.9618 147.899L25.8328 144.086L27.2011 143.3L26.386 145.712L27.0631 146.878L27.8712 146.025L27.7875 142.963L28.1784 142.739L29.1447 142.832L29.9941 141.826Z" fill="white"/>
<path d="M33.9346 141.152L33.1419 140.722L32.7639 141.412L33.5566 141.842L34.4307 142.826L35.3403 142.808L35.7367 143.023L35.8909 145.791L36.6658 146.722L37.3139 145.539L36.3313 143.345L37.7186 144.097L37.738 147.814L38.8643 148.808L39.6203 147.428L38.4123 144.473L39.8987 145.279L39.9816 150.052L41.36 151.055L41.9268 149.317L40.6915 145.708L44.0429 148.036L46.3126 148.115L45.0689 146.163L41.0695 145.018L45.1942 144.058L46.0583 142.482L44.3559 142.07L40.2767 144.589L38.7903 143.783L42.2576 142.85L42.9056 141.668L41.2483 141.409L38.0426 143.506L36.6553 142.754L39.15 142.189L39.798 141.006L38.6451 140.765L36.0607 142.432L35.6644 142.217L35.2407 141.348L33.9346 141.152Z" fill="white"/>
<path d="M29.6803 139.678L30.4281 140.181L30.8707 139.53L30.1229 139.027L29.3475 137.963L28.4403 137.895L28.0663 137.644L28.1789 134.874L27.497 133.873L26.7383 134.989L27.5055 137.266L26.1967 136.386L26.5346 132.684L25.5091 131.588L24.6239 132.889L25.5424 135.946L24.1402 135.003L24.5165 130.243L23.2408 129.114L22.5096 130.79L23.3923 134.5L20.28 131.864L18.0283 131.569L19.0786 133.631L22.9497 135.151L18.7516 135.714L17.74 137.201L19.3951 137.773L23.6976 135.654L25.0998 136.597L21.5587 137.196L20.8 138.311L22.4249 138.727L25.8174 136.944L27.1261 137.824L24.5885 138.15L23.8298 139.265L24.9543 139.615L27.687 138.201L28.0609 138.453L28.3991 139.358L29.6803 139.678Z" fill="white"/>
<ellipse cx="31.7863" cy="140.497" rx="1.57997" ry="1.57119" fill="white"/>
<path d="M52.4522 27.1407V28.0385H53.2422V27.1407L53.6936 25.9062L53.2422 25.1206V24.6717L55.6121 23.2127L56.0635 22.0905H54.7093L53.2422 23.9983V22.4271L56.515 20.6315L56.8535 19.1725H55.2735L53.2422 21.6415V19.9581L57.4178 17.6013L57.6435 15.9179L55.8378 16.2546L53.2422 19.0603L53.6936 15.0201L52.6779 13L51.5493 15.0201L52.4522 19.0603L49.6308 15.9179H47.8251L48.2766 17.6013L52.4522 19.9581V21.6415L49.9694 19.0603H48.6151L49.1794 20.6315L52.565 22.4271V23.9983L50.8722 22.0905H49.518L49.8565 23.2127L52.565 24.6717V25.1206L52.0008 25.9062L52.4522 27.1407Z" fill="white"/>
<path d="M53.1293 31.742L53.1293 30.8442L52.3393 30.8442L52.3393 31.742L51.8879 32.9766L52.3393 33.7621L52.3393 34.2111L49.9694 35.67L49.518 36.7923L50.8722 36.7923L52.3393 34.8844L52.3393 36.4556L49.0665 38.2513L48.728 39.7102L50.3079 39.7102L52.3393 37.2412L52.3393 38.9246L48.1637 41.2814L47.938 42.9648L49.7437 42.6281L52.3393 39.8225L51.8879 43.8627L52.9036 45.8828L54.0321 43.8627L53.1293 39.8225L55.9507 42.9648L57.7563 42.9648L57.3049 41.2814L53.1293 38.9246L53.1293 37.2412L55.6121 39.8225L56.9664 39.8225L56.4021 38.2513L53.0164 36.4556L53.0164 34.8844L54.7093 36.7923L56.0635 36.7923L55.725 35.67L53.0164 34.2111L53.0164 33.7621L53.5807 32.9766L53.1293 31.742Z" fill="white"/>
<path d="M54.3107 28.0857L53.5444 28.5604L53.9621 29.2272L54.7284 28.7525L56.0208 28.4808L56.4526 27.6844L56.8358 27.447L59.3341 28.6761L60.5307 28.4637L59.8146 27.3206L57.4105 27.091L58.7516 26.2603L62.0146 28.0734L63.4389 27.5877L62.6035 26.2541L59.4221 25.8449L60.859 24.9549L65.0783 27.2333L66.6345 26.5338L65.3924 25.1876L61.6253 24.4801L65.3124 22.725L66.4996 20.7996L64.1787 20.9151L61.2076 23.8133L62.398 19.7704L61.4433 18.2463L60.2451 19.5174L60.4413 24.288L59.0044 25.1781L59.8949 21.7177L59.1788 20.5746L58.1361 21.8816L58.3936 25.6887L57.0525 26.5195L57.7859 24.0818L57.0699 22.9388L56.291 23.8179L56.4778 26.8755L56.0946 27.1128L55.1257 27.0519L54.3107 28.0857Z" fill="white"/>
<path d="M51.1114 30.8259L51.8933 30.377L51.4983 29.6967L50.7164 30.1456L49.4156 30.3741L48.9572 31.1556L48.5662 31.3801L46.1107 30.0685L44.9076 30.2409L45.5848 31.4072L47.9798 31.7168L46.6115 32.5024L43.4114 30.5816L41.9715 31.0195L42.7615 32.3802L45.9274 32.8952L44.4614 33.7369L40.3211 31.3192L38.7422 31.9665L39.9383 33.3532L43.6795 34.1858L39.9353 35.8171L38.6839 37.7019L41.0074 37.6638L44.0745 34.8661L42.7486 38.8671L43.6514 40.4222L44.8917 39.1917L44.8563 34.4172L46.3224 33.5755L45.3159 37.0044L45.993 38.1707L47.0791 36.8991L46.9501 33.0855L48.3184 32.2999L47.5033 34.7118L48.1804 35.8781L48.9885 35.0253L48.9048 31.9633L49.2957 31.7388L50.262 31.832L51.1114 30.8259Z" fill="white"/>
<path d="M55.052 30.1517L54.2592 29.7221L53.8812 30.4119L54.6739 30.8415L55.548 31.8264L56.4576 31.8082L56.854 32.023L57.0082 34.7906L57.7831 35.7218L58.4312 34.5392L57.4486 32.3452L58.8359 33.0971L58.8554 36.8141L59.9816 37.8079L60.7376 36.4283L59.5296 33.473L61.016 34.2785L61.0989 39.0524L62.4773 40.0551L63.0441 38.3173L61.8088 34.7082L65.1602 37.0356L67.4299 37.1154L66.1863 35.1633L62.1868 34.0183L66.3115 33.0584L67.1756 31.4817L65.4732 31.0703L61.394 33.5887L59.9076 32.7832L63.3749 31.8504L64.0229 30.6678L62.3656 30.4087L59.1599 32.5058L57.7726 31.7539L60.2673 31.1887L60.9153 30.0062L59.7624 29.7648L57.178 31.4317L56.7817 31.2169L56.358 30.3483L55.052 30.1517Z" fill="white"/>
<path d="M50.7976 28.6776L51.5455 29.1806L51.988 28.5299L51.2402 28.0269L50.4648 26.9634L49.5576 26.8951L49.1836 26.6436L49.2962 23.8741L48.6143 22.8735L47.8556 23.989L48.6228 26.2664L47.314 25.3861L47.652 21.6842L46.6264 20.588L45.7412 21.8894L46.6597 24.946L45.2575 24.0028L45.6338 19.2429L44.3581 18.1138L43.6269 19.7898L44.5096 23.4998L41.3973 20.8644L39.1456 20.5693L40.196 22.6307L44.0671 24.1505L39.8689 24.714L38.8573 26.2014L40.5124 26.7727L44.8149 24.6536L46.2171 25.5967L42.6761 26.1957L41.9173 27.3112L43.5422 27.7267L46.9347 25.9439L48.2434 26.8241L45.7058 27.1497L44.9471 28.2652L46.0716 28.6151L48.8043 27.2014L49.1782 27.4529L49.5164 28.3578L50.7976 28.6776Z" fill="white"/>
<ellipse cx="52.9036" cy="29.4975" rx="1.57997" ry="1.57119" fill="white"/>
<path d="M154.016 29.1407V30.0385H154.806V29.1407L155.258 27.9062L154.806 27.1206V26.6717L157.176 25.2127L157.628 24.0905H156.274L154.806 25.9983V24.4271L158.079 22.6315L158.418 21.1725H156.838L154.806 23.6415V21.9581L158.982 19.6013L159.208 17.9179L157.402 18.2546L154.806 21.0603L155.258 17.0201L154.242 15L153.114 17.0201L154.016 21.0603L151.195 17.9179H149.389L149.841 19.6013L154.016 21.9581V23.6415L151.534 21.0603H150.179L150.744 22.6315L154.129 24.4271V25.9983L152.436 24.0905H151.082L151.421 25.2127L154.129 26.6717V27.1206L153.565 27.9062L154.016 29.1407Z" fill="white"/>
<path d="M154.694 33.742L154.694 32.8442L153.904 32.8442L153.904 33.742L153.452 34.9766L153.904 35.7621L153.904 36.2111L151.534 37.67L151.082 38.7923L152.436 38.7923L153.904 36.8844L153.904 38.4556L150.631 40.2513L150.292 41.7102L151.872 41.7102L153.904 39.2412L153.904 40.9246L149.728 43.2814L149.502 44.9648L151.308 44.6281L153.904 41.8225L153.452 45.8627L154.468 47.8828L155.596 45.8627L154.694 41.8225L157.515 44.9648L159.321 44.9648L158.869 43.2814L154.694 40.9246L154.694 39.2412L157.176 41.8225L158.531 41.8225L157.966 40.2513L154.581 38.4556L154.581 36.8844L156.274 38.7923L157.628 38.7923L157.289 37.67L154.581 36.2111L154.581 35.7621L155.145 34.9766L154.694 33.742Z" fill="white"/>
<path d="M155.875 30.0857L155.109 30.5604L155.526 31.2272L156.293 30.7525L157.585 30.4808L158.017 29.6844L158.4 29.447L160.898 30.6761L162.095 30.4637L161.379 29.3206L158.975 29.091L160.316 28.2603L163.579 30.0734L165.003 29.5877L164.168 28.2541L160.986 27.8449L162.423 26.9549L166.643 29.2333L168.199 28.5338L166.957 27.1876L163.19 26.4801L166.877 24.725L168.064 22.7996L165.743 22.9151L162.772 25.8133L163.962 21.7704L163.008 20.2463L161.809 21.5174L162.006 26.288L160.569 27.1781L161.459 23.7177L160.743 22.5746L159.7 23.8816L159.958 27.6887L158.617 28.5195L159.35 26.0818L158.634 24.9388L157.855 25.8179L158.042 28.8755L157.659 29.1128L156.69 29.0519L155.875 30.0857Z" fill="white"/>
<path d="M152.676 32.8259L153.458 32.377L153.063 31.6967L152.281 32.1456L150.98 32.3741L150.521 33.1556L150.13 33.3801L147.675 32.0685L146.472 32.2409L147.149 33.4072L149.544 33.7168L148.176 34.5024L144.976 32.5816L143.536 33.0195L144.326 34.3802L147.492 34.8952L146.026 35.7369L141.885 33.3192L140.306 33.9665L141.503 35.3532L145.244 36.1858L141.5 37.8171L140.248 39.7019L142.572 39.6638L145.639 36.8661L144.313 40.8671L145.216 42.4222L146.456 41.1917L146.421 36.4172L147.887 35.5755L146.88 39.0044L147.557 40.1707L148.643 38.8991L148.514 35.0855L149.883 34.2999L149.068 36.7118L149.745 37.8781L150.553 37.0253L150.469 33.9633L150.86 33.7388L151.826 33.832L152.676 32.8259Z" fill="white"/>
<path d="M156.616 32.1517L155.823 31.7221L155.445 32.4119L156.238 32.8415L157.112 33.8264L158.022 33.8082L158.418 34.023L158.572 36.7906L159.347 37.7218L159.995 36.5392L159.013 34.3452L160.4 35.0971L160.42 38.8141L161.546 39.8079L162.302 38.4283L161.094 35.473L162.58 36.2785L162.663 41.0524L164.042 42.0551L164.608 40.3173L163.373 36.7082L166.724 39.0356L168.994 39.1154L167.751 37.1633L163.751 36.0183L167.876 35.0584L168.74 33.4817L167.037 33.0703L162.958 35.5887L161.472 34.7832L164.939 33.8504L165.587 32.6678L163.93 32.4087L160.724 34.5058L159.337 33.7539L161.832 33.1887L162.48 32.0062L161.327 31.7648L158.742 33.4317L158.346 33.2169L157.922 32.3483L156.616 32.1517Z" fill="white"/>
<path d="M152.362 30.6776L153.11 31.1806L153.552 30.5299L152.804 30.0269L152.029 28.9634L151.122 28.8951L150.748 28.6436L150.86 25.8741L150.178 24.8735L149.42 25.989L150.187 28.2664L148.878 27.3861L149.216 23.6842L148.191 22.588L147.305 23.8894L148.224 26.946L146.822 26.0028L147.198 21.2429L145.922 20.1138L145.191 21.7898L146.074 25.4998L142.961 22.8644L140.71 22.5693L141.76 24.6307L145.631 26.1505L141.433 26.714L140.422 28.2014L142.077 28.7727L146.379 26.6536L147.781 27.5967L144.24 28.1957L143.482 29.3112L145.106 29.7267L148.499 27.9439L149.808 28.8241L147.27 29.1497L146.511 30.2652L147.636 30.6151L150.368 29.2014L150.742 29.4529L151.081 30.3578L152.362 30.6776Z" fill="white"/>
<ellipse cx="154.468" cy="31.4975" rx="1.57997" ry="1.57119" fill="white"/>
<circle cx="14.5615" cy="70.5" r="3.5" fill="white"/>
<circle cx="92.9972" cy="35.5" r="3.5" fill="white"/>
<circle cx="96.014" cy="156.5" r="3.5" fill="white"/>
<circle cx="152.327" cy="132.5" r="3.5" fill="white"/>
<path d="M79.5738 109.848H94.7418V123H47.6058V109.848H63.9258V75.096L48.5658 79.8V65.112L69.8778 57.72H79.5738V109.848ZM95.5495 57.72H143.166V66.84L118.11 123H100.446L123.486 72.216H95.5495V57.72Z" fill="white"/>
</svg>
