<svg width="180" height="218" viewBox="0 0 180 218" fill="none" xmlns="http://www.w3.org/2000/svg">
<path d="M180 218L180 0.37085L0 0.37085L0 218L180 218Z" fill="#004E4D"/>
<rect x="180" width="218" height="10" transform="rotate(90 180 0)" fill="#007B79"/>
<rect x="154" width="218" height="10" transform="rotate(90 154 0)" fill="#007B79"/>
<rect x="128" width="218" height="10" transform="rotate(90 128 0)" fill="#007B79"/>
<rect x="102" width="218" height="10" transform="rotate(90 102 0)" fill="#007B79"/>
<rect x="76" width="218" height="10" transform="rotate(90 76 0)" fill="#007B79"/>
<rect x="50" width="218" height="10" transform="rotate(90 50 0)" fill="#007B79"/>
<rect x="24" width="218" height="10" transform="rotate(90 24 0)" fill="#007B79"/>
<path d="M21.532 75.4437C22.105 82.8733 26.3712 109.967 26.3712 109.967L27.5326 118.253L119.746 104.338C118.692 96.8193 116.067 78.7574 113.996 66.657C111.407 51.5314 102.379 40.5977 92.0939 34.0654C81.8087 27.5331 64.6245 25.2573 50.0445 31.5335C35.4644 37.8097 29.7345 47.0649 26.0437 54.1557C22.3529 61.2466 20.9591 68.0141 21.532 75.4437Z" fill="#A20E38"/>
<ellipse cx="14.8462" cy="14.8739" rx="14.8462" ry="14.8739" transform="matrix(0.990244 -0.139344 0.138814 0.990318 45.1094 9.69702)" fill="white"/>
<ellipse cx="12.0625" cy="12.085" rx="12.0625" ry="12.085" transform="matrix(0.990244 -0.139344 0.138814 0.990318 14.168 109.806)" fill="white"/>
<ellipse cx="12.0625" cy="12.085" rx="12.0625" ry="12.085" transform="matrix(0.990244 -0.139344 0.138814 0.990318 31.626 107.35)" fill="white"/>
<ellipse cx="12.0625" cy="12.085" rx="12.0625" ry="12.085" transform="matrix(0.990244 -0.139344 0.138814 0.990318 49.0837 104.893)" fill="white"/>
<ellipse cx="12.0625" cy="12.085" rx="12.0625" ry="12.085" transform="matrix(0.990244 -0.139344 0.138814 0.990318 68.3794 102.178)" fill="white"/>
<ellipse cx="12.0625" cy="12.085" rx="12.0625" ry="12.085" transform="matrix(0.990244 -0.139344 0.138814 0.990318 83.9993 99.9797)" fill="white"/>
<ellipse cx="12.0625" cy="12.085" rx="12.0625" ry="12.085" transform="matrix(0.990244 -0.139344 0.138814 0.990318 103.295 97.2644)" fill="white"/>
<path d="M96.6017 192.848H111.77V206H64.6337V192.848H80.9537V158.096L65.5937 162.8V148.112L86.9057 140.72H96.6017V192.848ZM139.922 192.848H163.25V206H116.69V198.224L138.674 172.88C143.57 167.12 146.738 163.568 146.738 159.632C146.738 156.368 144.53 153.2 139.154 153.2C134.162 153.2 131.282 156.272 130.802 161.456H115.346C115.73 148.016 124.946 139.472 139.826 139.472C154.706 139.472 162.77 148.304 162.77 159.728C162.77 165.968 159.218 171.248 151.442 179.984L139.922 192.848Z" fill="white"/>
</svg>
