<svg width="180" height="164" viewBox="0 0 180 164" fill="none" xmlns="http://www.w3.org/2000/svg">
<path d="M0 4.57764e-05V163V164H180V4.57764e-05H0Z" fill="#FF7591"/>
<path d="M41.2291 142.5L15.0838 69L72.905 47C74.0782 49.6667 75.6556 55 82.4581 78C90 103.5 96.0335 93.5 116.648 97.5C131.786 100.437 140.279 114.5 138.771 132.5C137.564 146.9 127.207 156.5 115.14 156.5C103.073 156.5 68.8827 157 58.8268 155.5C47.6818 153.838 42.5698 146.833 41.2291 142.5Z" fill="#A20E38"/>
<rect width="80.8033" height="29.2202" rx="14.6101" transform="matrix(0.947781 -0.318921 0.322126 0.946697 0 54.7699)" fill="white"/>
<path d="M136.165 35.208C150.661 35.976 160.453 45.768 160.453 58.248C160.453 71.88 149.701 82.248 134.053 82.248C118.309 82.248 107.749 71.688 107.749 58.536C107.749 53.16 109.957 48.168 113.317 42.696L130.309 15.72H148.645L136.165 35.208ZM134.053 69.288C140.677 69.288 145.189 64.296 145.189 58.824C145.189 53.352 140.773 48.264 134.053 48.264C131.173 48.264 128.389 49.032 126.373 50.472L125.989 51.144C123.685 54.408 122.821 56.52 122.821 58.92C122.821 64.296 127.429 69.288 134.053 69.288Z" fill="white"/>
</svg>
