<svg width="180" height="179" viewBox="0 0 180 179" fill="none" xmlns="http://www.w3.org/2000/svg">
<path d="M0 179V1.06548V0H180V179H0Z" fill="#FF7591"/>
<rect opacity="0.59" width="20" height="179" fill="#A20E38"/>
<rect opacity="0.59" x="80" width="20" height="179" fill="#A20E38"/>
<rect opacity="0.59" x="160" width="20" height="179" fill="#A20E38"/>
<rect opacity="0.59" x="120" width="20" height="179" fill="#A20E38"/>
<rect opacity="0.59" x="40" width="20" height="179" fill="#A20E38"/>
<rect opacity="0.8" y="20.1191" width="20.119" height="180" transform="rotate(-90 0 20.1191)" fill="#A20E38"/>
<rect opacity="0.8" y="60.3572" width="20.119" height="180" transform="rotate(-90 0 60.3572)" fill="#A20E38"/>
<rect opacity="0.8" y="100.595" width="20.119" height="180" transform="rotate(-90 0 100.595)" fill="#A20E38"/>
<rect opacity="0.8" y="140.833" width="20.119" height="180" transform="rotate(-90 0 140.833)" fill="#A20E38"/>
<rect opacity="0.8" y="179" width="18" height="180" transform="rotate(-90 0 179)" fill="#A20E38"/>
<path d="M62.648 108.848H85.976V122H39.416V114.224L61.4 88.88C66.296 83.12 69.464 79.568 69.464 75.632C69.464 72.368 67.256 69.2 61.88 69.2C56.888 69.2 54.008 72.272 53.528 77.456H38.072C38.456 64.016 47.672 55.472 62.552 55.472C77.432 55.472 85.496 64.304 85.496 75.728C85.496 81.968 81.944 87.248 74.168 95.984L62.648 108.848ZM117.304 108.848H140.632V122H94.0723V114.224L116.056 88.88C120.952 83.12 124.12 79.568 124.12 75.632C124.12 72.368 121.912 69.2 116.536 69.2C111.544 69.2 108.664 72.272 108.184 77.456H92.7283C93.1123 64.016 102.328 55.472 117.208 55.472C132.088 55.472 140.152 64.304 140.152 75.728C140.152 81.968 136.6 87.248 128.824 95.984L117.304 108.848Z" fill="white"/>
</svg>
