<svg width="180" height="166" viewBox="0 0 180 166" fill="none" xmlns="http://www.w3.org/2000/svg">
<path d="M180 0H0V166H180V0Z" fill="#007B79"/>
<path d="M69.7098 33.5806L114.946 129.266H24.4741L69.7098 33.5806Z" fill="#A20E38"/>
<ellipse cx="69.7098" cy="33.5806" rx="14.6621" ry="14.5806" fill="white"/>
<ellipse cx="25.7235" cy="134.734" rx="14.6621" ry="14.5806" fill="white"/>
<ellipse cx="44.9675" cy="134.734" rx="14.6621" ry="14.5806" fill="white"/>
<ellipse cx="69.7098" cy="134.734" rx="14.6621" ry="14.5806" fill="white"/>
<ellipse cx="89.8702" cy="134.734" rx="14.6621" ry="14.5806" fill="white"/>
<ellipse cx="110.031" cy="134.734" rx="14.6621" ry="14.5806" fill="white"/>
<path d="M139.776 34.568C154.464 34.568 163.104 43.784 163.104 55.784C163.104 69.224 153.024 78.248 138.336 78.248C123.936 78.248 114.336 69.992 112.896 57.608H128.16C129.408 62.12 132.864 64.904 138.624 64.904C144.288 64.904 148.32 61.352 148.32 55.88C148.32 50.6 144.096 47.144 137.472 47.144H116.256V11.72H160.032V25.544H130.848L130.752 34.568H139.776Z" fill="white"/>
</svg>
