<svg width="180" height="216" viewBox="0 0 180 216" fill="none" xmlns="http://www.w3.org/2000/svg">
<path d="M0 4.57764e-05V216H180V4.57764e-05H0Z" fill="#004E4D"/>
<rect x="66" y="133" width="99" height="75" fill="#A20E38"/>
<path d="M56.0001 125.5C56.0001 121.358 59.358 118 63.5001 118H169.5C173.642 118 177 121.358 177 125.5C177 129.642 173.642 133 169.5 133H63.5001C59.358 133 56.0001 129.642 56.0001 125.5Z" fill="white"/>
<rect x="114" y="133" width="6" height="75" fill="white"/>
<rect x="66" y="170" width="6" height="99.0925" transform="rotate(-89.5485 66 170)" fill="white"/>
<path fill-rule="evenodd" clip-rule="evenodd" d="M88.3918 120.538C97.7486 130.312 110.075 133.697 115.924 128.098C121.773 122.499 118.93 110.036 109.573 100.262C100.216 90.4871 87.8896 87.1024 82.0406 92.7015C76.1915 98.3007 79.0351 110.763 88.3918 120.538ZM95.0189 116.675C102.513 124.503 110.911 128.625 113.778 125.881C116.644 123.137 112.893 114.567 105.399 106.738C97.9049 98.9097 89.5063 94.7878 86.6399 97.5317C83.7735 100.276 87.5249 108.846 95.0189 116.675Z" fill="white"/>
<path fill-rule="evenodd" clip-rule="evenodd" d="M119.909 99.2169C112.167 110.314 111.274 123.066 117.914 127.699C124.555 132.332 136.214 127.092 143.957 115.994C151.699 104.897 152.592 92.1456 145.951 87.5126C139.311 82.8796 127.651 88.1198 119.909 99.2169ZM125.001 104.954C118.8 113.842 116.411 122.888 119.665 125.158C122.92 127.428 130.584 122.064 136.785 113.176C142.986 104.288 145.375 95.2429 142.121 92.9724C138.866 90.702 131.201 96.0665 125.001 104.954Z" fill="white"/>
<path d="M45.3281 65.848H60.4961V79H13.3601V65.848H29.6801V31.096L14.3201 35.8V21.112L35.6321 13.72H45.3281V65.848ZM120.712 53.944V67.48H112.552V79H97.2881V67.48H64.0721V57.4L81.8321 13.72H97.3841L82.0241 53.944H97.2881V35.992H112.552V53.944H120.712Z" fill="white"/>
</svg>
