<svg width="180" height="180" viewBox="0 0 180 180" fill="none" xmlns="http://www.w3.org/2000/svg">
<path d="M180 0H0V180H180V0Z" fill="#004E4D"/>
<path d="M84.4693 180H64.8604L180 64.0676V85.4236L84.4693 180Z" fill="#007B79"/>
<path d="M48.2681 180H25.1396L180 23.8982V44.7457L48.2681 180Z" fill="#007B79"/>
<path d="M0 144.915V125.593L124.19 0H144.804L0 144.915Z" fill="#007B79"/>
<path d="M0 104.746V84.9153L83.9665 0H105.587L0 104.746Z" fill="#007B79"/>
<path d="M0 65.0847V44.2373L44.2458 0H65.3631L0 65.0847Z" fill="#007B79"/>
<path d="M0 25.4237V0H25.1397L0 25.4237Z" fill="#007B79"/>
<path d="M126.704 180H104.581L180 105.254V124.576L126.704 180Z" fill="#007B79"/>
<path d="M162.905 180H143.799L180 144.915V165.254L162.905 180Z" fill="#007B79"/>
<path d="M0 180V164.746L161.899 0H180V3.05085V5.59322L6.03352 180H0Z" fill="#007B79"/>
<path d="M21.1174 37.5V141.094C21.6203 141.094 28.6592 140.625 34.19 146.719C36.5284 149.295 39.3855 154.531 39.7207 158.438C72.2347 158.75 139.777 160.312 139.777 158.438C139.777 156.094 141.788 150.938 145.81 146.719C149.375 142.979 154.022 141.562 158.38 141.562L157.374 36.5625C153.855 36.5625 150.637 36.9375 145.81 34.6875C140.983 32.4375 139.274 24.6875 139.274 21.5625H39.7207C39.0503 24.375 37.7096 30.9375 33.6873 33.75C30.2666 36.1418 24.637 37.5 21.1174 37.5Z" stroke="white" stroke-width="7"/>
<path d="M70.5236 109.848H85.6916V123H38.5556V109.848H54.8756V75.096L39.5156 79.8V65.112L60.8276 57.72H70.5236V109.848ZM117.204 80.568C131.892 80.568 140.532 89.784 140.532 101.784C140.532 115.224 130.452 124.248 115.764 124.248C101.364 124.248 91.7636 115.992 90.3236 103.608H105.588C106.836 108.12 110.292 110.904 116.052 110.904C121.716 110.904 125.748 107.352 125.748 101.88C125.748 96.6 121.524 93.144 114.9 93.144H93.6836V57.72H137.46V71.544H108.276L108.18 80.568H117.204Z" fill="white"/>
</svg>
