<svg width="180" height="180" viewBox="0 0 180 180" fill="none" xmlns="http://www.w3.org/2000/svg">
<path d="M180 0.000244141H0V180H180V0.000244141Z" fill="#F5B335"/>
<rect x="18.5" y="23.5" width="142.832" height="133.816" fill="#F5B335"/>
<rect x="18.5" y="23.5" width="142.832" height="133.816" stroke="white" stroke-width="7"/>
<rect x="27" y="34" width="126.715" height="113.102" fill="#F5B335"/>
<rect x="27" y="34" width="126.715" height="113.102" stroke="white" stroke-width="2" stroke-dasharray="4 4"/>
<path d="M55.648 108.848H78.976V122H32.416V114.224L54.4 88.88C59.296 83.12 62.464 79.568 62.464 75.632C62.464 72.368 60.256 69.2 54.88 69.2C49.888 69.2 47.008 72.272 46.528 77.456H31.072C31.456 64.016 40.672 55.472 55.552 55.472C70.432 55.472 78.496 64.304 78.496 75.728C78.496 81.968 74.944 87.248 67.168 95.984L55.648 108.848ZM116.745 55.472C135.561 55.472 146.985 69.584 146.985 89.36C146.985 109.136 135.561 123.248 116.745 123.248C97.9293 123.248 86.5053 109.136 86.5053 89.36C86.5053 69.584 97.9293 55.472 116.745 55.472ZM116.745 109.136C126.441 109.136 131.625 100.688 131.625 89.36C131.625 78.032 126.441 69.584 116.745 69.584C107.049 69.584 101.865 78.032 101.865 89.36C101.865 100.688 107.049 109.136 116.745 109.136Z" fill="white"/>
</svg>
