<svg width="180" height="153" viewBox="0 0 180 153" fill="none" xmlns="http://www.w3.org/2000/svg">
<path d="M0 6.10352e-05V152V153H180V6.10352e-05H0Z" fill="#007B79"/>
<rect x="15.0782" y="14.0001" width="149.844" height="126" fill="#007B79"/>
<rect x="15.0782" y="14.0001" width="149.844" height="126" stroke="white" stroke-width="2" stroke-dasharray="4 4"/>
<path d="M92.0055 95.8481H115.334V109H68.7735V101.224L90.7575 75.8801C95.6535 70.1201 98.8215 66.5681 98.8215 62.6321C98.8215 59.3681 96.6135 56.2001 91.2375 56.2001C86.2455 56.2001 83.3655 59.2721 82.8855 64.4561H67.4295C67.8135 51.0161 77.0295 42.4721 91.9095 42.4721C106.79 42.4721 114.854 51.3041 114.854 62.7281C114.854 68.9681 111.302 74.2481 103.526 82.9841L92.0055 95.8481Z" fill="white"/>
</svg>
