<svg width="180" height="180" viewBox="0 0 180 180" fill="none" xmlns="http://www.w3.org/2000/svg">
<path d="M0 180V1.00559V0H180V180H0Z" fill="#007B79"/>
<path d="M34.5825 98.7043C26.2948 102.157 13 115.107 13 120.287C13 125.467 19.9243 140.993 29.4027 150.502C49.1628 170.327 86.0928 165.178 100.193 161.725C109.69 159.999 126.61 150.33 118.323 125.467C107.963 94.3878 44.0788 94.7476 34.5825 98.7043Z" fill="#F5B335"/>
<path d="M146.182 117.697C141.002 117.697 119.261 124.346 116.83 125.467C114.399 126.588 109.917 144.599 116.83 148.776C124.599 153.956 134.096 157.409 141.865 156.546C148.772 155.778 151.362 117.697 146.182 117.697Z" fill="#F5B335"/>
<path d="M63.0715 64.1725C49.2587 72.8055 46.6688 80.5752 44.0789 84.8918C41.489 89.2083 101.057 94.3881 103.647 91.7982C106.236 89.2082 93.287 68.489 91.5604 64.1725C89.8338 59.8561 95.0136 55.5395 91.5604 52.0863C88.1072 48.6331 76.8843 55.5396 63.0715 64.1725Z" fill="#A20E38"/>
<circle cx="91.5603" cy="51.2229" r="11.2229" fill="white"/>
<rect x="35.5386" y="83.165" width="75.2225" height="15.5394" rx="4.5" transform="rotate(6.72338 35.5386 83.165)" fill="white"/>
<path d="M13 119.424L14.7266 121.15L21.633 126.33C25.9495 128.92 30.4041 128.995 33.7192 127.675" stroke="#CF8800"/>
<path d="M28.5394 114.466C29.4027 111.588 31.9926 106.178 35.4458 107.559C38.899 108.94 39.1868 115.041 38.899 117.919" stroke="#CF8800"/>
<path d="M50.1219 112.517C52.424 115.395 55.3017 121.747 55.3017 125.467C55.3017 132.373 49.2586 139.279 47.532 137.553" stroke="#CF8800"/>
<path d="M66.5247 130.165C66.5247 131.891 67.5606 135.862 71.7045 137.934C76.8843 140.524 80.3375 140.524 82.9274 140.524C85.5173 140.524 88.1072 138.798 88.1072 134.481C88.1072 130.165 88.1072 125.848 82.9274 124.985C78.7835 124.294 73.1433 124.697 70.8412 124.985" stroke="#CF8800"/>
<path d="M133.519 129.353L145.578 130.157" stroke="#CF8800" stroke-width="0.5" stroke-linecap="round"/>
<path d="M133.531 144.551L145.59 145.355" stroke="#CF8800" stroke-width="0.5" stroke-linecap="round"/>
<path d="M127.3 134.185L136.775 134.817L146.251 135.449" stroke="#CF8800" stroke-width="0.5" stroke-linecap="round"/>
<path d="M126.956 139.353L136.431 139.985L145.906 140.617" stroke="#CF8800" stroke-width="0.5" stroke-linecap="round"/>
<path d="M153.504 42.344C160.128 45.608 163.968 51.176 163.968 58.088C163.968 70.376 154.176 78.248 137.568 78.248C121.056 78.248 111.168 70.376 111.168 58.088C111.168 51.176 115.008 45.608 121.632 42.344C116.736 39.464 113.856 34.856 113.856 29.096C113.856 17.96 123.744 10.472 137.568 10.472C151.392 10.472 161.184 17.96 161.184 29.096C161.184 34.856 158.304 39.368 153.504 42.344ZM137.568 22.184C132.288 22.184 128.64 25.448 128.64 30.056C128.64 34.568 132.288 38.12 137.568 38.12C142.848 38.12 146.592 34.472 146.592 30.056C146.592 25.544 142.848 22.184 137.568 22.184ZM137.568 65.576C143.232 65.576 147.456 61.832 147.456 57.032C147.456 52.232 143.232 48.584 137.568 48.584C131.904 48.584 127.776 52.136 127.776 57.032C127.776 61.928 131.904 65.576 137.568 65.576Z" fill="white"/>
</svg>
