<svg width="180" height="226" viewBox="0 0 180 226" fill="none" xmlns="http://www.w3.org/2000/svg">
<path d="M0 0V226H180V0H0Z" fill="#004E4D"/>
<rect x="66" y="139.157" width="99" height="78.4722" fill="#A20E38"/>
<path d="M56.0001 131.31C56.0001 126.976 59.5134 123.463 63.8473 123.463H169.153C173.487 123.463 177 126.976 177 131.31V131.31C177 135.644 173.487 139.157 169.153 139.157H63.8474C59.5134 139.157 56.0001 135.644 56.0001 131.31V131.31Z" fill="white"/>
<rect x="114" y="139.157" width="6" height="78.4722" fill="white"/>
<rect width="6.27776" height="99.0928" transform="matrix(0.00753134 -0.999972 0.999966 0.00824479 66 177.87)" fill="white"/>
<path fill-rule="evenodd" clip-rule="evenodd" d="M88.3919 126.118C97.7486 136.345 110.075 139.887 115.924 134.028C121.773 128.17 118.93 115.13 109.573 104.903C100.216 94.6764 87.8897 91.135 82.0406 96.9934C76.1916 102.852 79.0351 115.891 88.3919 126.118ZM95.019 122.076C102.513 130.267 110.912 134.58 113.778 131.709C116.644 128.838 112.893 119.871 105.399 111.68C97.905 103.489 89.5063 99.1762 86.64 102.047C83.7736 104.918 87.525 113.885 95.019 122.076Z" fill="white"/>
<path fill-rule="evenodd" clip-rule="evenodd" d="M119.909 103.81C112.167 115.421 111.274 128.763 117.914 133.611C124.555 138.458 136.214 132.975 143.956 121.365C151.699 109.754 152.592 96.4116 145.951 91.5642C139.311 86.7167 127.651 92.1995 119.909 103.81ZM125.001 109.813C118.8 119.113 116.411 128.577 119.665 130.953C122.92 133.328 130.584 127.715 136.785 118.416C142.986 109.117 145.375 99.6524 142.121 97.2769C138.866 94.9013 131.201 100.514 125.001 109.813Z" fill="white"/>
<path d="M47.328 65.9083H62.496V79.0603H15.36V65.9083H31.68V31.1563L16.32 35.8603V21.1723L37.632 13.7803H47.328V65.9083ZM122.712 54.0043V67.5403H114.552V79.0603H99.288V67.5403H66.072V57.4603L83.832 13.7803H99.384L84.024 54.0043H99.288V36.0523H114.552V54.0043H122.712Z" fill="white"/>
</svg>
