<svg width="180" height="179" viewBox="0 0 180 179" fill="none" xmlns="http://www.w3.org/2000/svg">
<path d="M0 179V1.06554V6.10352e-05H180V179H0Z" fill="#A20E38"/>
<rect opacity="0.59" y="6.10352e-05" width="20" height="179" fill="#CF1046"/>
<rect opacity="0.59" x="80" y="6.10352e-05" width="20" height="179" fill="#CF1046"/>
<rect opacity="0.59" x="160" y="6.10352e-05" width="20" height="179" fill="#CF1046"/>
<rect opacity="0.59" x="120" y="6.10352e-05" width="20" height="179" fill="#CF1046"/>
<rect opacity="0.59" x="40" y="6.10352e-05" width="20" height="179" fill="#CF1046"/>
<rect opacity="0.8" y="20.1191" width="20.119" height="180" transform="rotate(-90 0 20.1191)" fill="#CF1046"/>
<rect opacity="0.8" y="60.3572" width="20.119" height="180" transform="rotate(-90 0 60.3572)" fill="#CF1046"/>
<rect opacity="0.8" y="100.595" width="20.119" height="180" transform="rotate(-90 0 100.595)" fill="#CF1046"/>
<rect opacity="0.8" y="140.833" width="20.119" height="180" transform="rotate(-90 0 140.833)" fill="#CF1046"/>
<rect opacity="0.8" y="179" width="18" height="180" transform="rotate(-90 0 179)" fill="#CF1046"/>
<path d="M93.664 62.4721C109.408 62.4721 119.968 73.0321 119.968 86.1841C119.968 91.5601 117.76 96.5521 114.4 102.024L97.408 129H79.072L91.552 109.512C77.056 108.744 67.264 98.9521 67.264 86.4721C67.264 72.8401 78.016 62.4721 93.664 62.4721ZM101.344 94.2481L101.728 93.5761C104.032 90.3121 104.896 88.2001 104.896 85.8001C104.896 80.4241 100.288 75.4321 93.664 75.4321C87.04 75.4321 82.528 80.4241 82.528 85.8961C82.528 91.3681 86.944 96.4561 93.664 96.4561C96.544 96.4561 99.328 95.6881 101.344 94.2481Z" fill="white"/>
</svg>
