<svg width="180" height="211" viewBox="0 0 180 211" fill="none" xmlns="http://www.w3.org/2000/svg">
<path d="M0 211V1.17877V0H180V211H0Z" fill="#004E4D"/>
<path d="M40 70.7329L62.5167 120.186H17.4833L40 70.7329Z" fill="white"/>
<path d="M40 98.3069L65.9808 154.953H14.0192L40 98.3069Z" fill="white"/>
<path d="M40 117.489L70.3109 185.824H9.68911L40 117.489Z" fill="white"/>
<rect x="35.7821" y="173.625" width="8.72735" height="29.8339" fill="white"/>
<path d="M39.5 53.949L42.5309 65.1323H52.3393L44.4042 72.044L47.4351 83.2273L39.5 76.3156L31.5649 83.2273L34.5958 72.044L26.6607 65.1323H36.4691L39.5 53.949Z" fill="#F5B335"/>
<path d="M81.648 72.6974H104.976V85.8494H58.416V78.0734L80.4 52.7294C85.296 46.9694 88.464 43.4174 88.464 39.4814C88.464 36.2174 86.256 33.0494 80.88 33.0494C75.888 33.0494 73.008 36.1214 72.528 41.3054H57.072C57.456 27.8654 66.672 19.3214 81.552 19.3214C96.432 19.3214 104.496 28.1534 104.496 39.5774C104.496 45.8174 100.944 51.0974 93.168 59.8334L81.648 72.6974ZM166.025 60.7934V74.3294H157.865V85.8494H142.601V74.3294H109.385V64.2494L127.145 20.5694H142.697L127.337 60.7934H142.601V42.8414H157.865V60.7934H166.025Z" fill="white"/>
</svg>
