<svg width="179" height="218" viewBox="0 0 179 218" fill="none" xmlns="http://www.w3.org/2000/svg">
<path d="M179 0H0V218H179V0Z" fill="#A20E38"/>
<path d="M58.1219 148.482V151.433H60.7042V148.482L62.1799 144.424L60.7042 141.841V140.366L68.4512 135.57L69.9268 131.881H65.5L60.7042 138.152V132.988L71.4024 127.085L72.5091 122.29H67.3445L60.7042 130.405V124.872L74.3536 117.125L75.0914 111.591L69.189 112.698L60.7042 121.921L62.1799 108.64L58.8597 102L55.1707 108.64L58.1219 121.921L48.8994 111.591H42.9969L44.4725 117.125L58.1219 124.872V130.405L50.0061 121.921H45.5792L47.4238 127.085L58.4908 132.988V138.152L52.9573 131.881H48.5305L49.6372 135.57L58.4908 140.366V141.841L56.6463 144.424L58.1219 148.482Z" fill="white"/>
<path d="M60.3353 163.607L60.3353 160.655L57.753 160.655L57.753 163.607L56.2774 167.665L57.753 170.247L57.753 171.723L50.0061 176.518L48.5305 180.207L52.9573 180.207L57.753 173.936L57.753 179.101L47.0549 185.003L45.9482 189.799L51.1128 189.799L57.753 181.683L57.753 187.216L44.1036 194.963L43.3658 200.497L49.2683 199.39L57.753 190.168L56.2774 203.448L59.5975 210.088L63.2866 203.448L60.3353 190.168L69.5579 200.497L75.4603 200.497L73.9847 194.963L60.3353 187.216L60.3353 181.683L68.4512 190.168L72.878 190.168L71.0335 185.003L59.9664 179.101L59.9664 173.936L65.5 180.207L69.9268 180.207L68.8201 176.518L59.9664 171.723L59.9664 170.247L61.811 167.665L60.3353 163.607Z" fill="white"/>
<path d="M64.197 151.588L61.6921 153.148L63.0574 155.34L65.5624 153.78L69.7869 152.887L71.1986 150.269L72.4511 149.489L80.6176 153.529L84.5291 152.831L82.1885 149.073L74.3298 148.318L78.7135 145.588L89.3798 151.547L94.0356 149.951L91.3049 145.567L80.9053 144.222L85.6022 141.297L99.3945 148.786L104.481 146.487L100.421 142.062L88.1071 139.736L100.16 133.967L104.04 127.638L96.4538 128.018L86.7418 137.544L90.633 124.255L87.5122 119.245L83.5956 123.423L84.2368 139.105L79.54 142.03L82.4507 130.656L80.1102 126.898L76.7017 131.195L77.5432 143.709L73.1595 146.44L75.5568 138.427L73.2163 134.669L70.6702 137.559L71.2808 147.61L70.0283 148.39L66.8612 148.19L64.197 151.588Z" fill="white"/>
<path d="M53.7391 160.595L56.2949 159.12L55.0038 156.883L52.4479 158.359L48.1958 159.11L46.6973 161.679L45.4194 162.417L37.3927 158.106L33.4601 158.672L35.6735 162.506L43.5025 163.524L39.0298 166.106L28.5691 159.792L23.8625 161.232L26.4448 165.704L36.7935 167.397L32.0013 170.164L18.4675 162.217L13.3065 164.344L17.2161 168.903L29.4454 171.64L17.2064 177.002L13.1159 183.197L20.711 183.072L30.7366 173.876L26.4025 187.027L29.3537 192.139L33.4081 188.094L33.2924 172.4L38.0846 169.634L34.7945 180.904L37.0079 184.738L40.5584 180.558L40.1365 168.023L44.6092 165.441L41.9449 173.368L44.1583 177.202L46.7997 174.399L46.5261 164.334L47.804 163.596L50.9626 163.902L53.7391 160.595Z" fill="white"/>
<path d="M66.6202 158.379L64.0288 156.967L62.7931 159.234L65.3845 160.647L68.2415 163.884L71.2151 163.824L72.5108 164.53L73.0148 173.627L75.5479 176.688L77.6662 172.801L74.4544 165.589L78.9893 168.061L79.0528 180.279L82.7342 183.546L85.2056 179.011L81.2568 169.296L86.1156 171.944L86.3865 187.637L90.8923 190.932L92.745 185.22L88.707 173.357L99.6622 181.007L107.082 181.269L103.016 174.853L89.9427 171.089L103.426 167.934L106.25 162.751L100.685 161.399L87.3513 169.677L82.4925 167.029L93.8263 163.963L95.9446 160.076L90.5271 159.224L80.0485 166.117L75.5135 163.646L83.6681 161.788L85.7865 157.901L82.0176 157.107L73.57 162.587L72.2743 161.881L70.8894 159.025L66.6202 158.379Z" fill="white"/>
<path d="M52.7134 153.534L55.158 155.187L56.6047 153.048L54.1602 151.395L51.6256 147.899L48.6599 147.674L47.4376 146.848L47.8055 137.744L45.5765 134.455L43.0963 138.122L45.6042 145.608L41.3262 142.714L42.4308 130.546L39.0784 126.942L36.1849 131.22L39.1872 141.267L34.6037 138.167L35.8338 122.521L31.6637 118.81L29.2735 124.319L32.1591 136.514L21.9853 127.851L14.625 126.881L18.0584 133.657L30.7124 138.653L16.9895 140.505L13.6826 145.394L19.0929 147.272L33.1569 140.306L37.7405 143.406L26.1655 145.375L23.6853 149.042L28.9967 150.408L40.0862 144.548L44.3641 147.441L36.0693 148.511L33.5891 152.178L37.2649 153.328L46.1976 148.681L47.4198 149.508L48.5254 152.483L52.7134 153.534Z" fill="white"/>
<circle cx="59.5975" cy="156.229" r="5.16463" fill="white"/>
<path d="M140.488 118.802V120.44H141.921V118.802L142.741 116.549L141.921 115.116V114.297L146.222 111.635L147.041 109.587H144.584L141.921 113.068V110.201L147.86 106.925L148.474 104.263H145.608L141.921 108.768V105.696L149.498 101.396L149.908 98.3242L146.631 98.9386L141.921 104.058L142.741 96.686L140.898 93L138.85 96.686L140.488 104.058L135.369 98.3242H132.092L132.911 101.396L140.488 105.696V108.768L135.983 104.058H133.526L134.549 106.925L140.693 110.201V113.068L137.621 109.587H135.164L135.778 111.635L140.693 114.297V115.116L139.669 116.549L140.488 118.802Z" fill="white"/>
<path d="M141.717 127.198L141.717 125.56L140.283 125.56L140.283 127.198L139.464 129.451L140.283 130.884L140.283 131.703L135.983 134.365L135.164 136.413L137.621 136.413L140.283 132.932L140.283 135.799L134.345 139.075L133.73 141.737L136.597 141.737L140.283 137.232L140.283 140.304L132.706 144.604L132.297 147.676L135.573 147.061L140.283 141.942L139.464 149.314L141.307 153L143.355 149.314L141.717 141.942L146.836 147.676L150.113 147.676L149.294 144.604L141.717 140.304L141.717 137.232L146.222 141.942L148.679 141.942L147.655 139.075L141.512 135.799L141.512 132.932L144.584 136.413L147.041 136.413L146.427 134.365L141.512 131.703L141.512 130.884L142.536 129.451L141.717 127.198Z" fill="white"/>
<path d="M143.86 120.526L142.47 121.392L143.228 122.609L144.618 121.743L146.963 121.247L147.747 119.794L148.442 119.361L152.975 121.604L155.147 121.216L153.847 119.13L149.485 118.711L151.918 117.196L157.839 120.504L160.424 119.618L158.908 117.184L153.135 116.438L155.742 114.814L163.399 118.971L166.222 117.695L163.968 115.238L157.133 113.947L163.823 110.745L165.977 107.232L161.766 107.442L156.375 112.731L158.535 105.354L156.803 102.573L154.629 104.892L154.984 113.597L152.377 115.221L153.993 108.907L152.694 106.821L150.802 109.206L151.269 116.153L148.835 117.668L150.166 113.221L148.867 111.135L147.454 112.739L147.793 118.318L147.097 118.751L145.339 118.64L143.86 120.526Z" fill="white"/>
<path d="M138.055 125.526L139.474 124.707L138.757 123.466L137.338 124.285L134.978 124.702L134.146 126.128L133.437 126.538L128.981 124.144L126.798 124.459L128.027 126.587L132.373 127.152L129.89 128.585L124.083 125.081L121.471 125.88L122.904 128.362L128.649 129.302L125.988 130.838L118.476 126.426L115.611 127.608L117.781 130.138L124.57 131.657L117.776 134.634L115.505 138.073L119.721 138.003L125.286 132.898L122.881 140.199L124.519 143.036L126.769 140.791L126.705 132.079L129.365 130.543L127.539 136.8L128.768 138.928L130.739 136.608L130.504 129.649L132.987 128.216L131.508 132.617L132.737 134.745L134.203 133.189L134.051 127.602L134.761 127.192L136.514 127.362L138.055 125.526Z" fill="white"/>
<path d="M145.205 124.296L143.767 123.512L143.081 124.771L144.519 125.555L146.105 127.352L147.756 127.319L148.475 127.711L148.755 132.761L150.161 134.46L151.337 132.302L149.554 128.299L152.072 129.67L152.107 136.453L154.15 138.266L155.522 135.749L153.33 130.356L156.027 131.826L156.178 140.537L158.679 142.366L159.707 139.196L157.466 132.61L163.547 136.857L167.666 137.003L165.409 133.441L158.152 131.351L165.636 129.6L167.204 126.723L164.115 125.972L156.713 130.568L154.016 129.098L160.308 127.396L161.483 125.238L158.476 124.765L152.659 128.592L150.142 127.22L154.669 126.188L155.845 124.031L153.753 123.59L149.063 126.632L148.344 126.24L147.575 124.655L145.205 124.296Z" fill="white"/>
<path d="M137.486 121.606L138.843 122.524L139.646 121.337L138.289 120.419L136.882 118.479L135.236 118.354L134.557 117.895L134.761 112.842L133.524 111.016L132.147 113.051L133.539 117.207L131.165 115.601L131.778 108.846L129.917 106.846L128.311 109.22L129.977 114.797L127.433 113.077L128.116 104.391L125.801 102.331L124.474 105.389L126.076 112.159L120.429 107.35L116.343 106.812L118.249 110.573L125.273 113.346L117.655 114.374L115.82 117.088L118.823 118.131L126.63 114.264L129.174 115.985L122.749 117.078L121.372 119.113L124.321 119.871L130.476 116.618L132.851 118.224L128.247 118.818L126.87 120.854L128.91 121.492L133.869 118.913L134.547 119.372L135.161 121.023L137.486 121.606Z" fill="white"/>
<circle cx="141.307" cy="123.102" r="2.86689" fill="white"/>
<path d="M142.89 185.529V186.579H143.809V185.529L144.333 184.086L143.809 183.168V182.643L146.564 180.938L147.088 179.626H145.514L143.809 181.856V180.019L147.613 177.92L148.007 176.215H146.17L143.809 179.101V177.133L148.662 174.379L148.925 172.411L146.826 172.804L143.809 176.084L144.333 171.361L143.153 169L141.841 171.361L142.89 176.084L139.611 172.411H137.512L138.037 174.379L142.89 177.133V179.101L140.004 176.084H138.43L139.086 177.92L143.022 180.019V181.856L141.054 179.626H139.48L139.873 180.938L143.022 182.643V183.168L142.366 184.086L142.89 185.529Z" fill="white"/>
<path d="M143.678 190.908L143.678 189.858L142.759 189.858L142.759 190.908L142.235 192.351L142.759 193.269L142.759 193.794L140.004 195.499L139.48 196.811L141.054 196.811L142.759 194.581L142.759 196.417L138.955 198.516L138.561 200.222L140.398 200.222L142.759 197.336L142.759 199.303L137.905 202.058L137.643 204.026L139.742 203.632L142.759 200.353L142.235 205.075L143.415 207.437L144.727 205.075L143.678 200.353L146.957 204.026L149.056 204.026L148.531 202.058L143.678 199.303L143.678 197.336L146.564 200.353L148.138 200.353L147.482 198.516L143.546 196.417L143.546 194.581L145.514 196.811L147.088 196.811L146.695 195.499L143.546 193.794L143.546 193.269L144.202 192.351L143.678 190.908Z" fill="white"/>
<path d="M145.051 186.634L144.16 187.189L144.646 187.968L145.536 187.413L147.039 187.096L147.541 186.165L147.986 185.887L150.89 187.324L152.281 187.076L151.449 185.739L148.654 185.471L150.213 184.5L154.006 186.619L155.661 186.052L154.69 184.493L150.992 184.014L152.663 182.974L157.567 185.637L159.376 184.82L157.932 183.246L153.553 182.419L157.839 180.368L159.219 178.117L156.521 178.252L153.068 181.64L154.452 176.914L153.342 175.132L151.949 176.618L152.177 182.195L150.507 183.235L151.542 179.19L150.71 177.854L149.497 179.382L149.797 183.832L148.238 184.803L149.09 181.954L148.258 180.617L147.353 181.645L147.57 185.219L147.124 185.497L145.998 185.425L145.051 186.634Z" fill="white"/>
<path d="M141.332 189.837L142.241 189.312L141.782 188.517L140.873 189.042L139.361 189.309L138.828 190.222L138.373 190.485L135.519 188.951L134.121 189.153L134.908 190.516L137.692 190.878L136.101 191.796L132.381 189.551L130.708 190.063L131.626 191.654L135.306 192.256L133.602 193.239L128.789 190.413L126.954 191.17L128.344 192.791L132.693 193.764L128.341 195.671L126.886 197.874L129.587 197.83L133.152 194.559L131.611 199.236L132.66 201.054L134.102 199.616L134.061 194.035L135.765 193.051L134.595 197.059L135.382 198.422L136.645 196.936L136.495 192.478L138.085 191.56L137.138 194.379L137.925 195.742L138.864 194.746L138.767 191.166L139.221 190.904L140.345 191.013L141.332 189.837Z" fill="white"/>
<path d="M145.912 189.049L144.991 188.547L144.552 189.353L145.473 189.855L146.489 191.006L147.546 190.985L148.007 191.236L148.186 194.471L149.087 195.56L149.84 194.177L148.698 191.613L150.311 192.492L150.334 196.836L151.643 197.998L152.522 196.385L151.117 192.931L152.845 193.873L152.941 199.453L154.544 200.625L155.203 198.593L153.767 194.375L157.662 197.095L160.301 197.189L158.855 194.907L154.206 193.568L159.001 192.446L160.005 190.603L158.026 190.122L153.285 193.066L151.557 192.125L155.587 191.034L156.34 189.652L154.414 189.349L150.688 191.8L149.075 190.922L151.975 190.261L152.728 188.879L151.388 188.596L148.384 190.545L147.923 190.294L147.431 189.278L145.912 189.049Z" fill="white"/>
<path d="M140.967 187.326L141.836 187.914L142.351 187.153L141.482 186.565L140.58 185.322L139.526 185.242L139.091 184.948L139.222 181.711L138.429 180.541L137.547 181.845L138.439 184.507L136.918 183.478L137.311 179.151L136.118 177.87L135.09 179.391L136.157 182.964L134.527 181.861L134.965 176.297L133.482 174.978L132.632 176.937L133.658 181.273L130.04 178.193L127.423 177.848L128.644 180.257L133.143 182.034L128.264 182.693L127.088 184.431L129.011 185.099L134.013 182.622L135.643 183.724L131.527 184.424L130.645 185.728L132.533 186.214L136.477 184.13L137.998 185.159L135.048 185.54L134.166 186.844L135.474 187.253L138.65 185.6L139.085 185.894L139.478 186.952L140.967 187.326Z" fill="white"/>
<circle cx="143.415" cy="188.284" r="1.83657" fill="white"/>
<path d="M95.328 70.848H110.496V84H63.36V70.848H79.68V36.096L64.32 40.8V26.112L85.632 18.72H95.328V70.848ZM142.584 38.208C157.08 38.976 166.872 48.768 166.872 61.248C166.872 74.88 156.12 85.248 140.472 85.248C124.728 85.248 114.168 74.688 114.168 61.536C114.168 56.16 116.376 51.168 119.736 45.696L136.728 18.72H155.064L142.584 38.208ZM140.472 72.288C147.096 72.288 151.608 67.296 151.608 61.824C151.608 56.352 147.192 51.264 140.472 51.264C137.592 51.264 134.808 52.032 132.792 53.472L132.408 54.144C130.104 57.408 129.24 59.52 129.24 61.92C129.24 67.296 133.848 72.288 140.472 72.288Z" fill="white"/>
</svg>
