<svg width="180" height="214" viewBox="0 0 180 214" fill="none" xmlns="http://www.w3.org/2000/svg">
<path d="M0 214V1.43649V0.000244141H180V214H0Z" fill="#007B79"/>
<path d="M47.9762 57.6964L37.5 38.1047L48.5 2.09839L47.9762 57.6964Z" fill="#F5B335"/>
<path d="M58 38.2896L48 2.09839L47.5 56.1229L58 38.2896Z" fill="#CF8800"/>
<path d="M58 37.765L47.5 56.1228L92 29.3728L58 37.765Z" fill="#F5B335"/>
<path d="M91.5 29.3728L47.5 56.1228H68L91.5 29.3728Z" fill="#CF8800"/>
<path d="M68 56.1228H47.5L92.5 83.3973L68 56.1228Z" fill="#F5B335"/>
<path d="M92.5 83.3973L47.5 56.1228L58 74.4806L92.5 83.3973Z" fill="#CF8800"/>
<path d="M58 74.4806L47.5 56.1228V110.672L58 74.4806Z" fill="#F5B335"/>
<path d="M47.5 110.147V56.1228L37.5 73.9561L47.5 110.147Z" fill="#CF8800"/>
<path d="M37.5 74.4806L47.5 56.1228L3 82.8728L37.5 74.4806Z" fill="#F5B335"/>
<path d="M47.5 56.1229L3 82.8729L27 55.5984L47.5 56.1229Z" fill="#CF8800"/>
<path d="M37.5 37.7652L47.5 56.123L3.5 28.324L37.5 37.7652Z" fill="#CF8800"/>
<path d="M47.5 56.123L3.5 28.324L26.5 55.5985L47.5 56.123Z" fill="#F5B335"/>
<path d="M31.7695 130.276L26 119.487L32.058 99.6572L31.7695 130.276Z" fill="#F5B335"/>
<path d="M37.2899 119.589L31.7827 99.6572L31.5073 129.41L37.2899 119.589Z" fill="#CF8800"/>
<path d="M37.2899 119.3L31.5073 129.41L56.0146 114.678L37.2899 119.3Z" fill="#F5B335"/>
<path d="M55.7392 114.678L31.5073 129.41H42.7972L55.7392 114.678Z" fill="#CF8800"/>
<path d="M42.7972 129.41H31.5073L56.2899 144.431L42.7972 129.41Z" fill="#F5B335"/>
<path d="M56.2899 144.431L31.5073 129.41L37.2899 139.52L56.2899 144.431Z" fill="#CF8800"/>
<path d="M37.2899 139.52L31.5073 129.41V159.451L37.2899 139.52Z" fill="#F5B335"/>
<path d="M31.5072 159.163V129.41L26 139.231L31.5072 159.163Z" fill="#CF8800"/>
<path d="M26 139.52L31.5072 129.41L7 144.142L26 139.52Z" fill="#F5B335"/>
<path d="M31.5072 129.41L7 144.142L20.2174 129.121L31.5072 129.41Z" fill="#CF8800"/>
<path d="M26 119.3L31.5073 129.41L7.27539 114.1L26 119.3Z" fill="#CF8800"/>
<path d="M31.5073 129.41L7.27539 114.1L19.9421 129.121L31.5073 129.41Z" fill="#F5B335"/>
<path d="M118.769 72.5801L113 61.7905L119.058 41.9609L118.769 72.5801Z" fill="#F5B335"/>
<path d="M124.29 61.8923L118.783 41.9609L118.507 71.7136L124.29 61.8923Z" fill="#CF8800"/>
<path d="M124.29 61.6035L118.507 71.7136L143.015 56.9817L124.29 61.6035Z" fill="#F5B335"/>
<path d="M142.739 56.9817L118.507 71.7136H129.797L142.739 56.9817Z" fill="#CF8800"/>
<path d="M129.797 71.7136H118.507L143.29 86.7344L129.797 71.7136Z" fill="#F5B335"/>
<path d="M143.29 86.7344L118.507 71.7136L124.29 81.8237L143.29 86.7344Z" fill="#CF8800"/>
<path d="M124.29 81.8237L118.507 71.7136V101.755L124.29 81.8237Z" fill="#F5B335"/>
<path d="M118.507 101.466V71.7136L113 81.5349L118.507 101.466Z" fill="#CF8800"/>
<path d="M113 81.8237L118.507 71.7136L94 86.4455L113 81.8237Z" fill="#F5B335"/>
<path d="M118.507 71.7137L94 86.4456L107.217 71.4248L118.507 71.7137Z" fill="#CF8800"/>
<path d="M113 61.6035L118.507 71.7137L94.2754 56.4041L113 61.6035Z" fill="#CF8800"/>
<path d="M118.507 71.7137L94.2754 56.4041L106.942 71.4248L118.507 71.7137Z" fill="#F5B335"/>
<path d="M75.5 4.19629L77.4084 10.3576H83.584L78.5878 14.1654L80.4962 20.3267L75.5 16.5188L70.5038 20.3267L72.4122 14.1654L67.416 10.3576H73.5916L75.5 4.19629Z" fill="#004E4D"/>
<path d="M78.5 101.755L80.4084 107.916H86.584L81.5878 111.724L83.4962 117.886L78.5 114.078L73.5038 117.886L75.4122 111.724L70.416 107.916H76.5916L78.5 101.755Z" fill="#004E4D"/>
<path d="M116.5 20.9807L118.408 27.142H124.584L119.588 30.9499L121.496 37.1111L116.5 33.3032L111.504 37.1111L113.412 30.9499L108.416 27.142H114.592L116.5 20.9807Z" fill="#004E4D"/>
<path d="M20.5 83.9219L22.4084 90.0831H28.584L23.5878 93.891L25.4962 100.052L20.5 96.2444L15.5038 100.052L17.4122 93.891L12.416 90.0831H18.5916L20.5 83.9219Z" fill="#004E4D"/>
<path d="M24.5 11.5396L26.4084 17.7008H32.584L27.5878 21.5087L29.4962 27.67L24.5 23.8621L19.5038 27.67L21.4122 21.5087L16.416 17.7008H22.5916L24.5 11.5396Z" fill="#004E4D"/>
<path d="M142.5 4.19629L144.408 10.3576H150.584L145.588 14.1654L147.496 20.3267L142.5 16.5188L137.504 20.3267L139.412 14.1654L134.416 10.3576H140.592L142.5 4.19629Z" fill="#004E4D"/>
<path d="M153.5 38.814L155.408 44.9752H161.584L156.588 48.7831L158.496 54.9444L153.5 51.1365L148.504 54.9444L150.412 48.7831L145.416 44.9752H151.592L153.5 38.814Z" fill="#004E4D"/>
<path d="M117.96 136.72H165.576V145.84L140.52 202H122.856L145.896 151.216H117.96V136.72Z" fill="white"/>
</svg>
