<svg width="180" height="183" viewBox="0 0 180 183" fill="none" xmlns="http://www.w3.org/2000/svg">
<path d="M180 6.10352e-05H0V183H180V6.10352e-05Z" fill="#FF1053"/>
<rect y="5.11182" width="180" height="10" fill="#004E4D"/>
<rect y="31.1118" width="180" height="10" fill="#004E4D"/>
<rect y="57.1118" width="180" height="10" fill="#004E4D"/>
<rect y="83.1118" width="180" height="10" fill="#004E4D"/>
<rect y="109.112" width="180" height="10" fill="#004E4D"/>
<rect y="135.112" width="180" height="10" fill="#004E4D"/>
<rect y="161.112" width="180" height="10" fill="#004E4D"/>
<path d="M71.5291 105.72H86.6971V118.872H39.5611V105.72H55.8811V70.9676L40.5211 75.6716V60.9836L61.8331 53.5916H71.5291V105.72ZM132.705 84.2156C139.329 87.4796 143.169 93.0476 143.169 99.9596C143.169 112.248 133.377 120.12 116.769 120.12C100.257 120.12 90.3691 112.248 90.3691 99.9596C90.3691 93.0476 94.2091 87.4796 100.833 84.2156C95.9371 81.3356 93.0571 76.7276 93.0571 70.9676C93.0571 59.8316 102.945 52.3436 116.769 52.3436C130.593 52.3436 140.385 59.8316 140.385 70.9676C140.385 76.7276 137.505 81.2396 132.705 84.2156ZM116.769 64.0556C111.489 64.0556 107.841 67.3196 107.841 71.9276C107.841 76.4396 111.489 79.9916 116.769 79.9916C122.049 79.9916 125.793 76.3436 125.793 71.9276C125.793 67.4156 122.049 64.0556 116.769 64.0556ZM116.769 107.448C122.433 107.448 126.657 103.704 126.657 98.9036C126.657 94.1036 122.433 90.4556 116.769 90.4556C111.105 90.4556 106.977 94.0076 106.977 98.9036C106.977 103.8 111.105 107.448 116.769 107.448Z" fill="white"/>
</svg>
