<svg width="1512" height="899" viewBox="0 0 1512 899" fill="none" xmlns="http://www.w3.org/2000/svg">
<g clip-path="url(#clip0_653_5908)">
<rect width="1512" height="899" fill="#007B79"/>
<path d="M194.282 235.574L316.647 349.745L184.43 402.639L194.282 235.574Z" fill="#A20E38"/>
<circle cx="194.282" cy="235.574" r="23.0786" transform="rotate(-21.8044 194.282 235.574)" fill="white"/>
<circle cx="189.47" cy="409.944" r="23.0786" transform="rotate(-21.8044 189.47 409.944)" fill="white"/>
<circle cx="217.594" cy="398.693" r="23.0786" transform="rotate(-21.8044 217.594 398.693)" fill="white"/>
<circle cx="253.753" cy="384.227" r="23.0786" transform="rotate(-21.8044 253.753 384.227)" fill="white"/>
<circle cx="283.216" cy="372.441" r="23.0786" transform="rotate(-21.8044 283.216 372.441)" fill="white"/>
<circle cx="312.679" cy="360.653" r="23.0786" transform="rotate(-21.8044 312.679 360.653)" fill="white"/>
<path d="M1262.17 327.713L1232.28 408.99L1232.27 408.987C1226.85 423.23 1210.97 430.492 1196.63 425.217C1189.91 422.748 1184.72 417.965 1181.62 412.097C1178.1 405.442 1177.29 397.393 1179.99 389.761L1179.98 389.757L1210.23 307.515C1210.34 307.025 1210.4 306.527 1210.38 306.047C1210.3 304.058 1209.08 302.226 1207.1 301.498C1206.3 301.203 1205.49 301.123 1204.7 301.226C1204.07 301.306 1203.47 301.51 1202.91 301.801C1202.02 302.28 1201.35 303.095 1200.89 303.999C1200.75 304.292 1200.59 304.603 1200.46 304.811C1199.02 307.441 1197.21 309.762 1195.11 311.732C1194.29 312.494 1193.45 313.188 1192.57 313.832C1185.29 319.194 1175.54 320.911 1166.43 317.56C1152.43 312.412 1145.05 297.221 1149.43 283.148C1149.58 282.693 1149.73 282.243 1149.89 281.796C1150.29 280.709 1150.75 279.665 1151.26 278.667C1151.8 277.628 1152.39 276.626 1153.04 275.677C1156.96 268.836 1162.08 262.969 1168.04 258.266C1176.81 251.33 1187.4 246.912 1198.57 245.597C1207.27 244.566 1216.33 245.42 1225.16 248.423C1233.57 251.287 1240.92 255.844 1246.96 261.584C1256.82 270.954 1263.24 283.475 1265.29 296.938C1266.82 306.98 1265.91 317.544 1262.17 327.713Z" fill="#E6243C"/>
<path d="M1265.29 296.938C1252.64 305.501 1228.9 318.891 1206.93 316.495L1210.23 307.514C1210.34 307.025 1210.4 306.527 1210.38 306.047C1218.86 300.054 1240.44 283.104 1246.96 261.584C1256.82 270.954 1263.24 283.475 1265.29 296.938Z" fill="white"/>
<path d="M1204.7 301.225C1204.07 301.305 1203.47 301.509 1202.91 301.8C1202.02 302.28 1201.35 303.095 1200.89 303.998C1200.75 304.292 1200.59 304.602 1200.46 304.811C1199.02 307.441 1197.21 309.762 1195.11 311.731C1195.02 311.147 1190.27 276.439 1168.04 258.265C1176.81 251.329 1187.4 246.912 1198.57 245.597C1203.46 255.702 1213.24 280.287 1204.7 301.225Z" fill="white"/>
<path d="M1261.64 329.166L1251.26 357.386C1237.89 361.143 1211.26 366.952 1190.6 360.887L1199.7 336.152C1210.26 336.842 1242.37 338.053 1261.64 329.166Z" fill="white"/>
<path d="M1242.81 380.343L1232.65 407.995C1220.06 411.29 1199.46 415.246 1181.62 412.096C1178.1 405.441 1177.29 397.393 1179.99 389.761L1179.98 389.757L1181.49 385.653C1186.53 386.089 1220.82 388.596 1242.81 380.343Z" fill="white"/>
<path d="M1192.57 313.832C1185.29 319.193 1175.54 320.911 1166.43 317.56C1152.43 312.412 1145.05 297.221 1149.43 283.148C1149.58 282.693 1149.73 282.243 1149.89 281.796C1150.29 280.709 1150.75 279.664 1151.26 278.667C1161.02 284.376 1180.8 297.246 1192.57 313.832Z" fill="white"/>
<path d="M1295.22 748.967C1275.51 752.591 1240.02 775.089 1237.31 786.75C1234.61 798.412 1241.49 836.833 1257.02 862.987C1289.39 917.512 1371.91 924.41 1404.19 923.695C1425.62 924.563 1467.24 911.266 1462.28 851.142C1456.1 775.987 1317.81 744.813 1295.22 748.967Z" fill="#F5B335"/>
<path d="M1526.56 847.598C1515.36 845.005 1464.9 849.088 1459.06 850.395C1453.22 851.701 1434.14 890.007 1446.9 902.871C1461 918.422 1479.73 930.951 1496.97 932.897C1512.3 934.627 1537.76 850.191 1526.56 847.598Z" fill="#F5B335"/>
<path d="M1374.81 685.488C1340.45 698.008 1330.8 714.204 1322.95 722.625C1315.1 731.046 1441.17 772.531 1448.12 767.997C1455.06 763.462 1437.88 710.334 1436.39 699.751C1434.91 689.169 1448.36 682.045 1442.7 672.542C1437.03 663.038 1409.17 672.968 1374.81 685.488Z" fill="#A20E38"/>
<ellipse cx="1443.15" cy="670.599" rx="24.9022" ry="25.9351" transform="rotate(13.0403 1443.15 670.599)" fill="white"/>
<rect width="167.006" height="35.891" rx="4.5" transform="matrix(0.939455 0.342673 -0.333777 0.942652 1305.39 714.462)" fill="white"/>
<path d="M1237.76 784.808L1240.6 789.559L1252.83 804.678C1260.81 812.67 1270.4 815.07 1278.25 813.757" stroke="#CF8800"/>
<path d="M1273.94 781.425C1277.31 775.378 1285.73 764.495 1292.47 769.334C1299.22 774.172 1296.66 788.051 1294.53 794.385" stroke="#CF8800"/>
<path d="M1321.61 787.843C1325.09 795.474 1327.99 811.217 1326.06 819.59C1322.45 835.138 1305.79 847.661 1302.96 842.91" stroke="#CF8800"/>
<path d="M1347.87 835.786C1346.97 839.673 1347.13 849.132 1355.01 855.871C1364.86 864.295 1372.32 866.024 1377.92 867.32C1383.52 868.617 1390.02 866.027 1392.27 856.309C1394.52 846.591 1396.77 836.873 1386.02 832.336C1377.43 828.707 1365.02 826.79 1359.9 826.285" stroke="#CF8800"/>
<path d="M1493.11 867.499L1518.76 875.348" stroke="#CF8800" stroke-width="0.5" stroke-linecap="round"/>
<path d="M1477.15 875.265L1497.3 881.431L1517.45 887.598" stroke="#CF8800" stroke-width="0.5" stroke-linecap="round"/>
<path d="M1473.71 886.729L1493.86 892.895L1514.01 899.062" stroke="#CF8800" stroke-width="0.5" stroke-linecap="round"/>
<path d="M166.675 616.761L191.491 694.021L108.943 673.788L166.675 616.761Z" fill="white"/>
<path d="M157.417 654.529L186.08 742.74L91.2114 719.487L157.417 654.529Z" fill="white"/>
<path d="M151.246 679.708L184.418 786.819L72.3011 759.338L151.246 679.708Z" fill="white"/>
<rect x="125.986" y="755.073" width="14.6477" height="41.7664" transform="rotate(13.7722 125.986 755.073)" fill="white"/>
<path d="M171.475 597.178L172.588 611.283L186.542 614.703L173.277 620.001L174.39 634.106L165.078 623.275L151.812 628.572L159.323 616.581L150.01 605.749L163.964 609.169L171.475 597.178Z" fill="#F5B335"/>
<path d="M72.2338 88.3298V90.5094H74.141V88.3298L75.2308 85.3327L74.141 83.4255V82.3357L79.8626 78.7937L80.9524 76.0691H77.6829L74.141 80.7009V76.8865L82.0423 72.5272L82.8597 68.9852H79.0452L74.141 74.9793V70.8924L84.2219 65.1708L84.7669 61.0839L80.4075 61.9013L74.141 68.7128L75.2308 58.9043L72.7787 54L70.0541 58.9043L72.2338 68.7128L65.4223 61.0839H61.063L62.1528 65.1708L72.2338 70.8924V74.9793L66.2397 68.7128H62.9702L64.3325 72.5272L72.5062 76.8865V80.7009L68.4194 76.0691H65.1499L65.9672 78.7937L72.5062 82.3357V83.4255L71.1439 85.3327L72.2338 88.3298Z" fill="white"/>
<path d="M73.8687 99.5008L73.8687 97.3211L71.9615 97.3211L71.9615 99.5008L70.8717 102.498L71.9615 104.405L71.9615 105.495L66.2399 109.037L65.15 111.761L68.4195 111.761L71.9615 107.13L71.9615 110.944L64.0602 115.303L63.2428 118.845L67.0572 118.845L71.9615 112.851L71.9615 116.938L61.8805 122.66L61.3356 126.747L65.6949 125.929L71.9615 119.118L70.8717 128.926L73.3238 133.831L76.0484 128.926L73.8687 119.118L80.6802 126.747L85.0395 126.747L83.9497 122.66L73.8687 116.938L73.8687 112.851L79.8628 119.118L83.1323 119.118L81.77 115.303L73.5962 110.944L73.5962 107.13L77.6831 111.761L80.9526 111.761L80.1352 109.037L73.5962 105.495L73.5962 104.405L74.9585 102.498L73.8687 99.5008Z" fill="white"/>
<path d="M76.7206 90.6244L74.8705 91.7769L75.8789 93.3957L77.729 92.2432L80.8491 91.5837L81.8917 89.6502L82.8168 89.074L88.8483 92.0578L91.7371 91.5422L90.0085 88.7671L84.2043 88.2097L87.442 86.1929L95.3198 90.5946L98.7583 89.4156L96.7415 86.178L89.0608 85.1845L92.5297 83.0237L102.716 88.5551L106.473 86.8568L103.475 83.5888L94.3798 81.8712L103.281 77.6103L106.148 72.9359L100.544 73.2163L93.3714 80.2524L96.2453 70.4373L93.9404 66.7372L91.0477 69.823L91.5213 81.4048L88.0524 83.5657L90.2022 75.1647L88.4735 72.3895L85.9561 75.5626L86.5776 84.8053L83.34 86.8221L85.1106 80.9043L83.3819 78.1291L81.5015 80.2635L81.9524 87.6865L81.0274 88.2627L78.6883 88.1148L76.7206 90.6244Z" fill="white"/>
<path d="M68.997 97.2771L70.8846 96.1873L69.931 94.5356L68.0434 95.6255L64.9029 96.1802L63.7962 98.0776L62.8523 98.6225L56.9241 95.4384L54.0196 95.8569L55.6544 98.6883L61.4366 99.4399L58.1332 101.347L50.4073 96.684L46.9312 97.7471L48.8384 101.051L56.4815 102.301L52.9422 104.344L42.9466 98.4746L39.1348 100.046L42.0224 103.413L51.0545 105.434L42.0152 109.394L38.9941 113.97L44.6036 113.878L52.0082 107.086L48.8071 116.799L50.9868 120.574L53.9812 117.587L53.8958 105.996L57.4351 103.952L55.0052 112.277L56.6399 115.108L59.2622 112.021L58.9506 102.763L62.254 100.856L60.2862 106.711L61.9209 109.542L63.8718 107.472L63.6697 100.038L64.6135 99.4933L66.9464 99.7195L68.997 97.2771Z" fill="white"/>
<path d="M78.5104 95.6396L76.5965 94.5966L75.6838 96.2713L77.5978 97.3143L79.7079 99.7054L81.9041 99.6611L82.861 100.183L83.2332 106.902L85.1041 109.162L86.6686 106.291L84.2965 100.965L87.6458 102.79L87.6927 111.814L90.4117 114.227L92.237 110.877L89.3205 103.703L92.9091 105.658L93.1092 117.248L96.437 119.682L97.8053 115.463L94.823 106.701L102.914 112.352L108.394 112.546L105.391 107.806L95.7356 105.027L105.694 102.696L107.78 98.8685L103.67 97.8698L93.8217 103.984L90.2331 102.028L98.6039 99.7635L100.168 96.8926L96.1672 96.2635L88.4281 101.355L85.0787 99.5294L91.1014 98.1572L92.666 95.2864L89.8824 94.7003L83.6433 98.7472L82.6863 98.2256L81.6635 96.1168L78.5104 95.6396Z" fill="white"/>
<path d="M68.2394 92.0604L70.0449 93.2816L71.1134 91.7018L69.3079 90.4806L67.436 87.8988L65.2456 87.733L64.3429 87.1224L64.6146 80.3987L62.9683 77.9695L61.1366 80.6777L62.9888 86.2066L59.8292 84.0695L60.645 75.0824L58.1691 72.4209L56.032 75.5805L58.2494 83.001L54.8642 80.7113L55.7727 69.1555L52.6928 66.4144L50.9275 70.4833L53.0587 79.4902L45.5447 73.0922L40.1086 72.3757L42.6445 77.3802L51.9902 81.0699L41.855 82.4379L39.4126 86.0489L43.4085 87.4358L53.7957 82.2911L57.1809 84.5808L48.632 86.035L46.8003 88.7432L50.7231 89.7518L58.9134 85.4236L62.0729 87.5607L55.9466 88.3509L54.1149 91.0591L56.8296 91.9085L63.427 88.4765L64.3298 89.0871L65.1463 91.2841L68.2394 92.0604Z" fill="white"/>
<circle cx="73.3238" cy="94.0512" r="3.81442" fill="white"/>
<path d="M971.234 409.33V411.509H973.141V409.33L974.231 406.333L973.141 404.426V403.336L978.863 399.794L979.952 397.069H976.683L973.141 401.701V397.887L981.042 393.527L981.86 389.985H978.045L973.141 395.979V391.892L983.222 386.171L983.767 382.084L979.408 382.901L973.141 389.713L974.231 379.904L971.779 375L969.054 379.904L971.234 389.713L964.422 382.084H960.063L961.153 386.171L971.234 391.892V395.979L965.24 389.713H961.97L963.332 393.527L971.506 397.887V401.701L967.419 397.069H964.15L964.967 399.794L971.506 403.336V404.426L970.144 406.333L971.234 409.33Z" fill="white"/>
<path d="M972.869 420.501L972.869 418.321L970.961 418.321L970.961 420.501L969.872 423.498L970.961 425.405L970.961 426.495L965.24 430.037L964.15 432.761L967.419 432.761L970.961 428.13L970.961 431.944L963.06 436.303L962.243 439.845L966.057 439.845L970.961 433.851L970.961 437.938L960.88 443.66L960.336 447.747L964.695 446.929L970.961 440.118L969.872 449.926L972.324 454.831L975.048 449.926L972.869 440.118L979.68 447.747L984.039 447.747L982.95 443.66L972.869 437.938L972.869 433.851L978.863 440.118L982.132 440.118L980.77 436.303L972.596 431.944L972.596 428.13L976.683 432.761L979.953 432.761L979.135 430.037L972.596 426.495L972.596 425.405L973.958 423.498L972.869 420.501Z" fill="white"/>
<path d="M975.721 411.624L973.87 412.777L974.879 414.396L976.729 413.243L979.849 412.584L980.892 410.65L981.817 410.074L987.848 413.058L990.737 412.542L989.008 409.767L983.204 409.21L986.442 407.193L994.32 411.595L997.758 410.416L995.741 407.178L988.061 406.185L991.53 404.024L1001.72 409.555L1005.47 407.857L1002.47 404.589L993.38 402.871L1002.28 398.61L1005.15 393.936L999.544 394.216L992.371 401.252L995.245 391.437L992.94 387.737L990.048 390.823L990.521 402.405L987.052 404.566L989.202 396.165L987.473 393.39L984.956 396.563L985.578 405.805L982.34 407.822L984.111 401.904L982.382 399.129L980.501 401.263L980.952 408.686L980.027 409.263L977.688 409.115L975.721 411.624Z" fill="white"/>
<path d="M967.997 418.277L969.885 417.187L968.931 415.536L967.043 416.625L963.903 417.18L962.796 419.078L961.852 419.622L955.924 416.438L953.02 416.857L954.654 419.688L960.437 420.44L957.133 422.347L949.407 417.684L945.931 418.747L947.838 422.051L955.482 423.301L951.942 425.344L941.947 419.475L938.135 421.046L941.022 424.413L950.055 426.434L941.015 430.394L937.994 434.97L943.604 434.878L951.008 428.086L947.807 437.799L949.987 441.574L952.981 438.587L952.896 426.996L956.435 424.952L954.005 433.277L955.64 436.108L958.262 433.021L957.951 423.763L961.254 421.856L959.286 427.711L960.921 430.542L962.872 428.472L962.67 421.038L963.614 420.493L965.946 420.719L967.997 418.277Z" fill="white"/>
<path d="M977.51 416.64L975.596 415.597L974.684 417.271L976.598 418.314L978.708 420.705L980.904 420.661L981.861 421.183L982.233 427.902L984.104 430.162L985.669 427.291L983.296 421.965L986.646 423.79L986.693 432.814L989.412 435.227L991.237 431.877L988.32 424.703L991.909 426.658L992.109 438.248L995.437 440.682L996.805 436.463L993.823 427.701L1001.91 433.352L1007.39 433.546L1004.39 428.806L994.736 426.027L1004.69 423.696L1006.78 419.869L1002.67 418.87L992.822 424.984L989.233 423.028L997.604 420.763L999.168 417.893L995.167 417.264L987.428 422.355L984.079 420.529L990.101 419.157L991.666 416.286L988.882 415.7L982.643 419.747L981.686 419.226L980.664 417.117L977.51 416.64Z" fill="white"/>
<path d="M967.239 413.06L969.045 414.282L970.113 412.702L968.308 411.481L966.436 408.899L964.246 408.733L963.343 408.122L963.615 401.399L961.968 398.97L960.137 401.678L961.989 407.207L958.829 405.07L959.645 396.082L957.169 393.421L955.032 396.581L957.25 404.001L953.864 401.711L954.773 390.155L951.693 387.414L949.928 391.483L952.059 400.49L944.545 394.092L939.109 393.376L941.645 398.38L950.99 402.07L940.855 403.438L938.413 407.049L942.409 408.436L952.796 403.291L956.181 405.581L947.632 407.035L945.8 409.743L949.723 410.752L957.913 406.424L961.073 408.561L954.947 409.351L953.115 412.059L955.83 412.909L962.427 409.477L963.33 410.087L964.146 412.284L967.239 413.06Z" fill="white"/>
<circle cx="972.324" cy="415.051" r="3.81442" fill="white"/>
<path d="M1265.23 88.3298V90.5094H1267.14V88.3298L1268.23 85.3327L1267.14 83.4255V82.3357L1272.86 78.7937L1273.95 76.0691H1270.68L1267.14 80.7009V76.8865L1275.04 72.5272L1275.86 68.9852H1272.05L1267.14 74.9793V70.8924L1277.22 65.1708L1277.77 61.0839L1273.41 61.9013L1267.14 68.7128L1268.23 58.9043L1265.78 54L1263.05 58.9043L1265.23 68.7128L1258.42 61.0839H1254.06L1255.15 65.1708L1265.23 70.8924V74.9793L1259.24 68.7128H1255.97L1257.33 72.5272L1265.51 76.8865V80.7009L1261.42 76.0691H1258.15L1258.97 78.7937L1265.51 82.3357V83.4255L1264.14 85.3327L1265.23 88.3298Z" fill="white"/>
<path d="M1266.87 99.5008L1266.87 97.3211L1264.96 97.3211L1264.96 99.5008L1263.87 102.498L1264.96 104.405L1264.96 105.495L1259.24 109.037L1258.15 111.761L1261.42 111.761L1264.96 107.13L1264.96 110.944L1257.06 115.303L1256.24 118.845L1260.06 118.845L1264.96 112.851L1264.96 116.938L1254.88 122.66L1254.34 126.747L1258.7 125.929L1264.96 119.118L1263.87 128.926L1266.32 133.831L1269.05 128.926L1266.87 119.118L1273.68 126.747L1278.04 126.747L1276.95 122.66L1266.87 116.938L1266.87 112.851L1272.86 119.118L1276.13 119.118L1274.77 115.303L1266.6 110.944L1266.6 107.13L1270.68 111.761L1273.95 111.761L1273.14 109.037L1266.6 105.495L1266.6 104.405L1267.96 102.498L1266.87 99.5008Z" fill="white"/>
<path d="M1269.72 90.6244L1267.87 91.7769L1268.88 93.3957L1270.73 92.2432L1273.85 91.5837L1274.89 89.6502L1275.82 89.074L1281.85 92.0578L1284.74 91.5422L1283.01 88.7671L1277.2 88.2097L1280.44 86.1929L1288.32 90.5946L1291.76 89.4156L1289.74 86.178L1282.06 85.1845L1285.53 83.0237L1295.72 88.5551L1299.47 86.8568L1296.47 83.5888L1287.38 81.8712L1296.28 77.6103L1299.15 72.9359L1293.54 73.2163L1286.37 80.2524L1289.25 70.4373L1286.94 66.7372L1284.05 69.823L1284.52 81.4048L1281.05 83.5657L1283.2 75.1647L1281.47 72.3895L1278.96 75.5626L1279.58 84.8053L1276.34 86.8221L1278.11 80.9043L1276.38 78.1291L1274.5 80.2635L1274.95 87.6865L1274.03 88.2627L1271.69 88.1148L1269.72 90.6244Z" fill="white"/>
<path d="M1262 97.2771L1263.88 96.1873L1262.93 94.5356L1261.04 95.6255L1257.9 96.1802L1256.8 98.0776L1255.85 98.6225L1249.92 95.4384L1247.02 95.8569L1248.65 98.6883L1254.44 99.4399L1251.13 101.347L1243.41 96.684L1239.93 97.7471L1241.84 101.051L1249.48 102.301L1245.94 104.344L1235.95 98.4746L1232.13 100.046L1235.02 103.413L1244.05 105.434L1235.02 109.394L1231.99 113.97L1237.6 113.878L1245.01 107.086L1241.81 116.799L1243.99 120.574L1246.98 117.587L1246.9 105.996L1250.44 103.952L1248.01 112.277L1249.64 115.108L1252.26 112.021L1251.95 102.763L1255.25 100.856L1253.29 106.711L1254.92 109.542L1256.87 107.472L1256.67 100.038L1257.61 99.4933L1259.95 99.7195L1262 97.2771Z" fill="white"/>
<path d="M1271.51 95.6396L1269.6 94.5966L1268.68 96.2713L1270.6 97.3143L1272.71 99.7054L1274.9 99.6611L1275.86 100.183L1276.23 106.902L1278.1 109.162L1279.67 106.291L1277.3 100.965L1280.65 102.79L1280.69 111.814L1283.41 114.227L1285.24 110.877L1282.32 103.703L1285.91 105.658L1286.11 117.248L1289.44 119.682L1290.81 115.463L1287.82 106.701L1295.91 112.352L1301.39 112.546L1298.39 107.806L1288.74 105.027L1298.69 102.696L1300.78 98.8685L1296.67 97.8698L1286.82 103.984L1283.23 102.028L1291.6 99.7635L1293.17 96.8926L1289.17 96.2635L1281.43 101.355L1278.08 99.5294L1284.1 98.1572L1285.67 95.2864L1282.88 94.7003L1276.64 98.7472L1275.69 98.2256L1274.66 96.1168L1271.51 95.6396Z" fill="white"/>
<path d="M1261.24 92.0604L1263.04 93.2816L1264.11 91.7018L1262.31 90.4806L1260.44 87.8988L1258.25 87.733L1257.34 87.1224L1257.61 80.3987L1255.97 77.9695L1254.14 80.6777L1255.99 86.2066L1252.83 84.0695L1253.65 75.0824L1251.17 72.4209L1249.03 75.5805L1251.25 83.001L1247.86 80.7113L1248.77 69.1555L1245.69 66.4144L1243.93 70.4833L1246.06 79.4902L1238.54 73.0922L1233.11 72.3757L1235.64 77.3802L1244.99 81.0699L1234.86 82.4379L1232.41 86.0489L1236.41 87.4358L1246.8 82.2911L1250.18 84.5808L1241.63 86.035L1239.8 88.7432L1243.72 89.7518L1251.91 85.4236L1255.07 87.5607L1248.95 88.3509L1247.11 91.0591L1249.83 91.9085L1256.43 88.4765L1257.33 89.0871L1258.15 91.2841L1261.24 92.0604Z" fill="white"/>
<circle cx="1266.32" cy="94.0512" r="3.81442" fill="white"/>
<path d="M315.234 510.33V512.509H317.141V510.33L318.231 507.333L317.141 505.426V504.336L322.863 500.794L323.952 498.069H320.683L317.141 502.701V498.887L325.042 494.527L325.86 490.985H322.045L317.141 496.979V492.892L327.222 487.171L327.767 483.084L323.408 483.901L317.141 490.713L318.231 480.904L315.779 476L313.054 480.904L315.234 490.713L308.422 483.084H304.063L305.153 487.171L315.234 492.892V496.979L309.24 490.713H305.97L307.332 494.527L315.506 498.887V502.701L311.419 498.069H308.15L308.967 500.794L315.506 504.336V505.426L314.144 507.333L315.234 510.33Z" fill="white"/>
<path d="M316.869 521.501L316.869 519.321L314.961 519.321L314.961 521.501L313.872 524.498L314.961 526.405L314.961 527.495L309.24 531.037L308.15 533.761L311.419 533.761L314.961 529.13L314.961 532.944L307.06 537.303L306.243 540.845L310.057 540.845L314.961 534.851L314.961 538.938L304.88 544.66L304.336 548.747L308.695 547.929L314.961 541.118L313.872 550.926L316.324 555.831L319.048 550.926L316.869 541.118L323.68 548.747L328.039 548.747L326.95 544.66L316.869 538.938L316.869 534.851L322.863 541.118L326.132 541.118L324.77 537.303L316.596 532.944L316.596 529.13L320.683 533.761L323.953 533.761L323.135 531.037L316.596 527.495L316.596 526.405L317.958 524.498L316.869 521.501Z" fill="white"/>
<path d="M319.721 512.624L317.87 513.777L318.879 515.396L320.729 514.243L323.849 513.584L324.892 511.65L325.817 511.074L331.848 514.058L334.737 513.542L333.008 510.767L327.204 510.21L330.442 508.193L338.32 512.595L341.758 511.416L339.741 508.178L332.061 507.185L335.53 505.024L345.716 510.555L349.473 508.857L346.475 505.589L337.38 503.871L346.281 499.61L349.148 494.936L343.544 495.216L336.371 502.252L339.245 492.437L336.94 488.737L334.048 491.823L334.521 503.405L331.052 505.566L333.202 497.165L331.473 494.39L328.956 497.563L329.578 506.805L326.34 508.822L328.111 502.904L326.382 500.129L324.501 502.263L324.952 509.686L324.027 510.263L321.688 510.115L319.721 512.624Z" fill="white"/>
<path d="M311.997 519.277L313.885 518.187L312.931 516.536L311.043 517.625L307.903 518.18L306.796 520.078L305.852 520.622L299.924 517.438L297.02 517.857L298.654 520.688L304.437 521.44L301.133 523.347L293.407 518.684L289.931 519.747L291.838 523.051L299.482 524.301L295.942 526.344L285.947 520.475L282.135 522.046L285.022 525.413L294.055 527.434L285.015 531.394L281.994 535.97L287.604 535.878L295.008 529.086L291.807 538.799L293.987 542.574L296.981 539.587L296.896 527.996L300.435 525.952L298.005 534.277L299.64 537.108L302.262 534.021L301.951 524.763L305.254 522.856L303.286 528.711L304.921 531.542L306.872 529.472L306.67 522.038L307.614 521.493L309.946 521.719L311.997 519.277Z" fill="white"/>
<path d="M321.51 517.64L319.596 516.597L318.684 518.271L320.598 519.314L322.708 521.705L324.904 521.661L325.861 522.183L326.233 528.902L328.104 531.162L329.669 528.291L327.296 522.965L330.646 524.79L330.693 533.814L333.412 536.227L335.237 532.877L332.32 525.703L335.909 527.658L336.109 539.248L339.437 541.682L340.805 537.463L337.823 528.701L345.914 534.352L351.394 534.546L348.391 529.806L338.736 527.027L348.694 524.696L350.78 520.869L346.67 519.87L336.822 525.984L333.233 524.028L341.604 521.763L343.168 518.893L339.167 518.264L331.428 523.355L328.079 521.529L334.101 520.157L335.666 517.286L332.882 516.7L326.643 520.747L325.686 520.226L324.664 518.117L321.51 517.64Z" fill="white"/>
<path d="M311.239 514.06L313.045 515.282L314.113 513.702L312.308 512.481L310.436 509.899L308.246 509.733L307.343 509.122L307.615 502.399L305.968 499.97L304.137 502.678L305.989 508.207L302.829 506.07L303.645 497.082L301.169 494.421L299.032 497.581L301.25 505.001L297.864 502.711L298.773 491.155L295.693 488.414L293.928 492.483L296.059 501.49L288.545 495.092L283.109 494.376L285.645 499.38L294.99 503.07L284.855 504.438L282.413 508.049L286.409 509.436L296.796 504.291L300.181 506.581L291.632 508.035L289.8 510.743L293.723 511.752L301.913 507.424L305.073 509.561L298.947 510.351L297.115 513.059L299.83 513.909L306.427 510.477L307.33 511.087L308.146 513.284L311.239 514.06Z" fill="white"/>
<circle cx="316.324" cy="516.051" r="3.81442" fill="white"/>
<path d="M560.234 881.33V883.509H562.141V881.33L563.231 878.333L562.141 876.426V875.336L567.863 871.794L568.952 869.069H565.683L562.141 873.701V869.887L570.042 865.527L570.86 861.985H567.045L562.141 867.979V863.892L572.222 858.171L572.767 854.084L568.408 854.901L562.141 861.713L563.231 851.904L560.779 847L558.054 851.904L560.234 861.713L553.422 854.084H549.063L550.153 858.171L560.234 863.892V867.979L554.24 861.713H550.97L552.332 865.527L560.506 869.887V873.701L556.419 869.069H553.15L553.967 871.794L560.506 875.336V876.426L559.144 878.333L560.234 881.33Z" fill="white"/>
<path d="M561.869 892.501L561.869 890.321L559.961 890.321L559.961 892.501L558.872 895.498L559.961 897.405L559.961 898.495L554.24 902.037L553.15 904.761L556.419 904.761L559.961 900.13L559.961 903.944L552.06 908.303L551.243 911.845L555.057 911.845L559.961 905.851L559.961 909.938L549.88 915.66L549.336 919.747L553.695 918.929L559.961 912.118L558.872 921.926L561.324 926.831L564.048 921.926L561.869 912.118L568.68 919.747L573.039 919.747L571.95 915.66L561.869 909.938L561.869 905.851L567.863 912.118L571.132 912.118L569.77 908.303L561.596 903.944L561.596 900.13L565.683 904.761L568.953 904.761L568.135 902.037L561.596 898.495L561.596 897.405L562.958 895.498L561.869 892.501Z" fill="white"/>
<path d="M564.721 883.624L562.87 884.777L563.879 886.396L565.729 885.243L568.849 884.584L569.892 882.65L570.817 882.074L576.848 885.058L579.737 884.542L578.008 881.767L572.204 881.21L575.442 879.193L583.32 883.595L586.758 882.416L584.741 879.178L577.061 878.185L580.53 876.024L590.716 881.555L594.473 879.857L591.475 876.589L582.38 874.871L591.281 870.61L594.148 865.936L588.544 866.216L581.371 873.252L584.245 863.437L581.94 859.737L579.048 862.823L579.521 874.405L576.052 876.566L578.202 868.165L576.473 865.39L573.956 868.563L574.578 877.805L571.34 879.822L573.111 873.904L571.382 871.129L569.501 873.263L569.952 880.686L569.027 881.263L566.688 881.115L564.721 883.624Z" fill="white"/>
<path d="M556.997 890.277L558.885 889.187L557.931 887.536L556.043 888.625L552.903 889.18L551.796 891.078L550.852 891.622L544.924 888.438L542.02 888.857L543.654 891.688L549.437 892.44L546.133 894.347L538.407 889.684L534.931 890.747L536.838 894.051L544.482 895.301L540.942 897.344L530.947 891.475L527.135 893.046L530.022 896.413L539.055 898.434L530.015 902.394L526.994 906.97L532.604 906.878L540.008 900.086L536.807 909.799L538.987 913.574L541.981 910.587L541.896 898.996L545.435 896.952L543.005 905.277L544.64 908.108L547.262 905.021L546.951 895.763L550.254 893.856L548.286 899.711L549.921 902.542L551.872 900.472L551.67 893.038L552.614 892.493L554.946 892.719L556.997 890.277Z" fill="white"/>
<path d="M566.51 888.64L564.596 887.597L563.684 889.271L565.598 890.314L567.708 892.705L569.904 892.661L570.861 893.183L571.233 899.902L573.104 902.162L574.669 899.291L572.296 893.965L575.646 895.79L575.693 904.814L578.412 907.227L580.237 903.877L577.32 896.703L580.909 898.658L581.109 910.248L584.437 912.682L585.805 908.463L582.823 899.701L590.914 905.352L596.394 905.546L593.391 900.806L583.736 898.027L593.694 895.696L595.78 891.869L591.67 890.87L581.822 896.984L578.233 895.028L586.604 892.763L588.168 889.893L584.167 889.264L576.428 894.355L573.079 892.529L579.101 891.157L580.666 888.286L577.882 887.7L571.643 891.747L570.686 891.226L569.664 889.117L566.51 888.64Z" fill="white"/>
<path d="M556.239 885.06L558.045 886.282L559.113 884.702L557.308 883.481L555.436 880.899L553.246 880.733L552.343 880.122L552.615 873.399L550.968 870.97L549.137 873.678L550.989 879.207L547.829 877.07L548.645 868.082L546.169 865.421L544.032 868.581L546.25 876.001L542.864 873.711L543.773 862.155L540.693 859.414L538.928 863.483L541.059 872.49L533.545 866.092L528.109 865.376L530.645 870.38L539.99 874.07L529.855 875.438L527.413 879.049L531.409 880.436L541.796 875.291L545.181 877.581L536.632 879.035L534.8 881.743L538.723 882.752L546.913 878.424L550.073 880.561L543.947 881.351L542.115 884.059L544.83 884.909L551.427 881.477L552.33 882.087L553.146 884.284L556.239 885.06Z" fill="white"/>
<circle cx="561.324" cy="887.051" r="3.81442" fill="white"/>
<path d="M1495.23 545.33V547.509H1497.14V545.33L1498.23 542.333L1497.14 540.426V539.336L1502.86 535.794L1503.95 533.069H1500.68L1497.14 537.701V533.887L1505.04 529.527L1505.86 525.985H1502.05L1497.14 531.979V527.892L1507.22 522.171L1507.77 518.084L1503.41 518.901L1497.14 525.713L1498.23 515.904L1495.78 511L1493.05 515.904L1495.23 525.713L1488.42 518.084H1484.06L1485.15 522.171L1495.23 527.892V531.979L1489.24 525.713H1485.97L1487.33 529.527L1495.51 533.887V537.701L1491.42 533.069H1488.15L1488.97 535.794L1495.51 539.336V540.426L1494.14 542.333L1495.23 545.33Z" fill="white"/>
<path d="M1496.87 556.501L1496.87 554.321L1494.96 554.321L1494.96 556.501L1493.87 559.498L1494.96 561.405L1494.96 562.495L1489.24 566.037L1488.15 568.761L1491.42 568.761L1494.96 564.13L1494.96 567.944L1487.06 572.303L1486.24 575.845L1490.06 575.845L1494.96 569.851L1494.96 573.938L1484.88 579.66L1484.34 583.747L1488.7 582.929L1494.96 576.118L1493.87 585.926L1496.32 590.831L1499.05 585.926L1496.87 576.118L1503.68 583.747L1508.04 583.747L1506.95 579.66L1496.87 573.938L1496.87 569.851L1502.86 576.118L1506.13 576.118L1504.77 572.303L1496.6 567.944L1496.6 564.13L1500.68 568.761L1503.95 568.761L1503.14 566.037L1496.6 562.495L1496.6 561.405L1497.96 559.498L1496.87 556.501Z" fill="white"/>
<path d="M1499.72 547.624L1497.87 548.777L1498.88 550.396L1500.73 549.243L1503.85 548.584L1504.89 546.65L1505.82 546.074L1511.85 549.058L1514.74 548.542L1513.01 545.767L1507.2 545.21L1510.44 543.193L1518.32 547.595L1521.76 546.416L1519.74 543.178L1512.06 542.185L1515.53 540.024L1525.72 545.555L1529.47 543.857L1526.47 540.589L1517.38 538.871L1526.28 534.61L1529.15 529.936L1523.54 530.216L1516.37 537.252L1519.25 527.437L1516.94 523.737L1514.05 526.823L1514.52 538.405L1511.05 540.566L1513.2 532.165L1511.47 529.39L1508.96 532.563L1509.58 541.805L1506.34 543.822L1508.11 537.904L1506.38 535.129L1504.5 537.263L1504.95 544.686L1504.03 545.263L1501.69 545.115L1499.72 547.624Z" fill="white"/>
<path d="M1492 554.277L1493.88 553.187L1492.93 551.536L1491.04 552.625L1487.9 553.18L1486.8 555.078L1485.85 555.622L1479.92 552.438L1477.02 552.857L1478.65 555.688L1484.44 556.44L1481.13 558.347L1473.41 553.684L1469.93 554.747L1471.84 558.051L1479.48 559.301L1475.94 561.344L1465.95 555.475L1462.13 557.046L1465.02 560.413L1474.05 562.434L1465.02 566.394L1461.99 570.97L1467.6 570.878L1475.01 564.086L1471.81 573.799L1473.99 577.574L1476.98 574.587L1476.9 562.996L1480.44 560.952L1478.01 569.277L1479.64 572.108L1482.26 569.021L1481.95 559.763L1485.25 557.856L1483.29 563.711L1484.92 566.542L1486.87 564.472L1486.67 557.038L1487.61 556.493L1489.95 556.719L1492 554.277Z" fill="white"/>
<path d="M1501.51 552.64L1499.6 551.597L1498.68 553.271L1500.6 554.314L1502.71 556.705L1504.9 556.661L1505.86 557.183L1506.23 563.902L1508.1 566.162L1509.67 563.291L1507.3 557.965L1510.65 559.79L1510.69 568.814L1513.41 571.227L1515.24 567.877L1512.32 560.703L1515.91 562.658L1516.11 574.248L1519.44 576.682L1520.81 572.463L1517.82 563.701L1525.91 569.352L1531.39 569.546L1528.39 564.806L1518.74 562.027L1528.69 559.696L1530.78 555.869L1526.67 554.87L1516.82 560.984L1513.23 559.028L1521.6 556.763L1523.17 553.893L1519.17 553.264L1511.43 558.355L1508.08 556.529L1514.1 555.157L1515.67 552.286L1512.88 551.7L1506.64 555.747L1505.69 555.226L1504.66 553.117L1501.51 552.64Z" fill="white"/>
<path d="M1491.24 549.06L1493.04 550.282L1494.11 548.702L1492.31 547.481L1490.44 544.899L1488.25 544.733L1487.34 544.122L1487.61 537.399L1485.97 534.97L1484.14 537.678L1485.99 543.207L1482.83 541.07L1483.65 532.082L1481.17 529.421L1479.03 532.581L1481.25 540.001L1477.86 537.711L1478.77 526.155L1475.69 523.414L1473.93 527.483L1476.06 536.49L1468.54 530.092L1463.11 529.376L1465.64 534.38L1474.99 538.07L1464.86 539.438L1462.41 543.049L1466.41 544.436L1476.8 539.291L1480.18 541.581L1471.63 543.035L1469.8 545.743L1473.72 546.752L1481.91 542.424L1485.07 544.561L1478.95 545.351L1477.11 548.059L1479.83 548.909L1486.43 545.477L1487.33 546.087L1488.15 548.284L1491.24 549.06Z" fill="white"/>
<circle cx="1496.32" cy="551.051" r="3.81442" fill="white"/>
<circle cx="880" cy="16" r="8" fill="white"/>
<circle cx="429" cy="31" r="8" fill="white"/>
<ellipse cx="495" cy="192.5" rx="8" ry="7.5" fill="white"/>
<circle cx="118" cy="246" r="8" fill="white"/>
<circle cx="3" cy="504" r="8" fill="white"/>
<circle cx="260" cy="865" r="8" fill="white"/>
<circle cx="396" cy="578" r="8" fill="white"/>
<circle cx="1117" cy="656" r="8" fill="white"/>
<circle cx="1368" cy="194" r="8" fill="white"/>
<circle cx="1046" cy="229" r="8" fill="white"/>
<circle cx="1133" cy="866" r="8" fill="white"/>
<circle cx="1220" cy="552" r="8" fill="white"/>
</g>
<defs>
<clipPath id="clip0_653_5908">
<rect width="1512" height="899" fill="white"/>
</clipPath>
</defs>
</svg>
