<svg width="390" height="560" viewBox="0 0 390 560" fill="none" xmlns="http://www.w3.org/2000/svg">
<rect width="390" height="560" fill="#007B79"/>
<circle cx="35" cy="116" r="8" fill="white"/>
<circle cx="73.5" cy="224.5" r="4.5" fill="white"/>
<circle cx="357.5" cy="100.5" r="4.5" fill="white"/>
<circle cx="325" cy="261" r="8" fill="white"/>
<path d="M115.043 99.5377V100.651H116.017V99.5377L116.574 98.0066L116.017 97.0323V96.4755L118.94 94.6661L119.497 93.2742H117.827L116.017 95.6404V93.6918L120.054 91.4648L120.471 89.6553H118.523L116.017 92.7175V90.6297L121.167 87.7067L121.446 85.6189L119.219 86.0364L116.017 89.5161L116.574 84.5054L115.321 82L113.929 84.5054L115.043 89.5161L111.563 85.6189H109.336L109.893 87.7067L115.043 90.6297V92.7175L111.981 89.5161H110.311L111.006 91.4648L115.182 93.6918V95.6404L113.094 93.2742H111.424L111.842 94.6661L115.182 96.4755V97.0323L114.486 98.0066L115.043 99.5377Z" fill="white"/>
<path d="M115.878 105.245L115.878 104.131L114.904 104.131L114.904 105.245L114.347 106.776L114.904 107.75L114.904 108.307L111.981 110.116L111.424 111.508L113.094 111.508L114.904 109.142L114.904 111.09L110.867 113.317L110.45 115.127L112.398 115.127L114.904 112.065L114.904 114.153L109.754 117.076L109.475 119.163L111.702 118.746L114.904 115.266L114.347 120.277L115.6 122.782L116.992 120.277L115.878 115.266L119.358 119.163L121.585 119.163L121.028 117.076L115.878 114.153L115.878 112.065L118.94 115.266L120.611 115.266L119.915 113.317L115.739 111.09L115.739 109.142L117.827 111.508L119.497 111.508L119.079 110.116L115.739 108.307L115.739 107.75L116.435 106.776L115.878 105.245Z" fill="white"/>
<path d="M117.335 100.709L116.39 101.298L116.905 102.125L117.85 101.536L119.444 101.199L119.977 100.212L120.449 99.9172L123.531 101.441L125.006 101.178L124.123 99.7604L121.158 99.4756L122.812 98.4453L126.837 100.694L128.593 100.092L127.563 98.4377L123.639 97.9302L125.411 96.8263L130.615 99.6521L132.534 98.7845L131.003 97.115L126.356 96.2376L130.904 94.0608L132.368 91.6729L129.506 91.8161L125.841 95.4106L127.309 90.3964L126.132 88.5062L124.654 90.0826L124.896 95.9993L123.124 97.1032L124.222 92.8114L123.339 91.3937L122.053 93.0147L122.371 97.7365L120.717 98.7668L121.621 95.7436L120.738 94.3259L119.777 95.4162L120.008 99.2083L119.535 99.5027L118.34 99.4271L117.335 100.709Z" fill="white"/>
<path d="M113.389 104.108L114.354 103.552L113.867 102.708L112.902 103.265L111.298 103.548L110.733 104.517L110.25 104.796L107.222 103.169L105.738 103.383L106.573 104.829L109.527 105.213L107.84 106.188L103.893 103.805L102.117 104.348L103.091 106.036L106.996 106.675L105.188 107.719L100.081 104.72L98.1341 105.523L99.6092 107.243L104.223 108.275L99.6055 110.299L98.0621 112.636L100.928 112.589L104.711 109.119L103.075 114.081L104.189 116.01L105.718 114.484L105.675 108.562L107.483 107.518L106.242 111.771L107.077 113.217L108.416 111.64L108.257 106.911L109.945 105.936L108.939 108.928L109.775 110.374L110.771 109.317L110.668 105.519L111.15 105.24L112.342 105.356L113.389 104.108Z" fill="white"/>
<path d="M118.249 103.272L117.272 102.739L116.805 103.595L117.783 104.128L118.861 105.349L119.983 105.327L120.472 105.593L120.662 109.025L121.618 110.18L122.417 108.714L121.205 105.993L122.916 106.925L122.94 111.535L124.329 112.767L125.262 111.056L123.772 107.391L125.605 108.39L125.707 114.311L127.407 115.555L128.106 113.399L126.583 108.923L130.716 111.81L133.516 111.909L131.982 109.488L127.049 108.068L132.136 106.877L133.202 104.922L131.102 104.411L126.071 107.535L124.238 106.536L128.514 105.379L129.314 103.912L127.27 103.591L123.316 106.192L121.605 105.259L124.682 104.558L125.481 103.092L124.059 102.792L120.872 104.86L120.383 104.593L119.86 103.516L118.249 103.272Z" fill="white"/>
<path d="M113.002 101.443L113.925 102.067L114.471 101.26L113.548 100.636L112.592 99.3173L111.473 99.2326L111.012 98.9207L111.151 95.4858L110.31 94.2448L109.374 95.6283L110.32 98.4528L108.706 97.3611L109.123 92.7699L107.858 91.4103L106.766 93.0244L107.899 96.8152L106.17 95.6455L106.634 89.7421L105.06 88.3418L104.158 90.4204L105.247 95.0216L101.409 91.7532L98.6315 91.3872L99.927 93.9437L104.701 95.8287L99.5237 96.5275L98.276 98.3722L100.317 99.0808L105.624 96.4525L107.353 97.6222L102.986 98.3651L102.05 99.7486L104.054 100.264L108.238 98.0528L109.852 99.1445L106.723 99.5483L105.787 100.932L107.174 101.366L110.544 99.6124L111.005 99.9243L111.422 101.047L113.002 101.443Z" fill="white"/>
<circle cx="115.6" cy="102.46" r="1.94863" fill="white"/>
<path d="M276.872 227.763V228.701H277.692V227.763L278.161 226.474L277.692 225.654V225.186L280.153 223.662L280.621 222.491H279.215L277.692 224.483V222.842L281.09 220.967L281.442 219.444H279.801L277.692 222.022V220.264L282.027 217.804L282.262 216.046L280.387 216.398L277.692 219.327L278.161 215.109L277.106 213L275.935 215.109L276.872 219.327L273.943 216.046H272.068L272.537 217.804L276.872 220.264V222.022L274.294 219.327H272.888L273.474 220.967L276.989 222.842V224.483L275.232 222.491H273.826L274.177 223.662L276.989 225.186V225.654L276.403 226.474L276.872 227.763Z" fill="white"/>
<path d="M277.575 232.568L277.575 231.63L276.755 231.63L276.755 232.568L276.286 233.857L276.755 234.677L276.755 235.146L274.294 236.669L273.826 237.84L275.232 237.84L276.755 235.849L276.755 237.489L273.357 239.364L273.006 240.887L274.646 240.887L276.755 238.309L276.755 240.067L272.42 242.527L272.185 244.285L274.06 243.933L276.755 241.004L276.286 245.222L277.341 247.331L278.512 245.222L277.575 241.004L280.504 244.285L282.379 244.285L281.91 242.527L277.575 240.067L277.575 238.309L280.153 241.004L281.559 241.004L280.973 239.364L277.458 237.489L277.458 235.849L279.215 237.84L280.622 237.84L280.27 236.669L277.458 235.146L277.458 234.677L278.044 233.857L277.575 232.568Z" fill="white"/>
<path d="M278.802 228.749L278.006 229.245L278.44 229.941L279.235 229.446L280.577 229.162L281.025 228.33L281.423 228.083L284.017 229.366L285.259 229.144L284.516 227.951L282.02 227.711L283.412 226.844L286.8 228.737L288.279 228.23L287.411 226.837L284.108 226.41L285.6 225.481L289.981 227.86L291.596 227.129L290.307 225.724L286.396 224.985L290.224 223.153L291.456 221.143L289.047 221.263L285.962 224.289L287.198 220.068L286.207 218.477L284.963 219.804L285.166 224.785L283.675 225.714L284.599 222.101L283.856 220.908L282.773 222.272L283.04 226.247L281.648 227.114L282.41 224.569L281.666 223.376L280.857 224.294L281.051 227.486L280.654 227.734L279.648 227.67L278.802 228.749Z" fill="white"/>
<path d="M275.48 231.61L276.292 231.142L275.882 230.431L275.07 230.9L273.72 231.139L273.244 231.955L272.838 232.189L270.288 230.82L269.039 231L269.742 232.217L272.229 232.54L270.808 233.361L267.486 231.355L265.991 231.813L266.811 233.233L270.098 233.771L268.576 234.65L264.277 232.125L262.638 232.801L263.88 234.249L267.764 235.118L263.877 236.821L262.578 238.789L264.99 238.749L268.174 235.828L266.798 240.006L267.735 241.629L269.023 240.345L268.986 235.36L270.508 234.481L269.463 238.061L270.166 239.279L271.294 237.951L271.16 233.969L272.58 233.149L271.734 235.667L272.437 236.885L273.276 235.995L273.189 232.798L273.595 232.563L274.598 232.661L275.48 231.61Z" fill="white"/>
<path d="M279.571 230.908L278.748 230.459L278.356 231.179L279.179 231.628L280.086 232.656L281.031 232.637L281.442 232.861L281.602 235.751L282.407 236.723L283.08 235.488L282.06 233.198L283.5 233.983L283.52 237.863L284.689 238.901L285.474 237.46L284.22 234.375L285.763 235.216L285.849 240.2L287.281 241.247L287.869 239.433L286.586 235.665L290.066 238.095L292.422 238.178L291.131 236.14L286.979 234.944L291.261 233.942L292.158 232.296L290.391 231.867L286.156 234.496L284.613 233.655L288.212 232.681L288.885 231.446L287.165 231.176L283.836 233.365L282.396 232.58L284.986 231.99L285.659 230.756L284.462 230.504L281.779 232.244L281.367 232.02L280.927 231.113L279.571 230.908Z" fill="white"/>
<path d="M275.154 229.367L275.931 229.892L276.39 229.213L275.614 228.688L274.809 227.577L273.867 227.506L273.479 227.244L273.596 224.352L272.888 223.307L272.1 224.472L272.896 226.85L271.538 225.931L271.888 222.066L270.824 220.921L269.905 222.28L270.858 225.471L269.402 224.487L269.793 219.517L268.469 218.338L267.71 220.088L268.626 223.961L265.395 221.21L263.057 220.902L264.147 223.054L268.167 224.641L263.808 225.229L262.758 226.782L264.476 227.378L268.943 225.166L270.399 226.151L266.722 226.776L265.935 227.941L267.622 228.374L271.144 226.513L272.503 227.432L269.868 227.772L269.08 228.937L270.248 229.302L273.085 227.826L273.473 228.089L273.824 229.033L275.154 229.367Z" fill="white"/>
<circle cx="277.341" cy="230.223" r="1.64036" fill="white"/>
<path d="M27.3377 342.171V342.689H27.7916V342.171L28.051 341.457L27.7916 341.003V340.744L29.1534 339.901L29.4128 339.253H28.6346L27.7916 340.355V339.447L29.6721 338.41L29.8667 337.567H28.9588L27.7916 338.993V338.02L30.1909 336.659L30.3206 335.686L29.2831 335.881L27.7916 337.502L28.051 335.167L27.4674 334L26.8189 335.167L27.3377 337.502L25.7165 335.686H24.679L24.9384 336.659L27.3377 338.02V338.993L25.9111 337.502H25.1329L25.4572 338.41L27.4025 339.447V340.355L26.4299 339.253H25.6517L25.8462 339.901L27.4025 340.744V341.003L27.0783 341.457L27.3377 342.171Z" fill="white"/>
<path d="M27.7268 344.829L27.7268 344.311L27.2729 344.311L27.2729 344.829L27.0135 345.543L27.2729 345.997L27.2729 346.256L25.9111 347.099L25.6518 347.747L26.4299 347.747L27.2729 346.645L27.2729 347.553L25.3924 348.59L25.1978 349.433L26.1057 349.433L27.2729 348.007L27.2729 348.98L24.8736 350.341L24.7439 351.314L25.7814 351.119L27.2729 349.498L27.0135 351.833L27.5971 353L28.2456 351.833L27.7268 349.498L29.348 351.314L30.3855 351.314L30.1261 350.341L27.7268 348.98L27.7268 348.007L29.1534 349.498L29.9316 349.498L29.6073 348.59L27.662 347.553L27.662 346.645L28.6347 347.747L29.4128 347.747L29.2183 347.099L27.662 346.256L27.662 345.997L27.9862 345.543L27.7268 344.829Z" fill="white"/>
<path d="M28.4056 342.716L27.9653 342.991L28.2053 343.376L28.6456 343.102L29.3882 342.945L29.6363 342.484L29.8565 342.347L31.292 343.057L31.9796 342.935L31.5681 342.274L30.1867 342.142L30.9573 341.662L32.8322 342.709L33.6506 342.429L33.1706 341.658L31.3426 341.422L32.1682 340.907L34.5926 342.224L35.4868 341.82L34.7731 341.042L32.6085 340.633L34.7271 339.619L35.4093 338.506L34.0757 338.573L32.3685 340.248L33.0525 337.912L32.5039 337.031L31.8155 337.766L31.9282 340.522L31.1026 341.036L31.6142 339.037L31.2028 338.376L30.6037 339.132L30.7516 341.331L29.981 341.811L30.4024 340.403L29.991 339.742L29.5434 340.25L29.6508 342.017L29.4306 342.154L28.8739 342.119L28.4056 342.716Z" fill="white"/>
<path d="M26.5674 344.3L27.0166 344.04L26.7897 343.647L26.3404 343.907L25.593 344.039L25.3296 344.49L25.1049 344.62L23.694 343.862L23.0027 343.962L23.3918 344.636L24.768 344.814L23.9818 345.268L22.143 344.159L21.3157 344.412L21.7696 345.198L23.5887 345.495L22.7463 345.982L20.3673 344.585L19.4601 344.959L20.1474 345.76L22.297 346.241L20.1457 347.184L19.4266 348.273L20.7617 348.251L22.524 346.634L21.7621 348.946L22.2809 349.845L22.9936 349.134L22.9733 346.375L23.8156 345.888L23.2373 347.87L23.6264 348.544L24.2505 347.809L24.1763 345.605L24.9625 345.151L24.4942 346.545L24.8833 347.219L25.3476 346.726L25.2995 344.957L25.5241 344.827L26.0793 344.881L26.5674 344.3Z" fill="white"/>
<path d="M28.8316 343.91L28.3761 343.662L28.1589 344.06L28.6144 344.309L29.1166 344.878L29.6393 344.867L29.867 344.991L29.9556 346.59L30.4009 347.129L30.7733 346.445L30.2087 345.178L31.0058 345.612L31.017 347.76L31.6641 348.334L32.0985 347.537L31.4044 345.829L32.2585 346.295L32.3061 349.053L33.0982 349.632L33.4238 348.628L32.714 346.543L34.6397 347.888L35.9439 347.934L35.2293 346.806L32.9312 346.144L35.3013 345.59L35.7978 344.679L34.8196 344.441L32.4757 345.896L31.6216 345.431L33.6139 344.892L33.9863 344.208L33.0339 344.059L31.192 345.27L30.3949 344.836L31.8283 344.509L32.2006 343.826L31.5382 343.687L30.0532 344.65L29.8255 344.526L29.582 344.024L28.8316 343.91Z" fill="white"/>
<path d="M26.387 343.058L26.8167 343.349L27.071 342.973L26.6413 342.682L26.1958 342.067L25.6745 342.028L25.4597 341.883L25.5243 340.282L25.1325 339.704L24.6965 340.349L25.1374 341.665L24.3854 341.156L24.5795 339.017L23.9903 338.384L23.4816 339.136L24.0094 340.902L23.2037 340.357L23.4199 337.607L22.6869 336.954L22.2668 337.923L22.774 340.066L20.9856 338.543L19.6918 338.373L20.2954 339.564L22.5197 340.442L20.1075 340.768L19.5262 341.627L20.4772 341.957L22.9494 340.733L23.7551 341.278L21.7204 341.624L21.2845 342.268L22.2181 342.509L24.1674 341.478L24.9194 341.987L23.4613 342.175L23.0254 342.82L23.6715 343.022L25.2417 342.205L25.4565 342.35L25.6509 342.873L26.387 343.058Z" fill="white"/>
<circle cx="27.5972" cy="343.532" r="0.907841" fill="white"/>
<path d="M374.531 374.715V375.522H375.237V374.715L375.641 373.605L375.237 372.898V372.495L377.357 371.183L377.76 370.174H376.549L375.237 371.889V370.476L378.164 368.862L378.467 367.55H377.054L375.237 369.77V368.256L378.971 366.137L379.173 364.624L377.558 364.926L375.237 367.449L375.641 363.816L374.733 362L373.724 363.816L374.531 367.449L372.008 364.624H370.394L370.797 366.137L374.531 368.256V369.77L372.311 367.449H371.1L371.605 368.862L374.632 370.476V371.889L373.118 370.174H371.907L372.21 371.183L374.632 372.495V372.898L374.127 373.605L374.531 374.715Z" fill="white"/>
<path d="M375.137 378.852L375.137 378.044L374.43 378.044L374.43 378.852L374.027 379.962L374.43 380.668L374.43 381.072L372.311 382.384L371.907 383.393L373.118 383.393L374.43 381.677L374.43 383.09L371.504 384.704L371.201 386.016L372.614 386.016L374.43 383.796L374.43 385.31L370.697 387.429L370.495 388.943L372.109 388.64L374.43 386.117L374.027 389.75L374.935 391.566L375.944 389.75L375.137 386.117L377.659 388.943L379.274 388.943L378.87 387.429L375.137 385.31L375.137 383.796L377.357 386.117L378.568 386.117L378.063 384.704L375.036 383.09L375.036 381.677L376.549 383.393L377.76 383.393L377.458 382.384L375.036 381.072L375.036 380.668L375.54 379.962L375.137 378.852Z" fill="white"/>
<path d="M376.193 375.564L375.508 375.991L375.881 376.591L376.566 376.164L377.722 375.92L378.108 375.204L378.451 374.99L380.685 376.095L381.755 375.904L381.114 374.877L378.965 374.67L380.164 373.923L383.081 375.553L384.355 375.117L383.608 373.918L380.763 373.55L382.048 372.749L385.821 374.798L387.212 374.169L386.102 372.959L382.733 372.322L386.03 370.744L387.092 369.013L385.016 369.117L382.36 371.723L383.424 368.088L382.571 366.717L381.499 367.86L381.675 372.15L380.39 372.95L381.186 369.839L380.546 368.811L379.613 369.986L379.844 373.409L378.644 374.156L379.3 371.964L378.66 370.937L377.964 371.727L378.131 374.476L377.788 374.69L376.922 374.635L376.193 375.564Z" fill="white"/>
<path d="M373.332 378.028L374.031 377.625L373.678 377.013L372.979 377.417L371.816 377.622L371.406 378.325L371.056 378.527L368.861 377.347L367.785 377.502L368.391 378.551L370.532 378.829L369.309 379.536L366.447 377.809L365.16 378.202L365.866 379.426L368.697 379.889L367.386 380.646L363.684 378.472L362.272 379.054L363.342 380.301L366.687 381.049L363.339 382.516L362.22 384.211L364.298 384.177L367.04 381.661L365.855 385.259L366.662 386.657L367.771 385.551L367.739 381.257L369.05 380.501L368.15 383.584L368.756 384.632L369.727 383.489L369.611 380.06L370.835 379.354L370.106 381.522L370.711 382.571L371.434 381.804L371.359 379.051L371.709 378.849L372.573 378.933L373.332 378.028Z" fill="white"/>
<path d="M376.856 377.422L376.147 377.035L375.809 377.656L376.518 378.042L377.299 378.928L378.113 378.911L378.467 379.104L378.605 381.593L379.298 382.43L379.877 381.367L378.999 379.394L380.239 380.07L380.257 383.412L381.264 384.306L381.94 383.065L380.859 380.408L382.189 381.132L382.263 385.425L383.495 386.326L384.002 384.764L382.897 381.519L385.894 383.611L387.924 383.683L386.812 381.928L383.235 380.898L386.924 380.035L387.696 378.618L386.174 378.248L382.527 380.512L381.197 379.788L384.298 378.949L384.877 377.886L383.395 377.653L380.529 379.538L379.288 378.862L381.519 378.354L382.099 377.291L381.068 377.074L378.757 378.573L378.402 378.379L378.024 377.598L376.856 377.422Z" fill="white"/>
<path d="M373.052 376.096L373.72 376.548L374.116 375.963L373.447 375.511L372.754 374.554L371.943 374.493L371.608 374.267L371.709 371.777L371.099 370.877L370.421 371.88L371.107 373.928L369.937 373.136L370.239 369.808L369.322 368.822L368.53 369.992L369.352 372.74L368.098 371.892L368.434 367.613L367.294 366.597L366.64 368.104L367.429 371.44L364.646 369.071L362.633 368.805L363.572 370.659L367.033 372.025L363.28 372.532L362.375 373.869L363.855 374.383L367.702 372.478L368.956 373.326L365.79 373.864L365.111 374.867L366.564 375.241L369.598 373.638L370.768 374.429L368.499 374.722L367.82 375.725L368.826 376.04L371.269 374.768L371.604 374.995L371.906 375.808L373.052 376.096Z" fill="white"/>
<circle cx="374.935" cy="376.834" r="1.41275" fill="white"/>
</svg>
