<svg width="958" height="618" viewBox="0 0 958 618" fill="none" xmlns="http://www.w3.org/2000/svg">
<g filter="url(#filter0_d_976_6428)">
<rect x="14" y="10" width="930" height="590" fill="#004E4D"/>
</g>
<circle cx="48.5" cy="139.086" r="2.5" fill="white"/>
<circle cx="77" cy="230" r="3" fill="white"/>
<circle cx="558.5" cy="76.5" r="2.5" fill="white"/>
<circle cx="103.163" cy="566.892" r="1" fill="white"/>
<circle cx="748.5" cy="255.5" r="2.5" fill="white"/>
<circle cx="628" cy="372" r="2" fill="white"/>
<circle cx="694" cy="98" r="3" fill="white"/>
<circle cx="213.5" cy="545.5" r="3.5" fill="white"/>
<circle cx="827.5" cy="403.5" r="5.5" fill="white"/>
<circle cx="509.5" cy="32.5" r="5.5" fill="white"/>
<circle cx="834.5" cy="194.5" r="1.5" fill="white"/>
<path d="M750.014 55.9639V56.8103H750.744V55.9639L751.162 54.8001L750.744 54.0595V53.6363L752.934 52.2608L753.351 51.2028H752.1L750.744 53.0015V51.5202L753.768 49.8274L754.081 48.4519H752.621L750.744 50.7796V49.1926L754.603 46.9707L754.811 45.3837L753.143 45.7011L750.744 48.3461L751.162 44.5373L750.223 42.6328L749.18 44.5373L750.014 48.3461L747.408 45.3837H745.739L746.156 46.9707L750.014 49.1926V50.7796L747.72 48.3461H746.469L746.991 49.8274L750.119 51.5202V53.0015L748.555 51.2028H747.303L747.616 52.2608L750.119 53.6363V54.0595L749.597 54.8001L750.014 55.9639Z" fill="white"/>
<path d="M750.641 60.3017L750.641 59.4553L749.911 59.4553L749.911 60.3017L749.494 61.4655L749.911 62.2061L749.911 62.6294L747.721 64.0048L747.304 65.0628L748.555 65.0628L749.911 63.2642L749.911 64.7454L746.887 66.4382L746.574 67.8137L748.034 67.8137L749.911 65.486L749.911 67.0731L746.053 69.2949L745.844 70.8819L747.513 70.5645L749.911 67.9195L749.494 71.7284L750.432 73.6328L751.475 71.7284L750.641 67.9195L753.248 70.8819L754.916 70.8819L754.499 69.2949L750.641 67.0731L750.641 65.486L752.935 67.9195L754.186 67.9195L753.665 66.4382L750.537 64.7454L750.537 63.2642L752.101 65.0628L753.352 65.0628L753.039 64.0048L750.537 62.6294L750.537 62.2061L751.058 61.4655L750.641 60.3017Z" fill="white"/>
<path d="M751.733 56.8547L751.025 57.3022L751.41 57.9309L752.118 57.4833L753.313 57.2272L753.712 56.4764L754.066 56.2526L756.374 57.4113L757.48 57.2111L756.818 56.1335L754.597 55.917L755.836 55.1338L758.851 56.8431L760.167 56.3853L759.395 55.128L756.455 54.7422L757.783 53.9031L761.681 56.0512L763.119 55.3917L761.972 54.1226L758.491 53.4556L761.898 51.801L762.995 49.9858L760.85 50.0947L758.105 52.827L759.205 49.0155L758.323 47.5787L757.216 48.777L757.397 53.2745L756.069 54.1136L756.892 50.8513L756.231 49.7736L755.267 51.0058L755.505 54.595L754.266 55.3782L754.944 53.0801L754.282 52.0025L753.562 52.8313L753.735 55.7138L753.381 55.9376L752.486 55.8801L751.733 56.8547Z" fill="white"/>
<path d="M748.777 59.438L749.499 59.0148L749.134 58.3734L748.412 58.7966L747.21 59.012L746.786 59.7488L746.425 59.9604L744.156 58.724L743.045 58.8865L743.67 59.986L745.883 60.2778L744.619 61.0185L741.662 59.2077L740.332 59.6205L741.062 60.9033L743.987 61.3888L742.632 62.1823L738.807 59.903L737.348 60.5132L738.453 61.8206L741.91 62.6055L738.45 64.1434L737.294 65.9203L739.441 65.8843L742.275 63.2469L741.05 67.0188L741.884 68.4849L743.03 67.3248L742.997 62.8237L744.352 62.0302L743.422 65.2627L744.048 66.3622L745.051 65.1635L744.932 61.5682L746.196 60.8276L745.443 63.1013L746.069 64.2009L746.815 63.397L746.738 60.5102L747.099 60.2986L747.992 60.3864L748.777 59.438Z" fill="white"/>
<path d="M752.417 58.8025L751.684 58.3975L751.335 59.0478L752.067 59.4529L752.875 60.3814L753.715 60.3642L754.082 60.5667L754.224 63.1758L754.94 64.0537L755.539 62.9389L754.631 60.8705L755.913 61.5793L755.931 65.0835L756.971 66.0204L757.67 64.7197L756.554 61.9337L757.927 62.6931L758.004 67.1937L759.277 68.1389L759.801 66.5006L758.66 63.0981L761.756 65.2924L763.853 65.3676L762.704 63.5272L759.009 62.4478L762.82 61.5428L763.618 60.0564L762.045 59.6686L758.276 62.0428L756.903 61.2834L760.107 60.404L760.705 59.2891L759.174 59.0448L756.212 61.0219L754.93 60.3131L757.235 59.7802L757.834 58.6654L756.769 58.4378L754.381 60.0093L754.015 59.8068L753.623 58.9879L752.417 58.8025Z" fill="white"/>
<path d="M748.486 57.4127L749.177 57.8869L749.586 57.2734L748.895 56.7992L748.179 55.7966L747.34 55.7322L746.995 55.4951L747.099 52.8841L746.469 51.9408L745.768 52.9925L746.477 55.1395L745.267 54.3096L745.58 50.8197L744.632 49.7862L743.814 51.0131L744.663 53.8947L743.367 53.0055L743.715 48.5181L742.536 47.4537L741.861 49.0337L742.676 52.5313L739.801 50.0468L737.72 49.7686L738.691 51.7119L742.267 53.1448L738.388 53.676L737.454 55.0782L738.983 55.6168L742.958 53.619L744.254 54.5081L740.982 55.0728L740.281 56.1245L741.782 56.5162L744.917 54.8354L746.126 55.6653L743.782 55.9722L743.08 57.0238L744.119 57.3537L746.644 56.0209L746.99 56.2581L747.302 57.1112L748.486 57.4127Z" fill="white"/>
<ellipse cx="750.432" cy="58.1856" rx="1.45984" ry="1.48123" fill="white"/>
<path d="M64.0145 365.331V366.178H64.7444V365.331L65.1615 364.167L64.7444 363.427V363.003L66.9342 361.628L67.3513 360.57H66.1L64.7444 362.369V360.887L67.7684 359.195L68.0812 357.819H66.6213L64.7444 360.147V358.56L68.6026 356.338L68.8111 354.751L67.1427 355.068L64.7444 357.713L65.1615 353.904L64.223 352L63.1803 353.904L64.0145 357.713L61.4076 354.751H59.7393L60.1564 356.338L64.0145 358.56V360.147L61.7205 357.713H60.4692L60.9905 359.195L64.1188 360.887V362.369L62.5547 360.57H61.3034L61.6162 361.628L64.1188 363.003V363.427L63.5974 364.167L64.0145 365.331Z" fill="white"/>
<path d="M64.6408 369.669L64.6408 368.822L63.9109 368.822L63.9109 369.669L63.4938 370.833L63.9109 371.573L63.9109 371.997L61.7211 373.372L61.304 374.43L62.5553 374.43L63.9109 372.631L63.9109 374.113L60.8869 375.805L60.5741 377.181L62.0339 377.181L63.9109 374.853L63.9109 376.44L60.0527 378.662L59.8442 380.249L61.5126 379.932L63.9109 377.287L63.4938 381.096L64.4322 383L65.475 381.096L64.6408 377.287L67.2476 380.249L68.916 380.249L68.4989 378.662L64.6408 376.44L64.6408 374.853L66.9348 377.287L68.1861 377.287L67.6647 375.805L64.5365 374.113L64.5365 372.631L66.1006 374.43L67.3519 374.43L67.0391 373.372L64.5365 371.997L64.5365 371.573L65.0579 370.833L64.6408 369.669Z" fill="white"/>
<path d="M65.7326 366.222L65.0245 366.669L65.4104 367.298L66.1185 366.851L67.3126 366.594L67.7116 365.844L68.0656 365.62L70.374 366.779L71.4796 366.578L70.818 365.501L68.5967 365.284L69.8358 364.501L72.8507 366.21L74.1667 365.752L73.3949 364.495L70.4553 364.109L71.7829 363.27L75.6815 365.418L77.1194 364.759L75.9717 363.49L72.491 362.823L75.8978 361.168L76.9947 359.353L74.8503 359.462L72.1051 362.194L73.205 358.383L72.3228 356.946L71.2158 358.144L71.397 362.642L70.0694 363.481L70.8922 360.218L70.2306 359.141L69.2671 360.373L69.505 363.962L68.2659 364.745L68.9435 362.447L68.2819 361.37L67.5623 362.198L67.7348 365.081L67.3808 365.305L66.4856 365.247L65.7326 366.222Z" fill="white"/>
<path d="M62.7768 368.805L63.4993 368.382L63.1343 367.741L62.4119 368.164L61.21 368.379L60.7864 369.116L60.4252 369.328L58.1563 368.091L57.0448 368.254L57.6704 369.353L59.8833 369.645L58.6191 370.386L55.6623 368.575L54.3319 368.988L55.0618 370.27L57.987 370.756L56.6324 371.549L52.807 369.27L51.3481 369.88L52.4532 371.188L55.91 371.973L52.4505 373.511L51.2942 375.287L53.4411 375.252L56.2749 372.614L55.0498 376.386L55.884 377.852L57.03 376.692L56.9974 372.191L58.3519 371.397L57.4219 374.63L58.0476 375.729L59.0512 374.531L58.9319 370.935L60.1962 370.195L59.4431 372.469L60.0687 373.568L60.8153 372.764L60.738 369.877L61.0992 369.666L61.992 369.754L62.7768 368.805Z" fill="white"/>
<path d="M66.4166 368.17L65.6841 367.765L65.3348 368.415L66.0673 368.82L66.8749 369.749L67.7154 369.731L68.0817 369.934L68.2241 372.543L68.9401 373.421L69.5389 372.306L68.631 370.238L69.9129 370.946L69.9308 374.451L70.9714 375.388L71.67 374.087L70.5538 371.301L71.9272 372.06L72.0038 376.561L73.2774 377.506L73.8011 375.868L72.6597 372.465L75.7563 374.66L77.8534 374.735L76.7043 372.894L73.009 371.815L76.8201 370.91L77.6184 369.424L76.0454 369.036L72.2765 371.41L70.9031 370.651L74.1067 369.771L74.7055 368.656L73.1741 368.412L70.2122 370.389L68.9304 369.68L71.2354 369.147L71.8342 368.033L70.7689 367.805L68.381 369.376L68.0148 369.174L67.6234 368.355L66.4166 368.17Z" fill="white"/>
<path d="M62.4862 366.78L63.1771 367.254L63.5861 366.641L62.8951 366.166L62.1787 365.164L61.3404 365.099L60.9949 364.862L61.0989 362.251L60.4688 361.308L59.7678 362.36L60.4767 364.507L59.2674 363.677L59.5797 360.187L58.6321 359.153L57.8142 360.38L58.6628 363.262L57.3673 362.373L57.715 357.885L56.5362 356.821L55.8606 358.401L56.6763 361.899L53.8005 359.414L51.7201 359.136L52.6906 361.079L56.2673 362.512L52.3884 363.043L51.4537 364.445L52.983 364.984L56.9583 362.986L58.2539 363.875L54.9821 364.44L54.2811 365.492L55.7824 365.883L58.9169 364.203L60.1261 365.032L57.7815 365.339L57.0805 366.391L58.1195 366.721L60.6444 365.388L60.9899 365.625L61.3024 366.478L62.4862 366.78Z" fill="white"/>
<ellipse cx="64.4325" cy="367.553" rx="1.45984" ry="1.48123" fill="white"/>
<path d="M47.9168 494.469V494.687H48.1052V494.469L48.2128 494.168L48.1052 493.977V493.868L48.6703 493.513L48.778 493.24H48.455L48.1052 493.704V493.322L48.8856 492.885L48.9664 492.53H48.5896L48.1052 493.131V492.721L49.1009 492.148L49.1547 491.738L48.7242 491.82L48.1052 492.503L48.2128 491.52L47.9706 491.028L47.7015 491.52L47.9168 492.503L47.2441 491.738H46.8135L46.9211 492.148L47.9168 492.721V493.131L47.3248 492.503H47.0019L47.1364 492.885L47.9437 493.322V493.704L47.5401 493.24H47.2171L47.2979 493.513L47.9437 493.868V493.977L47.8092 494.168L47.9168 494.469Z" fill="white"/>
<path d="M48.0783 495.588L48.0783 495.369L47.8899 495.369L47.8899 495.588L47.7823 495.888L47.8899 496.079L47.8899 496.189L47.3248 496.543L47.2171 496.816L47.5401 496.816L47.8899 496.352L47.8899 496.735L47.1095 497.171L47.0288 497.526L47.4055 497.526L47.8899 496.926L47.8899 497.335L46.8942 497.909L46.8404 498.318L47.271 498.236L47.8899 497.554L47.7823 498.537L48.0245 499.028L48.2936 498.537L48.0783 497.554L48.7511 498.318L49.1816 498.318L49.074 497.909L48.0783 497.335L48.0783 496.926L48.6703 497.554L48.9933 497.554L48.8587 497.171L48.0514 496.735L48.0514 496.352L48.455 496.816L48.778 496.816L48.6972 496.543L48.0514 496.189L48.0514 496.079L48.1859 495.888L48.0783 495.588Z" fill="white"/>
<path d="M48.3596 494.699L48.1769 494.814L48.2765 494.976L48.4592 494.861L48.7674 494.795L48.8703 494.601L48.9617 494.543L49.5575 494.842L49.8428 494.791L49.672 494.512L49.0988 494.457L49.4186 494.254L50.1966 494.696L50.5363 494.577L50.3371 494.253L49.5784 494.153L49.9211 493.937L50.9272 494.491L51.2983 494.321L51.0021 493.994L50.1038 493.821L50.983 493.394L51.2661 492.926L50.7127 492.954L50.0042 493.659L50.2881 492.676L50.0604 492.305L49.7747 492.614L49.8215 493.775L49.4788 493.991L49.6912 493.149L49.5204 492.871L49.2718 493.189L49.3332 494.115L49.0134 494.318L49.1883 493.724L49.0175 493.446L48.8318 493.66L48.8763 494.404L48.785 494.462L48.5539 494.447L48.3596 494.699Z" fill="white"/>
<path d="M47.5977 495.365L47.7842 495.256L47.69 495.09L47.5035 495.2L47.1933 495.255L47.084 495.445L46.9908 495.5L46.4053 495.181L46.1184 495.223L46.2799 495.507L46.851 495.582L46.5247 495.773L45.7616 495.306L45.4183 495.412L45.6066 495.743L46.3616 495.869L46.012 496.073L45.0247 495.485L44.6482 495.643L44.9334 495.98L45.8255 496.183L44.9327 496.579L44.6343 497.038L45.1884 497.029L45.9197 496.348L45.6035 497.321L45.8188 497.7L46.1146 497.4L46.1062 496.239L46.4557 496.034L46.2157 496.868L46.3772 497.152L46.6362 496.843L46.6054 495.915L46.9317 495.724L46.7373 496.31L46.8988 496.594L47.0915 496.387L47.0715 495.642L47.1648 495.587L47.3952 495.61L47.5977 495.365Z" fill="white"/>
<path d="M48.5366 495.201L48.3476 495.097L48.2575 495.265L48.4465 495.369L48.6549 495.609L48.8718 495.604L48.9664 495.656L49.0031 496.33L49.1879 496.556L49.3424 496.269L49.1081 495.735L49.439 495.918L49.4436 496.822L49.7122 497.064L49.8924 496.728L49.6044 496.009L49.9588 496.205L49.9786 497.367L50.3073 497.611L50.4424 497.188L50.1479 496.31L50.947 496.876L51.4883 496.895L51.1917 496.42L50.238 496.142L51.2216 495.908L51.4276 495.525L51.0217 495.425L50.049 496.037L49.6945 495.841L50.5213 495.614L50.6758 495.327L50.2806 495.264L49.5162 495.774L49.1854 495.591L49.7803 495.454L49.9348 495.166L49.6599 495.107L49.0436 495.513L48.9491 495.46L48.8481 495.249L48.5366 495.201Z" fill="white"/>
<path d="M47.5215 494.842L47.6999 494.965L47.8054 494.806L47.6271 494.684L47.4422 494.425L47.2258 494.409L47.1367 494.348L47.1635 493.674L47.0009 493.43L46.82 493.702L47.0029 494.256L46.6909 494.042L46.7714 493.141L46.5269 492.874L46.3158 493.191L46.5348 493.935L46.2005 493.705L46.2902 492.547L45.986 492.272L45.8116 492.68L46.0221 493.583L45.28 492.942L44.743 492.87L44.9935 493.371L45.9166 493.741L44.9155 493.878L44.6743 494.24L45.069 494.379L46.0949 493.863L46.4293 494.093L45.5849 494.239L45.404 494.51L45.7914 494.611L46.6004 494.177L46.9125 494.392L46.3074 494.471L46.1264 494.742L46.3946 494.827L47.0462 494.483L47.1354 494.544L47.216 494.765L47.5215 494.842Z" fill="white"/>
<ellipse cx="48.0242" cy="495.042" rx="0.376754" ry="0.382248" fill="white"/>
<path d="M556.875 251.44V251.659H557.063V251.44L557.171 251.14L557.063 250.949V250.84L557.628 250.485L557.736 250.212H557.413L557.063 250.676V250.293L557.844 249.857L557.924 249.502H557.548L557.063 250.102V249.693L558.059 249.119L558.113 248.71L557.682 248.792L557.063 249.474L557.171 248.491L556.929 248L556.66 248.491L556.875 249.474L556.202 248.71H555.771L555.879 249.119L556.875 249.693V250.102L556.283 249.474H555.96L556.094 249.857L556.902 250.293V250.676L556.498 250.212H556.175L556.256 250.485L556.902 250.84V250.949L556.767 251.14L556.875 251.44Z" fill="white"/>
<path d="M557.036 252.56L557.036 252.341L556.848 252.341L556.848 252.56L556.74 252.86L556.848 253.051L556.848 253.16L556.283 253.515L556.175 253.788L556.498 253.788L556.848 253.324L556.848 253.706L556.068 254.143L555.987 254.498L556.364 254.498L556.848 253.897L556.848 254.307L555.852 254.88L555.798 255.29L556.229 255.208L556.848 254.525L556.74 255.508L556.982 256L557.252 255.508L557.036 254.525L557.709 255.29L558.14 255.29L558.032 254.88L557.036 254.307L557.036 253.897L557.628 254.525L557.951 254.525L557.817 254.143L557.009 253.706L557.009 253.324L557.413 253.788L557.736 253.788L557.655 253.515L557.009 253.16L557.009 253.051L557.144 252.86L557.036 252.56Z" fill="white"/>
<path d="M557.318 251.67L557.135 251.786L557.234 251.948L557.417 251.832L557.725 251.766L557.828 251.573L557.92 251.515L558.515 251.814L558.801 251.762L558.63 251.484L558.057 251.428L558.377 251.226L559.155 251.667L559.494 251.549L559.295 251.225L558.536 251.125L558.879 250.909L559.885 251.463L560.256 251.293L559.96 250.965L559.062 250.793L559.941 250.366L560.224 249.898L559.671 249.926L558.962 250.631L559.246 249.647L559.018 249.276L558.733 249.586L558.779 250.746L558.437 250.963L558.649 250.121L558.478 249.843L558.23 250.161L558.291 251.087L557.971 251.289L558.146 250.696L557.976 250.418L557.79 250.632L557.834 251.376L557.743 251.434L557.512 251.419L557.318 251.67Z" fill="white"/>
<path d="M556.556 252.337L556.742 252.228L556.648 252.062L556.462 252.171L556.151 252.227L556.042 252.417L555.949 252.472L555.363 252.153L555.076 252.194L555.238 252.478L555.809 252.554L555.483 252.745L554.72 252.277L554.376 252.384L554.565 252.715L555.32 252.84L554.97 253.045L553.983 252.457L553.606 252.614L553.891 252.952L554.784 253.154L553.891 253.551L553.592 254.01L554.146 254L554.878 253.32L554.562 254.293L554.777 254.671L555.073 254.372L555.064 253.21L555.414 253.006L555.174 253.84L555.335 254.124L555.594 253.814L555.563 252.887L555.89 252.695L555.695 253.282L555.857 253.566L556.05 253.358L556.03 252.613L556.123 252.559L556.353 252.582L556.556 252.337Z" fill="white"/>
<path d="M557.495 252.173L557.306 252.068L557.215 252.236L557.405 252.341L557.613 252.58L557.83 252.576L557.924 252.628L557.961 253.301L558.146 253.528L558.3 253.24L558.066 252.707L558.397 252.889L558.402 253.794L558.67 254.036L558.85 253.7L558.562 252.981L558.917 253.177L558.937 254.338L559.265 254.582L559.4 254.159L559.106 253.281L559.905 253.848L560.446 253.867L560.15 253.392L559.196 253.114L560.18 252.88L560.386 252.496L559.98 252.396L559.007 253.009L558.653 252.813L559.479 252.586L559.634 252.298L559.239 252.235L558.474 252.746L558.143 252.563L558.738 252.425L558.893 252.138L558.618 252.079L558.002 252.484L557.907 252.432L557.806 252.221L557.495 252.173Z" fill="white"/>
<path d="M556.48 251.814L556.658 251.936L556.763 251.778L556.585 251.656L556.4 251.397L556.184 251.38L556.095 251.319L556.122 250.645L555.959 250.402L555.778 250.673L555.961 251.227L555.649 251.013L555.729 250.113L555.485 249.846L555.274 250.163L555.493 250.906L555.158 250.677L555.248 249.519L554.944 249.244L554.77 249.652L554.98 250.554L554.238 249.913L553.701 249.841L553.952 250.343L554.875 250.713L553.874 250.85L553.632 251.212L554.027 251.351L555.053 250.835L555.387 251.065L554.543 251.21L554.362 251.482L554.749 251.583L555.558 251.149L555.87 251.363L555.265 251.442L555.084 251.714L555.353 251.799L556.004 251.455L556.093 251.516L556.174 251.736L556.48 251.814Z" fill="white"/>
<ellipse cx="556.982" cy="252.014" rx="0.376754" ry="0.382248" fill="white"/>
<path d="M363.75 560.881V561.317H364.126V560.881L364.342 560.28L364.126 559.898V559.679L365.256 558.969L365.472 558.423H364.826L364.126 559.352V558.587L365.687 557.713L365.848 557.003H365.095L364.126 558.205V557.386L366.118 556.239L366.225 555.42L365.364 555.584L364.126 556.949L364.342 554.983L363.857 554L363.319 554.983L363.75 556.949L362.404 555.42H361.543L361.758 556.239L363.75 557.386V558.205L362.566 556.949H361.92L362.189 557.713L363.803 558.587V559.352L362.996 558.423H362.35L362.512 558.969L363.803 559.679V559.898L363.534 560.28L363.75 560.881Z" fill="white"/>
<path d="M364.074 563.12L364.074 562.683L363.697 562.683L363.697 563.12L363.482 563.72L363.697 564.102L363.697 564.321L362.567 565.031L362.351 565.577L362.997 565.577L363.697 564.649L363.697 565.413L362.136 566.287L361.975 566.997L362.728 566.997L363.697 565.795L363.697 566.614L361.706 567.761L361.598 568.58L362.459 568.417L363.697 567.051L363.482 569.017L363.966 570L364.504 569.017L364.074 567.051L365.419 568.58L366.28 568.58L366.065 567.761L364.074 566.614L364.074 565.795L365.258 567.051L365.904 567.051L365.634 566.287L364.02 565.413L364.02 564.649L364.827 565.577L365.473 565.577L365.312 565.031L364.02 564.321L364.02 564.102L364.289 563.72L364.074 563.12Z" fill="white"/>
<path d="M364.636 561.34L364.271 561.571L364.47 561.896L364.836 561.665L365.452 561.533L365.658 561.145L365.841 561.03L367.032 561.628L367.603 561.524L367.261 560.968L366.115 560.856L366.754 560.452L368.31 561.334L368.99 561.098L368.591 560.449L367.074 560.25L367.759 559.817L369.771 560.926L370.514 560.585L369.921 559.93L368.125 559.586L369.883 558.732L370.449 557.795L369.342 557.851L367.925 559.262L368.493 557.294L368.038 556.553L367.466 557.171L367.56 559.493L366.875 559.926L367.299 558.242L366.958 557.686L366.461 558.322L366.584 560.174L365.944 560.578L366.294 559.392L365.952 558.836L365.581 559.264L365.67 560.752L365.487 560.867L365.025 560.837L364.636 561.34Z" fill="white"/>
<path d="M363.11 562.674L363.483 562.455L363.295 562.124L362.922 562.343L362.302 562.454L362.083 562.834L361.896 562.943L360.725 562.305L360.152 562.389L360.475 562.956L361.617 563.107L360.964 563.489L359.438 562.555L358.752 562.768L359.128 563.43L360.638 563.68L359.939 564.09L357.964 562.914L357.212 563.229L357.782 563.903L359.566 564.308L357.78 565.102L357.184 566.019L358.292 566.001L359.754 564.639L359.122 566.586L359.553 567.343L360.144 566.744L360.127 564.421L360.826 564.012L360.346 565.68L360.669 566.247L361.187 565.629L361.126 563.773L361.778 563.391L361.39 564.564L361.712 565.132L362.098 564.717L362.058 563.227L362.244 563.118L362.705 563.163L363.11 562.674Z" fill="white"/>
<path d="M364.99 562.346L364.612 562.137L364.431 562.472L364.809 562.681L365.226 563.161L365.66 563.152L365.849 563.256L365.923 564.603L366.292 565.056L366.601 564.481L366.133 563.413L366.794 563.779L366.804 565.587L367.341 566.071L367.701 565.4L367.125 563.962L367.834 564.354L367.873 566.677L368.531 567.164L368.801 566.319L368.212 564.563L369.81 565.695L370.893 565.734L370.3 564.784L368.392 564.227L370.359 563.76L370.771 562.993L369.959 562.793L368.014 564.018L367.305 563.626L368.959 563.172L369.268 562.597L368.477 562.471L366.949 563.491L366.287 563.125L367.477 562.85L367.786 562.275L367.236 562.157L366.004 562.969L365.815 562.864L365.613 562.441L364.99 562.346Z" fill="white"/>
<path d="M362.961 561.628L363.317 561.873L363.528 561.557L363.172 561.312L362.802 560.794L362.369 560.761L362.191 560.639L362.245 559.291L361.919 558.804L361.558 559.347L361.924 560.455L361.299 560.027L361.461 558.226L360.971 557.692L360.549 558.325L360.987 559.813L360.319 559.354L360.498 557.038L359.89 556.488L359.541 557.304L359.962 559.109L358.478 557.827L357.404 557.683L357.905 558.686L359.751 559.426L357.749 559.7L357.266 560.424L358.056 560.702L360.108 559.67L360.776 560.129L359.088 560.421L358.726 560.964L359.501 561.166L361.118 560.298L361.743 560.727L360.532 560.885L360.171 561.428L360.707 561.598L362.01 560.91L362.188 561.033L362.35 561.473L362.961 561.628Z" fill="white"/>
<ellipse cx="363.965" cy="562.027" rx="0.753465" ry="0.764507" fill="white"/>
<path d="M916.75 322.881V323.317H917.126V322.881L917.342 322.28L917.126 321.898V321.679L918.256 320.969L918.472 320.423H917.826L917.126 321.352V320.587L918.687 319.713L918.848 319.003H918.095L917.126 320.205V319.386L919.118 318.239L919.225 317.42L918.364 317.584L917.126 318.949L917.342 316.983L916.857 316L916.319 316.983L916.75 318.949L915.404 317.42H914.543L914.758 318.239L916.75 319.386V320.205L915.566 318.949H914.92L915.189 319.713L916.803 320.587V321.352L915.996 320.423H915.35L915.512 320.969L916.803 321.679V321.898L916.534 322.28L916.75 322.881Z" fill="white"/>
<path d="M917.074 325.12L917.074 324.683L916.697 324.683L916.697 325.12L916.482 325.72L916.697 326.102L916.697 326.321L915.567 327.031L915.351 327.577L915.997 327.577L916.697 326.649L916.697 327.413L915.136 328.287L914.975 328.997L915.728 328.997L916.697 327.795L916.697 328.614L914.706 329.761L914.598 330.58L915.459 330.417L916.697 329.051L916.482 331.017L916.966 332L917.504 331.017L917.074 329.051L918.419 330.58L919.28 330.58L919.065 329.761L917.074 328.614L917.074 327.795L918.258 329.051L918.904 329.051L918.634 328.287L917.02 327.413L917.02 326.649L917.827 327.577L918.473 327.577L918.312 327.031L917.02 326.321L917.02 326.102L917.289 325.72L917.074 325.12Z" fill="white"/>
<path d="M917.636 323.34L917.271 323.571L917.47 323.896L917.836 323.665L918.452 323.533L918.658 323.145L918.841 323.03L920.032 323.628L920.603 323.524L920.261 322.968L919.115 322.856L919.754 322.452L921.31 323.334L921.99 323.098L921.591 322.449L920.074 322.25L920.759 321.817L922.771 322.926L923.514 322.585L922.921 321.93L921.125 321.586L922.883 320.732L923.449 319.795L922.342 319.851L920.925 321.262L921.493 319.294L921.038 318.553L920.466 319.171L920.56 321.493L919.875 321.926L920.299 320.242L919.958 319.686L919.461 320.322L919.584 322.174L918.944 322.578L919.294 321.392L918.952 320.836L918.581 321.264L918.67 322.752L918.487 322.867L918.025 322.837L917.636 323.34Z" fill="white"/>
<path d="M916.11 324.674L916.483 324.455L916.295 324.124L915.922 324.343L915.302 324.454L915.083 324.834L914.896 324.943L913.725 324.305L913.152 324.389L913.475 324.956L914.617 325.107L913.964 325.489L912.438 324.555L911.752 324.768L912.128 325.43L913.638 325.68L912.939 326.09L910.964 324.914L910.212 325.229L910.782 325.903L912.566 326.308L910.78 327.102L910.184 328.019L911.292 328.001L912.754 326.639L912.122 328.586L912.553 329.343L913.144 328.744L913.127 326.421L913.826 326.012L913.346 327.68L913.669 328.247L914.187 327.629L914.126 325.773L914.778 325.391L914.39 326.564L914.712 327.132L915.098 326.717L915.058 325.227L915.244 325.118L915.705 325.163L916.11 324.674Z" fill="white"/>
<path d="M917.99 324.346L917.612 324.137L917.431 324.472L917.809 324.681L918.226 325.161L918.66 325.152L918.849 325.256L918.923 326.603L919.292 327.056L919.601 326.481L919.133 325.413L919.794 325.779L919.804 327.587L920.341 328.071L920.701 327.4L920.125 325.962L920.834 326.354L920.873 328.677L921.531 329.164L921.801 328.319L921.212 326.563L922.81 327.695L923.893 327.734L923.3 326.784L921.392 326.227L923.359 325.76L923.771 324.993L922.959 324.793L921.014 326.018L920.305 325.626L921.959 325.172L922.268 324.597L921.477 324.471L919.949 325.491L919.287 325.125L920.477 324.85L920.786 324.275L920.236 324.157L919.004 324.969L918.815 324.864L918.613 324.441L917.99 324.346Z" fill="white"/>
<path d="M915.961 323.628L916.317 323.873L916.528 323.557L916.172 323.312L915.802 322.794L915.369 322.761L915.191 322.639L915.245 321.291L914.919 320.804L914.558 321.347L914.924 322.455L914.299 322.027L914.461 320.226L913.971 319.692L913.549 320.325L913.987 321.813L913.319 321.354L913.498 319.038L912.89 318.488L912.541 319.304L912.962 321.109L911.478 319.827L910.404 319.683L910.905 320.686L912.751 321.426L910.749 321.7L910.266 322.424L911.056 322.702L913.108 321.67L913.776 322.129L912.088 322.421L911.726 322.964L912.501 323.166L914.118 322.298L914.743 322.727L913.532 322.885L913.171 323.428L913.707 323.598L915.01 322.91L915.188 323.033L915.35 323.473L915.961 323.628Z" fill="white"/>
<ellipse cx="916.965" cy="324.027" rx="0.753465" ry="0.764507" fill="white"/>
<path d="M217.374 26.5419V26.9573H217.732V26.5419L217.937 25.9708L217.732 25.6074V25.3997L218.808 24.7247L219.013 24.2055H218.398L217.732 25.0882V24.3613L219.218 23.5306L219.371 22.8556H218.654L217.732 23.9979V23.2191L219.627 22.1287L219.73 21.3499L218.91 21.5057L217.732 22.8037L217.937 20.9346L217.476 20L216.964 20.9346L217.374 22.8037L216.093 21.3499H215.273L215.478 22.1287L217.374 23.2191V23.9979L216.247 22.8037H215.632L215.888 23.5306L217.425 24.3613V25.0882L216.656 24.2055H216.042L216.195 24.7247L217.425 25.3997V25.6074L217.169 25.9708L217.374 26.5419Z" fill="white"/>
<path d="M217.681 28.6707L217.681 28.2553L217.323 28.2553L217.323 28.6707L217.118 29.2418L217.323 29.6053L217.323 29.813L216.247 30.4879L216.042 31.0071L216.657 31.0071L217.323 30.1245L217.323 30.8514L215.837 31.6821L215.683 32.357L216.401 32.357L217.323 31.2148L217.323 31.9936L215.427 33.0839L215.325 33.8627L216.144 33.707L217.323 32.409L217.118 34.2781L217.579 35.2127L218.091 34.2781L217.681 32.409L218.962 33.8627L219.781 33.8627L219.576 33.0839L217.681 31.9936L217.681 31.2148L218.808 32.409L219.423 32.409L219.167 31.6821L217.63 30.8514L217.63 30.1245L218.398 31.0071L219.013 31.0071L218.859 30.4879L217.63 29.813L217.63 29.6053L217.886 29.2418L217.681 28.6707Z" fill="white"/>
<path d="M218.218 26.979L217.87 27.1986L218.06 27.5071L218.408 27.2875L218.994 27.1618L219.19 26.7934L219.364 26.6836L220.498 27.2522L221.041 27.1539L220.716 26.6251L219.625 26.5189L220.234 26.1346L221.715 26.9733L222.361 26.7487L221.982 26.1317L220.538 25.9424L221.19 25.5306L223.105 26.5847L223.812 26.2611L223.248 25.6383L221.538 25.311L223.212 24.499L223.75 23.6083L222.697 23.6617L221.349 25.0025L221.889 23.1321L221.456 22.427L220.912 23.0151L221.001 25.2221L220.349 25.6339L220.753 24.033L220.428 23.5042L219.954 24.1088L220.071 25.8701L219.463 26.2545L219.796 25.1267L219.471 24.5979L219.117 25.0046L219.202 26.4192L219.028 26.529L218.588 26.5008L218.218 26.979Z" fill="white"/>
<path d="M216.768 28.2469L217.123 28.0392L216.943 27.7244L216.589 27.9321L215.998 28.0378L215.79 28.3994L215.613 28.5032L214.498 27.8965L213.952 27.9762L214.259 28.5158L215.346 28.659L214.725 29.0224L213.273 28.1338L212.619 28.3364L212.978 28.9659L214.415 29.2042L213.749 29.5936L211.87 28.475L211.154 28.7745L211.697 29.4161L213.395 29.8012L211.695 30.556L211.127 31.4279L212.182 31.4103L213.574 30.116L212.972 31.967L213.382 32.6864L213.945 32.1172L213.929 29.9083L214.594 29.5189L214.137 31.1052L214.445 31.6448L214.938 31.0565L214.879 29.2922L215.5 28.9288L215.13 30.0446L215.437 30.5841L215.804 30.1896L215.766 28.773L215.944 28.6692L216.382 28.7123L216.768 28.2469Z" fill="white"/>
<path d="M218.555 27.9352L218.195 27.7364L218.023 28.0556L218.383 28.2543L218.78 28.71L219.193 28.7015L219.372 28.8009L219.442 30.0813L219.794 30.5121L220.088 29.965L219.642 28.95L220.272 29.2978L220.281 31.0174L220.792 31.4772L221.135 30.8389L220.587 29.4717L221.261 29.8444L221.299 32.053L221.925 32.5168L222.182 31.7128L221.621 30.0431L223.142 31.1199L224.173 31.1568L223.608 30.2537L221.793 29.724L223.665 29.2799L224.057 28.5505L223.284 28.3602L221.433 29.5253L220.758 29.1526L222.332 28.721L222.626 28.174L221.874 28.0541L220.419 29.0243L219.789 28.6764L220.922 28.4149L221.216 27.8679L220.692 27.7562L219.519 28.5274L219.34 28.428L219.147 28.0261L218.555 27.9352Z" fill="white"/>
<path d="M216.623 27.2529L216.963 27.4856L217.163 27.1845L216.824 26.9518L216.472 26.4598L216.06 26.4282L215.891 26.3119L215.942 25.0306L215.632 24.5677L215.288 25.0838L215.636 26.1374L215.042 25.7301L215.195 24.0175L214.73 23.5103L214.328 24.1124L214.745 25.5265L214.109 25.0902L214.279 22.8881L213.7 22.3657L213.369 23.1411L213.769 24.8575L212.357 23.6383L211.335 23.5017L211.811 24.4554L213.568 25.1585L211.663 25.4192L211.204 26.1073L211.955 26.3716L213.908 25.3912L214.544 25.8276L212.937 26.1047L212.593 26.6207L213.33 26.813L214.87 25.9882L215.464 26.3954L214.312 26.546L213.968 27.0621L214.478 27.2239L215.718 26.5699L215.888 26.6863L216.042 27.1049L216.623 27.2529Z" fill="white"/>
<ellipse cx="217.579" cy="27.6322" rx="0.717111" ry="0.726884" fill="white"/>
<defs>
<filter id="filter0_d_976_6428" x="0" y="0" width="958" height="618" filterUnits="userSpaceOnUse" color-interpolation-filters="sRGB">
<feFlood flood-opacity="0" result="BackgroundImageFix"/>
<feColorMatrix in="SourceAlpha" type="matrix" values="0 0 0 0 0 0 0 0 0 0 0 0 0 0 0 0 0 0 127 0" result="hardAlpha"/>
<feOffset dy="4"/>
<feGaussianBlur stdDeviation="7"/>
<feComposite in2="hardAlpha" operator="out"/>
<feColorMatrix type="matrix" values="0 0 0 0 0 0 0 0 0 0 0 0 0 0 0 0 0 0 0.3 0"/>
<feBlend mode="normal" in2="BackgroundImageFix" result="effect1_dropShadow_976_6428"/>
<feBlend mode="normal" in="SourceGraphic" in2="effect1_dropShadow_976_6428" result="shape"/>
</filter>
</defs>
</svg>
