<svg width="840" height="560" viewBox="0 0 840 560" fill="none" xmlns="http://www.w3.org/2000/svg">
<rect width="840" height="560" fill="#004E4D"/>
<mask id="mask0_1099_5765" style="mask-type:alpha" maskUnits="userSpaceOnUse" x="0" y="0" width="840" height="560">
<rect width="840" height="560" fill="#004E4D"/>
</mask>
<g mask="url(#mask0_1099_5765)">
<path d="M45.948 120.592V121.775H46.9838V120.592L47.5757 118.964L46.9838 117.928V117.336L50.0913 115.412L50.6833 113.933H48.9075L46.9838 116.448V114.376L51.2752 112.009L51.7191 110.085H49.6474L46.9838 113.341V111.121L52.459 108.013L52.7549 105.794L50.3873 106.238L46.9838 109.937L47.5757 104.61L46.2439 101.946L44.7641 104.61L45.948 109.937L42.2485 105.794H39.8809L40.4728 108.013L45.948 111.121V113.341L42.6924 109.937H40.9167L41.6566 112.009L46.0959 114.376V116.448L43.8763 113.933H42.1005L42.5445 115.412L46.0959 117.336V117.928L45.356 118.964L45.948 120.592Z" fill="white"/>
<path d="M46.8352 126.658L46.8352 125.475L45.7994 125.475L45.7994 126.658L45.2075 128.286L45.7994 129.322L45.7994 129.914L42.6919 131.838L42.0999 133.317L43.8757 133.317L45.7994 130.802L45.7994 132.874L41.508 135.241L41.0641 137.165L43.1358 137.165L45.7994 133.909L45.7994 136.129L40.3242 139.237L40.0283 141.456L42.3959 141.012L45.7994 137.313L45.2075 142.64L46.5393 145.304L48.0191 142.64L46.8352 137.313L50.5347 141.456L52.9023 141.456L52.3104 139.237L46.8352 136.129L46.8352 133.909L50.0908 137.313L51.8665 137.313L51.1266 135.241L46.6873 132.874L46.6873 130.802L48.9069 133.317L50.6827 133.317L50.2387 131.838L46.6873 129.914L46.6873 129.322L47.4272 128.286L46.8352 126.658Z" fill="white"/>
<path d="M48.3848 121.838L47.38 122.464L47.9277 123.343L48.9325 122.717L50.6271 122.359L51.1934 121.309L51.6958 120.996L54.9716 122.616L56.5406 122.336L55.6017 120.829L52.4494 120.527L54.2078 119.431L58.4864 121.822L60.354 121.181L59.2586 119.423L55.087 118.883L56.9711 117.71L62.5036 120.714L64.5441 119.792L62.9155 118.017L57.9759 117.084L62.8106 114.77L64.3672 112.231L61.324 112.383L57.4282 116.205L58.9891 110.874L57.7373 108.864L56.1662 110.54L56.4234 116.831L54.5394 118.004L55.7069 113.441L54.7681 111.934L53.4008 113.658L53.7384 118.678L51.9799 119.773L52.9416 116.559L52.0027 115.052L50.9814 116.211L51.2263 120.242L50.7239 120.555L49.4535 120.475L48.3848 121.838Z" fill="white"/>
<path d="M44.1899 125.451L45.2151 124.859L44.6972 123.962L43.6719 124.554L41.9663 124.855L41.3652 125.886L40.8526 126.182L37.6328 124.452L36.0553 124.68L36.9432 126.217L40.0837 126.626L38.2895 127.661L34.0934 125.129L32.2055 125.706L33.2413 127.5L37.3925 128.179L35.4702 129.289L30.0414 126.101L27.9711 126.955L29.5394 128.783L34.4449 129.881L29.5355 132.032L27.8946 134.517L30.9413 134.467L34.9629 130.778L33.2243 136.054L34.4081 138.104L36.0345 136.482L35.9881 130.186L37.9104 129.076L36.5906 133.598L37.4785 135.135L38.9027 133.459L38.7335 128.43L40.5276 127.394L39.4588 130.575L40.3467 132.112L41.4063 130.988L41.2965 126.951L41.8091 126.655L43.0761 126.777L44.1899 125.451Z" fill="white"/>
<path d="M49.3567 124.562L48.3172 123.995L47.8215 124.905L48.861 125.471L50.007 126.77L51.1998 126.746L51.7196 127.029L51.9217 130.678L52.9379 131.906L53.7876 130.347L52.4992 127.454L54.3183 128.445L54.3438 133.346L55.8205 134.657L56.8119 132.837L55.2279 128.941L57.1769 130.003L57.2856 136.298L59.093 137.62L59.8361 135.328L58.2164 130.569L62.6108 133.638L65.587 133.743L63.9562 131.17L58.7121 129.66L64.1205 128.394L65.2535 126.315L63.0212 125.773L57.6726 129.093L55.7235 128.031L60.2699 126.801L61.1196 125.242L58.9465 124.9L54.7432 127.665L52.9241 126.674L56.1951 125.929L57.0449 124.37L55.5331 124.051L52.1444 126.249L51.6247 125.966L51.0692 124.821L49.3567 124.562Z" fill="white"/>
<path d="M43.7779 122.618L44.7585 123.281L45.3389 122.423L44.3583 121.76L43.3416 120.358L42.1519 120.268L41.6616 119.936L41.8092 116.284L40.9151 114.965L39.9202 116.436L40.9262 119.438L39.2102 118.278L39.6533 113.397L38.3085 111.951L37.1478 113.667L38.3522 117.697L36.5136 116.454L37.007 110.178L35.3342 108.689L34.3755 110.899L35.533 115.791L31.452 112.316L28.4995 111.927L29.8768 114.645L34.9526 116.649L29.448 117.392L28.1215 119.353L30.2917 120.106L35.9332 117.312L37.7718 118.555L33.1287 119.345L32.1339 120.816L34.2644 121.364L38.7127 119.013L40.4288 120.174L37.1015 120.603L36.1066 122.074L37.581 122.535L41.1642 120.671L41.6545 121.003L42.098 122.196L43.7779 122.618Z" fill="white"/>
<circle cx="46.5395" cy="123.699" r="2.07169" fill="white"/>
<path d="M534.215 294.934V296.118H535.25V294.934L535.842 293.307L535.25 292.271V291.679L538.358 289.755L538.95 288.275H537.174L535.25 290.791V288.719L539.542 286.352L539.986 284.428H537.914L535.25 287.683V285.464L540.726 282.356L541.022 280.136L538.654 280.58L535.25 284.28L535.842 278.953L534.511 276.289L533.031 278.953L534.215 284.28L530.515 280.136H528.147L528.739 282.356L534.215 285.464V287.683L530.959 284.28H529.183L529.923 286.352L534.363 288.719V290.791L532.143 288.275H530.367L530.811 289.755L534.363 291.679V292.271L533.623 293.307L534.215 294.934Z" fill="white"/>
<path d="M535.102 301.001L535.102 299.817L534.066 299.817L534.066 301.001L533.474 302.629L534.066 303.665L534.066 304.257L530.958 306.18L530.367 307.66L532.142 307.66L534.066 305.145L534.066 307.216L529.775 309.584L529.331 311.508L531.402 311.508L534.066 308.252L534.066 310.472L528.591 313.579L528.295 315.799L530.663 315.355L534.066 311.656L533.474 316.983L534.806 319.646L536.286 316.983L535.102 311.656L538.801 315.799L541.169 315.799L540.577 313.579L535.102 310.472L535.102 308.252L538.357 311.656L540.133 311.656L539.393 309.584L534.954 307.216L534.954 305.145L537.174 307.66L538.949 307.66L538.505 306.18L534.954 304.257L534.954 303.665L535.694 302.629L535.102 301.001Z" fill="white"/>
<path d="M536.651 296.181L535.647 296.807L536.194 297.686L537.199 297.06L538.894 296.702L539.46 295.652L539.962 295.339L543.238 296.959L544.807 296.679L543.868 295.172L540.716 294.869L542.474 293.774L546.753 296.165L548.621 295.524L547.525 293.766L543.354 293.226L545.238 292.053L550.77 295.057L552.811 294.135L551.182 292.36L546.242 291.427L551.077 289.113L552.634 286.574L549.591 286.726L545.695 290.548L547.256 285.217L546.004 283.207L544.433 284.883L544.69 291.173L542.806 292.347L543.974 287.784L543.035 286.277L541.667 288L542.005 293.02L540.247 294.116L541.208 290.902L540.269 289.394L539.248 290.554L539.493 294.585L538.991 294.898L537.72 294.818L536.651 296.181Z" fill="white"/>
<path d="M532.456 299.794L533.482 299.202L532.964 298.305L531.939 298.897L530.233 299.198L529.632 300.229L529.119 300.525L525.899 298.796L524.322 299.023L525.21 300.561L528.35 300.969L526.556 302.005L522.36 299.472L520.472 300.049L521.508 301.844L525.659 302.523L523.737 303.632L518.308 300.445L516.238 301.298L517.806 303.127L522.712 304.224L517.802 306.375L516.161 308.861L519.208 308.81L523.229 305.121L521.491 310.397L522.675 312.447L524.301 310.825L524.255 304.53L526.177 303.42L524.857 307.941L525.745 309.479L527.169 307.802L527 302.774L528.794 301.738L527.725 304.918L528.613 306.456L529.673 305.331L529.563 301.294L530.076 300.998L531.343 301.121L532.456 299.794Z" fill="white"/>
<path d="M537.623 298.904L536.584 298.338L536.088 299.247L537.128 299.814L538.274 301.112L539.466 301.088L539.986 301.372L540.188 305.021L541.204 306.249L542.054 304.689L540.766 301.797L542.585 302.788L542.61 307.689L544.087 308.999L545.078 307.18L543.494 303.284L545.443 304.346L545.552 310.64L547.36 311.962L548.103 309.671L546.483 304.912L550.877 307.981L553.854 308.086L552.223 305.512L546.979 304.003L552.387 302.737L553.52 300.658L551.288 300.116L545.939 303.436L543.99 302.374L548.536 301.144L549.386 299.585L547.213 299.243L543.01 302.008L541.191 301.017L544.462 300.272L545.311 298.712L543.8 298.394L540.411 300.592L539.891 300.309L539.336 299.163L537.623 298.904Z" fill="white"/>
<path d="M532.045 296.961L533.025 297.624L533.605 296.766L532.625 296.103L531.608 294.7L530.419 294.61L529.928 294.279L530.076 290.627L529.182 289.307L528.187 290.778L529.193 293.781L527.477 292.621L527.92 287.739L526.575 286.294L525.414 288.01L526.619 292.04L524.78 290.797L525.274 284.52L523.601 283.032L522.642 285.242L523.8 290.133L519.719 286.659L516.766 286.269L518.143 288.987L523.219 290.991L517.715 291.734L516.388 293.696L518.558 294.449L524.2 291.655L526.038 292.898L521.395 293.688L520.4 295.159L522.531 295.707L526.979 293.356L528.695 294.517L525.368 294.946L524.373 296.417L525.848 296.878L529.431 295.014L529.921 295.346L530.365 296.539L532.045 296.961Z" fill="white"/>
<circle cx="534.806" cy="298.041" r="2.07169" fill="white"/>
<path d="M273.309 249.645V250.829H274.345V249.645L274.937 248.017L274.345 246.982V246.39L277.453 244.466L278.045 242.986H276.269L274.345 245.502V243.43L278.636 241.063L279.08 239.139H277.009L274.345 242.394V240.175L279.82 237.067L280.116 234.847L277.749 235.291L274.345 238.991L274.937 233.664L273.605 231L272.125 233.664L273.309 238.991L269.61 234.847H267.242L267.834 237.067L273.309 240.175V242.394L270.054 238.991H268.278L269.018 241.063L273.457 243.43V245.502L271.238 242.986H269.462L269.906 244.466L273.457 246.39V246.982L272.717 248.017L273.309 249.645Z" fill="white"/>
<path d="M274.197 255.712L274.197 254.528L273.161 254.528L273.161 255.712L272.569 257.34L273.161 258.376L273.161 258.968L270.053 260.891L269.461 262.371L271.237 262.371L273.161 259.856L273.161 261.927L268.869 264.295L268.425 266.219L270.497 266.219L273.161 262.963L273.161 265.183L267.686 268.29L267.39 270.51L269.757 270.066L273.161 266.367L272.569 271.694L273.901 274.357L275.38 271.694L274.197 266.367L277.896 270.51L280.264 270.51L279.672 268.29L274.197 265.183L274.197 262.963L277.452 266.367L279.228 266.367L278.488 264.295L274.049 261.927L274.049 259.856L276.268 262.371L278.044 262.371L277.6 260.891L274.049 258.968L274.049 258.376L274.788 257.34L274.197 255.712Z" fill="white"/>
<path d="M275.746 250.892L274.741 251.518L275.289 252.397L276.294 251.771L277.988 251.413L278.555 250.363L279.057 250.05L282.333 251.67L283.902 251.39L282.963 249.883L279.811 249.58L281.569 248.485L285.848 250.876L287.715 250.235L286.62 248.477L282.448 247.937L284.332 246.764L289.865 249.768L291.905 248.845L290.277 247.071L285.337 246.138L290.172 243.823L291.729 241.285L288.685 241.437L284.79 245.258L286.35 239.928L285.099 237.918L283.528 239.594L283.785 245.884L281.901 247.058L283.068 242.495L282.129 240.988L280.762 242.711L281.1 247.731L279.341 248.827L280.303 245.612L279.364 244.105L278.343 245.264L278.588 249.296L278.085 249.609L276.815 249.529L275.746 250.892Z" fill="white"/>
<path d="M271.551 254.505L272.576 253.913L272.058 253.016L271.033 253.608L269.328 253.909L268.727 254.94L268.214 255.236L264.994 253.506L263.417 253.734L264.305 255.272L267.445 255.68L265.651 256.716L261.455 254.183L259.567 254.76L260.603 256.555L264.754 257.234L262.831 258.343L257.403 255.155L255.332 256.009L256.901 257.838L261.806 258.935L256.897 261.086L255.256 263.571L258.303 263.521L262.324 259.832L260.586 265.108L261.769 267.158L263.396 265.536L263.349 259.24L265.272 258.131L263.952 262.652L264.84 264.19L266.264 262.513L266.095 257.485L267.889 256.449L266.82 259.629L267.708 261.167L268.768 260.042L268.658 256.005L269.17 255.709L270.437 255.832L271.551 254.505Z" fill="white"/>
<path d="M276.718 253.615L275.679 253.049L275.183 253.958L276.222 254.525L277.368 255.823L278.561 255.799L279.081 256.083L279.283 259.732L280.299 260.96L281.149 259.4L279.861 256.507L281.68 257.499L281.705 262.4L283.182 263.71L284.173 261.891L282.589 257.994L284.538 259.057L284.647 265.351L286.454 266.673L287.197 264.382L285.578 259.623L289.972 262.692L292.948 262.797L291.318 260.223L286.073 258.714L291.482 257.448L292.615 255.369L290.383 254.826L285.034 258.147L283.085 257.085L287.631 255.855L288.481 254.296L286.308 253.954L282.104 256.719L280.285 255.728L283.556 254.983L284.406 253.423L282.894 253.105L279.506 255.303L278.986 255.02L278.431 253.874L276.718 253.615Z" fill="white"/>
<path d="M271.139 251.672L272.12 252.335L272.7 251.477L271.72 250.814L270.703 249.411L269.513 249.321L269.023 248.99L269.171 245.338L268.276 244.018L267.282 245.489L268.288 248.492L266.572 247.331L267.015 242.45L265.67 241.005L264.509 242.721L265.713 246.751L263.875 245.508L264.368 239.231L262.696 237.743L261.737 239.953L262.894 244.844L258.813 241.369L255.861 240.98L257.238 243.698L262.314 245.702L256.809 246.445L255.483 248.407L257.653 249.16L263.295 246.366L265.133 247.609L260.49 248.399L259.495 249.87L261.626 250.418L266.074 248.067L267.79 249.228L264.463 249.657L263.468 251.128L264.942 251.589L268.526 249.725L269.016 250.057L269.459 251.25L271.139 251.672Z" fill="white"/>
<circle cx="273.901" cy="252.752" r="2.07169" fill="white"/>
<path d="M360.309 70.6452V71.8291H361.345V70.6452L361.937 69.0175L361.345 67.9816V67.3897L364.453 65.466L365.045 63.9862H363.269L361.345 66.5018V64.4302L365.636 62.0625L366.08 60.1388H364.009L361.345 63.3943V61.1746L366.82 58.0671L367.116 55.8474L364.749 56.2914L361.345 59.9908L361.937 54.6636L360.605 52L359.125 54.6636L360.309 59.9908L356.61 55.8474H354.242L354.834 58.0671L360.309 61.1746V63.3943L357.054 59.9908H355.278L356.018 62.0625L360.457 64.4302V66.5018L358.238 63.9862H356.462L356.906 65.466L360.457 67.3897V67.9816L359.717 69.0175L360.309 70.6452Z" fill="white"/>
<path d="M361.197 76.7127L361.197 75.5289L360.161 75.5289L360.161 76.7127L359.569 78.3404L360.161 79.3763L360.161 79.9682L357.053 81.8919L356.461 83.3717L358.237 83.3717L360.161 80.8561L360.161 82.9278L355.869 85.2954L355.425 87.2191L357.497 87.2191L360.161 83.9636L360.161 86.1833L354.686 89.2908L354.39 91.5105L356.757 91.0665L360.161 87.3671L359.569 92.6943L360.901 95.3579L362.38 92.6943L361.197 87.3671L364.896 91.5105L367.264 91.5105L366.672 89.2908L361.197 86.1833L361.197 83.9636L364.452 87.3671L366.228 87.3671L365.488 85.2954L361.049 82.9278L361.049 80.8561L363.268 83.3717L365.044 83.3717L364.6 81.8919L361.049 79.9682L361.049 79.3763L361.788 78.3404L361.197 76.7127Z" fill="white"/>
<path d="M362.746 71.8917L361.741 72.5176L362.289 73.3969L363.294 72.7709L364.988 72.4127L365.555 71.3626L366.057 71.0497L369.333 72.6702L370.902 72.3902L369.963 70.883L366.811 70.5802L368.569 69.4849L372.848 71.8755L374.715 71.2352L373.62 69.4768L369.448 68.9372L371.332 67.7636L376.865 70.7678L378.905 69.8455L377.277 68.0705L372.337 67.1377L377.172 64.8234L378.729 62.2847L375.685 62.437L371.79 66.2584L373.35 60.9277L372.099 58.918L370.528 60.594L370.785 66.8844L368.901 68.058L370.068 63.4952L369.129 61.988L367.762 63.7113L368.1 68.7312L366.341 69.8266L367.303 66.6125L366.364 65.1053L365.343 66.2645L365.588 70.296L365.085 70.609L363.815 70.5287L362.746 71.8917Z" fill="white"/>
<path d="M358.551 75.5047L359.576 74.9128L359.058 74.0157L358.033 74.6076L356.328 74.9089L355.727 75.9394L355.214 76.2354L351.994 74.506L350.417 74.7333L351.305 76.2711L354.445 76.6793L352.651 77.7151L348.455 75.1825L346.567 75.7599L347.603 77.5541L351.754 78.2331L349.831 79.3429L344.403 76.155L342.332 77.0085L343.901 78.837L348.806 79.9348L343.897 82.0858L342.256 84.571L345.303 84.5207L349.324 80.8319L347.586 86.1074L348.769 88.1578L350.396 86.5354L350.349 80.24L352.272 79.1301L350.952 83.6512L351.84 85.1891L353.264 83.5125L353.095 78.4841L354.889 77.4482L353.82 80.6283L354.708 82.1661L355.768 81.0418L355.658 77.0043L356.17 76.7083L357.437 76.8312L358.551 75.5047Z" fill="white"/>
<path d="M363.718 74.6157L362.679 74.0492L362.183 74.9588L363.222 75.5253L364.368 76.8239L365.561 76.7998L366.081 77.0831L366.283 80.7323L367.299 81.9601L368.149 80.4009L366.861 77.5079L368.68 78.4993L368.705 83.4004L370.182 84.7108L371.173 82.8916L369.589 78.995L371.538 80.0571L371.647 86.3518L373.454 87.6738L374.197 85.3824L372.578 80.6236L376.972 83.6925L379.948 83.7977L378.318 81.2237L373.073 79.7141L378.482 78.4484L379.615 76.3694L377.383 75.827L372.034 79.1476L370.085 78.0854L374.631 76.8555L375.481 75.2962L373.308 74.9546L369.104 77.7197L367.285 76.7283L370.556 75.9831L371.406 74.4238L369.894 74.1055L366.506 76.3035L365.986 76.0202L365.431 74.8749L363.718 74.6157Z" fill="white"/>
<path d="M358.139 72.671L359.12 73.3343L359.7 72.4763L358.72 71.813L357.703 70.4108L356.513 70.3207L356.023 69.9891L356.171 66.3373L355.276 65.0179L354.282 66.4888L355.288 69.4917L353.572 68.331L354.015 63.4499L352.67 62.0044L351.509 63.7204L352.713 67.7507L350.875 66.5071L351.368 60.2309L349.696 58.7421L348.737 60.952L349.894 65.8438L345.813 62.369L342.861 61.9798L344.238 64.6979L349.314 66.7019L343.809 67.4448L342.483 69.406L344.653 70.1593L350.295 67.3651L352.133 68.6087L347.49 69.3985L346.495 70.8694L348.626 71.4172L353.074 69.0664L354.79 70.2271L351.463 70.6563L350.468 72.1272L351.942 72.5885L355.526 70.7245L356.016 71.0562L356.459 72.2494L358.139 72.671Z" fill="white"/>
<circle cx="360.901" cy="73.7524" r="2.07169" fill="white"/>
<path d="M599.874 17.3894V18.0491H600.451V17.3894L600.781 16.4824L600.451 15.9052V15.5754L602.183 14.5035L602.512 13.6789H601.523L600.451 15.0807V13.9263L602.842 12.607L603.09 11.5351H601.935L600.451 13.3491V12.1123L603.502 10.3807L603.667 9.14385L602.348 9.39122L600.451 11.4526L600.781 8.4842L600.039 7L599.214 8.4842L599.874 11.4526L597.812 9.14385H596.493L596.823 10.3807L599.874 12.1123V13.3491L598.06 11.4526H597.07L597.483 12.607L599.956 13.9263V15.0807L598.719 13.6789H597.73L597.977 14.5035L599.956 15.5754V15.9052L599.544 16.4824L599.874 17.3894Z" fill="white"/>
<path d="M600.368 20.7702L600.368 20.1106L599.791 20.1106L599.791 20.7702L599.461 21.6773L599.791 22.2544L599.791 22.5843L598.06 23.6562L597.73 24.4808L598.719 24.4808L599.791 23.079L599.791 24.2334L597.4 25.5527L597.153 26.6246L598.307 26.6246L599.791 24.8106L599.791 26.0474L596.74 27.779L596.575 29.0158L597.895 28.7685L599.791 26.7071L599.461 29.6755L600.203 31.1597L601.028 29.6755L600.368 26.7071L602.43 29.0158L603.749 29.0158L603.419 27.779L600.368 26.0474L600.368 24.8106L602.182 26.7071L603.172 26.7071L602.76 25.5527L600.286 24.2334L600.286 23.079L601.523 24.4808L602.512 24.4808L602.265 23.6562L600.286 22.5843L600.286 22.2544L600.698 21.6773L600.368 20.7702Z" fill="white"/>
<path d="M601.232 18.0838L600.672 18.4326L600.977 18.9225L601.537 18.5738L602.481 18.3742L602.797 17.789L603.077 17.6146L604.902 18.5176L605.776 18.3616L605.253 17.5218L603.497 17.3531L604.476 16.7427L606.86 18.0748L607.901 17.718L607.291 16.7382L604.966 16.4375L606.016 15.7836L609.099 17.4576L610.236 16.9436L609.328 15.9546L606.576 15.4348L609.27 14.1453L610.137 12.7307L608.442 12.8155L606.271 14.9449L607.141 11.9745L606.443 10.8547L605.568 11.7886L605.711 15.2937L604.661 15.9476L605.312 13.4052L604.789 12.5653L604.027 13.5256L604.215 16.3228L603.235 16.9331L603.771 15.1422L603.248 14.3023L602.679 14.9483L602.815 17.1947L602.535 17.3691L601.827 17.3243L601.232 18.0838Z" fill="white"/>
<path d="M598.894 20.0973L599.465 19.7674L599.177 19.2676L598.605 19.5974L597.655 19.7653L597.32 20.3395L597.034 20.5044L595.24 19.5408L594.361 19.6674L594.856 20.5243L596.606 20.7518L595.606 21.329L593.268 19.9178L592.216 20.2395L592.793 21.2392L595.106 21.6176L594.035 22.236L591.01 20.4596L589.857 20.9352L590.731 21.9541L593.464 22.5658L590.728 23.7644L589.814 25.1491L591.512 25.1211L593.753 23.0657L592.784 26.0053L593.444 27.1478L594.35 26.2437L594.324 22.7358L595.395 22.1174L594.66 24.6367L595.154 25.4936L595.948 24.5593L595.854 21.7574L596.853 21.1802L596.258 22.9522L596.753 23.8091L597.343 23.1826L597.282 20.9329L597.567 20.7679L598.273 20.8364L598.894 20.0973Z" fill="white"/>
<path d="M601.773 19.6019L601.194 19.2863L600.918 19.7931L601.497 20.1087L602.136 20.8324L602.8 20.819L603.09 20.9768L603.203 23.0102L603.769 23.6944L604.242 22.8255L603.524 21.2135L604.538 21.7659L604.552 24.4969L605.375 25.2271L605.927 24.2134L605.045 22.0421L606.131 22.634L606.191 26.1415L607.198 26.8781L607.613 25.6013L606.71 22.9496L609.159 24.6597L610.817 24.7183L609.908 23.284L606.986 22.4428L610 21.7375L610.631 20.5791L609.387 20.2769L606.407 22.1272L605.321 21.5353L607.854 20.85L608.328 19.9811L607.117 19.7908L604.775 21.3315L603.761 20.7791L605.584 20.3638L606.057 19.495L605.215 19.3177L603.327 20.5424L603.037 20.3846L602.727 19.7463L601.773 19.6019Z" fill="white"/>
<path d="M598.665 18.5185L599.211 18.888L599.535 18.4099L598.988 18.0404L598.422 17.259L597.759 17.2088L597.486 17.024L597.568 14.9892L597.07 14.254L596.515 15.0736L597.076 16.7469L596.12 16.1001L596.367 13.3803L595.617 12.5748L594.97 13.531L595.642 15.7768L594.617 15.0838L594.892 11.5866L593.96 10.7571L593.426 11.9884L594.071 14.7142L591.797 12.778L590.151 12.5612L590.919 14.0757L593.747 15.1923L590.68 15.6063L589.941 16.6991L591.15 17.1189L594.294 15.5619L595.318 16.2549L592.731 16.6949L592.177 17.5145L593.364 17.8198L595.842 16.5099L596.799 17.1567L594.945 17.3958L594.39 18.2154L595.212 18.4725L597.208 17.4338L597.482 17.6186L597.729 18.2835L598.665 18.5185Z" fill="white"/>
<circle cx="600.203" cy="19.1207" r="1.15438" fill="white"/>
<path d="M451.874 458.389V459.049H452.451V458.389L452.781 457.482L452.451 456.905V456.575L454.183 455.503L454.512 454.679H453.523L452.451 456.081V454.926L454.842 453.607L455.09 452.535H453.935L452.451 454.349V453.112L455.502 451.381L455.667 450.144L454.348 450.391L452.451 452.453L452.781 449.484L452.039 448L451.214 449.484L451.874 452.453L449.812 450.144H448.493L448.823 451.381L451.874 453.112V454.349L450.06 452.453H449.07L449.483 453.607L451.956 454.926V456.081L450.719 454.679H449.73L449.977 455.503L451.956 456.575V456.905L451.544 457.482L451.874 458.389Z" fill="white"/>
<path d="M452.368 461.771L452.368 461.111L451.791 461.111L451.791 461.771L451.461 462.678L451.791 463.255L451.791 463.585L450.06 464.657L449.73 465.481L450.719 465.481L451.791 464.079L451.791 465.234L449.4 466.553L449.153 467.625L450.307 467.625L451.791 465.811L451.791 467.048L448.74 468.779L448.575 470.016L449.895 469.769L451.791 467.708L451.461 470.676L452.203 472.16L453.028 470.676L452.368 467.708L454.43 470.016L455.749 470.016L455.419 468.779L452.368 467.048L452.368 465.811L454.182 467.708L455.172 467.708L454.76 466.553L452.286 465.234L452.286 464.079L453.523 465.481L454.512 465.481L454.265 464.657L452.286 463.585L452.286 463.255L452.698 462.678L452.368 461.771Z" fill="white"/>
<path d="M453.232 459.084L452.672 459.433L452.977 459.923L453.537 459.574L454.481 459.375L454.797 458.79L455.077 458.615L456.902 459.518L457.776 459.362L457.253 458.522L455.497 458.354L456.476 457.743L458.86 459.075L459.901 458.719L459.291 457.739L456.966 457.438L458.016 456.784L461.099 458.458L462.236 457.944L461.328 456.955L458.576 456.435L461.27 455.146L462.137 453.731L460.442 453.816L458.271 455.945L459.141 452.975L458.443 451.855L457.568 452.789L457.711 456.294L456.661 456.948L457.312 454.406L456.789 453.566L456.027 454.526L456.215 457.323L455.235 457.934L455.771 456.143L455.248 455.303L454.679 455.949L454.815 458.195L454.535 458.37L453.827 458.325L453.232 459.084Z" fill="white"/>
<path d="M450.894 461.097L451.465 460.767L451.177 460.268L450.605 460.597L449.655 460.765L449.32 461.339L449.034 461.504L447.24 460.541L446.361 460.667L446.856 461.524L448.606 461.752L447.606 462.329L445.268 460.918L444.216 461.239L444.793 462.239L447.106 462.618L446.035 463.236L443.01 461.46L441.857 461.935L442.731 462.954L445.464 463.566L442.728 464.764L441.814 466.149L443.512 466.121L445.753 464.066L444.784 467.005L445.444 468.148L446.35 467.244L446.324 463.736L447.395 463.117L446.66 465.637L447.154 466.494L447.948 465.559L447.854 462.757L448.853 462.18L448.258 463.952L448.753 464.809L449.343 464.183L449.282 461.933L449.567 461.768L450.273 461.836L450.894 461.097Z" fill="white"/>
<path d="M453.773 460.601L453.194 460.286L452.918 460.793L453.497 461.108L454.136 461.832L454.8 461.818L455.09 461.976L455.203 464.01L455.769 464.694L456.242 463.825L455.524 462.213L456.538 462.765L456.552 465.496L457.375 466.227L457.927 465.213L457.045 463.042L458.131 463.633L458.191 467.141L459.198 467.878L459.613 466.601L458.71 463.949L461.159 465.659L462.817 465.718L461.908 464.284L458.986 463.442L462 462.737L462.631 461.579L461.387 461.276L458.407 463.127L457.321 462.535L459.854 461.849L460.328 460.981L459.117 460.79L456.775 462.331L455.761 461.779L457.584 461.363L458.057 460.495L457.215 460.317L455.327 461.542L455.037 461.384L454.727 460.746L453.773 460.601Z" fill="white"/>
<path d="M450.665 459.518L451.211 459.888L451.535 459.41L450.988 459.04L450.422 458.259L449.759 458.209L449.486 458.024L449.568 455.989L449.07 455.254L448.515 456.074L449.076 457.747L448.12 457.1L448.367 454.38L447.617 453.575L446.97 454.531L447.642 456.777L446.617 456.084L446.892 452.587L445.96 451.757L445.426 452.988L446.071 455.714L443.797 453.778L442.151 453.561L442.919 455.076L445.747 456.192L442.68 456.606L441.941 457.699L443.15 458.119L446.294 456.562L447.318 457.255L444.731 457.695L444.177 458.515L445.364 458.82L447.842 457.51L448.799 458.157L446.945 458.396L446.39 459.215L447.212 459.472L449.208 458.434L449.482 458.619L449.729 459.284L450.665 459.518Z" fill="white"/>
<circle cx="452.203" cy="460.121" r="1.15438" fill="white"/>
<path d="M748.874 503.389V504.049H749.451V503.389L749.781 502.482L749.451 501.905V501.575L751.183 500.503L751.512 499.679H750.523L749.451 501.081V499.926L751.842 498.607L752.09 497.535H750.935L749.451 499.349V498.112L752.502 496.381L752.667 495.144L751.348 495.391L749.451 497.453L749.781 494.484L749.039 493L748.214 494.484L748.874 497.453L746.812 495.144H745.493L745.823 496.381L748.874 498.112V499.349L747.06 497.453H746.07L746.483 498.607L748.956 499.926V501.081L747.719 499.679H746.73L746.977 500.503L748.956 501.575V501.905L748.544 502.482L748.874 503.389Z" fill="white"/>
<path d="M749.368 506.771L749.368 506.111L748.791 506.111L748.791 506.771L748.461 507.678L748.791 508.255L748.791 508.585L747.06 509.657L746.73 510.481L747.719 510.481L748.791 509.079L748.791 510.234L746.4 511.553L746.153 512.625L747.307 512.625L748.791 510.811L748.791 512.048L745.74 513.779L745.575 515.016L746.895 514.769L748.791 512.708L748.461 515.676L749.203 517.16L750.028 515.676L749.368 512.708L751.43 515.016L752.749 515.016L752.419 513.779L749.368 512.048L749.368 510.811L751.182 512.708L752.172 512.708L751.76 511.553L749.286 510.234L749.286 509.079L750.523 510.481L751.512 510.481L751.265 509.657L749.286 508.585L749.286 508.255L749.698 507.678L749.368 506.771Z" fill="white"/>
<path d="M750.232 504.084L749.672 504.433L749.977 504.923L750.537 504.574L751.481 504.375L751.797 503.79L752.077 503.615L753.902 504.518L754.776 504.362L754.253 503.522L752.497 503.354L753.476 502.743L755.86 504.075L756.901 503.719L756.291 502.739L753.966 502.438L755.016 501.784L758.099 503.458L759.236 502.944L758.328 501.955L755.576 501.435L758.27 500.146L759.137 498.731L757.442 498.816L755.271 500.945L756.141 497.975L755.443 496.855L754.568 497.789L754.711 501.294L753.661 501.948L754.312 499.406L753.789 498.566L753.027 499.526L753.215 502.323L752.235 502.934L752.771 501.143L752.248 500.303L751.679 500.949L751.815 503.195L751.535 503.37L750.827 503.325L750.232 504.084Z" fill="white"/>
<path d="M747.894 506.097L748.465 505.767L748.177 505.268L747.605 505.597L746.655 505.765L746.32 506.339L746.034 506.504L744.24 505.541L743.361 505.667L743.856 506.524L745.606 506.752L744.606 507.329L742.268 505.918L741.216 506.239L741.793 507.239L744.106 507.618L743.035 508.236L740.01 506.46L738.857 506.935L739.731 507.954L742.464 508.566L739.728 509.764L738.814 511.149L740.512 511.121L742.753 509.066L741.784 512.005L742.444 513.148L743.35 512.244L743.324 508.736L744.395 508.117L743.66 510.637L744.154 511.494L744.948 510.559L744.854 507.757L745.853 507.18L745.258 508.952L745.753 509.809L746.343 509.183L746.282 506.933L746.567 506.768L747.273 506.836L747.894 506.097Z" fill="white"/>
<path d="M750.773 505.601L750.194 505.286L749.918 505.793L750.497 506.108L751.136 506.832L751.8 506.818L752.09 506.976L752.203 509.01L752.769 509.694L753.242 508.825L752.524 507.213L753.538 507.765L753.552 510.496L754.375 511.227L754.927 510.213L754.045 508.042L755.131 508.633L755.191 512.141L756.198 512.878L756.613 511.601L755.71 508.949L758.159 510.659L759.817 510.718L758.908 509.284L755.986 508.442L759 507.737L759.631 506.579L758.387 506.276L755.407 508.127L754.321 507.535L756.854 506.849L757.328 505.981L756.117 505.79L753.775 507.331L752.761 506.779L754.584 506.363L755.057 505.495L754.215 505.317L752.327 506.542L752.037 506.384L751.727 505.746L750.773 505.601Z" fill="white"/>
<path d="M747.665 504.518L748.211 504.888L748.535 504.41L747.988 504.04L747.422 503.259L746.759 503.209L746.486 503.024L746.568 500.989L746.07 500.254L745.515 501.074L746.076 502.747L745.12 502.1L745.367 499.38L744.617 498.575L743.97 499.531L744.642 501.777L743.617 501.084L743.892 497.587L742.96 496.757L742.426 497.988L743.071 500.714L740.797 498.778L739.151 498.561L739.919 500.076L742.747 501.192L739.68 501.606L738.941 502.699L740.15 503.119L743.294 501.562L744.318 502.255L741.731 502.695L741.177 503.515L742.364 503.82L744.842 502.51L745.799 503.157L743.945 503.396L743.39 504.215L744.212 504.472L746.208 503.434L746.482 503.619L746.729 504.284L747.665 504.518Z" fill="white"/>
<circle cx="749.203" cy="505.121" r="1.15438" fill="white"/>
<path d="M55.8738 464.389V465.049H56.451V464.389L56.7809 463.482L56.451 462.905V462.575L58.1826 461.503L58.5124 460.679H57.523L56.451 462.081V460.926L58.8423 459.607L59.0896 458.535H57.9352L56.451 460.349V459.112L59.5019 457.381L59.6668 456.144L58.3475 456.391L56.451 458.453L56.7809 455.484L56.0388 454L55.2142 455.484L55.8738 458.453L53.8125 456.144H52.4932L52.823 457.381L55.8738 459.112V460.349L54.0598 458.453H53.0704L53.4826 459.607L55.9563 460.926V462.081L54.7195 460.679H53.73L53.9774 461.503L55.9563 462.575V462.905L55.544 463.482L55.8738 464.389Z" fill="white"/>
<path d="M56.3683 467.771L56.3683 467.111L55.7911 467.111L55.7911 467.771L55.4613 468.678L55.7911 469.255L55.7911 469.585L54.0596 470.657L53.7298 471.481L54.7192 471.481L55.7911 470.079L55.7911 471.234L53.3999 472.553L53.1526 473.625L54.3069 473.625L55.7911 471.811L55.7911 473.048L52.7403 474.779L52.5754 476.016L53.8947 475.769L55.7911 473.708L55.4613 476.676L56.2034 478.16L57.028 476.676L56.3683 473.708L58.4297 476.016L59.749 476.016L59.4192 474.779L56.3683 473.048L56.3683 471.811L58.1824 473.708L59.1718 473.708L58.7596 472.553L56.2859 471.234L56.2859 470.079L57.5227 471.481L58.5122 471.481L58.2648 470.657L56.2859 469.585L56.2859 469.255L56.6982 468.678L56.3683 467.771Z" fill="white"/>
<path d="M57.2317 465.084L56.6718 465.433L56.977 465.923L57.5369 465.574L58.4811 465.375L58.7966 464.79L59.0766 464.615L60.902 465.518L61.7762 465.362L61.2531 464.522L59.4965 464.354L60.4764 463.743L62.8605 465.075L63.9011 464.719L63.2907 463.739L60.9663 463.438L62.0161 462.784L65.0989 464.458L66.2359 463.944L65.3284 462.955L62.576 462.435L65.2699 461.146L66.1373 459.731L64.4416 459.816L62.2708 461.945L63.1406 458.975L62.443 457.855L61.5676 458.789L61.7109 462.294L60.6611 462.948L61.3117 460.406L60.7885 459.566L60.0267 460.526L60.2148 463.323L59.2349 463.934L59.7708 462.143L59.2476 461.303L58.6785 461.949L58.815 464.195L58.5351 464.37L57.8272 464.325L57.2317 465.084Z" fill="white"/>
<path d="M54.8941 467.097L55.4653 466.767L55.1768 466.268L54.6055 466.597L53.6551 466.765L53.3201 467.339L53.0345 467.504L51.2404 466.541L50.3614 466.667L50.8561 467.524L52.606 467.752L51.6063 468.329L49.2682 466.918L48.2162 467.239L48.7934 468.239L51.1065 468.618L50.0353 469.236L47.0103 467.46L45.8567 467.935L46.7306 468.954L49.4641 469.566L46.7284 470.764L45.8141 472.149L47.5118 472.121L49.7526 470.066L48.7839 473.005L49.4435 474.148L50.3498 473.244L50.3239 469.736L51.395 469.117L50.6597 471.637L51.1544 472.494L51.948 471.559L51.8537 468.757L52.8534 468.18L52.2579 469.952L52.7526 470.809L53.343 470.183L53.2819 467.933L53.5675 467.768L54.2735 467.836L54.8941 467.097Z" fill="white"/>
<path d="M57.7732 466.601L57.194 466.286L56.9178 466.793L57.497 467.108L58.1356 467.832L58.8003 467.818L59.0899 467.976L59.2025 470.01L59.7687 470.694L60.2422 469.825L59.5243 468.213L60.5379 468.765L60.5521 471.496L61.375 472.227L61.9274 471.213L61.0448 469.042L62.1308 469.633L62.1913 473.141L63.1985 473.878L63.6126 472.601L62.71 469.949L65.1587 471.659L66.817 471.718L65.9084 470.284L62.9862 469.442L65.9999 468.737L66.6312 467.579L65.3873 467.276L62.407 469.127L61.321 468.535L63.8543 467.849L64.3277 466.981L63.1168 466.79L60.7747 468.331L59.761 467.779L61.5837 467.363L62.0572 466.495L61.2148 466.317L59.3266 467.542L59.037 467.384L58.7275 466.746L57.7732 466.601Z" fill="white"/>
<path d="M54.6649 465.518L55.2113 465.888L55.5346 465.41L54.9882 465.04L54.4217 464.259L53.7588 464.209L53.4856 464.024L53.5679 461.989L53.0696 461.254L52.5153 462.074L53.0758 463.747L52.1196 463.1L52.3665 460.38L51.6172 459.575L50.9705 460.531L51.6415 462.777L50.617 462.084L50.892 458.587L49.9599 457.757L49.4257 458.988L50.0706 461.714L47.7966 459.778L46.1515 459.561L46.9189 461.076L49.7473 462.192L46.68 462.606L45.9408 463.699L47.1501 464.119L50.2937 462.562L51.3182 463.255L48.731 463.695L48.1766 464.515L49.3638 464.82L51.8425 463.51L52.7987 464.157L50.9446 464.396L50.3903 465.215L51.2119 465.472L53.2085 464.434L53.4817 464.619L53.7288 465.284L54.6649 465.518Z" fill="white"/>
<circle cx="56.2032" cy="466.121" r="1.15438" fill="white"/>
<path d="M102.874 20.3894V21.0491H103.451V20.3894L103.781 19.4824L103.451 18.9052V18.5754L105.183 17.5035L105.512 16.6789H104.523L103.451 18.0807V16.9263L105.842 15.607L106.09 14.5351H104.935L103.451 16.3491V15.1123L106.502 13.3807L106.667 12.1438L105.348 12.3912L103.451 14.4526L103.781 11.4842L103.039 10L102.214 11.4842L102.874 14.4526L100.812 12.1438H99.4932L99.823 13.3807L102.874 15.1123V16.3491L101.06 14.4526H100.07L100.483 15.607L102.956 16.9263V18.0807L101.719 16.6789H100.73L100.977 17.5035L102.956 18.5754V18.9052L102.544 19.4824L102.874 20.3894Z" fill="white"/>
<path d="M103.368 23.7702L103.368 23.1106L102.791 23.1106L102.791 23.7702L102.461 24.6773L102.791 25.2544L102.791 25.5843L101.06 26.6562L100.73 27.4808L101.719 27.4808L102.791 26.079L102.791 27.2334L100.4 28.5527L100.153 29.6246L101.307 29.6246L102.791 27.8106L102.791 29.0474L99.7403 30.779L99.5754 32.0158L100.895 31.7685L102.791 29.7071L102.461 32.6755L103.203 34.1597L104.028 32.6755L103.368 29.7071L105.43 32.0158L106.749 32.0158L106.419 30.779L103.368 29.0474L103.368 27.8106L105.182 29.7071L106.172 29.7071L105.76 28.5527L103.286 27.2334L103.286 26.079L104.523 27.4808L105.512 27.4808L105.265 26.6562L103.286 25.5843L103.286 25.2544L103.698 24.6773L103.368 23.7702Z" fill="white"/>
<path d="M104.232 21.0838L103.672 21.4326L103.977 21.9225L104.537 21.5738L105.481 21.3742L105.797 20.789L106.077 20.6146L107.902 21.5176L108.776 21.3616L108.253 20.5218L106.497 20.3531L107.476 19.7427L109.86 21.0748L110.901 20.718L110.291 19.7382L107.966 19.4375L109.016 18.7836L112.099 20.4576L113.236 19.9436L112.328 18.9546L109.576 18.4348L112.27 17.1453L113.137 15.7307L111.442 15.8155L109.271 17.9449L110.141 14.9745L109.443 13.8547L108.568 14.7886L108.711 18.2937L107.661 18.9476L108.312 16.4052L107.789 15.5653L107.027 16.5256L107.215 19.3228L106.235 19.9331L106.771 18.1422L106.248 17.3023L105.679 17.9483L105.815 20.1947L105.535 20.3691L104.827 20.3243L104.232 21.0838Z" fill="white"/>
<path d="M101.894 23.0973L102.465 22.7674L102.177 22.2676L101.605 22.5974L100.655 22.7653L100.32 23.3395L100.034 23.5044L98.2404 22.5408L97.3614 22.6674L97.8561 23.5243L99.606 23.7518L98.6063 24.329L96.2682 22.9178L95.2162 23.2395L95.7934 24.2392L98.1065 24.6176L97.0353 25.236L94.0103 23.4596L92.8567 23.9352L93.7306 24.9541L96.4641 25.5658L93.7284 26.7644L92.8141 28.1491L94.5118 28.1211L96.7526 26.0657L95.7839 29.0053L96.4435 30.1478L97.3498 29.2437L97.3239 25.7358L98.395 25.1174L97.6597 27.6367L98.1544 28.4936L98.948 27.5593L98.8537 24.7574L99.8534 24.1802L99.2579 25.9522L99.7526 26.8091L100.343 26.1826L100.282 23.9329L100.567 23.7679L101.273 23.8364L101.894 23.0973Z" fill="white"/>
<path d="M104.773 22.6019L104.194 22.2863L103.918 22.7931L104.497 23.1087L105.136 23.8324L105.8 23.819L106.09 23.9768L106.203 26.0102L106.769 26.6944L107.242 25.8255L106.524 24.2135L107.538 24.7659L107.552 27.4969L108.375 28.2271L108.927 27.2134L108.045 25.0421L109.131 25.634L109.191 29.1415L110.198 29.8781L110.613 28.6013L109.71 25.9496L112.159 27.6597L113.817 27.7183L112.908 26.284L109.986 25.4428L113 24.7375L113.631 23.5791L112.387 23.2769L109.407 25.1272L108.321 24.5353L110.854 23.85L111.328 22.9811L110.117 22.7908L107.775 24.3315L106.761 23.7791L108.584 23.3638L109.057 22.495L108.215 22.3177L106.327 23.5424L106.037 23.3846L105.727 22.7463L104.773 22.6019Z" fill="white"/>
<path d="M101.665 21.5185L102.211 21.888L102.535 21.4099L101.988 21.0404L101.422 20.259L100.759 20.2088L100.486 20.024L100.568 17.9892L100.07 17.254L99.5153 18.0736L100.076 19.7469L99.1196 19.1001L99.3665 16.3803L98.6172 15.5748L97.9705 16.531L98.6415 18.7768L97.617 18.0838L97.892 14.5866L96.9599 13.7571L96.4257 14.9884L97.0706 17.7142L94.7966 15.778L93.1515 15.5612L93.9189 17.0757L96.7473 18.1923L93.68 18.6063L92.9408 19.6991L94.1501 20.1189L97.2937 18.5619L98.3182 19.2549L95.731 19.6949L95.1766 20.5145L96.3638 20.8198L98.8425 19.5099L99.7987 20.1567L97.9446 20.3958L97.3903 21.2154L98.2119 21.4725L100.208 20.4338L100.482 20.6186L100.729 21.2835L101.665 21.5185Z" fill="white"/>
<circle cx="103.203" cy="22.1207" r="1.15438" fill="white"/>
<path d="M693.891 120.592V121.775H694.927V120.592L695.519 118.964L694.927 117.928V117.336L698.035 115.412L698.627 113.933H696.851L694.927 116.448V114.376L699.219 112.009L699.662 110.085H697.591L694.927 113.341V111.121L700.402 108.013L700.698 105.794L698.331 106.238L694.927 109.937L695.519 104.61L694.187 101.946L692.707 104.61L693.891 109.937L690.192 105.794H687.824L688.416 108.013L693.891 111.121V113.341L690.636 109.937H688.86L689.6 112.009L694.039 114.376V116.448L691.82 113.933H690.044L690.488 115.412L694.039 117.336V117.928L693.299 118.964L693.891 120.592Z" fill="white"/>
<path d="M694.779 126.658L694.779 125.475L693.743 125.475L693.743 126.658L693.151 128.286L693.743 129.322L693.743 129.914L690.635 131.838L690.043 133.317L691.819 133.317L693.743 130.802L693.743 132.874L689.451 135.241L689.007 137.165L691.079 137.165L693.743 133.909L693.743 136.129L688.268 139.237L687.972 141.456L690.339 141.012L693.743 137.313L693.151 142.64L694.483 145.304L695.962 142.64L694.779 137.313L698.478 141.456L700.846 141.456L700.254 139.237L694.779 136.129L694.779 133.909L698.034 137.313L699.81 137.313L699.07 135.241L694.631 132.874L694.631 130.802L696.85 133.317L698.626 133.317L698.182 131.838L694.631 129.914L694.631 129.322L695.371 128.286L694.779 126.658Z" fill="white"/>
<path d="M696.328 121.838L695.323 122.464L695.871 123.343L696.876 122.717L698.57 122.359L699.137 121.309L699.639 120.996L702.915 122.616L704.484 122.336L703.545 120.829L700.393 120.527L702.151 119.431L706.43 121.822L708.297 121.181L707.202 119.423L703.03 118.883L704.914 117.71L710.447 120.714L712.487 119.792L710.859 118.017L705.919 117.084L710.754 114.77L712.311 112.231L709.267 112.383L705.372 116.205L706.932 110.874L705.681 108.864L704.11 110.54L704.367 116.831L702.483 118.004L703.65 113.441L702.711 111.934L701.344 113.658L701.682 118.678L699.923 119.773L700.885 116.559L699.946 115.052L698.925 116.211L699.17 120.242L698.667 120.555L697.397 120.475L696.328 121.838Z" fill="white"/>
<path d="M692.133 125.451L693.158 124.859L692.641 123.962L691.615 124.554L689.91 124.855L689.309 125.886L688.796 126.182L685.576 124.452L683.999 124.68L684.887 126.217L688.027 126.626L686.233 127.661L682.037 125.129L680.149 125.706L681.185 127.5L685.336 128.179L683.414 129.289L677.985 126.101L675.914 126.955L677.483 128.783L682.388 129.881L677.479 132.032L675.838 134.517L678.885 134.467L682.906 130.778L681.168 136.054L682.352 138.104L683.978 136.482L683.931 130.186L685.854 129.076L684.534 133.598L685.422 135.135L686.846 133.459L686.677 128.43L688.471 127.394L687.402 130.575L688.29 132.112L689.35 130.988L689.24 126.951L689.752 126.655L691.02 126.777L692.133 125.451Z" fill="white"/>
<path d="M697.3 124.562L696.261 123.995L695.765 124.905L696.804 125.471L697.95 126.77L699.143 126.746L699.663 127.029L699.865 130.678L700.881 131.906L701.731 130.347L700.443 127.454L702.262 128.445L702.287 133.346L703.764 134.657L704.755 132.837L703.171 128.941L705.12 130.003L705.229 136.298L707.036 137.62L707.78 135.328L706.16 130.569L710.554 133.638L713.53 133.743L711.9 131.17L706.655 129.66L712.064 128.394L713.197 126.315L710.965 125.773L705.616 129.093L703.667 128.031L708.213 126.801L709.063 125.242L706.89 124.9L702.687 127.665L700.867 126.674L704.138 125.929L704.988 124.37L703.476 124.051L700.088 126.249L699.568 125.966L699.013 124.821L697.3 124.562Z" fill="white"/>
<path d="M691.721 122.618L692.702 123.281L693.282 122.423L692.302 121.76L691.285 120.358L690.095 120.268L689.605 119.936L689.753 116.284L688.858 114.965L687.864 116.436L688.87 119.438L687.154 118.278L687.597 113.397L686.252 111.951L685.091 113.667L686.296 117.697L684.457 116.454L684.95 110.178L683.278 108.689L682.319 110.899L683.476 115.791L679.395 112.316L676.443 111.927L677.82 114.645L682.896 116.649L677.391 117.392L676.065 119.353L678.235 120.106L683.877 117.312L685.715 118.555L681.072 119.345L680.077 120.816L682.208 121.364L686.656 119.013L688.372 120.174L685.045 120.603L684.05 122.074L685.524 122.535L689.108 120.671L689.598 121.003L690.041 122.196L691.721 122.618Z" fill="white"/>
<circle cx="694.483" cy="123.699" r="2.07169" fill="white"/>
<path d="M177.926 349.79V350.974H178.962V349.79L179.554 348.162L178.962 347.126V346.534L182.07 344.611L182.662 343.131H180.886L178.962 345.646V343.575L183.254 341.207L183.698 339.283H181.626L178.962 342.539V340.319L184.438 337.212L184.733 334.992L182.366 335.436L178.962 339.135L179.554 333.808L178.222 331.145L176.743 333.808L177.926 339.135L174.227 334.992H171.859L172.451 337.212L177.926 340.319V342.539L174.671 339.135H172.895L173.635 341.207L178.074 343.575V345.646L175.855 343.131H174.079L174.523 344.611L178.074 346.534V347.126L177.335 348.162L177.926 349.79Z" fill="white"/>
<path d="M178.814 355.857L178.814 354.673L177.778 354.673L177.778 355.857L177.186 357.484L177.778 358.52L177.778 359.112L174.67 361.036L174.078 362.516L175.854 362.516L177.778 360L177.778 362.072L173.487 364.439L173.043 366.363L175.114 366.363L177.778 363.108L177.778 365.327L172.303 368.435L172.007 370.655L174.374 370.211L177.778 366.511L177.186 371.838L178.518 374.502L179.998 371.838L178.814 366.511L182.513 370.655L184.881 370.655L184.289 368.435L178.814 365.327L178.814 363.108L182.069 366.511L183.845 366.511L183.105 364.439L178.666 362.072L178.666 360L180.885 362.516L182.661 362.516L182.217 361.036L178.666 359.112L178.666 358.52L179.406 357.484L178.814 355.857Z" fill="white"/>
<path d="M180.363 351.035L179.359 351.661L179.906 352.54L180.911 351.914L182.606 351.556L183.172 350.506L183.674 350.193L186.95 351.814L188.519 351.534L187.58 350.027L184.428 349.724L186.186 348.628L190.465 351.019L192.332 350.379L191.237 348.62L187.066 348.081L188.95 346.907L194.482 349.911L196.523 348.989L194.894 347.214L189.954 346.281L194.789 343.967L196.346 341.428L193.303 341.581L189.407 345.402L190.968 340.071L189.716 338.062L188.145 339.738L188.402 346.028L186.518 347.202L187.685 342.639L186.747 341.132L185.379 342.855L185.717 347.875L183.958 348.97L184.92 345.756L183.981 344.249L182.96 345.408L183.205 349.44L182.702 349.753L181.432 349.672L180.363 351.035Z" fill="white"/>
<path d="M176.168 354.65L177.194 354.058L176.676 353.161L175.65 353.753L173.945 354.054L173.344 355.084L172.831 355.38L169.611 353.651L168.034 353.878L168.922 355.416L172.062 355.824L170.268 356.86L166.072 354.328L164.184 354.905L165.22 356.699L169.371 357.378L167.449 358.488L162.02 355.3L159.95 356.154L161.518 357.982L166.423 359.08L161.514 361.231L159.873 363.716L162.92 363.666L166.941 359.977L165.203 365.252L166.387 367.303L168.013 365.68L167.967 359.385L169.889 358.275L168.569 362.796L169.457 364.334L170.881 362.657L170.712 357.629L172.506 356.593L171.437 359.773L172.325 361.311L173.385 360.187L173.275 356.149L173.788 355.853L175.055 355.976L176.168 354.65Z" fill="white"/>
<path d="M181.335 353.76L180.296 353.193L179.8 354.103L180.84 354.669L181.986 355.968L183.178 355.944L183.698 356.227L183.9 359.876L184.916 361.104L185.766 359.545L184.478 356.652L186.297 357.643L186.322 362.544L187.799 363.855L188.79 362.036L187.206 358.139L189.155 359.201L189.264 365.496L191.072 366.818L191.815 364.526L190.195 359.768L194.589 362.837L197.565 362.942L195.935 360.368L190.691 358.858L196.099 357.592L197.232 355.513L195 354.971L189.651 358.292L187.702 357.229L192.248 356L193.098 354.44L190.925 354.099L186.722 356.864L184.903 355.872L188.174 355.127L189.023 353.568L187.512 353.25L184.123 355.448L183.603 355.164L183.048 354.019L181.335 353.76Z" fill="white"/>
<path d="M175.756 351.816L176.737 352.479L177.317 351.621L176.337 350.958L175.32 349.556L174.13 349.466L173.64 349.134L173.788 345.482L172.894 344.163L171.899 345.634L172.905 348.637L171.189 347.476L171.632 342.595L170.287 341.149L169.126 342.865L170.331 346.896L168.492 345.652L168.986 339.376L167.313 337.887L166.354 340.097L167.511 344.989L163.43 341.514L160.478 341.125L161.855 343.843L166.931 345.847L161.426 346.59L160.1 348.551L162.27 349.304L167.912 346.51L169.75 347.754L165.107 348.543L164.112 350.014L166.243 350.562L170.691 348.211L172.407 349.372L169.08 349.801L168.085 351.272L169.56 351.734L173.143 349.87L173.633 350.201L174.077 351.394L175.756 351.816Z" fill="white"/>
<circle cx="178.518" cy="352.898" r="2.07169" fill="white"/>
<path d="M310.991 551.287V552.471H312.027V551.287L312.619 549.659L312.027 548.623V548.031L315.134 546.108L315.726 544.628H313.95L312.027 547.143V545.072L316.318 542.704L316.762 540.78H314.69L312.027 544.036V541.816L317.502 538.709L317.798 536.489L315.43 536.933L312.027 540.632L312.619 535.305L311.287 532.642L309.807 535.305L310.991 540.632L307.291 536.489H304.924L305.516 538.709L310.991 541.816V544.036L307.735 540.632H305.96L306.7 542.704L311.139 545.072V547.143L308.919 544.628H307.143L307.587 546.108L311.139 548.031V548.623L310.399 549.659L310.991 551.287Z" fill="white"/>
<path d="M311.878 557.354L311.878 556.17L310.842 556.17L310.842 557.354L310.25 558.982L310.842 560.017L310.842 560.609L307.735 562.533L307.143 564.013L308.919 564.013L310.842 561.497L310.842 563.569L306.551 565.937L306.107 567.86L308.179 567.86L310.842 564.605L310.842 566.824L305.367 569.932L305.071 572.152L307.439 571.708L310.842 568.008L310.25 573.335L311.582 575.999L313.062 573.335L311.878 568.008L315.578 572.152L317.945 572.152L317.353 569.932L311.878 566.824L311.878 564.605L315.134 568.008L316.909 568.008L316.17 565.937L311.73 563.569L311.73 561.497L313.95 564.013L315.726 564.013L315.282 562.533L311.73 560.609L311.73 560.017L312.47 558.982L311.878 557.354Z" fill="white"/>
<path d="M313.428 552.532L312.423 553.158L312.971 554.037L313.975 553.412L315.67 553.053L316.236 552.003L316.739 551.69L320.015 553.311L321.584 553.031L320.645 551.524L317.492 551.221L319.251 550.125L323.529 552.516L325.397 551.876L324.302 550.117L320.13 549.578L322.014 548.404L327.547 551.408L329.587 550.486L327.958 548.711L323.019 547.778L327.854 545.464L329.41 542.925L326.367 543.078L322.471 546.899L324.032 541.568L322.78 539.559L321.209 541.235L321.466 547.525L319.582 548.699L320.75 544.136L319.811 542.629L318.444 544.352L318.781 549.372L317.023 550.467L317.985 547.253L317.046 545.746L316.024 546.905L316.269 550.937L315.767 551.25L314.496 551.169L313.428 552.532Z" fill="white"/>
<path d="M309.233 556.147L310.258 555.555L309.74 554.658L308.715 555.25L307.009 555.551L306.408 556.581L305.896 556.877L302.676 555.148L301.098 555.375L301.986 556.913L305.127 557.321L303.332 558.357L299.136 555.825L297.248 556.402L298.284 558.196L302.435 558.875L300.513 559.985L295.084 556.797L293.014 557.651L294.582 559.479L299.488 560.577L294.578 562.728L292.938 565.213L295.984 565.163L300.006 561.474L298.267 566.749L299.451 568.8L301.077 567.177L301.031 560.882L302.953 559.772L301.634 564.293L302.521 565.831L303.946 564.155L303.776 559.126L305.571 558.09L304.502 561.27L305.39 562.808L306.449 561.684L306.339 557.646L306.852 557.35L308.119 557.473L309.233 556.147Z" fill="white"/>
<path d="M314.4 555.257L313.36 554.69L312.864 555.6L313.904 556.166L315.05 557.465L316.243 557.441L316.763 557.724L316.965 561.373L317.981 562.601L318.831 561.042L317.542 558.149L319.361 559.14L319.387 564.042L320.863 565.352L321.855 563.533L320.271 559.636L322.22 560.698L322.329 566.993L324.136 568.315L324.879 566.024L323.259 561.265L327.654 564.334L330.63 564.439L328.999 561.865L323.755 560.355L329.164 559.089L330.296 557.01L328.064 556.468L322.716 559.789L320.767 558.727L325.313 557.497L326.163 555.937L323.989 555.596L319.786 558.361L317.967 557.369L321.238 556.624L322.088 555.065L320.576 554.747L317.187 556.945L316.668 556.661L316.112 555.516L314.4 555.257Z" fill="white"/>
<path d="M308.821 553.313L309.801 553.976L310.382 553.118L309.401 552.455L308.385 551.053L307.195 550.963L306.705 550.631L306.852 546.979L305.958 545.66L304.963 547.131L305.969 550.134L304.253 548.973L304.696 544.092L303.351 542.646L302.191 544.363L303.395 548.393L301.557 547.149L302.05 540.873L300.377 539.384L299.418 541.594L300.576 546.486L296.495 543.011L293.542 542.622L294.92 545.34L299.996 547.344L294.491 548.087L293.164 550.048L295.335 550.801L300.976 548.007L302.815 549.251L298.172 550.041L297.177 551.511L299.307 552.059L303.756 549.709L305.472 550.869L302.144 551.298L301.15 552.769L302.624 553.231L306.207 551.367L306.697 551.698L307.141 552.891L308.821 553.313Z" fill="white"/>
<circle cx="311.582" cy="554.395" r="2.07169" fill="white"/>
<path d="M818.809 368.798V369.981H819.845V368.798L820.437 367.17L819.845 366.134V365.542L822.953 363.618L823.545 362.139H821.769L819.845 364.654V362.582L824.136 360.215L824.58 358.291H822.509L819.845 361.547V359.327L825.32 356.219L825.616 354L823.249 354.444L819.845 358.143L820.437 352.816L819.105 350.152L817.625 352.816L818.809 358.143L815.11 354H812.742L813.334 356.219L818.809 359.327V361.547L815.554 358.143H813.778L814.518 360.215L818.957 362.582V364.654L816.738 362.139H814.962L815.406 363.618L818.957 365.542V366.134L818.217 367.17L818.809 368.798Z" fill="white"/>
<path d="M819.697 374.865L819.697 373.681L818.661 373.681L818.661 374.865L818.069 376.492L818.661 377.528L818.661 378.12L815.553 380.044L814.961 381.524L816.737 381.524L818.661 379.008L818.661 381.08L814.369 383.447L813.925 385.371L815.997 385.371L818.661 382.115L818.661 384.335L813.186 387.443L812.89 389.662L815.257 389.218L818.661 385.519L818.069 390.846L819.401 393.51L820.88 390.846L819.697 385.519L823.396 389.662L825.764 389.662L825.172 387.443L819.697 384.335L819.697 382.115L822.952 385.519L824.728 385.519L823.988 383.447L819.549 381.08L819.549 379.008L821.768 381.524L823.544 381.524L823.1 380.044L819.549 378.12L819.549 377.528L820.288 376.492L819.697 374.865Z" fill="white"/>
<path d="M821.246 370.043L820.241 370.669L820.789 371.548L821.794 370.922L823.488 370.564L824.055 369.514L824.557 369.201L827.833 370.822L829.402 370.542L828.463 369.034L825.311 368.732L827.069 367.636L831.348 370.027L833.215 369.387L832.12 367.628L827.948 367.089L829.832 365.915L835.365 368.919L837.405 367.997L835.777 366.222L830.837 365.289L835.672 362.975L837.229 360.436L834.185 360.588L830.29 364.41L831.85 359.079L830.599 357.069L829.028 358.745L829.285 365.036L827.401 366.209L828.568 361.647L827.629 360.139L826.262 361.863L826.6 366.883L824.841 367.978L825.803 364.764L824.864 363.257L823.843 364.416L824.088 368.447L823.585 368.76L822.315 368.68L821.246 370.043Z" fill="white"/>
<path d="M817.051 373.657L818.076 373.066L817.558 372.169L816.533 372.76L814.828 373.062L814.227 374.092L813.714 374.388L810.494 372.659L808.917 372.886L809.805 374.424L812.945 374.832L811.151 375.868L806.955 373.335L805.067 373.913L806.103 375.707L810.254 376.386L808.331 377.496L802.903 374.308L800.832 375.161L802.401 376.99L807.306 378.088L802.397 380.239L800.756 382.724L803.803 382.674L807.824 378.985L806.086 384.26L807.269 386.311L808.896 384.688L808.849 378.393L810.772 377.283L809.452 381.804L810.34 383.342L811.764 381.665L811.595 376.637L813.389 375.601L812.32 378.781L813.208 380.319L814.268 379.195L814.158 375.157L814.67 374.861L815.937 374.984L817.051 373.657Z" fill="white"/>
<path d="M822.218 372.768L821.179 372.201L820.683 373.111L821.722 373.677L822.868 374.976L824.061 374.952L824.581 375.235L824.783 378.884L825.799 380.112L826.649 378.553L825.361 375.66L827.18 376.651L827.205 381.552L828.682 382.863L829.673 381.044L828.089 377.147L830.038 378.209L830.147 384.504L831.954 385.826L832.697 383.534L831.078 378.775L835.472 381.844L838.448 381.95L836.818 379.376L831.573 377.866L836.982 376.6L838.115 374.521L835.883 373.979L830.534 377.299L828.585 376.237L833.131 375.007L833.981 373.448L831.808 373.106L827.604 375.872L825.785 374.88L829.056 374.135L829.906 372.576L828.394 372.257L825.006 374.455L824.486 374.172L823.931 373.027L822.218 372.768Z" fill="white"/>
<path d="M816.639 370.824L817.62 371.487L818.2 370.629L817.22 369.966L816.203 368.564L815.013 368.474L814.523 368.142L814.671 364.49L813.776 363.171L812.782 364.642L813.788 367.645L812.072 366.484L812.515 361.603L811.17 360.157L810.009 361.873L811.213 365.903L809.375 364.66L809.868 358.384L808.196 356.895L807.237 359.105L808.394 363.997L804.313 360.522L801.361 360.133L802.738 362.851L807.814 364.855L802.309 365.598L800.983 367.559L803.153 368.312L808.795 365.518L810.633 366.762L805.99 367.551L804.995 369.022L807.126 369.57L811.574 367.219L813.29 368.38L809.963 368.809L808.968 370.28L810.442 370.741L814.026 368.877L814.516 369.209L814.959 370.402L816.639 370.824Z" fill="white"/>
<circle cx="819.401" cy="371.906" r="2.07169" fill="white"/>
<ellipse cx="485" cy="81.5" rx="4" ry="4.5" fill="white"/>
<ellipse cx="240" cy="89.5" rx="4" ry="4.5" fill="white"/>
<ellipse cx="275.5" cy="177" rx="4.5" ry="4" fill="white"/>
<ellipse cx="383.5" cy="348" rx="4.5" ry="4" fill="white"/>
<ellipse cx="420.5" cy="231" rx="4.5" ry="4" fill="white"/>
<circle cx="70.5" cy="206.5" r="4.5" fill="white"/>
<circle cx="8.5" cy="346.5" r="4.5" fill="white"/>
<circle cx="147.5" cy="542.5" r="4.5" fill="white"/>
<circle cx="221.5" cy="386.5" r="4.5" fill="white"/>
<ellipse cx="613.5" cy="429" rx="4.5" ry="4" fill="white"/>
<ellipse cx="749.5" cy="178" rx="4.5" ry="4" fill="white"/>
<ellipse cx="574.5" cy="197" rx="4.5" ry="4" fill="white"/>
<ellipse cx="622" cy="542.5" rx="4" ry="4.5" fill="white"/>
<ellipse cx="669.5" cy="372" rx="4.5" ry="4" fill="white"/>
<path d="M3.91276 3.92297V5.25141H5.07515V3.92297L5.73937 2.09636L5.07515 0.933975V0.269753L8.56231 -1.88897L9.22653 -3.54952H7.23387L5.07515 -0.726578V-3.05135L9.89075 -5.70824L10.3889 -7.86696H8.06414L5.07515 -4.21374V-6.70457L11.2192 -10.1917L11.5513 -12.6826L8.89442 -12.1844L5.07515 -8.03301L5.73937 -14.011L4.24487 -17L2.58432 -14.011L3.91276 -8.03301L-0.238623 -12.6826H-2.89551L-2.23129 -10.1917L3.91276 -6.70457V-4.21374L0.259543 -8.03301H-1.73312L-0.902844 -5.70824L4.07882 -3.05135V-0.726578L1.58799 -3.54952H-0.404678L0.093488 -1.88897L4.07882 0.269753V0.933975L3.24854 2.09636L3.91276 3.92297Z" fill="white"/>
<path d="M4.90853 10.7313L4.90853 9.40288L3.74614 9.40288L3.74614 10.7313L3.08192 12.5579L3.74614 13.7203L3.74614 14.3845L0.258981 16.5433L-0.405241 18.2038L1.58742 18.2038L3.74614 15.3809L3.74614 17.7056L-1.06946 20.3625L-1.56763 22.5213L0.757147 22.5213L3.74614 18.868L3.74614 21.3589L-2.3979 24.846L-2.73002 27.3369L-0.0731302 26.8387L3.74614 22.6873L3.08192 28.6653L4.57642 31.6543L6.23697 28.6653L4.90853 22.6873L9.05991 27.3369L11.7168 27.3369L11.0526 24.846L4.90853 21.3589L4.90853 18.868L8.56175 22.6873L10.5544 22.6873L9.72413 20.3625L4.74247 17.7056L4.74248 15.3809L7.2333 18.2038L9.22597 18.2038L8.7278 16.5433L4.74248 14.3845L4.74248 13.7203L5.57275 12.5579L4.90853 10.7313Z" fill="white"/>
<path d="M6.64709 5.32131L5.51951 6.02369L6.1341 7.01031L7.26167 6.30793L9.16327 5.90594L9.79871 4.72757L10.3625 4.37638L14.0386 6.19489L15.7992 5.8807L14.7456 4.18934L11.2082 3.8496L13.1814 2.62043L17.9827 5.30311L20.0784 4.58458L18.8492 2.61133L14.1681 2.00584L16.2822 0.688875L22.4906 4.06014L24.7804 3.02507L22.9528 1.03332L17.4098 -0.0135067L22.8351 -2.61044L24.5819 -5.45932L21.1669 -5.28842L16.7952 -1.00013L18.5468 -6.98213L17.142 -9.23728L15.379 -7.35653L15.6677 -0.29775L13.5535 1.01922L14.8637 -4.10096L13.8101 -5.79231L12.2759 -3.85841L12.6546 1.77475L10.6814 3.00392L11.7605 -0.602844L10.7069 -2.2942L9.56087 -0.993385L9.83571 3.5307L9.27192 3.88189L7.84631 3.79174L6.64709 5.32131Z" fill="white"/>
<path d="M1.93932 9.37578L3.08979 8.71156L2.5086 7.7049L1.35813 8.36912L-0.555869 8.7072L-1.23041 9.86362L-1.80565 10.1957L-5.41873 8.25512L-7.18893 8.51016L-6.19259 10.2359L-2.6685 10.6939L-4.68181 11.8563L-9.39054 9.01429L-11.5091 9.66223L-10.3467 11.6755L-5.68847 12.4375L-7.84559 13.6829L-13.9376 10.1056L-16.2608 11.0634L-14.5009 13.1152L-8.99605 14.3471L-14.5053 16.7609L-16.3466 19.5496L-12.9277 19.4932L-8.41486 15.3538L-10.3658 21.2737L-9.03736 23.5747L-7.21234 21.754L-7.2644 14.6896L-5.10727 13.4441L-6.58825 18.5176L-5.59192 20.2432L-3.99375 18.3618L-4.18364 12.7191L-2.17033 11.5567L-3.36965 15.1253L-2.37332 16.851L-1.18432 15.5893L-1.30748 11.0586L-0.732248 10.7265L0.689546 10.8643L1.93932 9.37578Z" fill="white"/>
<path d="M7.73733 8.37822L6.57085 7.74253L6.01462 8.7632L7.1811 9.39888L8.46716 10.8562L9.80566 10.8292L10.3889 11.147L10.6157 15.242L11.756 16.6199L12.7095 14.8701L11.2638 11.6238L13.3051 12.7362L13.3337 18.2361L14.9908 19.7065L16.1033 17.6652L14.3258 13.2925L16.5129 14.4844L16.6348 21.548L18.6631 23.0315L19.497 20.4602L17.6794 15.1201L22.6107 18.5639L25.9504 18.6819L24.1204 15.7935L18.2356 14.0994L24.3048 12.6791L25.5761 10.3461L23.0712 9.73745L17.0691 13.4637L14.882 12.2718L19.9837 10.8916L20.9373 9.14189L18.4986 8.75848L13.7819 11.8614L11.7405 10.7489L15.4112 9.91263L16.3647 8.16292L14.6682 7.80574L10.8657 10.2722L10.2824 9.95432L9.65907 8.66905L7.73733 8.37822Z" fill="white"/>
<path d="M1.47733 6.19698L2.57771 6.94125L3.22894 5.97842L2.12856 5.23415L0.987674 3.6606L-0.347288 3.55956L-0.897477 3.18743L-0.731897 -0.910493L-1.73524 -2.39101L-2.85163 -0.740446L-1.72276 2.62923L-3.64842 1.32677L-3.15122 -4.15063L-4.66023 -5.7727L-5.96269 -3.84704L-4.61125 0.675535L-6.67446 -0.71996L-6.12073 -7.7629L-7.99787 -9.43349L-9.07376 -6.95363L-7.77484 -1.46422L-12.3544 -5.3636L-15.6675 -5.80027L-14.122 -2.7502L-8.42607 -0.501394L-14.6032 0.332361L-16.0917 2.53312L-13.6564 3.37842L-7.32569 0.24287L-5.26248 1.63837L-10.4728 2.52464L-11.5892 4.17521L-9.19836 4.78994L-4.20662 2.15205L-2.28096 3.45451L-6.01475 3.93616L-7.13115 5.58672L-5.47658 6.10441L-1.45568 4.01271L-0.905486 4.38484L-0.407822 5.72381L1.47733 6.19698Z" fill="white"/>
<circle cx="4.57673" cy="7.40974" r="2.32477" fill="white"/>
<path d="M796.913 242.923V244.251H798.075V242.923L798.739 241.096L798.075 239.934V239.27L801.562 237.111L802.227 235.45H800.234L798.075 238.273V235.949L802.891 233.292L803.389 231.133H801.064L798.075 234.786V232.295L804.219 228.808L804.551 226.317L801.894 226.816L798.075 230.967L798.739 224.989L797.245 222L795.584 224.989L796.913 230.967L792.761 226.317H790.104L790.769 228.808L796.913 232.295V234.786L793.26 230.967H791.267L792.097 233.292L797.079 235.949V238.273L794.588 235.45H792.595L793.093 237.111L797.079 239.27V239.934L796.249 241.096L796.913 242.923Z" fill="white"/>
<path d="M797.909 249.732L797.909 248.404L796.746 248.404L796.746 249.732L796.082 251.559L796.746 252.721L796.746 253.386L793.259 255.544L792.595 257.205L794.587 257.205L796.746 254.382L796.746 256.707L791.931 259.364L791.432 261.522L793.757 261.522L796.746 257.869L796.746 260.36L790.602 263.847L790.27 266.338L792.927 265.84L796.746 261.688L796.082 267.666L797.576 270.655L799.237 267.666L797.909 261.688L802.06 266.338L804.717 266.338L804.053 263.847L797.909 260.36L797.909 257.869L801.562 261.688L803.554 261.688L802.724 259.364L797.742 256.707L797.742 254.382L800.233 257.205L802.226 257.205L801.728 255.544L797.742 253.386L797.742 252.721L798.573 251.559L797.909 249.732Z" fill="white"/>
<path d="M799.647 244.321L798.52 245.023L799.134 246.01L800.262 245.307L802.163 244.905L802.799 243.727L803.362 243.376L807.039 245.194L808.799 244.88L807.746 243.189L804.208 242.849L806.181 241.62L810.983 244.303L813.078 243.584L811.849 241.611L807.168 241.005L809.282 239.688L815.491 243.06L817.78 242.025L815.953 240.033L810.41 238.986L815.835 236.389L817.582 233.54L814.167 233.711L809.795 237.999L811.547 232.017L810.142 229.762L808.379 231.643L808.668 238.702L806.553 240.019L807.864 234.899L806.81 233.207L805.276 235.141L805.655 240.774L803.681 242.003L804.761 238.397L803.707 236.705L802.561 238.006L802.836 242.53L802.272 242.881L800.846 242.791L799.647 244.321Z" fill="white"/>
<path d="M794.939 248.377L796.09 247.713L795.509 246.706L794.358 247.37L792.444 247.708L791.77 248.865L791.194 249.197L787.581 247.256L785.811 247.511L786.807 249.237L790.332 249.695L788.318 250.857L783.609 248.015L781.491 248.663L782.653 250.677L787.312 251.438L785.154 252.684L779.062 249.107L776.739 250.064L778.499 252.116L784.004 253.348L778.495 255.762L776.653 258.551L780.072 258.494L784.585 254.355L782.634 260.275L783.963 262.576L785.788 260.755L785.736 253.691L787.893 252.445L786.412 257.519L787.408 259.244L789.006 257.363L788.816 251.72L790.83 250.558L789.63 254.126L790.627 255.852L791.816 254.59L791.693 250.06L792.268 249.727L793.69 249.865L794.939 248.377Z" fill="white"/>
<path d="M800.737 247.377L799.571 246.742L799.015 247.762L800.181 248.398L801.467 249.855L802.806 249.828L803.389 250.146L803.616 254.241L804.756 255.619L805.71 253.869L804.264 250.623L806.305 251.735L806.334 257.235L807.991 258.706L809.103 256.664L807.326 252.291L809.513 253.483L809.635 260.547L811.663 262.031L812.497 259.459L810.679 254.119L815.611 257.563L818.95 257.681L817.12 254.793L811.236 253.098L817.305 251.678L818.576 249.345L816.071 248.736L810.069 252.463L807.882 251.271L812.984 249.891L813.937 248.141L811.499 247.758L806.782 250.86L804.741 249.748L808.411 248.912L809.365 247.162L807.668 246.805L803.866 249.271L803.282 248.953L802.659 247.668L800.737 247.377Z" fill="white"/>
<path d="M794.477 245.196L795.578 245.94L796.229 244.977L795.129 244.233L793.988 242.66L792.653 242.559L792.103 242.186L792.268 238.089L791.265 236.608L790.148 238.259L791.277 241.628L789.352 240.326L789.849 234.848L788.34 233.226L787.037 235.152L788.389 239.675L786.326 238.279L786.879 231.236L785.002 229.566L783.926 232.045L785.225 237.535L780.646 233.635L777.332 233.199L778.878 236.249L784.574 238.498L778.397 239.331L776.908 241.532L779.344 242.377L785.674 239.242L787.738 240.637L782.527 241.524L781.411 243.174L783.802 243.789L788.793 241.151L790.719 242.454L786.985 242.935L785.869 244.586L787.523 245.103L791.544 243.012L792.095 243.384L792.592 244.723L794.477 245.196Z" fill="white"/>
<circle cx="797.577" cy="246.411" r="2.32477" fill="white"/>
<path d="M798.171 36.7966V36.2315H798.666V36.7966L798.948 37.5736L798.666 38.068V38.3506L800.149 39.2688L800.432 39.9752H799.584L798.666 38.7744V39.7633L800.714 40.8935L800.926 41.8118H799.937L798.666 40.2578V41.3173L801.28 42.8007L801.421 43.8602L800.291 43.6483L798.666 41.8824L798.948 44.4253L798.313 45.6968L797.606 44.4253L798.171 41.8824L796.406 43.8602H795.275L795.558 42.8007L798.171 41.3173V40.2578L796.617 41.8824H795.77L796.123 40.8935L798.242 39.7633V38.7744L797.183 39.9752H796.335L796.547 39.2688L798.242 38.3506V38.068L797.889 37.5736L798.171 36.7966Z" fill="white"/>
<path d="M798.595 33.9002L798.595 34.4653L798.101 34.4653L798.101 33.9002L797.818 33.1232L798.101 32.6288L798.101 32.3462L796.617 31.4279L796.335 30.7216L797.182 30.7216L798.101 31.9224L798.101 30.9335L796.052 29.8033L795.84 28.885L796.829 28.885L798.101 30.439L798.101 29.3795L795.487 27.8961L795.346 26.8366L796.476 27.0485L798.101 28.8144L797.818 26.2715L798.454 25L799.16 26.2715L798.595 28.8144L800.361 26.8366L801.491 26.8366L801.209 27.8961L798.595 29.3795L798.595 30.439L800.149 28.8144L800.997 28.8144L800.644 29.8033L798.524 30.9335L798.524 31.9224L799.584 30.7216L800.432 30.7216L800.22 31.4279L798.524 32.3462L798.524 32.6288L798.878 33.1232L798.595 33.9002Z" fill="white"/>
<path d="M799.335 36.2018L798.856 35.903L799.117 35.4833L799.597 35.7821L800.406 35.9531L800.676 36.4543L800.916 36.6037L802.479 35.8301L803.228 35.9638L802.78 36.6833L801.275 36.8278L802.115 37.3507L804.157 36.2095L805.049 36.5151L804.526 37.3545L802.534 37.6121L803.434 38.1723L806.075 36.7382L807.049 37.1785L806.271 38.0258L803.913 38.4711L806.221 39.5758L806.964 40.7876L805.512 40.7149L803.652 38.8908L804.397 41.4354L803.8 42.3947L803.05 41.5947L803.172 38.592L802.273 38.0318L802.83 40.2098L802.382 40.9293L801.73 40.1066L801.891 37.7104L801.051 37.1875L801.51 38.7218L801.062 39.4412L800.575 38.8879L800.692 36.9634L800.452 36.8141L799.845 36.8524L799.335 36.2018Z" fill="white"/>
<path d="M797.332 34.4768L797.821 34.7593L797.574 35.1875L797.085 34.905L796.271 34.7612L795.984 34.2692L795.739 34.128L794.202 34.9535L793.449 34.845L793.873 34.1109L795.372 33.9161L794.516 33.4216L792.513 34.6305L791.611 34.3549L792.106 33.4985L794.087 33.1744L793.17 32.6446L790.578 34.1663L789.59 33.7589L790.339 32.8861L792.68 32.3621L790.337 31.3353L789.554 30.149L791.008 30.173L792.928 31.9338L792.098 29.4156L792.663 28.4368L793.439 29.2113L793.417 32.2164L794.335 32.7462L793.705 30.588L794.128 29.854L794.808 30.6543L794.727 33.0546L795.584 33.549L795.074 32.031L795.498 31.2969L796.003 31.8336L795.951 33.7609L796.196 33.9022L796.8 33.8436L797.332 34.4768Z" fill="white"/>
<path d="M799.799 34.902L799.303 35.1724L799.066 34.7382L799.562 34.4678L800.11 33.8479L800.679 33.8594L800.927 33.7242L801.024 31.9823L801.509 31.3961L801.914 32.1404L801.299 33.5214L802.167 33.0482L802.18 30.7086L802.885 30.0831L803.358 30.9515L802.602 32.8115L803.532 32.3045L803.584 29.2998L804.447 28.6687L804.801 29.7625L804.028 32.0341L806.126 30.5692L807.547 30.519L806.768 31.7476L804.265 32.4683L806.847 33.0725L807.387 34.0649L806.322 34.3238L803.769 32.7387L802.838 33.2457L805.008 33.8328L805.414 34.5771L804.377 34.7402L802.37 33.4203L801.502 33.8935L803.063 34.2493L803.469 34.9936L802.747 35.1455L801.13 34.0963L800.882 34.2315L800.617 34.7783L799.799 34.902Z" fill="white"/>
<path d="M797.136 35.8295L797.604 35.5129L797.881 35.9225L797.413 36.2391L796.928 36.9084L796.36 36.9514L796.126 37.1097L796.197 38.8529L795.77 39.4827L795.295 38.7806L795.775 37.3472L794.956 37.9012L795.168 40.2312L794.526 40.9212L793.972 40.1021L794.546 38.1782L793.669 38.7719L793.904 41.7678L793.106 42.4784L792.648 41.4235L793.201 39.0884L791.253 40.7472L789.843 40.9329L790.501 39.6355L792.924 38.6789L790.296 38.3242L789.663 37.3881L790.699 37.0285L793.392 38.3623L794.269 37.7687L792.053 37.3917L791.578 36.6895L792.595 36.4281L794.719 37.5502L795.538 36.9961L793.949 36.7912L793.475 36.0891L794.178 35.8689L795.889 36.7587L796.123 36.6004L796.334 36.0308L797.136 35.8295Z" fill="white"/>
<circle cx="0.988914" cy="0.988914" r="0.988914" transform="matrix(1 0 0 -1 797.466 36.3018)" fill="white"/>
</g>
</svg>
