<svg width="930" height="590" viewBox="0 0 930 590" fill="none" xmlns="http://www.w3.org/2000/svg">
<rect width="930" height="590" fill="#004E4D"/>
<circle cx="34.5" cy="129.086" r="2.5" fill="white"/>
<circle cx="63" cy="220" r="3" fill="white"/>
<circle cx="544.5" cy="66.5" r="2.5" fill="white"/>
<circle cx="89.1631" cy="556.892" r="1" fill="white"/>
<circle cx="734.5" cy="245.5" r="2.5" fill="white"/>
<circle cx="614" cy="362" r="2" fill="white"/>
<circle cx="680" cy="88" r="3" fill="white"/>
<circle cx="199.5" cy="535.5" r="3.5" fill="white"/>
<circle cx="813.5" cy="393.5" r="5.5" fill="white"/>
<circle cx="495.5" cy="22.5" r="5.5" fill="white"/>
<circle cx="820.5" cy="184.5" r="1.5" fill="white"/>
<path d="M736.014 45.9639V46.8103H736.744V45.9639L737.162 44.8001L736.744 44.0595V43.6363L738.934 42.2608L739.351 41.2028H738.1L736.744 43.0015V41.5202L739.768 39.8274L740.081 38.4519H738.621L736.744 40.7796V39.1926L740.603 36.9707L740.811 35.3837L739.143 35.7011L736.744 38.3461L737.162 34.5373L736.223 32.6328L735.18 34.5373L736.014 38.3461L733.408 35.3837H731.739L732.156 36.9707L736.014 39.1926V40.7796L733.72 38.3461H732.469L732.991 39.8274L736.119 41.5202V43.0015L734.555 41.2028H733.303L733.616 42.2608L736.119 43.6363V44.0595L735.597 44.8001L736.014 45.9639Z" fill="white"/>
<path d="M736.641 50.3017L736.641 49.4553L735.911 49.4553L735.911 50.3017L735.494 51.4655L735.911 52.2061L735.911 52.6294L733.721 54.0048L733.304 55.0628L734.555 55.0628L735.911 53.2642L735.911 54.7454L732.887 56.4382L732.574 57.8137L734.034 57.8137L735.911 55.486L735.911 57.0731L732.053 59.2949L731.844 60.8819L733.513 60.5645L735.911 57.9195L735.494 61.7284L736.432 63.6328L737.475 61.7284L736.641 57.9195L739.248 60.8819L740.916 60.8819L740.499 59.2949L736.641 57.0731L736.641 55.486L738.935 57.9195L740.186 57.9195L739.665 56.4382L736.537 54.7454L736.537 53.2642L738.101 55.0628L739.352 55.0628L739.039 54.0048L736.537 52.6294L736.537 52.2061L737.058 51.4655L736.641 50.3017Z" fill="white"/>
<path d="M737.733 46.8547L737.025 47.3022L737.41 47.9309L738.118 47.4833L739.313 47.2272L739.712 46.4764L740.066 46.2526L742.374 47.4113L743.48 47.2111L742.818 46.1335L740.597 45.917L741.836 45.1338L744.851 46.8431L746.167 46.3853L745.395 45.128L742.455 44.7422L743.783 43.9031L747.681 46.0512L749.119 45.3917L747.972 44.1226L744.491 43.4556L747.898 41.801L748.995 39.9858L746.85 40.0947L744.105 42.827L745.205 39.0155L744.323 37.5787L743.216 38.777L743.397 43.2745L742.069 44.1136L742.892 40.8513L742.231 39.7736L741.267 41.0058L741.505 44.595L740.266 45.3782L740.944 43.0801L740.282 42.0025L739.562 42.8313L739.735 45.7138L739.381 45.9376L738.486 45.8801L737.733 46.8547Z" fill="white"/>
<path d="M734.777 49.438L735.499 49.0148L735.134 48.3734L734.412 48.7966L733.21 49.012L732.786 49.7488L732.425 49.9604L730.156 48.724L729.045 48.8865L729.67 49.986L731.883 50.2778L730.619 51.0185L727.662 49.2077L726.332 49.6205L727.062 50.9033L729.987 51.3888L728.632 52.1823L724.807 49.903L723.348 50.5132L724.453 51.8206L727.91 52.6055L724.45 54.1434L723.294 55.9203L725.441 55.8843L728.275 53.2469L727.05 57.0188L727.884 58.4849L729.03 57.3248L728.997 52.8237L730.352 52.0302L729.422 55.2627L730.048 56.3622L731.051 55.1635L730.932 51.5682L732.196 50.8276L731.443 53.1013L732.069 54.2009L732.815 53.397L732.738 50.5102L733.099 50.2986L733.992 50.3864L734.777 49.438Z" fill="white"/>
<path d="M738.417 48.8025L737.684 48.3975L737.335 49.0478L738.067 49.4529L738.875 50.3814L739.715 50.3642L740.082 50.5667L740.224 53.1758L740.94 54.0537L741.539 52.9389L740.631 50.8705L741.913 51.5793L741.931 55.0835L742.971 56.0204L743.67 54.7197L742.554 51.9337L743.927 52.6931L744.004 57.1937L745.277 58.1389L745.801 56.5006L744.66 53.0981L747.756 55.2924L749.853 55.3676L748.704 53.5272L745.009 52.4478L748.82 51.5428L749.618 50.0564L748.045 49.6686L744.276 52.0428L742.903 51.2834L746.107 50.404L746.705 49.2891L745.174 49.0448L742.212 51.0219L740.93 50.3131L743.235 49.7802L743.834 48.6654L742.769 48.4378L740.381 50.0093L740.015 49.8068L739.623 48.9879L738.417 48.8025Z" fill="white"/>
<path d="M734.486 47.4127L735.177 47.8869L735.586 47.2734L734.895 46.7992L734.179 45.7966L733.34 45.7322L732.995 45.4951L733.099 42.8841L732.469 41.9408L731.768 42.9925L732.477 45.1395L731.267 44.3096L731.58 40.8197L730.632 39.7862L729.814 41.0131L730.663 43.8947L729.367 43.0055L729.715 38.5181L728.536 37.4537L727.861 39.0337L728.676 42.5313L725.801 40.0468L723.72 39.7686L724.691 41.7119L728.267 43.1448L724.388 43.676L723.454 45.0782L724.983 45.6168L728.958 43.619L730.254 44.5081L726.982 45.0728L726.281 46.1245L727.782 46.5162L730.917 44.8354L732.126 45.6653L729.782 45.9722L729.08 47.0238L730.119 47.3537L732.644 46.0209L732.99 46.2581L733.302 47.1112L734.486 47.4127Z" fill="white"/>
<ellipse cx="736.432" cy="48.1856" rx="1.45984" ry="1.48123" fill="white"/>
<path d="M50.0145 355.331V356.178H50.7444V355.331L51.1615 354.167L50.7444 353.427V353.003L52.9342 351.628L53.3513 350.57H52.1L50.7444 352.369V350.887L53.7684 349.195L54.0812 347.819H52.6213L50.7444 350.147V348.56L54.6026 346.338L54.8111 344.751L53.1427 345.068L50.7444 347.713L51.1615 343.904L50.223 342L49.1803 343.904L50.0145 347.713L47.4076 344.751H45.7393L46.1564 346.338L50.0145 348.56V350.147L47.7205 347.713H46.4692L46.9905 349.195L50.1188 350.887V352.369L48.5547 350.57H47.3034L47.6162 351.628L50.1188 353.003V353.427L49.5974 354.167L50.0145 355.331Z" fill="white"/>
<path d="M50.6408 359.669L50.6408 358.822L49.9109 358.822L49.9109 359.669L49.4938 360.833L49.9109 361.573L49.9109 361.997L47.7211 363.372L47.304 364.43L48.5553 364.43L49.9109 362.631L49.9109 364.113L46.8869 365.805L46.5741 367.181L48.0339 367.181L49.9109 364.853L49.9109 366.44L46.0527 368.662L45.8442 370.249L47.5126 369.932L49.9109 367.287L49.4938 371.096L50.4322 373L51.475 371.096L50.6408 367.287L53.2476 370.249L54.916 370.249L54.4989 368.662L50.6408 366.44L50.6408 364.853L52.9348 367.287L54.1861 367.287L53.6647 365.805L50.5365 364.113L50.5365 362.631L52.1006 364.43L53.3519 364.43L53.0391 363.372L50.5365 361.997L50.5365 361.573L51.0579 360.833L50.6408 359.669Z" fill="white"/>
<path d="M51.7326 356.222L51.0245 356.669L51.4104 357.298L52.1185 356.851L53.3126 356.594L53.7116 355.844L54.0656 355.62L56.374 356.779L57.4796 356.578L56.818 355.501L54.5967 355.284L55.8358 354.501L58.8507 356.21L60.1667 355.752L59.3949 354.495L56.4553 354.109L57.7829 353.27L61.6815 355.418L63.1194 354.759L61.9717 353.49L58.491 352.823L61.8978 351.168L62.9947 349.353L60.8503 349.462L58.1051 352.194L59.205 348.383L58.3228 346.946L57.2158 348.144L57.397 352.642L56.0694 353.481L56.8922 350.218L56.2306 349.141L55.2671 350.373L55.505 353.962L54.2659 354.745L54.9435 352.447L54.2819 351.37L53.5623 352.198L53.7348 355.081L53.3808 355.305L52.4856 355.247L51.7326 356.222Z" fill="white"/>
<path d="M48.7768 358.805L49.4993 358.382L49.1343 357.741L48.4119 358.164L47.21 358.379L46.7864 359.116L46.4252 359.328L44.1563 358.091L43.0448 358.254L43.6704 359.353L45.8833 359.645L44.6191 360.386L41.6623 358.575L40.3319 358.988L41.0618 360.27L43.987 360.756L42.6324 361.549L38.807 359.27L37.3481 359.88L38.4532 361.188L41.91 361.973L38.4505 363.511L37.2942 365.287L39.4411 365.252L42.2749 362.614L41.0498 366.386L41.884 367.852L43.03 366.692L42.9974 362.191L44.3519 361.397L43.4219 364.63L44.0476 365.729L45.0512 364.531L44.9319 360.935L46.1962 360.195L45.4431 362.469L46.0687 363.568L46.8153 362.764L46.738 359.877L47.0992 359.666L47.992 359.754L48.7768 358.805Z" fill="white"/>
<path d="M52.4166 358.17L51.6841 357.765L51.3348 358.415L52.0673 358.82L52.8749 359.749L53.7154 359.731L54.0817 359.934L54.2241 362.543L54.9401 363.421L55.5389 362.306L54.631 360.238L55.9129 360.946L55.9308 364.451L56.9714 365.388L57.67 364.087L56.5538 361.301L57.9272 362.06L58.0038 366.561L59.2774 367.506L59.8011 365.868L58.6597 362.465L61.7563 364.66L63.8534 364.735L62.7043 362.894L59.009 361.815L62.8201 360.91L63.6184 359.424L62.0454 359.036L58.2765 361.41L56.9031 360.651L60.1067 359.771L60.7055 358.656L59.1741 358.412L56.2122 360.389L54.9304 359.68L57.2354 359.147L57.8342 358.033L56.7689 357.805L54.381 359.376L54.0148 359.174L53.6234 358.355L52.4166 358.17Z" fill="white"/>
<path d="M48.4862 356.78L49.1771 357.254L49.5861 356.641L48.8951 356.166L48.1787 355.164L47.3404 355.099L46.9949 354.862L47.0989 352.251L46.4688 351.308L45.7678 352.36L46.4767 354.507L45.2674 353.677L45.5797 350.187L44.6321 349.153L43.8142 350.38L44.6628 353.262L43.3673 352.373L43.715 347.885L42.5362 346.821L41.8606 348.401L42.6763 351.899L39.8005 349.414L37.7201 349.136L38.6906 351.079L42.2673 352.512L38.3884 353.043L37.4537 354.445L38.983 354.984L42.9583 352.986L44.2539 353.875L40.9821 354.44L40.2811 355.492L41.7824 355.883L44.9169 354.203L46.1261 355.032L43.7815 355.339L43.0805 356.391L44.1195 356.721L46.6444 355.388L46.9899 355.625L47.3024 356.478L48.4862 356.78Z" fill="white"/>
<ellipse cx="50.4325" cy="357.553" rx="1.45984" ry="1.48123" fill="white"/>
<path d="M33.9168 484.469V484.687H34.1052V484.469L34.2128 484.168L34.1052 483.977V483.868L34.6703 483.513L34.778 483.24H34.455L34.1052 483.704V483.322L34.8856 482.885L34.9664 482.53H34.5896L34.1052 483.131V482.721L35.1009 482.148L35.1547 481.738L34.7242 481.82L34.1052 482.503L34.2128 481.52L33.9706 481.028L33.7015 481.52L33.9168 482.503L33.2441 481.738H32.8135L32.9211 482.148L33.9168 482.721V483.131L33.3248 482.503H33.0019L33.1364 482.885L33.9437 483.322V483.704L33.5401 483.24H33.2171L33.2979 483.513L33.9437 483.868V483.977L33.8092 484.168L33.9168 484.469Z" fill="white"/>
<path d="M34.0783 485.588L34.0783 485.369L33.8899 485.369L33.8899 485.588L33.7823 485.888L33.8899 486.079L33.8899 486.189L33.3248 486.543L33.2171 486.816L33.5401 486.816L33.8899 486.352L33.8899 486.735L33.1095 487.171L33.0288 487.526L33.4055 487.526L33.8899 486.926L33.8899 487.335L32.8942 487.909L32.8404 488.318L33.271 488.236L33.8899 487.554L33.7823 488.537L34.0245 489.028L34.2936 488.537L34.0783 487.554L34.7511 488.318L35.1816 488.318L35.074 487.909L34.0783 487.335L34.0783 486.926L34.6703 487.554L34.9933 487.554L34.8587 487.171L34.0514 486.735L34.0514 486.352L34.455 486.816L34.778 486.816L34.6972 486.543L34.0514 486.189L34.0514 486.079L34.1859 485.888L34.0783 485.588Z" fill="white"/>
<path d="M34.3596 484.699L34.1769 484.814L34.2765 484.976L34.4592 484.861L34.7674 484.795L34.8703 484.601L34.9617 484.543L35.5575 484.842L35.8428 484.791L35.672 484.512L35.0988 484.457L35.4186 484.254L36.1966 484.696L36.5363 484.577L36.3371 484.253L35.5784 484.153L35.9211 483.937L36.9272 484.491L37.2983 484.321L37.0021 483.994L36.1038 483.821L36.983 483.394L37.2661 482.926L36.7127 482.954L36.0042 483.659L36.2881 482.676L36.0604 482.305L35.7747 482.614L35.8215 483.775L35.4788 483.991L35.6912 483.149L35.5204 482.871L35.2718 483.189L35.3332 484.115L35.0134 484.318L35.1883 483.724L35.0175 483.446L34.8318 483.66L34.8763 484.404L34.785 484.462L34.5539 484.447L34.3596 484.699Z" fill="white"/>
<path d="M33.5977 485.365L33.7842 485.256L33.69 485.09L33.5035 485.2L33.1933 485.255L33.084 485.445L32.9908 485.5L32.4053 485.181L32.1184 485.223L32.2799 485.507L32.851 485.582L32.5247 485.773L31.7616 485.306L31.4183 485.412L31.6066 485.743L32.3616 485.869L32.012 486.073L31.0247 485.485L30.6482 485.643L30.9334 485.98L31.8255 486.183L30.9327 486.579L30.6343 487.038L31.1884 487.029L31.9197 486.348L31.6035 487.321L31.8188 487.7L32.1146 487.4L32.1062 486.239L32.4557 486.034L32.2157 486.868L32.3772 487.152L32.6362 486.843L32.6054 485.915L32.9317 485.724L32.7373 486.31L32.8988 486.594L33.0915 486.387L33.0715 485.642L33.1648 485.587L33.3952 485.61L33.5977 485.365Z" fill="white"/>
<path d="M34.5366 485.201L34.3476 485.097L34.2575 485.265L34.4465 485.369L34.6549 485.609L34.8718 485.604L34.9664 485.656L35.0031 486.33L35.1879 486.556L35.3424 486.269L35.1081 485.735L35.439 485.918L35.4436 486.822L35.7122 487.064L35.8924 486.728L35.6044 486.009L35.9588 486.205L35.9786 487.367L36.3073 487.611L36.4424 487.188L36.1479 486.31L36.947 486.876L37.4883 486.895L37.1917 486.42L36.238 486.142L37.2216 485.908L37.4276 485.525L37.0217 485.425L36.049 486.037L35.6945 485.841L36.5213 485.614L36.6758 485.327L36.2806 485.264L35.5162 485.774L35.1854 485.591L35.7803 485.454L35.9348 485.166L35.6599 485.107L35.0436 485.513L34.9491 485.46L34.8481 485.249L34.5366 485.201Z" fill="white"/>
<path d="M33.5215 484.842L33.6999 484.965L33.8054 484.806L33.6271 484.684L33.4422 484.425L33.2258 484.409L33.1367 484.348L33.1635 483.674L33.0009 483.43L32.82 483.702L33.0029 484.256L32.6909 484.042L32.7714 483.141L32.5269 482.874L32.3158 483.191L32.5348 483.935L32.2005 483.705L32.2902 482.547L31.986 482.272L31.8116 482.68L32.0221 483.583L31.28 482.942L30.743 482.87L30.9935 483.371L31.9166 483.741L30.9155 483.878L30.6743 484.24L31.069 484.379L32.0949 483.863L32.4293 484.093L31.5849 484.239L31.404 484.51L31.7914 484.611L32.6004 484.177L32.9125 484.392L32.3074 484.471L32.1264 484.742L32.3946 484.827L33.0462 484.483L33.1354 484.544L33.216 484.765L33.5215 484.842Z" fill="white"/>
<ellipse cx="34.0242" cy="485.042" rx="0.376754" ry="0.382248" fill="white"/>
<path d="M542.875 241.44V241.659H543.063V241.44L543.171 241.14L543.063 240.949V240.84L543.628 240.485L543.736 240.212H543.413L543.063 240.676V240.293L543.844 239.857L543.924 239.502H543.548L543.063 240.102V239.693L544.059 239.119L544.113 238.71L543.682 238.792L543.063 239.474L543.171 238.491L542.929 238L542.66 238.491L542.875 239.474L542.202 238.71H541.771L541.879 239.119L542.875 239.693V240.102L542.283 239.474H541.96L542.094 239.857L542.902 240.293V240.676L542.498 240.212H542.175L542.256 240.485L542.902 240.84V240.949L542.767 241.14L542.875 241.44Z" fill="white"/>
<path d="M543.036 242.56L543.036 242.341L542.848 242.341L542.848 242.56L542.74 242.86L542.848 243.051L542.848 243.16L542.283 243.515L542.175 243.788L542.498 243.788L542.848 243.324L542.848 243.706L542.068 244.143L541.987 244.498L542.364 244.498L542.848 243.897L542.848 244.307L541.852 244.88L541.798 245.29L542.229 245.208L542.848 244.525L542.74 245.508L542.982 246L543.252 245.508L543.036 244.525L543.709 245.29L544.14 245.29L544.032 244.88L543.036 244.307L543.036 243.897L543.628 244.525L543.951 244.525L543.817 244.143L543.009 243.706L543.009 243.324L543.413 243.788L543.736 243.788L543.655 243.515L543.009 243.16L543.009 243.051L543.144 242.86L543.036 242.56Z" fill="white"/>
<path d="M543.318 241.67L543.135 241.786L543.234 241.948L543.417 241.832L543.725 241.766L543.828 241.573L543.92 241.515L544.515 241.814L544.801 241.762L544.63 241.484L544.057 241.428L544.377 241.226L545.155 241.667L545.494 241.549L545.295 241.225L544.536 241.125L544.879 240.909L545.885 241.463L546.256 241.293L545.96 240.965L545.062 240.793L545.941 240.366L546.224 239.898L545.671 239.926L544.962 240.631L545.246 239.647L545.018 239.276L544.733 239.586L544.779 240.746L544.437 240.963L544.649 240.121L544.478 239.843L544.23 240.161L544.291 241.087L543.971 241.289L544.146 240.696L543.976 240.418L543.79 240.632L543.834 241.376L543.743 241.434L543.512 241.419L543.318 241.67Z" fill="white"/>
<path d="M542.556 242.337L542.742 242.228L542.648 242.062L542.462 242.171L542.151 242.227L542.042 242.417L541.949 242.472L541.363 242.153L541.076 242.194L541.238 242.478L541.809 242.554L541.483 242.745L540.72 242.277L540.376 242.384L540.565 242.715L541.32 242.84L540.97 243.045L539.983 242.457L539.606 242.614L539.891 242.952L540.784 243.154L539.891 243.551L539.592 244.01L540.146 244L540.878 243.32L540.562 244.293L540.777 244.671L541.073 244.372L541.064 243.21L541.414 243.006L541.174 243.84L541.335 244.124L541.594 243.814L541.563 242.887L541.89 242.695L541.695 243.282L541.857 243.566L542.05 243.358L542.03 242.613L542.123 242.559L542.353 242.582L542.556 242.337Z" fill="white"/>
<path d="M543.495 242.173L543.306 242.068L543.215 242.236L543.405 242.341L543.613 242.58L543.83 242.576L543.924 242.628L543.961 243.301L544.146 243.528L544.3 243.24L544.066 242.707L544.397 242.889L544.402 243.794L544.67 244.036L544.85 243.7L544.562 242.981L544.917 243.177L544.937 244.338L545.265 244.582L545.4 244.159L545.106 243.281L545.905 243.848L546.446 243.867L546.15 243.392L545.196 243.114L546.18 242.88L546.386 242.496L545.98 242.396L545.007 243.009L544.653 242.813L545.479 242.586L545.634 242.298L545.239 242.235L544.474 242.746L544.143 242.563L544.738 242.425L544.893 242.138L544.618 242.079L544.002 242.484L543.907 242.432L543.806 242.221L543.495 242.173Z" fill="white"/>
<path d="M542.48 241.814L542.658 241.936L542.763 241.778L542.585 241.656L542.4 241.397L542.184 241.38L542.095 241.319L542.122 240.645L541.959 240.402L541.778 240.673L541.961 241.227L541.649 241.013L541.729 240.113L541.485 239.846L541.274 240.163L541.493 240.906L541.158 240.677L541.248 239.519L540.944 239.244L540.77 239.652L540.98 240.554L540.238 239.913L539.701 239.841L539.952 240.343L540.875 240.713L539.874 240.85L539.632 241.212L540.027 241.351L541.053 240.835L541.387 241.065L540.543 241.21L540.362 241.482L540.749 241.583L541.558 241.149L541.87 241.363L541.265 241.442L541.084 241.714L541.353 241.799L542.004 241.455L542.093 241.516L542.174 241.736L542.48 241.814Z" fill="white"/>
<ellipse cx="542.982" cy="242.014" rx="0.376754" ry="0.382248" fill="white"/>
<path d="M349.75 550.881V551.317H350.126V550.881L350.342 550.28L350.126 549.898V549.679L351.256 548.969L351.472 548.423H350.826L350.126 549.352V548.587L351.687 547.713L351.848 547.003H351.095L350.126 548.205V547.386L352.118 546.239L352.225 545.42L351.364 545.584L350.126 546.949L350.342 544.983L349.857 544L349.319 544.983L349.75 546.949L348.404 545.42H347.543L347.758 546.239L349.75 547.386V548.205L348.566 546.949H347.92L348.189 547.713L349.803 548.587V549.352L348.996 548.423H348.35L348.512 548.969L349.803 549.679V549.898L349.534 550.28L349.75 550.881Z" fill="white"/>
<path d="M350.074 553.12L350.074 552.683L349.697 552.683L349.697 553.12L349.482 553.72L349.697 554.102L349.697 554.321L348.567 555.031L348.351 555.577L348.997 555.577L349.697 554.649L349.697 555.413L348.136 556.287L347.975 556.997L348.728 556.997L349.697 555.795L349.697 556.614L347.706 557.761L347.598 558.58L348.459 558.417L349.697 557.051L349.482 559.017L349.966 560L350.504 559.017L350.074 557.051L351.419 558.58L352.28 558.58L352.065 557.761L350.074 556.614L350.074 555.795L351.258 557.051L351.904 557.051L351.634 556.287L350.02 555.413L350.02 554.649L350.827 555.577L351.473 555.577L351.312 555.031L350.02 554.321L350.02 554.102L350.289 553.72L350.074 553.12Z" fill="white"/>
<path d="M350.636 551.34L350.271 551.571L350.47 551.896L350.836 551.665L351.452 551.533L351.658 551.145L351.841 551.03L353.032 551.628L353.603 551.524L353.261 550.968L352.115 550.856L352.754 550.452L354.31 551.334L354.99 551.098L354.591 550.449L353.074 550.25L353.759 549.817L355.771 550.926L356.514 550.585L355.921 549.93L354.125 549.586L355.883 548.732L356.449 547.795L355.342 547.851L353.925 549.262L354.493 547.294L354.038 546.553L353.466 547.171L353.56 549.493L352.875 549.926L353.299 548.242L352.958 547.686L352.461 548.322L352.584 550.174L351.944 550.578L352.294 549.392L351.952 548.836L351.581 549.264L351.67 550.752L351.487 550.867L351.025 550.837L350.636 551.34Z" fill="white"/>
<path d="M349.11 552.674L349.483 552.455L349.295 552.124L348.922 552.343L348.302 552.454L348.083 552.834L347.896 552.943L346.725 552.305L346.152 552.389L346.475 552.956L347.617 553.107L346.964 553.489L345.438 552.555L344.752 552.768L345.128 553.43L346.638 553.68L345.939 554.09L343.964 552.914L343.212 553.229L343.782 553.903L345.566 554.308L343.78 555.102L343.184 556.019L344.292 556.001L345.754 554.639L345.122 556.586L345.553 557.343L346.144 556.744L346.127 554.421L346.826 554.012L346.346 555.68L346.669 556.247L347.187 555.629L347.126 553.773L347.778 553.391L347.39 554.564L347.712 555.132L348.098 554.717L348.058 553.227L348.244 553.118L348.705 553.163L349.11 552.674Z" fill="white"/>
<path d="M350.99 552.346L350.612 552.137L350.431 552.472L350.809 552.681L351.226 553.161L351.66 553.152L351.849 553.256L351.923 554.603L352.292 555.056L352.601 554.481L352.133 553.413L352.794 553.779L352.804 555.587L353.341 556.071L353.701 555.4L353.125 553.962L353.834 554.354L353.873 556.677L354.531 557.164L354.801 556.319L354.212 554.563L355.81 555.695L356.893 555.734L356.3 554.784L354.392 554.227L356.359 553.76L356.771 552.993L355.959 552.793L354.014 554.018L353.305 553.626L354.959 553.172L355.268 552.597L354.477 552.471L352.949 553.491L352.287 553.125L353.477 552.85L353.786 552.275L353.236 552.157L352.004 552.969L351.815 552.864L351.613 552.441L350.99 552.346Z" fill="white"/>
<path d="M348.961 551.628L349.317 551.873L349.528 551.557L349.172 551.312L348.802 550.794L348.369 550.761L348.191 550.639L348.245 549.291L347.919 548.804L347.558 549.347L347.924 550.455L347.299 550.027L347.461 548.226L346.971 547.692L346.549 548.325L346.987 549.813L346.319 549.354L346.498 547.038L345.89 546.488L345.541 547.304L345.962 549.109L344.478 547.827L343.404 547.683L343.905 548.686L345.751 549.426L343.749 549.7L343.266 550.424L344.056 550.702L346.108 549.67L346.776 550.129L345.088 550.421L344.726 550.964L345.501 551.166L347.118 550.298L347.743 550.727L346.532 550.885L346.171 551.428L346.707 551.598L348.01 550.91L348.188 551.033L348.35 551.473L348.961 551.628Z" fill="white"/>
<ellipse cx="349.965" cy="552.027" rx="0.753465" ry="0.764507" fill="white"/>
<path d="M902.75 312.881V313.317H903.126V312.881L903.342 312.28L903.126 311.898V311.679L904.256 310.969L904.472 310.423H903.826L903.126 311.352V310.587L904.687 309.713L904.848 309.003H904.095L903.126 310.205V309.386L905.118 308.239L905.225 307.42L904.364 307.584L903.126 308.949L903.342 306.983L902.857 306L902.319 306.983L902.75 308.949L901.404 307.42H900.543L900.758 308.239L902.75 309.386V310.205L901.566 308.949H900.92L901.189 309.713L902.803 310.587V311.352L901.996 310.423H901.35L901.512 310.969L902.803 311.679V311.898L902.534 312.28L902.75 312.881Z" fill="white"/>
<path d="M903.074 315.12L903.074 314.683L902.697 314.683L902.697 315.12L902.482 315.72L902.697 316.102L902.697 316.321L901.567 317.031L901.351 317.577L901.997 317.577L902.697 316.649L902.697 317.413L901.136 318.287L900.975 318.997L901.728 318.997L902.697 317.795L902.697 318.614L900.706 319.761L900.598 320.58L901.459 320.417L902.697 319.051L902.482 321.017L902.966 322L903.504 321.017L903.074 319.051L904.419 320.58L905.28 320.58L905.065 319.761L903.074 318.614L903.074 317.795L904.258 319.051L904.904 319.051L904.634 318.287L903.02 317.413L903.02 316.649L903.827 317.577L904.473 317.577L904.312 317.031L903.02 316.321L903.02 316.102L903.289 315.72L903.074 315.12Z" fill="white"/>
<path d="M903.636 313.34L903.271 313.571L903.47 313.896L903.836 313.665L904.452 313.533L904.658 313.145L904.841 313.03L906.032 313.628L906.603 313.524L906.261 312.968L905.115 312.856L905.754 312.452L907.31 313.334L907.99 313.098L907.591 312.449L906.074 312.25L906.759 311.817L908.771 312.926L909.514 312.585L908.921 311.93L907.125 311.586L908.883 310.732L909.449 309.795L908.342 309.851L906.925 311.262L907.493 309.294L907.038 308.553L906.466 309.171L906.56 311.493L905.875 311.926L906.299 310.242L905.958 309.686L905.461 310.322L905.584 312.174L904.944 312.578L905.294 311.392L904.952 310.836L904.581 311.264L904.67 312.752L904.487 312.867L904.025 312.837L903.636 313.34Z" fill="white"/>
<path d="M902.11 314.674L902.483 314.455L902.295 314.124L901.922 314.343L901.302 314.454L901.083 314.834L900.896 314.943L899.725 314.305L899.152 314.389L899.475 314.956L900.617 315.107L899.964 315.489L898.438 314.555L897.752 314.768L898.128 315.43L899.638 315.68L898.939 316.09L896.964 314.914L896.212 315.229L896.782 315.903L898.566 316.308L896.78 317.102L896.184 318.019L897.292 318.001L898.754 316.639L898.122 318.586L898.553 319.343L899.144 318.744L899.127 316.421L899.826 316.012L899.346 317.68L899.669 318.247L900.187 317.629L900.126 315.773L900.778 315.391L900.39 316.564L900.712 317.132L901.098 316.717L901.058 315.227L901.244 315.118L901.705 315.163L902.11 314.674Z" fill="white"/>
<path d="M903.99 314.346L903.612 314.137L903.431 314.472L903.809 314.681L904.226 315.161L904.66 315.152L904.849 315.256L904.923 316.603L905.292 317.056L905.601 316.481L905.133 315.413L905.794 315.779L905.804 317.587L906.341 318.071L906.701 317.4L906.125 315.962L906.834 316.354L906.873 318.677L907.531 319.164L907.801 318.319L907.212 316.563L908.81 317.695L909.893 317.734L909.3 316.784L907.392 316.227L909.359 315.76L909.771 314.993L908.959 314.793L907.014 316.018L906.305 315.626L907.959 315.172L908.268 314.597L907.477 314.471L905.949 315.491L905.287 315.125L906.477 314.85L906.786 314.275L906.236 314.157L905.004 314.969L904.815 314.864L904.613 314.441L903.99 314.346Z" fill="white"/>
<path d="M901.961 313.628L902.317 313.873L902.528 313.557L902.172 313.312L901.802 312.794L901.369 312.761L901.191 312.639L901.245 311.291L900.919 310.804L900.558 311.347L900.924 312.455L900.299 312.027L900.461 310.226L899.971 309.692L899.549 310.325L899.987 311.813L899.319 311.354L899.498 309.038L898.89 308.488L898.541 309.304L898.962 311.109L897.478 309.827L896.404 309.683L896.905 310.686L898.751 311.426L896.749 311.7L896.266 312.424L897.056 312.702L899.108 311.67L899.776 312.129L898.088 312.421L897.726 312.964L898.501 313.166L900.118 312.298L900.743 312.727L899.532 312.885L899.171 313.428L899.707 313.598L901.01 312.91L901.188 313.033L901.35 313.473L901.961 313.628Z" fill="white"/>
<ellipse cx="902.965" cy="314.027" rx="0.753465" ry="0.764507" fill="white"/>
<path d="M203.374 16.5419V16.9573H203.732V16.5419L203.937 15.9708L203.732 15.6074V15.3997L204.808 14.7247L205.013 14.2055H204.398L203.732 15.0882V14.3613L205.218 13.5306L205.371 12.8556H204.654L203.732 13.9979V13.2191L205.627 12.1287L205.73 11.3499L204.91 11.5057L203.732 12.8037L203.937 10.9346L203.476 10L202.964 10.9346L203.374 12.8037L202.093 11.3499H201.273L201.478 12.1287L203.374 13.2191V13.9979L202.247 12.8037H201.632L201.888 13.5306L203.425 14.3613V15.0882L202.656 14.2055H202.042L202.195 14.7247L203.425 15.3997V15.6074L203.169 15.9708L203.374 16.5419Z" fill="white"/>
<path d="M203.681 18.6707L203.681 18.2553L203.323 18.2553L203.323 18.6707L203.118 19.2418L203.323 19.6053L203.323 19.813L202.247 20.4879L202.042 21.0071L202.657 21.0071L203.323 20.1245L203.323 20.8514L201.837 21.6821L201.683 22.357L202.401 22.357L203.323 21.2148L203.323 21.9936L201.427 23.0839L201.325 23.8627L202.144 23.707L203.323 22.409L203.118 24.2781L203.579 25.2127L204.091 24.2781L203.681 22.409L204.962 23.8627L205.781 23.8627L205.576 23.0839L203.681 21.9936L203.681 21.2148L204.808 22.409L205.423 22.409L205.167 21.6821L203.63 20.8514L203.63 20.1245L204.398 21.0071L205.013 21.0071L204.859 20.4879L203.63 19.813L203.63 19.6053L203.886 19.2418L203.681 18.6707Z" fill="white"/>
<path d="M204.218 16.979L203.87 17.1986L204.06 17.5071L204.408 17.2875L204.994 17.1618L205.19 16.7934L205.364 16.6836L206.498 17.2522L207.041 17.1539L206.716 16.6251L205.625 16.5189L206.234 16.1346L207.715 16.9733L208.361 16.7487L207.982 16.1317L206.538 15.9424L207.19 15.5306L209.105 16.5847L209.812 16.2611L209.248 15.6383L207.538 15.311L209.212 14.499L209.75 13.6083L208.697 13.6617L207.349 15.0025L207.889 13.1321L207.456 12.427L206.912 13.0151L207.001 15.2221L206.349 15.6339L206.753 14.033L206.428 13.5042L205.954 14.1088L206.071 15.8701L205.463 16.2545L205.796 15.1267L205.471 14.5979L205.117 15.0046L205.202 16.4192L205.028 16.529L204.588 16.5008L204.218 16.979Z" fill="white"/>
<path d="M202.768 18.2469L203.123 18.0392L202.943 17.7244L202.589 17.9321L201.998 18.0378L201.79 18.3994L201.613 18.5032L200.498 17.8965L199.952 17.9762L200.259 18.5158L201.346 18.659L200.725 19.0224L199.273 18.1338L198.619 18.3364L198.978 18.9659L200.415 19.2042L199.749 19.5936L197.87 18.475L197.154 18.7745L197.697 19.4161L199.395 19.8012L197.695 20.556L197.127 21.4279L198.182 21.4103L199.574 20.116L198.972 21.967L199.382 22.6864L199.945 22.1172L199.929 19.9083L200.594 19.5189L200.137 21.1052L200.445 21.6448L200.938 21.0565L200.879 19.2922L201.5 18.9288L201.13 20.0446L201.437 20.5841L201.804 20.1896L201.766 18.773L201.944 18.6692L202.382 18.7123L202.768 18.2469Z" fill="white"/>
<path d="M204.555 17.9352L204.195 17.7364L204.023 18.0556L204.383 18.2543L204.78 18.71L205.193 18.7015L205.372 18.8009L205.442 20.0813L205.794 20.5121L206.088 19.965L205.642 18.95L206.272 19.2978L206.281 21.0174L206.792 21.4772L207.135 20.8389L206.587 19.4717L207.261 19.8444L207.299 22.053L207.925 22.5168L208.182 21.7128L207.621 20.0431L209.142 21.1199L210.173 21.1568L209.608 20.2537L207.793 19.724L209.665 19.2799L210.057 18.5505L209.284 18.3602L207.433 19.5253L206.758 19.1526L208.332 18.721L208.626 18.174L207.874 18.0541L206.419 19.0243L205.789 18.6764L206.922 18.4149L207.216 17.8679L206.692 17.7562L205.519 18.5274L205.34 18.428L205.147 18.0261L204.555 17.9352Z" fill="white"/>
<path d="M202.623 17.2529L202.963 17.4856L203.163 17.1845L202.824 16.9518L202.472 16.4598L202.06 16.4282L201.891 16.3119L201.942 15.0306L201.632 14.5677L201.288 15.0838L201.636 16.1374L201.042 15.7301L201.195 14.0175L200.73 13.5103L200.328 14.1124L200.745 15.5265L200.109 15.0902L200.279 12.8881L199.7 12.3657L199.369 13.1411L199.769 14.8575L198.357 13.6383L197.335 13.5017L197.811 14.4554L199.568 15.1585L197.663 15.4192L197.204 16.1073L197.955 16.3716L199.908 15.3912L200.544 15.8276L198.937 16.1047L198.593 16.6207L199.33 16.813L200.87 15.9882L201.464 16.3954L200.312 16.546L199.968 17.0621L200.478 17.2239L201.718 16.5699L201.888 16.6863L202.042 17.1049L202.623 17.2529Z" fill="white"/>
<ellipse cx="203.579" cy="17.6322" rx="0.717111" ry="0.726884" fill="white"/>
</svg>
