<svg width="300" height="779" viewBox="0 0 300 779" fill="none" xmlns="http://www.w3.org/2000/svg">
<rect width="300" height="779" fill="#004E4D"/>
<circle cx="219.5" cy="579.5" r="3.5" fill="white"/>
<circle cx="271" cy="406" r="2" fill="white"/>
<circle cx="218.958" cy="12" r="3" fill="white"/>
<circle cx="7.5" cy="689.5" r="5.5" fill="white"/>
<circle cx="103.5" cy="87.5" r="5.5" fill="white"/>
<circle cx="45.5" cy="147.5" r="1.5" fill="white"/>
<path d="M29.0145 35.3311V36.1775H29.7444V35.3311L30.1615 34.1673L29.7444 33.4267V33.0035L31.9342 31.628L32.3513 30.57H31.1L29.7444 32.3686V30.8874L32.7684 29.1946L33.0812 27.8191H31.6213L29.7444 30.1468V28.5598L33.6026 26.3379L33.8111 24.7509L32.1427 25.0683L29.7444 27.7133L30.1615 23.9044L29.223 22L28.1803 23.9044L29.0145 27.7133L26.4076 24.7509H24.7393L25.1564 26.3379L29.0145 28.5598V30.1468L26.7205 27.7133H25.4692L25.9905 29.1946L29.1188 30.8874V32.3686L27.5547 30.57H26.3034L26.6162 31.628L29.1188 33.0035V33.4267L28.5974 34.1673L29.0145 35.3311Z" fill="white"/>
<path d="M29.6408 39.6689L29.6408 38.8225L28.9109 38.8225L28.9109 39.6689L28.4938 40.8327L28.9109 41.5733L28.9109 41.9965L26.7211 43.372L26.304 44.43L27.5553 44.43L28.9109 42.6314L28.9109 44.1126L25.8869 45.8054L25.5741 47.1809L27.0339 47.1809L28.9109 44.8532L28.9109 46.4402L25.0527 48.6621L24.8442 50.2491L26.5126 49.9317L28.9109 47.2867L28.4938 51.0956L29.4322 53L30.475 51.0956L29.6408 47.2867L32.2476 50.2491L33.916 50.2491L33.4989 48.6621L29.6408 46.4402L29.6408 44.8532L31.9348 47.2867L33.1861 47.2867L32.6647 45.8054L29.5365 44.1126L29.5365 42.6314L31.1006 44.43L32.3519 44.43L32.0391 43.372L29.5365 41.9965L29.5365 41.5733L30.0579 40.8327L29.6408 39.6689Z" fill="white"/>
<path d="M30.7326 36.2219L30.0245 36.6694L30.4104 37.298L31.1185 36.8505L32.3126 36.5944L32.7116 35.8436L33.0656 35.6198L35.374 36.7785L36.4796 36.5783L35.818 35.5006L33.5967 35.2842L34.8358 34.501L37.8507 36.2103L39.1667 35.7525L38.3949 34.4952L35.4553 34.1094L36.7829 33.2703L40.6815 35.4183L42.1194 34.7588L40.9717 33.4898L37.491 32.8228L40.8978 31.1681L41.9947 29.353L39.8503 29.4619L37.1051 32.1942L38.205 28.3827L37.3228 26.9458L36.2158 28.1442L36.397 32.6417L35.0694 33.4808L35.8922 30.2185L35.2306 29.1408L34.2671 30.373L34.505 33.9622L33.2659 34.7453L33.9435 32.4473L33.2819 31.3696L32.5623 32.1985L32.7348 35.081L32.3808 35.3048L31.4856 35.2473L30.7326 36.2219Z" fill="white"/>
<path d="M27.7768 38.8052L28.4993 38.382L28.1343 37.7406L27.4119 38.1638L26.21 38.3792L25.7864 39.116L25.4252 39.3276L23.1563 38.0912L22.0448 38.2537L22.6704 39.3532L24.8833 39.645L23.6191 40.3857L20.6623 38.5749L19.3319 38.9877L20.0618 40.2705L22.987 40.756L21.6324 41.5495L17.807 39.2702L16.3481 39.8804L17.4532 41.1878L20.91 41.9727L17.4505 43.5106L16.2942 45.2875L18.4411 45.2515L21.2749 42.6141L20.0498 46.386L20.884 47.852L22.03 46.692L21.9974 42.1909L23.3519 41.3974L22.4219 44.6299L23.0476 45.7294L24.0512 44.5307L23.9319 40.9354L25.1962 40.1948L24.4431 42.4685L25.0687 43.5681L25.8153 42.7642L25.738 39.8774L26.0992 39.6658L26.992 39.7536L27.7768 38.8052Z" fill="white"/>
<path d="M31.4166 38.1697L30.6841 37.7647L30.3348 38.415L31.0673 38.82L31.8749 39.7486L32.7154 39.7314L33.0817 39.9339L33.2241 42.543L33.9401 43.4209L34.5389 42.3061L33.631 40.2376L34.9129 40.9464L34.9308 44.4507L35.9714 45.3876L36.67 44.0869L35.5538 41.3009L36.9272 42.0603L37.0038 46.5609L38.2774 47.5061L38.8011 45.8678L37.6597 42.4653L40.7563 44.6596L42.8534 44.7347L41.7043 42.8944L38.009 41.815L41.8201 40.91L42.6184 39.4236L41.0454 39.0358L37.2765 41.41L35.9031 40.6505L39.1067 39.7711L39.7055 38.6563L38.1741 38.412L35.2122 40.389L33.9304 39.6802L36.2354 39.1474L36.8342 38.0325L35.7689 37.805L33.381 39.3765L33.0148 39.1739L32.6234 38.355L31.4166 38.1697Z" fill="white"/>
<path d="M27.4862 36.7799L28.1771 37.2541L28.5861 36.6406L27.8951 36.1664L27.1787 35.1638L26.3404 35.0994L25.9949 34.8623L26.0989 32.2513L25.4688 31.308L24.7678 32.3597L25.4767 34.5067L24.2674 33.6768L24.5797 30.1869L23.6321 29.1534L22.8142 30.3803L23.6628 33.2619L22.3673 32.3727L22.715 27.8853L21.5362 26.8209L20.8606 28.4009L21.6763 31.8985L18.8005 29.414L16.7201 29.1358L17.6906 31.0791L21.2673 32.512L17.3884 33.0432L16.4537 34.4454L17.983 34.984L21.9583 32.9862L23.2539 33.8753L19.9821 34.44L19.2811 35.4917L20.7824 35.8834L23.9169 34.2026L25.1261 35.0325L22.7815 35.3394L22.0805 36.391L23.1195 36.7209L25.6444 35.3881L25.9899 35.6252L26.3024 36.4784L27.4862 36.7799Z" fill="white"/>
<ellipse cx="29.4325" cy="37.5528" rx="1.45984" ry="1.48123" fill="white"/>
<path d="M213.374 114.542V114.957H213.732V114.542L213.937 113.971L213.732 113.607V113.4L214.808 112.725L215.013 112.206H214.398L213.732 113.088V112.361L215.218 111.531L215.371 110.856H214.654L213.732 111.998V111.219L215.627 110.129L215.73 109.35L214.91 109.506L213.732 110.804L213.937 108.935L213.476 108L212.964 108.935L213.374 110.804L212.093 109.35H211.273L211.478 110.129L213.374 111.219V111.998L212.247 110.804H211.632L211.888 111.531L213.425 112.361V113.088L212.656 112.206H212.042L212.195 112.725L213.425 113.4V113.607L213.169 113.971L213.374 114.542Z" fill="white"/>
<path d="M213.681 116.671L213.681 116.255L213.323 116.255L213.323 116.671L213.118 117.242L213.323 117.605L213.323 117.813L212.247 118.488L212.042 119.007L212.657 119.007L213.323 118.124L213.323 118.851L211.837 119.682L211.683 120.357L212.401 120.357L213.323 119.215L213.323 119.994L211.427 121.084L211.325 121.863L212.144 121.707L213.323 120.409L213.118 122.278L213.579 123.213L214.091 122.278L213.681 120.409L214.962 121.863L215.781 121.863L215.576 121.084L213.681 119.994L213.681 119.215L214.808 120.409L215.423 120.409L215.167 119.682L213.63 118.851L213.63 118.124L214.398 119.007L215.013 119.007L214.859 118.488L213.63 117.813L213.63 117.605L213.886 117.242L213.681 116.671Z" fill="white"/>
<path d="M214.218 114.979L213.87 115.199L214.06 115.507L214.408 115.287L214.994 115.162L215.19 114.793L215.364 114.684L216.498 115.252L217.041 115.154L216.716 114.625L215.625 114.519L216.234 114.135L217.715 114.973L218.361 114.749L217.982 114.132L216.538 113.942L217.19 113.531L219.105 114.585L219.812 114.261L219.248 113.638L217.538 113.311L219.212 112.499L219.75 111.608L218.697 111.662L217.349 113.002L217.889 111.132L217.456 110.427L216.912 111.015L217.001 113.222L216.349 113.634L216.753 112.033L216.428 111.504L215.954 112.109L216.071 113.87L215.463 114.254L215.796 113.127L215.471 112.598L215.117 113.005L215.202 114.419L215.028 114.529L214.588 114.501L214.218 114.979Z" fill="white"/>
<path d="M212.768 116.247L213.123 116.039L212.943 115.724L212.589 115.932L211.998 116.038L211.79 116.399L211.613 116.503L210.498 115.896L209.952 115.976L210.259 116.516L211.346 116.659L210.725 117.022L209.273 116.134L208.619 116.336L208.978 116.966L210.415 117.204L209.749 117.594L207.87 116.475L207.154 116.775L207.697 117.416L209.395 117.801L207.695 118.556L207.127 119.428L208.182 119.41L209.574 118.116L208.972 119.967L209.382 120.686L209.945 120.117L209.929 117.908L210.594 117.519L210.137 119.105L210.445 119.645L210.938 119.057L210.879 117.292L211.5 116.929L211.13 118.045L211.437 118.584L211.804 118.19L211.766 116.773L211.944 116.669L212.382 116.712L212.768 116.247Z" fill="white"/>
<path d="M214.555 115.935L214.195 115.736L214.023 116.056L214.383 116.254L214.78 116.71L215.193 116.702L215.372 116.801L215.442 118.081L215.794 118.512L216.088 117.965L215.642 116.95L216.272 117.298L216.281 119.017L216.792 119.477L217.135 118.839L216.587 117.472L217.261 117.844L217.299 120.053L217.925 120.517L218.182 119.713L217.621 118.043L219.142 119.12L220.173 119.157L219.608 118.254L217.793 117.724L219.665 117.28L220.057 116.551L219.284 116.36L217.433 117.525L216.758 117.153L218.332 116.721L218.626 116.174L217.874 116.054L216.419 117.024L215.789 116.676L216.922 116.415L217.216 115.868L216.692 115.756L215.519 116.527L215.34 116.428L215.147 116.026L214.555 115.935Z" fill="white"/>
<path d="M212.623 115.253L212.963 115.486L213.163 115.185L212.824 114.952L212.472 114.46L212.06 114.428L211.891 114.312L211.942 113.031L211.632 112.568L211.288 113.084L211.636 114.137L211.042 113.73L211.195 112.018L210.73 111.51L210.328 112.112L210.745 113.527L210.109 113.09L210.279 110.888L209.7 110.366L209.369 111.141L209.769 112.857L208.357 111.638L207.335 111.502L207.811 112.455L209.568 113.159L207.663 113.419L207.204 114.107L207.955 114.372L209.908 113.391L210.544 113.828L208.937 114.105L208.593 114.621L209.33 114.813L210.87 113.988L211.464 114.395L210.312 114.546L209.968 115.062L210.478 115.224L211.718 114.57L211.888 114.686L212.042 115.105L212.623 115.253Z" fill="white"/>
<ellipse cx="213.579" cy="115.632" rx="0.717111" ry="0.726884" fill="white"/>
<path d="M245.75 229.881V230.317H246.126V229.881L246.342 229.28L246.126 228.898V228.679L247.256 227.969L247.472 227.423H246.826L246.126 228.352V227.587L247.687 226.713L247.848 226.003H247.095L246.126 227.205V226.386L248.118 225.239L248.225 224.42L247.364 224.584L246.126 225.949L246.342 223.983L245.857 223L245.319 223.983L245.75 225.949L244.404 224.42H243.543L243.758 225.239L245.75 226.386V227.205L244.566 225.949H243.92L244.189 226.713L245.803 227.587V228.352L244.996 227.423H244.35L244.512 227.969L245.803 228.679V228.898L245.534 229.28L245.75 229.881Z" fill="white"/>
<path d="M246.074 232.12L246.074 231.683L245.697 231.683L245.697 232.12L245.482 232.72L245.697 233.102L245.697 233.321L244.567 234.031L244.351 234.577L244.997 234.577L245.697 233.649L245.697 234.413L244.136 235.287L243.975 235.997L244.728 235.997L245.697 234.795L245.697 235.614L243.706 236.761L243.598 237.58L244.459 237.417L245.697 236.051L245.482 238.017L245.966 239L246.504 238.017L246.074 236.051L247.419 237.58L248.28 237.58L248.065 236.761L246.074 235.614L246.074 234.795L247.258 236.051L247.904 236.051L247.634 235.287L246.02 234.413L246.02 233.649L246.827 234.577L247.473 234.577L247.312 234.031L246.02 233.321L246.02 233.102L246.289 232.72L246.074 232.12Z" fill="white"/>
<path d="M246.636 230.34L246.271 230.571L246.47 230.896L246.836 230.665L247.452 230.533L247.658 230.145L247.841 230.03L249.032 230.628L249.603 230.524L249.261 229.968L248.115 229.856L248.754 229.452L250.31 230.334L250.99 230.098L250.591 229.449L249.074 229.25L249.759 228.817L251.771 229.926L252.514 229.585L251.921 228.93L250.125 228.586L251.883 227.732L252.449 226.795L251.342 226.851L249.925 228.262L250.493 226.294L250.038 225.553L249.466 226.171L249.56 228.493L248.875 228.926L249.299 227.242L248.958 226.686L248.461 227.322L248.584 229.174L247.944 229.578L248.294 228.392L247.952 227.836L247.581 228.264L247.67 229.752L247.487 229.867L247.025 229.837L246.636 230.34Z" fill="white"/>
<path d="M245.11 231.674L245.483 231.455L245.295 231.124L244.922 231.343L244.302 231.454L244.083 231.834L243.896 231.943L242.725 231.305L242.152 231.389L242.475 231.956L243.617 232.107L242.964 232.489L241.438 231.555L240.752 231.768L241.128 232.43L242.638 232.68L241.939 233.09L239.964 231.914L239.212 232.229L239.782 232.903L241.566 233.308L239.78 234.102L239.184 235.019L240.292 235.001L241.754 233.639L241.122 235.586L241.553 236.343L242.144 235.744L242.127 233.421L242.826 233.012L242.346 234.68L242.669 235.247L243.187 234.629L243.126 232.773L243.778 232.391L243.39 233.564L243.712 234.132L244.098 233.717L244.058 232.227L244.244 232.118L244.705 232.163L245.11 231.674Z" fill="white"/>
<path d="M246.99 231.346L246.612 231.137L246.431 231.472L246.809 231.681L247.226 232.161L247.66 232.152L247.849 232.256L247.923 233.603L248.292 234.056L248.601 233.481L248.133 232.413L248.794 232.779L248.804 234.587L249.341 235.071L249.701 234.4L249.125 232.962L249.834 233.354L249.873 235.677L250.531 236.164L250.801 235.319L250.212 233.563L251.81 234.695L252.893 234.734L252.3 233.784L250.392 233.227L252.359 232.76L252.771 231.993L251.959 231.793L250.014 233.018L249.305 232.626L250.959 232.172L251.268 231.597L250.477 231.471L248.949 232.491L248.287 232.125L249.477 231.85L249.786 231.275L249.236 231.157L248.004 231.969L247.815 231.864L247.613 231.441L246.99 231.346Z" fill="white"/>
<path d="M244.961 230.628L245.317 230.873L245.528 230.557L245.172 230.312L244.802 229.794L244.369 229.761L244.191 229.639L244.245 228.291L243.919 227.804L243.558 228.347L243.924 229.455L243.299 229.027L243.461 227.226L242.971 226.692L242.549 227.325L242.987 228.813L242.319 228.354L242.498 226.038L241.89 225.488L241.541 226.304L241.962 228.109L240.478 226.827L239.404 226.683L239.905 227.686L241.751 228.426L239.749 228.7L239.266 229.424L240.056 229.702L242.108 228.67L242.776 229.129L241.088 229.421L240.726 229.964L241.501 230.166L243.118 229.298L243.743 229.727L242.532 229.885L242.171 230.428L242.707 230.598L244.01 229.91L244.188 230.033L244.35 230.473L244.961 230.628Z" fill="white"/>
<ellipse cx="245.965" cy="231.027" rx="0.753465" ry="0.764507" fill="white"/>
<path d="M68.8748 396.44V396.659H69.0632V396.44L69.1709 396.14L69.0632 395.949V395.84L69.6283 395.485L69.736 395.212H69.4131L69.0632 395.676V395.293L69.8436 394.857L69.9244 394.502H69.5476L69.0632 395.102V394.693L70.0589 394.119L70.1127 393.71L69.6822 393.792L69.0632 394.474L69.1709 393.491L68.9287 393L68.6595 393.491L68.8748 394.474L68.2021 393.71H67.7715L67.8791 394.119L68.8748 394.693V395.102L68.2828 394.474H67.9599L68.0944 394.857L68.9017 395.293V395.676L68.4981 395.212H68.1751L68.2559 395.485L68.9017 395.84V395.949L68.7672 396.14L68.8748 396.44Z" fill="white"/>
<path d="M69.0363 397.56L69.0363 397.341L68.8479 397.341L68.8479 397.56L68.7403 397.86L68.8479 398.051L68.8479 398.16L68.2828 398.515L68.1751 398.788L68.4981 398.788L68.8479 398.324L68.8479 398.706L68.0675 399.143L67.9868 399.498L68.3635 399.498L68.8479 398.897L68.8479 399.307L67.8522 399.88L67.7984 400.29L68.229 400.208L68.8479 399.525L68.7403 400.508L68.9825 401L69.2516 400.508L69.0363 399.525L69.7091 400.29L70.1396 400.29L70.032 399.88L69.0363 399.307L69.0363 398.897L69.6283 399.525L69.9513 399.525L69.8167 399.143L69.0094 398.706L69.0094 398.324L69.4131 398.788L69.736 398.788L69.6553 398.515L69.0094 398.16L69.0094 398.051L69.1439 397.86L69.0363 397.56Z" fill="white"/>
<path d="M69.3176 396.67L69.1349 396.786L69.2345 396.948L69.4172 396.832L69.7254 396.766L69.8284 396.573L69.9197 396.515L70.5155 396.814L70.8008 396.762L70.6301 396.484L70.0568 396.428L70.3766 396.226L71.1547 396.667L71.4943 396.549L71.2951 396.225L70.5365 396.125L70.8791 395.909L71.8852 396.463L72.2563 396.293L71.9601 395.965L71.0618 395.793L71.941 395.366L72.2241 394.898L71.6707 394.926L70.9622 395.631L71.2461 394.647L71.0184 394.276L70.7327 394.586L70.7795 395.746L70.4369 395.963L70.6492 395.121L70.4784 394.843L70.2298 395.161L70.2912 396.087L69.9714 396.289L70.1463 395.696L69.9755 395.418L69.7898 395.632L69.8344 396.376L69.743 396.434L69.5119 396.419L69.3176 396.67Z" fill="white"/>
<path d="M68.5557 397.337L68.7422 397.228L68.648 397.062L68.4615 397.171L68.1514 397.227L68.042 397.417L67.9488 397.472L67.3633 397.153L67.0764 397.194L67.2379 397.478L67.809 397.554L67.4827 397.745L66.7196 397.277L66.3763 397.384L66.5646 397.715L67.3196 397.84L66.97 398.045L65.9827 397.457L65.6062 397.614L65.8914 397.952L66.7835 398.154L65.8907 398.551L65.5923 399.01L66.1464 399L66.8777 398.32L66.5616 399.293L66.7768 399.671L67.0726 399.372L67.0642 398.21L67.4138 398.006L67.1737 398.84L67.3352 399.124L67.5942 398.814L67.5634 397.887L67.8897 397.695L67.6954 398.282L67.8568 398.566L68.0495 398.358L68.0296 397.613L68.1228 397.559L68.3532 397.582L68.5557 397.337Z" fill="white"/>
<path d="M69.4947 397.173L69.3056 397.068L69.2155 397.236L69.4045 397.341L69.6129 397.58L69.8299 397.576L69.9244 397.628L69.9611 398.301L70.1459 398.528L70.3005 398.24L70.0662 397.707L70.397 397.889L70.4016 398.794L70.6702 399.036L70.8504 398.7L70.5624 397.981L70.9168 398.177L70.9366 399.338L71.2653 399.582L71.4004 399.159L71.1059 398.281L71.905 398.848L72.4463 398.867L72.1497 398.392L71.196 398.114L72.1796 397.88L72.3856 397.496L71.9797 397.396L71.007 398.009L70.6525 397.813L71.4793 397.586L71.6338 397.298L71.2386 397.235L70.4742 397.746L70.1434 397.563L70.7383 397.425L70.8928 397.138L70.6179 397.079L70.0016 397.484L69.9071 397.432L69.8061 397.221L69.4947 397.173Z" fill="white"/>
<path d="M68.4795 396.814L68.6579 396.936L68.7634 396.778L68.5851 396.656L68.4002 396.397L68.1839 396.38L68.0947 396.319L68.1215 395.645L67.9589 395.402L67.778 395.673L67.9609 396.227L67.6489 396.013L67.7294 395.113L67.4849 394.846L67.2738 395.163L67.4928 395.906L67.1585 395.677L67.2482 394.519L66.944 394.244L66.7696 394.652L66.9801 395.554L66.238 394.913L65.701 394.841L65.9515 395.343L66.8746 395.713L65.8735 395.85L65.6323 396.212L66.027 396.351L67.0529 395.835L67.3873 396.065L66.5429 396.21L66.362 396.482L66.7494 396.583L67.5584 396.149L67.8705 396.363L67.2654 396.442L67.0845 396.714L67.3526 396.799L68.0042 396.455L68.0934 396.516L68.174 396.736L68.4795 396.814Z" fill="white"/>
<ellipse cx="68.9822" cy="397.014" rx="0.376754" ry="0.382248" fill="white"/>
<path d="M109.875 767.44V767.659H110.063V767.44L110.171 767.14L110.063 766.949V766.84L110.628 766.485L110.736 766.212H110.413L110.063 766.676V766.293L110.844 765.857L110.924 765.502H110.548L110.063 766.102V765.693L111.059 765.119L111.113 764.71L110.682 764.792L110.063 765.474L110.171 764.491L109.929 764L109.66 764.491L109.875 765.474L109.202 764.71H108.771L108.879 765.119L109.875 765.693V766.102L109.283 765.474H108.96L109.094 765.857L109.902 766.293V766.676L109.498 766.212H109.175L109.256 766.485L109.902 766.84V766.949L109.767 767.14L109.875 767.44Z" fill="white"/>
<path d="M110.036 768.56L110.036 768.341L109.848 768.341L109.848 768.56L109.74 768.86L109.848 769.051L109.848 769.16L109.283 769.515L109.175 769.788L109.498 769.788L109.848 769.324L109.848 769.706L109.068 770.143L108.987 770.498L109.364 770.498L109.848 769.897L109.848 770.307L108.852 770.88L108.798 771.29L109.229 771.208L109.848 770.525L109.74 771.508L109.982 772L110.252 771.508L110.036 770.525L110.709 771.29L111.14 771.29L111.032 770.88L110.036 770.307L110.036 769.897L110.628 770.525L110.951 770.525L110.817 770.143L110.009 769.706L110.009 769.324L110.413 769.788L110.736 769.788L110.655 769.515L110.009 769.16L110.009 769.051L110.144 768.86L110.036 768.56Z" fill="white"/>
<path d="M110.318 767.67L110.135 767.786L110.234 767.948L110.417 767.832L110.725 767.766L110.828 767.573L110.92 767.515L111.515 767.814L111.801 767.762L111.63 767.484L111.057 767.428L111.377 767.226L112.155 767.667L112.494 767.549L112.295 767.225L111.536 767.125L111.879 766.909L112.885 767.463L113.256 767.293L112.96 766.965L112.062 766.793L112.941 766.366L113.224 765.898L112.671 765.926L111.962 766.631L112.246 765.647L112.018 765.276L111.733 765.586L111.779 766.746L111.437 766.963L111.649 766.121L111.478 765.843L111.23 766.161L111.291 767.087L110.971 767.289L111.146 766.696L110.976 766.418L110.79 766.632L110.834 767.376L110.743 767.434L110.512 767.419L110.318 767.67Z" fill="white"/>
<path d="M109.556 768.337L109.742 768.228L109.648 768.062L109.462 768.171L109.151 768.227L109.042 768.417L108.949 768.472L108.363 768.153L108.076 768.194L108.238 768.478L108.809 768.554L108.483 768.745L107.72 768.277L107.376 768.384L107.565 768.715L108.32 768.84L107.97 769.045L106.983 768.457L106.606 768.614L106.891 768.952L107.784 769.154L106.891 769.551L106.592 770.01L107.146 770L107.878 769.32L107.562 770.293L107.777 770.671L108.073 770.372L108.064 769.21L108.414 769.006L108.174 769.84L108.335 770.124L108.594 769.814L108.563 768.887L108.89 768.695L108.695 769.282L108.857 769.566L109.05 769.358L109.03 768.613L109.123 768.559L109.353 768.582L109.556 768.337Z" fill="white"/>
<path d="M110.495 768.173L110.306 768.068L110.215 768.236L110.405 768.341L110.613 768.58L110.83 768.576L110.924 768.628L110.961 769.301L111.146 769.528L111.3 769.24L111.066 768.707L111.397 768.889L111.402 769.794L111.67 770.036L111.85 769.7L111.562 768.981L111.917 769.177L111.937 770.338L112.265 770.582L112.4 770.159L112.106 769.281L112.905 769.848L113.446 769.867L113.15 769.392L112.196 769.114L113.18 768.88L113.386 768.496L112.98 768.396L112.007 769.009L111.653 768.813L112.479 768.586L112.634 768.298L112.239 768.235L111.474 768.746L111.143 768.563L111.738 768.425L111.893 768.138L111.618 768.079L111.002 768.484L110.907 768.432L110.806 768.221L110.495 768.173Z" fill="white"/>
<path d="M109.48 767.814L109.658 767.936L109.763 767.778L109.585 767.656L109.4 767.397L109.184 767.38L109.095 767.319L109.122 766.645L108.959 766.402L108.778 766.673L108.961 767.227L108.649 767.013L108.729 766.113L108.485 765.846L108.274 766.163L108.493 766.906L108.158 766.677L108.248 765.519L107.944 765.244L107.77 765.652L107.98 766.554L107.238 765.913L106.701 765.841L106.952 766.343L107.875 766.713L106.874 766.85L106.632 767.212L107.027 767.351L108.053 766.835L108.387 767.065L107.543 767.21L107.362 767.482L107.749 767.583L108.558 767.149L108.87 767.363L108.265 767.442L108.084 767.714L108.353 767.799L109.004 767.455L109.093 767.516L109.174 767.736L109.48 767.814Z" fill="white"/>
<ellipse cx="109.982" cy="768.014" rx="0.376754" ry="0.382248" fill="white"/>
<path d="M269.75 580.881V581.317H270.126V580.881L270.342 580.28L270.126 579.898V579.679L271.256 578.969L271.472 578.423H270.826L270.126 579.352V578.587L271.687 577.713L271.848 577.003H271.095L270.126 578.205V577.386L272.118 576.239L272.225 575.42L271.364 575.584L270.126 576.949L270.342 574.983L269.857 574L269.319 574.983L269.75 576.949L268.404 575.42H267.543L267.758 576.239L269.75 577.386V578.205L268.566 576.949H267.92L268.189 577.713L269.803 578.587V579.352L268.996 578.423H268.35L268.512 578.969L269.803 579.679V579.898L269.534 580.28L269.75 580.881Z" fill="white"/>
<path d="M270.074 583.12L270.074 582.683L269.697 582.683L269.697 583.12L269.482 583.72L269.697 584.102L269.697 584.321L268.567 585.031L268.351 585.577L268.997 585.577L269.697 584.649L269.697 585.413L268.136 586.287L267.975 586.997L268.728 586.997L269.697 585.795L269.697 586.614L267.706 587.761L267.598 588.58L268.459 588.417L269.697 587.051L269.482 589.017L269.966 590L270.504 589.017L270.074 587.051L271.419 588.58L272.28 588.58L272.065 587.761L270.074 586.614L270.074 585.795L271.258 587.051L271.904 587.051L271.634 586.287L270.02 585.413L270.02 584.649L270.827 585.577L271.473 585.577L271.312 585.031L270.02 584.321L270.02 584.102L270.289 583.72L270.074 583.12Z" fill="white"/>
<path d="M270.636 581.34L270.271 581.571L270.47 581.896L270.836 581.665L271.452 581.533L271.658 581.145L271.841 581.03L273.032 581.628L273.603 581.524L273.261 580.968L272.115 580.856L272.754 580.452L274.31 581.334L274.99 581.098L274.591 580.449L273.074 580.25L273.759 579.817L275.771 580.926L276.514 580.585L275.921 579.93L274.125 579.586L275.883 578.732L276.449 577.795L275.342 577.851L273.925 579.262L274.493 577.294L274.038 576.553L273.466 577.171L273.56 579.493L272.875 579.926L273.299 578.242L272.958 577.686L272.461 578.322L272.584 580.174L271.944 580.578L272.294 579.392L271.952 578.836L271.581 579.264L271.67 580.752L271.487 580.867L271.025 580.837L270.636 581.34Z" fill="white"/>
<path d="M269.11 582.674L269.483 582.455L269.295 582.124L268.922 582.343L268.302 582.454L268.083 582.834L267.896 582.943L266.725 582.305L266.152 582.389L266.475 582.956L267.617 583.107L266.964 583.489L265.438 582.555L264.752 582.768L265.128 583.43L266.638 583.68L265.939 584.09L263.964 582.914L263.212 583.229L263.782 583.903L265.566 584.308L263.78 585.102L263.184 586.019L264.292 586.001L265.754 584.639L265.122 586.586L265.553 587.343L266.144 586.744L266.127 584.421L266.826 584.012L266.346 585.68L266.669 586.247L267.187 585.629L267.126 583.773L267.778 583.391L267.39 584.564L267.712 585.132L268.098 584.717L268.058 583.227L268.244 583.118L268.705 583.163L269.11 582.674Z" fill="white"/>
<path d="M270.99 582.346L270.612 582.137L270.431 582.472L270.809 582.681L271.226 583.161L271.66 583.152L271.849 583.256L271.923 584.603L272.292 585.056L272.601 584.481L272.133 583.413L272.794 583.779L272.804 585.587L273.341 586.071L273.701 585.4L273.125 583.962L273.834 584.354L273.873 586.677L274.531 587.164L274.801 586.319L274.212 584.563L275.81 585.695L276.893 585.734L276.3 584.784L274.392 584.227L276.359 583.76L276.771 582.993L275.959 582.793L274.014 584.018L273.305 583.626L274.959 583.172L275.268 582.597L274.477 582.471L272.949 583.491L272.287 583.125L273.477 582.85L273.786 582.275L273.236 582.157L272.004 582.969L271.815 582.864L271.613 582.441L270.99 582.346Z" fill="white"/>
<path d="M268.961 581.628L269.317 581.873L269.528 581.557L269.172 581.312L268.802 580.794L268.369 580.761L268.191 580.639L268.245 579.291L267.919 578.804L267.558 579.347L267.924 580.455L267.299 580.027L267.461 578.226L266.971 577.692L266.549 578.325L266.987 579.813L266.319 579.354L266.498 577.038L265.89 576.488L265.541 577.304L265.962 579.109L264.478 577.827L263.404 577.683L263.905 578.686L265.751 579.426L263.749 579.7L263.266 580.424L264.056 580.702L266.108 579.67L266.776 580.129L265.088 580.421L264.726 580.964L265.501 581.166L267.118 580.298L267.743 580.727L266.532 580.885L266.171 581.428L266.707 581.598L268.01 580.91L268.188 581.033L268.35 581.473L268.961 581.628Z" fill="white"/>
<ellipse cx="269.965" cy="582.027" rx="0.753465" ry="0.764507" fill="white"/>
</svg>
