<?xml version="1.0" encoding="UTF-8"?>
<svg id="Layer_1" data-name="Layer 1" xmlns="http://www.w3.org/2000/svg" viewBox="0 0 432.27 149.42">
  <defs>
    <style>
      .cls-1 {
        fill: #f2f2f2;
      }

      .cls-1, .cls-2, .cls-3, .cls-4, .cls-5 {
        stroke-width: 0px;
      }

      .cls-2 {
        fill: #bbe9f6;
      }

      .cls-3 {
        fill: #fff;
      }

      .cls-4 {
        fill: #e6f7ff;
      }

      .cls-5 {
        fill: #e4f7fd;
      }
    </style>
  </defs>
  <path class="cls-3" d="m9.24,135.26s-.02.02-.03.04c.01-.03.02-.04.02-.04h.01Z"/>
  <path class="cls-1" d="m9.24,135.26s-.02.02-.03.04c.01-.03.02-.04.02-.04h.01Z"/>
  <g id="Snow">
    <path class="cls-2" d="m432.27,91.88c0,4.1-1.02,8.23-2.89,11.92,0,0-.01.01-.01.02-.44.86-.92,1.68-1.44,2.49-2.46,4.43-7.22,13.9-7.57,21.28-.48,9.99-9.7,14.57-17.3,11.72-.28-.1-.53-.24-.77-.41-5.83-4.2-.09-27.88-2.92-37.04-.44-1.58-1.62-7.35-3.86-9.22,0,0-4.63-4.33-12.14,2.31-4.37,3.85-5.37,8.2-13.62,6.39-11.09-2.44-2.33-17.51-11.8-21.36-9.1-3.02-19.46.64-25.33,3.11-15.64,6.6-32.41,7.83-48.38,2.06-15.97-5.77-24.76-10.51-41.17-6.17-31.33,9.06-63.52,14.9-95.82,10.42-2.92-.41-5.29-.55-8.79-.17-2.67.28-14.98,2.91-18.21,11.39-14.78,38.78-30.67,27.83-35.14-6.46-.21-1.62-1.16-2.77-2.58-3.54-6.17-3.33-20.63,10.01-26.06,17.25-5.49,7.31-19.94,5.51-25.46,10.65-7.01,6.54-3.81,17.4-4.42,24.71-.3,3.63-4.36,6.37-8.3,6.18-3.99-.19-7.86-3.38-7.55-11.67.32-8.71-2.67-19.32-5.46-28.27,7.17,18.15,10.99,22.36,13.01,22.21,1.87-.13,2.19-4.01,2.19-4.01,0,0,.92-18.37,8.5-19.06,7.58-.69,28.47-13.78,31.69-21.35,3.21-7.58,20.9-18.84,26.87-14.24.09.07.19.15.28.23.09.08.18.17.27.27,1.36,1.39,2.33,3.75,3.17,6.5,0,.05.03.09.04.14,1.11,3.66,2.01,7.98,3.33,11.64.01.03.01.05.02.07,2.17,7.32,4.87,13.9,9.74,14.01,14.03.28,9.78-22.11,48.09-21.65,20.67.25,48.29-1.45,66.61-9.16,17.99-7.56,52.52-9.67,64.41-5.66.56.2,1.08.4,1.54.62,10.11,4.82,31.92,8.96,48.46,3.45,16.53-5.52,24.8-7.81,29.17-5.29,4.36,2.53,2.29,13.47,10.33,15.58,8.04,2.11,16.13-3.05,22.97-4.32,2.93-.55,4.94.45,6.32,2.46.14.2.27.41.39.63.02.03.04.07.06.11.12.22.24.45.35.69,4.56,10.02-1.9,35.03,6.63,38.58.51.27,1.09.41,1.74.41h.05c8.79.59,10.74-11.96,13.17-16.14,3.78-6.52,5.83-15.06,3.99-22.42-1.18-4.73-1.76-8.19-.38-11.89-.23,1.28-.4,2.5-.4,3.55,0,2.58,1.44,4.9,2.49,7.26,1.29,2.91,1.89,6.04,1.89,9.19Z"/>
    <path class="cls-3" d="m403.26,76.17c-.09-.64-.43-1.13-.97-1.47-4.06-2.69-19.37,1.79-24.91-1.67-6.16-3.85-2.98-7.57-8.36-10.8-.09-.06-.19-.11-.29-.17-3.67-2.07-10.78-1.42-19.17.17-13.4,2.54-30.06,7.51-41.17,7.67-9.26.13-18.64-4.16-28.53-7.67-7.04-2.5-14.33-4.59-22.01-4.42-37.3.85-53.73-3.59-67.06-6.73-12.04-2.84-40.43,1.97-56.94,11.15-1.77.98-3.41,2.02-4.87,3.1-3.39,2.5-18.94,8.49-24.43,1.43-1.35-1.74-3.54-3.32-6.23-4.53-6.33-2.88-15.41-3.76-22.83,0-2.25,1.13-4.34,2.69-6.16,4.75-9.9,11.23-30.53,17.41-51.04,16.74-.97-.03-1.93-.08-2.9-.14-21.01-1.35-6.83-40.58-6.25-42.16h0s.02-.04.03-.05c4.32-6.67,11.04-11.32,19.26-13.43,23.2-11.98,18.28-5.99,43.52-12.68C85.25,11.73,96.28.79,110.02.03c12.65-.7,32.67,11.37,44.91,14.66,24.7,6.63,35.22-.57,60.5,3.35,27.13,4.21,13.57,12.04,44.54,7.56,6.16-.89,18.64,1.55,23.84,4.89,8.88,5.71,9.43,12.24,48.04,15.25,28.57,2.23,35.36,1.88,54.04-3.91,11.34-3.51,18.78-1.72,29.42,5.37.57.38,1.16.74,1.77,1.11,3.56,2.15,7.62,4.22,10.07,8.2h0c7.01,23.11-23.11,25.15-23.89,19.66Z"/>
    <path class="cls-5" d="m428.67,83.77c1.84,7.36-.21,15.9-3.99,22.42-2.43,4.18-4.38,16.73-13.17,16.14h-.05c-.64-.05-1.22-.19-1.74-.41-8.53-3.55-2.07-28.56-6.63-38.58-.11-.24-.23-.47-.35-.69-.02-.04-.04-.08-.06-.11-.12-.22-.25-.43-.39-.63-1.38-2.01-3.39-3.01-6.32-2.46-6.84,1.27-14.93,6.43-22.97,4.32-8.04-2.11-5.97-13.05-10.33-15.58-4.37-2.52-12.64-.23-29.17,5.29-16.54,5.51-38.35,1.37-48.46-3.45-.46-.22-.98-.42-1.54-.62-11.89-4.01-46.42-1.9-64.41,5.66-18.32,7.71-45.94,9.41-66.61,9.16-38.31-.46-34.06,21.93-48.09,21.65-4.87-.11-7.57-6.69-9.74-14.01-.01-.02-.01-.04-.02-.07-1.18-3.98-2.2-8.17-3.33-11.64-.01-.05-.03-.09-.04-.14-.84-2.75-1.81-5.11-3.17-6.5-.08-.1-.18-.19-.27-.27-.09-.08-.19-.16-.28-.23-5.97-4.6-23.66,6.66-26.87,14.24-3.22,7.57-24.11,20.66-31.69,21.35-7.58.69-8.5,19.06-8.5,19.06,0,0-.32,3.88-2.19,4.01-2.02.15-5.84-4.06-13.01-22.21-.01-.03-.02-.06-.04-.09-1.46-3.73-2.57-7.44-3.39-11.09,0,0,0-.03-.01-.04-6.52-29.35,6.28-54.88,7.26-56.77.01-.02.03-.04.03-.06h.01c-.58,1.58-14.76,40.81,6.25,42.16.97.06,1.93.11,2.9.14,20.51.67,41.14-5.51,51.04-16.74,1.82-2.06,3.91-3.62,6.16-4.75,7.42-3.76,16.5-2.88,22.83,0,2.69,1.21,4.88,2.79,6.23,4.53,5.49,7.06,21.04,1.07,24.43-1.43,1.46-1.08,3.1-2.12,4.87-3.1,16.51-9.18,44.9-13.99,56.94-11.15,13.33,3.14,29.76,7.58,67.06,6.73,7.68-.17,14.97,1.92,22.01,4.42,9.89,3.51,19.27,7.8,28.53,7.67,11.11-.16,27.77-5.13,41.17-7.67,8.39-1.59,15.5-2.24,19.17-.17.1.06.2.11.29.17,5.38,3.23,2.2,6.95,8.36,10.8,5.54,3.46,20.85-1.02,24.91,1.67.54.34.88.83.97,1.47.78,5.49,30.9,3.45,23.89-19.65,1.2,1.93,2.01,4.32,2.2,7.39.14,2.23-.58,5.24-1.06,7.97-1.38,3.7-.8,7.16.38,11.89Z"/>
  </g>
  <path class="cls-4" d="m91.26,80.02c-.93-2.85-1.94-5.2-3.17-6.5,1.36,1.39,2.33,3.75,3.17,6.5Z"/>
</svg>