<svg width="24" height="24" viewBox="0 0 24 24" fill="none" xmlns="http://www.w3.org/2000/svg">
<path d="M13.5 1C12.3065 1 11.1619 1.47411 10.318 2.31802C9.47411 3.16193 9 4.30653 9 5.5V9H6.5C6.36739 9 6.24021 9.05268 6.14645 9.14645C6.05268 9.24021 6 9.36739 6 9.5V13.5C6 13.6326 6.05268 13.7598 6.14645 13.8536C6.24021 13.9473 6.36739 14 6.5 14H9V22.5C9 22.6326 9.05268 22.7598 9.14645 22.8536C9.24021 22.9473 9.36739 23 9.5 23H13.5C13.6326 23 13.7598 22.9473 13.8536 22.8536C13.9473 22.7598 14 22.6326 14 22.5V14H16.5C16.6115 14 16.7199 13.9626 16.8077 13.894C16.8956 13.8253 16.958 13.7292 16.985 13.621L17.985 9.621C18.0034 9.54731 18.0047 9.4704 17.9889 9.39611C17.9732 9.32182 17.9407 9.2521 17.8939 9.19224C17.8472 9.13238 17.7874 9.08396 17.7192 9.05065C17.6509 9.01734 17.5759 9.00002 17.5 9H14V7.5C14 7.10218 14.158 6.72064 14.4393 6.43934C14.7206 6.15804 15.1022 6 15.5 6H17.5C17.6326 6 17.7598 5.94732 17.8536 5.85355C17.9473 5.75979 18 5.63261 18 5.5V1.5C18 1.36739 17.9473 1.24021 17.8536 1.14645C17.7598 1.05268 17.6326 1 17.5 1H13.5Z" fill="#6F717D"/>
</svg>
