<svg width="24" height="24" viewBox="0 0 24 24" fill="none" xmlns="http://www.w3.org/2000/svg">
<path fill-rule="evenodd" clip-rule="evenodd" d="M3.5 6C4.16304 6 4.79893 5.73661 5.26777 5.26777C5.73661 4.79893 6 4.16304 6 3.5C6 2.83696 5.73661 2.20107 5.26777 1.73223C4.79893 1.26339 4.16304 1 3.5 1C2.83696 1 2.20107 1.26339 1.73223 1.73223C1.26339 2.20107 1 2.83696 1 3.5C1 4.16304 1.26339 4.79893 1.73223 5.26777C2.20107 5.73661 2.83696 6 3.5 6ZM6 23V8H1V23H6ZM8 8H12.5V9.946C13.216 9.005 14.746 8 17.5 8C21.83 8 23 12.32 23 15V23H18V15C18 14 17.5 12 15.5 12C14.08 12 13.08 13.008 12.5 13.951V23H8V8Z" fill="#6F717D"/>
</svg>
