<svg width="24" height="24" viewBox="0 0 24 24" fill="none" xmlns="http://www.w3.org/2000/svg">
<path d="M1 19C16.617 25.062 21.038 13.975 20.905 8.49995C22.173 8.15595 23 7.29195 23 6.40595C21.952 6.95595 21.405 6.79995 20.881 6.40595C22.009 5.63795 21.952 4.54295 21.952 3.78695C21.425 4.06395 20.449 4.74695 19.333 4.83495C18.588 3.66895 16.714 2.73995 14.095 3.78695C11.476 4.83495 10.952 7.62895 11.476 9.02495C8.124 9.02495 4.143 5.53295 2.571 3.78695C0.688 6.47495 3.071 9.13995 4.143 10.073C3.428 10.287 2.571 10.073 2.048 9.54895C2.048 12.54 4.667 13.739 5.714 14.264H3.62C3.62 16.359 6.064 17.232 7.287 17.406C6.449 18.244 3.072 19.002 1.001 19.002L1 19Z" fill="#FF1053"/>
</svg>
