<svg width="24" height="24" viewBox="0 0 24 24" fill="none" xmlns="http://www.w3.org/2000/svg">
<path fill-rule="evenodd" clip-rule="evenodd" d="M1.172 7.693C1.05941 9.12593 1.00203 10.5627 1 12C1 13.632 1.08 15.167 1.182 16.44C1.328 18.257 2.713 19.646 4.5 19.77C6.294 19.895 8.805 20 12 20C15.195 20 17.706 19.895 19.5 19.77C21.287 19.646 22.672 18.257 22.818 16.44C22.92 15.167 23 13.632 23 12C23 10.424 22.926 8.94 22.828 7.693C22.7657 6.79589 22.3812 5.95155 21.7453 5.31567C21.1095 4.67979 20.2651 4.29526 19.368 4.233C17.59 4.107 15.164 4 12 4C8.836 4 6.409 4.107 4.632 4.233C3.73489 4.29526 2.89055 4.67979 2.25467 5.31567C1.61879 5.95155 1.23426 6.79589 1.172 7.693ZM15.5 12L10 9V15L15.5 12Z" fill="#6F717D"/>
</svg>
