<svg width="149" height="48" viewBox="0 0 149 48" fill="none" xmlns="http://www.w3.org/2000/svg">
<rect width="149" height="48" fill="#FF1053"/>
<path d="M15.547 33.23C15.4337 33.23 15.3373 33.1903 15.258 33.111C15.1787 33.0317 15.139 32.9353 15.139 32.822V21.568C15.139 21.4547 15.1787 21.3583 15.258 21.279C15.3373 21.1997 15.4337 21.16 15.547 21.16H16.89C17.0147 21.16 17.111 21.1997 17.179 21.279C17.2583 21.3583 17.298 21.4547 17.298 21.568V22.248C17.57 21.8853 17.927 21.585 18.369 21.347C18.811 21.109 19.3607 20.99 20.018 20.99C20.6187 20.99 21.14 21.0863 21.582 21.279C22.024 21.4717 22.3923 21.7493 22.687 22.112C22.9817 22.4633 23.2083 22.8827 23.367 23.37C23.5257 23.8573 23.6163 24.3957 23.639 24.985C23.6503 25.1777 23.656 25.376 23.656 25.58C23.656 25.784 23.6503 25.988 23.639 26.192C23.6277 26.7587 23.5427 27.2857 23.384 27.773C23.2253 28.249 22.993 28.6683 22.687 29.031C22.3923 29.3823 22.024 29.66 21.582 29.864C21.14 30.068 20.6187 30.17 20.018 30.17C19.406 30.17 18.8847 30.0623 18.454 29.847C18.0233 29.6203 17.672 29.3257 17.4 28.963V32.822C17.4 32.9353 17.3603 33.0317 17.281 33.111C17.213 33.1903 17.1167 33.23 16.992 33.23H15.547ZM19.389 28.351C19.8763 28.351 20.256 28.249 20.528 28.045C20.8 27.8297 20.9927 27.552 21.106 27.212C21.2307 26.872 21.3043 26.498 21.327 26.09C21.3497 25.75 21.3497 25.41 21.327 25.07C21.3043 24.662 21.2307 24.288 21.106 23.948C20.9927 23.608 20.8 23.336 20.528 23.132C20.256 22.9167 19.8763 22.809 19.389 22.809C18.9243 22.809 18.5447 22.9167 18.25 23.132C17.9667 23.3473 17.757 23.625 17.621 23.965C17.4963 24.2937 17.4227 24.6337 17.4 24.985C17.3887 25.189 17.383 25.4043 17.383 25.631C17.383 25.8577 17.3887 26.0787 17.4 26.294C17.4113 26.634 17.4907 26.9627 17.638 27.28C17.7853 27.586 18.0007 27.841 18.284 28.045C18.5673 28.249 18.9357 28.351 19.389 28.351ZM25.9894 30C25.876 30 25.7797 29.9603 25.7004 29.881C25.621 29.8017 25.5814 29.7053 25.5814 29.592V18.338C25.5814 18.2247 25.621 18.1283 25.7004 18.049C25.7797 17.9697 25.876 17.93 25.9894 17.93H27.4004C27.5137 17.93 27.61 17.9697 27.6894 18.049C27.7687 18.1283 27.8084 18.2247 27.8084 18.338V29.592C27.8084 29.7053 27.7687 29.8017 27.6894 29.881C27.61 29.9603 27.5137 30 27.4004 30H25.9894ZM32.6304 30.17C32.0411 30.17 31.5084 30.0567 31.0324 29.83C30.5564 29.592 30.1767 29.2803 29.8934 28.895C29.6214 28.4983 29.4854 28.0563 29.4854 27.569C29.4854 26.7757 29.8027 26.1467 30.4374 25.682C31.0834 25.206 31.9334 24.8887 32.9874 24.73L35.3164 24.39V24.033C35.3164 23.557 35.1974 23.1887 34.9594 22.928C34.7214 22.6673 34.3134 22.537 33.7354 22.537C33.3274 22.537 32.9931 22.622 32.7324 22.792C32.4831 22.9507 32.2961 23.166 32.1714 23.438C32.0807 23.5853 31.9504 23.659 31.7804 23.659H30.4374C30.3127 23.659 30.2164 23.625 30.1484 23.557C30.0917 23.489 30.0634 23.3983 30.0634 23.285C30.0747 23.1037 30.1484 22.8827 30.2844 22.622C30.4204 22.3613 30.6357 22.112 30.9304 21.874C31.2251 21.6247 31.6047 21.415 32.0694 21.245C32.5341 21.075 33.0951 20.99 33.7524 20.99C34.4664 20.99 35.0671 21.0807 35.5544 21.262C36.0531 21.432 36.4497 21.6643 36.7444 21.959C37.0391 22.2537 37.2544 22.5993 37.3904 22.996C37.5264 23.3927 37.5944 23.812 37.5944 24.254V29.592C37.5944 29.7053 37.5547 29.8017 37.4754 29.881C37.3961 29.9603 37.2997 30 37.1864 30H35.8094C35.6847 30 35.5827 29.9603 35.5034 29.881C35.4354 29.8017 35.4014 29.7053 35.4014 29.592V28.929C35.2541 29.1443 35.0557 29.3483 34.8064 29.541C34.5571 29.7223 34.2511 29.8753 33.8884 30C33.5371 30.1133 33.1177 30.17 32.6304 30.17ZM33.2084 28.555C33.6051 28.555 33.9621 28.47 34.2794 28.3C34.6081 28.13 34.8631 27.8693 35.0444 27.518C35.2371 27.1553 35.3334 26.702 35.3334 26.158V25.801L33.6334 26.073C32.9647 26.175 32.4661 26.3393 32.1374 26.566C31.8087 26.7927 31.6444 27.0703 31.6444 27.399C31.6444 27.6483 31.7181 27.8637 31.8654 28.045C32.0241 28.215 32.2224 28.3453 32.4604 28.436C32.6984 28.5153 32.9477 28.555 33.2084 28.555ZM43.1243 30.17C42.4443 30.17 41.8607 30.0907 41.3733 29.932C40.8973 29.7733 40.5063 29.575 40.2003 29.337C39.8943 29.099 39.6677 28.861 39.5203 28.623C39.373 28.385 39.2937 28.1867 39.2823 28.028C39.271 27.9033 39.305 27.807 39.3843 27.739C39.475 27.6597 39.5713 27.62 39.6733 27.62H41.0163C41.0617 27.62 41.1013 27.6257 41.1353 27.637C41.1693 27.6483 41.2147 27.6823 41.2713 27.739C41.4187 27.8637 41.5717 27.994 41.7303 28.13C41.9003 28.266 42.0987 28.385 42.3253 28.487C42.552 28.5777 42.8353 28.623 43.1753 28.623C43.6173 28.623 43.9857 28.538 44.2803 28.368C44.5863 28.1867 44.7393 27.9317 44.7393 27.603C44.7393 27.365 44.6713 27.1723 44.5353 27.025C44.4107 26.8777 44.1727 26.7473 43.8213 26.634C43.47 26.5093 42.9713 26.379 42.3253 26.243C41.6907 26.0957 41.1637 25.9087 40.7443 25.682C40.325 25.4553 40.0133 25.172 39.8093 24.832C39.6053 24.492 39.5033 24.0953 39.5033 23.642C39.5033 23.2 39.6337 22.7807 39.8943 22.384C40.1663 21.976 40.563 21.6417 41.0843 21.381C41.617 21.1203 42.2743 20.99 43.0563 20.99C43.6683 20.99 44.201 21.0693 44.6543 21.228C45.1077 21.3753 45.4817 21.5623 45.7763 21.789C46.0823 22.0157 46.3147 22.248 46.4733 22.486C46.632 22.7127 46.717 22.911 46.7283 23.081C46.7397 23.2057 46.7057 23.3077 46.6263 23.387C46.547 23.455 46.4563 23.489 46.3543 23.489H45.0963C45.0397 23.489 44.9887 23.4777 44.9433 23.455C44.898 23.4323 44.8527 23.404 44.8073 23.37C44.6827 23.2567 44.5467 23.1377 44.3993 23.013C44.252 22.8883 44.0707 22.7807 43.8553 22.69C43.6513 22.588 43.3793 22.537 43.0393 22.537C42.6087 22.537 42.28 22.6333 42.0533 22.826C41.8267 23.0073 41.7133 23.2397 41.7133 23.523C41.7133 23.7157 41.7643 23.8857 41.8663 24.033C41.9797 24.169 42.2007 24.2993 42.5293 24.424C42.858 24.5487 43.3567 24.679 44.0253 24.815C44.7847 24.951 45.3853 25.155 45.8273 25.427C46.2807 25.6877 46.598 25.9937 46.7793 26.345C46.972 26.685 47.0683 27.0647 47.0683 27.484C47.0683 27.994 46.9153 28.453 46.6093 28.861C46.3147 29.269 45.8727 29.592 45.2833 29.83C44.7053 30.0567 43.9857 30.17 43.1243 30.17ZM52.785 30C52.105 30 51.5326 29.881 51.068 29.643C50.6033 29.405 50.2576 29.0537 50.031 28.589C49.8043 28.113 49.691 27.5237 49.691 26.821V22.962H48.348C48.2346 22.962 48.1383 22.9223 48.059 22.843C47.9796 22.7637 47.94 22.6673 47.94 22.554V21.568C47.94 21.4547 47.9796 21.3583 48.059 21.279C48.1383 21.1997 48.2346 21.16 48.348 21.16H49.691V18.338C49.691 18.2247 49.725 18.1283 49.793 18.049C49.8723 17.9697 49.9743 17.93 50.099 17.93H51.476C51.5893 17.93 51.6856 17.9697 51.765 18.049C51.8443 18.1283 51.884 18.2247 51.884 18.338V21.16H54.009C54.1223 21.16 54.2186 21.1997 54.298 21.279C54.3773 21.3583 54.417 21.4547 54.417 21.568V22.554C54.417 22.6673 54.3773 22.7637 54.298 22.843C54.2186 22.9223 54.1223 22.962 54.009 22.962H51.884V26.651C51.884 27.1157 51.9633 27.4783 52.122 27.739C52.292 27.9997 52.581 28.13 52.989 28.13H54.162C54.2753 28.13 54.3716 28.1697 54.451 28.249C54.5303 28.3283 54.57 28.4247 54.57 28.538V29.592C54.57 29.7053 54.5303 29.8017 54.451 29.881C54.3716 29.9603 54.2753 30 54.162 30H52.785ZM56.4861 30C56.3727 30 56.2764 29.9603 56.1971 29.881C56.1177 29.8017 56.0781 29.7053 56.0781 29.592V21.568C56.0781 21.4547 56.1177 21.3583 56.1971 21.279C56.2764 21.1997 56.3727 21.16 56.4861 21.16H57.8971C58.0217 21.16 58.1181 21.1997 58.1861 21.279C58.2654 21.3583 58.3051 21.4547 58.3051 21.568V29.592C58.3051 29.7053 58.2654 29.8017 58.1861 29.881C58.1181 29.9603 58.0217 30 57.8971 30H56.4861ZM56.4181 19.698C56.2934 19.698 56.1914 19.664 56.1121 19.596C56.0441 19.5167 56.0101 19.4147 56.0101 19.29V18.066C56.0101 17.9527 56.0441 17.8563 56.1121 17.777C56.1914 17.6977 56.2934 17.658 56.4181 17.658H57.9651C58.0897 17.658 58.1917 17.6977 58.2711 17.777C58.3504 17.8563 58.3901 17.9527 58.3901 18.066V19.29C58.3901 19.4147 58.3504 19.5167 58.2711 19.596C58.1917 19.664 58.0897 19.698 57.9651 19.698H56.4181ZM64.4353 30.17C63.6193 30.17 62.8996 30.017 62.2763 29.711C61.6643 29.405 61.1826 28.963 60.8313 28.385C60.4913 27.7957 60.3043 27.0873 60.2703 26.26C60.2589 26.09 60.2533 25.869 60.2533 25.597C60.2533 25.3137 60.2589 25.0813 60.2703 24.9C60.3043 24.0727 60.4913 23.37 60.8313 22.792C61.1826 22.2027 61.6643 21.755 62.2763 21.449C62.8996 21.143 63.6193 20.99 64.4353 20.99C65.1606 20.99 65.7783 21.092 66.2883 21.296C66.7983 21.5 67.2176 21.755 67.5463 22.061C67.8749 22.367 68.1186 22.69 68.2773 23.03C68.4473 23.3587 68.5379 23.659 68.5493 23.931C68.5606 24.0557 68.5209 24.1577 68.4303 24.237C68.3509 24.305 68.2546 24.339 68.1413 24.339H66.6453C66.5319 24.339 66.4413 24.3107 66.3733 24.254C66.3166 24.1973 66.2599 24.1123 66.2033 23.999C66.0333 23.5457 65.8066 23.2283 65.5233 23.047C65.2513 22.8543 64.8999 22.758 64.4693 22.758C63.9026 22.758 63.4493 22.9393 63.1093 23.302C62.7806 23.6533 62.6049 24.2143 62.5823 24.985C62.5596 25.4157 62.5596 25.8123 62.5823 26.175C62.6049 26.957 62.7806 27.5237 63.1093 27.875C63.4493 28.2263 63.9026 28.402 64.4693 28.402C64.9113 28.402 65.2683 28.3113 65.5403 28.13C65.8123 27.9373 66.0333 27.6143 66.2033 27.161C66.2599 27.0477 66.3166 26.9627 66.3733 26.906C66.4413 26.8493 66.5319 26.821 66.6453 26.821H68.1413C68.2546 26.821 68.3509 26.8607 68.4303 26.94C68.5209 27.008 68.5606 27.1043 68.5493 27.229C68.5379 27.433 68.4813 27.6653 68.3793 27.926C68.2886 28.1753 68.1356 28.436 67.9203 28.708C67.7163 28.9687 67.4556 29.2123 67.1383 29.439C66.8209 29.6543 66.4356 29.83 65.9823 29.966C65.5403 30.102 65.0246 30.17 64.4353 30.17ZM78.032 30.17C77.216 30.17 76.4963 30.017 75.873 29.711C75.261 29.405 74.7793 28.963 74.428 28.385C74.088 27.7957 73.901 27.0873 73.867 26.26C73.8556 26.09 73.85 25.869 73.85 25.597C73.85 25.3137 73.8556 25.0813 73.867 24.9C73.901 24.0727 74.088 23.37 74.428 22.792C74.7793 22.2027 75.261 21.755 75.873 21.449C76.4963 21.143 77.216 20.99 78.032 20.99C78.7573 20.99 79.375 21.092 79.885 21.296C80.395 21.5 80.8143 21.755 81.143 22.061C81.4716 22.367 81.7153 22.69 81.874 23.03C82.044 23.3587 82.1346 23.659 82.146 23.931C82.1573 24.0557 82.1176 24.1577 82.027 24.237C81.9476 24.305 81.8513 24.339 81.738 24.339H80.242C80.1286 24.339 80.038 24.3107 79.97 24.254C79.9133 24.1973 79.8566 24.1123 79.8 23.999C79.63 23.5457 79.4033 23.2283 79.12 23.047C78.848 22.8543 78.4966 22.758 78.066 22.758C77.4993 22.758 77.046 22.9393 76.706 23.302C76.3773 23.6533 76.2016 24.2143 76.179 24.985C76.1563 25.4157 76.1563 25.8123 76.179 26.175C76.2016 26.957 76.3773 27.5237 76.706 27.875C77.046 28.2263 77.4993 28.402 78.066 28.402C78.508 28.402 78.865 28.3113 79.137 28.13C79.409 27.9373 79.63 27.6143 79.8 27.161C79.8566 27.0477 79.9133 26.9627 79.97 26.906C80.038 26.8493 80.1286 26.821 80.242 26.821H81.738C81.8513 26.821 81.9476 26.8607 82.027 26.94C82.1176 27.008 82.1573 27.1043 82.146 27.229C82.1346 27.433 82.078 27.6653 81.976 27.926C81.8853 28.1753 81.7323 28.436 81.517 28.708C81.313 28.9687 81.0523 29.2123 80.735 29.439C80.4176 29.6543 80.0323 29.83 79.579 29.966C79.137 30.102 78.6213 30.17 78.032 30.17ZM84.3439 30C84.2305 30 84.1342 29.9603 84.0549 29.881C83.9755 29.8017 83.9359 29.7053 83.9359 29.592V18.338C83.9359 18.2247 83.9755 18.1283 84.0549 18.049C84.1342 17.9697 84.2305 17.93 84.3439 17.93H85.8569C85.9815 17.93 86.0779 17.9697 86.1459 18.049C86.2252 18.1283 86.2649 18.2247 86.2649 18.338V22.214C86.5709 21.8513 86.9449 21.5567 87.3869 21.33C87.8289 21.1033 88.3729 20.99 89.0189 20.99C89.7102 20.99 90.3109 21.1487 90.8209 21.466C91.3422 21.772 91.7445 22.2083 92.0279 22.775C92.3112 23.3417 92.4529 24.0217 92.4529 24.815V29.592C92.4529 29.7053 92.4132 29.8017 92.3339 29.881C92.2545 29.9603 92.1582 30 92.0449 30H90.5149C90.4015 30 90.3052 29.9603 90.2259 29.881C90.1465 29.8017 90.1069 29.7053 90.1069 29.592V24.917C90.1069 24.2597 89.9425 23.744 89.6139 23.37C89.2965 22.996 88.8319 22.809 88.2199 22.809C87.6305 22.809 87.1545 22.996 86.7919 23.37C86.4405 23.744 86.2649 24.2597 86.2649 24.917V29.592C86.2649 29.7053 86.2252 29.8017 86.1459 29.881C86.0779 29.9603 85.9815 30 85.8569 30H84.3439ZM97.1773 30.17C96.5879 30.17 96.0553 30.0567 95.5793 29.83C95.1033 29.592 94.7236 29.2803 94.4403 28.895C94.1683 28.4983 94.0323 28.0563 94.0323 27.569C94.0323 26.7757 94.3496 26.1467 94.9843 25.682C95.6303 25.206 96.4803 24.8887 97.5343 24.73L99.8633 24.39V24.033C99.8633 23.557 99.7443 23.1887 99.5063 22.928C99.2683 22.6673 98.8603 22.537 98.2823 22.537C97.8743 22.537 97.5399 22.622 97.2793 22.792C97.0299 22.9507 96.8429 23.166 96.7183 23.438C96.6276 23.5853 96.4973 23.659 96.3273 23.659H94.9843C94.8596 23.659 94.7633 23.625 94.6953 23.557C94.6386 23.489 94.6103 23.3983 94.6103 23.285C94.6216 23.1037 94.6953 22.8827 94.8313 22.622C94.9673 22.3613 95.1826 22.112 95.4773 21.874C95.7719 21.6247 96.1516 21.415 96.6163 21.245C97.0809 21.075 97.6419 20.99 98.2993 20.99C99.0133 20.99 99.6139 21.0807 100.101 21.262C100.6 21.432 100.997 21.6643 101.291 21.959C101.586 22.2537 101.801 22.5993 101.937 22.996C102.073 23.3927 102.141 23.812 102.141 24.254V29.592C102.141 29.7053 102.102 29.8017 102.022 29.881C101.943 29.9603 101.847 30 101.733 30H100.356C100.232 30 100.13 29.9603 100.05 29.881C99.9823 29.8017 99.9483 29.7053 99.9483 29.592V28.929C99.8009 29.1443 99.6026 29.3483 99.3533 29.541C99.1039 29.7223 98.7979 29.8753 98.4353 30C98.0839 30.1133 97.6646 30.17 97.1773 30.17ZM97.7553 28.555C98.1519 28.555 98.5089 28.47 98.8263 28.3C99.1549 28.13 99.4099 27.8693 99.5913 27.518C99.7839 27.1553 99.8803 26.702 99.8803 26.158V25.801L98.1803 26.073C97.5116 26.175 97.0129 26.3393 96.6843 26.566C96.3556 26.7927 96.1913 27.0703 96.1913 27.399C96.1913 27.6483 96.2649 27.8637 96.4123 28.045C96.5709 28.215 96.7693 28.3453 97.0073 28.436C97.2453 28.5153 97.4946 28.555 97.7553 28.555ZM104.73 30C104.617 30 104.521 29.9603 104.441 29.881C104.362 29.8017 104.322 29.7053 104.322 29.592V21.568C104.322 21.4547 104.362 21.3583 104.441 21.279C104.521 21.1997 104.617 21.16 104.73 21.16H106.124C106.238 21.16 106.334 21.1997 106.413 21.279C106.493 21.3583 106.532 21.4547 106.532 21.568V22.265C106.827 21.9023 107.201 21.602 107.654 21.364C108.119 21.1147 108.691 20.99 109.371 20.99C110.063 20.99 110.663 21.1487 111.173 21.466C111.683 21.772 112.074 22.2083 112.346 22.775C112.63 23.3417 112.771 24.0217 112.771 24.815V29.592C112.771 29.7053 112.732 29.8017 112.652 29.881C112.573 29.9603 112.477 30 112.363 30H110.867C110.754 30 110.658 29.9603 110.578 29.881C110.499 29.8017 110.459 29.7053 110.459 29.592V24.917C110.459 24.2597 110.295 23.744 109.966 23.37C109.649 22.996 109.184 22.809 108.572 22.809C107.983 22.809 107.513 22.996 107.161 23.37C106.81 23.744 106.634 24.2597 106.634 24.917V29.592C106.634 29.7053 106.595 29.8017 106.515 29.881C106.436 29.9603 106.34 30 106.226 30H104.73ZM118.926 33.74C118.098 33.74 117.418 33.6323 116.886 33.417C116.353 33.2017 115.934 32.941 115.628 32.635C115.322 32.329 115.101 32.023 114.965 31.717C114.84 31.4223 114.772 31.19 114.761 31.02C114.749 30.9067 114.783 30.8047 114.863 30.714C114.953 30.6347 115.055 30.595 115.169 30.595H116.648C116.761 30.595 116.852 30.6177 116.92 30.663C116.988 30.7197 117.044 30.816 117.09 30.952C117.158 31.0993 117.248 31.258 117.362 31.428C117.475 31.598 117.645 31.7397 117.872 31.853C118.11 31.9777 118.433 32.04 118.841 32.04C119.271 32.04 119.634 31.9777 119.929 31.853C120.223 31.7283 120.444 31.5187 120.592 31.224C120.75 30.9293 120.83 30.5213 120.83 30V28.844C120.558 29.1727 120.206 29.439 119.776 29.643C119.356 29.847 118.835 29.949 118.212 29.949C117.6 29.949 117.073 29.8527 116.631 29.66C116.189 29.456 115.82 29.1783 115.526 28.827C115.231 28.4643 115.004 28.0393 114.846 27.552C114.698 27.0647 114.613 26.5263 114.591 25.937C114.579 25.631 114.579 25.325 114.591 25.019C114.613 24.4523 114.698 23.9253 114.846 23.438C114.993 22.9507 115.214 22.5257 115.509 22.163C115.815 21.789 116.189 21.5 116.631 21.296C117.073 21.092 117.6 20.99 118.212 20.99C118.858 20.99 119.402 21.1147 119.844 21.364C120.286 21.602 120.648 21.9023 120.932 22.265V21.585C120.932 21.4603 120.971 21.3583 121.051 21.279C121.13 21.1997 121.226 21.16 121.34 21.16H122.717C122.83 21.16 122.926 21.1997 123.006 21.279C123.085 21.3583 123.125 21.4603 123.125 21.585L123.142 29.779C123.142 30.595 122.989 31.2977 122.683 31.887C122.377 32.4763 121.912 32.9297 121.289 33.247C120.677 33.5757 119.889 33.74 118.926 33.74ZM118.841 28.147C119.305 28.147 119.679 28.045 119.963 27.841C120.246 27.637 120.456 27.3707 120.592 27.042C120.728 26.7133 120.807 26.379 120.83 26.039C120.841 25.8917 120.847 25.7047 120.847 25.478C120.847 25.2513 120.841 25.07 120.83 24.934C120.807 24.5827 120.728 24.2483 120.592 23.931C120.456 23.6023 120.246 23.336 119.963 23.132C119.679 22.9167 119.305 22.809 118.841 22.809C118.376 22.809 118.002 22.9167 117.719 23.132C117.435 23.336 117.231 23.608 117.107 23.948C116.993 24.288 116.925 24.662 116.903 25.07C116.88 25.342 116.88 25.6197 116.903 25.903C116.925 26.2997 116.993 26.6737 117.107 27.025C117.231 27.365 117.435 27.637 117.719 27.841C118.002 28.045 118.376 28.147 118.841 28.147ZM129.214 30.17C127.956 30.17 126.959 29.8073 126.222 29.082C125.486 28.3567 125.089 27.3253 125.032 25.988C125.021 25.8747 125.015 25.733 125.015 25.563C125.015 25.3817 125.021 25.24 125.032 25.138C125.078 24.288 125.27 23.5513 125.61 22.928C125.962 22.3047 126.443 21.8287 127.055 21.5C127.667 21.16 128.387 20.99 129.214 20.99C130.132 20.99 130.903 21.1827 131.526 21.568C132.15 21.942 132.62 22.469 132.937 23.149C133.255 23.8177 133.413 24.594 133.413 25.478V25.835C133.413 25.9483 133.374 26.0447 133.294 26.124C133.215 26.2033 133.113 26.243 132.988 26.243H127.344C127.344 26.243 127.344 26.26 127.344 26.294C127.344 26.328 127.344 26.3563 127.344 26.379C127.356 26.7757 127.429 27.144 127.565 27.484C127.713 27.8127 127.922 28.079 128.194 28.283C128.478 28.487 128.812 28.589 129.197 28.589C129.515 28.589 129.781 28.5437 129.996 28.453C130.212 28.351 130.387 28.2377 130.523 28.113C130.659 27.9883 130.756 27.8863 130.812 27.807C130.914 27.671 130.994 27.5917 131.05 27.569C131.118 27.535 131.215 27.518 131.339 27.518H132.801C132.915 27.518 133.005 27.552 133.073 27.62C133.153 27.688 133.187 27.773 133.175 27.875C133.164 28.0563 133.068 28.2773 132.886 28.538C132.716 28.7987 132.467 29.0537 132.138 29.303C131.81 29.5523 131.396 29.762 130.897 29.932C130.41 30.0907 129.849 30.17 129.214 30.17ZM127.344 24.815H131.101V24.764C131.101 24.322 131.028 23.9367 130.88 23.608C130.733 23.2793 130.518 23.0187 130.234 22.826C129.951 22.6333 129.611 22.537 129.214 22.537C128.818 22.537 128.478 22.6333 128.194 22.826C127.911 23.0187 127.696 23.2793 127.548 23.608C127.412 23.9367 127.344 24.322 127.344 24.764V24.815Z" fill="white"/>
</svg>
